<svg fill="#000000" xmlns="http://www.w3.org/2000/svg" viewBox="0 0 50 50" width="32px" height="32px"><path d="M12.565 30.364c-.391-.391-1.023-.391-1.414 0s-.391 1.023 0 1.414l1.414 1.414L1.251 44.506c-1.17 1.17-1.17 3.073 0 4.243.585.585 1.353.877 2.121.877s1.536-.292 2.121-.877l11.314-11.314 1.414 1.414c.195.195.451.293.707.293s.512-.098.707-.293c.391-.391.391-1.023 0-1.414L12.565 30.364zM7 44.414l-2 2v-2.829l2-2V44.414zM11.979 39.435l-2.008 2.008.011-2.84 2.008-2.008L11.979 39.435zM47.971 4.201c0-1.336-.521-2.592-1.465-3.535-.391-.391-1.023-.391-1.414 0L15.396 30.362l4.242 4.243L46.506 7.736C47.451 6.792 47.971 5.537 47.971 4.201z"/></svg>