<svg fill="#000000" xmlns="http://www.w3.org/2000/svg" viewBox="0 0 50 50" width="32px" height="32px"><path d="M38.538,17.549c-0.531,0.149-1.411,0.354-2.498,0.447c-1.521,0.084-2.455-0.62-3.197-1.18C32.216,16.342,31.763,16,31,16c-0.62,0-1.472,2.226-1.718,4.493c-0.15,1.89-1.492,5.518-5.479,5.518c-0.653,0-1.283-0.068-1.895-0.174c0.382,3.787-0.279,6.586-2.012,8.287c-1.879,1.846-4.606,2.012-5.943,1.953c-0.167-2.336-0.912-8.641-4.173-12.703L8.315,21.55l-0.307,2.319c-0.203,1.529-0.714,2.503-1.52,2.897c-1.305,0.637-3.315-0.236-3.979-0.626l-1.571-0.932L1,27.033c0.18,5.336,1.543,9.119,4.053,11.245c1.791,1.517,3.667,1.732,4.555,1.738C10.729,41.048,14.523,44,21.25,44C28.214,44,40,40.425,40,27.024C40,22.724,39.123,19.336,38.538,17.549z"/><path d="M37.509 15.178c-3.865-7.024-10.524-8.641-12.648-8.982-.174-.351-.462-.741-.934-.984C23.48 4.981 22.73 4.818 21.617 5.38c-1.915.935-3.278 2.093-4.026 3.396-.795 1.229-.623 2.083-.338 2.582.274.48.722.767 1.183.937-.263.523-.482 1.029-.665 1.519-1.046 3.201-.985 5.796.199 7.558 1.11 1.652 3.291 2.639 5.834 2.639 3.157 0 3.477-3.554 3.488-3.705C27.408 19.229 28.122 14 31 14c1.434 0 2.329.676 3.049 1.22.63.476 1.096.815 1.854.782.707-.061 1.355-.189 1.833-.309L37.509 15.178zM23 20c-.552 0-1-.672-1-1.5s.448-1.5 1-1.5 1 .672 1 1.5S23.552 20 23 20zM18.111 33.003c.135-.103.274-.198.398-.321 1.685-1.672 1.673-4.865 1.351-7.309-.481-.208-1.119-.633-1.487-.859-2.459 2.622-4.174 5.86-4.258 6.02l-.425.812.771.495C15.707 32.642 16.945 32.961 18.111 33.003zM48.734 21.321c-2.041-2.207-5.415-4.077-8.556-4.888.745 2.355 1.624 5.809 1.792 9.399 3.674-.562 6.528-2.944 6.677-3.07l.795-.675L48.734 21.321z"/></svg>