<svg fill="#000000" xmlns="http://www.w3.org/2000/svg" viewBox="0 0 50 50" width="32px" height="32px"><path d="M 0.96875 6 C 0.652344 6.039063 0.375 6.242188 0.21875 6.53125 C 0.0078125 6.917969 0.0664063 7.375 0.375 7.6875 L 8.25 15.6875 C 8.4375 15.878906 8.699219 16 8.96875 16 L 41.03125 16 C 41.300781 16 41.5625 15.878906 41.75 15.6875 L 49.625 7.6875 C 49.933594 7.375 49.992188 6.917969 49.78125 6.53125 C 49.570313 6.144531 49.152344 5.9375 48.71875 6.03125 C 48.625 6.050781 39.113281 8 25.03125 8 C 10.964844 8 1.375 6.050781 1.28125 6.03125 C 1.171875 6.007813 1.074219 5.988281 0.96875 6 Z M 11 18 L 11 21 L 8 21 C 7.449219 21 7 21.449219 7 22 L 7 27 C 7 27.554688 7.449219 28 8 28 L 42 28 C 42.554688 28 43 27.554688 43 27 L 43 22 C 43 21.449219 42.554688 21 42 21 L 39 21 L 39 18 L 32 18 L 32 21 L 27 21 L 27 18 L 23 18 L 23 21 L 18 21 L 18 18 Z M 11 30 L 11 45 C 11 45.554688 11.449219 46 12 46 L 17 46 C 17.550781 46 18 45.554688 18 45 L 18 30 Z M 32 30 L 32 45 C 32 45.554688 32.445313 46 33 46 L 38 46 C 38.554688 46 39 45.554688 39 45 L 39 30 Z"/></svg>