<svg fill="#000000" xmlns="http://www.w3.org/2000/svg" viewBox="0 0 50 50" width="28px" height="28px"><path d="M 34.96875 1 C 34.703125 1.011719 34.429688 1.113281 34.25 1.3125 L 24.5625 12 L 44.8125 12 C 45.195313 11.953125 45.5 11.707031 45.625 11.34375 C 45.75 10.972656 45.664063 10.550781 45.375 10.28125 L 35.6875 1.28125 C 35.492188 1.097656 35.25 0.992188 34.96875 1 Z M 24.34375 14 L 39.09375 48.40625 C 39.230469 48.726563 39.5 48.949219 39.84375 49 C 39.890625 49.003906 39.953125 49 40 49 C 40.296875 49 40.589844 48.859375 40.78125 48.625 L 49.78125 37.625 C 50.054688 37.292969 50.070313 36.832031 49.84375 36.46875 L 35.78125 14 Z M 11.1875 17.875 C 10.992188 17.914063 10.800781 18.035156 10.65625 18.1875 C 10.367188 18.492188 10.3125 18.9375 10.5 19.3125 L 14.5625 27.40625 L 29.03125 30.0625 L 26.59375 24.3125 L 11.78125 17.9375 C 11.589844 17.855469 11.382813 17.835938 11.1875 17.875 Z M 0.875 27 C 0.566406 27.042969 0.277344 27.242188 0.125 27.53125 C -0.078125 27.917969 -0.0234375 28.375 0.28125 28.6875 L 19.71875 48.6875 C 19.90625 48.878906 20.167969 49 20.4375 49 L 37.15625 49 L 30 32.25 L 1.1875 27.03125 C 1.082031 27.011719 0.976563 26.984375 0.875 27 Z"/></svg>