<svg id="kvg-03048" class="kanjivg" viewBox="0 0 106 106" width="106" height="106" xmlns="http://www.w3.org/2000/svg" xmlns:xlink="http://www.w3.org/1999/xlink" xml:space="preserve" version="1.1" baseProfile="full"><defs><style type="text/css">path.black{fill:none;stroke:black;stroke-width:5;stroke-linecap:round;stroke-linejoin:round;}path.grey{fill:none;stroke:#ddd;stroke-width:5;stroke-linecap:round;stroke-linejoin:round;}path.stroke{fill:none;stroke:black;stroke-width:5;stroke-linecap:round;stroke-linejoin:round;}text{font-size:16px;font-family:Segoe UI Symbol,Cambria Math,DejaVu Sans,Symbola,Quivira,STIX,Code2000;-webkit-touch-callout:none;cursor:pointer;-webkit-user-select:none;-khtml-user-select:none;-moz-user-select:none;-ms-user-select:none;user-select: none;}text:hover{color:#777;}#reset{font-weight:bold;}</style><marker id="markerStart" markerWidth="8" markerHeight="8" style="overflow:visible;"><circle cx="0" cy="0" r="1.5" style="stroke:none;fill:red;fill-opacity:0.5;"/></marker><marker id="markerEnd" style="overflow:visible;"><circle cx="0" cy="0" r="0.8" style="stroke:none;fill:blue;fill-opacity:0.5;"><animate attributeName="opacity" from="1" to="0" dur="3s" repeatCount="indefinite" /></circle></marker></defs><path d="M40.52,13.25c5.62,2.12,10,3,14.12,3c8.27,0,8,1.12-0.38,5.5" class="grey" /><path d="M32.52,45.12c1.88,1.25,4.5,1.75,7.38,0.62c3.29-1.29,17-7.88,21.25-9.88c4.25-2,8.32,0.04,4.38,4.62c-12.26,14.27-27.26,31.52-39.51,44.4c-3.26,3.42-0.58,3.54,1.5,1.37c13.5-14.12,18.12-20.12,23.62-20.12c7.13,0,3.5,16.75,6.75,22.38c3.25,5.63,19.12,3.75,26.12,2.12" class="grey" /><path d="M40.52,13.25c5.62,2.12,10,3,14.12,3c8.27,0,8,1.12-0.38,5.5" class="stroke" stroke-dasharray="150"><animate attributeName="stroke-dashoffset" from="150" to="0" dur="1.8s" begin="0.0s" fill="freeze" /></path><path d="M32.52,45.12c1.88,1.25,4.5,1.75,7.38,0.62c3.29-1.29,17-7.88,21.25-9.88c4.25-2,8.32,0.04,4.38,4.62c-12.26,14.27-27.26,31.52-39.51,44.4c-3.26,3.42-0.58,3.54,1.5,1.37c13.5-14.12,18.12-20.12,23.62-20.12c7.13,0,3.5,16.75,6.75,22.38c3.25,5.63,19.12,3.75,26.12,2.12" class="stroke" stroke-dasharray="200"><set attributeName="opacity" to="0" dur="1.0s" /><animate attributeName="stroke-dashoffset" from="200" to="0" dur="1.8s" begin="1.0s" fill="freeze" /></path></svg>