<svg id="kvg-0304e" class="kanjivg" viewBox="0 0 106 106" width="106" height="106" xmlns="http://www.w3.org/2000/svg" xmlns:xlink="http://www.w3.org/1999/xlink" xml:space="preserve" version="1.1" baseProfile="full"><defs><style type="text/css">path.black{fill:none;stroke:black;stroke-width:5;stroke-linecap:round;stroke-linejoin:round;}path.grey{fill:none;stroke:#ddd;stroke-width:5;stroke-linecap:round;stroke-linejoin:round;}path.stroke{fill:none;stroke:black;stroke-width:5;stroke-linecap:round;stroke-linejoin:round;}text{font-size:16px;font-family:Segoe UI Symbol,Cambria Math,DejaVu Sans,Symbola,Quivira,STIX,Code2000;-webkit-touch-callout:none;cursor:pointer;-webkit-user-select:none;-khtml-user-select:none;-moz-user-select:none;-ms-user-select:none;user-select: none;}text:hover{color:#777;}#reset{font-weight:bold;}</style><marker id="markerStart" markerWidth="8" markerHeight="8" style="overflow:visible;"><circle cx="0" cy="0" r="1.5" style="stroke:none;fill:red;fill-opacity:0.5;"/></marker><marker id="markerEnd" style="overflow:visible;"><circle cx="0" cy="0" r="0.8" style="stroke:none;fill:blue;fill-opacity:0.5;"><animate attributeName="opacity" from="1" to="0" dur="3s" repeatCount="indefinite" /></circle></marker></defs><path d="M30.5,30.5c1.88,0.75,4.64,1.06,5.88,0.88c6.75-1,22.25-4.5,26.5-6c2.17-0.76,3.5-1.25,4.88-2.12" class="grey" /><path d="M36.25,48.95c2.01,0.85,4.97,1.2,6.29,0.99c7.23-1.13,23.82-5.09,28.37-6.79c2.32-0.86,3.75-1.41,5.22-2.4" class="grey" /><path d="M42,14.38c1.5,0.88,3.13,2.94,4,5.12c5.5,13.75,16,29.25,26.38,40.75c7.64,8.47,9.12,9.38-6,3.88" class="grey" /><path d="M33.75,83.5c10.62,9.75,27.25,8.62,38.12,5" class="grey" /><path d="M77.37,19c2.75,1.75,6,5.38,7.75,8.5" class="grey" /><path d="M83.75,14.12c3.06,1.57,6.68,4.82,8.62,7.62" class="grey" /><path d="M30.5,30.5c1.88,0.75,4.64,1.06,5.88,0.88c6.75-1,22.25-4.5,26.5-6c2.17-0.76,3.5-1.25,4.88-2.12" class="stroke" stroke-dasharray="150"><animate attributeName="stroke-dashoffset" from="150" to="0" dur="1.8s" begin="0.0s" fill="freeze" /></path><path d="M36.25,48.95c2.01,0.85,4.97,1.2,6.29,0.99c7.23-1.13,23.82-5.09,28.37-6.79c2.32-0.86,3.75-1.41,5.22-2.4" class="stroke" stroke-dasharray="150"><set attributeName="opacity" to="0" dur="1.0s" /><animate attributeName="stroke-dashoffset" from="150" to="0" dur="1.8s" begin="1.0s" fill="freeze" /></path><path d="M42,14.38c1.5,0.88,3.13,2.94,4,5.12c5.5,13.75,16,29.25,26.38,40.75c7.64,8.47,9.12,9.38-6,3.88" class="stroke" stroke-dasharray="150"><set attributeName="opacity" to="0" dur="2.1s" /><animate attributeName="stroke-dashoffset" from="150" to="0" dur="1.8s" begin="2.1s" fill="freeze" /></path><path d="M33.75,83.5c10.62,9.75,27.25,8.62,38.12,5" class="stroke" stroke-dasharray="150"><set attributeName="opacity" to="0" dur="3.8s" /><animate attributeName="stroke-dashoffset" from="150" to="0" dur="1.8s" begin="3.8s" fill="freeze" /></path><path d="M77.37,19c2.75,1.75,6,5.38,7.75,8.5" class="stroke" stroke-dasharray="150"><set attributeName="opacity" to="0" dur="4.9s" /><animate attributeName="stroke-dashoffset" from="150" to="0" dur="1.8s" begin="4.9s" fill="freeze" /></path><path d="M83.75,14.12c3.06,1.57,6.68,4.82,8.62,7.62" class="stroke" stroke-dasharray="150"><set attributeName="opacity" to="0" dur="5.800000000000001s" /><animate attributeName="stroke-dashoffset" from="150" to="0" dur="1.8s" begin="5.800000000000001s" fill="freeze" /></path></svg>