<svg id="kvg-0304a" class="kanjivg" viewBox="0 0 106 106" width="106" height="106" xmlns="http://www.w3.org/2000/svg" xmlns:xlink="http://www.w3.org/1999/xlink" xml:space="preserve" version="1.1" baseProfile="full"><defs><style type="text/css">path.black{fill:none;stroke:black;stroke-width:5;stroke-linecap:round;stroke-linejoin:round;}path.grey{fill:none;stroke:#ddd;stroke-width:5;stroke-linecap:round;stroke-linejoin:round;}path.stroke{fill:none;stroke:black;stroke-width:5;stroke-linecap:round;stroke-linejoin:round;}text{font-size:16px;font-family:Segoe UI Symbol,Cambria Math,DejaVu Sans,Symbola,Quivira,STIX,Code2000;-webkit-touch-callout:none;cursor:pointer;-webkit-user-select:none;-khtml-user-select:none;-moz-user-select:none;-ms-user-select:none;user-select: none;}text:hover{color:#777;}#reset{font-weight:bold;}</style><marker id="markerStart" markerWidth="8" markerHeight="8" style="overflow:visible;"><circle cx="0" cy="0" r="1.5" style="stroke:none;fill:red;fill-opacity:0.5;"/></marker><marker id="markerEnd" style="overflow:visible;"><circle cx="0" cy="0" r="0.8" style="stroke:none;fill:blue;fill-opacity:0.5;"><animate attributeName="opacity" from="1" to="0" dur="3s" repeatCount="indefinite" /></circle></marker></defs><path d="M22.88,35.12c1.38,1,3.62,2.38,6,2.12c2.38-0.26,19.62-5.12,21.12-5.74c1.5-0.62,4-1.25,5.88-2" class="grey" /><path d="M41.5,16.12c2.25,1,3.59,4.39,3.12,7.38c-2.5,16.12-3.37,45.53-2.25,58.38c0.75,8.62-0.64,10.45-7.12,7.12c-5.13-2.62-13.75-8-13.75-12.38c0-7.5,24.38-23.62,44.75-23.62c17.25,0,25,8.25,25,17.25c0,8.25-9.38,18.88-26.75,21" class="grey" /><path d="M73,22.12c5.38,2.62,8.88,5.88,10.62,8.25c2.27,3.08,0.38,4.5-1.12,5" class="grey" /><path d="M22.88,35.12c1.38,1,3.62,2.38,6,2.12c2.38-0.26,19.62-5.12,21.12-5.74c1.5-0.62,4-1.25,5.88-2" class="stroke" stroke-dasharray="150"><animate attributeName="stroke-dashoffset" from="150" to="0" dur="1.8s" begin="0.0s" fill="freeze" /></path><path d="M41.5,16.12c2.25,1,3.59,4.39,3.12,7.38c-2.5,16.12-3.37,45.53-2.25,58.38c0.75,8.62-0.64,10.45-7.12,7.12c-5.13-2.62-13.75-8-13.75-12.38c0-7.5,24.38-23.62,44.75-23.62c17.25,0,25,8.25,25,17.25c0,8.25-9.38,18.88-26.75,21" class="stroke" stroke-dasharray="250"><set attributeName="opacity" to="0" dur="1.0s" /><animate attributeName="stroke-dashoffset" from="250" to="0" dur="1.8s" begin="1.0s" fill="freeze" /></path><path d="M73,22.12c5.38,2.62,8.88,5.88,10.62,8.25c2.27,3.08,0.38,4.5-1.12,5" class="stroke" stroke-dasharray="150"><set attributeName="opacity" to="0" dur="3.0s" /><animate attributeName="stroke-dashoffset" from="150" to="0" dur="1.8s" begin="3.0s" fill="freeze" /></path></svg>