<svg id="kvg-0305b" class="kanjivg" viewBox="0 0 106 106" width="106" height="106" xmlns="http://www.w3.org/2000/svg" xmlns:xlink="http://www.w3.org/1999/xlink" xml:space="preserve" version="1.1" baseProfile="full"><defs><style type="text/css">path.black{fill:none;stroke:black;stroke-width:5;stroke-linecap:round;stroke-linejoin:round;}path.grey{fill:none;stroke:#ddd;stroke-width:5;stroke-linecap:round;stroke-linejoin:round;}path.stroke{fill:none;stroke:black;stroke-width:5;stroke-linecap:round;stroke-linejoin:round;}text{font-size:16px;font-family:Segoe UI Symbol,Cambria Math,DejaVu Sans,Symbola,Quivira,STIX,Code2000;-webkit-touch-callout:none;cursor:pointer;-webkit-user-select:none;-khtml-user-select:none;-moz-user-select:none;-ms-user-select:none;user-select: none;}text:hover{color:#777;}#reset{font-weight:bold;}</style><marker id="markerStart" markerWidth="8" markerHeight="8" style="overflow:visible;"><circle cx="0" cy="0" r="1.5" style="stroke:none;fill:red;fill-opacity:0.5;"/></marker><marker id="markerEnd" style="overflow:visible;"><circle cx="0" cy="0" r="0.8" style="stroke:none;fill:blue;fill-opacity:0.5;"><animate attributeName="opacity" from="1" to="0" dur="3s" repeatCount="indefinite" /></circle></marker></defs><path d="M16.5,49.93c2.88,2.42,6.86,1.57,12.75,0.53c19-3.34,33-5.72,47.12-7.64c6.99-0.95,11.88-1.21,17.75-0.36" class="grey" /><path d="M69.74,17.75c2,1.5,2.75,3.25,2.75,5.88c0,10.38,0,17.88,0,23.5c0,25.62-5.75,23.25-11.88,19" class="grey" /><path d="M35.62,26.25c2,1.5,2.75,3.25,2.75,5.88c0,10.38,0,28.38,0,34c0,14.5,6.38,19.55,20.14,19.55c10.24,0,13.74,0.07,22.61-1.68" class="grey" /><path d="M16.5,49.93c2.88,2.42,6.86,1.57,12.75,0.53c19-3.34,33-5.72,47.12-7.64c6.99-0.95,11.88-1.21,17.75-0.36" class="stroke" stroke-dasharray="150"><animate attributeName="stroke-dashoffset" from="150" to="0" dur="1.8s" begin="0.0s" fill="freeze" /></path><path d="M69.74,17.75c2,1.5,2.75,3.25,2.75,5.88c0,10.38,0,17.88,0,23.5c0,25.62-5.75,23.25-11.88,19" class="stroke" stroke-dasharray="150"><set attributeName="opacity" to="0" dur="1.7s" /><animate attributeName="stroke-dashoffset" from="150" to="0" dur="1.8s" begin="1.7s" fill="freeze" /></path><path d="M35.62,26.25c2,1.5,2.75,3.25,2.75,5.88c0,10.38,0,28.38,0,34c0,14.5,6.38,19.55,20.14,19.55c10.24,0,13.74,0.07,22.61-1.68" class="stroke" stroke-dasharray="150"><set attributeName="opacity" to="0" dur="3.2s" /><animate attributeName="stroke-dashoffset" from="150" to="0" dur="1.8s" begin="3.2s" fill="freeze" /></path></svg>