<svg id="kvg-0305e" class="kanjivg" viewBox="0 0 106 106" width="106" height="106" xmlns="http://www.w3.org/2000/svg" xmlns:xlink="http://www.w3.org/1999/xlink" xml:space="preserve" version="1.1" baseProfile="full"><defs><style type="text/css">path.black{fill:none;stroke:black;stroke-width:5;stroke-linecap:round;stroke-linejoin:round;}path.grey{fill:none;stroke:#ddd;stroke-width:5;stroke-linecap:round;stroke-linejoin:round;}path.stroke{fill:none;stroke:black;stroke-width:5;stroke-linecap:round;stroke-linejoin:round;}text{font-size:16px;font-family:Segoe UI Symbol,Cambria Math,DejaVu Sans,Symbola,Quivira,STIX,Code2000;-webkit-touch-callout:none;cursor:pointer;-webkit-user-select:none;-khtml-user-select:none;-moz-user-select:none;-ms-user-select:none;user-select: none;}text:hover{color:#777;}#reset{font-weight:bold;}</style><marker id="markerStart" markerWidth="8" markerHeight="8" style="overflow:visible;"><circle cx="0" cy="0" r="1.5" style="stroke:none;fill:red;fill-opacity:0.5;"/></marker><marker id="markerEnd" style="overflow:visible;"><circle cx="0" cy="0" r="0.8" style="stroke:none;fill:blue;fill-opacity:0.5;"><animate attributeName="opacity" from="1" to="0" dur="3s" repeatCount="indefinite" /></circle></marker></defs><path d="M38.4,22c1.88,1.25,4.98,1.05,7.5,0.38c6.5-1.75,13.25-3.75,19.38-5.38c4.63-1.23,7.18,2.06,3.62,5.25c-12.12,10.87-31.14,24.4-40,30.25c-6.25,4.12-5.88,5.75,1.38,3.88c17.08-4.42,35.96-8.68,50.12-10.38c9.38-1.12,9.62,0.12,0.5,1.38c-15.82,2.17-34.38,14.25-34.38,26.5c0,12.88,11.62,20.38,31.5,16.62" class="grey" /><path d="M81.78,26.75c2.75,1.75,6,5.38,7.75,8.5" class="grey" /><path d="M88.15,21.88c3.06,1.57,6.68,4.82,8.62,7.62" class="grey" /><path d="M38.4,22c1.88,1.25,4.98,1.05,7.5,0.38c6.5-1.75,13.25-3.75,19.38-5.38c4.63-1.23,7.18,2.06,3.62,5.25c-12.12,10.87-31.14,24.4-40,30.25c-6.25,4.12-5.88,5.75,1.38,3.88c17.08-4.42,35.96-8.68,50.12-10.38c9.38-1.12,9.62,0.12,0.5,1.38c-15.82,2.17-34.38,14.25-34.38,26.5c0,12.88,11.62,20.38,31.5,16.62" class="stroke" stroke-dasharray="300"><animate attributeName="stroke-dashoffset" from="300" to="0" dur="1.8s" begin="0.0s" fill="freeze" /></path><path d="M81.78,26.75c2.75,1.75,6,5.38,7.75,8.5" class="stroke" stroke-dasharray="150"><set attributeName="opacity" to="0" dur="2.0s" /><animate attributeName="stroke-dashoffset" from="150" to="0" dur="1.8s" begin="2.0s" fill="freeze" /></path><path d="M88.15,21.88c3.06,1.57,6.68,4.82,8.62,7.62" class="stroke" stroke-dasharray="150"><set attributeName="opacity" to="0" dur="2.9s" /><animate attributeName="stroke-dashoffset" from="150" to="0" dur="1.8s" begin="2.9s" fill="freeze" /></path></svg>