<svg id="kvg-0305f" class="kanjivg" viewBox="0 0 106 106" width="106" height="106" xmlns="http://www.w3.org/2000/svg" xmlns:xlink="http://www.w3.org/1999/xlink" xml:space="preserve" version="1.1" baseProfile="full"><defs><style type="text/css">path.black{fill:none;stroke:black;stroke-width:5;stroke-linecap:round;stroke-linejoin:round;}path.grey{fill:none;stroke:#ddd;stroke-width:5;stroke-linecap:round;stroke-linejoin:round;}path.stroke{fill:none;stroke:black;stroke-width:5;stroke-linecap:round;stroke-linejoin:round;}text{font-size:16px;font-family:Segoe UI Symbol,Cambria Math,DejaVu Sans,Symbola,Quivira,STIX,Code2000;-webkit-touch-callout:none;cursor:pointer;-webkit-user-select:none;-khtml-user-select:none;-moz-user-select:none;-ms-user-select:none;user-select: none;}text:hover{color:#777;}#reset{font-weight:bold;}</style><marker id="markerStart" markerWidth="8" markerHeight="8" style="overflow:visible;"><circle cx="0" cy="0" r="1.5" style="stroke:none;fill:red;fill-opacity:0.5;"/></marker><marker id="markerEnd" style="overflow:visible;"><circle cx="0" cy="0" r="0.8" style="stroke:none;fill:blue;fill-opacity:0.5;"><animate attributeName="opacity" from="1" to="0" dur="3s" repeatCount="indefinite" /></circle></marker></defs><path d="M24.38,35.38c1.38,0.62,3.88,1.51,6.38,1.12c6.5-1,16.25-2.88,24.88-4.75c2.64-0.57,5.38-1.5,7.62-2.38" class="grey" /><path d="M45,16.88c0.75,1.25,0.87,3.62,0.38,5.25c-6.35,20.94-12.75,36.37-18.88,52.37c-1.36,3.56-4.75,11.75-6,14.62" class="grey" /><path d="M56.38,53.25c12.38-2.75,18.25-3.7,23.62-3.12c15.12,1.62-1.12,2.25-4.25,4.88" class="grey" /><path d="M54.13,82.25c4.38,7,14.25,8.12,34.5,5.62" class="grey" /><path d="M24.38,35.38c1.38,0.62,3.88,1.51,6.38,1.12c6.5-1,16.25-2.88,24.88-4.75c2.64-0.57,5.38-1.5,7.62-2.38" class="stroke" stroke-dasharray="150"><animate attributeName="stroke-dashoffset" from="150" to="0" dur="1.8s" begin="0.0s" fill="freeze" /></path><path d="M45,16.88c0.75,1.25,0.87,3.62,0.38,5.25c-6.35,20.94-12.75,36.37-18.88,52.37c-1.36,3.56-4.75,11.75-6,14.62" class="stroke" stroke-dasharray="150"><set attributeName="opacity" to="0" dur="1.0s" /><animate attributeName="stroke-dashoffset" from="150" to="0" dur="1.8s" begin="1.0s" fill="freeze" /></path><path d="M56.38,53.25c12.38-2.75,18.25-3.7,23.62-3.12c15.12,1.62-1.12,2.25-4.25,4.88" class="stroke" stroke-dasharray="150"><set attributeName="opacity" to="0" dur="2.7s" /><animate attributeName="stroke-dashoffset" from="150" to="0" dur="1.8s" begin="2.7s" fill="freeze" /></path><path d="M54.13,82.25c4.38,7,14.25,8.12,34.5,5.62" class="stroke" stroke-dasharray="150"><set attributeName="opacity" to="0" dur="3.8000000000000003s" /><animate attributeName="stroke-dashoffset" from="150" to="0" dur="1.8s" begin="3.8000000000000003s" fill="freeze" /></path></svg>