<svg id="kvg-0306c" class="kanjivg" viewBox="0 0 106 106" width="106" height="106" xmlns="http://www.w3.org/2000/svg" xmlns:xlink="http://www.w3.org/1999/xlink" xml:space="preserve" version="1.1" baseProfile="full"><defs><style type="text/css">path.black{fill:none;stroke:black;stroke-width:5;stroke-linecap:round;stroke-linejoin:round;}path.grey{fill:none;stroke:#ddd;stroke-width:5;stroke-linecap:round;stroke-linejoin:round;}path.stroke{fill:none;stroke:black;stroke-width:5;stroke-linecap:round;stroke-linejoin:round;}text{font-size:16px;font-family:Segoe UI Symbol,Cambria Math,DejaVu Sans,Symbola,Quivira,STIX,Code2000;-webkit-touch-callout:none;cursor:pointer;-webkit-user-select:none;-khtml-user-select:none;-moz-user-select:none;-ms-user-select:none;user-select: none;}text:hover{color:#777;}#reset{font-weight:bold;}</style><marker id="markerStart" markerWidth="8" markerHeight="8" style="overflow:visible;"><circle cx="0" cy="0" r="1.5" style="stroke:none;fill:red;fill-opacity:0.5;"/></marker><marker id="markerEnd" style="overflow:visible;"><circle cx="0" cy="0" r="0.8" style="stroke:none;fill:blue;fill-opacity:0.5;"><animate attributeName="opacity" from="1" to="0" dur="3s" repeatCount="indefinite" /></circle></marker></defs><path d="M25.38,28.5c2,1.38,2.97,3.23,3.38,5.88c1.87,12.18,4.12,23.92,8.54,34.67c1.79,4.36,3.96,8.33,6.84,12.46" class="grey" /><path d="M57.12,19.25c0.88,2.12,1.06,3.79,0.62,5.88c-3.12,15-13.14,39.81-18.12,48.62c-11.87,21-20.62,1.25-20.62-4.5c0-22.63,43.75-44.25,62.36-29.59c7.66,6.03,9.8,14.58,9.14,23.34c-2,26.75-32.88,28.38-32.88,16.88c0-9.38,17.38-7.12,27.12-1.12c3.1,1.91,7.25,5.25,9.5,7.5" class="grey" /><path d="M25.38,28.5c2,1.38,2.97,3.23,3.38,5.88c1.87,12.18,4.12,23.92,8.54,34.67c1.79,4.36,3.96,8.33,6.84,12.46" class="stroke" stroke-dasharray="150"><animate attributeName="stroke-dashoffset" from="150" to="0" dur="1.8s" begin="0.0s" fill="freeze" /></path><path d="M57.12,19.25c0.88,2.12,1.06,3.79,0.62,5.88c-3.12,15-13.14,39.81-18.12,48.62c-11.87,21-20.62,1.25-20.62-4.5c0-22.63,43.75-44.25,62.36-29.59c7.66,6.03,9.8,14.58,9.14,23.34c-2,26.75-32.88,28.38-32.88,16.88c0-9.38,17.38-7.12,27.12-1.12c3.1,1.91,7.25,5.25,9.5,7.5" class="stroke" stroke-dasharray="300"><set attributeName="opacity" to="0" dur="1.4s" /><animate attributeName="stroke-dashoffset" from="300" to="0" dur="1.8s" begin="1.4s" fill="freeze" /></path></svg>