<svg id="kvg-03068" class="kanjivg" viewBox="0 0 106 106" width="106" height="106" xmlns="http://www.w3.org/2000/svg" xmlns:xlink="http://www.w3.org/1999/xlink" xml:space="preserve" version="1.1" baseProfile="full"><defs><style type="text/css">path.black{fill:none;stroke:black;stroke-width:5;stroke-linecap:round;stroke-linejoin:round;}path.grey{fill:none;stroke:#ddd;stroke-width:5;stroke-linecap:round;stroke-linejoin:round;}path.stroke{fill:none;stroke:black;stroke-width:5;stroke-linecap:round;stroke-linejoin:round;}text{font-size:16px;font-family:Segoe UI Symbol,Cambria Math,DejaVu Sans,Symbola,Quivira,STIX,Code2000;-webkit-touch-callout:none;cursor:pointer;-webkit-user-select:none;-khtml-user-select:none;-moz-user-select:none;-ms-user-select:none;user-select: none;}text:hover{color:#777;}#reset{font-weight:bold;}</style><marker id="markerStart" markerWidth="8" markerHeight="8" style="overflow:visible;"><circle cx="0" cy="0" r="1.5" style="stroke:none;fill:red;fill-opacity:0.5;"/></marker><marker id="markerEnd" style="overflow:visible;"><circle cx="0" cy="0" r="0.8" style="stroke:none;fill:blue;fill-opacity:0.5;"><animate attributeName="opacity" from="1" to="0" dur="3s" repeatCount="indefinite" /></circle></marker></defs><path d="M35.5,18.38c1.74,0.74,3.62,2.62,4.12,5.37c0.5,2.75,4.75,25,5.38,28.12" class="grey" /><path d="M78.12,25.5c0.25,1.88,0.04,4.09-2.25,5.75c-6.37,4.63-13.22,8.49-22.75,15.25c-12.88,9.12-21.62,18.38-21.62,27.5c0,10.12,8.5,13.88,26.88,13.88c6.25,0,14.75-0.12,21.62-1.25" class="grey" /><path d="M35.5,18.38c1.74,0.74,3.62,2.62,4.12,5.37c0.5,2.75,4.75,25,5.38,28.12" class="stroke" stroke-dasharray="150"><animate attributeName="stroke-dashoffset" from="150" to="0" dur="1.8s" begin="0.0s" fill="freeze" /></path><path d="M78.12,25.5c0.25,1.88,0.04,4.09-2.25,5.75c-6.37,4.63-13.22,8.49-22.75,15.25c-12.88,9.12-21.62,18.38-21.62,27.5c0,10.12,8.5,13.88,26.88,13.88c6.25,0,14.75-0.12,21.62-1.25" class="stroke" stroke-dasharray="150"><set attributeName="opacity" to="0" dur="1.0s" /><animate attributeName="stroke-dashoffset" from="150" to="0" dur="1.8s" begin="1.0s" fill="freeze" /></path></svg>