<svg id="kvg-0306a" class="kanjivg" viewBox="0 0 106 106" width="106" height="106" xmlns="http://www.w3.org/2000/svg" xmlns:xlink="http://www.w3.org/1999/xlink" xml:space="preserve" version="1.1" baseProfile="full"><defs><style type="text/css">path.black{fill:none;stroke:black;stroke-width:5;stroke-linecap:round;stroke-linejoin:round;}path.grey{fill:none;stroke:#ddd;stroke-width:5;stroke-linecap:round;stroke-linejoin:round;}path.stroke{fill:none;stroke:black;stroke-width:5;stroke-linecap:round;stroke-linejoin:round;}text{font-size:16px;font-family:Segoe UI Symbol,Cambria Math,DejaVu Sans,Symbola,Quivira,STIX,Code2000;-webkit-touch-callout:none;cursor:pointer;-webkit-user-select:none;-khtml-user-select:none;-moz-user-select:none;-ms-user-select:none;user-select: none;}text:hover{color:#777;}#reset{font-weight:bold;}</style><marker id="markerStart" markerWidth="8" markerHeight="8" style="overflow:visible;"><circle cx="0" cy="0" r="1.5" style="stroke:none;fill:red;fill-opacity:0.5;"/></marker><marker id="markerEnd" style="overflow:visible;"><circle cx="0" cy="0" r="0.8" style="stroke:none;fill:blue;fill-opacity:0.5;"><animate attributeName="opacity" from="1" to="0" dur="3s" repeatCount="indefinite" /></circle></marker></defs><path d="M22.88,28.96c1.18,0.58,3.3,1.1,5.47,1.05c5.53-0.13,10.9-0.98,16.52-2.42c4.82-1.23,9.13-3.12,11.38-4.22" class="grey" /><path d="M42.99,14c0.63,0.89,0.56,2.52,0.31,3.72c-2.96,14.16-7.95,26.56-14.25,37.87c-2.05,3.69-4.25,7.24-6.55,10.65" class="grey" /><path d="M72.26,23.25c6.88,2.5,12.62,5.62,14.75,9.5c4.06,7.41-0.25,3.38-3.5,3.88" class="grey" /><path d="M68.88,44.62c-1,1.88-2.14,5.24-1.88,8.25c0.62,7,1.5,13.12,1.5,20.62c0,20-27.88,19.75-27.88,9.38c0-5.62,8.25-8.25,13.88-8.25c8.75,0,21.5,3.25,29.75,11.5" class="grey" /><path d="M22.88,28.96c1.18,0.58,3.3,1.1,5.47,1.05c5.53-0.13,10.9-0.98,16.52-2.42c4.82-1.23,9.13-3.12,11.38-4.22" class="stroke" stroke-dasharray="150"><animate attributeName="stroke-dashoffset" from="150" to="0" dur="1.8s" begin="0.0s" fill="freeze" /></path><path d="M42.99,14c0.63,0.89,0.56,2.52,0.31,3.72c-2.96,14.16-7.95,26.56-14.25,37.87c-2.05,3.69-4.25,7.24-6.55,10.65" class="stroke" stroke-dasharray="150"><set attributeName="opacity" to="0" dur="1.0s" /><animate attributeName="stroke-dashoffset" from="150" to="0" dur="1.8s" begin="1.0s" fill="freeze" /></path><path d="M72.26,23.25c6.88,2.5,12.62,5.62,14.75,9.5c4.06,7.41-0.25,3.38-3.5,3.88" class="stroke" stroke-dasharray="150"><set attributeName="opacity" to="0" dur="2.4s" /><animate attributeName="stroke-dashoffset" from="150" to="0" dur="1.8s" begin="2.4s" fill="freeze" /></path><path d="M68.88,44.62c-1,1.88-2.14,5.24-1.88,8.25c0.62,7,1.5,13.12,1.5,20.62c0,20-27.88,19.75-27.88,9.38c0-5.62,8.25-8.25,13.88-8.25c8.75,0,21.5,3.25,29.75,11.5" class="stroke" stroke-dasharray="150"><set attributeName="opacity" to="0" dur="3.4s" /><animate attributeName="stroke-dashoffset" from="150" to="0" dur="1.8s" begin="3.4s" fill="freeze" /></path></svg>