<svg id="kvg-0306b" class="kanjivg" viewBox="0 0 106 106" width="106" height="106" xmlns="http://www.w3.org/2000/svg" xmlns:xlink="http://www.w3.org/1999/xlink" xml:space="preserve" version="1.1" baseProfile="full"><defs><style type="text/css">path.black{fill:none;stroke:black;stroke-width:5;stroke-linecap:round;stroke-linejoin:round;}path.grey{fill:none;stroke:#ddd;stroke-width:5;stroke-linecap:round;stroke-linejoin:round;}path.stroke{fill:none;stroke:black;stroke-width:5;stroke-linecap:round;stroke-linejoin:round;}text{font-size:16px;font-family:Segoe UI Symbol,Cambria Math,DejaVu Sans,Symbola,Quivira,STIX,Code2000;-webkit-touch-callout:none;cursor:pointer;-webkit-user-select:none;-khtml-user-select:none;-moz-user-select:none;-ms-user-select:none;user-select: none;}text:hover{color:#777;}#reset{font-weight:bold;}</style><marker id="markerStart" markerWidth="8" markerHeight="8" style="overflow:visible;"><circle cx="0" cy="0" r="1.5" style="stroke:none;fill:red;fill-opacity:0.5;"/></marker><marker id="markerEnd" style="overflow:visible;"><circle cx="0" cy="0" r="0.8" style="stroke:none;fill:blue;fill-opacity:0.5;"><animate attributeName="opacity" from="1" to="0" dur="3s" repeatCount="indefinite" /></circle></marker></defs><path d="M24.53,22.75c1.25,1.5,1.62,3.75,1.12,6.38c-3,15.88-9,32.5-7.38,47.62c2.02,18.84,4.5,5.75,8.5-3.5" class="grey" /><path d="M53.2,30.64c0.96,0.79,2.44,1.58,5.1,1.35c6.98-0.61,15.01-3.3,22.04-3.36c13.19-0.11,1.5,3.75-8.39,7.35" class="grey" /><path d="M52.53,68c1.76,12.92,11.92,16.01,24.23,14.93c5.08-0.45,8.9-0.8,14.27-2.06" class="grey" /><path d="M24.53,22.75c1.25,1.5,1.62,3.75,1.12,6.38c-3,15.88-9,32.5-7.38,47.62c2.02,18.84,4.5,5.75,8.5-3.5" class="stroke" stroke-dasharray="150"><animate attributeName="stroke-dashoffset" from="150" to="0" dur="1.8s" begin="0.0s" fill="freeze" /></path><path d="M53.2,30.64c0.96,0.79,2.44,1.58,5.1,1.35c6.98-0.61,15.01-3.3,22.04-3.36c13.19-0.11,1.5,3.75-8.39,7.35" class="stroke" stroke-dasharray="150"><set attributeName="opacity" to="0" dur="1.7s" /><animate attributeName="stroke-dashoffset" from="150" to="0" dur="1.8s" begin="1.7s" fill="freeze" /></path><path d="M52.53,68c1.76,12.92,11.92,16.01,24.23,14.93c5.08-0.45,8.9-0.8,14.27-2.06" class="stroke" stroke-dasharray="150"><set attributeName="opacity" to="0" dur="2.9s" /><animate attributeName="stroke-dashoffset" from="150" to="0" dur="1.8s" begin="2.9s" fill="freeze" /></path></svg>