<svg id="kvg-0307a" class="kanjivg" viewBox="0 0 106 106" width="106" height="106" xmlns="http://www.w3.org/2000/svg" xmlns:xlink="http://www.w3.org/1999/xlink" xml:space="preserve" version="1.1" baseProfile="full"><defs><style type="text/css">path.black{fill:none;stroke:black;stroke-width:5;stroke-linecap:round;stroke-linejoin:round;}path.grey{fill:none;stroke:#ddd;stroke-width:5;stroke-linecap:round;stroke-linejoin:round;}path.stroke{fill:none;stroke:black;stroke-width:5;stroke-linecap:round;stroke-linejoin:round;}text{font-size:16px;font-family:Segoe UI Symbol,Cambria Math,DejaVu Sans,Symbola,Quivira,STIX,Code2000;-webkit-touch-callout:none;cursor:pointer;-webkit-user-select:none;-khtml-user-select:none;-moz-user-select:none;-ms-user-select:none;user-select: none;}text:hover{color:#777;}#reset{font-weight:bold;}</style><marker id="markerStart" markerWidth="8" markerHeight="8" style="overflow:visible;"><circle cx="0" cy="0" r="1.5" style="stroke:none;fill:red;fill-opacity:0.5;"/></marker><marker id="markerEnd" style="overflow:visible;"><circle cx="0" cy="0" r="0.8" style="stroke:none;fill:blue;fill-opacity:0.5;"><animate attributeName="opacity" from="1" to="0" dur="3s" repeatCount="indefinite" /></circle></marker></defs><path d="M15,48.75c2.25,1.62,4.67,1.96,7-0.38c3.62-3.62,7.46-6.54,11.25-10.5c5.5-5.75,8.48-4.75,13.12-0.88c12.12,10.12,30.38,25.12,33.38,27.38c3,2.26,12.38,10.38,13.88,11.63" class="grey" /><path d="M73.63,36.75c-9.62,0-9.25-14.25,0-14.25c9.75,0,9.5,14.25,0,14.25" class="grey" /><path d="M15,48.75c2.25,1.62,4.67,1.96,7-0.38c3.62-3.62,7.46-6.54,11.25-10.5c5.5-5.75,8.48-4.75,13.12-0.88c12.12,10.12,30.38,25.12,33.38,27.38c3,2.26,12.38,10.38,13.88,11.63" class="stroke" stroke-dasharray="150"><animate attributeName="stroke-dashoffset" from="150" to="0" dur="1.8s" begin="0.0s" fill="freeze" /></path><path d="M73.63,36.75c-9.62,0-9.25-14.25,0-14.25c9.75,0,9.5,14.25,0,14.25" class="stroke" stroke-dasharray="150"><set attributeName="opacity" to="0" dur="1.8s" /><animate attributeName="stroke-dashoffset" from="150" to="0" dur="1.8s" begin="1.8s" fill="freeze" /></path></svg>