<svg id="kvg-0307d" class="kanjivg" viewBox="0 0 106 106" width="106" height="106" xmlns="http://www.w3.org/2000/svg" xmlns:xlink="http://www.w3.org/1999/xlink" xml:space="preserve" version="1.1" baseProfile="full"><defs><style type="text/css">path.black{fill:none;stroke:black;stroke-width:5;stroke-linecap:round;stroke-linejoin:round;}path.grey{fill:none;stroke:#ddd;stroke-width:5;stroke-linecap:round;stroke-linejoin:round;}path.stroke{fill:none;stroke:black;stroke-width:5;stroke-linecap:round;stroke-linejoin:round;}text{font-size:16px;font-family:Segoe UI Symbol,Cambria Math,DejaVu Sans,Symbola,Quivira,STIX,Code2000;-webkit-touch-callout:none;cursor:pointer;-webkit-user-select:none;-khtml-user-select:none;-moz-user-select:none;-ms-user-select:none;user-select: none;}text:hover{color:#777;}#reset{font-weight:bold;}</style><marker id="markerStart" markerWidth="8" markerHeight="8" style="overflow:visible;"><circle cx="0" cy="0" r="1.5" style="stroke:none;fill:red;fill-opacity:0.5;"/></marker><marker id="markerEnd" style="overflow:visible;"><circle cx="0" cy="0" r="0.8" style="stroke:none;fill:blue;fill-opacity:0.5;"><animate attributeName="opacity" from="1" to="0" dur="3s" repeatCount="indefinite" /></circle></marker></defs><path d="M24.51,19c1.25,1.5,2.15,4,1.62,6.62c-3.5,17.62-6.98,37.4-4,55.88c2.5,15.5,1.12,2,5.62-6.25" class="grey" /><path d="M53.08,21.38c1.9,1.28,3.82,1.76,6.14,1.4c7.36-1.17,13.73-2.4,18.41-3.73c2.46-0.7,4.69-1.05,6.13-1.05" class="grey" /><path d="M53.83,44.55c2.21,1.44,4.46,1.98,7.16,1.57c8.59-1.31,15.78-2.44,21.23-3.94c2.87-0.79,5.72-1.18,7.41-1.18" class="grey" /><path d="M72.51,23.25c1.38,1.62,1.62,4.12,1.62,6.5c0,2.38,2,35.12,2,44.5c0,17.5-29.88,17.12-29.88,8c0-9.75,21.38-7.88,29.5-2.88c5.33,3.28,12,8.25,13.38,9.38" class="grey" /><path d="M95.13,34.5c-9.62,0-9.25-14.25,0-14.25c9.75,0,9.5,14.25,0,14.25" class="grey" /><path d="M24.51,19c1.25,1.5,2.15,4,1.62,6.62c-3.5,17.62-6.98,37.4-4,55.88c2.5,15.5,1.12,2,5.62-6.25" class="stroke" stroke-dasharray="150"><animate attributeName="stroke-dashoffset" from="150" to="0" dur="1.8s" begin="0.0s" fill="freeze" /></path><path d="M53.08,21.38c1.9,1.28,3.82,1.76,6.14,1.4c7.36-1.17,13.73-2.4,18.41-3.73c2.46-0.7,4.69-1.05,6.13-1.05" class="stroke" stroke-dasharray="150"><set attributeName="opacity" to="0" dur="1.7s" /><animate attributeName="stroke-dashoffset" from="150" to="0" dur="1.8s" begin="1.7s" fill="freeze" /></path><path d="M53.83,44.55c2.21,1.44,4.46,1.98,7.16,1.57c8.59-1.31,15.78-2.44,21.23-3.94c2.87-0.79,5.72-1.18,7.41-1.18" class="stroke" stroke-dasharray="150"><set attributeName="opacity" to="0" dur="2.7s" /><animate attributeName="stroke-dashoffset" from="150" to="0" dur="1.8s" begin="2.7s" fill="freeze" /></path><path d="M72.51,23.25c1.38,1.62,1.62,4.12,1.62,6.5c0,2.38,2,35.12,2,44.5c0,17.5-29.88,17.12-29.88,8c0-9.75,21.38-7.88,29.5-2.88c5.33,3.28,12,8.25,13.38,9.38" class="stroke" stroke-dasharray="150"><set attributeName="opacity" to="0" dur="3.7s" /><animate attributeName="stroke-dashoffset" from="150" to="0" dur="1.8s" begin="3.7s" fill="freeze" /></path><path d="M95.13,34.5c-9.62,0-9.25-14.25,0-14.25c9.75,0,9.5,14.25,0,14.25" class="stroke" stroke-dasharray="150"><set attributeName="opacity" to="0" dur="5.7s" /><animate attributeName="stroke-dashoffset" from="150" to="0" dur="1.8s" begin="5.7s" fill="freeze" /></path></svg>