<svg id="kvg-0307f" class="kanjivg" viewBox="0 0 106 106" width="106" height="106" xmlns="http://www.w3.org/2000/svg" xmlns:xlink="http://www.w3.org/1999/xlink" xml:space="preserve" version="1.1" baseProfile="full"><defs><style type="text/css">path.black{fill:none;stroke:black;stroke-width:5;stroke-linecap:round;stroke-linejoin:round;}path.grey{fill:none;stroke:#ddd;stroke-width:5;stroke-linecap:round;stroke-linejoin:round;}path.stroke{fill:none;stroke:black;stroke-width:5;stroke-linecap:round;stroke-linejoin:round;}text{font-size:16px;font-family:Segoe UI Symbol,Cambria Math,DejaVu Sans,Symbola,Quivira,STIX,Code2000;-webkit-touch-callout:none;cursor:pointer;-webkit-user-select:none;-khtml-user-select:none;-moz-user-select:none;-ms-user-select:none;user-select: none;}text:hover{color:#777;}#reset{font-weight:bold;}</style><marker id="markerStart" markerWidth="8" markerHeight="8" style="overflow:visible;"><circle cx="0" cy="0" r="1.5" style="stroke:none;fill:red;fill-opacity:0.5;"/></marker><marker id="markerEnd" style="overflow:visible;"><circle cx="0" cy="0" r="0.8" style="stroke:none;fill:blue;fill-opacity:0.5;"><animate attributeName="opacity" from="1" to="0" dur="3s" repeatCount="indefinite" /></circle></marker></defs><path d="M32.5,26c1.88,1.75,4.06,1.7,6.88,1.25c3.88-0.62,7.62-1.75,11.88-3.12c4.26-1.37,6.25-0.12,4.5,5.12c-1.75,5.24-6.66,17.39-12,30.12c-13.63,32.51-29.26,29.26-29.26,18.63c0-14.25,20.48-15.36,33-13.5c18.5,2.75,30,6.62,44.38,14.25" class="grey" /><path d="M79.38,54.75c0.75,2.38,0.49,4.37,0,6.25c-2.12,8.12-7.5,25-22.12,33.75" class="grey" /><path d="M32.5,26c1.88,1.75,4.06,1.7,6.88,1.25c3.88-0.62,7.62-1.75,11.88-3.12c4.26-1.37,6.25-0.12,4.5,5.12c-1.75,5.24-6.66,17.39-12,30.12c-13.63,32.51-29.26,29.26-29.26,18.63c0-14.25,20.48-15.36,33-13.5c18.5,2.75,30,6.62,44.38,14.25" class="stroke" stroke-dasharray="200"><animate attributeName="stroke-dashoffset" from="200" to="0" dur="1.8s" begin="0.0s" fill="freeze" /></path><path d="M79.38,54.75c0.75,2.38,0.49,4.37,0,6.25c-2.12,8.12-7.5,25-22.12,33.75" class="stroke" stroke-dasharray="150"><set attributeName="opacity" to="0" dur="2.0s" /><animate attributeName="stroke-dashoffset" from="150" to="0" dur="1.8s" begin="2.0s" fill="freeze" /></path></svg>