<svg id="kvg-0307e" class="kanjivg" viewBox="0 0 106 106" width="106" height="106" xmlns="http://www.w3.org/2000/svg" xmlns:xlink="http://www.w3.org/1999/xlink" xml:space="preserve" version="1.1" baseProfile="full"><defs><style type="text/css">path.black{fill:none;stroke:black;stroke-width:5;stroke-linecap:round;stroke-linejoin:round;}path.grey{fill:none;stroke:#ddd;stroke-width:5;stroke-linecap:round;stroke-linejoin:round;}path.stroke{fill:none;stroke:black;stroke-width:5;stroke-linecap:round;stroke-linejoin:round;}text{font-size:16px;font-family:Segoe UI Symbol,Cambria Math,DejaVu Sans,Symbola,Quivira,STIX,Code2000;-webkit-touch-callout:none;cursor:pointer;-webkit-user-select:none;-khtml-user-select:none;-moz-user-select:none;-ms-user-select:none;user-select: none;}text:hover{color:#777;}#reset{font-weight:bold;}</style><marker id="markerStart" markerWidth="8" markerHeight="8" style="overflow:visible;"><circle cx="0" cy="0" r="1.5" style="stroke:none;fill:red;fill-opacity:0.5;"/></marker><marker id="markerEnd" style="overflow:visible;"><circle cx="0" cy="0" r="0.8" style="stroke:none;fill:blue;fill-opacity:0.5;"><animate attributeName="opacity" from="1" to="0" dur="3s" repeatCount="indefinite" /></circle></marker></defs><path d="M29.83,32.28c2.2,1.15,4.43,1.5,7.14,1.26c11.54-1.04,25.94-3.12,34.66-4.85c2.87-0.57,5.45-0.44,7.13-0.44" class="grey" /><path d="M33.83,51.84c2.45,1.61,4.94,1.72,7.94,1.26c9.52-1.46,17.87-3.1,27.03-5.16c3.22-0.72,6.34-1.32,8.21-1.32" class="grey" /><path d="M55.81,14c1.52,1.8,1.8,4.57,1.8,7.19c0,2.63,0.46,43.88,0.46,54.25c0,21.3-30.07,19.96-30.07,9.86c0-10.79,25.88-9.93,38.57-3.18c6.12,3.25,11.55,6.38,14.8,9.13" class="grey" /><path d="M29.83,32.28c2.2,1.15,4.43,1.5,7.14,1.26c11.54-1.04,25.94-3.12,34.66-4.85c2.87-0.57,5.45-0.44,7.13-0.44" class="stroke" stroke-dasharray="150"><animate attributeName="stroke-dashoffset" from="150" to="0" dur="1.8s" begin="0.0s" fill="freeze" /></path><path d="M33.83,51.84c2.45,1.61,4.94,1.72,7.94,1.26c9.52-1.46,17.87-3.1,27.03-5.16c3.22-0.72,6.34-1.32,8.21-1.32" class="stroke" stroke-dasharray="150"><set attributeName="opacity" to="0" dur="1.2s" /><animate attributeName="stroke-dashoffset" from="150" to="0" dur="1.8s" begin="1.2s" fill="freeze" /></path><path d="M55.81,14c1.52,1.8,1.8,4.57,1.8,7.19c0,2.63,0.46,43.88,0.46,54.25c0,21.3-30.07,19.96-30.07,9.86c0-10.79,25.88-9.93,38.57-3.18c6.12,3.25,11.55,6.38,14.8,9.13" class="stroke" stroke-dasharray="200"><set attributeName="opacity" to="0" dur="2.3s" /><animate attributeName="stroke-dashoffset" from="200" to="0" dur="1.8s" begin="2.3s" fill="freeze" /></path></svg>