<svg id="kvg-0308b" class="kanjivg" viewBox="0 0 106 106" width="106" height="106" xmlns="http://www.w3.org/2000/svg" xmlns:xlink="http://www.w3.org/1999/xlink" xml:space="preserve" version="1.1" baseProfile="full"><defs><style type="text/css">path.black{fill:none;stroke:black;stroke-width:5;stroke-linecap:round;stroke-linejoin:round;}path.grey{fill:none;stroke:#ddd;stroke-width:5;stroke-linecap:round;stroke-linejoin:round;}path.stroke{fill:none;stroke:black;stroke-width:5;stroke-linecap:round;stroke-linejoin:round;}text{font-size:16px;font-family:Segoe UI Symbol,Cambria Math,DejaVu Sans,Symbola,Quivira,STIX,Code2000;-webkit-touch-callout:none;cursor:pointer;-webkit-user-select:none;-khtml-user-select:none;-moz-user-select:none;-ms-user-select:none;user-select: none;}text:hover{color:#777;}#reset{font-weight:bold;}</style><marker id="markerStart" markerWidth="8" markerHeight="8" style="overflow:visible;"><circle cx="0" cy="0" r="1.5" style="stroke:none;fill:red;fill-opacity:0.5;"/></marker><marker id="markerEnd" style="overflow:visible;"><circle cx="0" cy="0" r="0.8" style="stroke:none;fill:blue;fill-opacity:0.5;"><animate attributeName="opacity" from="1" to="0" dur="3s" repeatCount="indefinite" /></circle></marker></defs><path d="M34.31,20.38c1.75,1.25,4.62,2.62,8.5,1.5c3.88-1.12,9.62-2.5,15.62-4.62c6-2.12,7.5-0.12,4.38,4.25c-3.12,4.37-18.89,24.62-27.75,34c-8.5,9-13.09,11.89,0.75,3.25c15.62-9.75,43-10.88,43,13.38c0,22.5-40.88,24.5-40.88,12.62c0-11.25,18.12-8.75,24.38-0.38" class="grey" /><path d="M34.31,20.38c1.75,1.25,4.62,2.62,8.5,1.5c3.88-1.12,9.62-2.5,15.62-4.62c6-2.12,7.5-0.12,4.38,4.25c-3.12,4.37-18.89,24.62-27.75,34c-8.5,9-13.09,11.89,0.75,3.25c15.62-9.75,43-10.88,43,13.38c0,22.5-40.88,24.5-40.88,12.62c0-11.25,18.12-8.75,24.38-0.38" class="stroke" stroke-dasharray="250"><animate attributeName="stroke-dashoffset" from="250" to="0" dur="1.8s" begin="0.0s" fill="freeze" /></path></svg>