<svg id="kvg-03084" class="kanjivg" viewBox="0 0 106 106" width="106" height="106" xmlns="http://www.w3.org/2000/svg" xmlns:xlink="http://www.w3.org/1999/xlink" xml:space="preserve" version="1.1" baseProfile="full"><defs><style type="text/css">path.black{fill:none;stroke:black;stroke-width:5;stroke-linecap:round;stroke-linejoin:round;}path.grey{fill:none;stroke:#ddd;stroke-width:5;stroke-linecap:round;stroke-linejoin:round;}path.stroke{fill:none;stroke:black;stroke-width:5;stroke-linecap:round;stroke-linejoin:round;}text{font-size:16px;font-family:Segoe UI Symbol,Cambria Math,DejaVu Sans,Symbola,Quivira,STIX,Code2000;-webkit-touch-callout:none;cursor:pointer;-webkit-user-select:none;-khtml-user-select:none;-moz-user-select:none;-ms-user-select:none;user-select: none;}text:hover{color:#777;}#reset{font-weight:bold;}</style><marker id="markerStart" markerWidth="8" markerHeight="8" style="overflow:visible;"><circle cx="0" cy="0" r="1.5" style="stroke:none;fill:red;fill-opacity:0.5;"/></marker><marker id="markerEnd" style="overflow:visible;"><circle cx="0" cy="0" r="0.8" style="stroke:none;fill:blue;fill-opacity:0.5;"><animate attributeName="opacity" from="1" to="0" dur="3s" repeatCount="indefinite" /></circle></marker></defs><path d="M18,49.38c1.88,1.62,5.25,2.5,8.62,0.88c18.51-8.88,35.76-19.38,50.83-19.26c9.02,0.14,16.01,4.13,15.93,12.29c0,8.33-10.88,16.58-24.5,17.83" class="grey" /><path d="M47.13,15.88c5.12,0.88,10.41,4.05,11.5,6.62c2.12,5-1,2.38-2.88,2.62" class="grey" /><path d="M30,24.38c2.38,1.88,3.28,2.87,3.88,5.25c2.62,10.5,11.12,41.12,14.75,52.5c0.65,2.04,1.88,6.25,2.88,9.38" class="grey" /><path d="M18,49.38c1.88,1.62,5.25,2.5,8.62,0.88c18.51-8.88,35.76-19.38,50.83-19.26c9.02,0.14,16.01,4.13,15.93,12.29c0,8.33-10.88,16.58-24.5,17.83" class="stroke" stroke-dasharray="150"><animate attributeName="stroke-dashoffset" from="150" to="0" dur="1.8s" begin="0.0s" fill="freeze" /></path><path d="M47.13,15.88c5.12,0.88,10.41,4.05,11.5,6.62c2.12,5-1,2.38-2.88,2.62" class="stroke" stroke-dasharray="150"><set attributeName="opacity" to="0" dur="2.0s" /><animate attributeName="stroke-dashoffset" from="150" to="0" dur="1.8s" begin="2.0s" fill="freeze" /></path><path d="M30,24.38c2.38,1.88,3.28,2.87,3.88,5.25c2.62,10.5,11.12,41.12,14.75,52.5c0.65,2.04,1.88,6.25,2.88,9.38" class="stroke" stroke-dasharray="150"><set attributeName="opacity" to="0" dur="3.0s" /><animate attributeName="stroke-dashoffset" from="150" to="0" dur="1.8s" begin="3.0s" fill="freeze" /></path></svg>