<svg id="kvg-0308f" class="kanjivg" viewBox="0 0 106 106" width="106" height="106" xmlns="http://www.w3.org/2000/svg" xmlns:xlink="http://www.w3.org/1999/xlink" xml:space="preserve" version="1.1" baseProfile="full"><defs><style type="text/css">path.black{fill:none;stroke:black;stroke-width:5;stroke-linecap:round;stroke-linejoin:round;}path.grey{fill:none;stroke:#ddd;stroke-width:5;stroke-linecap:round;stroke-linejoin:round;}path.stroke{fill:none;stroke:black;stroke-width:5;stroke-linecap:round;stroke-linejoin:round;}text{font-size:16px;font-family:Segoe UI Symbol,Cambria Math,DejaVu Sans,Symbola,Quivira,STIX,Code2000;-webkit-touch-callout:none;cursor:pointer;-webkit-user-select:none;-khtml-user-select:none;-moz-user-select:none;-ms-user-select:none;user-select: none;}text:hover{color:#777;}#reset{font-weight:bold;}</style><marker id="markerStart" markerWidth="8" markerHeight="8" style="overflow:visible;"><circle cx="0" cy="0" r="1.5" style="stroke:none;fill:red;fill-opacity:0.5;"/></marker><marker id="markerEnd" style="overflow:visible;"><circle cx="0" cy="0" r="0.8" style="stroke:none;fill:blue;fill-opacity:0.5;"><animate attributeName="opacity" from="1" to="0" dur="3s" repeatCount="indefinite" /></circle></marker></defs><path d="M38.53,14.75c1.5,1.38,2.22,3.73,2,6.38c-1,11.87-2.75,44.49-2.75,52.87c0,8.38-0.62,16.62-0.62,19.5" class="grey" /><path d="M17.53,40.75c2.12,1.38,3.68,1.3,7.5,0c5.88-2,9.8-3.16,16.25-6c4.25-1.88,6.12,0,2.75,4c-6.72,7.96-13,16.5-22.12,27.88c-7.75,9.66-7.54,12.21,3,2.88c21.88-19.38,49.75-35.62,63.5-21c14.36,15.27,1.62,36.62-23.38,42.62" class="grey" /><path d="M38.53,14.75c1.5,1.38,2.22,3.73,2,6.38c-1,11.87-2.75,44.49-2.75,52.87c0,8.38-0.62,16.62-0.62,19.5" class="stroke" stroke-dasharray="150"><animate attributeName="stroke-dashoffset" from="150" to="0" dur="1.8s" begin="0.0s" fill="freeze" /></path><path d="M17.53,40.75c2.12,1.38,3.68,1.3,7.5,0c5.88-2,9.8-3.16,16.25-6c4.25-1.88,6.12,0,2.75,4c-6.72,7.96-13,16.5-22.12,27.88c-7.75,9.66-7.54,12.21,3,2.88c21.88-19.38,49.75-35.62,63.5-21c14.36,15.27,1.62,36.62-23.38,42.62" class="stroke" stroke-dasharray="250"><set attributeName="opacity" to="0" dur="1.7s" /><animate attributeName="stroke-dashoffset" from="250" to="0" dur="1.8s" begin="1.7s" fill="freeze" /></path></svg>