<svg id="kvg-03082" class="kanjivg" viewBox="0 0 106 106" width="106" height="106" xmlns="http://www.w3.org/2000/svg" xmlns:xlink="http://www.w3.org/1999/xlink" xml:space="preserve" version="1.1" baseProfile="full"><defs><style type="text/css">path.black{fill:none;stroke:black;stroke-width:5;stroke-linecap:round;stroke-linejoin:round;}path.grey{fill:none;stroke:#ddd;stroke-width:5;stroke-linecap:round;stroke-linejoin:round;}path.stroke{fill:none;stroke:black;stroke-width:5;stroke-linecap:round;stroke-linejoin:round;}text{font-size:16px;font-family:Segoe UI Symbol,Cambria Math,DejaVu Sans,Symbola,Quivira,STIX,Code2000;-webkit-touch-callout:none;cursor:pointer;-webkit-user-select:none;-khtml-user-select:none;-moz-user-select:none;-ms-user-select:none;user-select: none;}text:hover{color:#777;}#reset{font-weight:bold;}</style><marker id="markerStart" markerWidth="8" markerHeight="8" style="overflow:visible;"><circle cx="0" cy="0" r="1.5" style="stroke:none;fill:red;fill-opacity:0.5;"/></marker><marker id="markerEnd" style="overflow:visible;"><circle cx="0" cy="0" r="0.8" style="stroke:none;fill:blue;fill-opacity:0.5;"><animate attributeName="opacity" from="1" to="0" dur="3s" repeatCount="indefinite" /></circle></marker></defs><path d="M49.17,14.75c1.88,1.88,1.86,4.52,1.12,8c-3,14.25-5,26.62-7,42.12c-2.55,19.73-0.75,29.88,17,29.86c20.25-0.02,28.63-13.11,20.01-35.73" class="grey" /><path d="M26.54,34.62c1.12,0.88,2.87,2.21,6,2c11.12-0.75,20-2.12,27.74-3.46c3.88-0.67,5.88-1.17,8.88-1.04" class="grey" /><path d="M26.42,53.38c-1.5,4,1,6.75,7.75,6.75c8.75,0,17.62-1,22.88-1.88c2.01-0.33,5.38-1,7.5-1.75" class="grey" /><path d="M49.17,14.75c1.88,1.88,1.86,4.52,1.12,8c-3,14.25-5,26.62-7,42.12c-2.55,19.73-0.75,29.88,17,29.86c20.25-0.02,28.63-13.11,20.01-35.73" class="stroke" stroke-dasharray="150"><animate attributeName="stroke-dashoffset" from="150" to="0" dur="1.8s" begin="0.0s" fill="freeze" /></path><path d="M26.54,34.62c1.12,0.88,2.87,2.21,6,2c11.12-0.75,20-2.12,27.74-3.46c3.88-0.67,5.88-1.17,8.88-1.04" class="stroke" stroke-dasharray="150"><set attributeName="opacity" to="0" dur="2.0s" /><animate attributeName="stroke-dashoffset" from="150" to="0" dur="1.8s" begin="2.0s" fill="freeze" /></path><path d="M26.42,53.38c-1.5,4,1,6.75,7.75,6.75c8.75,0,17.62-1,22.88-1.88c2.01-0.33,5.38-1,7.5-1.75" class="stroke" stroke-dasharray="150"><set attributeName="opacity" to="0" dur="3.1s" /><animate attributeName="stroke-dashoffset" from="150" to="0" dur="1.8s" begin="3.1s" fill="freeze" /></path></svg>