<svg id="kvg-0308d" class="kanjivg" viewBox="0 0 106 106" width="106" height="106" xmlns="http://www.w3.org/2000/svg" xmlns:xlink="http://www.w3.org/1999/xlink" xml:space="preserve" version="1.1" baseProfile="full"><defs><style type="text/css">path.black{fill:none;stroke:black;stroke-width:5;stroke-linecap:round;stroke-linejoin:round;}path.grey{fill:none;stroke:#ddd;stroke-width:5;stroke-linecap:round;stroke-linejoin:round;}path.stroke{fill:none;stroke:black;stroke-width:5;stroke-linecap:round;stroke-linejoin:round;}text{font-size:16px;font-family:Segoe UI Symbol,Cambria Math,DejaVu Sans,Symbola,Quivira,STIX,Code2000;-webkit-touch-callout:none;cursor:pointer;-webkit-user-select:none;-khtml-user-select:none;-moz-user-select:none;-ms-user-select:none;user-select: none;}text:hover{color:#777;}#reset{font-weight:bold;}</style><marker id="markerStart" markerWidth="8" markerHeight="8" style="overflow:visible;"><circle cx="0" cy="0" r="1.5" style="stroke:none;fill:red;fill-opacity:0.5;"/></marker><marker id="markerEnd" style="overflow:visible;"><circle cx="0" cy="0" r="0.8" style="stroke:none;fill:blue;fill-opacity:0.5;"><animate attributeName="opacity" from="1" to="0" dur="3s" repeatCount="indefinite" /></circle></marker></defs><path d="M36.95,21.88c1.5,2,4.62,3.62,8.5,2.5c3.88-1.12,8.12-2.25,14.12-4.38c6-2.13,6.53-0.1,3.38,4.25c-7.88,10.88-18,22.75-27.5,35.25c-7.49,9.86-10.68,11.32,2.88,2.25c17.38-11.62,46.62-14,46.62,8.12c0,15.62-16,22.5-32.12,25.12" class="grey" /><path d="M36.95,21.88c1.5,2,4.62,3.62,8.5,2.5c3.88-1.12,8.12-2.25,14.12-4.38c6-2.13,6.53-0.1,3.38,4.25c-7.88,10.88-18,22.75-27.5,35.25c-7.49,9.86-10.68,11.32,2.88,2.25c17.38-11.62,46.62-14,46.62,8.12c0,15.62-16,22.5-32.12,25.12" class="stroke" stroke-dasharray="250"><animate attributeName="stroke-dashoffset" from="250" to="0" dur="1.8s" begin="0.0s" fill="freeze" /></path></svg>