<svg id="kvg-030a9" class="kanjivg"  viewBox="0 0 106 106" width="106" height="106"  xmlns="http://www.w3.org/2000/svg" xmlns:xlink="http://www.w3.org/1999/xlink" xml:space="preserve" version="1.1" baseProfile="full"><defs><style type="text/css">path.black{fill:none;stroke:black;stroke-width:5;stroke-linecap:round;stroke-linejoin:round;}path.grey{fill:none;stroke:#ddd;stroke-width:5;stroke-linecap:round;stroke-linejoin:round;}path.stroke{fill:none;stroke:black;stroke-width:5;stroke-linecap:round;stroke-linejoin:round;}text{font-size:16px;font-family:Segoe UI Symbol,Cambria Math,DejaVu Sans,Symbola,Quivira,STIX,Code2000;-webkit-touch-callout:none;cursor:pointer;-webkit-user-select:none;-khtml-user-select:none;-moz-user-select:none;-ms-user-select:none;user-select: none;}text:hover{color:#777;}#reset{font-weight:bold;}</style><marker id="markerStart" markerWidth="8" markerHeight="8" style="overflow:visible;"><circle cx="0" cy="0" r="1.5" style="stroke:none;fill:red;fill-opacity:0.5;"/></marker><marker id="markerEnd" style="overflow:visible;"><circle cx="0" cy="0" r="0.8" style="stroke:none;fill:blue;fill-opacity:0.5;"><animate attributeName="opacity" from="1" to="0" dur="3s" repeatCount="indefinite" /></circle></marker></defs><path d="M26,50.69c3.11,1.49,6,1.3,8.75,0.86c14.32-2.3,27.34-3.76,40.17-4.53c2.65-0.16,5.05,0.14,8.31,1.15" class="grey" /><path d="M58.49,33.57c1.05,1.18,1.31,3.16,1.31,4.86c0,6.36-0.2,36.73-0.2,46.58c0,16.19-4.67,5.96-7.35,4.37" class="grey" /><path d="M58.41,49.45c0,1.29-1.31,2.87-2.88,4.77c-6.26,7.55-16.79,18.08-27.51,26.22" class="grey" /><path d="M26,50.69c3.11,1.49,6,1.3,8.75,0.86c14.32-2.3,27.34-3.76,40.17-4.53c2.65-0.16,5.05,0.14,8.31,1.15" class="stroke" stroke-dasharray="150"><animate attributeName="stroke-dashoffset" from="150" to="0" dur="1.8s" begin="0.0s" fill="freeze" /></path><path d="M58.49,33.57c1.05,1.18,1.31,3.16,1.31,4.86c0,6.36-0.2,36.73-0.2,46.58c0,16.19-4.67,5.96-7.35,4.37" class="stroke" stroke-dasharray="150"><set attributeName="opacity" to="0" dur="1.4s" /><animate attributeName="stroke-dashoffset" from="150" to="0" dur="1.8s" begin="1.4s" fill="freeze" /></path><path d="M58.41,49.45c0,1.29-1.31,2.87-2.88,4.77c-6.26,7.55-16.79,18.08-27.51,26.22" class="stroke" stroke-dasharray="150"><set attributeName="opacity" to="0" dur="2.9s" /><animate attributeName="stroke-dashoffset" from="150" to="0" dur="1.8s" begin="2.9s" fill="freeze" /></path></svg>