<svg id="kvg-030a2" class="kanjivg" viewBox="0 0 106 106" width="106" height="106" xmlns="http://www.w3.org/2000/svg" xmlns:xlink="http://www.w3.org/1999/xlink" xml:space="preserve" version="1.1" baseProfile="full"><defs><style type="text/css">path.black{fill:none;stroke:black;stroke-width:5;stroke-linecap:round;stroke-linejoin:round;}path.grey{fill:none;stroke:#ddd;stroke-width:5;stroke-linecap:round;stroke-linejoin:round;}path.stroke{fill:none;stroke:black;stroke-width:5;stroke-linecap:round;stroke-linejoin:round;}text{font-size:16px;font-family:Segoe UI Symbol,Cambria Math,DejaVu Sans,Symbola,Quivira,STIX,Code2000;-webkit-touch-callout:none;cursor:pointer;-webkit-user-select:none;-khtml-user-select:none;-moz-user-select:none;-ms-user-select:none;user-select: none;}text:hover{color:#777;}#reset{font-weight:bold;}</style><marker id="markerStart" markerWidth="8" markerHeight="8" style="overflow:visible;"><circle cx="0" cy="0" r="1.5" style="stroke:none;fill:red;fill-opacity:0.5;"/></marker><marker id="markerEnd" style="overflow:visible;"><circle cx="0" cy="0" r="0.8" style="stroke:none;fill:blue;fill-opacity:0.5;"><animate attributeName="opacity" from="1" to="0" dur="3s" repeatCount="indefinite" /></circle></marker></defs><path d="M23.5,26.25c2.41,1.56,3.98,1.44,8.51,0.75c11.4-1.75,37.77-5.5,48.28-6.78c5.23-0.64,7.99,2.06,2.62,6.04c-6.75,5-13.12,9.5-23.25,16" class="grey" /><path d="M53.12,41.12c0.79,1.5,1.02,3.24,0.58,5.28c-4.04,18.48-9.92,31.85-19.92,45.48" class="grey" /><path d="M23.5,26.25c2.41,1.56,3.98,1.44,8.51,0.75c11.4-1.75,37.77-5.5,48.28-6.78c5.23-0.64,7.99,2.06,2.62,6.04c-6.75,5-13.12,9.5-23.25,16" class="stroke" stroke-dasharray="150"><animate attributeName="stroke-dashoffset" from="150" to="0" dur="1.8s" begin="0.0s" fill="freeze" /></path><path d="M53.12,41.12c0.79,1.5,1.02,3.24,0.58,5.28c-4.04,18.48-9.92,31.85-19.92,45.48" class="stroke" stroke-dasharray="150"><set attributeName="opacity" to="0" dur="1.8s" /><animate attributeName="stroke-dashoffset" from="150" to="0" dur="1.8s" begin="1.8s" fill="freeze" /></path></svg>