<svg id="kvg-030a7" class="kanjivg"  viewBox="0 0 106 106" width="106" height="106"  xmlns="http://www.w3.org/2000/svg" xmlns:xlink="http://www.w3.org/1999/xlink" xml:space="preserve" version="1.1" baseProfile="full"><defs><style type="text/css">path.black{fill:none;stroke:black;stroke-width:5;stroke-linecap:round;stroke-linejoin:round;}path.grey{fill:none;stroke:#ddd;stroke-width:5;stroke-linecap:round;stroke-linejoin:round;}path.stroke{fill:none;stroke:black;stroke-width:5;stroke-linecap:round;stroke-linejoin:round;}text{font-size:16px;font-family:Segoe UI Symbol,Cambria Math,DejaVu Sans,Symbola,Quivira,STIX,Code2000;-webkit-touch-callout:none;cursor:pointer;-webkit-user-select:none;-khtml-user-select:none;-moz-user-select:none;-ms-user-select:none;user-select: none;}text:hover{color:#777;}#reset{font-weight:bold;}</style><marker id="markerStart" markerWidth="8" markerHeight="8" style="overflow:visible;"><circle cx="0" cy="0" r="1.5" style="stroke:none;fill:red;fill-opacity:0.5;"/></marker><marker id="markerEnd" style="overflow:visible;"><circle cx="0" cy="0" r="0.8" style="stroke:none;fill:blue;fill-opacity:0.5;"><animate attributeName="opacity" from="1" to="0" dur="3s" repeatCount="indefinite" /></circle></marker></defs><path d="M36.22,52.7c1.84,0.56,4.08,0.53,5.93,0.24c6.8-1.08,17.77-2.28,26.71-3.07c1.8-0.16,3.59-0.15,5.37,0.18" class="grey" /><path d="M53.25,54.65c0.79,0.9,1.04,2.4,0.99,3.7c-0.14,3.79-0.4,10.3-0.65,17.78c-0.06,1.85-0.12,3.25-0.18,5.19" class="grey" /><path d="M26,84.03c2.71,0.7,6.01,0.65,8.73,0.29c14.11-1.84,27.4-2.86,40.12-2.89c2.65-0.01,5.73,0.31,8.3,1.33" class="grey" /><path d="M36.22,52.7c1.84,0.56,4.08,0.53,5.93,0.24c6.8-1.08,17.77-2.28,26.71-3.07c1.8-0.16,3.59-0.15,5.37,0.18" class="stroke" stroke-dasharray="150"><animate attributeName="stroke-dashoffset" from="150" to="0" dur="1.8s" begin="0.0s" fill="freeze" /></path><path d="M53.25,54.65c0.79,0.9,1.04,2.4,0.99,3.7c-0.14,3.79-0.4,10.3-0.65,17.78c-0.06,1.85-0.12,3.25-0.18,5.19" class="stroke" stroke-dasharray="150"><set attributeName="opacity" to="0" dur="1.0s" /><animate attributeName="stroke-dashoffset" from="150" to="0" dur="1.8s" begin="1.0s" fill="freeze" /></path><path d="M26,84.03c2.71,0.7,6.01,0.65,8.73,0.29c14.11-1.84,27.4-2.86,40.12-2.89c2.65-0.01,5.73,0.31,8.3,1.33" class="stroke" stroke-dasharray="150"><set attributeName="opacity" to="0" dur="2.0s" /><animate attributeName="stroke-dashoffset" from="150" to="0" dur="1.8s" begin="2.0s" fill="freeze" /></path></svg>