<svg id="kvg-030a5" class="kanjivg"  viewBox="0 0 106 106" width="106" height="106"  xmlns="http://www.w3.org/2000/svg" xmlns:xlink="http://www.w3.org/1999/xlink" xml:space="preserve" version="1.1" baseProfile="full"><defs><style type="text/css">path.black{fill:none;stroke:black;stroke-width:5;stroke-linecap:round;stroke-linejoin:round;}path.grey{fill:none;stroke:#ddd;stroke-width:5;stroke-linecap:round;stroke-linejoin:round;}path.stroke{fill:none;stroke:black;stroke-width:5;stroke-linecap:round;stroke-linejoin:round;}text{font-size:16px;font-family:Segoe UI Symbol,Cambria Math,DejaVu Sans,Symbola,Quivira,STIX,Code2000;-webkit-touch-callout:none;cursor:pointer;-webkit-user-select:none;-khtml-user-select:none;-moz-user-select:none;-ms-user-select:none;user-select: none;}text:hover{color:#777;}#reset{font-weight:bold;}</style><marker id="markerStart" markerWidth="8" markerHeight="8" style="overflow:visible;"><circle cx="0" cy="0" r="1.5" style="stroke:none;fill:red;fill-opacity:0.5;"/></marker><marker id="markerEnd" style="overflow:visible;"><circle cx="0" cy="0" r="0.8" style="stroke:none;fill:blue;fill-opacity:0.5;"><animate attributeName="opacity" from="1" to="0" dur="3s" repeatCount="indefinite" /></circle></marker></defs><path d="M54.11,32.25c0.8,0.87,0.99,2.32,0.99,3.58c0,1.26,0,8.33,0,9.78" class="grey" /><path d="M32.5,45.62c0.94,0.89,1.15,2.38,1.18,3.67c0.08,3.53,0.27,8.68,0.42,12.98c0.07,1.98,0.13,3.78,0.17,5.15" class="grey" /><path d="M34.92,48.96c15.42-1.74,32.02-3.54,38.98-4.51c6.96-0.97,6.59,0.65,4.97,5.32c-3.97,11.52-15.04,33.98-32.11,44.85" class="grey" /><path d="M54.11,32.25c0.8,0.87,0.99,2.32,0.99,3.58c0,1.26,0,8.33,0,9.78" class="stroke" stroke-dasharray="150"><animate attributeName="stroke-dashoffset" from="150" to="0" dur="1.8s" begin="0.0s" fill="freeze" /></path><path d="M32.5,45.62c0.94,0.89,1.15,2.38,1.18,3.67c0.08,3.53,0.27,8.68,0.42,12.98c0.07,1.98,0.13,3.78,0.17,5.15" class="stroke" stroke-dasharray="150"><set attributeName="opacity" to="0" dur="0.9s" /><animate attributeName="stroke-dashoffset" from="150" to="0" dur="1.8s" begin="0.9s" fill="freeze" /></path><path d="M34.92,48.96c15.42-1.74,32.02-3.54,38.98-4.51c6.96-0.97,6.59,0.65,4.97,5.32c-3.97,11.52-15.04,33.98-32.11,44.85" class="stroke" stroke-dasharray="150"><set attributeName="opacity" to="0" dur="1.9s" /><animate attributeName="stroke-dashoffset" from="150" to="0" dur="1.8s" begin="1.9s" fill="freeze" /></path></svg>