<svg id="kvg-030aa" class="kanjivg" viewBox="0 0 106 106" width="106" height="106" xmlns="http://www.w3.org/2000/svg" xmlns:xlink="http://www.w3.org/1999/xlink" xml:space="preserve" version="1.1" baseProfile="full"><defs><style type="text/css">path.black{fill:none;stroke:black;stroke-width:5;stroke-linecap:round;stroke-linejoin:round;}path.grey{fill:none;stroke:#ddd;stroke-width:5;stroke-linecap:round;stroke-linejoin:round;}path.stroke{fill:none;stroke:black;stroke-width:5;stroke-linecap:round;stroke-linejoin:round;}text{font-size:16px;font-family:Segoe UI Symbol,Cambria Math,DejaVu Sans,Symbola,Quivira,STIX,Code2000;-webkit-touch-callout:none;cursor:pointer;-webkit-user-select:none;-khtml-user-select:none;-moz-user-select:none;-ms-user-select:none;user-select: none;}text:hover{color:#777;}#reset{font-weight:bold;}</style><marker id="markerStart" markerWidth="8" markerHeight="8" style="overflow:visible;"><circle cx="0" cy="0" r="1.5" style="stroke:none;fill:red;fill-opacity:0.5;"/></marker><marker id="markerEnd" style="overflow:visible;"><circle cx="0" cy="0" r="0.8" style="stroke:none;fill:blue;fill-opacity:0.5;"><animate attributeName="opacity" from="1" to="0" dur="3s" repeatCount="indefinite" /></circle></marker></defs><path d="M19.5,37.85c3.91,1.78,7.55,1.55,11.01,1.02c18.03-2.75,34.4-4.5,50.55-5.41c3.34-0.19,6.35,0.17,10.46,1.38" class="grey" /><path d="M60.38,16.38c1.32,1.49,1.65,3.97,1.65,6.12c0,8-0.25,46.23-0.25,58.63c0,20.38-5.88,7.5-9.25,5.5" class="grey" /><path d="M60.29,36.38c0,1.62-1.64,3.61-3.62,6c-7.88,9.5-21.12,22.75-34.62,33" class="grey" /><path d="M19.5,37.85c3.91,1.78,7.55,1.55,11.01,1.02c18.03-2.75,34.4-4.5,50.55-5.41c3.34-0.19,6.35,0.17,10.46,1.38" class="stroke" stroke-dasharray="150"><animate attributeName="stroke-dashoffset" from="150" to="0" dur="1.8s" begin="0.0s" fill="freeze" /></path><path d="M60.38,16.38c1.32,1.49,1.65,3.97,1.65,6.12c0,8-0.25,46.23-0.25,58.63c0,20.38-5.88,7.5-9.25,5.5" class="stroke" stroke-dasharray="150"><set attributeName="opacity" to="0" dur="1.7s" /><animate attributeName="stroke-dashoffset" from="150" to="0" dur="1.8s" begin="1.7s" fill="freeze" /></path><path d="M60.29,36.38c0,1.62-1.64,3.61-3.62,6c-7.88,9.5-21.12,22.75-34.62,33" class="stroke" stroke-dasharray="150"><set attributeName="opacity" to="0" dur="3.4s" /><animate attributeName="stroke-dashoffset" from="150" to="0" dur="1.8s" begin="3.4s" fill="freeze" /></path></svg>