<svg id="kvg-030a1" class="kanjivg"  viewBox="0 0 106 106" width="106" height="106"  xmlns="http://www.w3.org/2000/svg" xmlns:xlink="http://www.w3.org/1999/xlink" xml:space="preserve" version="1.1" baseProfile="full"><defs><style type="text/css">path.black{fill:none;stroke:black;stroke-width:5;stroke-linecap:round;stroke-linejoin:round;}path.grey{fill:none;stroke:#ddd;stroke-width:5;stroke-linecap:round;stroke-linejoin:round;}path.stroke{fill:none;stroke:black;stroke-width:5;stroke-linecap:round;stroke-linejoin:round;}text{font-size:16px;font-family:Segoe UI Symbol,Cambria Math,DejaVu Sans,Symbola,Quivira,STIX,Code2000;-webkit-touch-callout:none;cursor:pointer;-webkit-user-select:none;-khtml-user-select:none;-moz-user-select:none;-ms-user-select:none;user-select: none;}text:hover{color:#777;}#reset{font-weight:bold;}</style><marker id="markerStart" markerWidth="8" markerHeight="8" style="overflow:visible;"><circle cx="0" cy="0" r="1.5" style="stroke:none;fill:red;fill-opacity:0.5;"/></marker><marker id="markerEnd" style="overflow:visible;"><circle cx="0" cy="0" r="0.8" style="stroke:none;fill:blue;fill-opacity:0.5;"><animate attributeName="opacity" from="1" to="0" dur="3s" repeatCount="indefinite" /></circle></marker></defs><path d="M28,42.54c1.91,1.22,3.16,1.13,6.74,0.59c9.03-1.37,29.93-5.05,38.25-6.06c4.14-0.5,6.33,2.36,2.08,5.47c-5.35,3.91-10.4,7.43-18.42,12.52" class="grey" /><path d="M51.55,54.18c0.62,1.17,0.8,2.53,0.45,4.13c-3.16,14.45-7.75,24.91-15.58,35.57" class="grey" /><path d="M28,42.54c1.91,1.22,3.16,1.13,6.74,0.59c9.03-1.37,29.93-5.05,38.25-6.06c4.14-0.5,6.33,2.36,2.08,5.47c-5.35,3.91-10.4,7.43-18.42,12.52" class="stroke" stroke-dasharray="150"><animate attributeName="stroke-dashoffset" from="150" to="0" dur="1.8s" begin="0.0s" fill="freeze" /></path><path d="M51.55,54.18c0.62,1.17,0.8,2.53,0.45,4.13c-3.16,14.45-7.75,24.91-15.58,35.57" class="stroke" stroke-dasharray="150"><set attributeName="opacity" to="0" dur="1.7s" /><animate attributeName="stroke-dashoffset" from="150" to="0" dur="1.8s" begin="1.7s" fill="freeze" /></path></svg>