<svg id="kvg-030a8" class="kanjivg" viewBox="0 0 106 106" width="106" height="106" xmlns="http://www.w3.org/2000/svg" xmlns:xlink="http://www.w3.org/1999/xlink" xml:space="preserve" version="1.1" baseProfile="full"><defs><style type="text/css">path.black{fill:none;stroke:black;stroke-width:5;stroke-linecap:round;stroke-linejoin:round;}path.grey{fill:none;stroke:#ddd;stroke-width:5;stroke-linecap:round;stroke-linejoin:round;}path.stroke{fill:none;stroke:black;stroke-width:5;stroke-linecap:round;stroke-linejoin:round;}text{font-size:16px;font-family:Segoe UI Symbol,Cambria Math,DejaVu Sans,Symbola,Quivira,STIX,Code2000;-webkit-touch-callout:none;cursor:pointer;-webkit-user-select:none;-khtml-user-select:none;-moz-user-select:none;-ms-user-select:none;user-select: none;}text:hover{color:#777;}#reset{font-weight:bold;}</style><marker id="markerStart" markerWidth="8" markerHeight="8" style="overflow:visible;"><circle cx="0" cy="0" r="1.5" style="stroke:none;fill:red;fill-opacity:0.5;"/></marker><marker id="markerEnd" style="overflow:visible;"><circle cx="0" cy="0" r="0.8" style="stroke:none;fill:blue;fill-opacity:0.5;"><animate attributeName="opacity" from="1" to="0" dur="3s" repeatCount="indefinite" /></circle></marker></defs><path d="M31.87,35.68c2.32,0.71,5.14,0.66,7.48,0.29c8.57-1.35,22.4-2.85,33.66-3.85c2.26-0.2,4.52-0.19,6.77,0.22" class="grey" /><path d="M53.34,38.13c1,1.12,1.31,3,1.25,4.62c-0.18,4.74-0.51,12.89-0.83,22.25c-0.08,2.31-0.16,4.7-0.23,7.12" class="grey" /><path d="M19,75.46c3.41,0.94,7.57,0.88,11.01,0.39c17.78-2.48,34.53-3.86,50.55-3.9c3.34-0.01,7.23,0.42,10.46,1.8" class="grey" /><path d="M31.87,35.68c2.32,0.71,5.14,0.66,7.48,0.29c8.57-1.35,22.4-2.85,33.66-3.85c2.26-0.2,4.52-0.19,6.77,0.22" class="stroke" stroke-dasharray="150"><animate attributeName="stroke-dashoffset" from="150" to="0" dur="1.8s" begin="0.0s" fill="freeze" /></path><path d="M53.34,38.13c1,1.12,1.31,3,1.25,4.62c-0.18,4.74-0.51,12.89-0.83,22.25c-0.08,2.31-0.16,4.7-0.23,7.12" class="stroke" stroke-dasharray="150"><set attributeName="opacity" to="0" dur="1.2s" /><animate attributeName="stroke-dashoffset" from="150" to="0" dur="1.8s" begin="1.2s" fill="freeze" /></path><path d="M19,75.46c3.41,0.94,7.57,0.88,11.01,0.39c17.78-2.48,34.53-3.86,50.55-3.9c3.34-0.01,7.23,0.42,10.46,1.8" class="stroke" stroke-dasharray="150"><set attributeName="opacity" to="0" dur="2.2s" /><animate attributeName="stroke-dashoffset" from="150" to="0" dur="1.8s" begin="2.2s" fill="freeze" /></path></svg>