<svg id="kvg-030a3" class="kanjivg"  viewBox="0 0 106 106" width="106" height="106"  xmlns="http://www.w3.org/2000/svg" xmlns:xlink="http://www.w3.org/1999/xlink" xml:space="preserve" version="1.1" baseProfile="full"><defs><style type="text/css">path.black{fill:none;stroke:black;stroke-width:5;stroke-linecap:round;stroke-linejoin:round;}path.grey{fill:none;stroke:#ddd;stroke-width:5;stroke-linecap:round;stroke-linejoin:round;}path.stroke{fill:none;stroke:black;stroke-width:5;stroke-linecap:round;stroke-linejoin:round;}text{font-size:16px;font-family:Segoe UI Symbol,Cambria Math,DejaVu Sans,Symbola,Quivira,STIX,Code2000;-webkit-touch-callout:none;cursor:pointer;-webkit-user-select:none;-khtml-user-select:none;-moz-user-select:none;-ms-user-select:none;user-select: none;}text:hover{color:#777;}#reset{font-weight:bold;}</style><marker id="markerStart" markerWidth="8" markerHeight="8" style="overflow:visible;"><circle cx="0" cy="0" r="1.5" style="stroke:none;fill:red;fill-opacity:0.5;"/></marker><marker id="markerEnd" style="overflow:visible;"><circle cx="0" cy="0" r="0.8" style="stroke:none;fill:blue;fill-opacity:0.5;"><animate attributeName="opacity" from="1" to="0" dur="3s" repeatCount="indefinite" /></circle></marker></defs><path d="M67.75,32.78c0.1,1.39-0.27,3.07-1.28,4.37c-7.98,10.24-18.72,23.55-35.97,34.08" class="grey" /><path d="M57.19,54.22c0.81,0.92,1.02,2.46,1.02,3.79c0,1.33,0,26.33,0,27.87c0,1.54-0.1,7.48-0.1,9.63" class="grey" /><path d="M67.75,32.78c0.1,1.39-0.27,3.07-1.28,4.37c-7.98,10.24-18.72,23.55-35.97,34.08" class="stroke" stroke-dasharray="150"><animate attributeName="stroke-dashoffset" from="150" to="0" dur="1.8s" begin="0.0s" fill="freeze" /></path><path d="M57.19,54.22c0.81,0.92,1.02,2.46,1.02,3.79c0,1.33,0,26.33,0,27.87c0,1.54-0.1,7.48-0.1,9.63" class="stroke" stroke-dasharray="150"><set attributeName="opacity" to="0" dur="1.3s" /><animate attributeName="stroke-dashoffset" from="150" to="0" dur="1.8s" begin="1.3s" fill="freeze" /></path></svg>