<svg id="kvg-030bc" class="kanjivg" viewBox="0 0 106 106" width="106" height="106" xmlns="http://www.w3.org/2000/svg" xmlns:xlink="http://www.w3.org/1999/xlink" xml:space="preserve" version="1.1" baseProfile="full"><defs><style type="text/css">path.black{fill:none;stroke:black;stroke-width:5;stroke-linecap:round;stroke-linejoin:round;}path.grey{fill:none;stroke:#ddd;stroke-width:5;stroke-linecap:round;stroke-linejoin:round;}path.stroke{fill:none;stroke:black;stroke-width:5;stroke-linecap:round;stroke-linejoin:round;}text{font-size:16px;font-family:Segoe UI Symbol,Cambria Math,DejaVu Sans,Symbola,Quivira,STIX,Code2000;-webkit-touch-callout:none;cursor:pointer;-webkit-user-select:none;-khtml-user-select:none;-moz-user-select:none;-ms-user-select:none;user-select: none;}text:hover{color:#777;}#reset{font-weight:bold;}</style><marker id="markerStart" markerWidth="8" markerHeight="8" style="overflow:visible;"><circle cx="0" cy="0" r="1.5" style="stroke:none;fill:red;fill-opacity:0.5;"/></marker><marker id="markerEnd" style="overflow:visible;"><circle cx="0" cy="0" r="0.8" style="stroke:none;fill:blue;fill-opacity:0.5;"><animate attributeName="opacity" from="1" to="0" dur="3s" repeatCount="indefinite" /></circle></marker></defs><path d="M17,49.38c3.12,1.5,5.04,2.18,8.62,1.38c23.5-5.25,31.24-7.43,50.62-11.62c23.12-5,6.5,7.75-3.25,18.12" class="grey" /><path d="M42.38,19.5c2,2.25,2.15,3.5,2.12,6.62c-0.12,17.5-0.88,31.75-0.88,41.12c0,14,3.13,16.99,12.38,17.12c8.38,0.12,14.12,0.12,18,0.12c3.88,0,7.5-0.5,10.5-1.12" class="grey" /><path d="M83.38,20.25c2.75,1.75,6,5.38,7.75,8.5" class="grey" /><path d="M89.76,15.38c3.06,1.57,6.68,4.82,8.62,7.62" class="grey" /><path d="M17,49.38c3.12,1.5,5.04,2.18,8.62,1.38c23.5-5.25,31.24-7.43,50.62-11.62c23.12-5,6.5,7.75-3.25,18.12" class="stroke" stroke-dasharray="150"><animate attributeName="stroke-dashoffset" from="150" to="0" dur="1.8s" begin="0.0s" fill="freeze" /></path><path d="M42.38,19.5c2,2.25,2.15,3.5,2.12,6.62c-0.12,17.5-0.88,31.75-0.88,41.12c0,14,3.13,16.99,12.38,17.12c8.38,0.12,14.12,0.12,18,0.12c3.88,0,7.5-0.5,10.5-1.12" class="stroke" stroke-dasharray="150"><set attributeName="opacity" to="0" dur="1.8s" /><animate attributeName="stroke-dashoffset" from="150" to="0" dur="1.8s" begin="1.8s" fill="freeze" /></path><path d="M83.38,20.25c2.75,1.75,6,5.38,7.75,8.5" class="stroke" stroke-dasharray="150"><set attributeName="opacity" to="0" dur="3.7s" /><animate attributeName="stroke-dashoffset" from="150" to="0" dur="1.8s" begin="3.7s" fill="freeze" /></path><path d="M89.76,15.38c3.06,1.57,6.68,4.82,8.62,7.62" class="stroke" stroke-dasharray="150"><set attributeName="opacity" to="0" dur="4.6000000000000005s" /><animate attributeName="stroke-dashoffset" from="150" to="0" dur="1.8s" begin="4.6000000000000005s" fill="freeze" /></path></svg>