<svg id="kvg-030b6" class="kanjivg" viewBox="0 0 106 126" width="106" height="126" xmlns="http://www.w3.org/2000/svg" xmlns:xlink="http://www.w3.org/1999/xlink" xml:space="preserve" version="1.1" baseProfile="full"><defs><style type="text/css">path.black{fill:none;stroke:black;stroke-width:5;stroke-linecap:round;stroke-linejoin:round;}path.grey{fill:none;stroke:#ddd;stroke-width:5;stroke-linecap:round;stroke-linejoin:round;}path.stroke{fill:none;stroke:black;stroke-width:5;stroke-linecap:round;stroke-linejoin:round;}text{font-size:16px;font-family:Segoe UI Symbol,Cambria Math,DejaVu Sans,Symbola,Quivira,STIX,Code2000;-webkit-touch-callout:none;cursor:pointer;-webkit-user-select:none;-khtml-user-select:none;-moz-user-select:none;-ms-user-select:none;user-select: none;}text:hover{color:#777;}#reset{font-weight:bold;}</style><marker id="markerStart" markerWidth="8" markerHeight="8" style="overflow:visible;"><circle cx="0" cy="0" r="1.5" style="stroke:none;fill:red;fill-opacity:0.5;"/></marker><marker id="markerEnd" style="overflow:visible;"><circle cx="0" cy="0" r="0.8" style="stroke:none;fill:blue;fill-opacity:0.5;"><animate attributeName="opacity" from="1" to="0" dur="3s" repeatCount="indefinite" /></circle></marker></defs><path d="M16.5,44.34c2.84,1.27,4.77,1.91,8.93,1.13c17.2-3.22,40.45-5.35,58.53-5.34c4.33,0,6.92,0.37,10.42,0.82" class="grey" /><path d="M36.63,23.38c1.12,1.38,1.19,2.5,1.25,4.75c0.25,9,0.38,20.25,0.75,28.88c0.14,3.25,0.38,7.12,0.38,9.25" class="grey" /><path d="M69.63,16.62c1.5,2,1.62,2.87,1.62,6.25c0,8.25-0.16,9-0.16,15.88c0,23.25-9.34,42.5-23.21,53" class="grey" /><path d="M82.75,18.73c2.85,1.78,6.21,5.47,8.03,8.65" class="grey" /><path d="M89.5,14.12c2.93,1.57,6.39,4.83,8.25,7.63" class="grey" /><path d="M16.5,44.34c2.84,1.27,4.77,1.91,8.93,1.13c17.2-3.22,40.45-5.35,58.53-5.34c4.33,0,6.92,0.37,10.42,0.82" class="stroke" stroke-dasharray="150"><animate attributeName="stroke-dashoffset" from="150" to="0" dur="1.8s" begin="0.0s" fill="freeze" /></path><path d="M36.63,23.38c1.12,1.38,1.19,2.5,1.25,4.75c0.25,9,0.38,20.25,0.75,28.88c0.14,3.25,0.38,7.12,0.38,9.25" class="stroke" stroke-dasharray="150"><set attributeName="opacity" to="0" dur="1.7s" /><animate attributeName="stroke-dashoffset" from="150" to="0" dur="1.8s" begin="1.7s" fill="freeze" /></path><path d="M69.63,16.62c1.5,2,1.62,2.87,1.62,6.25c0,8.25-0.16,9-0.16,15.88c0,23.25-9.34,42.5-23.21,53" class="stroke" stroke-dasharray="150"><set attributeName="opacity" to="0" dur="2.8s" /><animate attributeName="stroke-dashoffset" from="150" to="0" dur="1.8s" begin="2.8s" fill="freeze" /></path><path d="M82.75,18.73c2.85,1.78,6.21,5.47,8.03,8.65" class="stroke" stroke-dasharray="150"><set attributeName="opacity" to="0" dur="4.5s" /><animate attributeName="stroke-dashoffset" from="150" to="0" dur="1.8s" begin="4.5s" fill="freeze" /></path><path d="M89.5,14.12c2.93,1.57,6.39,4.83,8.25,7.63" class="stroke" stroke-dasharray="150"><set attributeName="opacity" to="0" dur="5.4s" /><animate attributeName="stroke-dashoffset" from="150" to="0" dur="1.8s" begin="5.4s" fill="freeze" /></path></svg>