<svg id="kvg-030bf" class="kanjivg" viewBox="0 0 106 106" width="106" height="106" xmlns="http://www.w3.org/2000/svg" xmlns:xlink="http://www.w3.org/1999/xlink" xml:space="preserve" version="1.1" baseProfile="full"><defs><style type="text/css">path.black{fill:none;stroke:black;stroke-width:5;stroke-linecap:round;stroke-linejoin:round;}path.grey{fill:none;stroke:#ddd;stroke-width:5;stroke-linecap:round;stroke-linejoin:round;}path.stroke{fill:none;stroke:black;stroke-width:5;stroke-linecap:round;stroke-linejoin:round;}text{font-size:16px;font-family:Segoe UI Symbol,Cambria Math,DejaVu Sans,Symbola,Quivira,STIX,Code2000;-webkit-touch-callout:none;cursor:pointer;-webkit-user-select:none;-khtml-user-select:none;-moz-user-select:none;-ms-user-select:none;user-select: none;}text:hover{color:#777;}#reset{font-weight:bold;}</style><marker id="markerStart" markerWidth="8" markerHeight="8" style="overflow:visible;"><circle cx="0" cy="0" r="1.5" style="stroke:none;fill:red;fill-opacity:0.5;"/></marker><marker id="markerEnd" style="overflow:visible;"><circle cx="0" cy="0" r="0.8" style="stroke:none;fill:blue;fill-opacity:0.5;"><animate attributeName="opacity" from="1" to="0" dur="3s" repeatCount="indefinite" /></circle></marker></defs><path d="M48.83,19.75c0.43,1.72,0.39,4-0.58,5.89c-4.77,9.34-9.1,17.82-18.63,27.73" class="grey" /><path d="M49.75,30.38c2.75,0.5,5,0,7.62-0.62c6.02-1.43,10.5-2.62,15.88-4.12c5.79-1.62,8.22,0.31,5.88,5.62c-10.88,24.62-22.13,43.99-50.13,59.99" class="grey" /><path d="M43.38,45.62c6.75,3.5,10.62,7.88,14.75,15.25" class="grey" /><path d="M48.83,19.75c0.43,1.72,0.39,4-0.58,5.89c-4.77,9.34-9.1,17.82-18.63,27.73" class="stroke" stroke-dasharray="150"><animate attributeName="stroke-dashoffset" from="150" to="0" dur="1.8s" begin="0.0s" fill="freeze" /></path><path d="M49.75,30.38c2.75,0.5,5,0,7.62-0.62c6.02-1.43,10.5-2.62,15.88-4.12c5.79-1.62,8.22,0.31,5.88,5.62c-10.88,24.62-22.13,43.99-50.13,59.99" class="stroke" stroke-dasharray="150"><set attributeName="opacity" to="0" dur="1.0s" /><animate attributeName="stroke-dashoffset" from="150" to="0" dur="1.8s" begin="1.0s" fill="freeze" /></path><path d="M43.38,45.62c6.75,3.5,10.62,7.88,14.75,15.25" class="stroke" stroke-dasharray="150"><set attributeName="opacity" to="0" dur="3.0s" /><animate attributeName="stroke-dashoffset" from="150" to="0" dur="1.8s" begin="3.0s" fill="freeze" /></path></svg>