<svg id="kvg-030b2" class="kanjivg" viewBox="0 0 106 126" width="106" height="126" xmlns="http://www.w3.org/2000/svg" xmlns:xlink="http://www.w3.org/1999/xlink" xml:space="preserve" version="1.1" baseProfile="full"><defs><style type="text/css">path.black{fill:none;stroke:black;stroke-width:5;stroke-linecap:round;stroke-linejoin:round;}path.grey{fill:none;stroke:#ddd;stroke-width:5;stroke-linecap:round;stroke-linejoin:round;}path.stroke{fill:none;stroke:black;stroke-width:5;stroke-linecap:round;stroke-linejoin:round;}text{font-size:16px;font-family:Segoe UI Symbol,Cambria Math,DejaVu Sans,Symbola,Quivira,STIX,Code2000;-webkit-touch-callout:none;cursor:pointer;-webkit-user-select:none;-khtml-user-select:none;-moz-user-select:none;-ms-user-select:none;user-select: none;}text:hover{color:#777;}#reset{font-weight:bold;}</style><marker id="markerStart" markerWidth="8" markerHeight="8" style="overflow:visible;"><circle cx="0" cy="0" r="1.5" style="stroke:none;fill:red;fill-opacity:0.5;"/></marker><marker id="markerEnd" style="overflow:visible;"><circle cx="0" cy="0" r="0.8" style="stroke:none;fill:blue;fill-opacity:0.5;"><animate attributeName="opacity" from="1" to="0" dur="3s" repeatCount="indefinite" /></circle></marker></defs><path d="M40.96,17.88c0.44,1.9,0.39,4.42-0.59,6.5c-4.82,10.31-9.21,19.67-18.87,30.62" class="grey" /><path d="M37.88,37.62c2.12,0.88,4.15,1.04,6.62,0.5c12.62-2.75,25.5-4.88,35.75-6.5c3.61-0.57,6.25-0.75,9.25-0.5" class="grey" /><path d="M64.46,38.88c0.44,1.9,0.5,4.27-0.08,6.5c-3.63,13.75-9.25,31.25-24.63,43.87" class="grey" /><path d="M83.62,13.94c2.95,1.81,6.43,5.57,8.3,8.81" class="grey" /><path d="M90.12,9.12c3.02,1.63,6.58,5,8.5,7.9" class="grey" /><path d="M40.96,17.88c0.44,1.9,0.39,4.42-0.59,6.5c-4.82,10.31-9.21,19.67-18.87,30.62" class="stroke" stroke-dasharray="150"><animate attributeName="stroke-dashoffset" from="150" to="0" dur="1.8s" begin="0.0s" fill="freeze" /></path><path d="M37.88,37.62c2.12,0.88,4.15,1.04,6.62,0.5c12.62-2.75,25.5-4.88,35.75-6.5c3.61-0.57,6.25-0.75,9.25-0.5" class="stroke" stroke-dasharray="150"><set attributeName="opacity" to="0" dur="1.1s" /><animate attributeName="stroke-dashoffset" from="150" to="0" dur="1.8s" begin="1.1s" fill="freeze" /></path><path d="M64.46,38.88c0.44,1.9,0.5,4.27-0.08,6.5c-3.63,13.75-9.25,31.25-24.63,43.87" class="stroke" stroke-dasharray="150"><set attributeName="opacity" to="0" dur="2.4000000000000004s" /><animate attributeName="stroke-dashoffset" from="150" to="0" dur="1.8s" begin="2.4000000000000004s" fill="freeze" /></path><path d="M83.62,13.94c2.95,1.81,6.43,5.57,8.3,8.81" class="stroke" stroke-dasharray="150"><set attributeName="opacity" to="0" dur="3.8000000000000003s" /><animate attributeName="stroke-dashoffset" from="150" to="0" dur="1.8s" begin="3.8000000000000003s" fill="freeze" /></path><path d="M90.12,9.12c3.02,1.63,6.58,5,8.5,7.9" class="stroke" stroke-dasharray="150"><set attributeName="opacity" to="0" dur="4.7s" /><animate attributeName="stroke-dashoffset" from="150" to="0" dur="1.8s" begin="4.7s" fill="freeze" /></path></svg>