<svg id="kvg-030cb" class="kanjivg" viewBox="0 0 106 106" width="106" height="106" xmlns="http://www.w3.org/2000/svg" xmlns:xlink="http://www.w3.org/1999/xlink" xml:space="preserve" version="1.1" baseProfile="full"><defs><style type="text/css">path.black{fill:none;stroke:black;stroke-width:5;stroke-linecap:round;stroke-linejoin:round;}path.grey{fill:none;stroke:#ddd;stroke-width:5;stroke-linecap:round;stroke-linejoin:round;}path.stroke{fill:none;stroke:black;stroke-width:5;stroke-linecap:round;stroke-linejoin:round;}text{font-size:16px;font-family:Segoe UI Symbol,Cambria Math,DejaVu Sans,Symbola,Quivira,STIX,Code2000;-webkit-touch-callout:none;cursor:pointer;-webkit-user-select:none;-khtml-user-select:none;-moz-user-select:none;-ms-user-select:none;user-select: none;}text:hover{color:#777;}#reset{font-weight:bold;}</style><marker id="markerStart" markerWidth="8" markerHeight="8" style="overflow:visible;"><circle cx="0" cy="0" r="1.5" style="stroke:none;fill:red;fill-opacity:0.5;"/></marker><marker id="markerEnd" style="overflow:visible;"><circle cx="0" cy="0" r="0.8" style="stroke:none;fill:blue;fill-opacity:0.5;"><animate attributeName="opacity" from="1" to="0" dur="3s" repeatCount="indefinite" /></circle></marker></defs><path d="M32.63,34.69c2.5,1.19,4.33,1.6,7.45,1.35c11.55-0.91,18.3-2.41,27.04-3.18c2.64-0.23,6.27-0.16,8.39,0.08" class="grey" /><path d="M20,74.88c2.62,1,4.78,1.45,9.12,0.75c20.25-3.25,36.5-3.88,52.38-3.88c3.75,0,8,1,11.12,2.38" class="grey" /><path d="M32.63,34.69c2.5,1.19,4.33,1.6,7.45,1.35c11.55-0.91,18.3-2.41,27.04-3.18c2.64-0.23,6.27-0.16,8.39,0.08" class="stroke" stroke-dasharray="150"><animate attributeName="stroke-dashoffset" from="150" to="0" dur="1.8s" begin="0.0s" fill="freeze" /></path><path d="M20,74.88c2.62,1,4.78,1.45,9.12,0.75c20.25-3.25,36.5-3.88,52.38-3.88c3.75,0,8,1,11.12,2.38" class="stroke" stroke-dasharray="150"><set attributeName="opacity" to="0" dur="1.1s" /><animate attributeName="stroke-dashoffset" from="150" to="0" dur="1.8s" begin="1.1s" fill="freeze" /></path></svg>