<svg id="kvg-030d9" class="kanjivg" viewBox="0 0 106 106" width="106" height="106" xmlns="http://www.w3.org/2000/svg" xmlns:xlink="http://www.w3.org/1999/xlink" xml:space="preserve" version="1.1" baseProfile="full"><defs><style type="text/css">path.black{fill:none;stroke:black;stroke-width:5;stroke-linecap:round;stroke-linejoin:round;}path.grey{fill:none;stroke:#ddd;stroke-width:5;stroke-linecap:round;stroke-linejoin:round;}path.stroke{fill:none;stroke:black;stroke-width:5;stroke-linecap:round;stroke-linejoin:round;}text{font-size:16px;font-family:Segoe UI Symbol,Cambria Math,DejaVu Sans,Symbola,Quivira,STIX,Code2000;-webkit-touch-callout:none;cursor:pointer;-webkit-user-select:none;-khtml-user-select:none;-moz-user-select:none;-ms-user-select:none;user-select: none;}text:hover{color:#777;}#reset{font-weight:bold;}</style><marker id="markerStart" markerWidth="8" markerHeight="8" style="overflow:visible;"><circle cx="0" cy="0" r="1.5" style="stroke:none;fill:red;fill-opacity:0.5;"/></marker><marker id="markerEnd" style="overflow:visible;"><circle cx="0" cy="0" r="0.8" style="stroke:none;fill:blue;fill-opacity:0.5;"><animate attributeName="opacity" from="1" to="0" dur="3s" repeatCount="indefinite" /></circle></marker></defs><path d="M15.5,49c2.75,1.5,5.33,0.62,6.88-0.88c4-3.88,9.38-8.5,11.88-11c3.12-3.12,7.23-5.08,11.87-1.12c11.13,9.5,26.25,22.5,36.87,31.12c4.23,3.43,7.62,6.62,11.12,9.25" class="grey" /><path d="M66.88,27c2.75,1.75,6,5.38,7.75,8.5" class="grey" /><path d="M73.26,22.12c3.06,1.57,6.68,4.82,8.62,7.62" class="grey" /><path d="M15.5,49c2.75,1.5,5.33,0.62,6.88-0.88c4-3.88,9.38-8.5,11.88-11c3.12-3.12,7.23-5.08,11.87-1.12c11.13,9.5,26.25,22.5,36.87,31.12c4.23,3.43,7.62,6.62,11.12,9.25" class="stroke" stroke-dasharray="150"><animate attributeName="stroke-dashoffset" from="150" to="0" dur="1.8s" begin="0.0s" fill="freeze" /></path><path d="M66.88,27c2.75,1.75,6,5.38,7.75,8.5" class="stroke" stroke-dasharray="150"><set attributeName="opacity" to="0" dur="1.8s" /><animate attributeName="stroke-dashoffset" from="150" to="0" dur="1.8s" begin="1.8s" fill="freeze" /></path><path d="M73.26,22.12c3.06,1.57,6.68,4.82,8.62,7.62" class="stroke" stroke-dasharray="150"><set attributeName="opacity" to="0" dur="2.7s" /><animate attributeName="stroke-dashoffset" from="150" to="0" dur="1.8s" begin="2.7s" fill="freeze" /></path></svg>