<svg id="kvg-030d2" class="kanjivg" viewBox="0 0 106 106" width="106" height="106" xmlns="http://www.w3.org/2000/svg" xmlns:xlink="http://www.w3.org/1999/xlink" xml:space="preserve" version="1.1" baseProfile="full"><defs><style type="text/css">path.black{fill:none;stroke:black;stroke-width:5;stroke-linecap:round;stroke-linejoin:round;}path.grey{fill:none;stroke:#ddd;stroke-width:5;stroke-linecap:round;stroke-linejoin:round;}path.stroke{fill:none;stroke:black;stroke-width:5;stroke-linecap:round;stroke-linejoin:round;}text{font-size:16px;font-family:Segoe UI Symbol,Cambria Math,DejaVu Sans,Symbola,Quivira,STIX,Code2000;-webkit-touch-callout:none;cursor:pointer;-webkit-user-select:none;-khtml-user-select:none;-moz-user-select:none;-ms-user-select:none;user-select: none;}text:hover{color:#777;}#reset{font-weight:bold;}</style><marker id="markerStart" markerWidth="8" markerHeight="8" style="overflow:visible;"><circle cx="0" cy="0" r="1.5" style="stroke:none;fill:red;fill-opacity:0.5;"/></marker><marker id="markerEnd" style="overflow:visible;"><circle cx="0" cy="0" r="0.8" style="stroke:none;fill:blue;fill-opacity:0.5;"><animate attributeName="opacity" from="1" to="0" dur="3s" repeatCount="indefinite" /></circle></marker></defs><path d="M35.38,44.5c1.75,1.38,4.51,2.19,6.88,1.88c10.24-1.38,17.24-2.88,24.24-4.26c3.01-0.59,7.12-1,9.38-0.88" class="grey" /><path d="M31,17.62c1.38,1.26,1.88,3.38,1.88,6.13c0,2.75-0.88,44-0.88,47.25c0,9.75,4,14.62,13.75,14.62c6,0,16.38,0.12,21.38,0c5-0.12,9.5-0.62,13.5-1.5" class="grey" /><path d="M35.38,44.5c1.75,1.38,4.51,2.19,6.88,1.88c10.24-1.38,17.24-2.88,24.24-4.26c3.01-0.59,7.12-1,9.38-0.88" class="stroke" stroke-dasharray="150"><animate attributeName="stroke-dashoffset" from="150" to="0" dur="1.8s" begin="0.0s" fill="freeze" /></path><path d="M31,17.62c1.38,1.26,1.88,3.38,1.88,6.13c0,2.75-0.88,44-0.88,47.25c0,9.75,4,14.62,13.75,14.62c6,0,16.38,0.12,21.38,0c5-0.12,9.5-0.62,13.5-1.5" class="stroke" stroke-dasharray="150"><set attributeName="opacity" to="0" dur="1.1s" /><animate attributeName="stroke-dashoffset" from="150" to="0" dur="1.8s" begin="1.1s" fill="freeze" /></path></svg>