<svg id="kvg-030e7" class="kanjivg" viewBox="0 0 106 106" width="106" height="106" xmlns="http://www.w3.org/2000/svg" xmlns:xlink="http://www.w3.org/1999/xlink" xml:space="preserve" version="1.1" baseProfile="full"><defs><style type="text/css">path.black{fill:none;stroke:black;stroke-width:5;stroke-linecap:round;stroke-linejoin:round;}path.grey{fill:none;stroke:#ddd;stroke-width:5;stroke-linecap:round;stroke-linejoin:round;}path.stroke{fill:none;stroke:black;stroke-width:5;stroke-linecap:round;stroke-linejoin:round;}text{font-size:16px;font-family:Segoe UI Symbol,Cambria Math,DejaVu Sans,Symbola,Quivira,STIX,Code2000;-webkit-touch-callout:none;cursor:pointer;-webkit-user-select:none;-khtml-user-select:none;-moz-user-select:none;-ms-user-select:none;user-select: none;}text:hover{color:#777;}#reset{font-weight:bold;}</style><marker id="markerStart" markerWidth="8" markerHeight="8" style="overflow:visible;"><circle cx="0" cy="0" r="1.5" style="stroke:none;fill:red;fill-opacity:0.5;"/></marker><marker id="markerEnd" style="overflow:visible;"><circle cx="0" cy="0" r="0.8" style="stroke:none;fill:blue;fill-opacity:0.5;"><animate attributeName="opacity" from="1" to="0" dur="3s" repeatCount="indefinite" /></circle></marker></defs><path d="M33.5,50.62c1.9,1.21,4.09,1.6,7.39,1.21c11.19-1.32,21.35-2.46,29.07-3.44c4.79-0.61,5.49,0.4,5.2,5.16c-0.79,12.56-1.5,24.79-2.4,34.21" class="grey" /><path d="M33.6,69.04c1.9,1.21,4.09,1.6,7.39,1.21c8.39-0.99,18.23-1.85,24.86-2.47c2.21-0.2,4.21,0.04,6.21,0.44" class="grey" /><path d="M29,90.06c2.2,1.05,3.79,1.36,7.29,1.05c9.99-0.88,23.47-2.35,33.07-2.35c2.7,0,4.49,0,7.49,0.44" class="grey" /><path d="M33.5,50.62c1.9,1.21,4.09,1.6,7.39,1.21c11.19-1.32,21.35-2.46,29.07-3.44c4.79-0.61,5.49,0.4,5.2,5.16c-0.79,12.56-1.5,24.79-2.4,34.21" class="stroke" stroke-dasharray="150"><animate attributeName="stroke-dashoffset" from="150" to="0" dur="1.8s" begin="0.0s" fill="freeze" /></path><path d="M33.6,69.04c1.9,1.21,4.09,1.6,7.39,1.21c8.39-0.99,18.23-1.85,24.86-2.47c2.21-0.2,4.21,0.04,6.21,0.44" class="stroke" stroke-dasharray="150"><set attributeName="opacity" to="0" dur="1.7s" /><animate attributeName="stroke-dashoffset" from="150" to="0" dur="1.8s" begin="1.7s" fill="freeze" /></path><path d="M29,90.06c2.2,1.05,3.79,1.36,7.29,1.05c9.99-0.88,23.47-2.35,33.07-2.35c2.7,0,4.49,0,7.49,0.44" class="stroke" stroke-dasharray="150"><set attributeName="opacity" to="0" dur="2.7s" /><animate attributeName="stroke-dashoffset" from="150" to="0" dur="1.8s" begin="2.7s" fill="freeze" /></path></svg>