<svg id="kvg-030ef" class="kanjivg" viewBox="0 0 106 106" width="106" height="106" xmlns="http://www.w3.org/2000/svg" xmlns:xlink="http://www.w3.org/1999/xlink" xml:space="preserve" version="1.1" baseProfile="full"><defs><style type="text/css">path.black{fill:none;stroke:black;stroke-width:5;stroke-linecap:round;stroke-linejoin:round;}path.grey{fill:none;stroke:#ddd;stroke-width:5;stroke-linecap:round;stroke-linejoin:round;}path.stroke{fill:none;stroke:black;stroke-width:5;stroke-linecap:round;stroke-linejoin:round;}text{font-size:16px;font-family:Segoe UI Symbol,Cambria Math,DejaVu Sans,Symbola,Quivira,STIX,Code2000;-webkit-touch-callout:none;cursor:pointer;-webkit-user-select:none;-khtml-user-select:none;-moz-user-select:none;-ms-user-select:none;user-select: none;}text:hover{color:#777;}#reset{font-weight:bold;}</style><marker id="markerStart" markerWidth="8" markerHeight="8" style="overflow:visible;"><circle cx="0" cy="0" r="1.5" style="stroke:none;fill:red;fill-opacity:0.5;"/></marker><marker id="markerEnd" style="overflow:visible;"><circle cx="0" cy="0" r="0.8" style="stroke:none;fill:blue;fill-opacity:0.5;"><animate attributeName="opacity" from="1" to="0" dur="3s" repeatCount="indefinite" /></circle></marker></defs><path d="M25,23.62c1.5,1.25,2.16,3.14,2.38,5.38c0.96,10.07,0.89,8.17,1.89,19.38c0.31,3.4,0.59,6.58,0.86,9.38" class="grey" /><path d="M27.75,26.38c3.12,0.38,5.16,0.22,8.23-0.06c13.77-1.29,27.15-2.32,41.65-3.7c8.04-0.76,9.44,0.51,8.38,6.62c-4.76,27.26-20.64,47.64-43.88,61.51" class="grey" /><path d="M25,23.62c1.5,1.25,2.16,3.14,2.38,5.38c0.96,10.07,0.89,8.17,1.89,19.38c0.31,3.4,0.59,6.58,0.86,9.38" class="stroke" stroke-dasharray="150"><animate attributeName="stroke-dashoffset" from="150" to="0" dur="1.8s" begin="0.0s" fill="freeze" /></path><path d="M27.75,26.38c3.12,0.38,5.16,0.22,8.23-0.06c13.77-1.29,27.15-2.32,41.65-3.7c8.04-0.76,9.44,0.51,8.38,6.62c-4.76,27.26-20.64,47.64-43.88,61.51" class="stroke" stroke-dasharray="150"><set attributeName="opacity" to="0" dur="1.0s" /><animate attributeName="stroke-dashoffset" from="150" to="0" dur="1.8s" begin="1.0s" fill="freeze" /></path></svg>