<svg id="kvg-030e8" class="kanjivg" viewBox="0 0 106 106" width="106" height="106" xmlns="http://www.w3.org/2000/svg" xmlns:xlink="http://www.w3.org/1999/xlink" xml:space="preserve" version="1.1" baseProfile="full"><defs><style type="text/css">path.black{fill:none;stroke:black;stroke-width:5;stroke-linecap:round;stroke-linejoin:round;}path.grey{fill:none;stroke:#ddd;stroke-width:5;stroke-linecap:round;stroke-linejoin:round;}path.stroke{fill:none;stroke:black;stroke-width:5;stroke-linecap:round;stroke-linejoin:round;}text{font-size:16px;font-family:Segoe UI Symbol,Cambria Math,DejaVu Sans,Symbola,Quivira,STIX,Code2000;-webkit-touch-callout:none;cursor:pointer;-webkit-user-select:none;-khtml-user-select:none;-moz-user-select:none;-ms-user-select:none;user-select: none;}text:hover{color:#777;}#reset{font-weight:bold;}</style><marker id="markerStart" markerWidth="8" markerHeight="8" style="overflow:visible;"><circle cx="0" cy="0" r="1.5" style="stroke:none;fill:red;fill-opacity:0.5;"/></marker><marker id="markerEnd" style="overflow:visible;"><circle cx="0" cy="0" r="0.8" style="stroke:none;fill:blue;fill-opacity:0.5;"><animate attributeName="opacity" from="1" to="0" dur="3s" repeatCount="indefinite" /></circle></marker></defs><path d="M29.13,30.12c2.38,1.5,5.12,1.98,9.25,1.5c14-1.62,26.71-3.04,36.38-4.25c6-0.75,6.88,0.5,6.5,6.38c-1,15.51-1.89,30.63-3.01,42.25" class="grey" /><path d="M29.25,52.88c2.38,1.5,5.12,1.98,9.25,1.5c10.5-1.22,22.81-2.29,31.11-3.04c2.77-0.25,5.27,0.04,7.77,0.54" class="grey" /><path d="M23.5,78.84c2.75,1.3,4.74,1.68,9.12,1.3c12.5-1.08,29.37-2.9,41.38-2.9c3.38,0,5.62,0,9.38,0.54" class="grey" /><path d="M29.13,30.12c2.38,1.5,5.12,1.98,9.25,1.5c14-1.62,26.71-3.04,36.38-4.25c6-0.75,6.88,0.5,6.5,6.38c-1,15.51-1.89,30.63-3.01,42.25" class="stroke" stroke-dasharray="150"><animate attributeName="stroke-dashoffset" from="150" to="0" dur="1.8s" begin="0.0s" fill="freeze" /></path><path d="M29.25,52.88c2.38,1.5,5.12,1.98,9.25,1.5c10.5-1.22,22.81-2.29,31.11-3.04c2.77-0.25,5.27,0.04,7.77,0.54" class="stroke" stroke-dasharray="150"><set attributeName="opacity" to="0" dur="1.9s" /><animate attributeName="stroke-dashoffset" from="150" to="0" dur="1.8s" begin="1.9s" fill="freeze" /></path><path d="M23.5,78.84c2.75,1.3,4.74,1.68,9.12,1.3c12.5-1.08,29.37-2.9,41.38-2.9c3.38,0,5.62,0,9.38,0.54" class="stroke" stroke-dasharray="150"><set attributeName="opacity" to="0" dur="3.0999999999999996s" /><animate attributeName="stroke-dashoffset" from="150" to="0" dur="1.8s" begin="3.0999999999999996s" fill="freeze" /></path></svg>