<svg id="kvg-030eb" class="kanjivg" viewBox="0 0 106 106" width="106" height="106" xmlns="http://www.w3.org/2000/svg" xmlns:xlink="http://www.w3.org/1999/xlink" xml:space="preserve" version="1.1" baseProfile="full"><defs><style type="text/css">path.black{fill:none;stroke:black;stroke-width:5;stroke-linecap:round;stroke-linejoin:round;}path.grey{fill:none;stroke:#ddd;stroke-width:5;stroke-linecap:round;stroke-linejoin:round;}path.stroke{fill:none;stroke:black;stroke-width:5;stroke-linecap:round;stroke-linejoin:round;}text{font-size:16px;font-family:Segoe UI Symbol,Cambria Math,DejaVu Sans,Symbola,Quivira,STIX,Code2000;-webkit-touch-callout:none;cursor:pointer;-webkit-user-select:none;-khtml-user-select:none;-moz-user-select:none;-ms-user-select:none;user-select: none;}text:hover{color:#777;}#reset{font-weight:bold;}</style><marker id="markerStart" markerWidth="8" markerHeight="8" style="overflow:visible;"><circle cx="0" cy="0" r="1.5" style="stroke:none;fill:red;fill-opacity:0.5;"/></marker><marker id="markerEnd" style="overflow:visible;"><circle cx="0" cy="0" r="0.8" style="stroke:none;fill:blue;fill-opacity:0.5;"><animate attributeName="opacity" from="1" to="0" dur="3s" repeatCount="indefinite" /></circle></marker></defs><path d="M34.38,31.88c1.12,1.5,1.72,3,1.62,4.88c-1.12,22.88-8.88,40.62-17.5,49.5" class="grey" /><path d="M56.51,19.62c1.5,1.25,2.38,3.12,2.38,5.38c0,2.26-0.12,47.62-0.12,51.62c0,10.5,0.52,10.21,9.38,2.75c9.5-8,16.5-14.62,26.38-25.62" class="grey" /><path d="M34.38,31.88c1.12,1.5,1.72,3,1.62,4.88c-1.12,22.88-8.88,40.62-17.5,49.5" class="stroke" stroke-dasharray="150"><animate attributeName="stroke-dashoffset" from="150" to="0" dur="1.8s" begin="0.0s" fill="freeze" /></path><path d="M56.51,19.62c1.5,1.25,2.38,3.12,2.38,5.38c0,2.26-0.12,47.62-0.12,51.62c0,10.5,0.52,10.21,9.38,2.75c9.5-8,16.5-14.62,26.38-25.62" class="stroke" stroke-dasharray="150"><set attributeName="opacity" to="0" dur="1.4s" /><animate attributeName="stroke-dashoffset" from="150" to="0" dur="1.8s" begin="1.4s" fill="freeze" /></path></svg>