<svg id="kvg-030e2" class="kanjivg" viewBox="0 0 106 106" width="106" height="106" xmlns="http://www.w3.org/2000/svg" xmlns:xlink="http://www.w3.org/1999/xlink" xml:space="preserve" version="1.1" baseProfile="full"><defs><style type="text/css">path.black{fill:none;stroke:black;stroke-width:5;stroke-linecap:round;stroke-linejoin:round;}path.grey{fill:none;stroke:#ddd;stroke-width:5;stroke-linecap:round;stroke-linejoin:round;}path.stroke{fill:none;stroke:black;stroke-width:5;stroke-linecap:round;stroke-linejoin:round;}text{font-size:16px;font-family:Segoe UI Symbol,Cambria Math,DejaVu Sans,Symbola,Quivira,STIX,Code2000;-webkit-touch-callout:none;cursor:pointer;-webkit-user-select:none;-khtml-user-select:none;-moz-user-select:none;-ms-user-select:none;user-select: none;}text:hover{color:#777;}#reset{font-weight:bold;}</style><marker id="markerStart" markerWidth="8" markerHeight="8" style="overflow:visible;"><circle cx="0" cy="0" r="1.5" style="stroke:none;fill:red;fill-opacity:0.5;"/></marker><marker id="markerEnd" style="overflow:visible;"><circle cx="0" cy="0" r="0.8" style="stroke:none;fill:blue;fill-opacity:0.5;"><animate attributeName="opacity" from="1" to="0" dur="3s" repeatCount="indefinite" /></circle></marker></defs><path d="M27.88,26.19c2.5,1.19,4.33,1.6,7.45,1.35c11.55-0.91,21.93-2.16,32.79-3.93c2.62-0.42,6.27-0.41,8.39-0.17" class="grey" /><path d="M17.5,54.38c2.62,1,4.78,1.45,9.12,0.75c20.26-3.25,33.88-5.38,51.64-6.13c3.75-0.16,7.38,0.25,11.12,0.88" class="grey" /><path d="M48.76,29.88c1.12,1.62,1.42,3.62,1.42,6.12c0,6.53-0.65,33.56-0.65,35.88c0,7.67,3.09,11.08,10.53,11.76c5.33,0.49,12.31,0.24,16.37,0c4.46-0.26,6.52-0.74,9.59-1.43" class="grey" /><path d="M27.88,26.19c2.5,1.19,4.33,1.6,7.45,1.35c11.55-0.91,21.93-2.16,32.79-3.93c2.62-0.42,6.27-0.41,8.39-0.17" class="stroke" stroke-dasharray="150"><animate attributeName="stroke-dashoffset" from="150" to="0" dur="1.8s" begin="0.0s" fill="freeze" /></path><path d="M17.5,54.38c2.62,1,4.78,1.45,9.12,0.75c20.26-3.25,33.88-5.38,51.64-6.13c3.75-0.16,7.38,0.25,11.12,0.88" class="stroke" stroke-dasharray="150"><set attributeName="opacity" to="0" dur="1.2s" /><animate attributeName="stroke-dashoffset" from="150" to="0" dur="1.8s" begin="1.2s" fill="freeze" /></path><path d="M48.76,29.88c1.12,1.62,1.42,3.62,1.42,6.12c0,6.53-0.65,33.56-0.65,35.88c0,7.67,3.09,11.08,10.53,11.76c5.33,0.49,12.31,0.24,16.37,0c4.46-0.26,6.52-0.74,9.59-1.43" class="stroke" stroke-dasharray="150"><set attributeName="opacity" to="0" dur="2.9s" /><animate attributeName="stroke-dashoffset" from="150" to="0" dur="1.8s" begin="2.9s" fill="freeze" /></path></svg>