<svg id="kvg-030ed" class="kanjivg" viewBox="0 0 106 106" width="106" height="106" xmlns="http://www.w3.org/2000/svg" xmlns:xlink="http://www.w3.org/1999/xlink" xml:space="preserve" version="1.1" baseProfile="full"><defs><style type="text/css">path.black{fill:none;stroke:black;stroke-width:5;stroke-linecap:round;stroke-linejoin:round;}path.grey{fill:none;stroke:#ddd;stroke-width:5;stroke-linecap:round;stroke-linejoin:round;}path.stroke{fill:none;stroke:black;stroke-width:5;stroke-linecap:round;stroke-linejoin:round;}text{font-size:16px;font-family:Segoe UI Symbol,Cambria Math,DejaVu Sans,Symbola,Quivira,STIX,Code2000;-webkit-touch-callout:none;cursor:pointer;-webkit-user-select:none;-khtml-user-select:none;-moz-user-select:none;-ms-user-select:none;user-select: none;}text:hover{color:#777;}#reset{font-weight:bold;}</style><marker id="markerStart" markerWidth="8" markerHeight="8" style="overflow:visible;"><circle cx="0" cy="0" r="1.5" style="stroke:none;fill:red;fill-opacity:0.5;"/></marker><marker id="markerEnd" style="overflow:visible;"><circle cx="0" cy="0" r="0.8" style="stroke:none;fill:blue;fill-opacity:0.5;"><animate attributeName="opacity" from="1" to="0" dur="3s" repeatCount="indefinite" /></circle></marker></defs><path d="M25,33.25c1.5,1.25,2.16,3.14,2.38,5.38c0.96,10.07,2.14,23.67,3.14,34.88c0.31,3.4,0.59,6.58,0.86,9.38" class="grey" /><path d="M28.13,36.12c9.25-1,37.62-3.12,45.62-4.25c8-1.13,9.57,0.53,8.38,6.62c-2.13,10.89-4.13,21.89-6.75,34.89" class="grey" /><path d="M32,78.12c5.38-0.5,33.62-3,36.5-3c2.88,0,7.88-0.25,11.5,0.25" class="grey" /><path d="M25,33.25c1.5,1.25,2.16,3.14,2.38,5.38c0.96,10.07,2.14,23.67,3.14,34.88c0.31,3.4,0.59,6.58,0.86,9.38" class="stroke" stroke-dasharray="150"><animate attributeName="stroke-dashoffset" from="150" to="0" dur="1.8s" begin="0.0s" fill="freeze" /></path><path d="M28.13,36.12c9.25-1,37.62-3.12,45.62-4.25c8-1.13,9.57,0.53,8.38,6.62c-2.13,10.89-4.13,21.89-6.75,34.89" class="stroke" stroke-dasharray="150"><set attributeName="opacity" to="0" dur="1.3s" /><animate attributeName="stroke-dashoffset" from="150" to="0" dur="1.8s" begin="1.3s" fill="freeze" /></path><path d="M32,78.12c5.38-0.5,33.62-3,36.5-3c2.88,0,7.88-0.25,11.5,0.25" class="stroke" stroke-dasharray="150"><set attributeName="opacity" to="0" dur="3.1s" /><animate attributeName="stroke-dashoffset" from="150" to="0" dur="1.8s" begin="3.1s" fill="freeze" /></path></svg>