<svg id="kvg-030e9" class="kanjivg" viewBox="0 0 106 106" width="106" height="106" xmlns="http://www.w3.org/2000/svg" xmlns:xlink="http://www.w3.org/1999/xlink" xml:space="preserve" version="1.1" baseProfile="full"><defs><style type="text/css">path.black{fill:none;stroke:black;stroke-width:5;stroke-linecap:round;stroke-linejoin:round;}path.grey{fill:none;stroke:#ddd;stroke-width:5;stroke-linecap:round;stroke-linejoin:round;}path.stroke{fill:none;stroke:black;stroke-width:5;stroke-linecap:round;stroke-linejoin:round;}text{font-size:16px;font-family:Segoe UI Symbol,Cambria Math,DejaVu Sans,Symbola,Quivira,STIX,Code2000;-webkit-touch-callout:none;cursor:pointer;-webkit-user-select:none;-khtml-user-select:none;-moz-user-select:none;-ms-user-select:none;user-select: none;}text:hover{color:#777;}#reset{font-weight:bold;}</style><marker id="markerStart" markerWidth="8" markerHeight="8" style="overflow:visible;"><circle cx="0" cy="0" r="1.5" style="stroke:none;fill:red;fill-opacity:0.5;"/></marker><marker id="markerEnd" style="overflow:visible;"><circle cx="0" cy="0" r="0.8" style="stroke:none;fill:blue;fill-opacity:0.5;"><animate attributeName="opacity" from="1" to="0" dur="3s" repeatCount="indefinite" /></circle></marker></defs><path d="M38.63,21.06c2.07,1.86,4.43,2.53,8.05,2.15c9.2-0.96,14.34-2.01,21.57-2.95c2.41-0.31,4.13-0.53,6.51-0.19" class="grey" /><path d="M26,41.89c2.38,1.7,5.12,2.24,9.25,1.7c14-1.84,31.21-4.95,40.88-6.32c6-0.85,8.14,0.62,6.25,5.72c-6.88,18.62-22,38.25-45.25,48.62" class="grey" /><path d="M38.63,21.06c2.07,1.86,4.43,2.53,8.05,2.15c9.2-0.96,14.34-2.01,21.57-2.95c2.41-0.31,4.13-0.53,6.51-0.19" class="stroke" stroke-dasharray="150"><animate attributeName="stroke-dashoffset" from="150" to="0" dur="1.8s" begin="0.0s" fill="freeze" /></path><path d="M26,41.89c2.38,1.7,5.12,2.24,9.25,1.7c14-1.84,31.21-4.95,40.88-6.32c6-0.85,8.14,0.62,6.25,5.72c-6.88,18.62-22,38.25-45.25,48.62" class="stroke" stroke-dasharray="150"><set attributeName="opacity" to="0" dur="1.0s" /><animate attributeName="stroke-dashoffset" from="150" to="0" dur="1.8s" begin="1.0s" fill="freeze" /></path></svg>