<svg id="kvg-030e6" class="kanjivg" viewBox="0 0 106 106" width="106" height="106" xmlns="http://www.w3.org/2000/svg" xmlns:xlink="http://www.w3.org/1999/xlink" xml:space="preserve" version="1.1" baseProfile="full"><defs><style type="text/css">path.black{fill:none;stroke:black;stroke-width:5;stroke-linecap:round;stroke-linejoin:round;}path.grey{fill:none;stroke:#ddd;stroke-width:5;stroke-linecap:round;stroke-linejoin:round;}path.stroke{fill:none;stroke:black;stroke-width:5;stroke-linecap:round;stroke-linejoin:round;}text{font-size:16px;font-family:Segoe UI Symbol,Cambria Math,DejaVu Sans,Symbola,Quivira,STIX,Code2000;-webkit-touch-callout:none;cursor:pointer;-webkit-user-select:none;-khtml-user-select:none;-moz-user-select:none;-ms-user-select:none;user-select: none;}text:hover{color:#777;}#reset{font-weight:bold;}</style><marker id="markerStart" markerWidth="8" markerHeight="8" style="overflow:visible;"><circle cx="0" cy="0" r="1.5" style="stroke:none;fill:red;fill-opacity:0.5;"/></marker><marker id="markerEnd" style="overflow:visible;"><circle cx="0" cy="0" r="0.8" style="stroke:none;fill:blue;fill-opacity:0.5;"><animate attributeName="opacity" from="1" to="0" dur="3s" repeatCount="indefinite" /></circle></marker></defs><path d="M29.5,35.38c2.38,1.5,5.14,2.08,9.25,1.5c13.25-1.88,18.02-2.4,27.62-4c6.75-1.12,7.78,0.16,6.5,6.38c-2.38,11.5-4.88,24.5-6.5,34.5" class="grey" /><path d="M17,76.88c2.75,1.5,4.76,2.05,9.12,1.5c22.62-2.88,36-3.88,54.12-3.88c3.75,0,7.38,0.5,11.12,1.12" class="grey" /><path d="M29.5,35.38c2.38,1.5,5.14,2.08,9.25,1.5c13.25-1.88,18.02-2.4,27.62-4c6.75-1.12,7.78,0.16,6.5,6.38c-2.38,11.5-4.88,24.5-6.5,34.5" class="stroke" stroke-dasharray="150"><animate attributeName="stroke-dashoffset" from="150" to="0" dur="1.8s" begin="0.0s" fill="freeze" /></path><path d="M17,76.88c2.75,1.5,4.76,2.05,9.12,1.5c22.62-2.88,36-3.88,54.12-3.88c3.75,0,7.38,0.5,11.12,1.12" class="stroke" stroke-dasharray="150"><set attributeName="opacity" to="0" dur="1.7s" /><animate attributeName="stroke-dashoffset" from="150" to="0" dur="1.8s" begin="1.7s" fill="freeze" /></path></svg>