<svg id="kvg-030f2" class="kanjivg" viewBox="0 0 106 106" width="106" height="106" xmlns="http://www.w3.org/2000/svg" xmlns:xlink="http://www.w3.org/1999/xlink" xml:space="preserve" version="1.1" baseProfile="full"><defs><style type="text/css">path.black{fill:none;stroke:black;stroke-width:5;stroke-linecap:round;stroke-linejoin:round;}path.grey{fill:none;stroke:#ddd;stroke-width:5;stroke-linecap:round;stroke-linejoin:round;}path.stroke{fill:none;stroke:black;stroke-width:5;stroke-linecap:round;stroke-linejoin:round;}text{font-size:16px;font-family:Segoe UI Symbol,Cambria Math,DejaVu Sans,Symbola,Quivira,STIX,Code2000;-webkit-touch-callout:none;cursor:pointer;-webkit-user-select:none;-khtml-user-select:none;-moz-user-select:none;-ms-user-select:none;user-select: none;}text:hover{color:#777;}#reset{font-weight:bold;}</style><marker id="markerStart" markerWidth="8" markerHeight="8" style="overflow:visible;"><circle cx="0" cy="0" r="1.5" style="stroke:none;fill:red;fill-opacity:0.5;"/></marker><marker id="markerEnd" style="overflow:visible;"><circle cx="0" cy="0" r="0.8" style="stroke:none;fill:blue;fill-opacity:0.5;"><animate attributeName="opacity" from="1" to="0" dur="3s" repeatCount="indefinite" /></circle></marker></defs><path d="M30.24,25.14c2.38,1.7,5.11,2.13,9.25,1.7c12.32-1.29,21.94-2.6,30.48-3.64c2.81-0.34,5.51-0.65,8.14-0.93" class="grey" /><path d="M29,46.69c2.25,1.44,4.44,1.9,8.05,1.4c8.19-1.15,19.93-2.64,28.56-3.79c2.38-0.31,4.65-0.62,6.75-0.92" class="grey" /><path d="M78,22.88c0.88,2,0.62,4.64,0.12,7c-4.88,22.5-23.5,47.12-44.12,60.74" class="grey" /><path d="M30.24,25.14c2.38,1.7,5.11,2.13,9.25,1.7c12.32-1.29,21.94-2.6,30.48-3.64c2.81-0.34,5.51-0.65,8.14-0.93" class="stroke" stroke-dasharray="150"><animate attributeName="stroke-dashoffset" from="150" to="0" dur="1.8s" begin="0.0s" fill="freeze" /></path><path d="M29,46.69c2.25,1.44,4.44,1.9,8.05,1.4c8.19-1.15,19.93-2.64,28.56-3.79c2.38-0.31,4.65-0.62,6.75-0.92" class="stroke" stroke-dasharray="150"><set attributeName="opacity" to="0" dur="1.2s" /><animate attributeName="stroke-dashoffset" from="150" to="0" dur="1.8s" begin="1.2s" fill="freeze" /></path><path d="M78,22.88c0.88,2,0.62,4.64,0.12,7c-4.88,22.5-23.5,47.12-44.12,60.74" class="stroke" stroke-dasharray="150"><set attributeName="opacity" to="0" dur="2.3s" /><animate attributeName="stroke-dashoffset" from="150" to="0" dur="1.8s" begin="2.3s" fill="freeze" /></path></svg>