<svg id="kvg-030f4" class="kanjivg"  viewBox="0 0 106 106" width="106" height="106"  xmlns="http://www.w3.org/2000/svg" xmlns:xlink="http://www.w3.org/1999/xlink" xml:space="preserve" version="1.1" baseProfile="full"><defs><style type="text/css">path.black{fill:none;stroke:black;stroke-width:5;stroke-linecap:round;stroke-linejoin:round;}path.grey{fill:none;stroke:#ddd;stroke-width:5;stroke-linecap:round;stroke-linejoin:round;}path.stroke{fill:none;stroke:black;stroke-width:5;stroke-linecap:round;stroke-linejoin:round;}text{font-size:16px;font-family:Segoe UI Symbol,Cambria Math,DejaVu Sans,Symbola,Quivira,STIX,Code2000;-webkit-touch-callout:none;cursor:pointer;-webkit-user-select:none;-khtml-user-select:none;-moz-user-select:none;-ms-user-select:none;user-select: none;}text:hover{color:#777;}#reset{font-weight:bold;}</style><marker id="markerStart" markerWidth="8" markerHeight="8" style="overflow:visible;"><circle cx="0" cy="0" r="1.5" style="stroke:none;fill:red;fill-opacity:0.5;"/></marker><marker id="markerEnd" style="overflow:visible;"><circle cx="0" cy="0" r="0.8" style="stroke:none;fill:blue;fill-opacity:0.5;"><animate attributeName="opacity" from="1" to="0" dur="3s" repeatCount="indefinite" /></circle></marker></defs><path d="M53.25,14.62c1,1.12,1.25,3,1.25,4.62c0,1.62,0,10.76,0,12.64" class="grey" /><path d="M26.5,31.25c1,1.12,1.22,3,1.25,4.62c0.09,4.45,0.29,10.95,0.45,16.37c0.07,2.5,0.14,4.77,0.18,6.5" class="grey" /><path d="M29.12,35.88c19.38-2.25,40.25-4.25,49-5.5c8.75-1.25,8.28,0.84,6.25,6.88c-5,14.88-20.12,43.5-41,56.62" class="grey" /><path d="M85.12,16.5c2.75,1.75,6,5.38,7.75,8.5" class="grey" /><path d="M91.5,11.62c3.06,1.57,6.68,4.82,8.62,7.62" class="grey" /><path d="M53.25,14.62c1,1.12,1.25,3,1.25,4.62c0,1.62,0,10.76,0,12.64" class="stroke" stroke-dasharray="150"><animate attributeName="stroke-dashoffset" from="150" to="0" dur="1.8s" begin="0.0s" fill="freeze" /></path><path d="M26.5,31.25c1,1.12,1.22,3,1.25,4.62c0.09,4.45,0.29,10.95,0.45,16.37c0.07,2.5,0.14,4.77,0.18,6.5" class="stroke" stroke-dasharray="150"><set attributeName="opacity" to="0" dur="0.9s" /><animate attributeName="stroke-dashoffset" from="150" to="0" dur="1.8s" begin="0.9s" fill="freeze" /></path><path d="M29.12,35.88c19.38-2.25,40.25-4.25,49-5.5c8.75-1.25,8.28,0.84,6.25,6.88c-5,14.88-20.12,43.5-41,56.62" class="stroke" stroke-dasharray="150"><set attributeName="opacity" to="0" dur="1.9s" /><animate attributeName="stroke-dashoffset" from="150" to="0" dur="1.8s" begin="1.9s" fill="freeze" /></path><path d="M85.12,16.5c2.75,1.75,6,5.38,7.75,8.5" class="stroke" stroke-dasharray="150"><set attributeName="opacity" to="0" dur="3.9s" /><animate attributeName="stroke-dashoffset" from="150" to="0" dur="1.8s" begin="3.9s" fill="freeze" /></path><path d="M91.5,11.62c3.06,1.57,6.68,4.82,8.62,7.62" class="stroke" stroke-dasharray="150"><set attributeName="opacity" to="0" dur="4.8s" /><animate attributeName="stroke-dashoffset" from="150" to="0" dur="1.8s" begin="4.8s" fill="freeze" /></path></svg>