<svg id="kvg-04e03" class="kanjivg" viewBox="0 0 106 106" width="106" height="106" xmlns="http://www.w3.org/2000/svg" xmlns:xlink="http://www.w3.org/1999/xlink" xml:space="preserve" version="1.1" baseProfile="full"><defs><style type="text/css">path.black{fill:none;stroke:black;stroke-width:5;stroke-linecap:round;stroke-linejoin:round;}path.grey{fill:none;stroke:#ddd;stroke-width:5;stroke-linecap:round;stroke-linejoin:round;}path.stroke{fill:none;stroke:black;stroke-width:5;stroke-linecap:round;stroke-linejoin:round;}text{font-size:16px;font-family:Segoe UI Symbol,Cambria Math,DejaVu Sans,Symbola,Quivira,STIX,Code2000;-webkit-touch-callout:none;cursor:pointer;-webkit-user-select:none;-khtml-user-select:none;-moz-user-select:none;-ms-user-select:none;user-select: none;}text:hover{color:#777;}#reset{font-weight:bold;}</style><marker id="markerStart" markerWidth="8" markerHeight="8" style="overflow:visible;"><circle cx="0" cy="0" r="1.5" style="stroke:none;fill:red;fill-opacity:0.5;"/></marker><marker id="markerEnd" style="overflow:visible;"><circle cx="0" cy="0" r="0.8" style="stroke:none;fill:blue;fill-opacity:0.5;"><animate attributeName="opacity" from="1" to="0" dur="3s" repeatCount="indefinite" /></circle></marker></defs><path d="M15.5,51.75c1.82,0.5,4.38,0.88,6.96,0.5c16.91-2.45,50.92-8.12,64.44-8.74c3.02-0.14,4.84,0.24,6.35,0.49" class="grey" /><path d="M43,20c1.38,1.38,2.15,3.25,2.15,5.26C45.15,29.5,45,71.84,45,76c0,10.5,2.25,12.25,20.25,12.25c18.75,0,20-3.75,20-12.31" class="grey" /><path d="M15.5,51.75c1.82,0.5,4.38,0.88,6.96,0.5c16.91-2.45,50.92-8.12,64.44-8.74c3.02-0.14,4.84,0.24,6.35,0.49" class="stroke" stroke-dasharray="150"><animate attributeName="stroke-dashoffset" from="150" to="0" dur="1.8s" begin="0.0s" fill="freeze" /></path><path d="M43,20c1.38,1.38,2.15,3.25,2.15,5.26C45.15,29.5,45,71.84,45,76c0,10.5,2.25,12.25,20.25,12.25c18.75,0,20-3.75,20-12.31" class="stroke" stroke-dasharray="150"><set attributeName="opacity" to="0" dur="1.7s" /><animate attributeName="stroke-dashoffset" from="150" to="0" dur="1.8s" begin="1.7s" fill="freeze" /></path></svg>