<svg id="kvg-04e0a" class="kanjivg" viewBox="0 0 106 126" width="106" height="106" xmlns="http://www.w3.org/2000/svg" xmlns:xlink="http://www.w3.org/1999/xlink" xml:space="preserve" version="1.1" baseProfile="full"><defs><style type="text/css">path.black{fill:none;stroke:black;stroke-width:5;stroke-linecap:round;stroke-linejoin:round;}path.grey{fill:none;stroke:#ddd;stroke-width:5;stroke-linecap:round;stroke-linejoin:round;}path.stroke{fill:none;stroke:black;stroke-width:5;stroke-linecap:round;stroke-linejoin:round;}text{font-size:16px;font-family:Segoe UI Symbol,Cambria Math,DejaVu Sans,Symbola,Quivira,STIX,Code2000;-webkit-touch-callout:none;cursor:pointer;-webkit-user-select:none;-khtml-user-select:none;-moz-user-select:none;-ms-user-select:none;user-select: none;}text:hover{color:#777;}#reset{font-weight:bold;}</style><marker id="markerStart" markerWidth="8" markerHeight="8" style="overflow:visible;"><circle cx="0" cy="0" r="1.5" style="stroke:none;fill:red;fill-opacity:0.5;"/></marker><marker id="markerEnd" style="overflow:visible;"><circle cx="0" cy="0" r="0.8" style="stroke:none;fill:blue;fill-opacity:0.5;"><animate attributeName="opacity" from="1" to="0" dur="3s" repeatCount="indefinite" /></circle></marker></defs><path d="M52.31,15.88c1.15,1.15,2.01,3.12,2.01,5.12c0,0.82-0.22,63.62-0.25,64.63" class="grey" /><path d="M58,44.75c7-0.62,14.25-2.5,17.75-3c1.38-0.2,3.5-0.38,4.75,0" class="grey" /><path d="M13.38,88.28c3.6,1.15,7.45,0.62,11.13,0.34c16.23-1.23,41.16-2.66,60.24-2.92c3.65-0.05,7.47-0.32,11,0.82" class="grey" /><path d="M52.31,15.88c1.15,1.15,2.01,3.12,2.01,5.12c0,0.82-0.22,63.62-0.25,64.63" class="stroke" stroke-dasharray="150"><animate attributeName="stroke-dashoffset" from="150" to="0" dur="1.8s" begin="0.0s" fill="freeze" /></path><path d="M58,44.75c7-0.62,14.25-2.5,17.75-3c1.38-0.2,3.5-0.38,4.75,0" class="stroke" stroke-dasharray="150"><set attributeName="opacity" to="0" dur="1.7s" /><animate attributeName="stroke-dashoffset" from="150" to="0" dur="1.8s" begin="1.7s" fill="freeze" /></path><path d="M13.38,88.28c3.6,1.15,7.45,0.62,11.13,0.34c16.23-1.23,41.16-2.66,60.24-2.92c3.65-0.05,7.47-0.32,11,0.82" class="stroke" stroke-dasharray="150"><set attributeName="opacity" to="0" dur="2.7s" /><animate attributeName="stroke-dashoffset" from="150" to="0" dur="1.8s" begin="2.7s" fill="freeze" /></path></svg>