<svg id="kvg-04e59" class="kanjivg" viewBox="0 0 106 106" width="106" height="106" xmlns="http://www.w3.org/2000/svg" xmlns:xlink="http://www.w3.org/1999/xlink" xml:space="preserve" version="1.1" baseProfile="full"><defs><style type="text/css">path.black{fill:none;stroke:black;stroke-width:5;stroke-linecap:round;stroke-linejoin:round;}path.grey{fill:none;stroke:#ddd;stroke-width:5;stroke-linecap:round;stroke-linejoin:round;}path.stroke{fill:none;stroke:black;stroke-width:5;stroke-linecap:round;stroke-linejoin:round;}text{font-size:16px;font-family:Segoe UI Symbol,Cambria Math,DejaVu Sans,Symbola,Quivira,STIX,Code2000;-webkit-touch-callout:none;cursor:pointer;-webkit-user-select:none;-khtml-user-select:none;-moz-user-select:none;-ms-user-select:none;user-select: none;}text:hover{color:#777;}#reset{font-weight:bold;}</style><marker id="markerStart" markerWidth="8" markerHeight="8" style="overflow:visible;"><circle cx="0" cy="0" r="1.5" style="stroke:none;fill:red;fill-opacity:0.5;"/></marker><marker id="markerEnd" style="overflow:visible;"><circle cx="0" cy="0" r="0.8" style="stroke:none;fill:blue;fill-opacity:0.5;"><animate attributeName="opacity" from="1" to="0" dur="3s" repeatCount="indefinite" /></circle></marker></defs><path d="M19.5,28.25c1.88,0.62,5.23,0.87,6.5,0.75c9.38-0.88,28.75-4.62,34.5-5.75c1.98-0.39,3.5,1.5,1.25,3.75C48.86,39.89,32.11,63.31,28,70.25c-8,13.5-7.38,19.34,30.5,19.34c27.5,0,28.75-1.84,28.75-11.34" class="grey" /><path d="M19.5,28.25c1.88,0.62,5.23,0.87,6.5,0.75c9.38-0.88,28.75-4.62,34.5-5.75c1.98-0.39,3.5,1.5,1.25,3.75C48.86,39.89,32.11,63.31,28,70.25c-8,13.5-7.38,19.34,30.5,19.34c27.5,0,28.75-1.84,28.75-11.34" class="stroke" stroke-dasharray="200"><animate attributeName="stroke-dashoffset" from="200" to="0" dur="1.8s" begin="0.0s" fill="freeze" /></path></svg>