<svg id="kvg-04e5d" class="kanjivg" viewBox="0 0 106 106" width="106" height="106" xmlns="http://www.w3.org/2000/svg" xmlns:xlink="http://www.w3.org/1999/xlink" xml:space="preserve" version="1.1" baseProfile="full"><defs><style type="text/css">path.black{fill:none;stroke:black;stroke-width:5;stroke-linecap:round;stroke-linejoin:round;}path.grey{fill:none;stroke:#ddd;stroke-width:5;stroke-linecap:round;stroke-linejoin:round;}path.stroke{fill:none;stroke:black;stroke-width:5;stroke-linecap:round;stroke-linejoin:round;}text{font-size:16px;font-family:Segoe UI Symbol,Cambria Math,DejaVu Sans,Symbola,Quivira,STIX,Code2000;-webkit-touch-callout:none;cursor:pointer;-webkit-user-select:none;-khtml-user-select:none;-moz-user-select:none;-ms-user-select:none;user-select: none;}text:hover{color:#777;}#reset{font-weight:bold;}</style><marker id="markerStart" markerWidth="8" markerHeight="8" style="overflow:visible;"><circle cx="0" cy="0" r="1.5" style="stroke:none;fill:red;fill-opacity:0.5;"/></marker><marker id="markerEnd" style="overflow:visible;"><circle cx="0" cy="0" r="0.8" style="stroke:none;fill:blue;fill-opacity:0.5;"><animate attributeName="opacity" from="1" to="0" dur="3s" repeatCount="indefinite" /></circle></marker></defs><path d="M41.88,14.38c1,1.38,1.5,3.25,1.5,5.12c0,40.13-9.12,57.5-28.5,68.75" class="grey" /><path d="M13.5,45.75c2.88,0.85,5.78,0.05,8.58-0.66c8.47-2.14,39.88-9.79,40.92-9.84c2.5-0.12,4.75,0.5,4.25,4.75c-0.5,4.25-5.5,20.75-7,32.5c-2.23,17.46,2,19.37,18.21,19.37c13.79,0,19.01-1.07,19.27-10.12" class="grey" /><path d="M41.88,14.38c1,1.38,1.5,3.25,1.5,5.12c0,40.13-9.12,57.5-28.5,68.75" class="stroke" stroke-dasharray="150"><animate attributeName="stroke-dashoffset" from="150" to="0" dur="1.8s" begin="0.0s" fill="freeze" /></path><path d="M13.5,45.75c2.88,0.85,5.78,0.05,8.58-0.66c8.47-2.14,39.88-9.79,40.92-9.84c2.5-0.12,4.75,0.5,4.25,4.75c-0.5,4.25-5.5,20.75-7,32.5c-2.23,17.46,2,19.37,18.21,19.37c13.79,0,19.01-1.07,19.27-10.12" class="stroke" stroke-dasharray="200"><set attributeName="opacity" to="0" dur="1.7s" /><animate attributeName="stroke-dashoffset" from="200" to="0" dur="1.8s" begin="1.7s" fill="freeze" /></path></svg>