<svg id="kvg-04e8c" class="kanjivg" viewBox="0 0 106 106" width="106" height="106" xmlns="http://www.w3.org/2000/svg" xmlns:xlink="http://www.w3.org/1999/xlink" xml:space="preserve" version="1.1" baseProfile="full"><defs><style type="text/css">path.black{fill:none;stroke:black;stroke-width:5;stroke-linecap:round;stroke-linejoin:round;}path.grey{fill:none;stroke:#ddd;stroke-width:5;stroke-linecap:round;stroke-linejoin:round;}path.stroke{fill:none;stroke:black;stroke-width:5;stroke-linecap:round;stroke-linejoin:round;}text{font-size:16px;font-family:Segoe UI Symbol,Cambria Math,DejaVu Sans,Symbola,Quivira,STIX,Code2000;-webkit-touch-callout:none;cursor:pointer;-webkit-user-select:none;-khtml-user-select:none;-moz-user-select:none;-ms-user-select:none;user-select: none;}text:hover{color:#777;}#reset{font-weight:bold;}</style><marker id="markerStart" markerWidth="8" markerHeight="8" style="overflow:visible;"><circle cx="0" cy="0" r="1.5" style="stroke:none;fill:red;fill-opacity:0.5;"/></marker><marker id="markerEnd" style="overflow:visible;"><circle cx="0" cy="0" r="0.8" style="stroke:none;fill:blue;fill-opacity:0.5;"><animate attributeName="opacity" from="1" to="0" dur="3s" repeatCount="indefinite" /></circle></marker></defs><path d="M25.25,32.4c1.77,0.37,4.78,0.56,6.55,0.37c10.82-1.15,28.82-3.4,41.24-3.76c2.95-0.09,4.73,0.18,6.21,0.36" class="grey" /><path d="M12,80.75c2.37,0.5,6.73,0.67,9.09,0.5c23.79-1.75,45.04-4.12,67.49-4.74c3.95-0.11,6.32,0.24,8.3,0.49" class="grey" /><path d="M25.25,32.4c1.77,0.37,4.78,0.56,6.55,0.37c10.82-1.15,28.82-3.4,41.24-3.76c2.95-0.09,4.73,0.18,6.21,0.36" class="stroke" stroke-dasharray="150"><animate attributeName="stroke-dashoffset" from="150" to="0" dur="1.8s" begin="0.0s" fill="freeze" /></path><path d="M12,80.75c2.37,0.5,6.73,0.67,9.09,0.5c23.79-1.75,45.04-4.12,67.49-4.74c3.95-0.11,6.32,0.24,8.3,0.49" class="stroke" stroke-dasharray="150"><set attributeName="opacity" to="0" dur="1.3s" /><animate attributeName="stroke-dashoffset" from="150" to="0" dur="1.8s" begin="1.3s" fill="freeze" /></path></svg>