<svg id="kvg-04e94" class="kanjivg" viewBox="0 0 106 126" width="106" height="106" xmlns="http://www.w3.org/2000/svg" xmlns:xlink="http://www.w3.org/1999/xlink" xml:space="preserve" version="1.1" baseProfile="full"><defs><style type="text/css">path.black{fill:none;stroke:black;stroke-width:5;stroke-linecap:round;stroke-linejoin:round;}path.grey{fill:none;stroke:#ddd;stroke-width:5;stroke-linecap:round;stroke-linejoin:round;}path.stroke{fill:none;stroke:black;stroke-width:5;stroke-linecap:round;stroke-linejoin:round;}text{font-size:16px;font-family:Segoe UI Symbol,Cambria Math,DejaVu Sans,Symbola,Quivira,STIX,Code2000;-webkit-touch-callout:none;cursor:pointer;-webkit-user-select:none;-khtml-user-select:none;-moz-user-select:none;-ms-user-select:none;user-select: none;}text:hover{color:#777;}#reset{font-weight:bold;}</style><marker id="markerStart" markerWidth="8" markerHeight="8" style="overflow:visible;"><circle cx="0" cy="0" r="1.5" style="stroke:none;fill:red;fill-opacity:0.5;"/></marker><marker id="markerEnd" style="overflow:visible;"><circle cx="0" cy="0" r="0.8" style="stroke:none;fill:blue;fill-opacity:0.5;"><animate attributeName="opacity" from="1" to="0" dur="3s" repeatCount="indefinite" /></circle></marker></defs><path d="M31.75,23.15c2.8,0.67,5.54,0.42,8.36,0.12c9.3-0.99,22.18-2.4,34.14-3.21c2.49-0.17,5.04-0.33,7.5,0.2" class="grey" /><path d="M55.75,25.25c0.62,1.25,1.02,3.01,0.5,5c-3.12,11.88-14,44.12-19.75,59" class="grey" /><path d="M25.5,55.25c2.07,1.24,4.73,1.03,7,0.81c15.49-1.45,29.89-3.03,42.25-4.06c3-0.25,4.25,1.75,3.5,3.75c-2.24,5.96-6,20.75-7.75,31.5" class="grey" /><path d="M11.25,90.5c3.04,0.81,6.52,0.63,9.63,0.41c15.71-1.1,43.9-2.8,67.75-3.8c3.41-0.14,6.9-0.4,10.25,0.39" class="grey" /><path d="M31.75,23.15c2.8,0.67,5.54,0.42,8.36,0.12c9.3-0.99,22.18-2.4,34.14-3.21c2.49-0.17,5.04-0.33,7.5,0.2" class="stroke" stroke-dasharray="150"><animate attributeName="stroke-dashoffset" from="150" to="0" dur="1.8s" begin="0.0s" fill="freeze" /></path><path d="M55.75,25.25c0.62,1.25,1.02,3.01,0.5,5c-3.12,11.88-14,44.12-19.75,59" class="stroke" stroke-dasharray="150"><set attributeName="opacity" to="0" dur="1.3s" /><animate attributeName="stroke-dashoffset" from="150" to="0" dur="1.8s" begin="1.3s" fill="freeze" /></path><path d="M25.5,55.25c2.07,1.24,4.73,1.03,7,0.81c15.49-1.45,29.89-3.03,42.25-4.06c3-0.25,4.25,1.75,3.5,3.75c-2.24,5.96-6,20.75-7.75,31.5" class="stroke" stroke-dasharray="150"><set attributeName="opacity" to="0" dur="2.8s" /><animate attributeName="stroke-dashoffset" from="150" to="0" dur="1.8s" begin="2.8s" fill="freeze" /></path><path d="M11.25,90.5c3.04,0.81,6.52,0.63,9.63,0.41c15.71-1.1,43.9-2.8,67.75-3.8c3.41-0.14,6.9-0.4,10.25,0.39" class="stroke" stroke-dasharray="150"><set attributeName="opacity" to="0" dur="4.5s" /><animate attributeName="stroke-dashoffset" from="150" to="0" dur="1.8s" begin="4.5s" fill="freeze" /></path></svg>