<svg id="kvg-04f11" class="kanjivg" viewBox="0 0 106 106" width="106" height="106" xmlns="http://www.w3.org/2000/svg" xmlns:xlink="http://www.w3.org/1999/xlink" xml:space="preserve" version="1.1" baseProfile="full"><defs><style type="text/css">path.black{fill:none;stroke:black;stroke-width:5;stroke-linecap:round;stroke-linejoin:round;}path.grey{fill:none;stroke:#ddd;stroke-width:5;stroke-linecap:round;stroke-linejoin:round;}path.stroke{fill:none;stroke:black;stroke-width:5;stroke-linecap:round;stroke-linejoin:round;}text{font-size:16px;font-family:Segoe UI Symbol,Cambria Math,DejaVu Sans,Symbola,Quivira,STIX,Code2000;-webkit-touch-callout:none;cursor:pointer;-webkit-user-select:none;-khtml-user-select:none;-moz-user-select:none;-ms-user-select:none;user-select: none;}text:hover{color:#777;}#reset{font-weight:bold;}</style><marker id="markerStart" markerWidth="8" markerHeight="8" style="overflow:visible;"><circle cx="0" cy="0" r="1.5" style="stroke:none;fill:red;fill-opacity:0.5;"/></marker><marker id="markerEnd" style="overflow:visible;"><circle cx="0" cy="0" r="0.8" style="stroke:none;fill:blue;fill-opacity:0.5;"><animate attributeName="opacity" from="1" to="0" dur="3s" repeatCount="indefinite" /></circle></marker></defs><path d="M35,16.5c0.25,1.75,0.25,4.25-0.88,6.8C28.91,35.01,22.37,46.02,10.5,60.29" class="grey" /><path d="M26.28,42.5c0.72,1.25,1.26,3.48,1.26,4.75c0,12.75-0.07,29.88-0.26,42.25c-0.02,1.54-0.04,2.97-0.04,4.25" class="grey" /><path d="M37.65,38.83c2.45,0.97,5.18,0.75,7.73,0.54c11.76-0.97,24.94-3.35,37.49-4.01c2.65-0.14,5.39-0.22,7.99,0.39" class="grey" /><path d="M61.43,14c0.82,0.75,1.87,2.12,1.87,3.7c0,8.8,0.05,53.72-0.12,72.05c-0.03,2.88-0.06,4.91-0.08,5.75" class="grey" /><path d="M62.43,38.32c0,2.18-1.1,4.31-1.9,6.04C54.57,57.4,44.96,71.84,35,78.75" class="grey" /><path d="M64.12,38.08c4.45,8.37,16.21,25.33,24.99,33.19c1.96,1.76,4.35,4.18,6.9,5" class="grey" /><path d="M35,16.5c0.25,1.75,0.25,4.25-0.88,6.8C28.91,35.01,22.37,46.02,10.5,60.29" class="stroke" stroke-dasharray="150"><animate attributeName="stroke-dashoffset" from="150" to="0" dur="1.8s" begin="0.0s" fill="freeze" /></path><path d="M26.28,42.5c0.72,1.25,1.26,3.48,1.26,4.75c0,12.75-0.07,29.88-0.26,42.25c-0.02,1.54-0.04,2.97-0.04,4.25" class="stroke" stroke-dasharray="150"><set attributeName="opacity" to="0" dur="1.3s" /><animate attributeName="stroke-dashoffset" from="150" to="0" dur="1.8s" begin="1.3s" fill="freeze" /></path><path d="M37.65,38.83c2.45,0.97,5.18,0.75,7.73,0.54c11.76-0.97,24.94-3.35,37.49-4.01c2.65-0.14,5.39-0.22,7.99,0.39" class="stroke" stroke-dasharray="150"><set attributeName="opacity" to="0" dur="2.6s" /><animate attributeName="stroke-dashoffset" from="150" to="0" dur="1.8s" begin="2.6s" fill="freeze" /></path><path d="M61.43,14c0.82,0.75,1.87,2.12,1.87,3.7c0,8.8,0.05,53.72-0.12,72.05c-0.03,2.88-0.06,4.91-0.08,5.75" class="stroke" stroke-dasharray="150"><set attributeName="opacity" to="0" dur="3.9000000000000004s" /><animate attributeName="stroke-dashoffset" from="150" to="0" dur="1.8s" begin="3.9000000000000004s" fill="freeze" /></path><path d="M62.43,38.32c0,2.18-1.1,4.31-1.9,6.04C54.57,57.4,44.96,71.84,35,78.75" class="stroke" stroke-dasharray="150"><set attributeName="opacity" to="0" dur="5.6000000000000005s" /><animate attributeName="stroke-dashoffset" from="150" to="0" dur="1.8s" begin="5.6000000000000005s" fill="freeze" /></path><path d="M64.12,38.08c4.45,8.37,16.21,25.33,24.99,33.19c1.96,1.76,4.35,4.18,6.9,5" class="stroke" stroke-dasharray="150"><set attributeName="opacity" to="0" dur="6.800000000000001s" /><animate attributeName="stroke-dashoffset" from="150" to="0" dur="1.8s" begin="6.800000000000001s" fill="freeze" /></path></svg>