<svg id="kvg-04f11-Kaisho" class="kanjivg" viewBox="0 0 106 126" width="106" height="106" xmlns="http://www.w3.org/2000/svg" xmlns:xlink="http://www.w3.org/1999/xlink" xml:space="preserve" version="1.1" baseProfile="full"><defs><style type="text/css">path.black{fill:none;stroke:black;stroke-width:5;stroke-linecap:round;stroke-linejoin:round;}path.grey{fill:none;stroke:#ddd;stroke-width:5;stroke-linecap:round;stroke-linejoin:round;}path.stroke{fill:none;stroke:black;stroke-width:5;stroke-linecap:round;stroke-linejoin:round;}text{font-size:16px;font-family:Segoe UI Symbol,Cambria Math,DejaVu Sans,Symbola,Quivira,STIX,Code2000;-webkit-touch-callout:none;cursor:pointer;-webkit-user-select:none;-khtml-user-select:none;-moz-user-select:none;-ms-user-select:none;user-select: none;}text:hover{color:#777;}#reset{font-weight:bold;}</style><marker id="markerStart" markerWidth="8" markerHeight="8" style="overflow:visible;"><circle cx="0" cy="0" r="1.5" style="stroke:none;fill:red;fill-opacity:0.5;"/></marker><marker id="markerEnd" style="overflow:visible;"><circle cx="0" cy="0" r="0.8" style="stroke:none;fill:blue;fill-opacity:0.5;"><animate attributeName="opacity" from="1" to="0" dur="3s" repeatCount="indefinite" /></circle></marker></defs><path d="M35,16.5c0.25,2.15-0.07,4.96-0.88,6.8C28.94,35.02,22.37,46.02,10.5,60.29" class="grey" /><path d="M27.03,43c0.11,0.88,0.7,2.48,0.76,3.75c0.55,11.78-0.54,35.5-0.54,47" class="grey" /><path d="M37.65,38.83c0.62,0.25,3.29,0.92,4.94,0.74C54.5,38.25,72,35.75,86.25,35.25c1.66-0.06,3.07-0.25,4.11,0" class="grey" /><path d="M61.43,14.5c1.04,0.49,1.66,2.22,1.87,3.2c0.21,0.99-0.21,71.62-0.21,72.8c0,11-5.58,2.25-6.58,1.25" class="grey" /><path d="M63.18,38.32C57.76,52.15,46.28,70.92,35,78.75" class="grey" /><path d="M64.12,38.08c4.81,9.06,18.47,28.45,27.32,35.17c2.05,1.56,3.13,2.73,4.82,3.28" class="grey" /><path d="M35,16.5c0.25,2.15-0.07,4.96-0.88,6.8C28.94,35.02,22.37,46.02,10.5,60.29" class="stroke" stroke-dasharray="150"><animate attributeName="stroke-dashoffset" from="150" to="0" dur="1.8s" begin="0.0s" fill="freeze" /></path><path d="M27.03,43c0.11,0.88,0.7,2.48,0.76,3.75c0.55,11.78-0.54,35.5-0.54,47" class="stroke" stroke-dasharray="150"><set attributeName="opacity" to="0" dur="1.3s" /><animate attributeName="stroke-dashoffset" from="150" to="0" dur="1.8s" begin="1.3s" fill="freeze" /></path><path d="M37.65,38.83c0.62,0.25,3.29,0.92,4.94,0.74C54.5,38.25,72,35.75,86.25,35.25c1.66-0.06,3.07-0.25,4.11,0" class="stroke" stroke-dasharray="150"><set attributeName="opacity" to="0" dur="2.6s" /><animate attributeName="stroke-dashoffset" from="150" to="0" dur="1.8s" begin="2.6s" fill="freeze" /></path><path d="M61.43,14.5c1.04,0.49,1.66,2.22,1.87,3.2c0.21,0.99-0.21,71.62-0.21,72.8c0,11-5.58,2.25-6.58,1.25" class="stroke" stroke-dasharray="150"><set attributeName="opacity" to="0" dur="3.9000000000000004s" /><animate attributeName="stroke-dashoffset" from="150" to="0" dur="1.8s" begin="3.9000000000000004s" fill="freeze" /></path><path d="M63.18,38.32C57.76,52.15,46.28,70.92,35,78.75" class="stroke" stroke-dasharray="150"><set attributeName="opacity" to="0" dur="5.6000000000000005s" /><animate attributeName="stroke-dashoffset" from="150" to="0" dur="1.8s" begin="5.6000000000000005s" fill="freeze" /></path><path d="M64.12,38.08c4.81,9.06,18.47,28.45,27.32,35.17c2.05,1.56,3.13,2.73,4.82,3.28" class="stroke" stroke-dasharray="150"><set attributeName="opacity" to="0" dur="6.800000000000001s" /><animate attributeName="stroke-dashoffset" from="150" to="0" dur="1.8s" begin="6.800000000000001s" fill="freeze" /></path></svg>