<svg id="kvg-0516d" class="kanjivg" viewBox="0 0 106 126" width="106" height="106" xmlns="http://www.w3.org/2000/svg" xmlns:xlink="http://www.w3.org/1999/xlink" xml:space="preserve" version="1.1" baseProfile="full"><defs><style type="text/css">path.black{fill:none;stroke:black;stroke-width:5;stroke-linecap:round;stroke-linejoin:round;}path.grey{fill:none;stroke:#ddd;stroke-width:5;stroke-linecap:round;stroke-linejoin:round;}path.stroke{fill:none;stroke:black;stroke-width:5;stroke-linecap:round;stroke-linejoin:round;}text{font-size:16px;font-family:Segoe UI Symbol,Cambria Math,DejaVu Sans,Symbola,Quivira,STIX,Code2000;-webkit-touch-callout:none;cursor:pointer;-webkit-user-select:none;-khtml-user-select:none;-moz-user-select:none;-ms-user-select:none;user-select: none;}text:hover{color:#777;}#reset{font-weight:bold;}</style><marker id="markerStart" markerWidth="8" markerHeight="8" style="overflow:visible;"><circle cx="0" cy="0" r="1.5" style="stroke:none;fill:red;fill-opacity:0.5;"/></marker><marker id="markerEnd" style="overflow:visible;"><circle cx="0" cy="0" r="0.8" style="stroke:none;fill:blue;fill-opacity:0.5;"><animate attributeName="opacity" from="1" to="0" dur="3s" repeatCount="indefinite" /></circle></marker></defs><path d="M51.87,17.5c1.78,1.78,2.71,3.48,2.71,6.5c0,6.46,0.12,9.16,0.12,14.35" class="grey" /><path d="M13.5,42.13c3.27,0.74,7.11,0.89,9.93,0.64c21.56-1.9,41.78-5.02,61.41-5.47c4.8-0.11,7.49,0.31,11.06,1.07" class="grey" /><path d="M38.11,58.6c0.51,1.37,0.42,3.67-0.49,5.29C33.38,71.38,24,82.38,15.41,88.75" class="grey" /><path d="M70.16,59.92c9.96,8.61,18.18,18.54,23.16,28.99" class="grey" /><path d="M51.87,17.5c1.78,1.78,2.71,3.48,2.71,6.5c0,6.46,0.12,9.16,0.12,14.35" class="stroke" stroke-dasharray="150"><animate attributeName="stroke-dashoffset" from="150" to="0" dur="1.8s" begin="0.0s" fill="freeze" /></path><path d="M13.5,42.13c3.27,0.74,7.11,0.89,9.93,0.64c21.56-1.9,41.78-5.02,61.41-5.47c4.8-0.11,7.49,0.31,11.06,1.07" class="stroke" stroke-dasharray="150"><set attributeName="opacity" to="0" dur="1.0s" /><animate attributeName="stroke-dashoffset" from="150" to="0" dur="1.8s" begin="1.0s" fill="freeze" /></path><path d="M38.11,58.6c0.51,1.37,0.42,3.67-0.49,5.29C33.38,71.38,24,82.38,15.41,88.75" class="stroke" stroke-dasharray="150"><set attributeName="opacity" to="0" dur="2.7s" /><animate attributeName="stroke-dashoffset" from="150" to="0" dur="1.8s" begin="2.7s" fill="freeze" /></path><path d="M70.16,59.92c9.96,8.61,18.18,18.54,23.16,28.99" class="stroke" stroke-dasharray="150"><set attributeName="opacity" to="0" dur="3.7s" /><animate attributeName="stroke-dashoffset" from="150" to="0" dur="1.8s" begin="3.7s" fill="freeze" /></path></svg>