<svg id="kvg-0516d-Kaisho" class="kanjivg" viewBox="0 0 106 126" width="106" height="106" xmlns="http://www.w3.org/2000/svg" xmlns:xlink="http://www.w3.org/1999/xlink" xml:space="preserve" version="1.1" baseProfile="full"><defs><style type="text/css">path.black{fill:none;stroke:black;stroke-width:5;stroke-linecap:round;stroke-linejoin:round;}path.grey{fill:none;stroke:#ddd;stroke-width:5;stroke-linecap:round;stroke-linejoin:round;}path.stroke{fill:none;stroke:black;stroke-width:5;stroke-linecap:round;stroke-linejoin:round;}text{font-size:16px;font-family:Segoe UI Symbol,Cambria Math,DejaVu Sans,Symbola,Quivira,STIX,Code2000;-webkit-touch-callout:none;cursor:pointer;-webkit-user-select:none;-khtml-user-select:none;-moz-user-select:none;-ms-user-select:none;user-select: none;}text:hover{color:#777;}#reset{font-weight:bold;}</style><marker id="markerStart" markerWidth="8" markerHeight="8" style="overflow:visible;"><circle cx="0" cy="0" r="1.5" style="stroke:none;fill:red;fill-opacity:0.5;"/></marker><marker id="markerEnd" style="overflow:visible;"><circle cx="0" cy="0" r="0.8" style="stroke:none;fill:blue;fill-opacity:0.5;"><animate attributeName="opacity" from="1" to="0" dur="3s" repeatCount="indefinite" /></circle></marker></defs><path d="M46.28,18c5.15,2.19,12.71,10.64,13.58,14.94" class="grey" /><path d="M14.75,43.13c1.35,0.12,4.44,0.76,5.76,0.64c14.23-1.27,52.73-7.02,69.35-6.22c2.24,0.11,3.38,0.06,5.04,0.82" class="grey" /><path d="M37.11,58.35c0.51,1.37,1.14,4.15,0.26,5.79c-4.77,8.87-12.09,16.9-21.96,24.62" class="grey" /><path d="M70.16,59.42c9.96,8.61,18.18,18.54,23.16,28.99" class="grey" /><path d="M46.28,18c5.15,2.19,12.71,10.64,13.58,14.94" class="stroke" stroke-dasharray="150"><animate attributeName="stroke-dashoffset" from="150" to="0" dur="1.8s" begin="0.0s" fill="freeze" /></path><path d="M14.75,43.13c1.35,0.12,4.44,0.76,5.76,0.64c14.23-1.27,52.73-7.02,69.35-6.22c2.24,0.11,3.38,0.06,5.04,0.82" class="stroke" stroke-dasharray="150"><set attributeName="opacity" to="0" dur="1.0s" /><animate attributeName="stroke-dashoffset" from="150" to="0" dur="1.8s" begin="1.0s" fill="freeze" /></path><path d="M37.11,58.35c0.51,1.37,1.14,4.15,0.26,5.79c-4.77,8.87-12.09,16.9-21.96,24.62" class="stroke" stroke-dasharray="150"><set attributeName="opacity" to="0" dur="2.7s" /><animate attributeName="stroke-dashoffset" from="150" to="0" dur="1.8s" begin="2.7s" fill="freeze" /></path><path d="M70.16,59.42c9.96,8.61,18.18,18.54,23.16,28.99" class="stroke" stroke-dasharray="150"><set attributeName="opacity" to="0" dur="3.7s" /><animate attributeName="stroke-dashoffset" from="150" to="0" dur="1.8s" begin="3.7s" fill="freeze" /></path></svg>