<svg id="kvg-05200" class="kanjivg" viewBox="0 0 106 106" width="106" height="106" xmlns="http://www.w3.org/2000/svg" xmlns:xlink="http://www.w3.org/1999/xlink" xml:space="preserve" version="1.1" baseProfile="full"><defs><style type="text/css">path.black{fill:none;stroke:black;stroke-width:5;stroke-linecap:round;stroke-linejoin:round;}path.grey{fill:none;stroke:#ddd;stroke-width:5;stroke-linecap:round;stroke-linejoin:round;}path.stroke{fill:none;stroke:black;stroke-width:5;stroke-linecap:round;stroke-linejoin:round;}text{font-size:16px;font-family:Segoe UI Symbol,Cambria Math,DejaVu Sans,Symbola,Quivira,STIX,Code2000;-webkit-touch-callout:none;cursor:pointer;-webkit-user-select:none;-khtml-user-select:none;-moz-user-select:none;-ms-user-select:none;user-select: none;}text:hover{color:#777;}#reset{font-weight:bold;}</style><marker id="markerStart" markerWidth="8" markerHeight="8" style="overflow:visible;"><circle cx="0" cy="0" r="1.5" style="stroke:none;fill:red;fill-opacity:0.5;"/></marker><marker id="markerEnd" style="overflow:visible;"><circle cx="0" cy="0" r="0.8" style="stroke:none;fill:blue;fill-opacity:0.5;"><animate attributeName="opacity" from="1" to="0" dur="3s" repeatCount="indefinite" /></circle></marker></defs><path d="M23.34,27.56c2.19,0.76,4.95,0.62,6.87,0.41c15.78-1.72,41.52-5.94,50.19-6.72c5.64-0.51,8.15,2.77,7.83,6.31c-0.83,9.35-7.98,45.4-15.67,56.15C67,91.5,63.75,89,59.54,83.94" class="grey" /><path d="M49.81,29.06c0.7,2.01,0.74,3.8,0.37,5.63C46.59,52,36.12,73,16.62,86.88" class="grey" /><path d="M23.34,27.56c2.19,0.76,4.95,0.62,6.87,0.41c15.78-1.72,41.52-5.94,50.19-6.72c5.64-0.51,8.15,2.77,7.83,6.31c-0.83,9.35-7.98,45.4-15.67,56.15C67,91.5,63.75,89,59.54,83.94" class="stroke" stroke-dasharray="150"><animate attributeName="stroke-dashoffset" from="150" to="0" dur="1.8s" begin="0.0s" fill="freeze" /></path><path d="M49.81,29.06c0.7,2.01,0.74,3.8,0.37,5.63C46.59,52,36.12,73,16.62,86.88" class="stroke" stroke-dasharray="150"><set attributeName="opacity" to="0" dur="2.0s" /><animate attributeName="stroke-dashoffset" from="150" to="0" dur="1.8s" begin="2.0s" fill="freeze" /></path></svg>