<svg id="kvg-052f9" class="kanjivg" viewBox="0 0 106 106" width="106" height="106" xmlns="http://www.w3.org/2000/svg" xmlns:xlink="http://www.w3.org/1999/xlink" xml:space="preserve" version="1.1" baseProfile="full"><defs><style type="text/css">path.black{fill:none;stroke:black;stroke-width:5;stroke-linecap:round;stroke-linejoin:round;}path.grey{fill:none;stroke:#ddd;stroke-width:5;stroke-linecap:round;stroke-linejoin:round;}path.stroke{fill:none;stroke:black;stroke-width:5;stroke-linecap:round;stroke-linejoin:round;}text{font-size:16px;font-family:Segoe UI Symbol,Cambria Math,DejaVu Sans,Symbola,Quivira,STIX,Code2000;-webkit-touch-callout:none;cursor:pointer;-webkit-user-select:none;-khtml-user-select:none;-moz-user-select:none;-ms-user-select:none;user-select: none;}text:hover{color:#777;}#reset{font-weight:bold;}</style><marker id="markerStart" markerWidth="8" markerHeight="8" style="overflow:visible;"><circle cx="0" cy="0" r="1.5" style="stroke:none;fill:red;fill-opacity:0.5;"/></marker><marker id="markerEnd" style="overflow:visible;"><circle cx="0" cy="0" r="0.8" style="stroke:none;fill:blue;fill-opacity:0.5;"><animate attributeName="opacity" from="1" to="0" dur="3s" repeatCount="indefinite" /></circle></marker></defs><path d="M38.25,12.25c0.06,0.9,0.13,2.33-0.13,3.63C36.61,23.54,27.91,40.34,16,50.63" class="grey" /><path d="M37.25,29c1.25,0.75,3,1,5,0.5S81,24.75,86,24.5s6,2.5,5.25,7.75s-6.5,45.5-17.5,59.75c-3.3,4.28-5.25,2.5-9-2.25" class="grey" /><path d="M38.25,12.25c0.06,0.9,0.13,2.33-0.13,3.63C36.61,23.54,27.91,40.34,16,50.63" class="stroke" stroke-dasharray="150"><animate attributeName="stroke-dashoffset" from="150" to="0" dur="1.8s" begin="0.0s" fill="freeze" /></path><path d="M37.25,29c1.25,0.75,3,1,5,0.5S81,24.75,86,24.5s6,2.5,5.25,7.75s-6.5,45.5-17.5,59.75c-3.3,4.28-5.25,2.5-9-2.25" class="stroke" stroke-dasharray="150"><set attributeName="opacity" to="0" dur="1.2s" /><animate attributeName="stroke-dashoffset" from="150" to="0" dur="1.8s" begin="1.2s" fill="freeze" /></path></svg>