<svg id="kvg-05315" class="kanjivg" viewBox="0 0 106 106" width="106" height="106" xmlns="http://www.w3.org/2000/svg" xmlns:xlink="http://www.w3.org/1999/xlink" xml:space="preserve" version="1.1" baseProfile="full"><defs><style type="text/css">path.black{fill:none;stroke:black;stroke-width:5;stroke-linecap:round;stroke-linejoin:round;}path.grey{fill:none;stroke:#ddd;stroke-width:5;stroke-linecap:round;stroke-linejoin:round;}path.stroke{fill:none;stroke:black;stroke-width:5;stroke-linecap:round;stroke-linejoin:round;}text{font-size:16px;font-family:Segoe UI Symbol,Cambria Math,DejaVu Sans,Symbola,Quivira,STIX,Code2000;-webkit-touch-callout:none;cursor:pointer;-webkit-user-select:none;-khtml-user-select:none;-moz-user-select:none;-ms-user-select:none;user-select: none;}text:hover{color:#777;}#reset{font-weight:bold;}</style><marker id="markerStart" markerWidth="8" markerHeight="8" style="overflow:visible;"><circle cx="0" cy="0" r="1.5" style="stroke:none;fill:red;fill-opacity:0.5;"/></marker><marker id="markerEnd" style="overflow:visible;"><circle cx="0" cy="0" r="0.8" style="stroke:none;fill:blue;fill-opacity:0.5;"><animate attributeName="opacity" from="1" to="0" dur="3s" repeatCount="indefinite" /></circle></marker></defs><path d="M78.35,26.56c0.4,0.69,0.65,2.69-0.38,3.74C71.32,37.15,48.5,56,27,63" class="grey" /><path d="M38.5,14.25c1.07,1.19,1.15,1.99,1.51,3.57c0.36,1.59,0.36,60.16,0.36,65.14c0,12.79,14.39,10.79,26.64,10.79c9.5,0,17.42-0.67,21-4.25s3.14-7.73,3.5-11.3" class="grey" /><path d="M78.35,26.56c0.4,0.69,0.65,2.69-0.38,3.74C71.32,37.15,48.5,56,27,63" class="stroke" stroke-dasharray="150"><animate attributeName="stroke-dashoffset" from="150" to="0" dur="1.8s" begin="0.0s" fill="freeze" /></path><path d="M38.5,14.25c1.07,1.19,1.15,1.99,1.51,3.57c0.36,1.59,0.36,60.16,0.36,65.14c0,12.79,14.39,10.79,26.64,10.79c9.5,0,17.42-0.67,21-4.25s3.14-7.73,3.5-11.3" class="stroke" stroke-dasharray="150"><set attributeName="opacity" to="0" dur="1.5s" /><animate attributeName="stroke-dashoffset" from="150" to="0" dur="1.8s" begin="1.5s" fill="freeze" /></path></svg>