<svg id="kvg-0571f" class="kanjivg" viewBox="0 0 106 106" width="106" height="106" xmlns="http://www.w3.org/2000/svg" xmlns:xlink="http://www.w3.org/1999/xlink" xml:space="preserve" version="1.1" baseProfile="full"><defs><style type="text/css">path.black{fill:none;stroke:black;stroke-width:5;stroke-linecap:round;stroke-linejoin:round;}path.grey{fill:none;stroke:#ddd;stroke-width:5;stroke-linecap:round;stroke-linejoin:round;}path.stroke{fill:none;stroke:black;stroke-width:5;stroke-linecap:round;stroke-linejoin:round;}text{font-size:16px;font-family:Segoe UI Symbol,Cambria Math,DejaVu Sans,Symbola,Quivira,STIX,Code2000;-webkit-touch-callout:none;cursor:pointer;-webkit-user-select:none;-khtml-user-select:none;-moz-user-select:none;-ms-user-select:none;user-select: none;}text:hover{color:#777;}#reset{font-weight:bold;}</style><marker id="markerStart" markerWidth="8" markerHeight="8" style="overflow:visible;"><circle cx="0" cy="0" r="1.5" style="stroke:none;fill:red;fill-opacity:0.5;"/></marker><marker id="markerEnd" style="overflow:visible;"><circle cx="0" cy="0" r="0.8" style="stroke:none;fill:blue;fill-opacity:0.5;"><animate attributeName="opacity" from="1" to="0" dur="3s" repeatCount="indefinite" /></circle></marker></defs><path d="M26.63,50.89c1.63,0.4,4.64,0.6,6.26,0.4C43.5,50,62.12,48,75.66,46.92c2.71-0.22,4.36,0.19,5.72,0.39" class="grey" /><path d="M52.17,17.37c1.17,1.17,2.02,3.13,2.02,4.64c0,10.25,0.14,61.06,0.14,63.36" class="grey" /><path d="M15.38,87.73c2.12,0.54,6.01,0.73,8.12,0.54C46,86.25,69,84.62,90.34,83.79c3.53-0.14,5.65,0.26,7.41,0.53" class="grey" /><path d="M26.63,50.89c1.63,0.4,4.64,0.6,6.26,0.4C43.5,50,62.12,48,75.66,46.92c2.71-0.22,4.36,0.19,5.72,0.39" class="stroke" stroke-dasharray="150"><animate attributeName="stroke-dashoffset" from="150" to="0" dur="1.8s" begin="0.0s" fill="freeze" /></path><path d="M52.17,17.37c1.17,1.17,2.02,3.13,2.02,4.64c0,10.25,0.14,61.06,0.14,63.36" class="stroke" stroke-dasharray="150"><set attributeName="opacity" to="0" dur="1.4s" /><animate attributeName="stroke-dashoffset" from="150" to="0" dur="1.8s" begin="1.4s" fill="freeze" /></path><path d="M15.38,87.73c2.12,0.54,6.01,0.73,8.12,0.54C46,86.25,69,84.62,90.34,83.79c3.53-0.14,5.65,0.26,7.41,0.53" class="stroke" stroke-dasharray="150"><set attributeName="opacity" to="0" dur="2.9s" /><animate attributeName="stroke-dashoffset" from="150" to="0" dur="1.8s" begin="2.9s" fill="freeze" /></path></svg>