<svg id="kvg-058eb" class="kanjivg" viewBox="0 0 106 106" width="106" height="106" xmlns="http://www.w3.org/2000/svg" xmlns:xlink="http://www.w3.org/1999/xlink" xml:space="preserve" version="1.1" baseProfile="full"><defs><style type="text/css">path.black{fill:none;stroke:black;stroke-width:5;stroke-linecap:round;stroke-linejoin:round;}path.grey{fill:none;stroke:#ddd;stroke-width:5;stroke-linecap:round;stroke-linejoin:round;}path.stroke{fill:none;stroke:black;stroke-width:5;stroke-linecap:round;stroke-linejoin:round;}text{font-size:16px;font-family:Segoe UI Symbol,Cambria Math,DejaVu Sans,Symbola,Quivira,STIX,Code2000;-webkit-touch-callout:none;cursor:pointer;-webkit-user-select:none;-khtml-user-select:none;-moz-user-select:none;-ms-user-select:none;user-select: none;}text:hover{color:#777;}#reset{font-weight:bold;}</style><marker id="markerStart" markerWidth="8" markerHeight="8" style="overflow:visible;"><circle cx="0" cy="0" r="1.5" style="stroke:none;fill:red;fill-opacity:0.5;"/></marker><marker id="markerEnd" style="overflow:visible;"><circle cx="0" cy="0" r="0.8" style="stroke:none;fill:blue;fill-opacity:0.5;"><animate attributeName="opacity" from="1" to="0" dur="3s" repeatCount="indefinite" /></circle></marker></defs><path d="M13.13,54.98c3.87,0.9,7.66,0.43,11.36,0.16c18.76-1.39,44.96-3.08,61.9-3.32c3.22-0.05,6.57,0.08,9.74,0.76" class="grey" /><path d="M52.25,17.25C53.31,18.31,54,19.88,54,21.5c0,1.03,0.25,58.62,0.25,66" class="grey" /><path d="M21.75,89.45c2.73,0.83,5.82,0.54,8.62,0.42c12.73-0.57,33.94-2.04,45.88-2.17c2.97-0.03,5.83,0.21,8.75,0.74" class="grey" /><path d="M13.13,54.98c3.87,0.9,7.66,0.43,11.36,0.16c18.76-1.39,44.96-3.08,61.9-3.32c3.22-0.05,6.57,0.08,9.74,0.76" class="stroke" stroke-dasharray="150"><animate attributeName="stroke-dashoffset" from="150" to="0" dur="1.8s" begin="0.0s" fill="freeze" /></path><path d="M52.25,17.25C53.31,18.31,54,19.88,54,21.5c0,1.03,0.25,58.62,0.25,66" class="stroke" stroke-dasharray="150"><set attributeName="opacity" to="0" dur="1.7s" /><animate attributeName="stroke-dashoffset" from="150" to="0" dur="1.8s" begin="1.7s" fill="freeze" /></path><path d="M21.75,89.45c2.73,0.83,5.82,0.54,8.62,0.42c12.73-0.57,33.94-2.04,45.88-2.17c2.97-0.03,5.83,0.21,8.75,0.74" class="stroke" stroke-dasharray="150"><set attributeName="opacity" to="0" dur="3.4s" /><animate attributeName="stroke-dashoffset" from="150" to="0" dur="1.8s" begin="3.4s" fill="freeze" /></path></svg>