<svg id="kvg-05902" class="kanjivg" viewBox="0 0 106 106" width="106" height="106" xmlns="http://www.w3.org/2000/svg" xmlns:xlink="http://www.w3.org/1999/xlink" xml:space="preserve" version="1.1" baseProfile="full"><defs><style type="text/css">path.black{fill:none;stroke:black;stroke-width:5;stroke-linecap:round;stroke-linejoin:round;}path.grey{fill:none;stroke:#ddd;stroke-width:5;stroke-linecap:round;stroke-linejoin:round;}path.stroke{fill:none;stroke:black;stroke-width:5;stroke-linecap:round;stroke-linejoin:round;}text{font-size:16px;font-family:Segoe UI Symbol,Cambria Math,DejaVu Sans,Symbola,Quivira,STIX,Code2000;-webkit-touch-callout:none;cursor:pointer;-webkit-user-select:none;-khtml-user-select:none;-moz-user-select:none;-ms-user-select:none;user-select: none;}text:hover{color:#777;}#reset{font-weight:bold;}</style><marker id="markerStart" markerWidth="8" markerHeight="8" style="overflow:visible;"><circle cx="0" cy="0" r="1.5" style="stroke:none;fill:red;fill-opacity:0.5;"/></marker><marker id="markerEnd" style="overflow:visible;"><circle cx="0" cy="0" r="0.8" style="stroke:none;fill:blue;fill-opacity:0.5;"><animate attributeName="opacity" from="1" to="0" dur="3s" repeatCount="indefinite" /></circle></marker></defs><path d="M43.56,11.75c0.08,1.09,0.16,2.81-0.15,4.38C41.56,25.35,30.98,45.6,16.5,58" class="grey" /><path d="M38.84,34.02c0.44,0.05,2.81,0.48,4.06,0.34c5.6-0.61,21.35-2.86,27.23-4.41c4.03-1.06,5.18,1.21,4.15,4.09C68.63,49.81,40.17,88.38,15,96.5" class="grey" /><path d="M33.5,40.75c7.5,8.75,41.5,42,51.61,50c3.02,2.39,5.46,3.54,8.39,4.25" class="grey" /><path d="M43.56,11.75c0.08,1.09,0.16,2.81-0.15,4.38C41.56,25.35,30.98,45.6,16.5,58" class="stroke" stroke-dasharray="150"><animate attributeName="stroke-dashoffset" from="150" to="0" dur="1.8s" begin="0.0s" fill="freeze" /></path><path d="M38.84,34.02c0.44,0.05,2.81,0.48,4.06,0.34c5.6-0.61,21.35-2.86,27.23-4.41c4.03-1.06,5.18,1.21,4.15,4.09C68.63,49.81,40.17,88.38,15,96.5" class="stroke" stroke-dasharray="150"><set attributeName="opacity" to="0" dur="1.3s" /><animate attributeName="stroke-dashoffset" from="150" to="0" dur="1.8s" begin="1.3s" fill="freeze" /></path><path d="M33.5,40.75c7.5,8.75,41.5,42,51.61,50c3.02,2.39,5.46,3.54,8.39,4.25" class="stroke" stroke-dasharray="150"><set attributeName="opacity" to="0" dur="3.3s" /><animate attributeName="stroke-dashoffset" from="150" to="0" dur="1.8s" begin="3.3s" fill="freeze" /></path></svg>