<svg id="kvg-05927" class="kanjivg" viewBox="0 0 106 126" width="106" height="106" xmlns="http://www.w3.org/2000/svg" xmlns:xlink="http://www.w3.org/1999/xlink" xml:space="preserve" version="1.1" baseProfile="full"><defs><style type="text/css">path.black{fill:none;stroke:black;stroke-width:5;stroke-linecap:round;stroke-linejoin:round;}path.grey{fill:none;stroke:#ddd;stroke-width:5;stroke-linecap:round;stroke-linejoin:round;}path.stroke{fill:none;stroke:black;stroke-width:5;stroke-linecap:round;stroke-linejoin:round;}text{font-size:16px;font-family:Segoe UI Symbol,Cambria Math,DejaVu Sans,Symbola,Quivira,STIX,Code2000;-webkit-touch-callout:none;cursor:pointer;-webkit-user-select:none;-khtml-user-select:none;-moz-user-select:none;-ms-user-select:none;user-select: none;}text:hover{color:#777;}#reset{font-weight:bold;}</style><marker id="markerStart" markerWidth="8" markerHeight="8" style="overflow:visible;"><circle cx="0" cy="0" r="1.5" style="stroke:none;fill:red;fill-opacity:0.5;"/></marker><marker id="markerEnd" style="overflow:visible;"><circle cx="0" cy="0" r="0.8" style="stroke:none;fill:blue;fill-opacity:0.5;"><animate attributeName="opacity" from="1" to="0" dur="3s" repeatCount="indefinite" /></circle></marker></defs><path d="M19.38,48.25c1.49,0.51,5.03,0.89,7.6,0.49C41.12,46.5,63,43,77.19,42.44c2.7-0.11,4.87-0.06,7.31,0.33" class="grey" /><path d="M49.5,18c0.88,2.12,1.03,4.16,0.99,6.32C50,57,37.75,81.12,18,91.75" class="grey" /><path d="M49.5,46c9,10.5,28.5,36.25,37.49,43.28c3.06,2.39,5.62,3.75,7.01,3.97" class="grey" /><path d="M19.38,48.25c1.49,0.51,5.03,0.89,7.6,0.49C41.12,46.5,63,43,77.19,42.44c2.7-0.11,4.87-0.06,7.31,0.33" class="stroke" stroke-dasharray="150"><animate attributeName="stroke-dashoffset" from="150" to="0" dur="1.8s" begin="0.0s" fill="freeze" /></path><path d="M49.5,18c0.88,2.12,1.03,4.16,0.99,6.32C50,57,37.75,81.12,18,91.75" class="stroke" stroke-dasharray="150"><set attributeName="opacity" to="0" dur="1.5s" /><animate attributeName="stroke-dashoffset" from="150" to="0" dur="1.8s" begin="1.5s" fill="freeze" /></path><path d="M49.5,46c9,10.5,28.5,36.25,37.49,43.28c3.06,2.39,5.62,3.75,7.01,3.97" class="stroke" stroke-dasharray="150"><set attributeName="opacity" to="0" dur="3.2s" /><animate attributeName="stroke-dashoffset" from="150" to="0" dur="1.8s" begin="3.2s" fill="freeze" /></path></svg>