<svg id="kvg-05929-Kaisho" class="kanjivg" viewBox="0 0 106 126" width="106" height="106" xmlns="http://www.w3.org/2000/svg" xmlns:xlink="http://www.w3.org/1999/xlink" xml:space="preserve" version="1.1" baseProfile="full"><defs><style type="text/css">path.black{fill:none;stroke:black;stroke-width:5;stroke-linecap:round;stroke-linejoin:round;}path.grey{fill:none;stroke:#ddd;stroke-width:5;stroke-linecap:round;stroke-linejoin:round;}path.stroke{fill:none;stroke:black;stroke-width:5;stroke-linecap:round;stroke-linejoin:round;}text{font-size:16px;font-family:Segoe UI Symbol,Cambria Math,DejaVu Sans,Symbola,Quivira,STIX,Code2000;-webkit-touch-callout:none;cursor:pointer;-webkit-user-select:none;-khtml-user-select:none;-moz-user-select:none;-ms-user-select:none;user-select: none;}text:hover{color:#777;}#reset{font-weight:bold;}</style><marker id="markerStart" markerWidth="8" markerHeight="8" style="overflow:visible;"><circle cx="0" cy="0" r="1.5" style="stroke:none;fill:red;fill-opacity:0.5;"/></marker><marker id="markerEnd" style="overflow:visible;"><circle cx="0" cy="0" r="0.8" style="stroke:none;fill:blue;fill-opacity:0.5;"><animate attributeName="opacity" from="1" to="0" dur="3s" repeatCount="indefinite" /></circle></marker></defs><path d="M26.63,25.58c1.19,0.46,3.38,0.58,4.57,0.46c12.3-1.28,32.8-4.78,43.51-5.75c1.98-0.18,3.18,0.22,4.17,0.45" class="grey" /><path d="M20.81,51.5c1,0.35,4.14,0.57,5.23,0.48C38.7,51,69.12,47.25,80.01,46.95c1.38-0.04,3.89,0.05,6.43,0.73" class="grey" /><path d="M50.32,24.75c0.68,1,1.3,3.43,1.29,5.37c-0.26,33.52-12.96,51.21-33.86,61.5" class="grey" /><path d="M50.1,51.39c9.19,9.19,29.1,30.85,38.27,37c3.12,2.09,4.21,2.4,5.63,2.6" class="grey" /><path d="M26.63,25.58c1.19,0.46,3.38,0.58,4.57,0.46c12.3-1.28,32.8-4.78,43.51-5.75c1.98-0.18,3.18,0.22,4.17,0.45" class="stroke" stroke-dasharray="150"><animate attributeName="stroke-dashoffset" from="150" to="0" dur="1.8s" begin="0.0s" fill="freeze" /></path><path d="M20.81,51.5c1,0.35,4.14,0.57,5.23,0.48C38.7,51,69.12,47.25,80.01,46.95c1.38-0.04,3.89,0.05,6.43,0.73" class="stroke" stroke-dasharray="150"><set attributeName="opacity" to="0" dur="1.3s" /><animate attributeName="stroke-dashoffset" from="150" to="0" dur="1.8s" begin="1.3s" fill="freeze" /></path><path d="M50.32,24.75c0.68,1,1.3,3.43,1.29,5.37c-0.26,33.52-12.96,51.21-33.86,61.5" class="stroke" stroke-dasharray="150"><set attributeName="opacity" to="0" dur="2.8s" /><animate attributeName="stroke-dashoffset" from="150" to="0" dur="1.8s" begin="2.8s" fill="freeze" /></path><path d="M50.1,51.39c9.19,9.19,29.1,30.85,38.27,37c3.12,2.09,4.21,2.4,5.63,2.6" class="stroke" stroke-dasharray="150"><set attributeName="opacity" to="0" dur="4.5s" /><animate attributeName="stroke-dashoffset" from="150" to="0" dur="1.8s" begin="4.5s" fill="freeze" /></path></svg>