<svg id="kvg-05973" class="kanjivg" viewBox="0 0 106 106" width="106" height="106" xmlns="http://www.w3.org/2000/svg" xmlns:xlink="http://www.w3.org/1999/xlink" xml:space="preserve" version="1.1" baseProfile="full"><defs><style type="text/css">path.black{fill:none;stroke:black;stroke-width:5;stroke-linecap:round;stroke-linejoin:round;}path.grey{fill:none;stroke:#ddd;stroke-width:5;stroke-linecap:round;stroke-linejoin:round;}path.stroke{fill:none;stroke:black;stroke-width:5;stroke-linecap:round;stroke-linejoin:round;}text{font-size:16px;font-family:Segoe UI Symbol,Cambria Math,DejaVu Sans,Symbola,Quivira,STIX,Code2000;-webkit-touch-callout:none;cursor:pointer;-webkit-user-select:none;-khtml-user-select:none;-moz-user-select:none;-ms-user-select:none;user-select: none;}text:hover{color:#777;}#reset{font-weight:bold;}</style><marker id="markerStart" markerWidth="8" markerHeight="8" style="overflow:visible;"><circle cx="0" cy="0" r="1.5" style="stroke:none;fill:red;fill-opacity:0.5;"/></marker><marker id="markerEnd" style="overflow:visible;"><circle cx="0" cy="0" r="0.8" style="stroke:none;fill:blue;fill-opacity:0.5;"><animate attributeName="opacity" from="1" to="0" dur="3s" repeatCount="indefinite" /></circle></marker></defs><path d="M53.21,18.37c0.54,2.13,0.26,3.41-0.25,5.25C50.38,33,42.62,52.75,35.75,64c-1.39,2.27-1,3.5,1,3.5c11.63,0,28.46,7.48,38.83,16.41c2.56,2.21,4.68,4.51,6.17,6.84" class="grey" /><path d="M69.62,42.18c0.5,1.7,0.63,3.57-0.01,5.93C65.93,61.8,54.61,81.6,27,91.75" class="grey" /><path d="M13.88,50.43c3.48,1.39,7.26,0.85,10.88,0.53c19.52-1.7,42.04-4.08,60.61-4.63c3.66-0.11,7.21-0.1,10.62,1.42" class="grey" /><path d="M53.21,18.37c0.54,2.13,0.26,3.41-0.25,5.25C50.38,33,42.62,52.75,35.75,64c-1.39,2.27-1,3.5,1,3.5c11.63,0,28.46,7.48,38.83,16.41c2.56,2.21,4.68,4.51,6.17,6.84" class="stroke" stroke-dasharray="150"><animate attributeName="stroke-dashoffset" from="150" to="0" dur="1.8s" begin="0.0s" fill="freeze" /></path><path d="M69.62,42.18c0.5,1.7,0.63,3.57-0.01,5.93C65.93,61.8,54.61,81.6,27,91.75" class="stroke" stroke-dasharray="150"><set attributeName="opacity" to="0" dur="1.9s" /><animate attributeName="stroke-dashoffset" from="150" to="0" dur="1.8s" begin="1.9s" fill="freeze" /></path><path d="M13.88,50.43c3.48,1.39,7.26,0.85,10.88,0.53c19.52-1.7,42.04-4.08,60.61-4.63c3.66-0.11,7.21-0.1,10.62,1.42" class="stroke" stroke-dasharray="150"><set attributeName="opacity" to="0" dur="3.4s" /><animate attributeName="stroke-dashoffset" from="150" to="0" dur="1.8s" begin="3.4s" fill="freeze" /></path></svg>