<svg id="kvg-05b57" class="kanjivg" viewBox="0 0 106 106" width="106" height="106" xmlns="http://www.w3.org/2000/svg" xmlns:xlink="http://www.w3.org/1999/xlink" xml:space="preserve" version="1.1" baseProfile="full"><defs><style type="text/css">path.black{fill:none;stroke:black;stroke-width:5;stroke-linecap:round;stroke-linejoin:round;}path.grey{fill:none;stroke:#ddd;stroke-width:5;stroke-linecap:round;stroke-linejoin:round;}path.stroke{fill:none;stroke:black;stroke-width:5;stroke-linecap:round;stroke-linejoin:round;}text{font-size:16px;font-family:Segoe UI Symbol,Cambria Math,DejaVu Sans,Symbola,Quivira,STIX,Code2000;-webkit-touch-callout:none;cursor:pointer;-webkit-user-select:none;-khtml-user-select:none;-moz-user-select:none;-ms-user-select:none;user-select: none;}text:hover{color:#777;}#reset{font-weight:bold;}</style><marker id="markerStart" markerWidth="8" markerHeight="8" style="overflow:visible;"><circle cx="0" cy="0" r="1.5" style="stroke:none;fill:red;fill-opacity:0.5;"/></marker><marker id="markerEnd" style="overflow:visible;"><circle cx="0" cy="0" r="0.8" style="stroke:none;fill:blue;fill-opacity:0.5;"><animate attributeName="opacity" from="1" to="0" dur="3s" repeatCount="indefinite" /></circle></marker></defs><path d="M52.73,9.5c1.01,1.01,1.75,2.25,1.75,3.76c0,3.53-0.09,5.73-0.1,8.95" class="grey" /><path d="M21.88,24c0,3.37-4.06,14.25-5.62,16.5" class="grey" /><path d="M24.07,26.66c16.68-1.91,42.18-5.28,63-5.78c10.95-0.26,4.68,5.37,0.52,8.4" class="grey" /><path d="M34.91,36.19c2.09,1.06,4.35,1.5,6.87,1.26c4.73-0.45,19.99-2.86,26.18-4.24c3.17-0.71,4.92,0.67,2.1,3.7c-2.15,2.31-9.34,9.46-14.25,12.73" class="grey" /><path d="M52.71,51.03c5.42,5.22,9.29,26.84,3.67,43.18c-2.57,7.47-8.5,2.78-10.58,0.81" class="grey" /><path d="M14.38,63.51c3.88,1.24,8.65,0.84,12.38,0.47c15.18-1.5,43-4.92,59.75-5.41c3.45-0.1,7.13-0.23,10.37,1.15" class="grey" /><path d="M52.73,9.5c1.01,1.01,1.75,2.25,1.75,3.76c0,3.53-0.09,5.73-0.1,8.95" class="stroke" stroke-dasharray="150"><animate attributeName="stroke-dashoffset" from="150" to="0" dur="1.8s" begin="0.0s" fill="freeze" /></path><path d="M21.88,24c0,3.37-4.06,14.25-5.62,16.5" class="stroke" stroke-dasharray="150"><set attributeName="opacity" to="0" dur="0.9s" /><animate attributeName="stroke-dashoffset" from="150" to="0" dur="1.8s" begin="0.9s" fill="freeze" /></path><path d="M24.07,26.66c16.68-1.91,42.18-5.28,63-5.78c10.95-0.26,4.68,5.37,0.52,8.4" class="stroke" stroke-dasharray="150"><set attributeName="opacity" to="0" dur="1.8s" /><animate attributeName="stroke-dashoffset" from="150" to="0" dur="1.8s" begin="1.8s" fill="freeze" /></path><path d="M34.91,36.19c2.09,1.06,4.35,1.5,6.87,1.26c4.73-0.45,19.99-2.86,26.18-4.24c3.17-0.71,4.92,0.67,2.1,3.7c-2.15,2.31-9.34,9.46-14.25,12.73" class="stroke" stroke-dasharray="150"><set attributeName="opacity" to="0" dur="3.5s" /><animate attributeName="stroke-dashoffset" from="150" to="0" dur="1.8s" begin="3.5s" fill="freeze" /></path><path d="M52.71,51.03c5.42,5.22,9.29,26.84,3.67,43.18c-2.57,7.47-8.5,2.78-10.58,0.81" class="stroke" stroke-dasharray="150"><set attributeName="opacity" to="0" dur="4.9s" /><animate attributeName="stroke-dashoffset" from="150" to="0" dur="1.8s" begin="4.9s" fill="freeze" /></path><path d="M14.38,63.51c3.88,1.24,8.65,0.84,12.38,0.47c15.18-1.5,43-4.92,59.75-5.41c3.45-0.1,7.13-0.23,10.37,1.15" class="stroke" stroke-dasharray="150"><set attributeName="opacity" to="0" dur="6.300000000000001s" /><animate attributeName="stroke-dashoffset" from="150" to="0" dur="1.8s" begin="6.300000000000001s" fill="freeze" /></path></svg>