<svg id="kvg-05b66" class="kanjivg" viewBox="0 0 106 106" width="106" height="106" xmlns="http://www.w3.org/2000/svg" xmlns:xlink="http://www.w3.org/1999/xlink" xml:space="preserve" version="1.1" baseProfile="full"><defs><style type="text/css">path.black{fill:none;stroke:black;stroke-width:5;stroke-linecap:round;stroke-linejoin:round;}path.grey{fill:none;stroke:#ddd;stroke-width:5;stroke-linecap:round;stroke-linejoin:round;}path.stroke{fill:none;stroke:black;stroke-width:5;stroke-linecap:round;stroke-linejoin:round;}text{font-size:16px;font-family:Segoe UI Symbol,Cambria Math,DejaVu Sans,Symbola,Quivira,STIX,Code2000;-webkit-touch-callout:none;cursor:pointer;-webkit-user-select:none;-khtml-user-select:none;-moz-user-select:none;-ms-user-select:none;user-select: none;}text:hover{color:#777;}#reset{font-weight:bold;}</style><marker id="markerStart" markerWidth="8" markerHeight="8" style="overflow:visible;"><circle cx="0" cy="0" r="1.5" style="stroke:none;fill:red;fill-opacity:0.5;"/></marker><marker id="markerEnd" style="overflow:visible;"><circle cx="0" cy="0" r="0.8" style="stroke:none;fill:blue;fill-opacity:0.5;"><animate attributeName="opacity" from="1" to="0" dur="3s" repeatCount="indefinite" /></circle></marker></defs><path d="M29.5,17.25c3.5,3,6.5,7.25,7.75,9.75" class="grey" /><path d="M49,12c1.25,2,4.75,8.25,5.25,11.5" class="grey" /><path d="M75,11c0.25,1.75-0.12,2.75-0.75,4.25c-1.29,3.1-4.25,7.38-6.5,9.75" class="grey" /><path d="M21.25,33.75c-0.12,4.75-2,12.5-3.75,16.25" class="grey" /><path d="M23.5,36.5c17-1.62,42.38-5.5,60-5.75c9.5-0.13,4.12,5.12,0,9" class="grey" /><path d="M37.25,46.5c1,0.25,3.75,0.25,5.5-0.25s18.25-4,20-4s2.75,0.75,1,2.25S54.5,53.5,53,54.75" class="grey" /><path d="M50.75,55.75c4,8.75,7.18,24.67,1.75,38c-2.75,6.75-7.75,1.25-9.75-2" class="grey" /><path d="M15.75,67.75c1.75,1,4.64,1.36,7.5,1c15.88-2,44.43-6.25,61.37-5.5c2.5,0.11,4.72,0.25,6.39,1" class="grey" /><path d="M29.5,17.25c3.5,3,6.5,7.25,7.75,9.75" class="stroke" stroke-dasharray="150"><animate attributeName="stroke-dashoffset" from="150" to="0" dur="1.8s" begin="0.0s" fill="freeze" /></path><path d="M49,12c1.25,2,4.75,8.25,5.25,11.5" class="stroke" stroke-dasharray="150"><set attributeName="opacity" to="0" dur="0.9s" /><animate attributeName="stroke-dashoffset" from="150" to="0" dur="1.8s" begin="0.9s" fill="freeze" /></path><path d="M75,11c0.25,1.75-0.12,2.75-0.75,4.25c-1.29,3.1-4.25,7.38-6.5,9.75" class="stroke" stroke-dasharray="150"><set attributeName="opacity" to="0" dur="1.8s" /><animate attributeName="stroke-dashoffset" from="150" to="0" dur="1.8s" begin="1.8s" fill="freeze" /></path><path d="M21.25,33.75c-0.12,4.75-2,12.5-3.75,16.25" class="stroke" stroke-dasharray="150"><set attributeName="opacity" to="0" dur="2.7s" /><animate attributeName="stroke-dashoffset" from="150" to="0" dur="1.8s" begin="2.7s" fill="freeze" /></path><path d="M23.5,36.5c17-1.62,42.38-5.5,60-5.75c9.5-0.13,4.12,5.12,0,9" class="stroke" stroke-dasharray="150"><set attributeName="opacity" to="0" dur="3.6s" /><animate attributeName="stroke-dashoffset" from="150" to="0" dur="1.8s" begin="3.6s" fill="freeze" /></path><path d="M37.25,46.5c1,0.25,3.75,0.25,5.5-0.25s18.25-4,20-4s2.75,0.75,1,2.25S54.5,53.5,53,54.75" class="stroke" stroke-dasharray="150"><set attributeName="opacity" to="0" dur="5.3s" /><animate attributeName="stroke-dashoffset" from="150" to="0" dur="1.8s" begin="5.3s" fill="freeze" /></path><path d="M50.75,55.75c4,8.75,7.18,24.67,1.75,38c-2.75,6.75-7.75,1.25-9.75-2" class="stroke" stroke-dasharray="150"><set attributeName="opacity" to="0" dur="6.4s" /><animate attributeName="stroke-dashoffset" from="150" to="0" dur="1.8s" begin="6.4s" fill="freeze" /></path><path d="M15.75,67.75c1.75,1,4.64,1.36,7.5,1c15.88-2,44.43-6.25,61.37-5.5c2.5,0.11,4.72,0.25,6.39,1" class="stroke" stroke-dasharray="150"><set attributeName="opacity" to="0" dur="7.7s" /><animate attributeName="stroke-dashoffset" from="150" to="0" dur="1.8s" begin="7.7s" fill="freeze" /></path></svg>