<svg id="kvg-05bf8" class="kanjivg" viewBox="0 0 106 106" width="106" height="106" xmlns="http://www.w3.org/2000/svg" xmlns:xlink="http://www.w3.org/1999/xlink" xml:space="preserve" version="1.1" baseProfile="full"><defs><style type="text/css">path.black{fill:none;stroke:black;stroke-width:5;stroke-linecap:round;stroke-linejoin:round;}path.grey{fill:none;stroke:#ddd;stroke-width:5;stroke-linecap:round;stroke-linejoin:round;}path.stroke{fill:none;stroke:black;stroke-width:5;stroke-linecap:round;stroke-linejoin:round;}text{font-size:16px;font-family:Segoe UI Symbol,Cambria Math,DejaVu Sans,Symbola,Quivira,STIX,Code2000;-webkit-touch-callout:none;cursor:pointer;-webkit-user-select:none;-khtml-user-select:none;-moz-user-select:none;-ms-user-select:none;user-select: none;}text:hover{color:#777;}#reset{font-weight:bold;}</style><marker id="markerStart" markerWidth="8" markerHeight="8" style="overflow:visible;"><circle cx="0" cy="0" r="1.5" style="stroke:none;fill:red;fill-opacity:0.5;"/></marker><marker id="markerEnd" style="overflow:visible;"><circle cx="0" cy="0" r="0.8" style="stroke:none;fill:blue;fill-opacity:0.5;"><animate attributeName="opacity" from="1" to="0" dur="3s" repeatCount="indefinite" /></circle></marker></defs><path d="M11.38,40.67c3.62,1.08,8.48,0.79,11.88,0.4c21.24-2.45,43.24-4.7,63.24-6.1c3.86-0.27,8.38-0.1,11.63,0.59" class="grey" /><path d="M66.27,11.83c1.08,1.08,1.76,2.42,1.76,4.52c0,20.4-0.01,69.16-0.01,74.12c0,13.28-7.52,1.78-9.71,0.25" class="grey" /><path d="M40.38,51.62c3.65,2.87,9.42,11.78,10.33,16.24" class="grey" /><path d="M11.38,40.67c3.62,1.08,8.48,0.79,11.88,0.4c21.24-2.45,43.24-4.7,63.24-6.1c3.86-0.27,8.38-0.1,11.63,0.59" class="stroke" stroke-dasharray="150"><animate attributeName="stroke-dashoffset" from="150" to="0" dur="1.8s" begin="0.0s" fill="freeze" /></path><path d="M66.27,11.83c1.08,1.08,1.76,2.42,1.76,4.52c0,20.4-0.01,69.16-0.01,74.12c0,13.28-7.52,1.78-9.71,0.25" class="stroke" stroke-dasharray="150"><set attributeName="opacity" to="0" dur="1.7s" /><animate attributeName="stroke-dashoffset" from="150" to="0" dur="1.8s" begin="1.7s" fill="freeze" /></path><path d="M40.38,51.62c3.65,2.87,9.42,11.78,10.33,16.24" class="stroke" stroke-dasharray="150"><set attributeName="opacity" to="0" dur="3.5s" /><animate attributeName="stroke-dashoffset" from="150" to="0" dur="1.8s" begin="3.5s" fill="freeze" /></path></svg>