<svg id="kvg-05c38" class="kanjivg" viewBox="0 0 106 106" width="106" height="106" xmlns="http://www.w3.org/2000/svg" xmlns:xlink="http://www.w3.org/1999/xlink" xml:space="preserve" version="1.1" baseProfile="full"><defs><style type="text/css">path.black{fill:none;stroke:black;stroke-width:5;stroke-linecap:round;stroke-linejoin:round;}path.grey{fill:none;stroke:#ddd;stroke-width:5;stroke-linecap:round;stroke-linejoin:round;}path.stroke{fill:none;stroke:black;stroke-width:5;stroke-linecap:round;stroke-linejoin:round;}text{font-size:16px;font-family:Segoe UI Symbol,Cambria Math,DejaVu Sans,Symbola,Quivira,STIX,Code2000;-webkit-touch-callout:none;cursor:pointer;-webkit-user-select:none;-khtml-user-select:none;-moz-user-select:none;-ms-user-select:none;user-select: none;}text:hover{color:#777;}#reset{font-weight:bold;}</style><marker id="markerStart" markerWidth="8" markerHeight="8" style="overflow:visible;"><circle cx="0" cy="0" r="1.5" style="stroke:none;fill:red;fill-opacity:0.5;"/></marker><marker id="markerEnd" style="overflow:visible;"><circle cx="0" cy="0" r="0.8" style="stroke:none;fill:blue;fill-opacity:0.5;"><animate attributeName="opacity" from="1" to="0" dur="3s" repeatCount="indefinite" /></circle></marker></defs><path d="M20.5,18.25c2,0.75,5.88,1.42,8.01,1.27c11.46-0.84,46.12-3.57,50.72-3.87c2.27-0.15,3.27,1.85,3.27,4.1c0,3.78-1.25,9.5-3,17.5" class="grey" /><path d="M27,41c5.75-0.25,48.25-3.25,54.25-3.5" class="grey" /><path d="M26.75,20.5c0,4,0.3,18.75,0.25,22.5c-0.25,20.5-4,36.5-14,50.5" class="grey" /><path d="M20.5,18.25c2,0.75,5.88,1.42,8.01,1.27c11.46-0.84,46.12-3.57,50.72-3.87c2.27-0.15,3.27,1.85,3.27,4.1c0,3.78-1.25,9.5-3,17.5" class="stroke" stroke-dasharray="150"><animate attributeName="stroke-dashoffset" from="150" to="0" dur="1.8s" begin="0.0s" fill="freeze" /></path><path d="M27,41c5.75-0.25,48.25-3.25,54.25-3.5" class="stroke" stroke-dasharray="150"><set attributeName="opacity" to="0" dur="1.7s" /><animate attributeName="stroke-dashoffset" from="150" to="0" dur="1.8s" begin="1.7s" fill="freeze" /></path><path d="M26.75,20.5c0,4,0.3,18.75,0.25,22.5c-0.25,20.5-4,36.5-14,50.5" class="stroke" stroke-dasharray="150"><set attributeName="opacity" to="0" dur="3.0s" /><animate attributeName="stroke-dashoffset" from="150" to="0" dur="1.8s" begin="3.0s" fill="freeze" /></path></svg>