<svg id="kvg-05c6e" class="kanjivg" viewBox="0 0 106 106" width="106" height="106" xmlns="http://www.w3.org/2000/svg" xmlns:xlink="http://www.w3.org/1999/xlink" xml:space="preserve" version="1.1" baseProfile="full"><defs><style type="text/css">path.black{fill:none;stroke:black;stroke-width:5;stroke-linecap:round;stroke-linejoin:round;}path.grey{fill:none;stroke:#ddd;stroke-width:5;stroke-linecap:round;stroke-linejoin:round;}path.stroke{fill:none;stroke:black;stroke-width:5;stroke-linecap:round;stroke-linejoin:round;}text{font-size:16px;font-family:Segoe UI Symbol,Cambria Math,DejaVu Sans,Symbola,Quivira,STIX,Code2000;-webkit-touch-callout:none;cursor:pointer;-webkit-user-select:none;-khtml-user-select:none;-moz-user-select:none;-ms-user-select:none;user-select: none;}text:hover{color:#777;}#reset{font-weight:bold;}</style><marker id="markerStart" markerWidth="8" markerHeight="8" style="overflow:visible;"><circle cx="0" cy="0" r="1.5" style="stroke:none;fill:red;fill-opacity:0.5;"/></marker><marker id="markerEnd" style="overflow:visible;"><circle cx="0" cy="0" r="0.8" style="stroke:none;fill:blue;fill-opacity:0.5;"><animate attributeName="opacity" from="1" to="0" dur="3s" repeatCount="indefinite" /></circle></marker></defs><path d="M22.6,33.16c0.9,0.46,2.3,1.71,2.3,4.41c0,3.13-1.15,17.8-1.65,23.3c-0.26,2.84-1,4.5,3.31,4.16c12.59-0.99,48.44-5.16,59.7-6.42" class="grey" /><path d="M86.48,27.75c0.77,0.62,2.42,2.62,2.3,3.91c-0.54,5.96-1.79,21.71-2.73,32.08" class="grey" /><path d="M53.07,10.12c1.18,1,2.25,3,2.25,4.63c0,13.95,0.05,22.37-0.18,35.38c-0.4,23.24-7.4,40.99-27.59,51.46" class="grey" /><path d="M22.6,33.16c0.9,0.46,2.3,1.71,2.3,4.41c0,3.13-1.15,17.8-1.65,23.3c-0.26,2.84-1,4.5,3.31,4.16c12.59-0.99,48.44-5.16,59.7-6.42" class="stroke" stroke-dasharray="150"><animate attributeName="stroke-dashoffset" from="150" to="0" dur="1.8s" begin="0.0s" fill="freeze" /></path><path d="M86.48,27.75c0.77,0.62,2.42,2.62,2.3,3.91c-0.54,5.96-1.79,21.71-2.73,32.08" class="stroke" stroke-dasharray="150"><set attributeName="opacity" to="0" dur="1.8s" /><animate attributeName="stroke-dashoffset" from="150" to="0" dur="1.8s" begin="1.8s" fill="freeze" /></path><path d="M53.07,10.12c1.18,1,2.25,3,2.25,4.63c0,13.95,0.05,22.37-0.18,35.38c-0.4,23.24-7.4,40.99-27.59,51.46" class="stroke" stroke-dasharray="150"><set attributeName="opacity" to="0" dur="2.8s" /><animate attributeName="stroke-dashoffset" from="150" to="0" dur="1.8s" begin="2.8s" fill="freeze" /></path></svg>