<svg id="kvg-05ddd" class="kanjivg" viewBox="0 0 106 106" width="106" height="106" xmlns="http://www.w3.org/2000/svg" xmlns:xlink="http://www.w3.org/1999/xlink" xml:space="preserve" version="1.1" baseProfile="full"><defs><style type="text/css">path.black{fill:none;stroke:black;stroke-width:5;stroke-linecap:round;stroke-linejoin:round;}path.grey{fill:none;stroke:#ddd;stroke-width:5;stroke-linecap:round;stroke-linejoin:round;}path.stroke{fill:none;stroke:black;stroke-width:5;stroke-linecap:round;stroke-linejoin:round;}text{font-size:16px;font-family:Segoe UI Symbol,Cambria Math,DejaVu Sans,Symbola,Quivira,STIX,Code2000;-webkit-touch-callout:none;cursor:pointer;-webkit-user-select:none;-khtml-user-select:none;-moz-user-select:none;-ms-user-select:none;user-select: none;}text:hover{color:#777;}#reset{font-weight:bold;}</style><marker id="markerStart" markerWidth="8" markerHeight="8" style="overflow:visible;"><circle cx="0" cy="0" r="1.5" style="stroke:none;fill:red;fill-opacity:0.5;"/></marker><marker id="markerEnd" style="overflow:visible;"><circle cx="0" cy="0" r="0.8" style="stroke:none;fill:blue;fill-opacity:0.5;"><animate attributeName="opacity" from="1" to="0" dur="3s" repeatCount="indefinite" /></circle></marker></defs><path d="M27.22,25.68c0.91,1.57,1.18,3.45,1.19,5.37C28.5,43.5,28.5,69,17.39,84.15" class="grey" /><path d="M53.75,23.63c0.94,0.94,1.41,2.37,1.41,3.9c0,0.58-0.01,28.48-0.08,41.71c-0.02,3.31-0.04,5.74-0.06,6.63" class="grey" /><path d="M85.56,15.63c1.09,1.09,1.76,2.62,1.76,4.25c0,0.74,0.23,46.86,0.09,66.12c-0.03,4.31-0.06,7.61-0.09,8.63" class="grey" /><path d="M27.22,25.68c0.91,1.57,1.18,3.45,1.19,5.37C28.5,43.5,28.5,69,17.39,84.15" class="stroke" stroke-dasharray="150"><animate attributeName="stroke-dashoffset" from="150" to="0" dur="1.8s" begin="0.0s" fill="freeze" /></path><path d="M53.75,23.63c0.94,0.94,1.41,2.37,1.41,3.9c0,0.58-0.01,28.48-0.08,41.71c-0.02,3.31-0.04,5.74-0.06,6.63" class="stroke" stroke-dasharray="150"><set attributeName="opacity" to="0" dur="1.5s" /><animate attributeName="stroke-dashoffset" from="150" to="0" dur="1.8s" begin="1.5s" fill="freeze" /></path><path d="M85.56,15.63c1.09,1.09,1.76,2.62,1.76,4.25c0,0.74,0.23,46.86,0.09,66.12c-0.03,4.31-0.06,7.61-0.09,8.63" class="stroke" stroke-dasharray="150"><set attributeName="opacity" to="0" dur="2.8s" /><animate attributeName="stroke-dashoffset" from="150" to="0" dur="1.8s" begin="2.8s" fill="freeze" /></path></svg>