<svg id="kvg-05de5" class="kanjivg" viewBox="0 0 106 106" width="106" height="106" xmlns="http://www.w3.org/2000/svg" xmlns:xlink="http://www.w3.org/1999/xlink" xml:space="preserve" version="1.1" baseProfile="full"><defs><style type="text/css">path.black{fill:none;stroke:black;stroke-width:5;stroke-linecap:round;stroke-linejoin:round;}path.grey{fill:none;stroke:#ddd;stroke-width:5;stroke-linecap:round;stroke-linejoin:round;}path.stroke{fill:none;stroke:black;stroke-width:5;stroke-linecap:round;stroke-linejoin:round;}text{font-size:16px;font-family:Segoe UI Symbol,Cambria Math,DejaVu Sans,Symbola,Quivira,STIX,Code2000;-webkit-touch-callout:none;cursor:pointer;-webkit-user-select:none;-khtml-user-select:none;-moz-user-select:none;-ms-user-select:none;user-select: none;}text:hover{color:#777;}#reset{font-weight:bold;}</style><marker id="markerStart" markerWidth="8" markerHeight="8" style="overflow:visible;"><circle cx="0" cy="0" r="1.5" style="stroke:none;fill:red;fill-opacity:0.5;"/></marker><marker id="markerEnd" style="overflow:visible;"><circle cx="0" cy="0" r="0.8" style="stroke:none;fill:blue;fill-opacity:0.5;"><animate attributeName="opacity" from="1" to="0" dur="3s" repeatCount="indefinite" /></circle></marker></defs><path d="M28.25,31.97c2.28,0.53,4.93,0.8,7.34,0.53c12.41-1.38,27.81-4,41.59-4.54c2.4-0.09,4.58,0.1,6.56,0.54" class="grey" /><path d="M52.87,32.75c1.25,1.25,1.77,3.03,1.77,5.3c0,7.2-0.07,32.83-0.07,41.45" class="grey" /><path d="M15.5,83.05c2.26,0.33,5.6,0.75,8.84,0.51c17.03-1.3,43.16-4.3,60.65-5.03c3.84-0.16,8.46,0.53,10.38,1.03" class="grey" /><path d="M28.25,31.97c2.28,0.53,4.93,0.8,7.34,0.53c12.41-1.38,27.81-4,41.59-4.54c2.4-0.09,4.58,0.1,6.56,0.54" class="stroke" stroke-dasharray="150"><animate attributeName="stroke-dashoffset" from="150" to="0" dur="1.8s" begin="0.0s" fill="freeze" /></path><path d="M52.87,32.75c1.25,1.25,1.77,3.03,1.77,5.3c0,7.2-0.07,32.83-0.07,41.45" class="stroke" stroke-dasharray="150"><set attributeName="opacity" to="0" dur="1.4s" /><animate attributeName="stroke-dashoffset" from="150" to="0" dur="1.8s" begin="1.4s" fill="freeze" /></path><path d="M15.5,83.05c2.26,0.33,5.6,0.75,8.84,0.51c17.03-1.3,43.16-4.3,60.65-5.03c3.84-0.16,8.46,0.53,10.38,1.03" class="stroke" stroke-dasharray="150"><set attributeName="opacity" to="0" dur="2.5999999999999996s" /><animate attributeName="stroke-dashoffset" from="150" to="0" dur="1.8s" begin="2.5999999999999996s" fill="freeze" /></path></svg>