<svg id="kvg-05df1" class="kanjivg" viewBox="0 0 106 106" width="106" height="106" xmlns="http://www.w3.org/2000/svg" xmlns:xlink="http://www.w3.org/1999/xlink" xml:space="preserve" version="1.1" baseProfile="full"><defs><style type="text/css">path.black{fill:none;stroke:black;stroke-width:5;stroke-linecap:round;stroke-linejoin:round;}path.grey{fill:none;stroke:#ddd;stroke-width:5;stroke-linecap:round;stroke-linejoin:round;}path.stroke{fill:none;stroke:black;stroke-width:5;stroke-linecap:round;stroke-linejoin:round;}text{font-size:16px;font-family:Segoe UI Symbol,Cambria Math,DejaVu Sans,Symbola,Quivira,STIX,Code2000;-webkit-touch-callout:none;cursor:pointer;-webkit-user-select:none;-khtml-user-select:none;-moz-user-select:none;-ms-user-select:none;user-select: none;}text:hover{color:#777;}#reset{font-weight:bold;}</style><marker id="markerStart" markerWidth="8" markerHeight="8" style="overflow:visible;"><circle cx="0" cy="0" r="1.5" style="stroke:none;fill:red;fill-opacity:0.5;"/></marker><marker id="markerEnd" style="overflow:visible;"><circle cx="0" cy="0" r="0.8" style="stroke:none;fill:blue;fill-opacity:0.5;"><animate attributeName="opacity" from="1" to="0" dur="3s" repeatCount="indefinite" /></circle></marker></defs><path d="M27.75,19.89c2.38,0.99,5.17,1.14,8.67,0.68c7.1-0.93,38.3-3.9,40.47-4.08c2.86-0.23,5.11,1.52,4.09,5.1c-0.3,1.07-2.48,9.17-4.48,19.42" class="grey" /><path d="M23.25,45.5c2,1.25,4.54,1.56,7,1.5c10.88-0.25,28.07-2.72,41.88-4.33c1.99-0.23,4.87-0.54,7.62-0.67" class="grey" /><path d="M25.24,47.12c1.07,1.07,1.6,2.38,1.6,4.03c0,7.6-0.1,14.71-0.1,21.6c0,19,1.26,20,34.26,20c30.38,0,31.75-1.88,31.75-12.5" class="grey" /><path d="M27.75,19.89c2.38,0.99,5.17,1.14,8.67,0.68c7.1-0.93,38.3-3.9,40.47-4.08c2.86-0.23,5.11,1.52,4.09,5.1c-0.3,1.07-2.48,9.17-4.48,19.42" class="stroke" stroke-dasharray="150"><animate attributeName="stroke-dashoffset" from="150" to="0" dur="1.8s" begin="0.0s" fill="freeze" /></path><path d="M23.25,45.5c2,1.25,4.54,1.56,7,1.5c10.88-0.25,28.07-2.72,41.88-4.33c1.99-0.23,4.87-0.54,7.62-0.67" class="stroke" stroke-dasharray="150"><set attributeName="opacity" to="0" dur="1.7s" /><animate attributeName="stroke-dashoffset" from="150" to="0" dur="1.8s" begin="1.7s" fill="freeze" /></path><path d="M25.24,47.12c1.07,1.07,1.6,2.38,1.6,4.03c0,7.6-0.1,14.71-0.1,21.6c0,19,1.26,20,34.26,20c30.38,0,31.75-1.88,31.75-12.5" class="stroke" stroke-dasharray="150"><set attributeName="opacity" to="0" dur="3.0999999999999996s" /><animate attributeName="stroke-dashoffset" from="150" to="0" dur="1.8s" begin="3.0999999999999996s" fill="freeze" /></path></svg>