<svg id="kvg-05dfe" class="kanjivg" viewBox="0 0 106 106" width="106" height="106" xmlns="http://www.w3.org/2000/svg" xmlns:xlink="http://www.w3.org/1999/xlink" xml:space="preserve" version="1.1" baseProfile="full"><defs><style type="text/css">path.black{fill:none;stroke:black;stroke-width:5;stroke-linecap:round;stroke-linejoin:round;}path.grey{fill:none;stroke:#ddd;stroke-width:5;stroke-linecap:round;stroke-linejoin:round;}path.stroke{fill:none;stroke:black;stroke-width:5;stroke-linecap:round;stroke-linejoin:round;}text{font-size:16px;font-family:Segoe UI Symbol,Cambria Math,DejaVu Sans,Symbola,Quivira,STIX,Code2000;-webkit-touch-callout:none;cursor:pointer;-webkit-user-select:none;-khtml-user-select:none;-moz-user-select:none;-ms-user-select:none;user-select: none;}text:hover{color:#777;}#reset{font-weight:bold;}</style><marker id="markerStart" markerWidth="8" markerHeight="8" style="overflow:visible;"><circle cx="0" cy="0" r="1.5" style="stroke:none;fill:red;fill-opacity:0.5;"/></marker><marker id="markerEnd" style="overflow:visible;"><circle cx="0" cy="0" r="0.8" style="stroke:none;fill:blue;fill-opacity:0.5;"><animate attributeName="opacity" from="1" to="0" dur="3s" repeatCount="indefinite" /></circle></marker></defs><path d="M25.06,33.88c0.9,0.9,1.26,2.74,1.26,4c0,0.91,0,33.24,0,40.5" class="grey" /><path d="M27.25,36.97c4.75-0.31,51.04-5.04,54.59-5.24c4.16-0.23,5.26,1.76,4.91,5.74c-1,11.53-2.75,24.78-5.5,35.28c-1.89,7.21-6.25,1.5-8.25-1" class="grey" /><path d="M52.56,11.13c1.22,1.22,1.51,2.99,1.51,4.5c0,0.69,0,45.03,0,68.87c0,7.45,0,12.89,0,14.38" class="grey" /><path d="M25.06,33.88c0.9,0.9,1.26,2.74,1.26,4c0,0.91,0,33.24,0,40.5" class="stroke" stroke-dasharray="150"><animate attributeName="stroke-dashoffset" from="150" to="0" dur="1.8s" begin="0.0s" fill="freeze" /></path><path d="M27.25,36.97c4.75-0.31,51.04-5.04,54.59-5.24c4.16-0.23,5.26,1.76,4.91,5.74c-1,11.53-2.75,24.78-5.5,35.28c-1.89,7.21-6.25,1.5-8.25-1" class="stroke" stroke-dasharray="150"><set attributeName="opacity" to="0" dur="1.1s" /><animate attributeName="stroke-dashoffset" from="150" to="0" dur="1.8s" begin="1.1s" fill="freeze" /></path><path d="M52.56,11.13c1.22,1.22,1.51,2.99,1.51,4.5c0,0.69,0,45.03,0,68.87c0,7.45,0,12.89,0,14.38" class="stroke" stroke-dasharray="150"><set attributeName="opacity" to="0" dur="3.1s" /><animate attributeName="stroke-dashoffset" from="150" to="0" dur="1.8s" begin="3.1s" fill="freeze" /></path></svg>