<svg id="kvg-05e7a" class="kanjivg" viewBox="0 0 106 106" width="106" height="106" xmlns="http://www.w3.org/2000/svg" xmlns:xlink="http://www.w3.org/1999/xlink" xml:space="preserve" version="1.1" baseProfile="full"><defs><style type="text/css">path.black{fill:none;stroke:black;stroke-width:5;stroke-linecap:round;stroke-linejoin:round;}path.grey{fill:none;stroke:#ddd;stroke-width:5;stroke-linecap:round;stroke-linejoin:round;}path.stroke{fill:none;stroke:black;stroke-width:5;stroke-linecap:round;stroke-linejoin:round;}text{font-size:16px;font-family:Segoe UI Symbol,Cambria Math,DejaVu Sans,Symbola,Quivira,STIX,Code2000;-webkit-touch-callout:none;cursor:pointer;-webkit-user-select:none;-khtml-user-select:none;-moz-user-select:none;-ms-user-select:none;user-select: none;}text:hover{color:#777;}#reset{font-weight:bold;}</style><marker id="markerStart" markerWidth="8" markerHeight="8" style="overflow:visible;"><circle cx="0" cy="0" r="1.5" style="stroke:none;fill:red;fill-opacity:0.5;"/></marker><marker id="markerEnd" style="overflow:visible;"><circle cx="0" cy="0" r="0.8" style="stroke:none;fill:blue;fill-opacity:0.5;"><animate attributeName="opacity" from="1" to="0" dur="3s" repeatCount="indefinite" /></circle></marker></defs><path d="M52.38,14.87c0.6,1.81,0.67,3.04-0.3,5.12C48,28.75,39.75,38.5,33.18,44.49c-1.11,1.02-0.69,3.18,0.5,3.52c6.33,1.81,13.57,2.74,22.18,6.13" class="grey" /><path d="M74.98,27.31c0.6,0.9,0.21,4.26-0.5,5.32c-8.73,13.11-32.83,40.03-47.29,54.79c-1.94,1.98-1.23,4.39,1.21,3.91c13.11-2.59,36.25-6.83,49.21-9.24" class="grey" /><path d="M68.39,67.96c5.73,4.65,14.81,19.13,16.24,26.37" class="grey" /><path d="M52.38,14.87c0.6,1.81,0.67,3.04-0.3,5.12C48,28.75,39.75,38.5,33.18,44.49c-1.11,1.02-0.69,3.18,0.5,3.52c6.33,1.81,13.57,2.74,22.18,6.13" class="stroke" stroke-dasharray="150"><animate attributeName="stroke-dashoffset" from="150" to="0" dur="1.8s" begin="0.0s" fill="freeze" /></path><path d="M74.98,27.31c0.6,0.9,0.21,4.26-0.5,5.32c-8.73,13.11-32.83,40.03-47.29,54.79c-1.94,1.98-1.23,4.39,1.21,3.91c13.11-2.59,36.25-6.83,49.21-9.24" class="stroke" stroke-dasharray="150"><set attributeName="opacity" to="0" dur="1.5s" /><animate attributeName="stroke-dashoffset" from="150" to="0" dur="1.8s" begin="1.5s" fill="freeze" /></path><path d="M68.39,67.96c5.73,4.65,14.81,19.13,16.24,26.37" class="stroke" stroke-dasharray="150"><set attributeName="opacity" to="0" dur="3.5s" /><animate attributeName="stroke-dashoffset" from="150" to="0" dur="1.8s" begin="3.5s" fill="freeze" /></path></svg>