<svg id="kvg-05e74" class="kanjivg" viewBox="0 0 106 106" width="106" height="106" xmlns="http://www.w3.org/2000/svg" xmlns:xlink="http://www.w3.org/1999/xlink" xml:space="preserve" version="1.1" baseProfile="full"><defs><style type="text/css">path.black{fill:none;stroke:black;stroke-width:5;stroke-linecap:round;stroke-linejoin:round;}path.grey{fill:none;stroke:#ddd;stroke-width:5;stroke-linecap:round;stroke-linejoin:round;}path.stroke{fill:none;stroke:black;stroke-width:5;stroke-linecap:round;stroke-linejoin:round;}text{font-size:16px;font-family:Segoe UI Symbol,Cambria Math,DejaVu Sans,Symbola,Quivira,STIX,Code2000;-webkit-touch-callout:none;cursor:pointer;-webkit-user-select:none;-khtml-user-select:none;-moz-user-select:none;-ms-user-select:none;user-select: none;}text:hover{color:#777;}#reset{font-weight:bold;}</style><marker id="markerStart" markerWidth="8" markerHeight="8" style="overflow:visible;"><circle cx="0" cy="0" r="1.5" style="stroke:none;fill:red;fill-opacity:0.5;"/></marker><marker id="markerEnd" style="overflow:visible;"><circle cx="0" cy="0" r="0.8" style="stroke:none;fill:blue;fill-opacity:0.5;"><animate attributeName="opacity" from="1" to="0" dur="3s" repeatCount="indefinite" /></circle></marker></defs><path d="M40.01,11.89c0.24,1.61-0.01,2.86-0.84,4.46c-2.53,4.84-6.91,11.4-15.86,19.62" class="grey" /><path d="M39.13,23.62c2.25,0.38,4.4,0.18,5.79,0.03c11.7-1.27,21.33-2.9,33.22-4.07c2.3-0.23,4.2,0,5.35,0.26" class="grey" /><path d="M30.13,43.59c1.36,0.33,3.87,0.46,5.21,0.33c10.91-1.05,28.53-3.42,40.78-4.26c2.26-0.15,3.63,0.16,4.76,0.32" class="grey" /><path d="M33.75,44.5c1,1.25,1,1.97,1.01,3.5C34.8,52.33,35,65.29,35,66.25" class="grey" /><path d="M13.88,67.74c1.97,0.47,5.61,0.66,7.57,0.47c20.21-2.03,36.35-4.62,66.65-5.31c3.29-0.08,5.26,0.22,6.91,0.46" class="grey" /><path d="M56.56,25.46c1.12,1.12,1.79,3.54,1.79,4.94c0,0.89-0.05,44.26-0.13,61.6c-0.01,3.12-0.03,5.39-0.05,6.38" class="grey" /><path d="M40.01,11.89c0.24,1.61-0.01,2.86-0.84,4.46c-2.53,4.84-6.91,11.4-15.86,19.62" class="stroke" stroke-dasharray="150"><animate attributeName="stroke-dashoffset" from="150" to="0" dur="1.8s" begin="0.0s" fill="freeze" /></path><path d="M39.13,23.62c2.25,0.38,4.4,0.18,5.79,0.03c11.7-1.27,21.33-2.9,33.22-4.07c2.3-0.23,4.2,0,5.35,0.26" class="stroke" stroke-dasharray="150"><set attributeName="opacity" to="0" dur="1.0s" /><animate attributeName="stroke-dashoffset" from="150" to="0" dur="1.8s" begin="1.0s" fill="freeze" /></path><path d="M30.13,43.59c1.36,0.33,3.87,0.46,5.21,0.33c10.91-1.05,28.53-3.42,40.78-4.26c2.26-0.15,3.63,0.16,4.76,0.32" class="stroke" stroke-dasharray="150"><set attributeName="opacity" to="0" dur="2.1s" /><animate attributeName="stroke-dashoffset" from="150" to="0" dur="1.8s" begin="2.1s" fill="freeze" /></path><path d="M33.75,44.5c1,1.25,1,1.97,1.01,3.5C34.8,52.33,35,65.29,35,66.25" class="stroke" stroke-dasharray="150"><set attributeName="opacity" to="0" dur="3.4000000000000004s" /><animate attributeName="stroke-dashoffset" from="150" to="0" dur="1.8s" begin="3.4000000000000004s" fill="freeze" /></path><path d="M13.88,67.74c1.97,0.47,5.61,0.66,7.57,0.47c20.21-2.03,36.35-4.62,66.65-5.31c3.29-0.08,5.26,0.22,6.91,0.46" class="stroke" stroke-dasharray="150"><set attributeName="opacity" to="0" dur="4.4s" /><animate attributeName="stroke-dashoffset" from="150" to="0" dur="1.8s" begin="4.4s" fill="freeze" /></path><path d="M56.56,25.46c1.12,1.12,1.79,3.54,1.79,4.94c0,0.89-0.05,44.26-0.13,61.6c-0.01,3.12-0.03,5.39-0.05,6.38" class="stroke" stroke-dasharray="150"><set attributeName="opacity" to="0" dur="6.1000000000000005s" /><animate attributeName="stroke-dashoffset" from="150" to="0" dur="1.8s" begin="6.1000000000000005s" fill="freeze" /></path></svg>