<svg id="kvg-05e7f" class="kanjivg" viewBox="0 0 106 106" width="106" height="106" xmlns="http://www.w3.org/2000/svg" xmlns:xlink="http://www.w3.org/1999/xlink" xml:space="preserve" version="1.1" baseProfile="full"><defs><style type="text/css">path.black{fill:none;stroke:black;stroke-width:5;stroke-linecap:round;stroke-linejoin:round;}path.grey{fill:none;stroke:#ddd;stroke-width:5;stroke-linecap:round;stroke-linejoin:round;}path.stroke{fill:none;stroke:black;stroke-width:5;stroke-linecap:round;stroke-linejoin:round;}text{font-size:16px;font-family:Segoe UI Symbol,Cambria Math,DejaVu Sans,Symbola,Quivira,STIX,Code2000;-webkit-touch-callout:none;cursor:pointer;-webkit-user-select:none;-khtml-user-select:none;-moz-user-select:none;-ms-user-select:none;user-select: none;}text:hover{color:#777;}#reset{font-weight:bold;}</style><marker id="markerStart" markerWidth="8" markerHeight="8" style="overflow:visible;"><circle cx="0" cy="0" r="1.5" style="stroke:none;fill:red;fill-opacity:0.5;"/></marker><marker id="markerEnd" style="overflow:visible;"><circle cx="0" cy="0" r="0.8" style="stroke:none;fill:blue;fill-opacity:0.5;"><animate attributeName="opacity" from="1" to="0" dur="3s" repeatCount="indefinite" /></circle></marker></defs><path d="M52.31,11.63c0.76,0.38,2.36,2.88,2.51,3.65c0.15,0.77,0.08,4.65-0.07,9.46" class="grey" /><path d="M21.63,27.23c1.52,0.54,4.3,0.63,5.82,0.54c15.8-0.91,38.3-4.02,58.11-4.23c2.53-0.03,4.05,0.26,5.31,0.53" class="grey" /><path d="M26.49,30c0.04,1.59,0.09,4.1-0.09,6.38c-1.08,13.46-3.5,46.09-15.1,60.59" class="grey" /><path d="M52.31,11.63c0.76,0.38,2.36,2.88,2.51,3.65c0.15,0.77,0.08,4.65-0.07,9.46" class="stroke" stroke-dasharray="150"><animate attributeName="stroke-dashoffset" from="150" to="0" dur="1.8s" begin="0.0s" fill="freeze" /></path><path d="M21.63,27.23c1.52,0.54,4.3,0.63,5.82,0.54c15.8-0.91,38.3-4.02,58.11-4.23c2.53-0.03,4.05,0.26,5.31,0.53" class="stroke" stroke-dasharray="150"><set attributeName="opacity" to="0" dur="0.9s" /><animate attributeName="stroke-dashoffset" from="150" to="0" dur="1.8s" begin="0.9s" fill="freeze" /></path><path d="M26.49,30c0.04,1.59,0.09,4.1-0.09,6.38c-1.08,13.46-3.5,46.09-15.1,60.59" class="stroke" stroke-dasharray="150"><set attributeName="opacity" to="0" dur="2.4s" /><animate attributeName="stroke-dashoffset" from="150" to="0" dur="1.8s" begin="2.4s" fill="freeze" /></path></svg>