<svg id="kvg-05e72" class="kanjivg" viewBox="0 0 106 106" width="106" height="106" xmlns="http://www.w3.org/2000/svg" xmlns:xlink="http://www.w3.org/1999/xlink" xml:space="preserve" version="1.1" baseProfile="full"><defs><style type="text/css">path.black{fill:none;stroke:black;stroke-width:5;stroke-linecap:round;stroke-linejoin:round;}path.grey{fill:none;stroke:#ddd;stroke-width:5;stroke-linecap:round;stroke-linejoin:round;}path.stroke{fill:none;stroke:black;stroke-width:5;stroke-linecap:round;stroke-linejoin:round;}text{font-size:16px;font-family:Segoe UI Symbol,Cambria Math,DejaVu Sans,Symbola,Quivira,STIX,Code2000;-webkit-touch-callout:none;cursor:pointer;-webkit-user-select:none;-khtml-user-select:none;-moz-user-select:none;-ms-user-select:none;user-select: none;}text:hover{color:#777;}#reset{font-weight:bold;}</style><marker id="markerStart" markerWidth="8" markerHeight="8" style="overflow:visible;"><circle cx="0" cy="0" r="1.5" style="stroke:none;fill:red;fill-opacity:0.5;"/></marker><marker id="markerEnd" style="overflow:visible;"><circle cx="0" cy="0" r="0.8" style="stroke:none;fill:blue;fill-opacity:0.5;"><animate attributeName="opacity" from="1" to="0" dur="3s" repeatCount="indefinite" /></circle></marker></defs><path d="M28.63,21.62c2.62,0.63,5.47,0.36,7.75,0.15c9.37-0.89,26.14-2.9,36.63-3.81c2.7-0.23,5.47-0.34,8.12,0.38" class="grey" /><path d="M16.88,49.03c3.37,0.72,7.13,0.53,10.62,0.11c15.17-1.86,39.74-4.77,56.13-5.91c3.1-0.22,6.18-0.26,9.25,0.3" class="grey" /><path d="M52.81,21.63c1.22,1.22,1.79,2.99,1.79,4.83c0,0.85-0.02,43.7-0.12,61.54c-0.02,3.65-0.04,6.3-0.06,7.38" class="grey" /><path d="M28.63,21.62c2.62,0.63,5.47,0.36,7.75,0.15c9.37-0.89,26.14-2.9,36.63-3.81c2.7-0.23,5.47-0.34,8.12,0.38" class="stroke" stroke-dasharray="150"><animate attributeName="stroke-dashoffset" from="150" to="0" dur="1.8s" begin="0.0s" fill="freeze" /></path><path d="M16.88,49.03c3.37,0.72,7.13,0.53,10.62,0.11c15.17-1.86,39.74-4.77,56.13-5.91c3.1-0.22,6.18-0.26,9.25,0.3" class="stroke" stroke-dasharray="150"><set attributeName="opacity" to="0" dur="1.3s" /><animate attributeName="stroke-dashoffset" from="150" to="0" dur="1.8s" begin="1.3s" fill="freeze" /></path><path d="M52.81,21.63c1.22,1.22,1.79,2.99,1.79,4.83c0,0.85-0.02,43.7-0.12,61.54c-0.02,3.65-0.04,6.3-0.06,7.38" class="stroke" stroke-dasharray="150"><set attributeName="opacity" to="0" dur="3.0s" /><animate attributeName="stroke-dashoffset" from="150" to="0" dur="1.8s" begin="3.0s" fill="freeze" /></path></svg>