<svg id="kvg-05efe" class="kanjivg" viewBox="0 0 106 106" width="106" height="106" xmlns="http://www.w3.org/2000/svg" xmlns:xlink="http://www.w3.org/1999/xlink" xml:space="preserve" version="1.1" baseProfile="full"><defs><style type="text/css">path.black{fill:none;stroke:black;stroke-width:5;stroke-linecap:round;stroke-linejoin:round;}path.grey{fill:none;stroke:#ddd;stroke-width:5;stroke-linecap:round;stroke-linejoin:round;}path.stroke{fill:none;stroke:black;stroke-width:5;stroke-linecap:round;stroke-linejoin:round;}text{font-size:16px;font-family:Segoe UI Symbol,Cambria Math,DejaVu Sans,Symbola,Quivira,STIX,Code2000;-webkit-touch-callout:none;cursor:pointer;-webkit-user-select:none;-khtml-user-select:none;-moz-user-select:none;-ms-user-select:none;user-select: none;}text:hover{color:#777;}#reset{font-weight:bold;}</style><marker id="markerStart" markerWidth="8" markerHeight="8" style="overflow:visible;"><circle cx="0" cy="0" r="1.5" style="stroke:none;fill:red;fill-opacity:0.5;"/></marker><marker id="markerEnd" style="overflow:visible;"><circle cx="0" cy="0" r="0.8" style="stroke:none;fill:blue;fill-opacity:0.5;"><animate attributeName="opacity" from="1" to="0" dur="3s" repeatCount="indefinite" /></circle></marker></defs><path d="M14.88,50.98c1.52,0.54,4.3,0.63,5.82,0.54c15.8-0.91,50.05-5.77,70.11-6.23c2.53-0.06,4.05,0.26,5.31,0.53" class="grey" /><path d="M40.06,14.5c0.69,1.75,1.33,3.58,1.39,6.14C42,44,39.25,77.25,21,90" class="grey" /><path d="M67.87,11.25c1.45,1.45,1.96,1.25,1.96,3.25c0,6.75,0,76.75-0.22,83" class="grey" /><path d="M14.88,50.98c1.52,0.54,4.3,0.63,5.82,0.54c15.8-0.91,50.05-5.77,70.11-6.23c2.53-0.06,4.05,0.26,5.31,0.53" class="stroke" stroke-dasharray="150"><animate attributeName="stroke-dashoffset" from="150" to="0" dur="1.8s" begin="0.0s" fill="freeze" /></path><path d="M40.06,14.5c0.69,1.75,1.33,3.58,1.39,6.14C42,44,39.25,77.25,21,90" class="stroke" stroke-dasharray="150"><set attributeName="opacity" to="0" dur="1.7s" /><animate attributeName="stroke-dashoffset" from="150" to="0" dur="1.8s" begin="1.7s" fill="freeze" /></path><path d="M67.87,11.25c1.45,1.45,1.96,1.25,1.96,3.25c0,6.75,0,76.75-0.22,83" class="stroke" stroke-dasharray="150"><set attributeName="opacity" to="0" dur="3.4s" /><animate attributeName="stroke-dashoffset" from="150" to="0" dur="1.8s" begin="3.4s" fill="freeze" /></path></svg>