<svg id="kvg-05ef4" class="kanjivg" viewBox="0 0 106 106" width="106" height="106" xmlns="http://www.w3.org/2000/svg" xmlns:xlink="http://www.w3.org/1999/xlink" xml:space="preserve" version="1.1" baseProfile="full"><defs><style type="text/css">path.black{fill:none;stroke:black;stroke-width:5;stroke-linecap:round;stroke-linejoin:round;}path.grey{fill:none;stroke:#ddd;stroke-width:5;stroke-linecap:round;stroke-linejoin:round;}path.stroke{fill:none;stroke:black;stroke-width:5;stroke-linecap:round;stroke-linejoin:round;}text{font-size:16px;font-family:Segoe UI Symbol,Cambria Math,DejaVu Sans,Symbola,Quivira,STIX,Code2000;-webkit-touch-callout:none;cursor:pointer;-webkit-user-select:none;-khtml-user-select:none;-moz-user-select:none;-ms-user-select:none;user-select: none;}text:hover{color:#777;}#reset{font-weight:bold;}</style><marker id="markerStart" markerWidth="8" markerHeight="8" style="overflow:visible;"><circle cx="0" cy="0" r="1.5" style="stroke:none;fill:red;fill-opacity:0.5;"/></marker><marker id="markerEnd" style="overflow:visible;"><circle cx="0" cy="0" r="0.8" style="stroke:none;fill:blue;fill-opacity:0.5;"><animate attributeName="opacity" from="1" to="0" dur="3s" repeatCount="indefinite" /></circle></marker></defs><path d="M17.75,18.25C19,19,21,19.5,22.75,19s11.5-2.25,15-3.25s4.25,0.75,3,2s-13.75,21-17.25,27" class="grey" /><path d="M22.75,45.75c4.75-1,15-5.25,18.25-5.5s6.13-0.17,5.25,4.25C42.75,62,32.75,84.5,12,94" class="grey" /><path d="M20.25,55.5c5.75-0.25,45,29,63,36.64c3.01,1.28,5.36,2.17,8.25,2.61" class="grey" /><path d="M17.75,18.25C19,19,21,19.5,22.75,19s11.5-2.25,15-3.25s4.25,0.75,3,2s-13.75,21-17.25,27" class="stroke" stroke-dasharray="150"><animate attributeName="stroke-dashoffset" from="150" to="0" dur="1.8s" begin="0.0s" fill="freeze" /></path><path d="M22.75,45.75c4.75-1,15-5.25,18.25-5.5s6.13-0.17,5.25,4.25C42.75,62,32.75,84.5,12,94" class="stroke" stroke-dasharray="150"><set attributeName="opacity" to="0" dur="1.4s" /><animate attributeName="stroke-dashoffset" from="150" to="0" dur="1.8s" begin="1.4s" fill="freeze" /></path><path d="M20.25,55.5c5.75-0.25,45,29,63,36.64c3.01,1.28,5.36,2.17,8.25,2.61" class="stroke" stroke-dasharray="150"><set attributeName="opacity" to="0" dur="3.2s" /><animate attributeName="stroke-dashoffset" from="150" to="0" dur="1.8s" begin="3.2s" fill="freeze" /></path></svg>