<svg id="kvg-05f50" class="kanjivg" viewBox="0 0 106 106" width="106" height="106" xmlns="http://www.w3.org/2000/svg" xmlns:xlink="http://www.w3.org/1999/xlink" xml:space="preserve" version="1.1" baseProfile="full"><defs><style type="text/css">path.black{fill:none;stroke:black;stroke-width:5;stroke-linecap:round;stroke-linejoin:round;}path.grey{fill:none;stroke:#ddd;stroke-width:5;stroke-linecap:round;stroke-linejoin:round;}path.stroke{fill:none;stroke:black;stroke-width:5;stroke-linecap:round;stroke-linejoin:round;}text{font-size:16px;font-family:Segoe UI Symbol,Cambria Math,DejaVu Sans,Symbola,Quivira,STIX,Code2000;-webkit-touch-callout:none;cursor:pointer;-webkit-user-select:none;-khtml-user-select:none;-moz-user-select:none;-ms-user-select:none;user-select: none;}text:hover{color:#777;}#reset{font-weight:bold;}</style><marker id="markerStart" markerWidth="8" markerHeight="8" style="overflow:visible;"><circle cx="0" cy="0" r="1.5" style="stroke:none;fill:red;fill-opacity:0.5;"/></marker><marker id="markerEnd" style="overflow:visible;"><circle cx="0" cy="0" r="0.8" style="stroke:none;fill:blue;fill-opacity:0.5;"><animate attributeName="opacity" from="1" to="0" dur="3s" repeatCount="indefinite" /></circle></marker></defs><path d="M26.75,40.5c2.5,0.25,3.7,0.66,6,0.5c14-1,31-3.25,42-3.25c3.25,0,5.5,1.25,5,3.75c-1.31,6.54-2.25,9.75-4,21" class="grey" /><path d="M16,54.75c2.25,0.25,4.01,0.73,6.5,0.5c21.75-2,47.25-5.5,64.5-6.25c2.76-0.12,5,0.5,6.25,0.75" class="grey" /><path d="M28.25,65.93c1.25,0.15,3.51,0.54,5,0.46C47,65.63,61,64.41,73.5,64.11c2-0.05,3.25,0,4.75,0.15" class="grey" /><path d="M26.75,40.5c2.5,0.25,3.7,0.66,6,0.5c14-1,31-3.25,42-3.25c3.25,0,5.5,1.25,5,3.75c-1.31,6.54-2.25,9.75-4,21" class="stroke" stroke-dasharray="150"><animate attributeName="stroke-dashoffset" from="150" to="0" dur="1.8s" begin="0.0s" fill="freeze" /></path><path d="M16,54.75c2.25,0.25,4.01,0.73,6.5,0.5c21.75-2,47.25-5.5,64.5-6.25c2.76-0.12,5,0.5,6.25,0.75" class="stroke" stroke-dasharray="150"><set attributeName="opacity" to="0" dur="1.7s" /><animate attributeName="stroke-dashoffset" from="150" to="0" dur="1.8s" begin="1.7s" fill="freeze" /></path><path d="M28.25,65.93c1.25,0.15,3.51,0.54,5,0.46C47,65.63,61,64.41,73.5,64.11c2-0.05,3.25,0,4.75,0.15" class="stroke" stroke-dasharray="150"><set attributeName="opacity" to="0" dur="3.4s" /><animate attributeName="stroke-dashoffset" from="150" to="0" dur="1.8s" begin="3.4s" fill="freeze" /></path></svg>