<svg id="kvg-06238" class="kanjivg" viewBox="0 0 106 106" width="106" height="106" xmlns="http://www.w3.org/2000/svg" xmlns:xlink="http://www.w3.org/1999/xlink" xml:space="preserve" version="1.1" baseProfile="full"><defs><style type="text/css">path.black{fill:none;stroke:black;stroke-width:5;stroke-linecap:round;stroke-linejoin:round;}path.grey{fill:none;stroke:#ddd;stroke-width:5;stroke-linecap:round;stroke-linejoin:round;}path.stroke{fill:none;stroke:black;stroke-width:5;stroke-linecap:round;stroke-linejoin:round;}text{font-size:16px;font-family:Segoe UI Symbol,Cambria Math,DejaVu Sans,Symbola,Quivira,STIX,Code2000;-webkit-touch-callout:none;cursor:pointer;-webkit-user-select:none;-khtml-user-select:none;-moz-user-select:none;-ms-user-select:none;user-select: none;}text:hover{color:#777;}#reset{font-weight:bold;}</style><marker id="markerStart" markerWidth="8" markerHeight="8" style="overflow:visible;"><circle cx="0" cy="0" r="1.5" style="stroke:none;fill:red;fill-opacity:0.5;"/></marker><marker id="markerEnd" style="overflow:visible;"><circle cx="0" cy="0" r="0.8" style="stroke:none;fill:blue;fill-opacity:0.5;"><animate attributeName="opacity" from="1" to="0" dur="3s" repeatCount="indefinite" /></circle></marker></defs><path d="M28.5,19.26c1.59,0.3,5.35,0.4,6.94,0.3c13.97-0.93,25.81-2.56,39.36-3.15c2.65-0.12,5.37,0.14,6.69,0.29" class="grey" /><path d="M30.85,36.13C32,36.5,33.73,36.87,36,36.65c10.62-1.03,31.64-3.23,39-3.9c1.99-0.18,4,1.25,3.25,4c-1.05,3.85-2.66,11.55-3.94,17.02" class="grey" /><path d="M35.5,57.25c6.5-0.38,23.02-1.64,35.5-2.12c2.15-0.08,4.03-0.13,5.5-0.13" class="grey" /><path d="M33.44,37.18c1.06,1.32,1.13,2.49,1.15,4.45C34.75,66.25,24.75,89,15.25,94.75" class="grey" /><path d="M28.5,19.26c1.59,0.3,5.35,0.4,6.94,0.3c13.97-0.93,25.81-2.56,39.36-3.15c2.65-0.12,5.37,0.14,6.69,0.29" class="stroke" stroke-dasharray="150"><animate attributeName="stroke-dashoffset" from="150" to="0" dur="1.8s" begin="0.0s" fill="freeze" /></path><path d="M30.85,36.13C32,36.5,33.73,36.87,36,36.65c10.62-1.03,31.64-3.23,39-3.9c1.99-0.18,4,1.25,3.25,4c-1.05,3.85-2.66,11.55-3.94,17.02" class="stroke" stroke-dasharray="150"><set attributeName="opacity" to="0" dur="1.3s" /><animate attributeName="stroke-dashoffset" from="150" to="0" dur="1.8s" begin="1.3s" fill="freeze" /></path><path d="M35.5,57.25c6.5-0.38,23.02-1.64,35.5-2.12c2.15-0.08,4.03-0.13,5.5-0.13" class="stroke" stroke-dasharray="150"><set attributeName="opacity" to="0" dur="2.8s" /><animate attributeName="stroke-dashoffset" from="150" to="0" dur="1.8s" begin="2.8s" fill="freeze" /></path><path d="M33.44,37.18c1.06,1.32,1.13,2.49,1.15,4.45C34.75,66.25,24.75,89,15.25,94.75" class="stroke" stroke-dasharray="150"><set attributeName="opacity" to="0" dur="3.9s" /><animate attributeName="stroke-dashoffset" from="150" to="0" dur="1.8s" begin="3.9s" fill="freeze" /></path></svg>