<svg id="kvg-0624b" class="kanjivg" viewBox="0 0 106 126" width="106" height="106" xmlns="http://www.w3.org/2000/svg" xmlns:xlink="http://www.w3.org/1999/xlink" xml:space="preserve" version="1.1" baseProfile="full"><defs><style type="text/css">path.black{fill:none;stroke:black;stroke-width:5;stroke-linecap:round;stroke-linejoin:round;}path.grey{fill:none;stroke:#ddd;stroke-width:5;stroke-linecap:round;stroke-linejoin:round;}path.stroke{fill:none;stroke:black;stroke-width:5;stroke-linecap:round;stroke-linejoin:round;}text{font-size:16px;font-family:Segoe UI Symbol,Cambria Math,DejaVu Sans,Symbola,Quivira,STIX,Code2000;-webkit-touch-callout:none;cursor:pointer;-webkit-user-select:none;-khtml-user-select:none;-moz-user-select:none;-ms-user-select:none;user-select: none;}text:hover{color:#777;}#reset{font-weight:bold;}</style><marker id="markerStart" markerWidth="8" markerHeight="8" style="overflow:visible;"><circle cx="0" cy="0" r="1.5" style="stroke:none;fill:red;fill-opacity:0.5;"/></marker><marker id="markerEnd" style="overflow:visible;"><circle cx="0" cy="0" r="0.8" style="stroke:none;fill:blue;fill-opacity:0.5;"><animate attributeName="opacity" from="1" to="0" dur="3s" repeatCount="indefinite" /></circle></marker></defs><path d="M61.48,11.5c0.02,1-0.61,1.88-1.67,2.9c-3.27,3.15-13.69,8.23-28.57,11.85" class="grey" /><path d="M26.38,42.92c1.8,0.46,3.61,0.67,5.68,0.38C46,41.38,58.4,39,71.37,37.75c1.92-0.19,4.62-0.38,7.25,0.04" class="grey" /><path d="M13.27,62.87c2.71,0.63,4.86,0.6,7.22,0.38c22.63-2.12,46.13-5.62,67.7-7c2.01-0.13,4.83,0,7.46,0.37" class="grey" /><path d="M48.88,23.55C60.38,31,62.73,63.66,57.83,89.87c-2.08,11.13-8.64,2.34-9.89,1.17" class="grey" /><path d="M61.48,11.5c0.02,1-0.61,1.88-1.67,2.9c-3.27,3.15-13.69,8.23-28.57,11.85" class="stroke" stroke-dasharray="150"><animate attributeName="stroke-dashoffset" from="150" to="0" dur="1.8s" begin="0.0s" fill="freeze" /></path><path d="M26.38,42.92c1.8,0.46,3.61,0.67,5.68,0.38C46,41.38,58.4,39,71.37,37.75c1.92-0.19,4.62-0.38,7.25,0.04" class="stroke" stroke-dasharray="150"><set attributeName="opacity" to="0" dur="1.0s" /><animate attributeName="stroke-dashoffset" from="150" to="0" dur="1.8s" begin="1.0s" fill="freeze" /></path><path d="M13.27,62.87c2.71,0.63,4.86,0.6,7.22,0.38c22.63-2.12,46.13-5.62,67.7-7c2.01-0.13,4.83,0,7.46,0.37" class="stroke" stroke-dasharray="150"><set attributeName="opacity" to="0" dur="2.3s" /><animate attributeName="stroke-dashoffset" from="150" to="0" dur="1.8s" begin="2.3s" fill="freeze" /></path><path d="M48.88,23.55C60.38,31,62.73,63.66,57.83,89.87c-2.08,11.13-8.64,2.34-9.89,1.17" class="stroke" stroke-dasharray="150"><set attributeName="opacity" to="0" dur="4.0s" /><animate attributeName="stroke-dashoffset" from="150" to="0" dur="1.8s" begin="4.0s" fill="freeze" /></path></svg>