<svg id="kvg-0652f" class="kanjivg" viewBox="0 0 106 106" width="106" height="106" xmlns="http://www.w3.org/2000/svg" xmlns:xlink="http://www.w3.org/1999/xlink" xml:space="preserve" version="1.1" baseProfile="full"><defs><style type="text/css">path.black{fill:none;stroke:black;stroke-width:5;stroke-linecap:round;stroke-linejoin:round;}path.grey{fill:none;stroke:#ddd;stroke-width:5;stroke-linecap:round;stroke-linejoin:round;}path.stroke{fill:none;stroke:black;stroke-width:5;stroke-linecap:round;stroke-linejoin:round;}text{font-size:16px;font-family:Segoe UI Symbol,Cambria Math,DejaVu Sans,Symbola,Quivira,STIX,Code2000;-webkit-touch-callout:none;cursor:pointer;-webkit-user-select:none;-khtml-user-select:none;-moz-user-select:none;-ms-user-select:none;user-select: none;}text:hover{color:#777;}#reset{font-weight:bold;}</style><marker id="markerStart" markerWidth="8" markerHeight="8" style="overflow:visible;"><circle cx="0" cy="0" r="1.5" style="stroke:none;fill:red;fill-opacity:0.5;"/></marker><marker id="markerEnd" style="overflow:visible;"><circle cx="0" cy="0" r="0.8" style="stroke:none;fill:blue;fill-opacity:0.5;"><animate attributeName="opacity" from="1" to="0" dur="3s" repeatCount="indefinite" /></circle></marker></defs><path d="M18.6,34.03c2.9,0.6,5.56,0.36,8.27-0.03c17.11-2.45,37.49-5.9,49.87-7.18c2.73-0.28,5.21-0.47,7.91,0.12" class="grey" /><path d="M51.97,11.88c1.07,1.07,2.09,2.87,2.09,4.83c0,0.79,0.04,22.91,0.04,32.42" class="grey" /><path d="M30.32,53.04c1.75,0.44,4.46,0.57,7.96-0.06c7.47-1.35,25.47-5.48,31.01-6.74c2.43-0.55,3.6,1.24,2.53,3.55C61.25,72.5,40,91,19.5,97.25" class="grey" /><path d="M34.86,61.89c5.11,0.78,26.76,19.54,45.15,29.6c3.58,1.96,6.78,3.49,10.47,5.23" class="grey" /><path d="M18.6,34.03c2.9,0.6,5.56,0.36,8.27-0.03c17.11-2.45,37.49-5.9,49.87-7.18c2.73-0.28,5.21-0.47,7.91,0.12" class="stroke" stroke-dasharray="150"><animate attributeName="stroke-dashoffset" from="150" to="0" dur="1.8s" begin="0.0s" fill="freeze" /></path><path d="M51.97,11.88c1.07,1.07,2.09,2.87,2.09,4.83c0,0.79,0.04,22.91,0.04,32.42" class="stroke" stroke-dasharray="150"><set attributeName="opacity" to="0" dur="1.5s" /><animate attributeName="stroke-dashoffset" from="150" to="0" dur="1.8s" begin="1.5s" fill="freeze" /></path><path d="M30.32,53.04c1.75,0.44,4.46,0.57,7.96-0.06c7.47-1.35,25.47-5.48,31.01-6.74c2.43-0.55,3.6,1.24,2.53,3.55C61.25,72.5,40,91,19.5,97.25" class="stroke" stroke-dasharray="150"><set attributeName="opacity" to="0" dur="2.5s" /><animate attributeName="stroke-dashoffset" from="150" to="0" dur="1.8s" begin="2.5s" fill="freeze" /></path><path d="M34.86,61.89c5.11,0.78,26.76,19.54,45.15,29.6c3.58,1.96,6.78,3.49,10.47,5.23" class="stroke" stroke-dasharray="150"><set attributeName="opacity" to="0" dur="4.5s" /><animate attributeName="stroke-dashoffset" from="150" to="0" dur="1.8s" begin="4.5s" fill="freeze" /></path></svg>