<svg id="kvg-06534" class="kanjivg" viewBox="0 0 106 106" width="106" height="106" xmlns="http://www.w3.org/2000/svg" xmlns:xlink="http://www.w3.org/1999/xlink" xml:space="preserve" version="1.1" baseProfile="full"><defs><style type="text/css">path.black{fill:none;stroke:black;stroke-width:5;stroke-linecap:round;stroke-linejoin:round;}path.grey{fill:none;stroke:#ddd;stroke-width:5;stroke-linecap:round;stroke-linejoin:round;}path.stroke{fill:none;stroke:black;stroke-width:5;stroke-linecap:round;stroke-linejoin:round;}text{font-size:16px;font-family:Segoe UI Symbol,Cambria Math,DejaVu Sans,Symbola,Quivira,STIX,Code2000;-webkit-touch-callout:none;cursor:pointer;-webkit-user-select:none;-khtml-user-select:none;-moz-user-select:none;-ms-user-select:none;user-select: none;}text:hover{color:#777;}#reset{font-weight:bold;}</style><marker id="markerStart" markerWidth="8" markerHeight="8" style="overflow:visible;"><circle cx="0" cy="0" r="1.5" style="stroke:none;fill:red;fill-opacity:0.5;"/></marker><marker id="markerEnd" style="overflow:visible;"><circle cx="0" cy="0" r="0.8" style="stroke:none;fill:blue;fill-opacity:0.5;"><animate attributeName="opacity" from="1" to="0" dur="3s" repeatCount="indefinite" /></circle></marker></defs><path d="M52.28,10.88c0.48,0.31,1.5,2.32,1.6,2.93c0.1,0.62-0.06,25.7-0.16,29.57" class="grey" /><path d="M54,26.75c2.75-0.25,24.25-3,25.75-3s3.52,0,4.75,0.25" class="grey" /><path d="M33.5,45.23c2,0.38,2.25,0.96,6.25,0.38s29.25-4.06,32-4.64s4.88,2.18,3.75,4.22C62.25,69,40.5,89.75,16,97.5" class="grey" /><path d="M34.5,52.7c5.27,1.03,31.04,28.63,49.4,39.94c2.86,1.76,4.94,2.93,7.6,3.52" class="grey" /><path d="M52.28,10.88c0.48,0.31,1.5,2.32,1.6,2.93c0.1,0.62-0.06,25.7-0.16,29.57" class="stroke" stroke-dasharray="150"><animate attributeName="stroke-dashoffset" from="150" to="0" dur="1.8s" begin="0.0s" fill="freeze" /></path><path d="M54,26.75c2.75-0.25,24.25-3,25.75-3s3.52,0,4.75,0.25" class="stroke" stroke-dasharray="150"><set attributeName="opacity" to="0" dur="1.0s" /><animate attributeName="stroke-dashoffset" from="150" to="0" dur="1.8s" begin="1.0s" fill="freeze" /></path><path d="M33.5,45.23c2,0.38,2.25,0.96,6.25,0.38s29.25-4.06,32-4.64s4.88,2.18,3.75,4.22C62.25,69,40.5,89.75,16,97.5" class="stroke" stroke-dasharray="150"><set attributeName="opacity" to="0" dur="2.0s" /><animate attributeName="stroke-dashoffset" from="150" to="0" dur="1.8s" begin="2.0s" fill="freeze" /></path><path d="M34.5,52.7c5.27,1.03,31.04,28.63,49.4,39.94c2.86,1.76,4.94,2.93,7.6,3.52" class="stroke" stroke-dasharray="150"><set attributeName="opacity" to="0" dur="4.0s" /><animate attributeName="stroke-dashoffset" from="150" to="0" dur="1.8s" begin="4.0s" fill="freeze" /></path></svg>