<svg id="kvg-06597" class="kanjivg" viewBox="0 0 106 106" width="106" height="106" xmlns="http://www.w3.org/2000/svg" xmlns:xlink="http://www.w3.org/1999/xlink" xml:space="preserve" version="1.1" baseProfile="full"><defs><style type="text/css">path.black{fill:none;stroke:black;stroke-width:5;stroke-linecap:round;stroke-linejoin:round;}path.grey{fill:none;stroke:#ddd;stroke-width:5;stroke-linecap:round;stroke-linejoin:round;}path.stroke{fill:none;stroke:black;stroke-width:5;stroke-linecap:round;stroke-linejoin:round;}text{font-size:16px;font-family:Segoe UI Symbol,Cambria Math,DejaVu Sans,Symbola,Quivira,STIX,Code2000;-webkit-touch-callout:none;cursor:pointer;-webkit-user-select:none;-khtml-user-select:none;-moz-user-select:none;-ms-user-select:none;user-select: none;}text:hover{color:#777;}#reset{font-weight:bold;}</style><marker id="markerStart" markerWidth="8" markerHeight="8" style="overflow:visible;"><circle cx="0" cy="0" r="1.5" style="stroke:none;fill:red;fill-opacity:0.5;"/></marker><marker id="markerEnd" style="overflow:visible;"><circle cx="0" cy="0" r="0.8" style="stroke:none;fill:blue;fill-opacity:0.5;"><animate attributeName="opacity" from="1" to="0" dur="3s" repeatCount="indefinite" /></circle></marker></defs><path d="M33.02,20.96c3.52,1.46,9.1,6.02,9.98,8.29" class="grey" /><path d="M26.38,41c3.93,1.37,10.14,5.62,11.12,7.75" class="grey" /><path d="M13,66c3.23,1.08,6.33,0.69,9.63,0.28C42,63.88,73.45,60.89,88.75,59.4c3.13-0.31,5.05-0.25,8,0.35" class="grey" /><path d="M56,12.5c1.25,1.25,1.75,2.75,1.75,5c0,7.79,0,50.72,0,71.75c0,4.62,0,8.08,0,9.75" class="grey" /><path d="M33.02,20.96c3.52,1.46,9.1,6.02,9.98,8.29" class="stroke" stroke-dasharray="150"><animate attributeName="stroke-dashoffset" from="150" to="0" dur="1.8s" begin="0.0s" fill="freeze" /></path><path d="M26.38,41c3.93,1.37,10.14,5.62,11.12,7.75" class="stroke" stroke-dasharray="150"><set attributeName="opacity" to="0" dur="0.9s" /><animate attributeName="stroke-dashoffset" from="150" to="0" dur="1.8s" begin="0.9s" fill="freeze" /></path><path d="M13,66c3.23,1.08,6.33,0.69,9.63,0.28C42,63.88,73.45,60.89,88.75,59.4c3.13-0.31,5.05-0.25,8,0.35" class="stroke" stroke-dasharray="150"><set attributeName="opacity" to="0" dur="1.8s" /><animate attributeName="stroke-dashoffset" from="150" to="0" dur="1.8s" begin="1.8s" fill="freeze" /></path><path d="M56,12.5c1.25,1.25,1.75,2.75,1.75,5c0,7.79,0,50.72,0,71.75c0,4.62,0,8.08,0,9.75" class="stroke" stroke-dasharray="150"><set attributeName="opacity" to="0" dur="3.5s" /><animate attributeName="stroke-dashoffset" from="150" to="0" dur="1.8s" begin="3.5s" fill="freeze" /></path></svg>