<svg id="kvg-065a4" class="kanjivg" viewBox="0 0 106 106" width="106" height="106" xmlns="http://www.w3.org/2000/svg" xmlns:xlink="http://www.w3.org/1999/xlink" xml:space="preserve" version="1.1" baseProfile="full"><defs><style type="text/css">path.black{fill:none;stroke:black;stroke-width:5;stroke-linecap:round;stroke-linejoin:round;}path.grey{fill:none;stroke:#ddd;stroke-width:5;stroke-linecap:round;stroke-linejoin:round;}path.stroke{fill:none;stroke:black;stroke-width:5;stroke-linecap:round;stroke-linejoin:round;}text{font-size:16px;font-family:Segoe UI Symbol,Cambria Math,DejaVu Sans,Symbola,Quivira,STIX,Code2000;-webkit-touch-callout:none;cursor:pointer;-webkit-user-select:none;-khtml-user-select:none;-moz-user-select:none;-ms-user-select:none;user-select: none;}text:hover{color:#777;}#reset{font-weight:bold;}</style><marker id="markerStart" markerWidth="8" markerHeight="8" style="overflow:visible;"><circle cx="0" cy="0" r="1.5" style="stroke:none;fill:red;fill-opacity:0.5;"/></marker><marker id="markerEnd" style="overflow:visible;"><circle cx="0" cy="0" r="0.8" style="stroke:none;fill:blue;fill-opacity:0.5;"><animate attributeName="opacity" from="1" to="0" dur="3s" repeatCount="indefinite" /></circle></marker></defs><path d="M65.51,10.5c0,1.25-1.14,2.34-1.95,2.96C57.75,18,45.12,25.38,30.5,30.75" class="grey" /><path d="M27.43,30.38c1.22,1.22,1.51,2.88,1.52,4.9c0.18,28.1-2.2,41.6-12.39,54.83" class="grey" /><path d="M32.25,44.19c2.79,0.87,6.84,0.13,9.66-0.3c10.42-1.56,28.97-4.39,39.59-5.48c3.06-0.31,6.43-0.64,9.5-0.07" class="grey" /><path d="M60.87,44.8c1.04,1.04,1.57,2.33,1.57,4.26c0,6.42-0.05,28.89-0.07,44.56c0,2.8,0,5.39,0,7.62" class="grey" /><path d="M65.51,10.5c0,1.25-1.14,2.34-1.95,2.96C57.75,18,45.12,25.38,30.5,30.75" class="stroke" stroke-dasharray="150"><animate attributeName="stroke-dashoffset" from="150" to="0" dur="1.8s" begin="0.0s" fill="freeze" /></path><path d="M27.43,30.38c1.22,1.22,1.51,2.88,1.52,4.9c0.18,28.1-2.2,41.6-12.39,54.83" class="stroke" stroke-dasharray="150"><set attributeName="opacity" to="0" dur="1.1s" /><animate attributeName="stroke-dashoffset" from="150" to="0" dur="1.8s" begin="1.1s" fill="freeze" /></path><path d="M32.25,44.19c2.79,0.87,6.84,0.13,9.66-0.3c10.42-1.56,28.97-4.39,39.59-5.48c3.06-0.31,6.43-0.64,9.5-0.07" class="stroke" stroke-dasharray="150"><set attributeName="opacity" to="0" dur="2.6s" /><animate attributeName="stroke-dashoffset" from="150" to="0" dur="1.8s" begin="2.6s" fill="freeze" /></path><path d="M60.87,44.8c1.04,1.04,1.57,2.33,1.57,4.26c0,6.42-0.05,28.89-0.07,44.56c0,2.8,0,5.39,0,7.62" class="stroke" stroke-dasharray="150"><set attributeName="opacity" to="0" dur="4.0s" /><animate attributeName="stroke-dashoffset" from="150" to="0" dur="1.8s" begin="4.0s" fill="freeze" /></path></svg>