<svg id="kvg-065b9" class="kanjivg" viewBox="0 0 106 106" width="106" height="106" xmlns="http://www.w3.org/2000/svg" xmlns:xlink="http://www.w3.org/1999/xlink" xml:space="preserve" version="1.1" baseProfile="full"><defs><style type="text/css">path.black{fill:none;stroke:black;stroke-width:5;stroke-linecap:round;stroke-linejoin:round;}path.grey{fill:none;stroke:#ddd;stroke-width:5;stroke-linecap:round;stroke-linejoin:round;}path.stroke{fill:none;stroke:black;stroke-width:5;stroke-linecap:round;stroke-linejoin:round;}text{font-size:16px;font-family:Segoe UI Symbol,Cambria Math,DejaVu Sans,Symbola,Quivira,STIX,Code2000;-webkit-touch-callout:none;cursor:pointer;-webkit-user-select:none;-khtml-user-select:none;-moz-user-select:none;-ms-user-select:none;user-select: none;}text:hover{color:#777;}#reset{font-weight:bold;}</style><marker id="markerStart" markerWidth="8" markerHeight="8" style="overflow:visible;"><circle cx="0" cy="0" r="1.5" style="stroke:none;fill:red;fill-opacity:0.5;"/></marker><marker id="markerEnd" style="overflow:visible;"><circle cx="0" cy="0" r="0.8" style="stroke:none;fill:blue;fill-opacity:0.5;"><animate attributeName="opacity" from="1" to="0" dur="3s" repeatCount="indefinite" /></circle></marker></defs><path d="M52.86,12c1.07,1.07,1.73,2.5,1.73,4.41c0,4.84-0.15,7.84-0.15,11.65" class="grey" /><path d="M15.5,31.61c2.5,0.64,6.38,0.89,10.02,0.55C43.97,30.41,67.12,28,85.87,27.2c3.88-0.16,6.36,0.05,9.25,0.7" class="grey" /><path d="M53.48,47.2c6.64,1.17,13.39,0.92,18.51,0.41c3.41-0.34,5.18,1.75,4.67,4.36c-2.03,10.4-10.53,33.53-16.54,41.1c-4.79,6.04-7.12,1.17-10.09-2.07" class="grey" /><path d="M54.51,32.75c0.49,1.5,0.39,3.19-0.19,4.88C50.3,49.29,38.68,72.85,20.62,83.88" class="grey" /><path d="M52.86,12c1.07,1.07,1.73,2.5,1.73,4.41c0,4.84-0.15,7.84-0.15,11.65" class="stroke" stroke-dasharray="150"><animate attributeName="stroke-dashoffset" from="150" to="0" dur="1.8s" begin="0.0s" fill="freeze" /></path><path d="M15.5,31.61c2.5,0.64,6.38,0.89,10.02,0.55C43.97,30.41,67.12,28,85.87,27.2c3.88-0.16,6.36,0.05,9.25,0.7" class="stroke" stroke-dasharray="150"><set attributeName="opacity" to="0" dur="0.9s" /><animate attributeName="stroke-dashoffset" from="150" to="0" dur="1.8s" begin="0.9s" fill="freeze" /></path><path d="M53.48,47.2c6.64,1.17,13.39,0.92,18.51,0.41c3.41-0.34,5.18,1.75,4.67,4.36c-2.03,10.4-10.53,33.53-16.54,41.1c-4.79,6.04-7.12,1.17-10.09-2.07" class="stroke" stroke-dasharray="150"><set attributeName="opacity" to="0" dur="2.6s" /><animate attributeName="stroke-dashoffset" from="150" to="0" dur="1.8s" begin="2.6s" fill="freeze" /></path><path d="M54.51,32.75c0.49,1.5,0.39,3.19-0.19,4.88C50.3,49.29,38.68,72.85,20.62,83.88" class="stroke" stroke-dasharray="150"><set attributeName="opacity" to="0" dur="4.3s" /><animate attributeName="stroke-dashoffset" from="150" to="0" dur="1.8s" begin="4.3s" fill="freeze" /></path></svg>