<svg id="kvg-065b9-Kaisho" class="kanjivg" viewBox="0 0 106 106" width="106" height="106" xmlns="http://www.w3.org/2000/svg" xmlns:xlink="http://www.w3.org/1999/xlink" xml:space="preserve" version="1.1" baseProfile="full"><defs><style type="text/css">path.black{fill:none;stroke:black;stroke-width:5;stroke-linecap:round;stroke-linejoin:round;}path.grey{fill:none;stroke:#ddd;stroke-width:5;stroke-linecap:round;stroke-linejoin:round;}path.stroke{fill:none;stroke:black;stroke-width:5;stroke-linecap:round;stroke-linejoin:round;}text{font-size:16px;font-family:Segoe UI Symbol,Cambria Math,DejaVu Sans,Symbola,Quivira,STIX,Code2000;-webkit-touch-callout:none;cursor:pointer;-webkit-user-select:none;-khtml-user-select:none;-moz-user-select:none;-ms-user-select:none;user-select: none;}text:hover{color:#777;}#reset{font-weight:bold;}</style><marker id="markerStart" markerWidth="8" markerHeight="8" style="overflow:visible;"><circle cx="0" cy="0" r="1.5" style="stroke:none;fill:red;fill-opacity:0.5;"/></marker><marker id="markerEnd" style="overflow:visible;"><circle cx="0" cy="0" r="0.8" style="stroke:none;fill:blue;fill-opacity:0.5;"><animate attributeName="opacity" from="1" to="0" dur="3s" repeatCount="indefinite" /></circle></marker></defs><path d="M48,11.25c3.78,1.87,9.3,9.16,9.98,12.83" class="grey" /><path d="M16,32.11c1.5,0.39,4.68,0.69,6.06,0.55c11.19-1.16,52.44-4.91,67.64-5.7c2.35-0.12,3.55,0.05,5.3,0.7" class="grey" /><path d="M53.25,47c6.5,1,13.75,1.2,18.99,0.61c3.41-0.38,4.36,1.71,4.17,4.36c-0.5,7-12.27,35.66-16.54,41.35c-4.62,6.17-7.72-0.24-9.09-1.07" class="grey" /><path d="M54.5,32.75c0.5,1.5,0.4,3.19-0.19,4.87C50.25,49.25,38.5,72.75,20.25,83.75" class="grey" /><path d="M48,11.25c3.78,1.87,9.3,9.16,9.98,12.83" class="stroke" stroke-dasharray="150"><animate attributeName="stroke-dashoffset" from="150" to="0" dur="1.8s" begin="0.0s" fill="freeze" /></path><path d="M16,32.11c1.5,0.39,4.68,0.69,6.06,0.55c11.19-1.16,52.44-4.91,67.64-5.7c2.35-0.12,3.55,0.05,5.3,0.7" class="stroke" stroke-dasharray="150"><set attributeName="opacity" to="0" dur="0.9s" /><animate attributeName="stroke-dashoffset" from="150" to="0" dur="1.8s" begin="0.9s" fill="freeze" /></path><path d="M53.25,47c6.5,1,13.75,1.2,18.99,0.61c3.41-0.38,4.36,1.71,4.17,4.36c-0.5,7-12.27,35.66-16.54,41.35c-4.62,6.17-7.72-0.24-9.09-1.07" class="stroke" stroke-dasharray="150"><set attributeName="opacity" to="0" dur="2.6s" /><animate attributeName="stroke-dashoffset" from="150" to="0" dur="1.8s" begin="2.6s" fill="freeze" /></path><path d="M54.5,32.75c0.5,1.5,0.4,3.19-0.19,4.87C50.25,49.25,38.5,72.75,20.25,83.75" class="stroke" stroke-dasharray="150"><set attributeName="opacity" to="0" dur="4.3s" /><animate attributeName="stroke-dashoffset" from="150" to="0" dur="1.8s" begin="4.3s" fill="freeze" /></path></svg>