<svg id="kvg-065e5-Kaisho" class="kanjivg" viewBox="0 0 106 106" width="106" height="106" xmlns="http://www.w3.org/2000/svg" xmlns:xlink="http://www.w3.org/1999/xlink" xml:space="preserve" version="1.1" baseProfile="full"><defs><style type="text/css">path.black{fill:none;stroke:black;stroke-width:5;stroke-linecap:round;stroke-linejoin:round;}path.grey{fill:none;stroke:#ddd;stroke-width:5;stroke-linecap:round;stroke-linejoin:round;}path.stroke{fill:none;stroke:black;stroke-width:5;stroke-linecap:round;stroke-linejoin:round;}text{font-size:16px;font-family:Segoe UI Symbol,Cambria Math,DejaVu Sans,Symbola,Quivira,STIX,Code2000;-webkit-touch-callout:none;cursor:pointer;-webkit-user-select:none;-khtml-user-select:none;-moz-user-select:none;-ms-user-select:none;user-select: none;}text:hover{color:#777;}#reset{font-weight:bold;}</style><marker id="markerStart" markerWidth="8" markerHeight="8" style="overflow:visible;"><circle cx="0" cy="0" r="1.5" style="stroke:none;fill:red;fill-opacity:0.5;"/></marker><marker id="markerEnd" style="overflow:visible;"><circle cx="0" cy="0" r="0.8" style="stroke:none;fill:blue;fill-opacity:0.5;"><animate attributeName="opacity" from="1" to="0" dur="3s" repeatCount="indefinite" /></circle></marker></defs><path d="M31.75,24.75c0.74,1.5,1.49,2.25,1.49,4.25s-0.25,58,0,60" class="grey" /><path d="M34.48,26c4.21-0.25,36.19-3.2,40.02-3.5c3.19-0.25,5.25,2.77,5,4.25c-0.5,3-0.49,60.75-0.49,62.25" class="grey" /><path d="M33.72,55.5c7.4,0,14.88-0.93,22.25-1.5c2.44-0.19,4.88-0.38,7.22-0.55" class="grey" /><path d="M33.98,86.75c8.77-0.5,37.92-2.5,44.81-2.5" class="grey" /><path d="M31.75,24.75c0.74,1.5,1.49,2.25,1.49,4.25s-0.25,58,0,60" class="stroke" stroke-dasharray="150"><animate attributeName="stroke-dashoffset" from="150" to="0" dur="1.8s" begin="0.0s" fill="freeze" /></path><path d="M34.48,26c4.21-0.25,36.19-3.2,40.02-3.5c3.19-0.25,5.25,2.77,5,4.25c-0.5,3-0.49,60.75-0.49,62.25" class="stroke" stroke-dasharray="150"><set attributeName="opacity" to="0" dur="1.5s" /><animate attributeName="stroke-dashoffset" from="150" to="0" dur="1.8s" begin="1.5s" fill="freeze" /></path><path d="M33.72,55.5c7.4,0,14.88-0.93,22.25-1.5c2.44-0.19,4.88-0.38,7.22-0.55" class="stroke" stroke-dasharray="150"><set attributeName="opacity" to="0" dur="3.4s" /><animate attributeName="stroke-dashoffset" from="150" to="0" dur="1.8s" begin="3.4s" fill="freeze" /></path><path d="M33.98,86.75c8.77-0.5,37.92-2.5,44.81-2.5" class="stroke" stroke-dasharray="150"><set attributeName="opacity" to="0" dur="4.4s" /><animate attributeName="stroke-dashoffset" from="150" to="0" dur="1.8s" begin="4.4s" fill="freeze" /></path></svg>