<svg id="kvg-065e9-Kaisho" class="kanjivg" viewBox="0 0 106 106" width="106" height="106" xmlns="http://www.w3.org/2000/svg" xmlns:xlink="http://www.w3.org/1999/xlink" xml:space="preserve" version="1.1" baseProfile="full"><defs><style type="text/css">path.black{fill:none;stroke:black;stroke-width:5;stroke-linecap:round;stroke-linejoin:round;}path.grey{fill:none;stroke:#ddd;stroke-width:5;stroke-linecap:round;stroke-linejoin:round;}path.stroke{fill:none;stroke:black;stroke-width:5;stroke-linecap:round;stroke-linejoin:round;}text{font-size:16px;font-family:Segoe UI Symbol,Cambria Math,DejaVu Sans,Symbola,Quivira,STIX,Code2000;-webkit-touch-callout:none;cursor:pointer;-webkit-user-select:none;-khtml-user-select:none;-moz-user-select:none;-ms-user-select:none;user-select: none;}text:hover{color:#777;}#reset{font-weight:bold;}</style><marker id="markerStart" markerWidth="8" markerHeight="8" style="overflow:visible;"><circle cx="0" cy="0" r="1.5" style="stroke:none;fill:red;fill-opacity:0.5;"/></marker><marker id="markerEnd" style="overflow:visible;"><circle cx="0" cy="0" r="0.8" style="stroke:none;fill:blue;fill-opacity:0.5;"><animate attributeName="opacity" from="1" to="0" dur="3s" repeatCount="indefinite" /></circle></marker></defs><path d="M28.25,17c0.85,1.5,1.27,2.26,2.25,4c1.4,2.5,3.75,25.75,5.1,28" class="grey" /><path d="M31.01,17c4.8-0.25,41.43-4.38,45.77-3.75c1.72,0.25,3.37,2.22,2.71,4.75c-1.24,4.75-3.74,18.75-5.99,27.25" class="grey" /><path d="M34.86,32c6.62,0,13.34-1.06,19.91-1.75c2.1-0.22,4.2-0.44,6.23-0.64" class="grey" /><path d="M37.01,46.25c9.6,0,29.99-3,35.99-3" class="grey" /><path d="M16.63,66.91c1.47,0.48,4.18,0.61,5.64,0.48c12.73-1.13,55.98-4.63,67.96-4.59c2.45,0.01,3.92,0.23,5.15,0.47" class="grey" /><path d="M53.23,46.5c0.44,0.55,1.38,4.13,1.47,5.24c0.09,1.1-0.06,38.62-0.15,45.51" class="grey" /><path d="M28.25,17c0.85,1.5,1.27,2.26,2.25,4c1.4,2.5,3.75,25.75,5.1,28" class="stroke" stroke-dasharray="150"><animate attributeName="stroke-dashoffset" from="150" to="0" dur="1.8s" begin="0.0s" fill="freeze" /></path><path d="M31.01,17c4.8-0.25,41.43-4.38,45.77-3.75c1.72,0.25,3.37,2.22,2.71,4.75c-1.24,4.75-3.74,18.75-5.99,27.25" class="stroke" stroke-dasharray="150"><set attributeName="opacity" to="0" dur="1.0s" /><animate attributeName="stroke-dashoffset" from="150" to="0" dur="1.8s" begin="1.0s" fill="freeze" /></path><path d="M34.86,32c6.62,0,13.34-1.06,19.91-1.75c2.1-0.22,4.2-0.44,6.23-0.64" class="stroke" stroke-dasharray="150"><set attributeName="opacity" to="0" dur="2.7s" /><animate attributeName="stroke-dashoffset" from="150" to="0" dur="1.8s" begin="2.7s" fill="freeze" /></path><path d="M37.01,46.25c9.6,0,29.99-3,35.99-3" class="stroke" stroke-dasharray="150"><set attributeName="opacity" to="0" dur="3.7s" /><animate attributeName="stroke-dashoffset" from="150" to="0" dur="1.8s" begin="3.7s" fill="freeze" /></path><path d="M16.63,66.91c1.47,0.48,4.18,0.61,5.64,0.48c12.73-1.13,55.98-4.63,67.96-4.59c2.45,0.01,3.92,0.23,5.15,0.47" class="stroke" stroke-dasharray="150"><set attributeName="opacity" to="0" dur="4.7s" /><animate attributeName="stroke-dashoffset" from="150" to="0" dur="1.8s" begin="4.7s" fill="freeze" /></path><path d="M53.23,46.5c0.44,0.55,1.38,4.13,1.47,5.24c0.09,1.1-0.06,38.62-0.15,45.51" class="stroke" stroke-dasharray="150"><set attributeName="opacity" to="0" dur="6.4s" /><animate attributeName="stroke-dashoffset" from="150" to="0" dur="1.8s" begin="6.4s" fill="freeze" /></path></svg>