<svg id="kvg-066f0" class="kanjivg" viewBox="0 0 106 106" width="106" height="106" xmlns="http://www.w3.org/2000/svg" xmlns:xlink="http://www.w3.org/1999/xlink" xml:space="preserve" version="1.1" baseProfile="full"><defs><style type="text/css">path.black{fill:none;stroke:black;stroke-width:5;stroke-linecap:round;stroke-linejoin:round;}path.grey{fill:none;stroke:#ddd;stroke-width:5;stroke-linecap:round;stroke-linejoin:round;}path.stroke{fill:none;stroke:black;stroke-width:5;stroke-linecap:round;stroke-linejoin:round;}text{font-size:16px;font-family:Segoe UI Symbol,Cambria Math,DejaVu Sans,Symbola,Quivira,STIX,Code2000;-webkit-touch-callout:none;cursor:pointer;-webkit-user-select:none;-khtml-user-select:none;-moz-user-select:none;-ms-user-select:none;user-select: none;}text:hover{color:#777;}#reset{font-weight:bold;}</style><marker id="markerStart" markerWidth="8" markerHeight="8" style="overflow:visible;"><circle cx="0" cy="0" r="1.5" style="stroke:none;fill:red;fill-opacity:0.5;"/></marker><marker id="markerEnd" style="overflow:visible;"><circle cx="0" cy="0" r="0.8" style="stroke:none;fill:blue;fill-opacity:0.5;"><animate attributeName="opacity" from="1" to="0" dur="3s" repeatCount="indefinite" /></circle></marker></defs><path d="M21.44,30.04c0.44,0.82,0.45,1.39,0.7,2.43c2,8.53,2.87,36.08,4.11,51.99" class="grey" /><path d="M24,32.69c17.25-1.69,42.25-3.44,57.49-4.1c4.29-0.18,6.41,1.68,6.19,4.03c-0.8,8.6-4.44,35.13-8.21,49.39" class="grey" /><path d="M24.89,55.75c6.11-0.75,31.86-2.5,46.38-3.6c3.09-0.24,5.27,0.33,6.05,0.27" class="grey" /><path d="M26.54,81.14C39,80.75,63.75,79,79.48,78.41" class="grey" /><path d="M21.44,30.04c0.44,0.82,0.45,1.39,0.7,2.43c2,8.53,2.87,36.08,4.11,51.99" class="stroke" stroke-dasharray="150"><animate attributeName="stroke-dashoffset" from="150" to="0" dur="1.8s" begin="0.0s" fill="freeze" /></path><path d="M24,32.69c17.25-1.69,42.25-3.44,57.49-4.1c4.29-0.18,6.41,1.68,6.19,4.03c-0.8,8.6-4.44,35.13-8.21,49.39" class="stroke" stroke-dasharray="150"><set attributeName="opacity" to="0" dur="1.3s" /><animate attributeName="stroke-dashoffset" from="150" to="0" dur="1.8s" begin="1.3s" fill="freeze" /></path><path d="M24.89,55.75c6.11-0.75,31.86-2.5,46.38-3.6c3.09-0.24,5.27,0.33,6.05,0.27" class="stroke" stroke-dasharray="150"><set attributeName="opacity" to="0" dur="3.3s" /><animate attributeName="stroke-dashoffset" from="150" to="0" dur="1.8s" begin="3.3s" fill="freeze" /></path><path d="M26.54,81.14C39,80.75,63.75,79,79.48,78.41" class="stroke" stroke-dasharray="150"><set attributeName="opacity" to="0" dur="4.6s" /><animate attributeName="stroke-dashoffset" from="150" to="0" dur="1.8s" begin="4.6s" fill="freeze" /></path></svg>