<svg id="kvg-06708" class="kanjivg" viewBox="0 0 106 106" width="106" height="106" xmlns="http://www.w3.org/2000/svg" xmlns:xlink="http://www.w3.org/1999/xlink" xml:space="preserve" version="1.1" baseProfile="full"><defs><style type="text/css">path.black{fill:none;stroke:black;stroke-width:5;stroke-linecap:round;stroke-linejoin:round;}path.grey{fill:none;stroke:#ddd;stroke-width:5;stroke-linecap:round;stroke-linejoin:round;}path.stroke{fill:none;stroke:black;stroke-width:5;stroke-linecap:round;stroke-linejoin:round;}text{font-size:16px;font-family:Segoe UI Symbol,Cambria Math,DejaVu Sans,Symbola,Quivira,STIX,Code2000;-webkit-touch-callout:none;cursor:pointer;-webkit-user-select:none;-khtml-user-select:none;-moz-user-select:none;-ms-user-select:none;user-select: none;}text:hover{color:#777;}#reset{font-weight:bold;}</style><marker id="markerStart" markerWidth="8" markerHeight="8" style="overflow:visible;"><circle cx="0" cy="0" r="1.5" style="stroke:none;fill:red;fill-opacity:0.5;"/></marker><marker id="markerEnd" style="overflow:visible;"><circle cx="0" cy="0" r="0.8" style="stroke:none;fill:blue;fill-opacity:0.5;"><animate attributeName="opacity" from="1" to="0" dur="3s" repeatCount="indefinite" /></circle></marker></defs><path d="M34.25,16.25c1,1,1.48,2.38,1.5,4c0.38,33.62,2.38,59.38-11,73.25" class="grey" /><path d="M36.25,19c4.12-0.62,31.49-4.78,33.25-5c4-0.5,5.5,1.12,5.5,4.75c0,2.76-0.5,49.25-0.5,69.5c0,13-6.25,4-8.75,1.75" class="grey" /><path d="M37.25,38c10.25-1.5,27.25-3.75,36.25-4.5" class="grey" /><path d="M37,58.25c8.75-1.12,27-3.5,36.25-4" class="grey" /><path d="M34.25,16.25c1,1,1.48,2.38,1.5,4c0.38,33.62,2.38,59.38-11,73.25" class="stroke" stroke-dasharray="150"><animate attributeName="stroke-dashoffset" from="150" to="0" dur="1.8s" begin="0.0s" fill="freeze" /></path><path d="M36.25,19c4.12-0.62,31.49-4.78,33.25-5c4-0.5,5.5,1.12,5.5,4.75c0,2.76-0.5,49.25-0.5,69.5c0,13-6.25,4-8.75,1.75" class="stroke" stroke-dasharray="150"><set attributeName="opacity" to="0" dur="1.7s" /><animate attributeName="stroke-dashoffset" from="150" to="0" dur="1.8s" begin="1.7s" fill="freeze" /></path><path d="M37.25,38c10.25-1.5,27.25-3.75,36.25-4.5" class="stroke" stroke-dasharray="150"><set attributeName="opacity" to="0" dur="3.7s" /><animate attributeName="stroke-dashoffset" from="150" to="0" dur="1.8s" begin="3.7s" fill="freeze" /></path><path d="M37,58.25c8.75-1.12,27-3.5,36.25-4" class="stroke" stroke-dasharray="150"><set attributeName="opacity" to="0" dur="4.7s" /><animate attributeName="stroke-dashoffset" from="150" to="0" dur="1.8s" begin="4.7s" fill="freeze" /></path></svg>