<svg id="kvg-06708-Kaisho" class="kanjivg" viewBox="0 0 106 106" width="106" height="106" xmlns="http://www.w3.org/2000/svg" xmlns:xlink="http://www.w3.org/1999/xlink" xml:space="preserve" version="1.1" baseProfile="full"><defs><style type="text/css">path.black{fill:none;stroke:black;stroke-width:5;stroke-linecap:round;stroke-linejoin:round;}path.grey{fill:none;stroke:#ddd;stroke-width:5;stroke-linecap:round;stroke-linejoin:round;}path.stroke{fill:none;stroke:black;stroke-width:5;stroke-linecap:round;stroke-linejoin:round;}text{font-size:16px;font-family:Segoe UI Symbol,Cambria Math,DejaVu Sans,Symbola,Quivira,STIX,Code2000;-webkit-touch-callout:none;cursor:pointer;-webkit-user-select:none;-khtml-user-select:none;-moz-user-select:none;-ms-user-select:none;user-select: none;}text:hover{color:#777;}#reset{font-weight:bold;}</style><marker id="markerStart" markerWidth="8" markerHeight="8" style="overflow:visible;"><circle cx="0" cy="0" r="1.5" style="stroke:none;fill:red;fill-opacity:0.5;"/></marker><marker id="markerEnd" style="overflow:visible;"><circle cx="0" cy="0" r="0.8" style="stroke:none;fill:blue;fill-opacity:0.5;"><animate attributeName="opacity" from="1" to="0" dur="3s" repeatCount="indefinite" /></circle></marker></defs><path d="M34.25,16.75c0.75,1,1.25,2,1.5,3S36.1,58.25,36,60.5c-0.5,10.75-4.5,25.75-11.25,33" class="grey" /><path d="M37.25,18.75c3-0.25,30.52-4.47,32.75-4.75c4-0.5,5.5,3.25,5,4.75c-0.48,1.44-0.75,49.25-0.75,69.5c0,13-6,4.5-8.5,2.25" class="grey" /><path d="M37.25,38c6.15-0.9,12.31-1.74,18.47-2.53c1.65-0.21,3.29-0.42,4.89-0.61" class="grey" /><path d="M38,57.75c5.64-0.53,11.27-1.22,16.91-1.84c1.63-0.18,3.28-0.36,4.89-0.53" class="grey" /><path d="M34.25,16.75c0.75,1,1.25,2,1.5,3S36.1,58.25,36,60.5c-0.5,10.75-4.5,25.75-11.25,33" class="stroke" stroke-dasharray="150"><animate attributeName="stroke-dashoffset" from="150" to="0" dur="1.8s" begin="0.0s" fill="freeze" /></path><path d="M37.25,18.75c3-0.25,30.52-4.47,32.75-4.75c4-0.5,5.5,3.25,5,4.75c-0.48,1.44-0.75,49.25-0.75,69.5c0,13-6,4.5-8.5,2.25" class="stroke" stroke-dasharray="150"><set attributeName="opacity" to="0" dur="1.7s" /><animate attributeName="stroke-dashoffset" from="150" to="0" dur="1.8s" begin="1.7s" fill="freeze" /></path><path d="M37.25,38c6.15-0.9,12.31-1.74,18.47-2.53c1.65-0.21,3.29-0.42,4.89-0.61" class="stroke" stroke-dasharray="150"><set attributeName="opacity" to="0" dur="3.7s" /><animate attributeName="stroke-dashoffset" from="150" to="0" dur="1.8s" begin="3.7s" fill="freeze" /></path><path d="M38,57.75c5.64-0.53,11.27-1.22,16.91-1.84c1.63-0.18,3.28-0.36,4.89-0.53" class="stroke" stroke-dasharray="150"><set attributeName="opacity" to="0" dur="4.7s" /><animate attributeName="stroke-dashoffset" from="150" to="0" dur="1.8s" begin="4.7s" fill="freeze" /></path></svg>