<svg id="kvg-06728" class="kanjivg" viewBox="0 0 106 106" width="106" height="106" xmlns="http://www.w3.org/2000/svg" xmlns:xlink="http://www.w3.org/1999/xlink" xml:space="preserve" version="1.1" baseProfile="full"><defs><style type="text/css">path.black{fill:none;stroke:black;stroke-width:5;stroke-linecap:round;stroke-linejoin:round;}path.grey{fill:none;stroke:#ddd;stroke-width:5;stroke-linecap:round;stroke-linejoin:round;}path.stroke{fill:none;stroke:black;stroke-width:5;stroke-linecap:round;stroke-linejoin:round;}text{font-size:16px;font-family:Segoe UI Symbol,Cambria Math,DejaVu Sans,Symbola,Quivira,STIX,Code2000;-webkit-touch-callout:none;cursor:pointer;-webkit-user-select:none;-khtml-user-select:none;-moz-user-select:none;-ms-user-select:none;user-select: none;}text:hover{color:#777;}#reset{font-weight:bold;}</style><marker id="markerStart" markerWidth="8" markerHeight="8" style="overflow:visible;"><circle cx="0" cy="0" r="1.5" style="stroke:none;fill:red;fill-opacity:0.5;"/></marker><marker id="markerEnd" style="overflow:visible;"><circle cx="0" cy="0" r="0.8" style="stroke:none;fill:blue;fill-opacity:0.5;"><animate attributeName="opacity" from="1" to="0" dur="3s" repeatCount="indefinite" /></circle></marker></defs><path d="M19.5,39.86c2.45,0.57,5.23,0.8,8.04,0.57C40.75,39.38,63,36.5,79.78,36.15c2.8-0.06,4.54,0.1,7.34,0.5" class="grey" /><path d="M51.75,10.5c1.19,1.19,2,3,2,5c0,8.65,0,55.15-0.14,74.75c-0.03,4.19-0.07,7.15-0.11,8.25" class="grey" /><path d="M50.75,39.5c0,1.12-0.61,2.44-1.42,3.95C41.75,57.5,26.7,73.93,15.75,80.25" class="grey" /><path d="M54.5,39c4.62,6,23,25.75,31.76,34.61c2.27,2.29,4.61,4.39,7.49,5.64" class="grey" /><path d="M19.5,39.86c2.45,0.57,5.23,0.8,8.04,0.57C40.75,39.38,63,36.5,79.78,36.15c2.8-0.06,4.54,0.1,7.34,0.5" class="stroke" stroke-dasharray="150"><animate attributeName="stroke-dashoffset" from="150" to="0" dur="1.8s" begin="0.0s" fill="freeze" /></path><path d="M51.75,10.5c1.19,1.19,2,3,2,5c0,8.65,0,55.15-0.14,74.75c-0.03,4.19-0.07,7.15-0.11,8.25" class="stroke" stroke-dasharray="150"><set attributeName="opacity" to="0" dur="1.5s" /><animate attributeName="stroke-dashoffset" from="150" to="0" dur="1.8s" begin="1.5s" fill="freeze" /></path><path d="M50.75,39.5c0,1.12-0.61,2.44-1.42,3.95C41.75,57.5,26.7,73.93,15.75,80.25" class="stroke" stroke-dasharray="150"><set attributeName="opacity" to="0" dur="3.2s" /><animate attributeName="stroke-dashoffset" from="150" to="0" dur="1.8s" begin="3.2s" fill="freeze" /></path><path d="M54.5,39c4.62,6,23,25.75,31.76,34.61c2.27,2.29,4.61,4.39,7.49,5.64" class="stroke" stroke-dasharray="150"><set attributeName="opacity" to="0" dur="4.5s" /><animate attributeName="stroke-dashoffset" from="150" to="0" dur="1.8s" begin="4.5s" fill="freeze" /></path></svg>