<svg id="kvg-0672c" class="kanjivg" viewBox="0 0 106 106" width="106" height="106" xmlns="http://www.w3.org/2000/svg" xmlns:xlink="http://www.w3.org/1999/xlink" xml:space="preserve" version="1.1" baseProfile="full"><defs><style type="text/css">path.black{fill:none;stroke:black;stroke-width:5;stroke-linecap:round;stroke-linejoin:round;}path.grey{fill:none;stroke:#ddd;stroke-width:5;stroke-linecap:round;stroke-linejoin:round;}path.stroke{fill:none;stroke:black;stroke-width:5;stroke-linecap:round;stroke-linejoin:round;}text{font-size:16px;font-family:Segoe UI Symbol,Cambria Math,DejaVu Sans,Symbola,Quivira,STIX,Code2000;-webkit-touch-callout:none;cursor:pointer;-webkit-user-select:none;-khtml-user-select:none;-moz-user-select:none;-ms-user-select:none;user-select: none;}text:hover{color:#777;}#reset{font-weight:bold;}</style><marker id="markerStart" markerWidth="8" markerHeight="8" style="overflow:visible;"><circle cx="0" cy="0" r="1.5" style="stroke:none;fill:red;fill-opacity:0.5;"/></marker><marker id="markerEnd" style="overflow:visible;"><circle cx="0" cy="0" r="0.8" style="stroke:none;fill:blue;fill-opacity:0.5;"><animate attributeName="opacity" from="1" to="0" dur="3s" repeatCount="indefinite" /></circle></marker></defs><path d="M20.5,33.5c1.93,0.62,4.91,1.07,8.1,0.75C42.43,32.88,66,30.75,79.64,30c3.2-0.18,7.22,0.25,9.23,0.5" class="grey" /><path d="M52.1,11.12c1.25,1.25,2.05,3.23,2.05,4.99c0,0.84,0,57.16-0.02,76.76c-0.01,3.96-0.01,6.42-0.02,6.62" class="grey" /><path d="M51.75,33.5c0,1-0.41,2.22-1.29,3.88C43.62,50.25,30.12,65.5,13.25,75.5" class="grey" /><path d="M54.75,35.5c4.92,5.74,23.48,23.33,32.85,31.27c2.58,2.18,5.16,4.41,8.52,5.23" class="grey" /><path d="M33.88,73.92c1.5,0.46,2.74,0.75,5.3,0.59c9.95-0.63,21.2-2.13,27.96-2.95c1.93-0.23,3.62-0.31,6-0.02" class="grey" /><path d="M20.5,33.5c1.93,0.62,4.91,1.07,8.1,0.75C42.43,32.88,66,30.75,79.64,30c3.2-0.18,7.22,0.25,9.23,0.5" class="stroke" stroke-dasharray="150"><animate attributeName="stroke-dashoffset" from="150" to="0" dur="1.8s" begin="0.0s" fill="freeze" /></path><path d="M52.1,11.12c1.25,1.25,2.05,3.23,2.05,4.99c0,0.84,0,57.16-0.02,76.76c-0.01,3.96-0.01,6.42-0.02,6.62" class="stroke" stroke-dasharray="150"><set attributeName="opacity" to="0" dur="1.5s" /><animate attributeName="stroke-dashoffset" from="150" to="0" dur="1.8s" begin="1.5s" fill="freeze" /></path><path d="M51.75,33.5c0,1-0.41,2.22-1.29,3.88C43.62,50.25,30.12,65.5,13.25,75.5" class="stroke" stroke-dasharray="150"><set attributeName="opacity" to="0" dur="3.2s" /><animate attributeName="stroke-dashoffset" from="150" to="0" dur="1.8s" begin="3.2s" fill="freeze" /></path><path d="M54.75,35.5c4.92,5.74,23.48,23.33,32.85,31.27c2.58,2.18,5.16,4.41,8.52,5.23" class="stroke" stroke-dasharray="150"><set attributeName="opacity" to="0" dur="4.6s" /><animate attributeName="stroke-dashoffset" from="150" to="0" dur="1.8s" begin="4.6s" fill="freeze" /></path><path d="M33.88,73.92c1.5,0.46,2.74,0.75,5.3,0.59c9.95-0.63,21.2-2.13,27.96-2.95c1.93-0.23,3.62-0.31,6-0.02" class="stroke" stroke-dasharray="150"><set attributeName="opacity" to="0" dur="6.0s" /><animate attributeName="stroke-dashoffset" from="150" to="0" dur="1.8s" begin="6.0s" fill="freeze" /></path></svg>