<svg id="kvg-06751" class="kanjivg" viewBox="0 0 106 106" width="106" height="106" xmlns="http://www.w3.org/2000/svg" xmlns:xlink="http://www.w3.org/1999/xlink" xml:space="preserve" version="1.1" baseProfile="full"><defs><style type="text/css">path.black{fill:none;stroke:black;stroke-width:5;stroke-linecap:round;stroke-linejoin:round;}path.grey{fill:none;stroke:#ddd;stroke-width:5;stroke-linecap:round;stroke-linejoin:round;}path.stroke{fill:none;stroke:black;stroke-width:5;stroke-linecap:round;stroke-linejoin:round;}text{font-size:16px;font-family:Segoe UI Symbol,Cambria Math,DejaVu Sans,Symbola,Quivira,STIX,Code2000;-webkit-touch-callout:none;cursor:pointer;-webkit-user-select:none;-khtml-user-select:none;-moz-user-select:none;-ms-user-select:none;user-select: none;}text:hover{color:#777;}#reset{font-weight:bold;}</style><marker id="markerStart" markerWidth="8" markerHeight="8" style="overflow:visible;"><circle cx="0" cy="0" r="1.5" style="stroke:none;fill:red;fill-opacity:0.5;"/></marker><marker id="markerEnd" style="overflow:visible;"><circle cx="0" cy="0" r="0.8" style="stroke:none;fill:blue;fill-opacity:0.5;"><animate attributeName="opacity" from="1" to="0" dur="3s" repeatCount="indefinite" /></circle></marker></defs><path d="M12.78,39.23c1.97,0.4,3.24,0.35,4.68,0.23c6.92-0.58,18.93-1.85,28.85-2.73c1.44-0.13,1.8-0.18,2.71,0" class="grey" /><path d="M34.11,13.5c1.13,1.13,2.29,3,2.29,5.34c0,0.83-0.08,48.97-0.22,67.91c-0.03,3.54-0.05,6.55-0.08,7.5" class="grey" /><path d="M35.44,39.32c0,0.93-0.26,1.58-0.6,2.35C30.38,51.75,23,63.5,15.11,72.76" class="grey" /><path d="M40.72,48.97c2.53,1.53,6.78,7.28,8.66,11.26" class="grey" /><path d="M52.62,41.52c2.29,0.48,4.16,0.6,6.01,0.4c13.35-1.44,23.8-3.3,34.15-3.71c1.83-0.07,4.26-0.22,5.84,0.14" class="grey" /><path d="M79.89,13.25c1.49,1.49,2.26,3.12,2.26,5.52c0,14.56,0.32,65.91,0.24,70.87c-0.14,8.74-5.18,4.78-9.71,0.25" class="grey" /><path d="M59.58,56.78c2.74,2.07,7.07,8.52,7.75,11.75" class="grey" /><path d="M12.78,39.23c1.97,0.4,3.24,0.35,4.68,0.23c6.92-0.58,18.93-1.85,28.85-2.73c1.44-0.13,1.8-0.18,2.71,0" class="stroke" stroke-dasharray="150"><animate attributeName="stroke-dashoffset" from="150" to="0" dur="1.8s" begin="0.0s" fill="freeze" /></path><path d="M34.11,13.5c1.13,1.13,2.29,3,2.29,5.34c0,0.83-0.08,48.97-0.22,67.91c-0.03,3.54-0.05,6.55-0.08,7.5" class="stroke" stroke-dasharray="150"><set attributeName="opacity" to="0" dur="1.0s" /><animate attributeName="stroke-dashoffset" from="150" to="0" dur="1.8s" begin="1.0s" fill="freeze" /></path><path d="M35.44,39.32c0,0.93-0.26,1.58-0.6,2.35C30.38,51.75,23,63.5,15.11,72.76" class="stroke" stroke-dasharray="150"><set attributeName="opacity" to="0" dur="2.7s" /><animate attributeName="stroke-dashoffset" from="150" to="0" dur="1.8s" begin="2.7s" fill="freeze" /></path><path d="M40.72,48.97c2.53,1.53,6.78,7.28,8.66,11.26" class="stroke" stroke-dasharray="150"><set attributeName="opacity" to="0" dur="3.7s" /><animate attributeName="stroke-dashoffset" from="150" to="0" dur="1.8s" begin="3.7s" fill="freeze" /></path><path d="M52.62,41.52c2.29,0.48,4.16,0.6,6.01,0.4c13.35-1.44,23.8-3.3,34.15-3.71c1.83-0.07,4.26-0.22,5.84,0.14" class="stroke" stroke-dasharray="150"><set attributeName="opacity" to="0" dur="4.6000000000000005s" /><animate attributeName="stroke-dashoffset" from="150" to="0" dur="1.8s" begin="4.6000000000000005s" fill="freeze" /></path><path d="M79.89,13.25c1.49,1.49,2.26,3.12,2.26,5.52c0,14.56,0.32,65.91,0.24,70.87c-0.14,8.74-5.18,4.78-9.71,0.25" class="stroke" stroke-dasharray="150"><set attributeName="opacity" to="0" dur="5.800000000000001s" /><animate attributeName="stroke-dashoffset" from="150" to="0" dur="1.8s" begin="5.800000000000001s" fill="freeze" /></path><path d="M59.58,56.78c2.74,2.07,7.07,8.52,7.75,11.75" class="stroke" stroke-dasharray="150"><set attributeName="opacity" to="0" dur="7.6000000000000005s" /><animate attributeName="stroke-dashoffset" from="150" to="0" dur="1.8s" begin="7.6000000000000005s" fill="freeze" /></path></svg>