<svg id="kvg-06751-Kaisho" class="kanjivg" viewBox="0 0 106 106" width="106" height="106" xmlns="http://www.w3.org/2000/svg" xmlns:xlink="http://www.w3.org/1999/xlink" xml:space="preserve" version="1.1" baseProfile="full"><defs><style type="text/css">path.black{fill:none;stroke:black;stroke-width:5;stroke-linecap:round;stroke-linejoin:round;}path.grey{fill:none;stroke:#ddd;stroke-width:5;stroke-linecap:round;stroke-linejoin:round;}path.stroke{fill:none;stroke:black;stroke-width:5;stroke-linecap:round;stroke-linejoin:round;}text{font-size:16px;font-family:Segoe UI Symbol,Cambria Math,DejaVu Sans,Symbola,Quivira,STIX,Code2000;-webkit-touch-callout:none;cursor:pointer;-webkit-user-select:none;-khtml-user-select:none;-moz-user-select:none;-ms-user-select:none;user-select: none;}text:hover{color:#777;}#reset{font-weight:bold;}</style><marker id="markerStart" markerWidth="8" markerHeight="8" style="overflow:visible;"><circle cx="0" cy="0" r="1.5" style="stroke:none;fill:red;fill-opacity:0.5;"/></marker><marker id="markerEnd" style="overflow:visible;"><circle cx="0" cy="0" r="0.8" style="stroke:none;fill:blue;fill-opacity:0.5;"><animate attributeName="opacity" from="1" to="0" dur="3s" repeatCount="indefinite" /></circle></marker></defs><path d="M13.78,39.23c0.42,0.18,2.94,0.3,4.07,0.23c4.84-0.3,22.26-2.35,30.05-3.23c1.13-0.13,1.42-0.18,2.12,0" class="grey" /><path d="M33.36,13.5c0.91,0.48,2.86,3.63,3.04,4.59c0.18,0.97-0.3,69.34-0.3,70.41c0,13-5.72,3.88-7.35,2.25" class="grey" /><path d="M35.19,41.07c-6.14,13.14-10.35,19.01-19.08,30.19" class="grey" /><path d="M40.72,48.72c2.53,1.53,6.03,6.78,8.16,9.76" class="grey" /><path d="M54,41.93c0.83,0.49,4.34,0.6,5.19,0.49c12.56-1.67,20.56-3.42,36.4-4.69c1.38-0.11,2.22,0.23,2.91,0.48" class="grey" /><path d="M80.39,14.5c0.86,1,2.17,2.49,2.26,5.52c0.4,14.55-1.02,64.66-1.26,69.62c-0.15,3.03-1.71,4.25-3.96,4c-2.45-0.27-2.56-2.22-4.75-3.75" class="grey" /><path d="M59.58,56.78c2.74,2.07,7.07,8.52,7.75,11.75" class="grey" /><path d="M13.78,39.23c0.42,0.18,2.94,0.3,4.07,0.23c4.84-0.3,22.26-2.35,30.05-3.23c1.13-0.13,1.42-0.18,2.12,0" class="stroke" stroke-dasharray="150"><animate attributeName="stroke-dashoffset" from="150" to="0" dur="1.8s" begin="0.0s" fill="freeze" /></path><path d="M33.36,13.5c0.91,0.48,2.86,3.63,3.04,4.59c0.18,0.97-0.3,69.34-0.3,70.41c0,13-5.72,3.88-7.35,2.25" class="stroke" stroke-dasharray="150"><set attributeName="opacity" to="0" dur="1.0s" /><animate attributeName="stroke-dashoffset" from="150" to="0" dur="1.8s" begin="1.0s" fill="freeze" /></path><path d="M35.19,41.07c-6.14,13.14-10.35,19.01-19.08,30.19" class="stroke" stroke-dasharray="150"><set attributeName="opacity" to="0" dur="2.8s" /><animate attributeName="stroke-dashoffset" from="150" to="0" dur="1.8s" begin="2.8s" fill="freeze" /></path><path d="M40.72,48.72c2.53,1.53,6.03,6.78,8.16,9.76" class="stroke" stroke-dasharray="150"><set attributeName="opacity" to="0" dur="3.8s" /><animate attributeName="stroke-dashoffset" from="150" to="0" dur="1.8s" begin="3.8s" fill="freeze" /></path><path d="M54,41.93c0.83,0.49,4.34,0.6,5.19,0.49c12.56-1.67,20.56-3.42,36.4-4.69c1.38-0.11,2.22,0.23,2.91,0.48" class="stroke" stroke-dasharray="150"><set attributeName="opacity" to="0" dur="4.7s" /><animate attributeName="stroke-dashoffset" from="150" to="0" dur="1.8s" begin="4.7s" fill="freeze" /></path><path d="M80.39,14.5c0.86,1,2.17,2.49,2.26,5.52c0.4,14.55-1.02,64.66-1.26,69.62c-0.15,3.03-1.71,4.25-3.96,4c-2.45-0.27-2.56-2.22-4.75-3.75" class="stroke" stroke-dasharray="150"><set attributeName="opacity" to="0" dur="5.800000000000001s" /><animate attributeName="stroke-dashoffset" from="150" to="0" dur="1.8s" begin="5.800000000000001s" fill="freeze" /></path><path d="M59.58,56.78c2.74,2.07,7.07,8.52,7.75,11.75" class="stroke" stroke-dasharray="150"><set attributeName="opacity" to="0" dur="7.500000000000001s" /><animate attributeName="stroke-dashoffset" from="150" to="0" dur="1.8s" begin="7.500000000000001s" fill="freeze" /></path></svg>