<svg id="kvg-06821" class="kanjivg" viewBox="0 0 106 106" width="106" height="106" xmlns="http://www.w3.org/2000/svg" xmlns:xlink="http://www.w3.org/1999/xlink" xml:space="preserve" version="1.1" baseProfile="full"><defs><style type="text/css">path.black{fill:none;stroke:black;stroke-width:5;stroke-linecap:round;stroke-linejoin:round;}path.grey{fill:none;stroke:#ddd;stroke-width:5;stroke-linecap:round;stroke-linejoin:round;}path.stroke{fill:none;stroke:black;stroke-width:5;stroke-linecap:round;stroke-linejoin:round;}text{font-size:16px;font-family:Segoe UI Symbol,Cambria Math,DejaVu Sans,Symbola,Quivira,STIX,Code2000;-webkit-touch-callout:none;cursor:pointer;-webkit-user-select:none;-khtml-user-select:none;-moz-user-select:none;-ms-user-select:none;user-select: none;}text:hover{color:#777;}#reset{font-weight:bold;}</style><marker id="markerStart" markerWidth="8" markerHeight="8" style="overflow:visible;"><circle cx="0" cy="0" r="1.5" style="stroke:none;fill:red;fill-opacity:0.5;"/></marker><marker id="markerEnd" style="overflow:visible;"><circle cx="0" cy="0" r="0.8" style="stroke:none;fill:blue;fill-opacity:0.5;"><animate attributeName="opacity" from="1" to="0" dur="3s" repeatCount="indefinite" /></circle></marker></defs><path d="M11.53,40.68c1.1,0.32,2.6,0.45,4.53,0.32c5.4-0.35,16.57-3,23.14-4.04c1.25-0.2,2.3-0.18,3.07,0" class="grey" /><path d="M28.99,17.25c1.07,1.07,1.76,3.25,1.76,5.25c0,0.77-0.03,48.09-0.18,65.25c-0.03,3.03-0.05,5.16-0.07,6" class="grey" /><path d="M30.25,40.75c0,1.25-0.49,2.66-0.96,3.77C25.28,53.91,20.88,62.25,15,70" class="grey" /><path d="M33.75,51.25c2.75,1.5,6,5.25,7.25,7.75" class="grey" /><path d="M66.39,15.5c0.99,0.99,1.38,1.88,1.38,3.62c0,4.25-0.02,7.62-0.08,10.41" class="grey" /><path d="M48.12,31.71c2.3,0.29,3.9,0.44,6.09,0.2c10.28-1.16,20.32-2.66,32.45-3.53c2.35-0.17,4.03-0.01,5.33,0.32" class="grey" /><path d="M59.24,38.93c0.2,0.53,0.06,2.27-0.4,3.14C57,45.5,53.75,49.5,50,52.5" class="grey" /><path d="M79.27,38.5c4.34,3.07,8.73,8.68,10.9,12.41" class="grey" /><path d="M79.15,49.18c0.35,1.32,0.17,2.62-0.54,4.18C72.25,67.25,58.75,83.25,44,91.25" class="grey" /><path d="M55.95,55.88c6.3,3.37,21.64,22.12,31.45,30.33c2.64,2.21,5.07,4.15,8.6,4.44" class="grey" /><path d="M11.53,40.68c1.1,0.32,2.6,0.45,4.53,0.32c5.4-0.35,16.57-3,23.14-4.04c1.25-0.2,2.3-0.18,3.07,0" class="stroke" stroke-dasharray="150"><animate attributeName="stroke-dashoffset" from="150" to="0" dur="1.8s" begin="0.0s" fill="freeze" /></path><path d="M28.99,17.25c1.07,1.07,1.76,3.25,1.76,5.25c0,0.77-0.03,48.09-0.18,65.25c-0.03,3.03-0.05,5.16-0.07,6" class="stroke" stroke-dasharray="150"><set attributeName="opacity" to="0" dur="1.0s" /><animate attributeName="stroke-dashoffset" from="150" to="0" dur="1.8s" begin="1.0s" fill="freeze" /></path><path d="M30.25,40.75c0,1.25-0.49,2.66-0.96,3.77C25.28,53.91,20.88,62.25,15,70" class="stroke" stroke-dasharray="150"><set attributeName="opacity" to="0" dur="2.7s" /><animate attributeName="stroke-dashoffset" from="150" to="0" dur="1.8s" begin="2.7s" fill="freeze" /></path><path d="M33.75,51.25c2.75,1.5,6,5.25,7.25,7.75" class="stroke" stroke-dasharray="150"><set attributeName="opacity" to="0" dur="3.7s" /><animate attributeName="stroke-dashoffset" from="150" to="0" dur="1.8s" begin="3.7s" fill="freeze" /></path><path d="M66.39,15.5c0.99,0.99,1.38,1.88,1.38,3.62c0,4.25-0.02,7.62-0.08,10.41" class="stroke" stroke-dasharray="150"><set attributeName="opacity" to="0" dur="4.6000000000000005s" /><animate attributeName="stroke-dashoffset" from="150" to="0" dur="1.8s" begin="4.6000000000000005s" fill="freeze" /></path><path d="M48.12,31.71c2.3,0.29,3.9,0.44,6.09,0.2c10.28-1.16,20.32-2.66,32.45-3.53c2.35-0.17,4.03-0.01,5.33,0.32" class="stroke" stroke-dasharray="150"><set attributeName="opacity" to="0" dur="5.500000000000001s" /><animate attributeName="stroke-dashoffset" from="150" to="0" dur="1.8s" begin="5.500000000000001s" fill="freeze" /></path><path d="M59.24,38.93c0.2,0.53,0.06,2.27-0.4,3.14C57,45.5,53.75,49.5,50,52.5" class="stroke" stroke-dasharray="150"><set attributeName="opacity" to="0" dur="6.600000000000001s" /><animate attributeName="stroke-dashoffset" from="150" to="0" dur="1.8s" begin="6.600000000000001s" fill="freeze" /></path><path d="M79.27,38.5c4.34,3.07,8.73,8.68,10.9,12.41" class="stroke" stroke-dasharray="150"><set attributeName="opacity" to="0" dur="7.500000000000002s" /><animate attributeName="stroke-dashoffset" from="150" to="0" dur="1.8s" begin="7.500000000000002s" fill="freeze" /></path><path d="M79.15,49.18c0.35,1.32,0.17,2.62-0.54,4.18C72.25,67.25,58.75,83.25,44,91.25" class="stroke" stroke-dasharray="150"><set attributeName="opacity" to="0" dur="8.400000000000002s" /><animate attributeName="stroke-dashoffset" from="150" to="0" dur="1.8s" begin="8.400000000000002s" fill="freeze" /></path><path d="M55.95,55.88c6.3,3.37,21.64,22.12,31.45,30.33c2.64,2.21,5.07,4.15,8.6,4.44" class="stroke" stroke-dasharray="150"><set attributeName="opacity" to="0" dur="9.800000000000002s" /><animate attributeName="stroke-dashoffset" from="150" to="0" dur="1.8s" begin="9.800000000000002s" fill="freeze" /></path></svg>