<svg id="kvg-068ee" class="kanjivg" viewBox="0 0 106 106" width="106" height="106" xmlns="http://www.w3.org/2000/svg" xmlns:xlink="http://www.w3.org/1999/xlink" xml:space="preserve" version="1.1" baseProfile="full"><defs><style type="text/css">path.black{fill:none;stroke:black;stroke-width:5;stroke-linecap:round;stroke-linejoin:round;}path.grey{fill:none;stroke:#ddd;stroke-width:5;stroke-linecap:round;stroke-linejoin:round;}path.stroke{fill:none;stroke:black;stroke-width:5;stroke-linecap:round;stroke-linejoin:round;}text{font-size:16px;font-family:Segoe UI Symbol,Cambria Math,DejaVu Sans,Symbola,Quivira,STIX,Code2000;-webkit-touch-callout:none;cursor:pointer;-webkit-user-select:none;-khtml-user-select:none;-moz-user-select:none;-ms-user-select:none;user-select: none;}text:hover{color:#777;}#reset{font-weight:bold;}</style><marker id="markerStart" markerWidth="8" markerHeight="8" style="overflow:visible;"><circle cx="0" cy="0" r="1.5" style="stroke:none;fill:red;fill-opacity:0.5;"/></marker><marker id="markerEnd" style="overflow:visible;"><circle cx="0" cy="0" r="0.8" style="stroke:none;fill:blue;fill-opacity:0.5;"><animate attributeName="opacity" from="1" to="0" dur="3s" repeatCount="indefinite" /></circle></marker></defs><path d="M30.12,23.67c0.87,0.24,4.4,0.62,6.7,0.33c11.37-1.4,20.02-2,36.05-3.21c2.32-0.18,2.92-0.24,4.37,0" class="grey" /><path d="M52.75,10C53.5,10.75,54,11.75,54,13.16c0,4.34,0.06,22-0.15,31.6c-0.03,1.48-0.07,2.69-0.1,3.5" class="grey" /><path d="M51.5,22.9c0,1.1-0.27,1.78-0.81,2.41C43,34.25,31.34,41.69,20.5,45.5" class="grey" /><path d="M56,24.4c5.25,4.35,22.25,15.35,29.03,17.6c1.77,0.59,3.07,1.25,4.72,1.5" class="grey" /><path d="M12.46,61.06c0.77,0.22,3.1,0.42,5.14,0.25c6.65-0.56,15.15-1.69,23.13-2.49c2.04-0.21,3.85-0.42,5.13-0.2" class="grey" /><path d="M32.61,46.29c0.86,0.86,1.42,1.96,1.42,3.16c0,0.79,0.06,31.46-0.14,44.06c-0.03,2.17-0.07,3.78-0.1,4.6" class="grey" /><path d="M33.07,60.68c0,1.2-0.44,2.02-1.04,3.12C28,71.12,19.75,83,13.5,88" class="grey" /><path d="M37.61,67.19c2.08,1.43,4.69,4.07,6.51,6.31" class="grey" /><path d="M52.28,59.98c1.72,0.14,2.82,0.09,4.54-0.08c8.93-0.91,17.81-1.66,26.47-2.43c2.01-0.18,3.77-0.22,5.04,0" class="grey" /><path d="M68.12,42.75c1.07,1.06,1.42,2.62,1.42,3.91c0,0.8,0.06,35.28-0.15,48.09c-0.03,2.01-0.06,3.49-0.1,4.25" class="grey" /><path d="M67.84,59.75c0,1-0.19,1.62-0.81,2.87c-4.52,9.22-14.61,21.74-21.78,26.14" class="grey" /><path d="M69.77,58.93c7.05,10.52,18.34,24.02,24.07,28.17c1.63,1.18,2.55,2,3.92,2.4" class="grey" /><path d="M30.12,23.67c0.87,0.24,4.4,0.62,6.7,0.33c11.37-1.4,20.02-2,36.05-3.21c2.32-0.18,2.92-0.24,4.37,0" class="stroke" stroke-dasharray="150"><animate attributeName="stroke-dashoffset" from="150" to="0" dur="1.8s" begin="0.0s" fill="freeze" /></path><path d="M52.75,10C53.5,10.75,54,11.75,54,13.16c0,4.34,0.06,22-0.15,31.6c-0.03,1.48-0.07,2.69-0.1,3.5" class="stroke" stroke-dasharray="150"><set attributeName="opacity" to="0" dur="1.2s" /><animate attributeName="stroke-dashoffset" from="150" to="0" dur="1.8s" begin="1.2s" fill="freeze" /></path><path d="M51.5,22.9c0,1.1-0.27,1.78-0.81,2.41C43,34.25,31.34,41.69,20.5,45.5" class="stroke" stroke-dasharray="150"><set attributeName="opacity" to="0" dur="2.2s" /><animate attributeName="stroke-dashoffset" from="150" to="0" dur="1.8s" begin="2.2s" fill="freeze" /></path><path d="M56,24.4c5.25,4.35,22.25,15.35,29.03,17.6c1.77,0.59,3.07,1.25,4.72,1.5" class="stroke" stroke-dasharray="150"><set attributeName="opacity" to="0" dur="3.2s" /><animate attributeName="stroke-dashoffset" from="150" to="0" dur="1.8s" begin="3.2s" fill="freeze" /></path><path d="M12.46,61.06c0.77,0.22,3.1,0.42,5.14,0.25c6.65-0.56,15.15-1.69,23.13-2.49c2.04-0.21,3.85-0.42,5.13-0.2" class="stroke" stroke-dasharray="150"><set attributeName="opacity" to="0" dur="4.2s" /><animate attributeName="stroke-dashoffset" from="150" to="0" dur="1.8s" begin="4.2s" fill="freeze" /></path><path d="M32.61,46.29c0.86,0.86,1.42,1.96,1.42,3.16c0,0.79,0.06,31.46-0.14,44.06c-0.03,2.17-0.07,3.78-0.1,4.6" class="stroke" stroke-dasharray="150"><set attributeName="opacity" to="0" dur="5.2s" /><animate attributeName="stroke-dashoffset" from="150" to="0" dur="1.8s" begin="5.2s" fill="freeze" /></path><path d="M33.07,60.68c0,1.2-0.44,2.02-1.04,3.12C28,71.12,19.75,83,13.5,88" class="stroke" stroke-dasharray="150"><set attributeName="opacity" to="0" dur="6.5s" /><animate attributeName="stroke-dashoffset" from="150" to="0" dur="1.8s" begin="6.5s" fill="freeze" /></path><path d="M37.61,67.19c2.08,1.43,4.69,4.07,6.51,6.31" class="stroke" stroke-dasharray="150"><set attributeName="opacity" to="0" dur="7.5s" /><animate attributeName="stroke-dashoffset" from="150" to="0" dur="1.8s" begin="7.5s" fill="freeze" /></path><path d="M52.28,59.98c1.72,0.14,2.82,0.09,4.54-0.08c8.93-0.91,17.81-1.66,26.47-2.43c2.01-0.18,3.77-0.22,5.04,0" class="stroke" stroke-dasharray="150"><set attributeName="opacity" to="0" dur="8.4s" /><animate attributeName="stroke-dashoffset" from="150" to="0" dur="1.8s" begin="8.4s" fill="freeze" /></path><path d="M68.12,42.75c1.07,1.06,1.42,2.62,1.42,3.91c0,0.8,0.06,35.28-0.15,48.09c-0.03,2.01-0.06,3.49-0.1,4.25" class="stroke" stroke-dasharray="150"><set attributeName="opacity" to="0" dur="9.4s" /><animate attributeName="stroke-dashoffset" from="150" to="0" dur="1.8s" begin="9.4s" fill="freeze" /></path><path d="M67.84,59.75c0,1-0.19,1.62-0.81,2.87c-4.52,9.22-14.61,21.74-21.78,26.14" class="stroke" stroke-dasharray="150"><set attributeName="opacity" to="0" dur="10.8s" /><animate attributeName="stroke-dashoffset" from="150" to="0" dur="1.8s" begin="10.8s" fill="freeze" /></path><path d="M69.77,58.93c7.05,10.52,18.34,24.02,24.07,28.17c1.63,1.18,2.55,2,3.92,2.4" class="stroke" stroke-dasharray="150"><set attributeName="opacity" to="0" dur="11.8s" /><animate attributeName="stroke-dashoffset" from="150" to="0" dur="1.8s" begin="11.8s" fill="freeze" /></path></svg>