<svg id="kvg-068ee-Kaisho" class="kanjivg" viewBox="0 0 106 106" width="106" height="106" xmlns="http://www.w3.org/2000/svg" xmlns:xlink="http://www.w3.org/1999/xlink" xml:space="preserve" version="1.1" baseProfile="full"><defs><style type="text/css">path.black{fill:none;stroke:black;stroke-width:5;stroke-linecap:round;stroke-linejoin:round;}path.grey{fill:none;stroke:#ddd;stroke-width:5;stroke-linecap:round;stroke-linejoin:round;}path.stroke{fill:none;stroke:black;stroke-width:5;stroke-linecap:round;stroke-linejoin:round;}text{font-size:16px;font-family:Segoe UI Symbol,Cambria Math,DejaVu Sans,Symbola,Quivira,STIX,Code2000;-webkit-touch-callout:none;cursor:pointer;-webkit-user-select:none;-khtml-user-select:none;-moz-user-select:none;-ms-user-select:none;user-select: none;}text:hover{color:#777;}#reset{font-weight:bold;}</style><marker id="markerStart" markerWidth="8" markerHeight="8" style="overflow:visible;"><circle cx="0" cy="0" r="1.5" style="stroke:none;fill:red;fill-opacity:0.5;"/></marker><marker id="markerEnd" style="overflow:visible;"><circle cx="0" cy="0" r="0.8" style="stroke:none;fill:blue;fill-opacity:0.5;"><animate attributeName="opacity" from="1" to="0" dur="3s" repeatCount="indefinite" /></circle></marker></defs><path d="M31.75,23.92c0.75,0.24,3.77,0.62,5.75,0.33c9.75-1.4,21.75-2.25,35.5-3.46c1.99-0.18,2.5-0.24,3.75,0" class="grey" /><path d="M52.75,10c0.75,1.25,1,2.18,1.25,3.16s0,34.03-0.25,35.09" class="grey" /><path d="M51.25,24.65c-5.41,7-19.49,16.9-30.75,20.85" class="grey" /><path d="M60.5,27.65c4.9,2.2,12.73,10.15,16.28,14.6" class="grey" /><path d="M12.96,61.56c0.72,0.22,2.91,0.19,4.83,0c6.76-0.67,15.75-1.79,22.99-2.24c1.93-0.12,3.38-0.67,4.59-0.45" class="grey" /><path d="M31.86,46.04c1.21,0.45,1.93,2.01,2.17,2.91c0.24,0.89-0.24,38.57-0.24,44.16c0,11.14-3.92,3.27-5.29,1.89" class="grey" /><path d="M33.07,63.18C29.92,70.52,20.55,82.84,14,87" class="grey" /><path d="M37.86,67.69c1.88,1.14,4.24,3.27,5.89,5.06" class="grey" /><path d="M52.4,59.98c0.59,0.22,1.87,0.09,3.44,0.17c4.31,0.22,17.81-1.57,28.58-2.68c1.56-0.16,2.92-0.22,3.9,0" class="grey" /><path d="M67.37,43.25c1.21,0.45,1.93,2.01,2.17,2.91C69.78,47.05,69.3,87.41,69.3,93c0,10.75-3.68,3.12-5.3,1.5" class="grey" /><path d="M67.84,60.5c-3.51,9.73-14.44,23.27-22.59,28.25" class="grey" /><path d="M69.77,58.93c7.05,10.52,18.34,24.02,24.07,28.17c1.63,1.18,2.55,2,3.92,2.4" class="grey" /><path d="M31.75,23.92c0.75,0.24,3.77,0.62,5.75,0.33c9.75-1.4,21.75-2.25,35.5-3.46c1.99-0.18,2.5-0.24,3.75,0" class="stroke" stroke-dasharray="150"><animate attributeName="stroke-dashoffset" from="150" to="0" dur="1.8s" begin="0.0s" fill="freeze" /></path><path d="M52.75,10c0.75,1.25,1,2.18,1.25,3.16s0,34.03-0.25,35.09" class="stroke" stroke-dasharray="150"><set attributeName="opacity" to="0" dur="1.2s" /><animate attributeName="stroke-dashoffset" from="150" to="0" dur="1.8s" begin="1.2s" fill="freeze" /></path><path d="M51.25,24.65c-5.41,7-19.49,16.9-30.75,20.85" class="stroke" stroke-dasharray="150"><set attributeName="opacity" to="0" dur="2.2s" /><animate attributeName="stroke-dashoffset" from="150" to="0" dur="1.8s" begin="2.2s" fill="freeze" /></path><path d="M60.5,27.65c4.9,2.2,12.73,10.15,16.28,14.6" class="stroke" stroke-dasharray="150"><set attributeName="opacity" to="0" dur="3.2s" /><animate attributeName="stroke-dashoffset" from="150" to="0" dur="1.8s" begin="3.2s" fill="freeze" /></path><path d="M12.96,61.56c0.72,0.22,2.91,0.19,4.83,0c6.76-0.67,15.75-1.79,22.99-2.24c1.93-0.12,3.38-0.67,4.59-0.45" class="stroke" stroke-dasharray="150"><set attributeName="opacity" to="0" dur="4.2s" /><animate attributeName="stroke-dashoffset" from="150" to="0" dur="1.8s" begin="4.2s" fill="freeze" /></path><path d="M31.86,46.04c1.21,0.45,1.93,2.01,2.17,2.91c0.24,0.89-0.24,38.57-0.24,44.16c0,11.14-3.92,3.27-5.29,1.89" class="stroke" stroke-dasharray="150"><set attributeName="opacity" to="0" dur="5.2s" /><animate attributeName="stroke-dashoffset" from="150" to="0" dur="1.8s" begin="5.2s" fill="freeze" /></path><path d="M33.07,63.18C29.92,70.52,20.55,82.84,14,87" class="stroke" stroke-dasharray="150"><set attributeName="opacity" to="0" dur="6.6s" /><animate attributeName="stroke-dashoffset" from="150" to="0" dur="1.8s" begin="6.6s" fill="freeze" /></path><path d="M37.86,67.69c1.88,1.14,4.24,3.27,5.89,5.06" class="stroke" stroke-dasharray="150"><set attributeName="opacity" to="0" dur="7.6s" /><animate attributeName="stroke-dashoffset" from="150" to="0" dur="1.8s" begin="7.6s" fill="freeze" /></path><path d="M52.4,59.98c0.59,0.22,1.87,0.09,3.44,0.17c4.31,0.22,17.81-1.57,28.58-2.68c1.56-0.16,2.92-0.22,3.9,0" class="stroke" stroke-dasharray="150"><set attributeName="opacity" to="0" dur="8.5s" /><animate attributeName="stroke-dashoffset" from="150" to="0" dur="1.8s" begin="8.5s" fill="freeze" /></path><path d="M67.37,43.25c1.21,0.45,1.93,2.01,2.17,2.91C69.78,47.05,69.3,87.41,69.3,93c0,10.75-3.68,3.12-5.3,1.5" class="stroke" stroke-dasharray="150"><set attributeName="opacity" to="0" dur="9.5s" /><animate attributeName="stroke-dashoffset" from="150" to="0" dur="1.8s" begin="9.5s" fill="freeze" /></path><path d="M67.84,60.5c-3.51,9.73-14.44,23.27-22.59,28.25" class="stroke" stroke-dasharray="150"><set attributeName="opacity" to="0" dur="11.0s" /><animate attributeName="stroke-dashoffset" from="150" to="0" dur="1.8s" begin="11.0s" fill="freeze" /></path><path d="M69.77,58.93c7.05,10.52,18.34,24.02,24.07,28.17c1.63,1.18,2.55,2,3.92,2.4" class="stroke" stroke-dasharray="150"><set attributeName="opacity" to="0" dur="12.0s" /><animate attributeName="stroke-dashoffset" from="150" to="0" dur="1.8s" begin="12.0s" fill="freeze" /></path></svg>