<svg id="kvg-06b20" class="kanjivg" viewBox="0 0 106 106" width="106" height="106" xmlns="http://www.w3.org/2000/svg" xmlns:xlink="http://www.w3.org/1999/xlink" xml:space="preserve" version="1.1" baseProfile="full"><defs><style type="text/css">path.black{fill:none;stroke:black;stroke-width:5;stroke-linecap:round;stroke-linejoin:round;}path.grey{fill:none;stroke:#ddd;stroke-width:5;stroke-linecap:round;stroke-linejoin:round;}path.stroke{fill:none;stroke:black;stroke-width:5;stroke-linecap:round;stroke-linejoin:round;}text{font-size:16px;font-family:Segoe UI Symbol,Cambria Math,DejaVu Sans,Symbola,Quivira,STIX,Code2000;-webkit-touch-callout:none;cursor:pointer;-webkit-user-select:none;-khtml-user-select:none;-moz-user-select:none;-ms-user-select:none;user-select: none;}text:hover{color:#777;}#reset{font-weight:bold;}</style><marker id="markerStart" markerWidth="8" markerHeight="8" style="overflow:visible;"><circle cx="0" cy="0" r="1.5" style="stroke:none;fill:red;fill-opacity:0.5;"/></marker><marker id="markerEnd" style="overflow:visible;"><circle cx="0" cy="0" r="0.8" style="stroke:none;fill:blue;fill-opacity:0.5;"><animate attributeName="opacity" from="1" to="0" dur="3s" repeatCount="indefinite" /></circle></marker></defs><path d="M40.75,14.62c0.05,0.85,0.11,1.94-0.11,3.17C39.31,25,31.94,40.57,21.5,50.25" class="grey" /><path d="M36.97,34.99c1.28,0.36,3.69,0.65,5.62,0.36c7.41-1.1,26.66-5.1,32.96-6.04c7.61-1.14,4.94,4.44-5.06,13.44" class="grey" /><path d="M51.37,45.88c0.35,1.52,0.31,2.66,0.06,4.33C49.85,60.57,38.06,82.1,17.5,94" class="grey" /><path d="M51.5,58.75c5.62,5.75,20.25,19.88,30.76,28.73c2.5,2.1,5.36,4.15,8.61,4.9" class="grey" /><path d="M40.75,14.62c0.05,0.85,0.11,1.94-0.11,3.17C39.31,25,31.94,40.57,21.5,50.25" class="stroke" stroke-dasharray="150"><animate attributeName="stroke-dashoffset" from="150" to="0" dur="1.8s" begin="0.0s" fill="freeze" /></path><path d="M36.97,34.99c1.28,0.36,3.69,0.65,5.62,0.36c7.41-1.1,26.66-5.1,32.96-6.04c7.61-1.14,4.94,4.44-5.06,13.44" class="stroke" stroke-dasharray="150"><set attributeName="opacity" to="0" dur="1.1s" /><animate attributeName="stroke-dashoffset" from="150" to="0" dur="1.8s" begin="1.1s" fill="freeze" /></path><path d="M51.37,45.88c0.35,1.52,0.31,2.66,0.06,4.33C49.85,60.57,38.06,82.1,17.5,94" class="stroke" stroke-dasharray="150"><set attributeName="opacity" to="0" dur="2.5s" /><animate attributeName="stroke-dashoffset" from="150" to="0" dur="1.8s" begin="2.5s" fill="freeze" /></path><path d="M51.5,58.75c5.62,5.75,20.25,19.88,30.76,28.73c2.5,2.1,5.36,4.15,8.61,4.9" class="stroke" stroke-dasharray="150"><set attributeName="opacity" to="0" dur="4.0s" /><animate attributeName="stroke-dashoffset" from="150" to="0" dur="1.8s" begin="4.0s" fill="freeze" /></path></svg>