<svg id="kvg-06b63-HzFst" class="kanjivg" viewBox="0 0 106 106" width="106" height="106" xmlns="http://www.w3.org/2000/svg" xmlns:xlink="http://www.w3.org/1999/xlink" xml:space="preserve" version="1.1" baseProfile="full"><defs><style type="text/css">path.black{fill:none;stroke:black;stroke-width:5;stroke-linecap:round;stroke-linejoin:round;}path.grey{fill:none;stroke:#ddd;stroke-width:5;stroke-linecap:round;stroke-linejoin:round;}path.stroke{fill:none;stroke:black;stroke-width:5;stroke-linecap:round;stroke-linejoin:round;}text{font-size:16px;font-family:Segoe UI Symbol,Cambria Math,DejaVu Sans,Symbola,Quivira,STIX,Code2000;-webkit-touch-callout:none;cursor:pointer;-webkit-user-select:none;-khtml-user-select:none;-moz-user-select:none;-ms-user-select:none;user-select: none;}text:hover{color:#777;}#reset{font-weight:bold;}</style><marker id="markerStart" markerWidth="8" markerHeight="8" style="overflow:visible;"><circle cx="0" cy="0" r="1.5" style="stroke:none;fill:red;fill-opacity:0.5;"/></marker><marker id="markerEnd" style="overflow:visible;"><circle cx="0" cy="0" r="0.8" style="stroke:none;fill:blue;fill-opacity:0.5;"><animate attributeName="opacity" from="1" to="0" dur="3s" repeatCount="indefinite" /></circle></marker></defs><path d="M26.63,24.79c1.08,0.4,3.07,0.45,4.16,0.4c10.87-0.59,34.82-4.31,50.05-4.54c1.81-0.03,2.89,0.19,3.79,0.39" class="grey" /><path d="M58.63,53.57c0.43,0.16,1.22,0.24,1.65,0.16c1.74-0.31,11.62-1.79,19.85-1.84c0.72,0,1.15,0.08,1.5,0.16" class="grey" /><path d="M53.71,24.37c0.09,0.48,1.17,2.5,1.26,5.54c0.4,14.61-0.26,52.87-0.26,57.84" class="grey" /><path d="M28.29,56.87c0.09,0.25,1.25,1.32,1.33,2.92c0.43,7.7,0.23,27.85,0.23,30.47" class="grey" /><path d="M15.75,90.5c1.5,0.5,4.74,1.23,6.16,1.11c5.84-0.48,37.94-3.3,65.59-3.36c2.41-0.01,4.5,0.75,5.75,1.5" class="grey" /><path d="M26.63,24.79c1.08,0.4,3.07,0.45,4.16,0.4c10.87-0.59,34.82-4.31,50.05-4.54c1.81-0.03,2.89,0.19,3.79,0.39" class="stroke" stroke-dasharray="150"><animate attributeName="stroke-dashoffset" from="150" to="0" dur="1.8s" begin="0.0s" fill="freeze" /></path><path d="M58.63,53.57c0.43,0.16,1.22,0.24,1.65,0.16c1.74-0.31,11.62-1.79,19.85-1.84c0.72,0,1.15,0.08,1.5,0.16" class="stroke" stroke-dasharray="150"><set attributeName="opacity" to="0" dur="1.4s" /><animate attributeName="stroke-dashoffset" from="150" to="0" dur="1.8s" begin="1.4s" fill="freeze" /></path><path d="M53.71,24.37c0.09,0.48,1.17,2.5,1.26,5.54c0.4,14.61-0.26,52.87-0.26,57.84" class="stroke" stroke-dasharray="150"><set attributeName="opacity" to="0" dur="2.4s" /><animate attributeName="stroke-dashoffset" from="150" to="0" dur="1.8s" begin="2.4s" fill="freeze" /></path><path d="M28.29,56.87c0.09,0.25,1.25,1.32,1.33,2.92c0.43,7.7,0.23,27.85,0.23,30.47" class="stroke" stroke-dasharray="150"><set attributeName="opacity" to="0" dur="3.9s" /><animate attributeName="stroke-dashoffset" from="150" to="0" dur="1.8s" begin="3.9s" fill="freeze" /></path><path d="M15.75,90.5c1.5,0.5,4.74,1.23,6.16,1.11c5.84-0.48,37.94-3.3,65.59-3.36c2.41-0.01,4.5,0.75,5.75,1.5" class="stroke" stroke-dasharray="150"><set attributeName="opacity" to="0" dur="4.9s" /><animate attributeName="stroke-dashoffset" from="150" to="0" dur="1.8s" begin="4.9s" fill="freeze" /></path></svg>