<svg id="kvg-06b62-HzFst" class="kanjivg" viewBox="0 0 106 106" width="106" height="106" xmlns="http://www.w3.org/2000/svg" xmlns:xlink="http://www.w3.org/1999/xlink" xml:space="preserve" version="1.1" baseProfile="full"><defs><style type="text/css">path.black{fill:none;stroke:black;stroke-width:5;stroke-linecap:round;stroke-linejoin:round;}path.grey{fill:none;stroke:#ddd;stroke-width:5;stroke-linecap:round;stroke-linejoin:round;}path.stroke{fill:none;stroke:black;stroke-width:5;stroke-linecap:round;stroke-linejoin:round;}text{font-size:16px;font-family:Segoe UI Symbol,Cambria Math,DejaVu Sans,Symbola,Quivira,STIX,Code2000;-webkit-touch-callout:none;cursor:pointer;-webkit-user-select:none;-khtml-user-select:none;-moz-user-select:none;-ms-user-select:none;user-select: none;}text:hover{color:#777;}#reset{font-weight:bold;}</style><marker id="markerStart" markerWidth="8" markerHeight="8" style="overflow:visible;"><circle cx="0" cy="0" r="1.5" style="stroke:none;fill:red;fill-opacity:0.5;"/></marker><marker id="markerEnd" style="overflow:visible;"><circle cx="0" cy="0" r="0.8" style="stroke:none;fill:blue;fill-opacity:0.5;"><animate attributeName="opacity" from="1" to="0" dur="3s" repeatCount="indefinite" /></circle></marker></defs><path d="M55.88,50c7.12-0.75,17.87-2.25,24.85-3c1.73-0.19,2.18-0.25,3.26,0" class="grey" /><path d="M53.37,16.5c1.09,0.5,1.74,2.25,1.96,3.25c0.22,1,0,61.75-0.22,68" class="grey" /><path d="M31.37,47.75c1.09,0.5,1.74,2.25,1.96,3.25c0.22,1,0,31.75-0.22,38" class="grey" /><path d="M14,90.5c0.82,0.25,3.02,0.84,5.2,0.75c11.8-0.5,51.3-5,66.3-5c2.19,0,6,0.5,7.25,0.75" class="grey" /><path d="M55.88,50c7.12-0.75,17.87-2.25,24.85-3c1.73-0.19,2.18-0.25,3.26,0" class="stroke" stroke-dasharray="150"><animate attributeName="stroke-dashoffset" from="150" to="0" dur="1.8s" begin="0.0s" fill="freeze" /></path><path d="M53.37,16.5c1.09,0.5,1.74,2.25,1.96,3.25c0.22,1,0,61.75-0.22,68" class="stroke" stroke-dasharray="150"><set attributeName="opacity" to="0" dur="1.0s" /><animate attributeName="stroke-dashoffset" from="150" to="0" dur="1.8s" begin="1.0s" fill="freeze" /></path><path d="M31.37,47.75c1.09,0.5,1.74,2.25,1.96,3.25c0.22,1,0,31.75-0.22,38" class="stroke" stroke-dasharray="150"><set attributeName="opacity" to="0" dur="2.7s" /><animate attributeName="stroke-dashoffset" from="150" to="0" dur="1.8s" begin="2.7s" fill="freeze" /></path><path d="M14,90.5c0.82,0.25,3.02,0.84,5.2,0.75c11.8-0.5,51.3-5,66.3-5c2.19,0,6,0.5,7.25,0.75" class="stroke" stroke-dasharray="150"><set attributeName="opacity" to="0" dur="3.8000000000000003s" /><animate attributeName="stroke-dashoffset" from="150" to="0" dur="1.8s" begin="3.8000000000000003s" fill="freeze" /></path></svg>