<svg id="kvg-06b79" class="kanjivg" viewBox="0 0 106 106" width="106" height="106" xmlns="http://www.w3.org/2000/svg" xmlns:xlink="http://www.w3.org/1999/xlink" xml:space="preserve" version="1.1" baseProfile="full"><defs><style type="text/css">path.black{fill:none;stroke:black;stroke-width:5;stroke-linecap:round;stroke-linejoin:round;}path.grey{fill:none;stroke:#ddd;stroke-width:5;stroke-linecap:round;stroke-linejoin:round;}path.stroke{fill:none;stroke:black;stroke-width:5;stroke-linecap:round;stroke-linejoin:round;}text{font-size:16px;font-family:Segoe UI Symbol,Cambria Math,DejaVu Sans,Symbola,Quivira,STIX,Code2000;-webkit-touch-callout:none;cursor:pointer;-webkit-user-select:none;-khtml-user-select:none;-moz-user-select:none;-ms-user-select:none;user-select: none;}text:hover{color:#777;}#reset{font-weight:bold;}</style><marker id="markerStart" markerWidth="8" markerHeight="8" style="overflow:visible;"><circle cx="0" cy="0" r="1.5" style="stroke:none;fill:red;fill-opacity:0.5;"/></marker><marker id="markerEnd" style="overflow:visible;"><circle cx="0" cy="0" r="0.8" style="stroke:none;fill:blue;fill-opacity:0.5;"><animate attributeName="opacity" from="1" to="0" dur="3s" repeatCount="indefinite" /></circle></marker></defs><path d="M13.75,23.2c1.52,0.54,4.31,0.72,5.82,0.54c12.68-1.49,55.93-4.99,70.11-5.23c2.53-0.04,4.05,0.26,5.31,0.53" class="grey" /><path d="M50.4,23.64c0.3,0.7,0.6,2.85,0.08,4.19C47,37,37.23,53.89,22.06,64.97" class="grey" /><path d="M49.6,39.02c0.41,0.05,2.62,0,3.78-0.15c3.79-0.47,14.37-1.87,20.85-2.69c3.82-0.48,4.46,2.35,3.52,5.06C72.55,56.13,46.66,91.33,23.5,99" class="grey" /><path d="M39.52,55.33c5.31,2.58,13.72,10.62,15.04,14.63" class="grey" /><path d="M13.75,23.2c1.52,0.54,4.31,0.72,5.82,0.54c12.68-1.49,55.93-4.99,70.11-5.23c2.53-0.04,4.05,0.26,5.31,0.53" class="stroke" stroke-dasharray="150"><animate attributeName="stroke-dashoffset" from="150" to="0" dur="1.8s" begin="0.0s" fill="freeze" /></path><path d="M50.4,23.64c0.3,0.7,0.6,2.85,0.08,4.19C47,37,37.23,53.89,22.06,64.97" class="stroke" stroke-dasharray="150"><set attributeName="opacity" to="0" dur="1.7s" /><animate attributeName="stroke-dashoffset" from="150" to="0" dur="1.8s" begin="1.7s" fill="freeze" /></path><path d="M49.6,39.02c0.41,0.05,2.62,0,3.78-0.15c3.79-0.47,14.37-1.87,20.85-2.69c3.82-0.48,4.46,2.35,3.52,5.06C72.55,56.13,46.66,91.33,23.5,99" class="stroke" stroke-dasharray="150"><set attributeName="opacity" to="0" dur="3.0s" /><animate attributeName="stroke-dashoffset" from="150" to="0" dur="1.8s" begin="3.0s" fill="freeze" /></path><path d="M39.52,55.33c5.31,2.58,13.72,10.62,15.04,14.63" class="stroke" stroke-dasharray="150"><set attributeName="opacity" to="0" dur="5.0s" /><animate attributeName="stroke-dashoffset" from="150" to="0" dur="1.8s" begin="5.0s" fill="freeze" /></path></svg>