<svg id="kvg-06bb3" class="kanjivg" viewBox="0 0 106 106" width="106" height="106" xmlns="http://www.w3.org/2000/svg" xmlns:xlink="http://www.w3.org/1999/xlink" xml:space="preserve" version="1.1" baseProfile="full"><defs><style type="text/css">path.black{fill:none;stroke:black;stroke-width:5;stroke-linecap:round;stroke-linejoin:round;}path.grey{fill:none;stroke:#ddd;stroke-width:5;stroke-linecap:round;stroke-linejoin:round;}path.stroke{fill:none;stroke:black;stroke-width:5;stroke-linecap:round;stroke-linejoin:round;}text{font-size:16px;font-family:Segoe UI Symbol,Cambria Math,DejaVu Sans,Symbola,Quivira,STIX,Code2000;-webkit-touch-callout:none;cursor:pointer;-webkit-user-select:none;-khtml-user-select:none;-moz-user-select:none;-ms-user-select:none;user-select: none;}text:hover{color:#777;}#reset{font-weight:bold;}</style><marker id="markerStart" markerWidth="8" markerHeight="8" style="overflow:visible;"><circle cx="0" cy="0" r="1.5" style="stroke:none;fill:red;fill-opacity:0.5;"/></marker><marker id="markerEnd" style="overflow:visible;"><circle cx="0" cy="0" r="0.8" style="stroke:none;fill:blue;fill-opacity:0.5;"><animate attributeName="opacity" from="1" to="0" dur="3s" repeatCount="indefinite" /></circle></marker></defs><path d="M37.77,13.64c0.48,0.86,0.96,2.74,0.92,4c-0.35,13.02-4.02,28.02-14.8,33.49" class="grey" /><path d="M39.67,16c3.33,0.33,20.77-1.66,23-2.33c3.33-1,5.01,2.12,4.67,4.33c-0.67,4.33-1,11.67-1,16c0,6,1.67,10.33,12.67,10.33c13,0,12.67-0.67,12.67-13" class="grey" /><path d="M33,55.25c2,0.4,2.25,0.99,6.25,0.4s24.25-3.24,27-3.83c2.75-0.59,4.98,2.3,3.75,4.35c-12.67,21.17-29,33.17-53,43" class="grey" /><path d="M35.92,61.37c5.08,0.87,29.9,24.21,47.59,33.77c2.75,1.49,4.76,2.48,7.33,2.98" class="grey" /><path d="M37.77,13.64c0.48,0.86,0.96,2.74,0.92,4c-0.35,13.02-4.02,28.02-14.8,33.49" class="stroke" stroke-dasharray="150"><animate attributeName="stroke-dashoffset" from="150" to="0" dur="1.8s" begin="0.0s" fill="freeze" /></path><path d="M39.67,16c3.33,0.33,20.77-1.66,23-2.33c3.33-1,5.01,2.12,4.67,4.33c-0.67,4.33-1,11.67-1,16c0,6,1.67,10.33,12.67,10.33c13,0,12.67-0.67,12.67-13" class="stroke" stroke-dasharray="150"><set attributeName="opacity" to="0" dur="1.1s" /><animate attributeName="stroke-dashoffset" from="150" to="0" dur="1.8s" begin="1.1s" fill="freeze" /></path><path d="M33,55.25c2,0.4,2.25,0.99,6.25,0.4s24.25-3.24,27-3.83c2.75-0.59,4.98,2.3,3.75,4.35c-12.67,21.17-29,33.17-53,43" class="stroke" stroke-dasharray="150"><set attributeName="opacity" to="0" dur="2.8s" /><animate attributeName="stroke-dashoffset" from="150" to="0" dur="1.8s" begin="2.8s" fill="freeze" /></path><path d="M35.92,61.37c5.08,0.87,29.9,24.21,47.59,33.77c2.75,1.49,4.76,2.48,7.33,2.98" class="stroke" stroke-dasharray="150"><set attributeName="opacity" to="0" dur="4.8s" /><animate attributeName="stroke-dashoffset" from="150" to="0" dur="1.8s" begin="4.8s" fill="freeze" /></path></svg>