<svg id="kvg-06bd4" class="kanjivg" viewBox="0 0 106 106" width="106" height="106" xmlns="http://www.w3.org/2000/svg" xmlns:xlink="http://www.w3.org/1999/xlink" xml:space="preserve" version="1.1" baseProfile="full"><defs><style type="text/css">path.black{fill:none;stroke:black;stroke-width:5;stroke-linecap:round;stroke-linejoin:round;}path.grey{fill:none;stroke:#ddd;stroke-width:5;stroke-linecap:round;stroke-linejoin:round;}path.stroke{fill:none;stroke:black;stroke-width:5;stroke-linecap:round;stroke-linejoin:round;}text{font-size:16px;font-family:Segoe UI Symbol,Cambria Math,DejaVu Sans,Symbola,Quivira,STIX,Code2000;-webkit-touch-callout:none;cursor:pointer;-webkit-user-select:none;-khtml-user-select:none;-moz-user-select:none;-ms-user-select:none;user-select: none;}text:hover{color:#777;}#reset{font-weight:bold;}</style><marker id="markerStart" markerWidth="8" markerHeight="8" style="overflow:visible;"><circle cx="0" cy="0" r="1.5" style="stroke:none;fill:red;fill-opacity:0.5;"/></marker><marker id="markerEnd" style="overflow:visible;"><circle cx="0" cy="0" r="0.8" style="stroke:none;fill:blue;fill-opacity:0.5;"><animate attributeName="opacity" from="1" to="0" dur="3s" repeatCount="indefinite" /></circle></marker></defs><path d="M29.25,49.75c5.98-0.66,12-3,17.21-4.11c1.53-0.33,2.5-0.32,3.29-0.13" class="grey" /><path d="M24.5,23.5c1,1,1.51,2.45,1.51,4.07c0,4.45-0.34,50.16-0.34,57.09c0,5.82-0.75,5.98,4.33,3.33c6.25-3.25,11.07-5.89,15.67-8" class="grey" /><path d="M86.84,37.94c0.03,1.06-0.53,2.19-1.51,2.98C82.75,43,72.38,49.38,63.67,53.67" class="grey" /><path d="M59.25,16.25c1.25,1.25,1.58,3,1.58,4.58c0,11.29-0.11,45.92-0.11,54.98c0,16.44,0.78,17.94,17.03,17.94c15.5,0,17-3,17-13.88" class="grey" /><path d="M29.25,49.75c5.98-0.66,12-3,17.21-4.11c1.53-0.33,2.5-0.32,3.29-0.13" class="stroke" stroke-dasharray="150"><animate attributeName="stroke-dashoffset" from="150" to="0" dur="1.8s" begin="0.0s" fill="freeze" /></path><path d="M24.5,23.5c1,1,1.51,2.45,1.51,4.07c0,4.45-0.34,50.16-0.34,57.09c0,5.82-0.75,5.98,4.33,3.33c6.25-3.25,11.07-5.89,15.67-8" class="stroke" stroke-dasharray="150"><set attributeName="opacity" to="0" dur="1.0s" /><animate attributeName="stroke-dashoffset" from="150" to="0" dur="1.8s" begin="1.0s" fill="freeze" /></path><path d="M86.84,37.94c0.03,1.06-0.53,2.19-1.51,2.98C82.75,43,72.38,49.38,63.67,53.67" class="stroke" stroke-dasharray="150"><set attributeName="opacity" to="0" dur="2.7s" /><animate attributeName="stroke-dashoffset" from="150" to="0" dur="1.8s" begin="2.7s" fill="freeze" /></path><path d="M59.25,16.25c1.25,1.25,1.58,3,1.58,4.58c0,11.29-0.11,45.92-0.11,54.98c0,16.44,0.78,17.94,17.03,17.94c15.5,0,17-3,17-13.88" class="stroke" stroke-dasharray="150"><set attributeName="opacity" to="0" dur="3.7s" /><animate attributeName="stroke-dashoffset" from="150" to="0" dur="1.8s" begin="3.7s" fill="freeze" /></path></svg>