<svg id="kvg-06bd4-Kaisho" class="kanjivg" viewBox="0 0 106 106" width="106" height="106" xmlns="http://www.w3.org/2000/svg" xmlns:xlink="http://www.w3.org/1999/xlink" xml:space="preserve" version="1.1" baseProfile="full"><defs><style type="text/css">path.black{fill:none;stroke:black;stroke-width:5;stroke-linecap:round;stroke-linejoin:round;}path.grey{fill:none;stroke:#ddd;stroke-width:5;stroke-linecap:round;stroke-linejoin:round;}path.stroke{fill:none;stroke:black;stroke-width:5;stroke-linecap:round;stroke-linejoin:round;}text{font-size:16px;font-family:Segoe UI Symbol,Cambria Math,DejaVu Sans,Symbola,Quivira,STIX,Code2000;-webkit-touch-callout:none;cursor:pointer;-webkit-user-select:none;-khtml-user-select:none;-moz-user-select:none;-ms-user-select:none;user-select: none;}text:hover{color:#777;}#reset{font-weight:bold;}</style><marker id="markerStart" markerWidth="8" markerHeight="8" style="overflow:visible;"><circle cx="0" cy="0" r="1.5" style="stroke:none;fill:red;fill-opacity:0.5;"/></marker><marker id="markerEnd" style="overflow:visible;"><circle cx="0" cy="0" r="0.8" style="stroke:none;fill:blue;fill-opacity:0.5;"><animate attributeName="opacity" from="1" to="0" dur="3s" repeatCount="indefinite" /></circle></marker></defs><path d="M29.25,49.5c5.98-0.66,12-3,17.21-4.11c1.53-0.33,2.5-0.32,3.29-0.13" class="grey" /><path d="M24,23.25c1.07,1.19,2.01,2.45,2.01,4.07c0,4.45-0.34,50.41-0.34,57.34c0,5.82-0.75,5.98,4.33,3.33c6.25-3.25,11.07-5.89,15.67-8" class="grey" /><path d="M61.25,50.25c7.88-0.66,15.8-3,22.67-4.11c2.02-0.33,3.3-0.32,4.33-0.13" class="grey" /><path d="M59,16c1.25,1.25,2.33,3.25,2.33,4.83c0,4.17-0.86,48.33-0.86,53.23c0,22.86,9.33,19.69,17.78,19.69c6.55,0,13.2-0.65,15.67-4.17" class="grey" /><path d="M29.25,49.5c5.98-0.66,12-3,17.21-4.11c1.53-0.33,2.5-0.32,3.29-0.13" class="stroke" stroke-dasharray="150"><animate attributeName="stroke-dashoffset" from="150" to="0" dur="1.8s" begin="0.0s" fill="freeze" /></path><path d="M24,23.25c1.07,1.19,2.01,2.45,2.01,4.07c0,4.45-0.34,50.41-0.34,57.34c0,5.82-0.75,5.98,4.33,3.33c6.25-3.25,11.07-5.89,15.67-8" class="stroke" stroke-dasharray="150"><set attributeName="opacity" to="0" dur="1.0s" /><animate attributeName="stroke-dashoffset" from="150" to="0" dur="1.8s" begin="1.0s" fill="freeze" /></path><path d="M61.25,50.25c7.88-0.66,15.8-3,22.67-4.11c2.02-0.33,3.3-0.32,4.33-0.13" class="stroke" stroke-dasharray="150"><set attributeName="opacity" to="0" dur="2.7s" /><animate attributeName="stroke-dashoffset" from="150" to="0" dur="1.8s" begin="2.7s" fill="freeze" /></path><path d="M59,16c1.25,1.25,2.33,3.25,2.33,4.83c0,4.17-0.86,48.33-0.86,53.23c0,22.86,9.33,19.69,17.78,19.69c6.55,0,13.2-0.65,15.67-4.17" class="stroke" stroke-dasharray="150"><set attributeName="opacity" to="0" dur="3.7s" /><animate attributeName="stroke-dashoffset" from="150" to="0" dur="1.8s" begin="3.7s" fill="freeze" /></path></svg>