<svg id="kvg-06c0f" class="kanjivg" viewBox="0 0 106 106" width="106" height="106" xmlns="http://www.w3.org/2000/svg" xmlns:xlink="http://www.w3.org/1999/xlink" xml:space="preserve" version="1.1" baseProfile="full"><defs><style type="text/css">path.black{fill:none;stroke:black;stroke-width:5;stroke-linecap:round;stroke-linejoin:round;}path.grey{fill:none;stroke:#ddd;stroke-width:5;stroke-linecap:round;stroke-linejoin:round;}path.stroke{fill:none;stroke:black;stroke-width:5;stroke-linecap:round;stroke-linejoin:round;}text{font-size:16px;font-family:Segoe UI Symbol,Cambria Math,DejaVu Sans,Symbola,Quivira,STIX,Code2000;-webkit-touch-callout:none;cursor:pointer;-webkit-user-select:none;-khtml-user-select:none;-moz-user-select:none;-ms-user-select:none;user-select: none;}text:hover{color:#777;}#reset{font-weight:bold;}</style><marker id="markerStart" markerWidth="8" markerHeight="8" style="overflow:visible;"><circle cx="0" cy="0" r="1.5" style="stroke:none;fill:red;fill-opacity:0.5;"/></marker><marker id="markerEnd" style="overflow:visible;"><circle cx="0" cy="0" r="0.8" style="stroke:none;fill:blue;fill-opacity:0.5;"><animate attributeName="opacity" from="1" to="0" dur="3s" repeatCount="indefinite" /></circle></marker></defs><path d="M66.12,12.62c0,0.88-0.35,1.83-0.96,2.31C58,20.62,46.88,26.25,27,32.75" class="grey" /><path d="M23.5,30c1.19,1.19,1.5,3,1.5,5.25c0,6-0.75,40.88-0.75,48.5c0,3.5,0.25,4.5,3.5,2S39.5,77,41.5,75.5" class="grey" /><path d="M27.88,51.13c2.5,0.62,5.64,0.41,8.01-0.01c10.74-1.87,26.47-4.84,37.72-5.69c2.53-0.19,5.19-0.44,7.67,0.22" class="grey" /><path d="M46.5,28.5c1,1.12,2,2.87,2.47,4.47C54.26,50.81,67.02,81.53,86.75,93c8.75,5.09,6.5-4,6.5-7" class="grey" /><path d="M66.12,12.62c0,0.88-0.35,1.83-0.96,2.31C58,20.62,46.88,26.25,27,32.75" class="stroke" stroke-dasharray="150"><animate attributeName="stroke-dashoffset" from="150" to="0" dur="1.8s" begin="0.0s" fill="freeze" /></path><path d="M23.5,30c1.19,1.19,1.5,3,1.5,5.25c0,6-0.75,40.88-0.75,48.5c0,3.5,0.25,4.5,3.5,2S39.5,77,41.5,75.5" class="stroke" stroke-dasharray="150"><set attributeName="opacity" to="0" dur="1.1s" /><animate attributeName="stroke-dashoffset" from="150" to="0" dur="1.8s" begin="1.1s" fill="freeze" /></path><path d="M27.88,51.13c2.5,0.62,5.64,0.41,8.01-0.01c10.74-1.87,26.47-4.84,37.72-5.69c2.53-0.19,5.19-0.44,7.67,0.22" class="stroke" stroke-dasharray="150"><set attributeName="opacity" to="0" dur="2.8s" /><animate attributeName="stroke-dashoffset" from="150" to="0" dur="1.8s" begin="2.8s" fill="freeze" /></path><path d="M46.5,28.5c1,1.12,2,2.87,2.47,4.47C54.26,50.81,67.02,81.53,86.75,93c8.75,5.09,6.5-4,6.5-7" class="stroke" stroke-dasharray="150"><set attributeName="opacity" to="0" dur="4.1s" /><animate attributeName="stroke-dashoffset" from="150" to="0" dur="1.8s" begin="4.1s" fill="freeze" /></path></svg>