<svg id="kvg-06c14" class="kanjivg" viewBox="0 0 106 106" width="106" height="106" xmlns="http://www.w3.org/2000/svg" xmlns:xlink="http://www.w3.org/1999/xlink" xml:space="preserve" version="1.1" baseProfile="full"><defs><style type="text/css">path.black{fill:none;stroke:black;stroke-width:5;stroke-linecap:round;stroke-linejoin:round;}path.grey{fill:none;stroke:#ddd;stroke-width:5;stroke-linecap:round;stroke-linejoin:round;}path.stroke{fill:none;stroke:black;stroke-width:5;stroke-linecap:round;stroke-linejoin:round;}text{font-size:16px;font-family:Segoe UI Symbol,Cambria Math,DejaVu Sans,Symbola,Quivira,STIX,Code2000;-webkit-touch-callout:none;cursor:pointer;-webkit-user-select:none;-khtml-user-select:none;-moz-user-select:none;-ms-user-select:none;user-select: none;}text:hover{color:#777;}#reset{font-weight:bold;}</style><marker id="markerStart" markerWidth="8" markerHeight="8" style="overflow:visible;"><circle cx="0" cy="0" r="1.5" style="stroke:none;fill:red;fill-opacity:0.5;"/></marker><marker id="markerEnd" style="overflow:visible;"><circle cx="0" cy="0" r="0.8" style="stroke:none;fill:blue;fill-opacity:0.5;"><animate attributeName="opacity" from="1" to="0" dur="3s" repeatCount="indefinite" /></circle></marker></defs><path d="M39.17,8.69c0.33,1.81,0.15,4.16-0.65,5.42C36.3,17.6,26,34,18.25,41" class="grey" /><path d="M38.5,23.25c0.97-0.09,3.07-0.2,4.28-0.34c8.54-0.97,22.45-3.04,32.73-3.74c1.04-0.07,3.04-0.13,3.99-0.17" class="grey" /><path d="M38,36.5c0.93,0.03,2.04,0.02,3.28-0.1c7.22-0.65,20.19-2.8,27.47-3.62c1.34-0.15,3.53-0.25,4.5-0.29" class="grey" /><path d="M27.5,51.73c1.15,0.45,3.4,0.71,5,0.52c12.93-1.58,31.49-3.9,42.35-5.26c2.98-0.37,3.18,1.05,2.7,2.81C72.25,69,80,86,91.21,95.16c7.7,6.29,7.29,1.59,6.04-7.25" class="grey" /><path d="M39.17,8.69c0.33,1.81,0.15,4.16-0.65,5.42C36.3,17.6,26,34,18.25,41" class="stroke" stroke-dasharray="150"><animate attributeName="stroke-dashoffset" from="150" to="0" dur="1.8s" begin="0.0s" fill="freeze" /></path><path d="M38.5,23.25c0.97-0.09,3.07-0.2,4.28-0.34c8.54-0.97,22.45-3.04,32.73-3.74c1.04-0.07,3.04-0.13,3.99-0.17" class="stroke" stroke-dasharray="150"><set attributeName="opacity" to="0" dur="1.0s" /><animate attributeName="stroke-dashoffset" from="150" to="0" dur="1.8s" begin="1.0s" fill="freeze" /></path><path d="M38,36.5c0.93,0.03,2.04,0.02,3.28-0.1c7.22-0.65,20.19-2.8,27.47-3.62c1.34-0.15,3.53-0.25,4.5-0.29" class="stroke" stroke-dasharray="150"><set attributeName="opacity" to="0" dur="2.1s" /><animate attributeName="stroke-dashoffset" from="150" to="0" dur="1.8s" begin="2.1s" fill="freeze" /></path><path d="M27.5,51.73c1.15,0.45,3.4,0.71,5,0.52c12.93-1.58,31.49-3.9,42.35-5.26c2.98-0.37,3.18,1.05,2.7,2.81C72.25,69,80,86,91.21,95.16c7.7,6.29,7.29,1.59,6.04-7.25" class="stroke" stroke-dasharray="150"><set attributeName="opacity" to="0" dur="3.1s" /><animate attributeName="stroke-dashoffset" from="150" to="0" dur="1.8s" begin="3.1s" fill="freeze" /></path></svg>