<svg id="kvg-0722a" class="kanjivg" viewBox="0 0 106 106" width="106" height="106" xmlns="http://www.w3.org/2000/svg" xmlns:xlink="http://www.w3.org/1999/xlink" xml:space="preserve" version="1.1" baseProfile="full"><defs><style type="text/css">path.black{fill:none;stroke:black;stroke-width:5;stroke-linecap:round;stroke-linejoin:round;}path.grey{fill:none;stroke:#ddd;stroke-width:5;stroke-linecap:round;stroke-linejoin:round;}path.stroke{fill:none;stroke:black;stroke-width:5;stroke-linecap:round;stroke-linejoin:round;}text{font-size:16px;font-family:Segoe UI Symbol,Cambria Math,DejaVu Sans,Symbola,Quivira,STIX,Code2000;-webkit-touch-callout:none;cursor:pointer;-webkit-user-select:none;-khtml-user-select:none;-moz-user-select:none;-ms-user-select:none;user-select: none;}text:hover{color:#777;}#reset{font-weight:bold;}</style><marker id="markerStart" markerWidth="8" markerHeight="8" style="overflow:visible;"><circle cx="0" cy="0" r="1.5" style="stroke:none;fill:red;fill-opacity:0.5;"/></marker><marker id="markerEnd" style="overflow:visible;"><circle cx="0" cy="0" r="0.8" style="stroke:none;fill:blue;fill-opacity:0.5;"><animate attributeName="opacity" from="1" to="0" dur="3s" repeatCount="indefinite" /></circle></marker></defs><path d="M70.76,14.5c0.09,0.38-0.14,1.59-0.69,2.02c-6.8,5.33-16.85,10.73-34.57,15.03" class="grey" /><path d="M31.13,30.75c0.62,0.75,1.82,2.06,1.73,4.2C32,55.75,30,82.75,11.56,94.72" class="grey" /><path d="M51.12,29.75c1.35,0.62,2.43,2.76,2.43,4.03c0,6.47-0.27,50.97-0.27,61.47" class="grey" /><path d="M64,27.75c0.31,0,1.2,0.64,1.68,1.78C72,44.5,81.5,68.75,92.66,86.22c1.71,2.68,4.16,3.98,5.59,4.78" class="grey" /><path d="M70.76,14.5c0.09,0.38-0.14,1.59-0.69,2.02c-6.8,5.33-16.85,10.73-34.57,15.03" class="stroke" stroke-dasharray="150"><animate attributeName="stroke-dashoffset" from="150" to="0" dur="1.8s" begin="0.0s" fill="freeze" /></path><path d="M31.13,30.75c0.62,0.75,1.82,2.06,1.73,4.2C32,55.75,30,82.75,11.56,94.72" class="stroke" stroke-dasharray="150"><set attributeName="opacity" to="0" dur="1.1s" /><animate attributeName="stroke-dashoffset" from="150" to="0" dur="1.8s" begin="1.1s" fill="freeze" /></path><path d="M51.12,29.75c1.35,0.62,2.43,2.76,2.43,4.03c0,6.47-0.27,50.97-0.27,61.47" class="stroke" stroke-dasharray="150"><set attributeName="opacity" to="0" dur="2.8s" /><animate attributeName="stroke-dashoffset" from="150" to="0" dur="1.8s" begin="2.8s" fill="freeze" /></path><path d="M64,27.75c0.31,0,1.2,0.64,1.68,1.78C72,44.5,81.5,68.75,92.66,86.22c1.71,2.68,4.16,3.98,5.59,4.78" class="stroke" stroke-dasharray="150"><set attributeName="opacity" to="0" dur="4.3s" /><animate attributeName="stroke-dashoffset" from="150" to="0" dur="1.8s" begin="4.3s" fill="freeze" /></path></svg>