<svg id="kvg-0723b" class="kanjivg" viewBox="0 0 106 106" width="106" height="106" xmlns="http://www.w3.org/2000/svg" xmlns:xlink="http://www.w3.org/1999/xlink" xml:space="preserve" version="1.1" baseProfile="full"><defs><style type="text/css">path.black{fill:none;stroke:black;stroke-width:5;stroke-linecap:round;stroke-linejoin:round;}path.grey{fill:none;stroke:#ddd;stroke-width:5;stroke-linecap:round;stroke-linejoin:round;}path.stroke{fill:none;stroke:black;stroke-width:5;stroke-linecap:round;stroke-linejoin:round;}text{font-size:16px;font-family:Segoe UI Symbol,Cambria Math,DejaVu Sans,Symbola,Quivira,STIX,Code2000;-webkit-touch-callout:none;cursor:pointer;-webkit-user-select:none;-khtml-user-select:none;-moz-user-select:none;-ms-user-select:none;user-select: none;}text:hover{color:#777;}#reset{font-weight:bold;}</style><marker id="markerStart" markerWidth="8" markerHeight="8" style="overflow:visible;"><circle cx="0" cy="0" r="1.5" style="stroke:none;fill:red;fill-opacity:0.5;"/></marker><marker id="markerEnd" style="overflow:visible;"><circle cx="0" cy="0" r="0.8" style="stroke:none;fill:blue;fill-opacity:0.5;"><animate attributeName="opacity" from="1" to="0" dur="3s" repeatCount="indefinite" /></circle></marker></defs><path d="M73.16,9.14c0.15,0.8,0.31,2.06-0.3,3.2c-3.62,6.75-24.39,21.56-52.81,30.62" class="grey" /><path d="M32.27,17.58C49.75,20,73,32.25,79.81,40.72" class="grey" /><path d="M67.54,42.43c0.8,1.4,0.51,3.84-0.1,5.46C58.75,71,40.79,89.12,17.5,99" class="grey" /><path d="M33.75,47c1.25,0.5,2.75,1.7,3.15,2.32c9.96,15.32,30,35.58,46.25,45.47c2.99,1.82,4.73,2.26,7.1,2.47" class="grey" /><path d="M73.16,9.14c0.15,0.8,0.31,2.06-0.3,3.2c-3.62,6.75-24.39,21.56-52.81,30.62" class="stroke" stroke-dasharray="150"><animate attributeName="stroke-dashoffset" from="150" to="0" dur="1.8s" begin="0.0s" fill="freeze" /></path><path d="M32.27,17.58C49.75,20,73,32.25,79.81,40.72" class="stroke" stroke-dasharray="150"><set attributeName="opacity" to="0" dur="1.5s" /><animate attributeName="stroke-dashoffset" from="150" to="0" dur="1.8s" begin="1.5s" fill="freeze" /></path><path d="M67.54,42.43c0.8,1.4,0.51,3.84-0.1,5.46C58.75,71,40.79,89.12,17.5,99" class="stroke" stroke-dasharray="150"><set attributeName="opacity" to="0" dur="2.8s" /><animate attributeName="stroke-dashoffset" from="150" to="0" dur="1.8s" begin="2.8s" fill="freeze" /></path><path d="M33.75,47c1.25,0.5,2.75,1.7,3.15,2.32c9.96,15.32,30,35.58,46.25,45.47c2.99,1.82,4.73,2.26,7.1,2.47" class="stroke" stroke-dasharray="150"><set attributeName="opacity" to="0" dur="4.5s" /><animate attributeName="stroke-dashoffset" from="150" to="0" dur="1.8s" begin="4.5s" fill="freeze" /></path></svg>