<svg id="kvg-0723f" class="kanjivg" viewBox="0 0 106 106" width="106" height="106" xmlns="http://www.w3.org/2000/svg" xmlns:xlink="http://www.w3.org/1999/xlink" xml:space="preserve" version="1.1" baseProfile="full"><defs><style type="text/css">path.black{fill:none;stroke:black;stroke-width:5;stroke-linecap:round;stroke-linejoin:round;}path.grey{fill:none;stroke:#ddd;stroke-width:5;stroke-linecap:round;stroke-linejoin:round;}path.stroke{fill:none;stroke:black;stroke-width:5;stroke-linecap:round;stroke-linejoin:round;}text{font-size:16px;font-family:Segoe UI Symbol,Cambria Math,DejaVu Sans,Symbola,Quivira,STIX,Code2000;-webkit-touch-callout:none;cursor:pointer;-webkit-user-select:none;-khtml-user-select:none;-moz-user-select:none;-ms-user-select:none;user-select: none;}text:hover{color:#777;}#reset{font-weight:bold;}</style><marker id="markerStart" markerWidth="8" markerHeight="8" style="overflow:visible;"><circle cx="0" cy="0" r="1.5" style="stroke:none;fill:red;fill-opacity:0.5;"/></marker><marker id="markerEnd" style="overflow:visible;"><circle cx="0" cy="0" r="0.8" style="stroke:none;fill:blue;fill-opacity:0.5;"><animate attributeName="opacity" from="1" to="0" dur="3s" repeatCount="indefinite" /></circle></marker></defs><path d="M66.96,8.29c1.29,1.46,2.11,3.96,2.11,5.68c0,16.51-0.04,81.46-0.04,87.08" class="grey" /><path d="M37.24,13.43c1.57,0.73,2.17,1.58,2.3,3.99c0.2,3.61-0.85,18.91-1.33,22.7c-0.16,1.21,0.27,3.01,2.61,2.82c8.24-0.66,18.16-2.42,27.7-2.95" class="grey" /><path d="M25.55,63.43c2.23,0.2,2.69,0.8,5.3,0.67c11.15-0.6,29.62-2.74,37.41-3.07" class="grey" /><path d="M45.75,66.64c0.06,0.79,0.05,2.03-0.11,3.18C44.5,78,41.25,92,26.31,100.22" class="grey" /><path d="M66.96,8.29c1.29,1.46,2.11,3.96,2.11,5.68c0,16.51-0.04,81.46-0.04,87.08" class="stroke" stroke-dasharray="150"><animate attributeName="stroke-dashoffset" from="150" to="0" dur="1.8s" begin="0.0s" fill="freeze" /></path><path d="M37.24,13.43c1.57,0.73,2.17,1.58,2.3,3.99c0.2,3.61-0.85,18.91-1.33,22.7c-0.16,1.21,0.27,3.01,2.61,2.82c8.24-0.66,18.16-2.42,27.7-2.95" class="stroke" stroke-dasharray="150"><set attributeName="opacity" to="0" dur="1.8s" /><animate attributeName="stroke-dashoffset" from="150" to="0" dur="1.8s" begin="1.8s" fill="freeze" /></path><path d="M25.55,63.43c2.23,0.2,2.69,0.8,5.3,0.67c11.15-0.6,29.62-2.74,37.41-3.07" class="stroke" stroke-dasharray="150"><set attributeName="opacity" to="0" dur="3.3s" /><animate attributeName="stroke-dashoffset" from="150" to="0" dur="1.8s" begin="3.3s" fill="freeze" /></path><path d="M45.75,66.64c0.06,0.79,0.05,2.03-0.11,3.18C44.5,78,41.25,92,26.31,100.22" class="stroke" stroke-dasharray="150"><set attributeName="opacity" to="0" dur="4.4s" /><animate attributeName="stroke-dashoffset" from="150" to="0" dur="1.8s" begin="4.4s" fill="freeze" /></path></svg>