<svg id="kvg-07236" class="kanjivg" viewBox="0 0 106 106" width="106" height="106" xmlns="http://www.w3.org/2000/svg" xmlns:xlink="http://www.w3.org/1999/xlink" xml:space="preserve" version="1.1" baseProfile="full"><defs><style type="text/css">path.black{fill:none;stroke:black;stroke-width:5;stroke-linecap:round;stroke-linejoin:round;}path.grey{fill:none;stroke:#ddd;stroke-width:5;stroke-linecap:round;stroke-linejoin:round;}path.stroke{fill:none;stroke:black;stroke-width:5;stroke-linecap:round;stroke-linejoin:round;}text{font-size:16px;font-family:Segoe UI Symbol,Cambria Math,DejaVu Sans,Symbola,Quivira,STIX,Code2000;-webkit-touch-callout:none;cursor:pointer;-webkit-user-select:none;-khtml-user-select:none;-moz-user-select:none;-ms-user-select:none;user-select: none;}text:hover{color:#777;}#reset{font-weight:bold;}</style><marker id="markerStart" markerWidth="8" markerHeight="8" style="overflow:visible;"><circle cx="0" cy="0" r="1.5" style="stroke:none;fill:red;fill-opacity:0.5;"/></marker><marker id="markerEnd" style="overflow:visible;"><circle cx="0" cy="0" r="0.8" style="stroke:none;fill:blue;fill-opacity:0.5;"><animate attributeName="opacity" from="1" to="0" dur="3s" repeatCount="indefinite" /></circle></marker></defs><path d="M38.49,18.25c0.39,1.38,0.07,2.89-0.59,4.16C32,33.91,26.32,39.13,18.75,45.62" class="grey" /><path d="M69.38,19.5c7.25,4,14.29,9.68,18.88,15.5" class="grey" /><path d="M67.7,39.68c0.55,1.57,0.31,3.8-0.42,5.92C60.63,64.87,48,80.25,23,90.25" class="grey" /><path d="M34.25,47c4.83,0,29,25.38,45.99,37.02c3.54,2.43,7.39,4.55,11.51,5.77" class="grey" /><path d="M38.49,18.25c0.39,1.38,0.07,2.89-0.59,4.16C32,33.91,26.32,39.13,18.75,45.62" class="stroke" stroke-dasharray="150"><animate attributeName="stroke-dashoffset" from="150" to="0" dur="1.8s" begin="0.0s" fill="freeze" /></path><path d="M69.38,19.5c7.25,4,14.29,9.68,18.88,15.5" class="stroke" stroke-dasharray="150"><set attributeName="opacity" to="0" dur="1.0s" /><animate attributeName="stroke-dashoffset" from="150" to="0" dur="1.8s" begin="1.0s" fill="freeze" /></path><path d="M67.7,39.68c0.55,1.57,0.31,3.8-0.42,5.92C60.63,64.87,48,80.25,23,90.25" class="stroke" stroke-dasharray="150"><set attributeName="opacity" to="0" dur="2.0s" /><animate attributeName="stroke-dashoffset" from="150" to="0" dur="1.8s" begin="2.0s" fill="freeze" /></path><path d="M34.25,47c4.83,0,29,25.38,45.99,37.02c3.54,2.43,7.39,4.55,11.51,5.77" class="stroke" stroke-dasharray="150"><set attributeName="opacity" to="0" dur="3.7s" /><animate attributeName="stroke-dashoffset" from="150" to="0" dur="1.8s" begin="3.7s" fill="freeze" /></path></svg>