<svg id="kvg-07247" class="kanjivg" viewBox="0 0 106 106" width="106" height="106" xmlns="http://www.w3.org/2000/svg" xmlns:xlink="http://www.w3.org/1999/xlink" xml:space="preserve" version="1.1" baseProfile="full"><defs><style type="text/css">path.black{fill:none;stroke:black;stroke-width:5;stroke-linecap:round;stroke-linejoin:round;}path.grey{fill:none;stroke:#ddd;stroke-width:5;stroke-linecap:round;stroke-linejoin:round;}path.stroke{fill:none;stroke:black;stroke-width:5;stroke-linecap:round;stroke-linejoin:round;}text{font-size:16px;font-family:Segoe UI Symbol,Cambria Math,DejaVu Sans,Symbola,Quivira,STIX,Code2000;-webkit-touch-callout:none;cursor:pointer;-webkit-user-select:none;-khtml-user-select:none;-moz-user-select:none;-ms-user-select:none;user-select: none;}text:hover{color:#777;}#reset{font-weight:bold;}</style><marker id="markerStart" markerWidth="8" markerHeight="8" style="overflow:visible;"><circle cx="0" cy="0" r="1.5" style="stroke:none;fill:red;fill-opacity:0.5;"/></marker><marker id="markerEnd" style="overflow:visible;"><circle cx="0" cy="0" r="0.8" style="stroke:none;fill:blue;fill-opacity:0.5;"><animate attributeName="opacity" from="1" to="0" dur="3s" repeatCount="indefinite" /></circle></marker></defs><path d="M32.9,17.47c1.07,1.07,1.5,2.75,1.5,4.34c0,50.45-8.15,60.7-19.9,71.45" class="grey" /><path d="M62.54,12.75c0.92,0.92,1.37,2.12,1.37,4.02c0,3.9-0.04,16.18-0.04,19.73" class="grey" /><path d="M35.35,41.27c10.77-1.02,30.16-3.55,42.52-5.43c2.69-0.41,5.75-0.84,8.13-0.59" class="grey" /><path d="M34.94,62.07c2.68,0.18,4.85,0.19,7.41-0.2c10-1.54,22.53-3.81,26.5-4.63c2.39-0.49,4.61,0.76,4.61,3.22c0,5.54-0.15,23.54-0.15,28.29c0,4.48-0.07,5.65-0.07,8.5" class="grey" /><path d="M32.9,17.47c1.07,1.07,1.5,2.75,1.5,4.34c0,50.45-8.15,60.7-19.9,71.45" class="stroke" stroke-dasharray="150"><animate attributeName="stroke-dashoffset" from="150" to="0" dur="1.8s" begin="0.0s" fill="freeze" /></path><path d="M62.54,12.75c0.92,0.92,1.37,2.12,1.37,4.02c0,3.9-0.04,16.18-0.04,19.73" class="stroke" stroke-dasharray="150"><set attributeName="opacity" to="0" dur="1.7s" /><animate attributeName="stroke-dashoffset" from="150" to="0" dur="1.8s" begin="1.7s" fill="freeze" /></path><path d="M35.35,41.27c10.77-1.02,30.16-3.55,42.52-5.43c2.69-0.41,5.75-0.84,8.13-0.59" class="stroke" stroke-dasharray="150"><set attributeName="opacity" to="0" dur="2.7s" /><animate attributeName="stroke-dashoffset" from="150" to="0" dur="1.8s" begin="2.7s" fill="freeze" /></path><path d="M34.94,62.07c2.68,0.18,4.85,0.19,7.41-0.2c10-1.54,22.53-3.81,26.5-4.63c2.39-0.49,4.61,0.76,4.61,3.22c0,5.54-0.15,23.54-0.15,28.29c0,4.48-0.07,5.65-0.07,8.5" class="stroke" stroke-dasharray="150"><set attributeName="opacity" to="0" dur="4.0s" /><animate attributeName="stroke-dashoffset" from="150" to="0" dur="1.8s" begin="4.0s" fill="freeze" /></path></svg>