<svg id="kvg-07259" class="kanjivg" viewBox="0 0 106 106" width="106" height="106" xmlns="http://www.w3.org/2000/svg" xmlns:xlink="http://www.w3.org/1999/xlink" xml:space="preserve" version="1.1" baseProfile="full"><defs><style type="text/css">path.black{fill:none;stroke:black;stroke-width:5;stroke-linecap:round;stroke-linejoin:round;}path.grey{fill:none;stroke:#ddd;stroke-width:5;stroke-linecap:round;stroke-linejoin:round;}path.stroke{fill:none;stroke:black;stroke-width:5;stroke-linecap:round;stroke-linejoin:round;}text{font-size:16px;font-family:Segoe UI Symbol,Cambria Math,DejaVu Sans,Symbola,Quivira,STIX,Code2000;-webkit-touch-callout:none;cursor:pointer;-webkit-user-select:none;-khtml-user-select:none;-moz-user-select:none;-ms-user-select:none;user-select: none;}text:hover{color:#777;}#reset{font-weight:bold;}</style><marker id="markerStart" markerWidth="8" markerHeight="8" style="overflow:visible;"><circle cx="0" cy="0" r="1.5" style="stroke:none;fill:red;fill-opacity:0.5;"/></marker><marker id="markerEnd" style="overflow:visible;"><circle cx="0" cy="0" r="0.8" style="stroke:none;fill:blue;fill-opacity:0.5;"><animate attributeName="opacity" from="1" to="0" dur="3s" repeatCount="indefinite" /></circle></marker></defs><path d="M27.97,20.19C30.76,20.76,33.57,20.83,36.39,20.42C46.98,19.65,68.43,17.92,79.88,17.33C82.38,17.04,84.86,17.15,87.33,17.66" class="grey" /><path d="M36.027035,29.002327C36.63294,29.740801,36.617442,30.948089,36.202703,31.897194C33.8193,37.443339,28.818986,48.888158,27.971296,50.896405C29.526062,51.996416,32.83576,51.913128,36.128742,51.475862C52.000248,49.383234,67.988763,47.686228,85.439898,46.905397C88.766311,46.759641,92.084367,46.593064,95.410781,47.03033" class="grey" /><path d="M65.42,21.38C66.58,22.54,66.82,24.12,66.82,26.37C66.82,45.46,66.78,82.25,66.78,88.75C66.78,101.75,58.73,90.72,57.06,89.08" class="grey" /><path d="M63.97,48.73C63.68,50.34,63.08,51.8,62.15,53.1C55.58,63.23,37.77,79.16,13.25,90" class="grey" /><path d="M27.97,20.19C30.76,20.76,33.57,20.83,36.39,20.42C46.98,19.65,68.43,17.92,79.88,17.33C82.38,17.04,84.86,17.15,87.33,17.66" class="stroke" stroke-dasharray="150"><animate attributeName="stroke-dashoffset" from="150" to="0" dur="1.8s" begin="0.0s" fill="freeze" /></path><path d="M36.027035,29.002327C36.63294,29.740801,36.617442,30.948089,36.202703,31.897194C33.8193,37.443339,28.818986,48.888158,27.971296,50.896405C29.526062,51.996416,32.83576,51.913128,36.128742,51.475862C52.000248,49.383234,67.988763,47.686228,85.439898,46.905397C88.766311,46.759641,92.084367,46.593064,95.410781,47.03033" class="stroke" stroke-dasharray="150"><set attributeName="opacity" to="0" dur="1.4s" /><animate attributeName="stroke-dashoffset" from="150" to="0" dur="1.8s" begin="1.4s" fill="freeze" /></path><path d="M65.42,21.38C66.58,22.54,66.82,24.12,66.82,26.37C66.82,45.46,66.78,82.25,66.78,88.75C66.78,101.75,58.73,90.72,57.06,89.08" class="stroke" stroke-dasharray="150"><set attributeName="opacity" to="0" dur="3.2s" /><animate attributeName="stroke-dashoffset" from="150" to="0" dur="1.8s" begin="3.2s" fill="freeze" /></path><path d="M63.97,48.73C63.68,50.34,63.08,51.8,62.15,53.1C55.58,63.23,37.77,79.16,13.25,90" class="stroke" stroke-dasharray="150"><set attributeName="opacity" to="0" dur="4.9s" /><animate attributeName="stroke-dashoffset" from="150" to="0" dur="1.8s" begin="4.9s" fill="freeze" /></path></svg>