<svg id="kvg-07259-Jinmei" class="kanjivg" viewBox="0 0 106 106" width="106" height="106" xmlns="http://www.w3.org/2000/svg" xmlns:xlink="http://www.w3.org/1999/xlink" xml:space="preserve" version="1.1" baseProfile="full"><defs><style type="text/css">path.black{fill:none;stroke:black;stroke-width:5;stroke-linecap:round;stroke-linejoin:round;}path.grey{fill:none;stroke:#ddd;stroke-width:5;stroke-linecap:round;stroke-linejoin:round;}path.stroke{fill:none;stroke:black;stroke-width:5;stroke-linecap:round;stroke-linejoin:round;}text{font-size:16px;font-family:Segoe UI Symbol,Cambria Math,DejaVu Sans,Symbola,Quivira,STIX,Code2000;-webkit-touch-callout:none;cursor:pointer;-webkit-user-select:none;-khtml-user-select:none;-moz-user-select:none;-ms-user-select:none;user-select: none;}text:hover{color:#777;}#reset{font-weight:bold;}</style><marker id="markerStart" markerWidth="8" markerHeight="8" style="overflow:visible;"><circle cx="0" cy="0" r="1.5" style="stroke:none;fill:red;fill-opacity:0.5;"/></marker><marker id="markerEnd" style="overflow:visible;"><circle cx="0" cy="0" r="0.8" style="stroke:none;fill:blue;fill-opacity:0.5;"><animate attributeName="opacity" from="1" to="0" dur="3s" repeatCount="indefinite" /></circle></marker></defs><path d="M28.22,20.44c1.14,0.49,3.22,0.54,4.36,0.49c8.67-0.42,39.39-3.43,50.76-3.74c1.9-0.05,3.03,0.23,3.98,0.48" class="grey" /><path d="M26.52,32.26c0,0.65,0.15,1.63-0.52,3.24c-2,4.75-4.75,11.5-6.5,14.75c-1.07,1.99-1.62,5.09,1.51,2.88c5.49-3.88,60.75-6.74,70.08-6.74c1.9,0,3.03,0.23,3.98,0.47" class="grey" /><path d="M65.67,20.38c0.09,0.63,1.31,3.26,1.4,7.24c0.45,19.09-0.29,54.63-0.29,61.13c0,13-8.05,1.97-9.72,0.33" class="grey" /><path d="M65.22,48.23c-0.32,0.82-1.27,2.24-1.86,3.23C57.44,61.49,38.72,78.74,13.25,90" class="grey" /><path d="M28.22,20.44c1.14,0.49,3.22,0.54,4.36,0.49c8.67-0.42,39.39-3.43,50.76-3.74c1.9-0.05,3.03,0.23,3.98,0.48" class="stroke" stroke-dasharray="150"><animate attributeName="stroke-dashoffset" from="150" to="0" dur="1.8s" begin="0.0s" fill="freeze" /></path><path d="M26.52,32.26c0,0.65,0.15,1.63-0.52,3.24c-2,4.75-4.75,11.5-6.5,14.75c-1.07,1.99-1.62,5.09,1.51,2.88c5.49-3.88,60.75-6.74,70.08-6.74c1.9,0,3.03,0.23,3.98,0.47" class="stroke" stroke-dasharray="150"><set attributeName="opacity" to="0" dur="1.4s" /><animate attributeName="stroke-dashoffset" from="150" to="0" dur="1.8s" begin="1.4s" fill="freeze" /></path><path d="M65.67,20.38c0.09,0.63,1.31,3.26,1.4,7.24c0.45,19.09-0.29,54.63-0.29,61.13c0,13-8.05,1.97-9.72,0.33" class="stroke" stroke-dasharray="150"><set attributeName="opacity" to="0" dur="3.3s" /><animate attributeName="stroke-dashoffset" from="150" to="0" dur="1.8s" begin="3.3s" fill="freeze" /></path><path d="M65.22,48.23c-0.32,0.82-1.27,2.24-1.86,3.23C57.44,61.49,38.72,78.74,13.25,90" class="stroke" stroke-dasharray="150"><set attributeName="opacity" to="0" dur="5.0s" /><animate attributeName="stroke-dashoffset" from="150" to="0" dur="1.8s" begin="5.0s" fill="freeze" /></path></svg>