<svg id="kvg-0725b" class="kanjivg" viewBox="0 0 106 106" width="106" height="106" xmlns="http://www.w3.org/2000/svg" xmlns:xlink="http://www.w3.org/1999/xlink" xml:space="preserve" version="1.1" baseProfile="full"><defs><style type="text/css">path.black{fill:none;stroke:black;stroke-width:5;stroke-linecap:round;stroke-linejoin:round;}path.grey{fill:none;stroke:#ddd;stroke-width:5;stroke-linecap:round;stroke-linejoin:round;}path.stroke{fill:none;stroke:black;stroke-width:5;stroke-linecap:round;stroke-linejoin:round;}text{font-size:16px;font-family:Segoe UI Symbol,Cambria Math,DejaVu Sans,Symbola,Quivira,STIX,Code2000;-webkit-touch-callout:none;cursor:pointer;-webkit-user-select:none;-khtml-user-select:none;-moz-user-select:none;-ms-user-select:none;user-select: none;}text:hover{color:#777;}#reset{font-weight:bold;}</style><marker id="markerStart" markerWidth="8" markerHeight="8" style="overflow:visible;"><circle cx="0" cy="0" r="1.5" style="stroke:none;fill:red;fill-opacity:0.5;"/></marker><marker id="markerEnd" style="overflow:visible;"><circle cx="0" cy="0" r="0.8" style="stroke:none;fill:blue;fill-opacity:0.5;"><animate attributeName="opacity" from="1" to="0" dur="3s" repeatCount="indefinite" /></circle></marker></defs><path d="M35.12,21.88c0.09,1.35-0.18,2.63-0.72,3.89c-2.43,5.73-7.64,15.99-14.16,21.99" class="grey" /><path d="M31.13,38.67c2.08,0.21,3.96,0.02,5.35-0.12c12.02-1.17,27.02-3.67,38.51-5.88c2.27-0.44,4.72-0.57,5.88-0.38" class="grey" /><path d="M13.63,63.23c2.39,0.54,5.96,0.92,9.18,0.54c21.66-2.52,36.43-5.39,62.93-6.73c3.98-0.2,6.39,0.01,8.38,0.28" class="grey" /><path d="M53.31,11.88c1.19,1.12,2.01,2.87,2.01,4.75c0,0.78-0.07,56.95-0.19,76.12c-0.02,3.09-0.04,5.22-0.06,6" class="grey" /><path d="M35.12,21.88c0.09,1.35-0.18,2.63-0.72,3.89c-2.43,5.73-7.64,15.99-14.16,21.99" class="stroke" stroke-dasharray="150"><animate attributeName="stroke-dashoffset" from="150" to="0" dur="1.8s" begin="0.0s" fill="freeze" /></path><path d="M31.13,38.67c2.08,0.21,3.96,0.02,5.35-0.12c12.02-1.17,27.02-3.67,38.51-5.88c2.27-0.44,4.72-0.57,5.88-0.38" class="stroke" stroke-dasharray="150"><set attributeName="opacity" to="0" dur="1.0s" /><animate attributeName="stroke-dashoffset" from="150" to="0" dur="1.8s" begin="1.0s" fill="freeze" /></path><path d="M13.63,63.23c2.39,0.54,5.96,0.92,9.18,0.54c21.66-2.52,36.43-5.39,62.93-6.73c3.98-0.2,6.39,0.01,8.38,0.28" class="stroke" stroke-dasharray="150"><set attributeName="opacity" to="0" dur="2.3s" /><animate attributeName="stroke-dashoffset" from="150" to="0" dur="1.8s" begin="2.3s" fill="freeze" /></path><path d="M53.31,11.88c1.19,1.12,2.01,2.87,2.01,4.75c0,0.78-0.07,56.95-0.19,76.12c-0.02,3.09-0.04,5.22-0.06,6" class="stroke" stroke-dasharray="150"><set attributeName="opacity" to="0" dur="4.0s" /><animate attributeName="stroke-dashoffset" from="150" to="0" dur="1.8s" begin="4.0s" fill="freeze" /></path></svg>