<svg id="kvg-072ac" class="kanjivg" viewBox="0 0 106 106" width="106" height="106" xmlns="http://www.w3.org/2000/svg" xmlns:xlink="http://www.w3.org/1999/xlink" xml:space="preserve" version="1.1" baseProfile="full"><defs><style type="text/css">path.black{fill:none;stroke:black;stroke-width:5;stroke-linecap:round;stroke-linejoin:round;}path.grey{fill:none;stroke:#ddd;stroke-width:5;stroke-linecap:round;stroke-linejoin:round;}path.stroke{fill:none;stroke:black;stroke-width:5;stroke-linecap:round;stroke-linejoin:round;}text{font-size:16px;font-family:Segoe UI Symbol,Cambria Math,DejaVu Sans,Symbola,Quivira,STIX,Code2000;-webkit-touch-callout:none;cursor:pointer;-webkit-user-select:none;-khtml-user-select:none;-moz-user-select:none;-ms-user-select:none;user-select: none;}text:hover{color:#777;}#reset{font-weight:bold;}</style><marker id="markerStart" markerWidth="8" markerHeight="8" style="overflow:visible;"><circle cx="0" cy="0" r="1.5" style="stroke:none;fill:red;fill-opacity:0.5;"/></marker><marker id="markerEnd" style="overflow:visible;"><circle cx="0" cy="0" r="0.8" style="stroke:none;fill:blue;fill-opacity:0.5;"><animate attributeName="opacity" from="1" to="0" dur="3s" repeatCount="indefinite" /></circle></marker></defs><path d="M18.38,46.36c2.37,0.64,5.38,0.73,7.74,0.47c14.39-1.58,36.51-4.46,51.25-5.75c2.51-0.22,6-0.33,7.89,0.42" class="grey" /><path d="M50.25,15.75c1,1.08,1.61,2.16,1.74,4.32C53.75,48.25,46.5,79.75,17,92.25" class="grey" /><path d="M51.5,45c8.29,11.97,23.78,31.58,35.16,41.85c2.37,2.14,4.59,4.15,8.09,5.4" class="grey" /><path d="M67.33,20.25c6.9,3.89,8.78,6.85,10.92,10.5" class="grey" /><path d="M18.38,46.36c2.37,0.64,5.38,0.73,7.74,0.47c14.39-1.58,36.51-4.46,51.25-5.75c2.51-0.22,6-0.33,7.89,0.42" class="stroke" stroke-dasharray="150"><animate attributeName="stroke-dashoffset" from="150" to="0" dur="1.8s" begin="0.0s" fill="freeze" /></path><path d="M50.25,15.75c1,1.08,1.61,2.16,1.74,4.32C53.75,48.25,46.5,79.75,17,92.25" class="stroke" stroke-dasharray="150"><set attributeName="opacity" to="0" dur="1.5s" /><animate attributeName="stroke-dashoffset" from="150" to="0" dur="1.8s" begin="1.5s" fill="freeze" /></path><path d="M51.5,45c8.29,11.97,23.78,31.58,35.16,41.85c2.37,2.14,4.59,4.15,8.09,5.4" class="stroke" stroke-dasharray="150"><set attributeName="opacity" to="0" dur="3.3s" /><animate attributeName="stroke-dashoffset" from="150" to="0" dur="1.8s" begin="3.3s" fill="freeze" /></path><path d="M67.33,20.25c6.9,3.89,8.78,6.85,10.92,10.5" class="stroke" stroke-dasharray="150"><set attributeName="opacity" to="0" dur="4.8s" /><animate attributeName="stroke-dashoffset" from="150" to="0" dur="1.8s" begin="4.8s" fill="freeze" /></path></svg>