<svg id="kvg-07389-VtLst" class="kanjivg" viewBox="0 0 106 106" width="106" height="106" xmlns="http://www.w3.org/2000/svg" xmlns:xlink="http://www.w3.org/1999/xlink" xml:space="preserve" version="1.1" baseProfile="full"><defs><style type="text/css">path.black{fill:none;stroke:black;stroke-width:5;stroke-linecap:round;stroke-linejoin:round;}path.grey{fill:none;stroke:#ddd;stroke-width:5;stroke-linecap:round;stroke-linejoin:round;}path.stroke{fill:none;stroke:black;stroke-width:5;stroke-linecap:round;stroke-linejoin:round;}text{font-size:16px;font-family:Segoe UI Symbol,Cambria Math,DejaVu Sans,Symbola,Quivira,STIX,Code2000;-webkit-touch-callout:none;cursor:pointer;-webkit-user-select:none;-khtml-user-select:none;-moz-user-select:none;-ms-user-select:none;user-select: none;}text:hover{color:#777;}#reset{font-weight:bold;}</style><marker id="markerStart" markerWidth="8" markerHeight="8" style="overflow:visible;"><circle cx="0" cy="0" r="1.5" style="stroke:none;fill:red;fill-opacity:0.5;"/></marker><marker id="markerEnd" style="overflow:visible;"><circle cx="0" cy="0" r="0.8" style="stroke:none;fill:blue;fill-opacity:0.5;"><animate attributeName="opacity" from="1" to="0" dur="3s" repeatCount="indefinite" /></circle></marker></defs><path d="M28.5,23.34c0.95,0.51,4.04,0.66,5,0.52C45.75,22,57,20,75.5,18.21c1.46-0.14,2.79,0.1,4,0.52" class="grey" /><path d="M28.75,56.12c0.94,0.55,4.04,0.86,5,0.73c9.5-1.34,29.25-4.59,39-5.38c1.17-0.1,3.75-0.22,5.5,0.26" class="grey" /><path d="M16,90.51c0.91,0.31,4.41,0.41,5.94,0.25c14.31-1.5,50.81-4.75,67.87-4.85c2.48-0.01,5.45,0.51,6.69,1" class="grey" /><path d="M52,24.6c1,1.21,2,2.4,2,4.41c0,6.79,0.5,50.15,0.25,56.94" class="grey" /><path d="M72,64c5.43,2.74,10.09,8.57,11.25,12" class="grey" /><path d="M28.5,23.34c0.95,0.51,4.04,0.66,5,0.52C45.75,22,57,20,75.5,18.21c1.46-0.14,2.79,0.1,4,0.52" class="stroke" stroke-dasharray="150"><animate attributeName="stroke-dashoffset" from="150" to="0" dur="1.8s" begin="0.0s" fill="freeze" /></path><path d="M28.75,56.12c0.94,0.55,4.04,0.86,5,0.73c9.5-1.34,29.25-4.59,39-5.38c1.17-0.1,3.75-0.22,5.5,0.26" class="stroke" stroke-dasharray="150"><set attributeName="opacity" to="0" dur="1.3s" /><animate attributeName="stroke-dashoffset" from="150" to="0" dur="1.8s" begin="1.3s" fill="freeze" /></path><path d="M16,90.51c0.91,0.31,4.41,0.41,5.94,0.25c14.31-1.5,50.81-4.75,67.87-4.85c2.48-0.01,5.45,0.51,6.69,1" class="stroke" stroke-dasharray="150"><set attributeName="opacity" to="0" dur="2.6s" /><animate attributeName="stroke-dashoffset" from="150" to="0" dur="1.8s" begin="2.6s" fill="freeze" /></path><path d="M52,24.6c1,1.21,2,2.4,2,4.41c0,6.79,0.5,50.15,0.25,56.94" class="stroke" stroke-dasharray="150"><set attributeName="opacity" to="0" dur="4.3s" /><animate attributeName="stroke-dashoffset" from="150" to="0" dur="1.8s" begin="4.3s" fill="freeze" /></path><path d="M72,64c5.43,2.74,10.09,8.57,11.25,12" class="stroke" stroke-dasharray="150"><set attributeName="opacity" to="0" dur="5.8s" /><animate attributeName="stroke-dashoffset" from="150" to="0" dur="1.8s" begin="5.8s" fill="freeze" /></path></svg>