<svg id="kvg-07384" class="kanjivg" viewBox="0 0 106 106" width="106" height="106" xmlns="http://www.w3.org/2000/svg" xmlns:xlink="http://www.w3.org/1999/xlink" xml:space="preserve" version="1.1" baseProfile="full"><defs><style type="text/css">path.black{fill:none;stroke:black;stroke-width:5;stroke-linecap:round;stroke-linejoin:round;}path.grey{fill:none;stroke:#ddd;stroke-width:5;stroke-linecap:round;stroke-linejoin:round;}path.stroke{fill:none;stroke:black;stroke-width:5;stroke-linecap:round;stroke-linejoin:round;}text{font-size:16px;font-family:Segoe UI Symbol,Cambria Math,DejaVu Sans,Symbola,Quivira,STIX,Code2000;-webkit-touch-callout:none;cursor:pointer;-webkit-user-select:none;-khtml-user-select:none;-moz-user-select:none;-ms-user-select:none;user-select: none;}text:hover{color:#777;}#reset{font-weight:bold;}</style><marker id="markerStart" markerWidth="8" markerHeight="8" style="overflow:visible;"><circle cx="0" cy="0" r="1.5" style="stroke:none;fill:red;fill-opacity:0.5;"/></marker><marker id="markerEnd" style="overflow:visible;"><circle cx="0" cy="0" r="0.8" style="stroke:none;fill:blue;fill-opacity:0.5;"><animate attributeName="opacity" from="1" to="0" dur="3s" repeatCount="indefinite" /></circle></marker></defs><path d="M52.11,13c1.51,1.51,1.98,3.25,1.98,5.16c0,4.45-0.09,8.02-0.09,12.34" class="grey" /><path d="M15,33.86c3.27,0.24,6.08,0.54,9.37,0.22c13.33-1.3,44.68-3.68,60.99-4.66c3.07-0.18,6.26,0.08,9.14,0.74" class="grey" /><path d="M51.59,35.12c0.37,1.31,0.35,2.62-0.43,3.97C47.75,45,42.88,51.12,37.51,56.92c-1.07,1.15-0.88,2.96,0.5,3.29c3.95,0.94,12.2,5.14,15.49,7.55" class="grey" /><path d="M69.46,48.87c0.54,1.38,0.42,3.26-0.75,4.75C59.72,65.08,46.5,76,31.96,89.87c-1.67,1.59-1.03,3.1,1,2.75c12.29-2.12,29.04-4.87,42-7.25" class="grey" /><path d="M68.71,75.12c4.15,3.66,10.71,15.05,11.75,20.75" class="grey" /><path d="M52.11,13c1.51,1.51,1.98,3.25,1.98,5.16c0,4.45-0.09,8.02-0.09,12.34" class="stroke" stroke-dasharray="150"><animate attributeName="stroke-dashoffset" from="150" to="0" dur="1.8s" begin="0.0s" fill="freeze" /></path><path d="M15,33.86c3.27,0.24,6.08,0.54,9.37,0.22c13.33-1.3,44.68-3.68,60.99-4.66c3.07-0.18,6.26,0.08,9.14,0.74" class="stroke" stroke-dasharray="150"><set attributeName="opacity" to="0" dur="0.9s" /><animate attributeName="stroke-dashoffset" from="150" to="0" dur="1.8s" begin="0.9s" fill="freeze" /></path><path d="M51.59,35.12c0.37,1.31,0.35,2.62-0.43,3.97C47.75,45,42.88,51.12,37.51,56.92c-1.07,1.15-0.88,2.96,0.5,3.29c3.95,0.94,12.2,5.14,15.49,7.55" class="stroke" stroke-dasharray="150"><set attributeName="opacity" to="0" dur="2.6s" /><animate attributeName="stroke-dashoffset" from="150" to="0" dur="1.8s" begin="2.6s" fill="freeze" /></path><path d="M69.46,48.87c0.54,1.38,0.42,3.26-0.75,4.75C59.72,65.08,46.5,76,31.96,89.87c-1.67,1.59-1.03,3.1,1,2.75c12.29-2.12,29.04-4.87,42-7.25" class="stroke" stroke-dasharray="150"><set attributeName="opacity" to="0" dur="3.8s" /><animate attributeName="stroke-dashoffset" from="150" to="0" dur="1.8s" begin="3.8s" fill="freeze" /></path><path d="M68.71,75.12c4.15,3.66,10.71,15.05,11.75,20.75" class="stroke" stroke-dasharray="150"><set attributeName="opacity" to="0" dur="5.699999999999999s" /><animate attributeName="stroke-dashoffset" from="150" to="0" dur="1.8s" begin="5.699999999999999s" fill="freeze" /></path></svg>