<svg id="kvg-07384-Kaisho" class="kanjivg" viewBox="0 0 106 106" width="106" height="106" xmlns="http://www.w3.org/2000/svg" xmlns:xlink="http://www.w3.org/1999/xlink" xml:space="preserve" version="1.1" baseProfile="full"><defs><style type="text/css">path.black{fill:none;stroke:black;stroke-width:5;stroke-linecap:round;stroke-linejoin:round;}path.grey{fill:none;stroke:#ddd;stroke-width:5;stroke-linecap:round;stroke-linejoin:round;}path.stroke{fill:none;stroke:black;stroke-width:5;stroke-linecap:round;stroke-linejoin:round;}text{font-size:16px;font-family:Segoe UI Symbol,Cambria Math,DejaVu Sans,Symbola,Quivira,STIX,Code2000;-webkit-touch-callout:none;cursor:pointer;-webkit-user-select:none;-khtml-user-select:none;-moz-user-select:none;-ms-user-select:none;user-select: none;}text:hover{color:#777;}#reset{font-weight:bold;}</style><marker id="markerStart" markerWidth="8" markerHeight="8" style="overflow:visible;"><circle cx="0" cy="0" r="1.5" style="stroke:none;fill:red;fill-opacity:0.5;"/></marker><marker id="markerEnd" style="overflow:visible;"><circle cx="0" cy="0" r="0.8" style="stroke:none;fill:blue;fill-opacity:0.5;"><animate attributeName="opacity" from="1" to="0" dur="3s" repeatCount="indefinite" /></circle></marker></defs><path d="M47.22,13.25c4.45,1.8,11.04,8.8,11.78,12.33" class="grey" /><path d="M14.5,34.11c1.42,0.1,4.68,0.69,6.06,0.55c11.19-1.16,52.69-4.91,68.64-5.7c2.35-0.12,3.55,0.05,5.3,0.7" class="grey" /><path d="M50.59,35.62c0.37,1.31,0.6,2.37-0.18,3.72C47,45.25,42.5,53.25,37.51,56.92c-0.79,0.58-0.73,3.04,0,3.29c3.84,1.31,13.2,5.89,16.49,8.3" class="grey" /><path d="M69.21,48.62c0.54,1.38,0.23,4.23-0.5,5C58.75,64.25,46.5,76.5,31.96,90.37c-1.67,1.59-1.03,2.35,1,2c12.29-2.12,31.25-5,42-7" class="grey" /><path d="M69.21,75.37c4.15,3.66,10.71,15.05,11.75,20.75" class="grey" /><path d="M47.22,13.25c4.45,1.8,11.04,8.8,11.78,12.33" class="stroke" stroke-dasharray="150"><animate attributeName="stroke-dashoffset" from="150" to="0" dur="1.8s" begin="0.0s" fill="freeze" /></path><path d="M14.5,34.11c1.42,0.1,4.68,0.69,6.06,0.55c11.19-1.16,52.69-4.91,68.64-5.7c2.35-0.12,3.55,0.05,5.3,0.7" class="stroke" stroke-dasharray="150"><set attributeName="opacity" to="0" dur="0.9s" /><animate attributeName="stroke-dashoffset" from="150" to="0" dur="1.8s" begin="0.9s" fill="freeze" /></path><path d="M50.59,35.62c0.37,1.31,0.6,2.37-0.18,3.72C47,45.25,42.5,53.25,37.51,56.92c-0.79,0.58-0.73,3.04,0,3.29c3.84,1.31,13.2,5.89,16.49,8.3" class="stroke" stroke-dasharray="150"><set attributeName="opacity" to="0" dur="2.6s" /><animate attributeName="stroke-dashoffset" from="150" to="0" dur="1.8s" begin="2.6s" fill="freeze" /></path><path d="M69.21,48.62c0.54,1.38,0.23,4.23-0.5,5C58.75,64.25,46.5,76.5,31.96,90.37c-1.67,1.59-1.03,2.35,1,2c12.29-2.12,31.25-5,42-7" class="stroke" stroke-dasharray="150"><set attributeName="opacity" to="0" dur="3.8s" /><animate attributeName="stroke-dashoffset" from="150" to="0" dur="1.8s" begin="3.8s" fill="freeze" /></path><path d="M69.21,75.37c4.15,3.66,10.71,15.05,11.75,20.75" class="stroke" stroke-dasharray="150"><set attributeName="opacity" to="0" dur="5.699999999999999s" /><animate attributeName="stroke-dashoffset" from="150" to="0" dur="1.8s" begin="5.699999999999999s" fill="freeze" /></path></svg>