<svg id="kvg-074dc" class="kanjivg" viewBox="0 0 106 106" width="106" height="106" xmlns="http://www.w3.org/2000/svg" xmlns:xlink="http://www.w3.org/1999/xlink" xml:space="preserve" version="1.1" baseProfile="full"><defs><style type="text/css">path.black{fill:none;stroke:black;stroke-width:5;stroke-linecap:round;stroke-linejoin:round;}path.grey{fill:none;stroke:#ddd;stroke-width:5;stroke-linecap:round;stroke-linejoin:round;}path.stroke{fill:none;stroke:black;stroke-width:5;stroke-linecap:round;stroke-linejoin:round;}text{font-size:16px;font-family:Segoe UI Symbol,Cambria Math,DejaVu Sans,Symbola,Quivira,STIX,Code2000;-webkit-touch-callout:none;cursor:pointer;-webkit-user-select:none;-khtml-user-select:none;-moz-user-select:none;-ms-user-select:none;user-select: none;}text:hover{color:#777;}#reset{font-weight:bold;}</style><marker id="markerStart" markerWidth="8" markerHeight="8" style="overflow:visible;"><circle cx="0" cy="0" r="1.5" style="stroke:none;fill:red;fill-opacity:0.5;"/></marker><marker id="markerEnd" style="overflow:visible;"><circle cx="0" cy="0" r="0.8" style="stroke:none;fill:blue;fill-opacity:0.5;"><animate attributeName="opacity" from="1" to="0" dur="3s" repeatCount="indefinite" /></circle></marker></defs><path d="M71.01,15.5c0,1.12-1.04,2.25-2.19,2.97C61.12,23.25,52.88,27.12,36,31.54" class="grey" /><path d="M31.88,32.25c0.62,0.75,1.07,2.56,0.98,4.7C32,57.75,30,82.75,11.56,94.72" class="grey" /><path d="M52.12,30.75c1.19,1.19,1.43,3,1.43,4.28c0,1.1-0.27,38.72-0.27,49.22" class="grey" /><path d="M37,87.63c1.68,1.23,3.37,1.51,5.06,0.83c8.92-2.52,19.86-5.56,27.19-7.72" class="grey" /><path d="M65.27,70.33c3.37,3.33,8.7,13.7,9.54,18.88" class="grey" /><path d="M66.88,28.12c2.63,1.31,6.34,31.54,20.72,53.51c2.51,4.06,5.73,7.51,9.66,10.36" class="grey" /><path d="M71.01,15.5c0,1.12-1.04,2.25-2.19,2.97C61.12,23.25,52.88,27.12,36,31.54" class="stroke" stroke-dasharray="150"><animate attributeName="stroke-dashoffset" from="150" to="0" dur="1.8s" begin="0.0s" fill="freeze" /></path><path d="M31.88,32.25c0.62,0.75,1.07,2.56,0.98,4.7C32,57.75,30,82.75,11.56,94.72" class="stroke" stroke-dasharray="150"><set attributeName="opacity" to="0" dur="1.0s" /><animate attributeName="stroke-dashoffset" from="150" to="0" dur="1.8s" begin="1.0s" fill="freeze" /></path><path d="M52.12,30.75c1.19,1.19,1.43,3,1.43,4.28c0,1.1-0.27,38.72-0.27,49.22" class="stroke" stroke-dasharray="150"><set attributeName="opacity" to="0" dur="2.5s" /><animate attributeName="stroke-dashoffset" from="150" to="0" dur="1.8s" begin="2.5s" fill="freeze" /></path><path d="M37,87.63c1.68,1.23,3.37,1.51,5.06,0.83c8.92-2.52,19.86-5.56,27.19-7.72" class="stroke" stroke-dasharray="150"><set attributeName="opacity" to="0" dur="3.8s" /><animate attributeName="stroke-dashoffset" from="150" to="0" dur="1.8s" begin="3.8s" fill="freeze" /></path><path d="M65.27,70.33c3.37,3.33,8.7,13.7,9.54,18.88" class="stroke" stroke-dasharray="150"><set attributeName="opacity" to="0" dur="4.8s" /><animate attributeName="stroke-dashoffset" from="150" to="0" dur="1.8s" begin="4.8s" fill="freeze" /></path><path d="M66.88,28.12c2.63,1.31,6.34,31.54,20.72,53.51c2.51,4.06,5.73,7.51,9.66,10.36" class="stroke" stroke-dasharray="150"><set attributeName="opacity" to="0" dur="5.8s" /><animate attributeName="stroke-dashoffset" from="150" to="0" dur="1.8s" begin="5.8s" fill="freeze" /></path></svg>