<svg id="kvg-074e6-HzLst" class="kanjivg" viewBox="0 0 106 106" width="106" height="106" xmlns="http://www.w3.org/2000/svg" xmlns:xlink="http://www.w3.org/1999/xlink" xml:space="preserve" version="1.1" baseProfile="full"><defs><style type="text/css">path.black{fill:none;stroke:black;stroke-width:5;stroke-linecap:round;stroke-linejoin:round;}path.grey{fill:none;stroke:#ddd;stroke-width:5;stroke-linecap:round;stroke-linejoin:round;}path.stroke{fill:none;stroke:black;stroke-width:5;stroke-linecap:round;stroke-linejoin:round;}text{font-size:16px;font-family:Segoe UI Symbol,Cambria Math,DejaVu Sans,Symbola,Quivira,STIX,Code2000;-webkit-touch-callout:none;cursor:pointer;-webkit-user-select:none;-khtml-user-select:none;-moz-user-select:none;-ms-user-select:none;user-select: none;}text:hover{color:#777;}#reset{font-weight:bold;}</style><marker id="markerStart" markerWidth="8" markerHeight="8" style="overflow:visible;"><circle cx="0" cy="0" r="1.5" style="stroke:none;fill:red;fill-opacity:0.5;"/></marker><marker id="markerEnd" style="overflow:visible;"><circle cx="0" cy="0" r="0.8" style="stroke:none;fill:blue;fill-opacity:0.5;"><animate attributeName="opacity" from="1" to="0" dur="3s" repeatCount="indefinite" /></circle></marker></defs><path d="M18.75,19.2c1.52,0.54,4.3,0.61,5.82,0.54c11.18-0.49,40.93-4.49,57.61-4.73c2.53-0.04,4.05,0.26,5.31,0.53" class="grey" /><path d="M38.37,22.25c1.09,0.5,2.22,2.76,1.96,3.75c-2.08,7.75-14.08,53.5-16.08,61" class="grey" /><path d="M41,37.54c1.25,0.21,2.58,0.69,3.8,0.5C48.25,37.5,62,35,65.36,34.25c1.44-0.32,3.39,1.5,3.11,3.03c-0.82,4.49-6.76,26.11-8.27,37.01C57.75,92,63,95,76.33,95.12c8.98,0.08,15.9-0.61,16.15-10.35" class="grey" /><path d="M41.52,53.58c4.16,2.05,10.75,8.44,11.79,11.63" class="grey" /><path d="M14,88.98c0.98,0.77,2.25,2.02,4.35,1.17c7.97-3.23,24.27-8.83,32.4-11.65" class="grey" /><path d="M18.75,19.2c1.52,0.54,4.3,0.61,5.82,0.54c11.18-0.49,40.93-4.49,57.61-4.73c2.53-0.04,4.05,0.26,5.31,0.53" class="stroke" stroke-dasharray="150"><animate attributeName="stroke-dashoffset" from="150" to="0" dur="1.8s" begin="0.0s" fill="freeze" /></path><path d="M38.37,22.25c1.09,0.5,2.22,2.76,1.96,3.75c-2.08,7.75-14.08,53.5-16.08,61" class="stroke" stroke-dasharray="150"><set attributeName="opacity" to="0" dur="1.5s" /><animate attributeName="stroke-dashoffset" from="150" to="0" dur="1.8s" begin="1.5s" fill="freeze" /></path><path d="M41,37.54c1.25,0.21,2.58,0.69,3.8,0.5C48.25,37.5,62,35,65.36,34.25c1.44-0.32,3.39,1.5,3.11,3.03c-0.82,4.49-6.76,26.11-8.27,37.01C57.75,92,63,95,76.33,95.12c8.98,0.08,15.9-0.61,16.15-10.35" class="stroke" stroke-dasharray="150"><set attributeName="opacity" to="0" dur="3.0s" /><animate attributeName="stroke-dashoffset" from="150" to="0" dur="1.8s" begin="3.0s" fill="freeze" /></path><path d="M41.52,53.58c4.16,2.05,10.75,8.44,11.79,11.63" class="stroke" stroke-dasharray="150"><set attributeName="opacity" to="0" dur="5.0s" /><animate attributeName="stroke-dashoffset" from="150" to="0" dur="1.8s" begin="5.0s" fill="freeze" /></path><path d="M14,88.98c0.98,0.77,2.25,2.02,4.35,1.17c7.97-3.23,24.27-8.83,32.4-11.65" class="stroke" stroke-dasharray="150"><set attributeName="opacity" to="0" dur="5.9s" /><animate attributeName="stroke-dashoffset" from="150" to="0" dur="1.8s" begin="5.9s" fill="freeze" /></path></svg>