<svg id="kvg-074e6" class="kanjivg" viewBox="0 0 106 106" width="106" height="106" xmlns="http://www.w3.org/2000/svg" xmlns:xlink="http://www.w3.org/1999/xlink" xml:space="preserve" version="1.1" baseProfile="full"><defs><style type="text/css">path.black{fill:none;stroke:black;stroke-width:5;stroke-linecap:round;stroke-linejoin:round;}path.grey{fill:none;stroke:#ddd;stroke-width:5;stroke-linecap:round;stroke-linejoin:round;}path.stroke{fill:none;stroke:black;stroke-width:5;stroke-linecap:round;stroke-linejoin:round;}text{font-size:16px;font-family:Segoe UI Symbol,Cambria Math,DejaVu Sans,Symbola,Quivira,STIX,Code2000;-webkit-touch-callout:none;cursor:pointer;-webkit-user-select:none;-khtml-user-select:none;-moz-user-select:none;-ms-user-select:none;user-select: none;}text:hover{color:#777;}#reset{font-weight:bold;}</style><marker id="markerStart" markerWidth="8" markerHeight="8" style="overflow:visible;"><circle cx="0" cy="0" r="1.5" style="stroke:none;fill:red;fill-opacity:0.5;"/></marker><marker id="markerEnd" style="overflow:visible;"><circle cx="0" cy="0" r="0.8" style="stroke:none;fill:blue;fill-opacity:0.5;"><animate attributeName="opacity" from="1" to="0" dur="3s" repeatCount="indefinite" /></circle></marker></defs><path d="M18.75,18.95c3.87,0.68,7.75,0.72,11.64,0.14c12.65-1.51,31.48-3.21,46.61-4.17c3.6-0.33,7.18-0.2,10.75,0.38" class="grey" /><path d="M39.37,22.75c1.06,1.06,0.95,3.25,0.71,4.25C35.88,44.5,27.5,76.88,24.5,87" class="grey" /><path d="M14.25,89.48c0.98,0.77,2.75,1.27,4.85,0.42c7.97-3.23,23.52-8.58,31.65-11.4" class="grey" /><path d="M41,37.79c2.16,0.43,4.29,0.37,6.4-0.18c4.63-0.8,13.07-2.55,16.89-3.32c3.02-0.61,4.84,1.06,4.15,4.14c-1.45,6.48-6.84,25.84-8.23,35.88C57.75,92,63,95,76.33,95.12c8.98,0.08,15.9-0.61,16.15-10.35" class="grey" /><path d="M41.52,53.58c4.16,2.05,10.23,7.79,11.79,11.88" class="grey" /><path d="M18.75,18.95c3.87,0.68,7.75,0.72,11.64,0.14c12.65-1.51,31.48-3.21,46.61-4.17c3.6-0.33,7.18-0.2,10.75,0.38" class="stroke" stroke-dasharray="150"><animate attributeName="stroke-dashoffset" from="150" to="0" dur="1.8s" begin="0.0s" fill="freeze" /></path><path d="M39.37,22.75c1.06,1.06,0.95,3.25,0.71,4.25C35.88,44.5,27.5,76.88,24.5,87" class="stroke" stroke-dasharray="150"><set attributeName="opacity" to="0" dur="1.5s" /><animate attributeName="stroke-dashoffset" from="150" to="0" dur="1.8s" begin="1.5s" fill="freeze" /></path><path d="M14.25,89.48c0.98,0.77,2.75,1.27,4.85,0.42c7.97-3.23,23.52-8.58,31.65-11.4" class="stroke" stroke-dasharray="150"><set attributeName="opacity" to="0" dur="3.0s" /><animate attributeName="stroke-dashoffset" from="150" to="0" dur="1.8s" begin="3.0s" fill="freeze" /></path><path d="M41,37.79c2.16,0.43,4.29,0.37,6.4-0.18c4.63-0.8,13.07-2.55,16.89-3.32c3.02-0.61,4.84,1.06,4.15,4.14c-1.45,6.48-6.84,25.84-8.23,35.88C57.75,92,63,95,76.33,95.12c8.98,0.08,15.9-0.61,16.15-10.35" class="stroke" stroke-dasharray="150"><set attributeName="opacity" to="0" dur="4.0s" /><animate attributeName="stroke-dashoffset" from="150" to="0" dur="1.8s" begin="4.0s" fill="freeze" /></path><path d="M41.52,53.58c4.16,2.05,10.23,7.79,11.79,11.88" class="stroke" stroke-dasharray="150"><set attributeName="opacity" to="0" dur="6.0s" /><animate attributeName="stroke-dashoffset" from="150" to="0" dur="1.8s" begin="6.0s" fill="freeze" /></path></svg>