<svg id="kvg-07518" class="kanjivg" viewBox="0 0 106 106" width="106" height="106" xmlns="http://www.w3.org/2000/svg" xmlns:xlink="http://www.w3.org/1999/xlink" xml:space="preserve" version="1.1" baseProfile="full"><defs><style type="text/css">path.black{fill:none;stroke:black;stroke-width:5;stroke-linecap:round;stroke-linejoin:round;}path.grey{fill:none;stroke:#ddd;stroke-width:5;stroke-linecap:round;stroke-linejoin:round;}path.stroke{fill:none;stroke:black;stroke-width:5;stroke-linecap:round;stroke-linejoin:round;}text{font-size:16px;font-family:Segoe UI Symbol,Cambria Math,DejaVu Sans,Symbola,Quivira,STIX,Code2000;-webkit-touch-callout:none;cursor:pointer;-webkit-user-select:none;-khtml-user-select:none;-moz-user-select:none;-ms-user-select:none;user-select: none;}text:hover{color:#777;}#reset{font-weight:bold;}</style><marker id="markerStart" markerWidth="8" markerHeight="8" style="overflow:visible;"><circle cx="0" cy="0" r="1.5" style="stroke:none;fill:red;fill-opacity:0.5;"/></marker><marker id="markerEnd" style="overflow:visible;"><circle cx="0" cy="0" r="0.8" style="stroke:none;fill:blue;fill-opacity:0.5;"><animate attributeName="opacity" from="1" to="0" dur="3s" repeatCount="indefinite" /></circle></marker></defs><path d="M13.75,39.2c3,1.07,7.02,0.69,10.14,0.38c13.36-1.31,40.11-3.96,59.61-4.9c3.67-0.18,7.99-0.18,10.99,0.61" class="grey" /><path d="M35.17,20c1.06,1.06,1.21,2.38,1.21,4c0,5.13,0.04,42.56,0.02,64.62c0,2.83-0.01,5.41-0.01,7.62" class="grey" /><path d="M70.87,14c1.07,1.06,1.46,2.5,1.46,4c0,0.68,0.02,48.38,0.03,68.38c0,4.98,0,8.23,0,8.62" class="grey" /><path d="M37.5,61.75c4.25-0.5,30.75-3,33.75-3" class="grey" /><path d="M37.25,89.75c6.5-0.25,28-1.75,34-2" class="grey" /><path d="M13.75,39.2c3,1.07,7.02,0.69,10.14,0.38c13.36-1.31,40.11-3.96,59.61-4.9c3.67-0.18,7.99-0.18,10.99,0.61" class="stroke" stroke-dasharray="150"><animate attributeName="stroke-dashoffset" from="150" to="0" dur="1.8s" begin="0.0s" fill="freeze" /></path><path d="M35.17,20c1.06,1.06,1.21,2.38,1.21,4c0,5.13,0.04,42.56,0.02,64.62c0,2.83-0.01,5.41-0.01,7.62" class="stroke" stroke-dasharray="150"><set attributeName="opacity" to="0" dur="1.7s" /><animate attributeName="stroke-dashoffset" from="150" to="0" dur="1.8s" begin="1.7s" fill="freeze" /></path><path d="M70.87,14c1.07,1.06,1.46,2.5,1.46,4c0,0.68,0.02,48.38,0.03,68.38c0,4.98,0,8.23,0,8.62" class="stroke" stroke-dasharray="150"><set attributeName="opacity" to="0" dur="3.4s" /><animate attributeName="stroke-dashoffset" from="150" to="0" dur="1.8s" begin="3.4s" fill="freeze" /></path><path d="M37.5,61.75c4.25-0.5,30.75-3,33.75-3" class="stroke" stroke-dasharray="150"><set attributeName="opacity" to="0" dur="5.1s" /><animate attributeName="stroke-dashoffset" from="150" to="0" dur="1.8s" begin="5.1s" fill="freeze" /></path><path d="M37.25,89.75c6.5-0.25,28-1.75,34-2" class="stroke" stroke-dasharray="150"><set attributeName="opacity" to="0" dur="6.1s" /><animate attributeName="stroke-dashoffset" from="150" to="0" dur="1.8s" begin="6.1s" fill="freeze" /></path></svg>