<svg id="kvg-0751f" class="kanjivg" viewBox="0 0 106 106" width="106" height="106" xmlns="http://www.w3.org/2000/svg" xmlns:xlink="http://www.w3.org/1999/xlink" xml:space="preserve" version="1.1" baseProfile="full"><defs><style type="text/css">path.black{fill:none;stroke:black;stroke-width:5;stroke-linecap:round;stroke-linejoin:round;}path.grey{fill:none;stroke:#ddd;stroke-width:5;stroke-linecap:round;stroke-linejoin:round;}path.stroke{fill:none;stroke:black;stroke-width:5;stroke-linecap:round;stroke-linejoin:round;}text{font-size:16px;font-family:Segoe UI Symbol,Cambria Math,DejaVu Sans,Symbola,Quivira,STIX,Code2000;-webkit-touch-callout:none;cursor:pointer;-webkit-user-select:none;-khtml-user-select:none;-moz-user-select:none;-ms-user-select:none;user-select: none;}text:hover{color:#777;}#reset{font-weight:bold;}</style><marker id="markerStart" markerWidth="8" markerHeight="8" style="overflow:visible;"><circle cx="0" cy="0" r="1.5" style="stroke:none;fill:red;fill-opacity:0.5;"/></marker><marker id="markerEnd" style="overflow:visible;"><circle cx="0" cy="0" r="0.8" style="stroke:none;fill:blue;fill-opacity:0.5;"><animate attributeName="opacity" from="1" to="0" dur="3s" repeatCount="indefinite" /></circle></marker></defs><path d="M31.26,25.89c0.36,1.36,0.35,2.65-0.05,3.79c-2.34,6.69-7.24,17.22-14.96,24.19" class="grey" /><path d="M31.13,40.67c2.37,0.33,4.03,0.07,5.64-0.12c9.5-1.1,25.15-4.12,35.35-5.83c2.51-0.42,4.86-0.73,7.38-0.33" class="grey" /><path d="M52.31,12.63c1.28,1.28,2.01,3.12,2.01,5.23c0,4.01,0,65.14,0,69.77" class="grey" /><path d="M29.38,64.03c2.64,0.67,5.38,0.31,8.04-0.02C49.45,62.51,62.16,61,72.5,59.86c2.38-0.26,4.99-0.76,7.38-0.23" class="grey" /><path d="M15.75,90.25c3.04,0.75,6.21,0.94,8.4,0.8C40.62,90,68.12,86.5,83.3,85.75c3.63-0.18,7.68,0,10.07,0.73" class="grey" /><path d="M31.26,25.89c0.36,1.36,0.35,2.65-0.05,3.79c-2.34,6.69-7.24,17.22-14.96,24.19" class="stroke" stroke-dasharray="150"><animate attributeName="stroke-dashoffset" from="150" to="0" dur="1.8s" begin="0.0s" fill="freeze" /></path><path d="M31.13,40.67c2.37,0.33,4.03,0.07,5.64-0.12c9.5-1.1,25.15-4.12,35.35-5.83c2.51-0.42,4.86-0.73,7.38-0.33" class="stroke" stroke-dasharray="150"><set attributeName="opacity" to="0" dur="1.0s" /><animate attributeName="stroke-dashoffset" from="150" to="0" dur="1.8s" begin="1.0s" fill="freeze" /></path><path d="M52.31,12.63c1.28,1.28,2.01,3.12,2.01,5.23c0,4.01,0,65.14,0,69.77" class="stroke" stroke-dasharray="150"><set attributeName="opacity" to="0" dur="2.2s" /><animate attributeName="stroke-dashoffset" from="150" to="0" dur="1.8s" begin="2.2s" fill="freeze" /></path><path d="M29.38,64.03c2.64,0.67,5.38,0.31,8.04-0.02C49.45,62.51,62.16,61,72.5,59.86c2.38-0.26,4.99-0.76,7.38-0.23" class="stroke" stroke-dasharray="150"><set attributeName="opacity" to="0" dur="3.9000000000000004s" /><animate attributeName="stroke-dashoffset" from="150" to="0" dur="1.8s" begin="3.9000000000000004s" fill="freeze" /></path><path d="M15.75,90.25c3.04,0.75,6.21,0.94,8.4,0.8C40.62,90,68.12,86.5,83.3,85.75c3.63-0.18,7.68,0,10.07,0.73" class="stroke" stroke-dasharray="150"><set attributeName="opacity" to="0" dur="5.2s" /><animate attributeName="stroke-dashoffset" from="150" to="0" dur="1.8s" begin="5.2s" fill="freeze" /></path></svg>