<svg id="kvg-0751f-VtLst" class="kanjivg" viewBox="0 0 106 126" width="106" height="106" xmlns="http://www.w3.org/2000/svg" xmlns:xlink="http://www.w3.org/1999/xlink" xml:space="preserve" version="1.1" baseProfile="full"><defs><style type="text/css">path.black{fill:none;stroke:black;stroke-width:5;stroke-linecap:round;stroke-linejoin:round;}path.grey{fill:none;stroke:#ddd;stroke-width:5;stroke-linecap:round;stroke-linejoin:round;}path.stroke{fill:none;stroke:black;stroke-width:5;stroke-linecap:round;stroke-linejoin:round;}text{font-size:16px;font-family:Segoe UI Symbol,Cambria Math,DejaVu Sans,Symbola,Quivira,STIX,Code2000;-webkit-touch-callout:none;cursor:pointer;-webkit-user-select:none;-khtml-user-select:none;-moz-user-select:none;-ms-user-select:none;user-select: none;}text:hover{color:#777;}#reset{font-weight:bold;}</style><marker id="markerStart" markerWidth="8" markerHeight="8" style="overflow:visible;"><circle cx="0" cy="0" r="1.5" style="stroke:none;fill:red;fill-opacity:0.5;"/></marker><marker id="markerEnd" style="overflow:visible;"><circle cx="0" cy="0" r="0.8" style="stroke:none;fill:blue;fill-opacity:0.5;"><animate attributeName="opacity" from="1" to="0" dur="3s" repeatCount="indefinite" /></circle></marker></defs><path d="M31.02,27.14c0.03,0.57,0.07,1.47-0.07,2.28C30.13,34.23,25.43,44.79,19,51.25" class="grey" /><path d="M30.88,40.92c0.94,0.38,2.66,0.46,3.6,0.38c6.77-0.55,34.52-6.8,40.36-7.38c1.56-0.16,2.21-0.09,3.03-0.02" class="grey" /><path d="M30.88,64.53c0.94,0.28,2.66,0.34,3.6,0.28c6.77-0.4,35.52-4.99,41.36-5.42c1.56-0.11,2.21-0.06,3.03-0.02" class="grey" /><path d="M17.88,91.25c1.47,0.3,4.15,0.36,5.62,0.3c10.56-0.43,52.41-5.34,61.52-5.8c2.43-0.12,4.48,0.25,6.73,0.98" class="grey" /><path d="M51.81,12.88c0.76,0.52,2.36,3.93,2.51,4.98c0.15,1.05-0.1,63.46-0.25,70.02" class="grey" /><path d="M31.02,27.14c0.03,0.57,0.07,1.47-0.07,2.28C30.13,34.23,25.43,44.79,19,51.25" class="stroke" stroke-dasharray="150"><animate attributeName="stroke-dashoffset" from="150" to="0" dur="1.8s" begin="0.0s" fill="freeze" /></path><path d="M30.88,40.92c0.94,0.38,2.66,0.46,3.6,0.38c6.77-0.55,34.52-6.8,40.36-7.38c1.56-0.16,2.21-0.09,3.03-0.02" class="stroke" stroke-dasharray="150"><set attributeName="opacity" to="0" dur="1.0s" /><animate attributeName="stroke-dashoffset" from="150" to="0" dur="1.8s" begin="1.0s" fill="freeze" /></path><path d="M30.88,64.53c0.94,0.28,2.66,0.34,3.6,0.28c6.77-0.4,35.52-4.99,41.36-5.42c1.56-0.11,2.21-0.06,3.03-0.02" class="stroke" stroke-dasharray="150"><set attributeName="opacity" to="0" dur="2.2s" /><animate attributeName="stroke-dashoffset" from="150" to="0" dur="1.8s" begin="2.2s" fill="freeze" /></path><path d="M17.88,91.25c1.47,0.3,4.15,0.36,5.62,0.3c10.56-0.43,52.41-5.34,61.52-5.8c2.43-0.12,4.48,0.25,6.73,0.98" class="stroke" stroke-dasharray="150"><set attributeName="opacity" to="0" dur="3.4000000000000004s" /><animate attributeName="stroke-dashoffset" from="150" to="0" dur="1.8s" begin="3.4000000000000004s" fill="freeze" /></path><path d="M51.81,12.88c0.76,0.52,2.36,3.93,2.51,4.98c0.15,1.05-0.1,63.46-0.25,70.02" class="stroke" stroke-dasharray="150"><set attributeName="opacity" to="0" dur="5.1000000000000005s" /><animate attributeName="stroke-dashoffset" from="150" to="0" dur="1.8s" begin="5.1000000000000005s" fill="freeze" /></path></svg>