<svg id="kvg-07528-Kaisho" class="kanjivg" viewBox="0 0 106 106" width="106" height="106" xmlns="http://www.w3.org/2000/svg" xmlns:xlink="http://www.w3.org/1999/xlink" xml:space="preserve" version="1.1" baseProfile="full"><defs><style type="text/css">path.black{fill:none;stroke:black;stroke-width:5;stroke-linecap:round;stroke-linejoin:round;}path.grey{fill:none;stroke:#ddd;stroke-width:5;stroke-linecap:round;stroke-linejoin:round;}path.stroke{fill:none;stroke:black;stroke-width:5;stroke-linecap:round;stroke-linejoin:round;}text{font-size:16px;font-family:Segoe UI Symbol,Cambria Math,DejaVu Sans,Symbola,Quivira,STIX,Code2000;-webkit-touch-callout:none;cursor:pointer;-webkit-user-select:none;-khtml-user-select:none;-moz-user-select:none;-ms-user-select:none;user-select: none;}text:hover{color:#777;}#reset{font-weight:bold;}</style><marker id="markerStart" markerWidth="8" markerHeight="8" style="overflow:visible;"><circle cx="0" cy="0" r="1.5" style="stroke:none;fill:red;fill-opacity:0.5;"/></marker><marker id="markerEnd" style="overflow:visible;"><circle cx="0" cy="0" r="0.8" style="stroke:none;fill:blue;fill-opacity:0.5;"><animate attributeName="opacity" from="1" to="0" dur="3s" repeatCount="indefinite" /></circle></marker></defs><path d="M24.94,16.89c0.83,1.04,1.37,2.08,1.65,3.11c0.27,1.04,0.27,27.41,0.27,29.75c0,19.5-5.7,37.72-13.12,45.25" class="grey" /><path d="M28.24,18.93c9.26-0.43,51.48-4.67,53.93-4.96c4.4-0.52,6.05,3.37,5.5,4.93c-0.53,1.5-0.82,50.1-0.82,71.12c0,14.98-8.09,2.23-9.84,1.34" class="grey" /><path d="M28.24,40.91c12.74-0.94,25.46-2.05,38.19-3.11c1.38-0.12,2.74-0.23,4.06-0.34" class="grey" /><path d="M28.5,62c12.47-1.11,25-1.77,37.5-2.54c1.47-0.09,2.91-0.18,4.32-0.27" class="grey" /><path d="M53.37,19.25c1.09,0.5,1.74,2.25,1.96,3.25c0.22,1,0,63.75-0.22,70" class="grey" /><path d="M24.94,16.89c0.83,1.04,1.37,2.08,1.65,3.11c0.27,1.04,0.27,27.41,0.27,29.75c0,19.5-5.7,37.72-13.12,45.25" class="stroke" stroke-dasharray="150"><animate attributeName="stroke-dashoffset" from="150" to="0" dur="1.8s" begin="0.0s" fill="freeze" /></path><path d="M28.24,18.93c9.26-0.43,51.48-4.67,53.93-4.96c4.4-0.52,6.05,3.37,5.5,4.93c-0.53,1.5-0.82,50.1-0.82,71.12c0,14.98-8.09,2.23-9.84,1.34" class="stroke" stroke-dasharray="200"><set attributeName="opacity" to="0" dur="1.7s" /><animate attributeName="stroke-dashoffset" from="200" to="0" dur="1.8s" begin="1.7s" fill="freeze" /></path><path d="M28.24,40.91c12.74-0.94,25.46-2.05,38.19-3.11c1.38-0.12,2.74-0.23,4.06-0.34" class="stroke" stroke-dasharray="150"><set attributeName="opacity" to="0" dur="3.7s" /><animate attributeName="stroke-dashoffset" from="150" to="0" dur="1.8s" begin="3.7s" fill="freeze" /></path><path d="M28.5,62c12.47-1.11,25-1.77,37.5-2.54c1.47-0.09,2.91-0.18,4.32-0.27" class="stroke" stroke-dasharray="150"><set attributeName="opacity" to="0" dur="4.800000000000001s" /><animate attributeName="stroke-dashoffset" from="150" to="0" dur="1.8s" begin="4.800000000000001s" fill="freeze" /></path><path d="M53.37,19.25c1.09,0.5,1.74,2.25,1.96,3.25c0.22,1,0,63.75-0.22,70" class="stroke" stroke-dasharray="150"><set attributeName="opacity" to="0" dur="5.9s" /><animate attributeName="stroke-dashoffset" from="150" to="0" dur="1.8s" begin="5.9s" fill="freeze" /></path></svg>