<svg id="kvg-07528" class="kanjivg" viewBox="0 0 106 106" width="106" height="106" xmlns="http://www.w3.org/2000/svg" xmlns:xlink="http://www.w3.org/1999/xlink" xml:space="preserve" version="1.1" baseProfile="full"><defs><style type="text/css">path.black{fill:none;stroke:black;stroke-width:5;stroke-linecap:round;stroke-linejoin:round;}path.grey{fill:none;stroke:#ddd;stroke-width:5;stroke-linecap:round;stroke-linejoin:round;}path.stroke{fill:none;stroke:black;stroke-width:5;stroke-linecap:round;stroke-linejoin:round;}text{font-size:16px;font-family:Segoe UI Symbol,Cambria Math,DejaVu Sans,Symbola,Quivira,STIX,Code2000;-webkit-touch-callout:none;cursor:pointer;-webkit-user-select:none;-khtml-user-select:none;-moz-user-select:none;-ms-user-select:none;user-select: none;}text:hover{color:#777;}#reset{font-weight:bold;}</style><marker id="markerStart" markerWidth="8" markerHeight="8" style="overflow:visible;"><circle cx="0" cy="0" r="1.5" style="stroke:none;fill:red;fill-opacity:0.5;"/></marker><marker id="markerEnd" style="overflow:visible;"><circle cx="0" cy="0" r="0.8" style="stroke:none;fill:blue;fill-opacity:0.5;"><animate attributeName="opacity" from="1" to="0" dur="3s" repeatCount="indefinite" /></circle></marker></defs><path d="M25.44,16.14c0.83,1.04,1.1,2.36,1.15,3.86C28.12,65.5,24.5,82,13.75,95" class="grey" /><path d="M27.8,18.84C43.75,17,71.5,14,81.92,13.47c4.07-0.21,5.75,2.03,5.75,5.18c0,6.1-0.32,50.35-0.32,71.37c0,14.98-8.09,2.23-9.84,1.34" class="grey" /><path d="M27.99,40.91c16.26-1.66,41.51-3.66,58.25-4.7" class="grey" /><path d="M27.25,62c14.88-1.38,43-3.25,59-4.25" class="grey" /><path d="M53.62,19.5c1.13,1,1.96,2.5,1.96,4.25c0,3.66,0,42.87-0.12,60.75c-0.03,4.11-0.06,7.09-0.1,8.25" class="grey" /><path d="M25.44,16.14c0.83,1.04,1.1,2.36,1.15,3.86C28.12,65.5,24.5,82,13.75,95" class="stroke" stroke-dasharray="150"><animate attributeName="stroke-dashoffset" from="150" to="0" dur="1.8s" begin="0.0s" fill="freeze" /></path><path d="M27.8,18.84C43.75,17,71.5,14,81.92,13.47c4.07-0.21,5.75,2.03,5.75,5.18c0,6.1-0.32,50.35-0.32,71.37c0,14.98-8.09,2.23-9.84,1.34" class="stroke" stroke-dasharray="200"><set attributeName="opacity" to="0" dur="1.7s" /><animate attributeName="stroke-dashoffset" from="200" to="0" dur="1.8s" begin="1.7s" fill="freeze" /></path><path d="M27.99,40.91c16.26-1.66,41.51-3.66,58.25-4.7" class="stroke" stroke-dasharray="150"><set attributeName="opacity" to="0" dur="3.7s" /><animate attributeName="stroke-dashoffset" from="150" to="0" dur="1.8s" begin="3.7s" fill="freeze" /></path><path d="M27.25,62c14.88-1.38,43-3.25,59-4.25" class="stroke" stroke-dasharray="150"><set attributeName="opacity" to="0" dur="5.1s" /><animate attributeName="stroke-dashoffset" from="150" to="0" dur="1.8s" begin="5.1s" fill="freeze" /></path><path d="M53.62,19.5c1.13,1,1.96,2.5,1.96,4.25c0,3.66,0,42.87-0.12,60.75c-0.03,4.11-0.06,7.09-0.1,8.25" class="stroke" stroke-dasharray="150"><set attributeName="opacity" to="0" dur="6.5s" /><animate attributeName="stroke-dashoffset" from="150" to="0" dur="1.8s" begin="6.5s" fill="freeze" /></path></svg>