<svg id="kvg-0753a-Kaisho" class="kanjivg" viewBox="0 0 106 126" width="106" height="106" xmlns="http://www.w3.org/2000/svg" xmlns:xlink="http://www.w3.org/1999/xlink" xml:space="preserve" version="1.1" baseProfile="full"><defs><style type="text/css">path.black{fill:none;stroke:black;stroke-width:5;stroke-linecap:round;stroke-linejoin:round;}path.grey{fill:none;stroke:#ddd;stroke-width:5;stroke-linecap:round;stroke-linejoin:round;}path.stroke{fill:none;stroke:black;stroke-width:5;stroke-linecap:round;stroke-linejoin:round;}text{font-size:16px;font-family:Segoe UI Symbol,Cambria Math,DejaVu Sans,Symbola,Quivira,STIX,Code2000;-webkit-touch-callout:none;cursor:pointer;-webkit-user-select:none;-khtml-user-select:none;-moz-user-select:none;-ms-user-select:none;user-select: none;}text:hover{color:#777;}#reset{font-weight:bold;}</style><marker id="markerStart" markerWidth="8" markerHeight="8" style="overflow:visible;"><circle cx="0" cy="0" r="1.5" style="stroke:none;fill:red;fill-opacity:0.5;"/></marker><marker id="markerEnd" style="overflow:visible;"><circle cx="0" cy="0" r="0.8" style="stroke:none;fill:blue;fill-opacity:0.5;"><animate attributeName="opacity" from="1" to="0" dur="3s" repeatCount="indefinite" /></circle></marker></defs><path d="M11.25,31.25c0.47,0.7,1.61,2.08,1.65,3.01c0.3,7.17,1.33,25.61,1.87,39.49" class="grey" /><path d="M13.55,33.25c7.09-1.34,19.94-3.3,24.78-3.51c2-0.09,3.01,1.91,2.9,3.93c-0.4,7.4-1.82,26.99-2.23,38.58" class="grey" /><path d="M26.81,32.3c-0.1,4.38,0.1,33.6,0.1,37.25" class="grey" /><path d="M14.43,51.84c5.61-0.87,11.32-1.28,16.96-1.84c0.68-0.07,1.34-0.13,1.97-0.19" class="grey" /><path d="M15.15,71.79c5.24,0,16.57-1.68,23.81-1.88" class="grey" /><path d="M49,27.93c0.9,0.35,2.55,0.42,3.45,0.35c7.3-0.53,27.05-3.03,40.9-3.52c1.5-0.05,2.4,0.17,3.15,0.34" class="grey" /><path d="M73.27,29.83c0.08,0.48,1.17,2.51,1.25,5.56c0.4,14.66-1.02,51.06-1.25,56.05c-0.15,3.05-1.7,4.28-3.95,4.03c-2.44-0.27-4.52-3.52-6.01-4.78" class="grey" /><path d="M11.25,31.25c0.47,0.7,1.61,2.08,1.65,3.01c0.3,7.17,1.33,25.61,1.87,39.49" class="stroke" stroke-dasharray="150"><animate attributeName="stroke-dashoffset" from="150" to="0" dur="1.8s" begin="0.0s" fill="freeze" /></path><path d="M13.55,33.25c7.09-1.34,19.94-3.3,24.78-3.51c2-0.09,3.01,1.91,2.9,3.93c-0.4,7.4-1.82,26.99-2.23,38.58" class="stroke" stroke-dasharray="150"><set attributeName="opacity" to="0" dur="1.1s" /><animate attributeName="stroke-dashoffset" from="150" to="0" dur="1.8s" begin="1.1s" fill="freeze" /></path><path d="M26.81,32.3c-0.1,4.38,0.1,33.6,0.1,37.25" class="stroke" stroke-dasharray="150"><set attributeName="opacity" to="0" dur="2.6s" /><animate attributeName="stroke-dashoffset" from="150" to="0" dur="1.8s" begin="2.6s" fill="freeze" /></path><path d="M14.43,51.84c5.61-0.87,11.32-1.28,16.96-1.84c0.68-0.07,1.34-0.13,1.97-0.19" class="stroke" stroke-dasharray="150"><set attributeName="opacity" to="0" dur="3.6s" /><animate attributeName="stroke-dashoffset" from="150" to="0" dur="1.8s" begin="3.6s" fill="freeze" /></path><path d="M15.15,71.79c5.24,0,16.57-1.68,23.81-1.88" class="stroke" stroke-dasharray="150"><set attributeName="opacity" to="0" dur="4.5s" /><animate attributeName="stroke-dashoffset" from="150" to="0" dur="1.8s" begin="4.5s" fill="freeze" /></path><path d="M49,27.93c0.9,0.35,2.55,0.42,3.45,0.35c7.3-0.53,27.05-3.03,40.9-3.52c1.5-0.05,2.4,0.17,3.15,0.34" class="stroke" stroke-dasharray="150"><set attributeName="opacity" to="0" dur="5.5s" /><animate attributeName="stroke-dashoffset" from="150" to="0" dur="1.8s" begin="5.5s" fill="freeze" /></path><path d="M73.27,29.83c0.08,0.48,1.17,2.51,1.25,5.56c0.4,14.66-1.02,51.06-1.25,56.05c-0.15,3.05-1.7,4.28-3.95,4.03c-2.44-0.27-4.52-3.52-6.01-4.78" class="stroke" stroke-dasharray="150"><set attributeName="opacity" to="0" dur="6.7s" /><animate attributeName="stroke-dashoffset" from="150" to="0" dur="1.8s" begin="6.7s" fill="freeze" /></path></svg>