<svg id="kvg-07530-Kaisho" class="kanjivg" viewBox="0 0 106 126" width="106" height="106" xmlns="http://www.w3.org/2000/svg" xmlns:xlink="http://www.w3.org/1999/xlink" xml:space="preserve" version="1.1" baseProfile="full"><defs><style type="text/css">path.black{fill:none;stroke:black;stroke-width:5;stroke-linecap:round;stroke-linejoin:round;}path.grey{fill:none;stroke:#ddd;stroke-width:5;stroke-linecap:round;stroke-linejoin:round;}path.stroke{fill:none;stroke:black;stroke-width:5;stroke-linecap:round;stroke-linejoin:round;}text{font-size:16px;font-family:Segoe UI Symbol,Cambria Math,DejaVu Sans,Symbola,Quivira,STIX,Code2000;-webkit-touch-callout:none;cursor:pointer;-webkit-user-select:none;-khtml-user-select:none;-moz-user-select:none;-ms-user-select:none;user-select: none;}text:hover{color:#777;}#reset{font-weight:bold;}</style><marker id="markerStart" markerWidth="8" markerHeight="8" style="overflow:visible;"><circle cx="0" cy="0" r="1.5" style="stroke:none;fill:red;fill-opacity:0.5;"/></marker><marker id="markerEnd" style="overflow:visible;"><circle cx="0" cy="0" r="0.8" style="stroke:none;fill:blue;fill-opacity:0.5;"><animate attributeName="opacity" from="1" to="0" dur="3s" repeatCount="indefinite" /></circle></marker></defs><path d="M19,27.48c0.5,1.02,0.51,1.7,0.78,2.95C22,40.75,24,66.5,25.31,85.5" class="grey" /><path d="M21.35,29.04C39,28,69.25,26.25,82.43,25.24c4.84-0.37,7.3,2.62,7.04,5.38C88.5,40.75,86,66,85.01,81.87" class="grey" /><path d="M54.5,28.75c-0.03,0.79-0.05,2.18-0.06,4c-0.06,11.96,0.31,42.66,0.31,47" class="grey" /><path d="M24.5,55.5c13.67-1.19,27.43-1.76,41.13-2.52c1.65-0.09,3.25-0.18,4.78-0.26" class="grey" /><path d="M26.23,82.82c12.7,0,41.39-2.3,58.93-2.58" class="grey" /><path d="M19,27.48c0.5,1.02,0.51,1.7,0.78,2.95C22,40.75,24,66.5,25.31,85.5" class="stroke" stroke-dasharray="150"><animate attributeName="stroke-dashoffset" from="150" to="0" dur="1.8s" begin="0.0s" fill="freeze" /></path><path d="M21.35,29.04C39,28,69.25,26.25,82.43,25.24c4.84-0.37,7.3,2.62,7.04,5.38C88.5,40.75,86,66,85.01,81.87" class="stroke" stroke-dasharray="150"><set attributeName="opacity" to="0" dur="1.4s" /><animate attributeName="stroke-dashoffset" from="150" to="0" dur="1.8s" begin="1.4s" fill="freeze" /></path><path d="M54.5,28.75c-0.03,0.79-0.05,2.18-0.06,4c-0.06,11.96,0.31,42.66,0.31,47" class="stroke" stroke-dasharray="150"><set attributeName="opacity" to="0" dur="3.4s" /><animate attributeName="stroke-dashoffset" from="150" to="0" dur="1.8s" begin="3.4s" fill="freeze" /></path><path d="M24.5,55.5c13.67-1.19,27.43-1.76,41.13-2.52c1.65-0.09,3.25-0.18,4.78-0.26" class="stroke" stroke-dasharray="150"><set attributeName="opacity" to="0" dur="4.7s" /><animate attributeName="stroke-dashoffset" from="150" to="0" dur="1.8s" begin="4.7s" fill="freeze" /></path><path d="M26.23,82.82c12.7,0,41.39-2.3,58.93-2.58" class="stroke" stroke-dasharray="150"><set attributeName="opacity" to="0" dur="5.9s" /><animate attributeName="stroke-dashoffset" from="150" to="0" dur="1.8s" begin="5.9s" fill="freeze" /></path></svg>