<svg id="kvg-07530" class="kanjivg" viewBox="0 0 106 106" width="106" height="106" xmlns="http://www.w3.org/2000/svg" xmlns:xlink="http://www.w3.org/1999/xlink" xml:space="preserve" version="1.1" baseProfile="full"><defs><style type="text/css">path.black{fill:none;stroke:black;stroke-width:5;stroke-linecap:round;stroke-linejoin:round;}path.grey{fill:none;stroke:#ddd;stroke-width:5;stroke-linecap:round;stroke-linejoin:round;}path.stroke{fill:none;stroke:black;stroke-width:5;stroke-linecap:round;stroke-linejoin:round;}text{font-size:16px;font-family:Segoe UI Symbol,Cambria Math,DejaVu Sans,Symbola,Quivira,STIX,Code2000;-webkit-touch-callout:none;cursor:pointer;-webkit-user-select:none;-khtml-user-select:none;-moz-user-select:none;-ms-user-select:none;user-select: none;}text:hover{color:#777;}#reset{font-weight:bold;}</style><marker id="markerStart" markerWidth="8" markerHeight="8" style="overflow:visible;"><circle cx="0" cy="0" r="1.5" style="stroke:none;fill:red;fill-opacity:0.5;"/></marker><marker id="markerEnd" style="overflow:visible;"><circle cx="0" cy="0" r="0.8" style="stroke:none;fill:blue;fill-opacity:0.5;"><animate attributeName="opacity" from="1" to="0" dur="3s" repeatCount="indefinite" /></circle></marker></defs><path d="M18.25,27.48c1.2,1.2,2.11,2.68,2.28,3.95C22,42.25,23.52,62.11,24.81,80c0.17,2.4,0.34,3.75,0.49,6" class="grey" /><path d="M20.85,29.29c8.52-0.54,50.04-3.17,61.58-4.05c4.84-0.37,7.32,2.01,7.04,5.63c-0.69,8.8-2.83,30.69-3.99,46.64c-0.18,2.44-0.34,4.75-0.47,6.86" class="grey" /><path d="M53.25,29c0.88,0.88,1.19,2.12,1.19,3.5c0,9.52,0.31,46.37,0.31,47.25" class="grey" /><path d="M24,55.5c5.75-0.5,55.12-3.25,62.5-3.5" class="grey" /><path d="M25.98,83.07c14.77-0.82,39.39-2.07,58.18-2.83" class="grey" /><path d="M18.25,27.48c1.2,1.2,2.11,2.68,2.28,3.95C22,42.25,23.52,62.11,24.81,80c0.17,2.4,0.34,3.75,0.49,6" class="stroke" stroke-dasharray="150"><animate attributeName="stroke-dashoffset" from="150" to="0" dur="1.8s" begin="0.0s" fill="freeze" /></path><path d="M20.85,29.29c8.52-0.54,50.04-3.17,61.58-4.05c4.84-0.37,7.32,2.01,7.04,5.63c-0.69,8.8-2.83,30.69-3.99,46.64c-0.18,2.44-0.34,4.75-0.47,6.86" class="stroke" stroke-dasharray="150"><set attributeName="opacity" to="0" dur="1.4s" /><animate attributeName="stroke-dashoffset" from="150" to="0" dur="1.8s" begin="1.4s" fill="freeze" /></path><path d="M53.25,29c0.88,0.88,1.19,2.12,1.19,3.5c0,9.52,0.31,46.37,0.31,47.25" class="stroke" stroke-dasharray="150"><set attributeName="opacity" to="0" dur="3.4s" /><animate attributeName="stroke-dashoffset" from="150" to="0" dur="1.8s" begin="3.4s" fill="freeze" /></path><path d="M24,55.5c5.75-0.5,55.12-3.25,62.5-3.5" class="stroke" stroke-dasharray="150"><set attributeName="opacity" to="0" dur="4.7s" /><animate attributeName="stroke-dashoffset" from="150" to="0" dur="1.8s" begin="4.7s" fill="freeze" /></path><path d="M25.98,83.07c14.77-0.82,39.39-2.07,58.18-2.83" class="stroke" stroke-dasharray="150"><set attributeName="opacity" to="0" dur="6.2s" /><animate attributeName="stroke-dashoffset" from="150" to="0" dur="1.8s" begin="6.2s" fill="freeze" /></path></svg>