<svg id="kvg-0758b" class="kanjivg" viewBox="0 0 106 106" width="106" height="106" xmlns="http://www.w3.org/2000/svg" xmlns:xlink="http://www.w3.org/1999/xlink" xml:space="preserve" version="1.1" baseProfile="full"><defs><style type="text/css">path.black{fill:none;stroke:black;stroke-width:5;stroke-linecap:round;stroke-linejoin:round;}path.grey{fill:none;stroke:#ddd;stroke-width:5;stroke-linecap:round;stroke-linejoin:round;}path.stroke{fill:none;stroke:black;stroke-width:5;stroke-linecap:round;stroke-linejoin:round;}text{font-size:16px;font-family:Segoe UI Symbol,Cambria Math,DejaVu Sans,Symbola,Quivira,STIX,Code2000;-webkit-touch-callout:none;cursor:pointer;-webkit-user-select:none;-khtml-user-select:none;-moz-user-select:none;-ms-user-select:none;user-select: none;}text:hover{color:#777;}#reset{font-weight:bold;}</style><marker id="markerStart" markerWidth="8" markerHeight="8" style="overflow:visible;"><circle cx="0" cy="0" r="1.5" style="stroke:none;fill:red;fill-opacity:0.5;"/></marker><marker id="markerEnd" style="overflow:visible;"><circle cx="0" cy="0" r="0.8" style="stroke:none;fill:blue;fill-opacity:0.5;"><animate attributeName="opacity" from="1" to="0" dur="3s" repeatCount="indefinite" /></circle></marker></defs><path d="M22.22,23c2.78,0.5,4.46,0.89,7.28,0.5c16-2.25,36.97-6.25,54.69-6.25c9.56,0,5.56,4-0.69,9.5" class="grey" /><path d="M52.87,21.25c1.09,0.5,1.74,2.25,1.96,3.25c0.22,1,0.5,45.25,0.28,51.5" class="grey" /><path d="M55.38,50c7.12-0.75,10.62-1.5,21.35-3c1.73-0.24,2.18-0.25,3.26,0" class="grey" /><path d="M35.75,44.64c0.06,0.99,0.12,2.56-0.11,3.98c-1.36,8.39-9.16,26.32-19.83,37.59" class="grey" /><path d="M30.75,64.5c8.2,3.64,44.2,20.84,53.11,24.42c3.02,1.21,5.61,1.73,8.64,2.08" class="grey" /><path d="M22.22,23c2.78,0.5,4.46,0.89,7.28,0.5c16-2.25,36.97-6.25,54.69-6.25c9.56,0,5.56,4-0.69,9.5" class="stroke" stroke-dasharray="150"><animate attributeName="stroke-dashoffset" from="150" to="0" dur="1.8s" begin="0.0s" fill="freeze" /></path><path d="M52.87,21.25c1.09,0.5,1.74,2.25,1.96,3.25c0.22,1,0.5,45.25,0.28,51.5" class="stroke" stroke-dasharray="150"><set attributeName="opacity" to="0" dur="1.7s" /><animate attributeName="stroke-dashoffset" from="150" to="0" dur="1.8s" begin="1.7s" fill="freeze" /></path><path d="M55.38,50c7.12-0.75,10.62-1.5,21.35-3c1.73-0.24,2.18-0.25,3.26,0" class="stroke" stroke-dasharray="150"><set attributeName="opacity" to="0" dur="3.0999999999999996s" /><animate attributeName="stroke-dashoffset" from="150" to="0" dur="1.8s" begin="3.0999999999999996s" fill="freeze" /></path><path d="M35.75,44.64c0.06,0.99,0.12,2.56-0.11,3.98c-1.36,8.39-9.16,26.32-19.83,37.59" class="stroke" stroke-dasharray="150"><set attributeName="opacity" to="0" dur="4.1s" /><animate attributeName="stroke-dashoffset" from="150" to="0" dur="1.8s" begin="4.1s" fill="freeze" /></path><path d="M30.75,64.5c8.2,3.64,44.2,20.84,53.11,24.42c3.02,1.21,5.61,1.73,8.64,2.08" class="stroke" stroke-dasharray="150"><set attributeName="opacity" to="0" dur="5.3s" /><animate attributeName="stroke-dashoffset" from="150" to="0" dur="1.8s" begin="5.3s" fill="freeze" /></path></svg>