<svg id="kvg-07592" class="kanjivg" viewBox="0 0 106 106" width="106" height="106" xmlns="http://www.w3.org/2000/svg" xmlns:xlink="http://www.w3.org/1999/xlink" xml:space="preserve" version="1.1" baseProfile="full"><defs><style type="text/css">path.black{fill:none;stroke:black;stroke-width:5;stroke-linecap:round;stroke-linejoin:round;}path.grey{fill:none;stroke:#ddd;stroke-width:5;stroke-linecap:round;stroke-linejoin:round;}path.stroke{fill:none;stroke:black;stroke-width:5;stroke-linecap:round;stroke-linejoin:round;}text{font-size:16px;font-family:Segoe UI Symbol,Cambria Math,DejaVu Sans,Symbola,Quivira,STIX,Code2000;-webkit-touch-callout:none;cursor:pointer;-webkit-user-select:none;-khtml-user-select:none;-moz-user-select:none;-ms-user-select:none;user-select: none;}text:hover{color:#777;}#reset{font-weight:bold;}</style><marker id="markerStart" markerWidth="8" markerHeight="8" style="overflow:visible;"><circle cx="0" cy="0" r="1.5" style="stroke:none;fill:red;fill-opacity:0.5;"/></marker><marker id="markerEnd" style="overflow:visible;"><circle cx="0" cy="0" r="0.8" style="stroke:none;fill:blue;fill-opacity:0.5;"><animate attributeName="opacity" from="1" to="0" dur="3s" repeatCount="indefinite" /></circle></marker></defs><path d="M60.06,6.88c1.34,1.34,1.51,2.74,1.51,4.4c0,0.79-0.07,7.96-0.07,10.71" class="grey" /><path d="M31.38,23.08c1.62,1.05,4.46,1.37,6.04,1.45c2.09,0.1,3.53,0.06,4.73,0c14.48-0.65,29.23-2.03,43.99-3.26c3.45-0.29,6.82-0.38,10.25,0.21" class="grey" /><path d="M33.99,24.75c0.75,0.75,0.69,2.18,0.66,3.25c-1.16,32.15-9.16,48.05-20.84,64.47" class="grey" /><path d="M10.75,29.25c3.88,2.2,10.03,9.07,11,12.5" class="grey" /><path d="M7.17,60.63c1.9,0.72,2.49,0.51,4.16-0.36c6.76-3.55,10.67-5.82,15.79-8.89" class="grey" /><path d="M60.06,6.88c1.34,1.34,1.51,2.74,1.51,4.4c0,0.79-0.07,7.96-0.07,10.71" class="stroke" stroke-dasharray="150"><animate attributeName="stroke-dashoffset" from="150" to="0" dur="1.8s" begin="0.0s" fill="freeze" /></path><path d="M31.38,23.08c1.62,1.05,4.46,1.37,6.04,1.45c2.09,0.1,3.53,0.06,4.73,0c14.48-0.65,29.23-2.03,43.99-3.26c3.45-0.29,6.82-0.38,10.25,0.21" class="stroke" stroke-dasharray="150"><set attributeName="opacity" to="0" dur="0.9s" /><animate attributeName="stroke-dashoffset" from="150" to="0" dur="1.8s" begin="0.9s" fill="freeze" /></path><path d="M33.99,24.75c0.75,0.75,0.69,2.18,0.66,3.25c-1.16,32.15-9.16,48.05-20.84,64.47" class="stroke" stroke-dasharray="150"><set attributeName="opacity" to="0" dur="2.4s" /><animate attributeName="stroke-dashoffset" from="150" to="0" dur="1.8s" begin="2.4s" fill="freeze" /></path><path d="M10.75,29.25c3.88,2.2,10.03,9.07,11,12.5" class="stroke" stroke-dasharray="150"><set attributeName="opacity" to="0" dur="4.1s" /><animate attributeName="stroke-dashoffset" from="150" to="0" dur="1.8s" begin="4.1s" fill="freeze" /></path><path d="M7.17,60.63c1.9,0.72,2.49,0.51,4.16-0.36c6.76-3.55,10.67-5.82,15.79-8.89" class="stroke" stroke-dasharray="150"><set attributeName="opacity" to="0" dur="5.0s" /><animate attributeName="stroke-dashoffset" from="150" to="0" dur="1.8s" begin="5.0s" fill="freeze" /></path></svg>