<svg id="kvg-07592-Kaisho" class="kanjivg" viewBox="0 0 106 106" width="106" height="106" xmlns="http://www.w3.org/2000/svg" xmlns:xlink="http://www.w3.org/1999/xlink" xml:space="preserve" version="1.1" baseProfile="full"><defs><style type="text/css">path.black{fill:none;stroke:black;stroke-width:5;stroke-linecap:round;stroke-linejoin:round;}path.grey{fill:none;stroke:#ddd;stroke-width:5;stroke-linecap:round;stroke-linejoin:round;}path.stroke{fill:none;stroke:black;stroke-width:5;stroke-linecap:round;stroke-linejoin:round;}text{font-size:16px;font-family:Segoe UI Symbol,Cambria Math,DejaVu Sans,Symbola,Quivira,STIX,Code2000;-webkit-touch-callout:none;cursor:pointer;-webkit-user-select:none;-khtml-user-select:none;-moz-user-select:none;-ms-user-select:none;user-select: none;}text:hover{color:#777;}#reset{font-weight:bold;}</style><marker id="markerStart" markerWidth="8" markerHeight="8" style="overflow:visible;"><circle cx="0" cy="0" r="1.5" style="stroke:none;fill:red;fill-opacity:0.5;"/></marker><marker id="markerEnd" style="overflow:visible;"><circle cx="0" cy="0" r="0.8" style="stroke:none;fill:blue;fill-opacity:0.5;"><animate attributeName="opacity" from="1" to="0" dur="3s" repeatCount="indefinite" /></circle></marker></defs><path d="M57.55,11.88c2.19,0.77,6.84,5.77,7.28,7.3" class="grey" /><path d="M30.38,26.48c1.52,0.54,4.3,0.63,5.82,0.54c15.8-0.91,36.05-3.52,50.11-4.23c2.53-0.13,4.05,0.26,5.31,0.53" class="grey" /><path d="M33.74,28.25c0,35.75-1.24,53.5-14.69,66.97" class="grey" /><path d="M17,39.75c2.74,1.63,7.07,6.71,7.75,9.25" class="grey" /><path d="M14.42,71.72c1.58,0.78,2.07,0.55,3.46-0.39c5.62-3.83,8.87-6.27,13.12-9.58" class="grey" /><path d="M57.55,11.88c2.19,0.77,6.84,5.77,7.28,7.3" class="stroke" stroke-dasharray="150"><animate attributeName="stroke-dashoffset" from="150" to="0" dur="1.8s" begin="0.0s" fill="freeze" /></path><path d="M30.38,26.48c1.52,0.54,4.3,0.63,5.82,0.54c15.8-0.91,36.05-3.52,50.11-4.23c2.53-0.13,4.05,0.26,5.31,0.53" class="stroke" stroke-dasharray="150"><set attributeName="opacity" to="0" dur="0.9s" /><animate attributeName="stroke-dashoffset" from="150" to="0" dur="1.8s" begin="0.9s" fill="freeze" /></path><path d="M33.74,28.25c0,35.75-1.24,53.5-14.69,66.97" class="stroke" stroke-dasharray="150"><set attributeName="opacity" to="0" dur="2.4s" /><animate attributeName="stroke-dashoffset" from="150" to="0" dur="1.8s" begin="2.4s" fill="freeze" /></path><path d="M17,39.75c2.74,1.63,7.07,6.71,7.75,9.25" class="stroke" stroke-dasharray="150"><set attributeName="opacity" to="0" dur="4.1s" /><animate attributeName="stroke-dashoffset" from="150" to="0" dur="1.8s" begin="4.1s" fill="freeze" /></path><path d="M14.42,71.72c1.58,0.78,2.07,0.55,3.46-0.39c5.62-3.83,8.87-6.27,13.12-9.58" class="stroke" stroke-dasharray="150"><set attributeName="opacity" to="0" dur="5.0s" /><animate attributeName="stroke-dashoffset" from="150" to="0" dur="1.8s" begin="5.0s" fill="freeze" /></path></svg>