<svg id="kvg-07676" class="kanjivg" viewBox="0 0 106 106" width="106" height="106" xmlns="http://www.w3.org/2000/svg" xmlns:xlink="http://www.w3.org/1999/xlink" xml:space="preserve" version="1.1" baseProfile="full"><defs><style type="text/css">path.black{fill:none;stroke:black;stroke-width:5;stroke-linecap:round;stroke-linejoin:round;}path.grey{fill:none;stroke:#ddd;stroke-width:5;stroke-linecap:round;stroke-linejoin:round;}path.stroke{fill:none;stroke:black;stroke-width:5;stroke-linecap:round;stroke-linejoin:round;}text{font-size:16px;font-family:Segoe UI Symbol,Cambria Math,DejaVu Sans,Symbola,Quivira,STIX,Code2000;-webkit-touch-callout:none;cursor:pointer;-webkit-user-select:none;-khtml-user-select:none;-moz-user-select:none;-ms-user-select:none;user-select: none;}text:hover{color:#777;}#reset{font-weight:bold;}</style><marker id="markerStart" markerWidth="8" markerHeight="8" style="overflow:visible;"><circle cx="0" cy="0" r="1.5" style="stroke:none;fill:red;fill-opacity:0.5;"/></marker><marker id="markerEnd" style="overflow:visible;"><circle cx="0" cy="0" r="0.8" style="stroke:none;fill:blue;fill-opacity:0.5;"><animate attributeName="opacity" from="1" to="0" dur="3s" repeatCount="indefinite" /></circle></marker></defs><path d="M22.5,32c1.5,0.75,2.07,0.61,4.5,0.25c6.31-0.93,8.75-1.75,15.49-2.94C46.48,28.6,47.28,29.95,46,34c-3,9.5-21.25,37.25-35.5,42.25" class="grey" /><path d="M19.02,43.33c3.9,2.1,10.07,8.62,11.04,11.88" class="grey" /><path d="M75.78,24.64c0.03,0.3,0.06,0.78-0.05,1.21c-0.65,2.56-4.35,8.17-9.42,11.61" class="grey" /><path d="M53.25,26.25c2.5,0.25,30.34,38.44,36.27,45.12c2.01,2.27,3.73,3.24,5.73,3.88" class="grey" /><path d="M86.27,36.89c0.03,0.28,0.06,0.73-0.06,1.14c-0.75,2.41-5.04,7.7-10.9,10.93" class="grey" /><path d="M22.5,32c1.5,0.75,2.07,0.61,4.5,0.25c6.31-0.93,8.75-1.75,15.49-2.94C46.48,28.6,47.28,29.95,46,34c-3,9.5-21.25,37.25-35.5,42.25" class="stroke" stroke-dasharray="150"><animate attributeName="stroke-dashoffset" from="150" to="0" dur="1.8s" begin="0.0s" fill="freeze" /></path><path d="M19.02,43.33c3.9,2.1,10.07,8.62,11.04,11.88" class="stroke" stroke-dasharray="150"><set attributeName="opacity" to="0" dur="1.7s" /><animate attributeName="stroke-dashoffset" from="150" to="0" dur="1.8s" begin="1.7s" fill="freeze" /></path><path d="M75.78,24.64c0.03,0.3,0.06,0.78-0.05,1.21c-0.65,2.56-4.35,8.17-9.42,11.61" class="stroke" stroke-dasharray="150"><set attributeName="opacity" to="0" dur="2.6s" /><animate attributeName="stroke-dashoffset" from="150" to="0" dur="1.8s" begin="2.6s" fill="freeze" /></path><path d="M53.25,26.25c2.5,0.25,30.34,38.44,36.27,45.12c2.01,2.27,3.73,3.24,5.73,3.88" class="stroke" stroke-dasharray="150"><set attributeName="opacity" to="0" dur="3.5s" /><animate attributeName="stroke-dashoffset" from="150" to="0" dur="1.8s" begin="3.5s" fill="freeze" /></path><path d="M86.27,36.89c0.03,0.28,0.06,0.73-0.06,1.14c-0.75,2.41-5.04,7.7-10.9,10.93" class="stroke" stroke-dasharray="150"><set attributeName="opacity" to="0" dur="5.0s" /><animate attributeName="stroke-dashoffset" from="150" to="0" dur="1.8s" begin="5.0s" fill="freeze" /></path></svg>