<svg id="kvg-0767d-Kaisho" class="kanjivg" viewBox="0 0 106 106" width="106" height="106" xmlns="http://www.w3.org/2000/svg" xmlns:xlink="http://www.w3.org/1999/xlink" xml:space="preserve" version="1.1" baseProfile="full"><defs><style type="text/css">path.black{fill:none;stroke:black;stroke-width:5;stroke-linecap:round;stroke-linejoin:round;}path.grey{fill:none;stroke:#ddd;stroke-width:5;stroke-linecap:round;stroke-linejoin:round;}path.stroke{fill:none;stroke:black;stroke-width:5;stroke-linecap:round;stroke-linejoin:round;}text{font-size:16px;font-family:Segoe UI Symbol,Cambria Math,DejaVu Sans,Symbola,Quivira,STIX,Code2000;-webkit-touch-callout:none;cursor:pointer;-webkit-user-select:none;-khtml-user-select:none;-moz-user-select:none;-ms-user-select:none;user-select: none;}text:hover{color:#777;}#reset{font-weight:bold;}</style><marker id="markerStart" markerWidth="8" markerHeight="8" style="overflow:visible;"><circle cx="0" cy="0" r="1.5" style="stroke:none;fill:red;fill-opacity:0.5;"/></marker><marker id="markerEnd" style="overflow:visible;"><circle cx="0" cy="0" r="0.8" style="stroke:none;fill:blue;fill-opacity:0.5;"><animate attributeName="opacity" from="1" to="0" dur="3s" repeatCount="indefinite" /></circle></marker></defs><path d="M54.25,13.25c0.74,0.98,1.01,2.23,0.68,3.04c-2.43,5.96-9.98,17.14-18.12,23.93" class="grey" /><path d="M25.25,40.97c0.94,1.37,1.88,2.06,1.88,3.88c0,1.83,0.62,43.9,1,52.9" class="grey" /><path d="M27.69,44.2c5.31-0.23,48.17-5.31,52.99-5.7c3.06-0.25,4.31,1.5,4.31,4.38c-0.01,4.93-2.74,38.37-3.74,53.46" class="grey" /><path d="M27.63,67.69c9.63-0.59,19.24-1.57,28.85-2.4c2.86-0.25,5.7-0.49,8.42-0.71" class="grey" /><path d="M28.69,94.24C42,93.5,67.25,91.75,81.44,91.41" class="grey" /><path d="M54.25,13.25c0.74,0.98,1.01,2.23,0.68,3.04c-2.43,5.96-9.98,17.14-18.12,23.93" class="stroke" stroke-dasharray="150"><animate attributeName="stroke-dashoffset" from="150" to="0" dur="1.8s" begin="0.0s" fill="freeze" /></path><path d="M25.25,40.97c0.94,1.37,1.88,2.06,1.88,3.88c0,1.83,0.62,43.9,1,52.9" class="stroke" stroke-dasharray="150"><set attributeName="opacity" to="0" dur="1.0s" /><animate attributeName="stroke-dashoffset" from="150" to="0" dur="1.8s" begin="1.0s" fill="freeze" /></path><path d="M27.69,44.2c5.31-0.23,48.17-5.31,52.99-5.7c3.06-0.25,4.31,1.5,4.31,4.38c-0.01,4.93-2.74,38.37-3.74,53.46" class="stroke" stroke-dasharray="150"><set attributeName="opacity" to="0" dur="2.4s" /><animate attributeName="stroke-dashoffset" from="150" to="0" dur="1.8s" begin="2.4s" fill="freeze" /></path><path d="M27.63,67.69c9.63-0.59,19.24-1.57,28.85-2.4c2.86-0.25,5.7-0.49,8.42-0.71" class="stroke" stroke-dasharray="150"><set attributeName="opacity" to="0" dur="4.4s" /><animate attributeName="stroke-dashoffset" from="150" to="0" dur="1.8s" begin="4.4s" fill="freeze" /></path><path d="M28.69,94.24C42,93.5,67.25,91.75,81.44,91.41" class="stroke" stroke-dasharray="150"><set attributeName="opacity" to="0" dur="5.4s" /><animate attributeName="stroke-dashoffset" from="150" to="0" dur="1.8s" begin="5.4s" fill="freeze" /></path></svg>