<svg id="kvg-076bf" class="kanjivg" viewBox="0 0 106 106" width="106" height="106" xmlns="http://www.w3.org/2000/svg" xmlns:xlink="http://www.w3.org/1999/xlink" xml:space="preserve" version="1.1" baseProfile="full"><defs><style type="text/css">path.black{fill:none;stroke:black;stroke-width:5;stroke-linecap:round;stroke-linejoin:round;}path.grey{fill:none;stroke:#ddd;stroke-width:5;stroke-linecap:round;stroke-linejoin:round;}path.stroke{fill:none;stroke:black;stroke-width:5;stroke-linecap:round;stroke-linejoin:round;}text{font-size:16px;font-family:Segoe UI Symbol,Cambria Math,DejaVu Sans,Symbola,Quivira,STIX,Code2000;-webkit-touch-callout:none;cursor:pointer;-webkit-user-select:none;-khtml-user-select:none;-moz-user-select:none;-ms-user-select:none;user-select: none;}text:hover{color:#777;}#reset{font-weight:bold;}</style><marker id="markerStart" markerWidth="8" markerHeight="8" style="overflow:visible;"><circle cx="0" cy="0" r="1.5" style="stroke:none;fill:red;fill-opacity:0.5;"/></marker><marker id="markerEnd" style="overflow:visible;"><circle cx="0" cy="0" r="0.8" style="stroke:none;fill:blue;fill-opacity:0.5;"><animate attributeName="opacity" from="1" to="0" dur="3s" repeatCount="indefinite" /></circle></marker></defs><path d="M22.82,32.31c1.06,1.06,1.81,2.48,1.91,3.5c1.02,9.81,2.57,27.99,3.45,42.44" class="grey" /><path d="M25.92,34.83c11.91-1.45,43.51-3.98,54.7-4.6C84.75,30,87.5,31.38,86.77,36c-1.51,9.6-5.02,33.87-6.11,40.42" class="grey" /><path d="M42.66,35.06c0.77,0.77,1.2,1.9,1.28,2.86c0.69,8.96,1.66,26.03,2.41,39.66" class="grey" /><path d="M63.92,33.33c0.58,0.92,0.89,2.48,0.79,3.67c-0.96,11.75-2.03,24.78-3.21,39.83" class="grey" /><path d="M10.13,79.32c2.81,0.92,7.95,1.09,10.76,0.92c24.86-1.49,46.49-2.49,66.92-2.69c4.67-0.05,7.48,0.44,9.82,0.9" class="grey" /><path d="M22.82,32.31c1.06,1.06,1.81,2.48,1.91,3.5c1.02,9.81,2.57,27.99,3.45,42.44" class="stroke" stroke-dasharray="150"><animate attributeName="stroke-dashoffset" from="150" to="0" dur="1.8s" begin="0.0s" fill="freeze" /></path><path d="M25.92,34.83c11.91-1.45,43.51-3.98,54.7-4.6C84.75,30,87.5,31.38,86.77,36c-1.51,9.6-5.02,33.87-6.11,40.42" class="stroke" stroke-dasharray="150"><set attributeName="opacity" to="0" dur="1.2s" /><animate attributeName="stroke-dashoffset" from="150" to="0" dur="1.8s" begin="1.2s" fill="freeze" /></path><path d="M42.66,35.06c0.77,0.77,1.2,1.9,1.28,2.86c0.69,8.96,1.66,26.03,2.41,39.66" class="stroke" stroke-dasharray="150"><set attributeName="opacity" to="0" dur="3.0999999999999996s" /><animate attributeName="stroke-dashoffset" from="150" to="0" dur="1.8s" begin="3.0999999999999996s" fill="freeze" /></path><path d="M63.92,33.33c0.58,0.92,0.89,2.48,0.79,3.67c-0.96,11.75-2.03,24.78-3.21,39.83" class="stroke" stroke-dasharray="150"><set attributeName="opacity" to="0" dur="4.199999999999999s" /><animate attributeName="stroke-dashoffset" from="150" to="0" dur="1.8s" begin="4.199999999999999s" fill="freeze" /></path><path d="M10.13,79.32c2.81,0.92,7.95,1.09,10.76,0.92c24.86-1.49,46.49-2.49,66.92-2.69c4.67-0.05,7.48,0.44,9.82,0.9" class="stroke" stroke-dasharray="150"><set attributeName="opacity" to="0" dur="5.299999999999999s" /><animate attributeName="stroke-dashoffset" from="150" to="0" dur="1.8s" begin="5.299999999999999s" fill="freeze" /></path></svg>