<svg id="kvg-076ee" class="kanjivg" viewBox="0 0 106 106" width="106" height="106" xmlns="http://www.w3.org/2000/svg" xmlns:xlink="http://www.w3.org/1999/xlink" xml:space="preserve" version="1.1" baseProfile="full"><defs><style type="text/css">path.black{fill:none;stroke:black;stroke-width:5;stroke-linecap:round;stroke-linejoin:round;}path.grey{fill:none;stroke:#ddd;stroke-width:5;stroke-linecap:round;stroke-linejoin:round;}path.stroke{fill:none;stroke:black;stroke-width:5;stroke-linecap:round;stroke-linejoin:round;}text{font-size:16px;font-family:Segoe UI Symbol,Cambria Math,DejaVu Sans,Symbola,Quivira,STIX,Code2000;-webkit-touch-callout:none;cursor:pointer;-webkit-user-select:none;-khtml-user-select:none;-moz-user-select:none;-ms-user-select:none;user-select: none;}text:hover{color:#777;}#reset{font-weight:bold;}</style><marker id="markerStart" markerWidth="8" markerHeight="8" style="overflow:visible;"><circle cx="0" cy="0" r="1.5" style="stroke:none;fill:red;fill-opacity:0.5;"/></marker><marker id="markerEnd" style="overflow:visible;"><circle cx="0" cy="0" r="0.8" style="stroke:none;fill:blue;fill-opacity:0.5;"><animate attributeName="opacity" from="1" to="0" dur="3s" repeatCount="indefinite" /></circle></marker></defs><path d="M29.75,19.05c1.35,1.35,1.86,3.21,1.86,5.47c0,1.77,0.19,42.37,0.06,60.23c-0.04,4.91-0.06,8.11-0.06,8.36" class="grey" /><path d="M32.54,21.39c10.92-1.23,38.33-4.11,41.42-4.38c3.25-0.28,5.54,1.25,5.54,4.18c0,8.95-0.26,39.93-0.26,64.82c0,3,0.01,3.75,0.01,6" class="grey" /><path d="M33.05,43.64c12.45-1.51,34.83-3.51,45.18-4.09" class="grey" /><path d="M32.9,65.95C44.25,65,66,62.88,77.72,62.56" class="grey" /><path d="M33,90.5c9.75-0.5,33.25-2.5,44.79-2.53" class="grey" /><path d="M29.75,19.05c1.35,1.35,1.86,3.21,1.86,5.47c0,1.77,0.19,42.37,0.06,60.23c-0.04,4.91-0.06,8.11-0.06,8.36" class="stroke" stroke-dasharray="150"><animate attributeName="stroke-dashoffset" from="150" to="0" dur="1.8s" begin="0.0s" fill="freeze" /></path><path d="M32.54,21.39c10.92-1.23,38.33-4.11,41.42-4.38c3.25-0.28,5.54,1.25,5.54,4.18c0,8.95-0.26,39.93-0.26,64.82c0,3,0.01,3.75,0.01,6" class="stroke" stroke-dasharray="150"><set attributeName="opacity" to="0" dur="1.7s" /><animate attributeName="stroke-dashoffset" from="150" to="0" dur="1.8s" begin="1.7s" fill="freeze" /></path><path d="M33.05,43.64c12.45-1.51,34.83-3.51,45.18-4.09" class="stroke" stroke-dasharray="150"><set attributeName="opacity" to="0" dur="3.7s" /><animate attributeName="stroke-dashoffset" from="150" to="0" dur="1.8s" begin="3.7s" fill="freeze" /></path><path d="M32.9,65.95C44.25,65,66,62.88,77.72,62.56" class="stroke" stroke-dasharray="150"><set attributeName="opacity" to="0" dur="4.9s" /><animate attributeName="stroke-dashoffset" from="150" to="0" dur="1.8s" begin="4.9s" fill="freeze" /></path><path d="M33,90.5c9.75-0.5,33.25-2.5,44.79-2.53" class="stroke" stroke-dasharray="150"><set attributeName="opacity" to="0" dur="6.0s" /><animate attributeName="stroke-dashoffset" from="150" to="0" dur="1.8s" begin="6.0s" fill="freeze" /></path></svg>