<svg id="kvg-076ee-Kaisho" class="kanjivg" viewBox="0 0 106 126" width="106" height="106" xmlns="http://www.w3.org/2000/svg" xmlns:xlink="http://www.w3.org/1999/xlink" xml:space="preserve" version="1.1" baseProfile="full"><defs><style type="text/css">path.black{fill:none;stroke:black;stroke-width:5;stroke-linecap:round;stroke-linejoin:round;}path.grey{fill:none;stroke:#ddd;stroke-width:5;stroke-linecap:round;stroke-linejoin:round;}path.stroke{fill:none;stroke:black;stroke-width:5;stroke-linecap:round;stroke-linejoin:round;}text{font-size:16px;font-family:Segoe UI Symbol,Cambria Math,DejaVu Sans,Symbola,Quivira,STIX,Code2000;-webkit-touch-callout:none;cursor:pointer;-webkit-user-select:none;-khtml-user-select:none;-moz-user-select:none;-ms-user-select:none;user-select: none;}text:hover{color:#777;}#reset{font-weight:bold;}</style><marker id="markerStart" markerWidth="8" markerHeight="8" style="overflow:visible;"><circle cx="0" cy="0" r="1.5" style="stroke:none;fill:red;fill-opacity:0.5;"/></marker><marker id="markerEnd" style="overflow:visible;"><circle cx="0" cy="0" r="0.8" style="stroke:none;fill:blue;fill-opacity:0.5;"><animate attributeName="opacity" from="1" to="0" dur="3s" repeatCount="indefinite" /></circle></marker></defs><path d="M30,19.55c0.76,1.7,1.86,2.96,1.86,5.22s-0.5,67.21-0.5,68.34" class="grey" /><path d="M31.62,21.75c4.28-0.28,38.43-4.4,42.33-4.74c3.25-0.28,5.82,1.58,5.54,3.68c-0.35,2.66-0.77,40.43-0.76,65.32c0,2.56-0.24,4-0.49,6.5" class="grey" /><path d="M33.05,43.14c7.74-0.35,15.47-1.24,23.18-1.94c2.34-0.21,4.68-0.42,6.91-0.62" class="grey" /><path d="M33.4,65.95c7.43-0.62,16.85-1.4,24.28-2.05c2.07-0.18,4.14-0.36,6.16-0.52" class="grey" /><path d="M32.25,90.5C42,90,67.27,87.97,78.29,87.97" class="grey" /><path d="M30,19.55c0.76,1.7,1.86,2.96,1.86,5.22s-0.5,67.21-0.5,68.34" class="stroke" stroke-dasharray="150"><animate attributeName="stroke-dashoffset" from="150" to="0" dur="1.8s" begin="0.0s" fill="freeze" /></path><path d="M31.62,21.75c4.28-0.28,38.43-4.4,42.33-4.74c3.25-0.28,5.82,1.58,5.54,3.68c-0.35,2.66-0.77,40.43-0.76,65.32c0,2.56-0.24,4-0.49,6.5" class="stroke" stroke-dasharray="150"><set attributeName="opacity" to="0" dur="1.7s" /><animate attributeName="stroke-dashoffset" from="150" to="0" dur="1.8s" begin="1.7s" fill="freeze" /></path><path d="M33.05,43.14c7.74-0.35,15.47-1.24,23.18-1.94c2.34-0.21,4.68-0.42,6.91-0.62" class="stroke" stroke-dasharray="150"><set attributeName="opacity" to="0" dur="3.7s" /><animate attributeName="stroke-dashoffset" from="150" to="0" dur="1.8s" begin="3.7s" fill="freeze" /></path><path d="M33.4,65.95c7.43-0.62,16.85-1.4,24.28-2.05c2.07-0.18,4.14-0.36,6.16-0.52" class="stroke" stroke-dasharray="150"><set attributeName="opacity" to="0" dur="4.7s" /><animate attributeName="stroke-dashoffset" from="150" to="0" dur="1.8s" begin="4.7s" fill="freeze" /></path><path d="M32.25,90.5C42,90,67.27,87.97,78.29,87.97" class="stroke" stroke-dasharray="150"><set attributeName="opacity" to="0" dur="5.7s" /><animate attributeName="stroke-dashoffset" from="150" to="0" dur="1.8s" begin="5.7s" fill="freeze" /></path></svg>