<svg id="kvg-077db" class="kanjivg" viewBox="0 0 106 106" width="106" height="106" xmlns="http://www.w3.org/2000/svg" xmlns:xlink="http://www.w3.org/1999/xlink" xml:space="preserve" version="1.1" baseProfile="full"><defs><style type="text/css">path.black{fill:none;stroke:black;stroke-width:5;stroke-linecap:round;stroke-linejoin:round;}path.grey{fill:none;stroke:#ddd;stroke-width:5;stroke-linecap:round;stroke-linejoin:round;}path.stroke{fill:none;stroke:black;stroke-width:5;stroke-linecap:round;stroke-linejoin:round;}text{font-size:16px;font-family:Segoe UI Symbol,Cambria Math,DejaVu Sans,Symbola,Quivira,STIX,Code2000;-webkit-touch-callout:none;cursor:pointer;-webkit-user-select:none;-khtml-user-select:none;-moz-user-select:none;-ms-user-select:none;user-select: none;}text:hover{color:#777;}#reset{font-weight:bold;}</style><marker id="markerStart" markerWidth="8" markerHeight="8" style="overflow:visible;"><circle cx="0" cy="0" r="1.5" style="stroke:none;fill:red;fill-opacity:0.5;"/></marker><marker id="markerEnd" style="overflow:visible;"><circle cx="0" cy="0" r="0.8" style="stroke:none;fill:blue;fill-opacity:0.5;"><animate attributeName="opacity" from="1" to="0" dur="3s" repeatCount="indefinite" /></circle></marker></defs><path d="M29.48,15.91c2.63,0.87,5.12,0.72,7.78,0.36c7.63-1.02,28.14-4.06,31.25-4.52c3.58-0.53,4.56,2.25,2.42,4c-3.67,3-13.85,13.82-16.11,15.96" class="grey" /><path d="M43.38,27c2.98,1.31,10.69,6.33,12.09,9.75" class="grey" /><path d="M16.92,44.83c3.76,1.25,6.95,0.69,10.73-0.08c17.73-3.63,37.85-7.38,56.68-7.42c8.44-0.02-0.08,8.17-3.33,10.25" class="grey" /><path d="M55.19,42.98c6.06,2.88,8.84,29.04,2.7,50.21c-2.64,9.09-7.89,2.3-10.14,0.46" class="grey" /><path d="M53.39,41.43c0.11,0.92-0.06,1.96-0.73,3.21C47.62,54,35.75,70,12.89,80.15" class="grey" /><path d="M29.48,15.91c2.63,0.87,5.12,0.72,7.78,0.36c7.63-1.02,28.14-4.06,31.25-4.52c3.58-0.53,4.56,2.25,2.42,4c-3.67,3-13.85,13.82-16.11,15.96" class="stroke" stroke-dasharray="150"><animate attributeName="stroke-dashoffset" from="150" to="0" dur="1.8s" begin="0.0s" fill="freeze" /></path><path d="M43.38,27c2.98,1.31,10.69,6.33,12.09,9.75" class="stroke" stroke-dasharray="150"><set attributeName="opacity" to="0" dur="1.5s" /><animate attributeName="stroke-dashoffset" from="150" to="0" dur="1.8s" begin="1.5s" fill="freeze" /></path><path d="M16.92,44.83c3.76,1.25,6.95,0.69,10.73-0.08c17.73-3.63,37.85-7.38,56.68-7.42c8.44-0.02-0.08,8.17-3.33,10.25" class="stroke" stroke-dasharray="150"><set attributeName="opacity" to="0" dur="2.4s" /><animate attributeName="stroke-dashoffset" from="150" to="0" dur="1.8s" begin="2.4s" fill="freeze" /></path><path d="M55.19,42.98c6.06,2.88,8.84,29.04,2.7,50.21c-2.64,9.09-7.89,2.3-10.14,0.46" class="stroke" stroke-dasharray="150"><set attributeName="opacity" to="0" dur="4.1s" /><animate attributeName="stroke-dashoffset" from="150" to="0" dur="1.8s" begin="4.1s" fill="freeze" /></path><path d="M53.39,41.43c0.11,0.92-0.06,1.96-0.73,3.21C47.62,54,35.75,70,12.89,80.15" class="stroke" stroke-dasharray="150"><set attributeName="opacity" to="0" dur="5.6s" /><animate attributeName="stroke-dashoffset" from="150" to="0" dur="1.8s" begin="5.6s" fill="freeze" /></path></svg>