<svg id="kvg-077e2" class="kanjivg" viewBox="0 0 106 106" width="106" height="106" xmlns="http://www.w3.org/2000/svg" xmlns:xlink="http://www.w3.org/1999/xlink" xml:space="preserve" version="1.1" baseProfile="full"><defs><style type="text/css">path.black{fill:none;stroke:black;stroke-width:5;stroke-linecap:round;stroke-linejoin:round;}path.grey{fill:none;stroke:#ddd;stroke-width:5;stroke-linecap:round;stroke-linejoin:round;}path.stroke{fill:none;stroke:black;stroke-width:5;stroke-linecap:round;stroke-linejoin:round;}text{font-size:16px;font-family:Segoe UI Symbol,Cambria Math,DejaVu Sans,Symbola,Quivira,STIX,Code2000;-webkit-touch-callout:none;cursor:pointer;-webkit-user-select:none;-khtml-user-select:none;-moz-user-select:none;-ms-user-select:none;user-select: none;}text:hover{color:#777;}#reset{font-weight:bold;}</style><marker id="markerStart" markerWidth="8" markerHeight="8" style="overflow:visible;"><circle cx="0" cy="0" r="1.5" style="stroke:none;fill:red;fill-opacity:0.5;"/></marker><marker id="markerEnd" style="overflow:visible;"><circle cx="0" cy="0" r="0.8" style="stroke:none;fill:blue;fill-opacity:0.5;"><animate attributeName="opacity" from="1" to="0" dur="3s" repeatCount="indefinite" /></circle></marker></defs><path d="M39.55,11.75c0.11,1.35,0.01,2.63-0.39,3.92c-2.04,6.63-10.37,20.42-18.66,25.7" class="grey" /><path d="M34.92,31.39c1.83,0.11,3.39-0.16,4.66-0.31c6.04-0.71,20.92-3.33,29.16-5.29c2.08-0.49,3.63-0.54,5.26-0.29" class="grey" /><path d="M18.95,54.02c2.2,0.48,5.05,0.73,7.46,0.46c20.43-2.24,38.35-4.61,54.2-5.3c1.83-0.08,5.47,0.07,7.68,0.7" class="grey" /><path d="M52.32,32.29c0.43,0.96,0.9,1.86,0.85,3.72c-0.92,32.5-14.54,48.87-36.42,59.12" class="grey" /><path d="M53.25,53c9.5,12.25,21.9,27.44,30.96,35.6c2.33,2.09,5.17,4.4,8.67,5.78" class="grey" /><path d="M39.55,11.75c0.11,1.35,0.01,2.63-0.39,3.92c-2.04,6.63-10.37,20.42-18.66,25.7" class="stroke" stroke-dasharray="150"><animate attributeName="stroke-dashoffset" from="150" to="0" dur="1.8s" begin="0.0s" fill="freeze" /></path><path d="M34.92,31.39c1.83,0.11,3.39-0.16,4.66-0.31c6.04-0.71,20.92-3.33,29.16-5.29c2.08-0.49,3.63-0.54,5.26-0.29" class="stroke" stroke-dasharray="150"><set attributeName="opacity" to="0" dur="1.0s" /><animate attributeName="stroke-dashoffset" from="150" to="0" dur="1.8s" begin="1.0s" fill="freeze" /></path><path d="M18.95,54.02c2.2,0.48,5.05,0.73,7.46,0.46c20.43-2.24,38.35-4.61,54.2-5.3c1.83-0.08,5.47,0.07,7.68,0.7" class="stroke" stroke-dasharray="150"><set attributeName="opacity" to="0" dur="2.0s" /><animate attributeName="stroke-dashoffset" from="150" to="0" dur="1.8s" begin="2.0s" fill="freeze" /></path><path d="M52.32,32.29c0.43,0.96,0.9,1.86,0.85,3.72c-0.92,32.5-14.54,48.87-36.42,59.12" class="stroke" stroke-dasharray="150"><set attributeName="opacity" to="0" dur="3.5s" /><animate attributeName="stroke-dashoffset" from="150" to="0" dur="1.8s" begin="3.5s" fill="freeze" /></path><path d="M53.25,53c9.5,12.25,21.9,27.44,30.96,35.6c2.33,2.09,5.17,4.4,8.67,5.78" class="stroke" stroke-dasharray="150"><set attributeName="opacity" to="0" dur="5.2s" /><animate attributeName="stroke-dashoffset" from="150" to="0" dur="1.8s" begin="5.2s" fill="freeze" /></path></svg>