<svg id="kvg-079be" class="kanjivg" viewBox="0 0 106 106" width="106" height="106" xmlns="http://www.w3.org/2000/svg" xmlns:xlink="http://www.w3.org/1999/xlink" xml:space="preserve" version="1.1" baseProfile="full"><defs><style type="text/css">path.black{fill:none;stroke:black;stroke-width:5;stroke-linecap:round;stroke-linejoin:round;}path.grey{fill:none;stroke:#ddd;stroke-width:5;stroke-linecap:round;stroke-linejoin:round;}path.stroke{fill:none;stroke:black;stroke-width:5;stroke-linecap:round;stroke-linejoin:round;}text{font-size:16px;font-family:Segoe UI Symbol,Cambria Math,DejaVu Sans,Symbola,Quivira,STIX,Code2000;-webkit-touch-callout:none;cursor:pointer;-webkit-user-select:none;-khtml-user-select:none;-moz-user-select:none;-ms-user-select:none;user-select: none;}text:hover{color:#777;}#reset{font-weight:bold;}</style><marker id="markerStart" markerWidth="8" markerHeight="8" style="overflow:visible;"><circle cx="0" cy="0" r="1.5" style="stroke:none;fill:red;fill-opacity:0.5;"/></marker><marker id="markerEnd" style="overflow:visible;"><circle cx="0" cy="0" r="0.8" style="stroke:none;fill:blue;fill-opacity:0.5;"><animate attributeName="opacity" from="1" to="0" dur="3s" repeatCount="indefinite" /></circle></marker></defs><path d="M75,11.5c-0.23,1.22-1.43,2.39-2.48,2.92C63.62,19,52,23.62,28,29.25" class="grey" /><path d="M16.5,45c3.79,1.15,7.81,0.61,11.65,0.22c17.1-1.72,36.6-3.1,52.23-3.8c3.91-0.18,7.76-0.15,11.62,0.45" class="grey" /><path d="M53.72,25.75c0.95,0.96,1.1,2.29,1.1,3.22c0,3.65-0.11,39.81-0.16,58.91c-0.01,5.28-0.02,9.25-0.02,10.88" class="grey" /><path d="M52.5,44.18c0,1.19-1.99,4.17-3,5.57C41.25,61.15,27.06,74.7,15.25,82.5" class="grey" /><path d="M56,45.46c3.79,3.67,14.84,17,24.44,26.36C84.26,75.55,91.49,82.12,97,83.5" class="grey" /><path d="M75,11.5c-0.23,1.22-1.43,2.39-2.48,2.92C63.62,19,52,23.62,28,29.25" class="stroke" stroke-dasharray="150"><animate attributeName="stroke-dashoffset" from="150" to="0" dur="1.8s" begin="0.0s" fill="freeze" /></path><path d="M16.5,45c3.79,1.15,7.81,0.61,11.65,0.22c17.1-1.72,36.6-3.1,52.23-3.8c3.91-0.18,7.76-0.15,11.62,0.45" class="stroke" stroke-dasharray="150"><set attributeName="opacity" to="0" dur="1.3s" /><animate attributeName="stroke-dashoffset" from="150" to="0" dur="1.8s" begin="1.3s" fill="freeze" /></path><path d="M53.72,25.75c0.95,0.96,1.1,2.29,1.1,3.22c0,3.65-0.11,39.81-0.16,58.91c-0.01,5.28-0.02,9.25-0.02,10.88" class="stroke" stroke-dasharray="150"><set attributeName="opacity" to="0" dur="3.0s" /><animate attributeName="stroke-dashoffset" from="150" to="0" dur="1.8s" begin="3.0s" fill="freeze" /></path><path d="M52.5,44.18c0,1.19-1.99,4.17-3,5.57C41.25,61.15,27.06,74.7,15.25,82.5" class="stroke" stroke-dasharray="150"><set attributeName="opacity" to="0" dur="4.7s" /><animate attributeName="stroke-dashoffset" from="150" to="0" dur="1.8s" begin="4.7s" fill="freeze" /></path><path d="M56,45.46c3.79,3.67,14.84,17,24.44,26.36C84.26,75.55,91.49,82.12,97,83.5" class="stroke" stroke-dasharray="150"><set attributeName="opacity" to="0" dur="6.0s" /><animate attributeName="stroke-dashoffset" from="150" to="0" dur="1.8s" begin="6.0s" fill="freeze" /></path></svg>