<svg id="kvg-079b8" class="kanjivg" viewBox="0 0 106 106" width="106" height="106" xmlns="http://www.w3.org/2000/svg" xmlns:xlink="http://www.w3.org/1999/xlink" xml:space="preserve" version="1.1" baseProfile="full"><defs><style type="text/css">path.black{fill:none;stroke:black;stroke-width:5;stroke-linecap:round;stroke-linejoin:round;}path.grey{fill:none;stroke:#ddd;stroke-width:5;stroke-linecap:round;stroke-linejoin:round;}path.stroke{fill:none;stroke:black;stroke-width:5;stroke-linecap:round;stroke-linejoin:round;}text{font-size:16px;font-family:Segoe UI Symbol,Cambria Math,DejaVu Sans,Symbola,Quivira,STIX,Code2000;-webkit-touch-callout:none;cursor:pointer;-webkit-user-select:none;-khtml-user-select:none;-moz-user-select:none;-ms-user-select:none;user-select: none;}text:hover{color:#777;}#reset{font-weight:bold;}</style><marker id="markerStart" markerWidth="8" markerHeight="8" style="overflow:visible;"><circle cx="0" cy="0" r="1.5" style="stroke:none;fill:red;fill-opacity:0.5;"/></marker><marker id="markerEnd" style="overflow:visible;"><circle cx="0" cy="0" r="0.8" style="stroke:none;fill:blue;fill-opacity:0.5;"><animate attributeName="opacity" from="1" to="0" dur="3s" repeatCount="indefinite" /></circle></marker></defs><path d="M18.38,28.5c1.5,1.5,1.73,3.25,1.73,5.8c0,6.2,0,48.07,0,58.45" class="grey" /><path d="M20.72,31.66c10.15-1.16,45.78-4.16,63.3-5.85c3.73-0.36,5.92,1.94,5.92,4.58c0,8.23-1.07,45.48-2.18,59.64c-0.84,10.7-6.01,3.22-8.6,0.17" class="grey" /><path d="M53.94,5.75c0.97,0.97,1.45,2.38,1.45,4.24c0,8.76-0.01,46.18-0.01,48.88" class="grey" /><path d="M36.5,61.1c0.88,1.9,1.84,1.98,4.41,1.58c5.09-0.8,19.71-3.42,28.96-5.17" class="grey" /><path d="M60.62,46.38c5.8,3.81,14.98,15.68,16.43,21.61" class="grey" /><path d="M18.38,28.5c1.5,1.5,1.73,3.25,1.73,5.8c0,6.2,0,48.07,0,58.45" class="stroke" stroke-dasharray="150"><animate attributeName="stroke-dashoffset" from="150" to="0" dur="1.8s" begin="0.0s" fill="freeze" /></path><path d="M20.72,31.66c10.15-1.16,45.78-4.16,63.3-5.85c3.73-0.36,5.92,1.94,5.92,4.58c0,8.23-1.07,45.48-2.18,59.64c-0.84,10.7-6.01,3.22-8.6,0.17" class="stroke" stroke-dasharray="150"><set attributeName="opacity" to="0" dur="1.5s" /><animate attributeName="stroke-dashoffset" from="150" to="0" dur="1.8s" begin="1.5s" fill="freeze" /></path><path d="M53.94,5.75c0.97,0.97,1.45,2.38,1.45,4.24c0,8.76-0.01,46.18-0.01,48.88" class="stroke" stroke-dasharray="150"><set attributeName="opacity" to="0" dur="3.5s" /><animate attributeName="stroke-dashoffset" from="150" to="0" dur="1.8s" begin="3.5s" fill="freeze" /></path><path d="M36.5,61.1c0.88,1.9,1.84,1.98,4.41,1.58c5.09-0.8,19.71-3.42,28.96-5.17" class="stroke" stroke-dasharray="150"><set attributeName="opacity" to="0" dur="4.8s" /><animate attributeName="stroke-dashoffset" from="150" to="0" dur="1.8s" begin="4.8s" fill="freeze" /></path><path d="M60.62,46.38c5.8,3.81,14.98,15.68,16.43,21.61" class="stroke" stroke-dasharray="150"><set attributeName="opacity" to="0" dur="5.8s" /><animate attributeName="stroke-dashoffset" from="150" to="0" dur="1.8s" begin="5.8s" fill="freeze" /></path></svg>