<svg id="kvg-079be-Kaisho" class="kanjivg" viewBox="0 0 106 106" width="106" height="106" xmlns="http://www.w3.org/2000/svg" xmlns:xlink="http://www.w3.org/1999/xlink" xml:space="preserve" version="1.1" baseProfile="full"><defs><style type="text/css">path.black{fill:none;stroke:black;stroke-width:5;stroke-linecap:round;stroke-linejoin:round;}path.grey{fill:none;stroke:#ddd;stroke-width:5;stroke-linecap:round;stroke-linejoin:round;}path.stroke{fill:none;stroke:black;stroke-width:5;stroke-linecap:round;stroke-linejoin:round;}text{font-size:16px;font-family:Segoe UI Symbol,Cambria Math,DejaVu Sans,Symbola,Quivira,STIX,Code2000;-webkit-touch-callout:none;cursor:pointer;-webkit-user-select:none;-khtml-user-select:none;-moz-user-select:none;-ms-user-select:none;user-select: none;}text:hover{color:#777;}#reset{font-weight:bold;}</style><marker id="markerStart" markerWidth="8" markerHeight="8" style="overflow:visible;"><circle cx="0" cy="0" r="1.5" style="stroke:none;fill:red;fill-opacity:0.5;"/></marker><marker id="markerEnd" style="overflow:visible;"><circle cx="0" cy="0" r="0.8" style="stroke:none;fill:blue;fill-opacity:0.5;"><animate attributeName="opacity" from="1" to="0" dur="3s" repeatCount="indefinite" /></circle></marker></defs><path d="M74,11c-0.25,1-0.58,2.27-1.26,2.73C68.25,16.75,52.62,24.36,28,29.25" class="grey" /><path d="M16.75,45c0.75,0.23,3.76,0.84,5.75,0.68c9-0.68,47.75-3.93,63-4.57c2-0.08,4.5,0.27,5.75,0.5" class="grey" /><path d="M53.22,25.5c0.89,0.46,1.42,2.05,1.6,2.97c0.18,0.91-0.18,63.05-0.18,63.78c0,12.75-5.64,3.5-8.14,1" class="grey" /><path d="M52.25,45.68c-7.5,12.07-23.75,28.07-37,36.82" class="grey" /><path d="M56,45.46c5.38,5.22,29.99,29.92,35.84,35.06c1.98,1.74,3.68,2.49,5.66,2.98" class="grey" /><path d="M74,11c-0.25,1-0.58,2.27-1.26,2.73C68.25,16.75,52.62,24.36,28,29.25" class="stroke" stroke-dasharray="150"><animate attributeName="stroke-dashoffset" from="150" to="0" dur="1.8s" begin="0.0s" fill="freeze" /></path><path d="M16.75,45c0.75,0.23,3.76,0.84,5.75,0.68c9-0.68,47.75-3.93,63-4.57c2-0.08,4.5,0.27,5.75,0.5" class="stroke" stroke-dasharray="150"><set attributeName="opacity" to="0" dur="1.3s" /><animate attributeName="stroke-dashoffset" from="150" to="0" dur="1.8s" begin="1.3s" fill="freeze" /></path><path d="M53.22,25.5c0.89,0.46,1.42,2.05,1.6,2.97c0.18,0.91-0.18,63.05-0.18,63.78c0,12.75-5.64,3.5-8.14,1" class="stroke" stroke-dasharray="150"><set attributeName="opacity" to="0" dur="3.0s" /><animate attributeName="stroke-dashoffset" from="150" to="0" dur="1.8s" begin="3.0s" fill="freeze" /></path><path d="M52.25,45.68c-7.5,12.07-23.75,28.07-37,36.82" class="stroke" stroke-dasharray="150"><set attributeName="opacity" to="0" dur="4.7s" /><animate attributeName="stroke-dashoffset" from="150" to="0" dur="1.8s" begin="4.7s" fill="freeze" /></path><path d="M56,45.46c5.38,5.22,29.99,29.92,35.84,35.06c1.98,1.74,3.68,2.49,5.66,2.98" class="stroke" stroke-dasharray="150"><set attributeName="opacity" to="0" dur="6.0s" /><animate attributeName="stroke-dashoffset" from="150" to="0" dur="1.8s" begin="6.0s" fill="freeze" /></path></svg>