<svg id="kvg-07a74-Kaisho" class="kanjivg" viewBox="0 0 106 106" width="106" height="106" xmlns="http://www.w3.org/2000/svg" xmlns:xlink="http://www.w3.org/1999/xlink" xml:space="preserve" version="1.1" baseProfile="full"><defs><style type="text/css">path.black{fill:none;stroke:black;stroke-width:5;stroke-linecap:round;stroke-linejoin:round;}path.grey{fill:none;stroke:#ddd;stroke-width:5;stroke-linecap:round;stroke-linejoin:round;}path.stroke{fill:none;stroke:black;stroke-width:5;stroke-linecap:round;stroke-linejoin:round;}text{font-size:16px;font-family:Segoe UI Symbol,Cambria Math,DejaVu Sans,Symbola,Quivira,STIX,Code2000;-webkit-touch-callout:none;cursor:pointer;-webkit-user-select:none;-khtml-user-select:none;-moz-user-select:none;-ms-user-select:none;user-select: none;}text:hover{color:#777;}#reset{font-weight:bold;}</style><marker id="markerStart" markerWidth="8" markerHeight="8" style="overflow:visible;"><circle cx="0" cy="0" r="1.5" style="stroke:none;fill:red;fill-opacity:0.5;"/></marker><marker id="markerEnd" style="overflow:visible;"><circle cx="0" cy="0" r="0.8" style="stroke:none;fill:blue;fill-opacity:0.5;"><animate attributeName="opacity" from="1" to="0" dur="3s" repeatCount="indefinite" /></circle></marker></defs><path d="M47.1,14.25c3.65,2.25,7.39,6.92,8.99,9.78" class="grey" /><path d="M20.5,30.5c0,4.25-3.09,15.92-4.5,18.75" class="grey" /><path d="M20.5,33.75c5-0.5,56.25-6.36,63.25-6.5c12.75-0.25,2.5,8-0.5,10" class="grey" /><path d="M39.72,55.99c0.03,1.01,0.01,2.98-0.5,4.05C36.2,66.39,21.04,85.24,16,89.47" class="grey" /><path d="M53,45.25C64.85,49.71,73.25,78,83.12,85.12c3.82,2.76,6.13,4.38,9.88,6.12" class="grey" /><path d="M47.1,14.25c3.65,2.25,7.39,6.92,8.99,9.78" class="stroke" stroke-dasharray="150"><animate attributeName="stroke-dashoffset" from="150" to="0" dur="1.8s" begin="0.0s" fill="freeze" /></path><path d="M20.5,30.5c0,4.25-3.09,15.92-4.5,18.75" class="stroke" stroke-dasharray="150"><set attributeName="opacity" to="0" dur="0.9s" /><animate attributeName="stroke-dashoffset" from="150" to="0" dur="1.8s" begin="0.9s" fill="freeze" /></path><path d="M20.5,33.75c5-0.5,56.25-6.36,63.25-6.5c12.75-0.25,2.5,8-0.5,10" class="stroke" stroke-dasharray="150"><set attributeName="opacity" to="0" dur="1.8s" /><animate attributeName="stroke-dashoffset" from="150" to="0" dur="1.8s" begin="1.8s" fill="freeze" /></path><path d="M39.72,55.99c0.03,1.01,0.01,2.98-0.5,4.05C36.2,66.39,21.04,85.24,16,89.47" class="stroke" stroke-dasharray="150"><set attributeName="opacity" to="0" dur="3.5s" /><animate attributeName="stroke-dashoffset" from="150" to="0" dur="1.8s" begin="3.5s" fill="freeze" /></path><path d="M53,45.25C64.85,49.71,73.25,78,83.12,85.12c3.82,2.76,6.13,4.38,9.88,6.12" class="stroke" stroke-dasharray="150"><set attributeName="opacity" to="0" dur="4.6s" /><animate attributeName="stroke-dashoffset" from="150" to="0" dur="1.8s" begin="4.6s" fill="freeze" /></path></svg>