<svg id="kvg-07a74" class="kanjivg" viewBox="0 0 106 106" width="106" height="106" xmlns="http://www.w3.org/2000/svg" xmlns:xlink="http://www.w3.org/1999/xlink" xml:space="preserve" version="1.1" baseProfile="full"><defs><style type="text/css">path.black{fill:none;stroke:black;stroke-width:5;stroke-linecap:round;stroke-linejoin:round;}path.grey{fill:none;stroke:#ddd;stroke-width:5;stroke-linecap:round;stroke-linejoin:round;}path.stroke{fill:none;stroke:black;stroke-width:5;stroke-linecap:round;stroke-linejoin:round;}text{font-size:16px;font-family:Segoe UI Symbol,Cambria Math,DejaVu Sans,Symbola,Quivira,STIX,Code2000;-webkit-touch-callout:none;cursor:pointer;-webkit-user-select:none;-khtml-user-select:none;-moz-user-select:none;-ms-user-select:none;user-select: none;}text:hover{color:#777;}#reset{font-weight:bold;}</style><marker id="markerStart" markerWidth="8" markerHeight="8" style="overflow:visible;"><circle cx="0" cy="0" r="1.5" style="stroke:none;fill:red;fill-opacity:0.5;"/></marker><marker id="markerEnd" style="overflow:visible;"><circle cx="0" cy="0" r="0.8" style="stroke:none;fill:blue;fill-opacity:0.5;"><animate attributeName="opacity" from="1" to="0" dur="3s" repeatCount="indefinite" /></circle></marker></defs><path d="M50.97,15.25c1.08,1.08,1.62,2.75,1.62,4.39c0,3.36-0.09,5.86-0.09,8.92" class="grey" /><path d="M20.75,29.62c0,4.61-2.92,17.3-4.25,20.38" class="grey" /><path d="M21,33.75C40.38,31,67.62,27.25,83.75,27c12.75-0.2,3.25,7,0.5,9.25" class="grey" /><path d="M39.72,56.24c0.28,1.26,0,2.66-0.68,3.84C34,68.75,23,83,16,89.47" class="grey" /><path d="M52,44.5c9.25,1.25,12.25,20,30.87,40.12c3.2,3.46,4.88,5.12,8.13,7.12" class="grey" /><path d="M50.97,15.25c1.08,1.08,1.62,2.75,1.62,4.39c0,3.36-0.09,5.86-0.09,8.92" class="stroke" stroke-dasharray="150"><animate attributeName="stroke-dashoffset" from="150" to="0" dur="1.8s" begin="0.0s" fill="freeze" /></path><path d="M20.75,29.62c0,4.61-2.92,17.3-4.25,20.38" class="stroke" stroke-dasharray="150"><set attributeName="opacity" to="0" dur="0.9s" /><animate attributeName="stroke-dashoffset" from="150" to="0" dur="1.8s" begin="0.9s" fill="freeze" /></path><path d="M21,33.75C40.38,31,67.62,27.25,83.75,27c12.75-0.2,3.25,7,0.5,9.25" class="stroke" stroke-dasharray="150"><set attributeName="opacity" to="0" dur="1.9s" /><animate attributeName="stroke-dashoffset" from="150" to="0" dur="1.8s" begin="1.9s" fill="freeze" /></path><path d="M39.72,56.24c0.28,1.26,0,2.66-0.68,3.84C34,68.75,23,83,16,89.47" class="stroke" stroke-dasharray="150"><set attributeName="opacity" to="0" dur="3.5999999999999996s" /><animate attributeName="stroke-dashoffset" from="150" to="0" dur="1.8s" begin="3.5999999999999996s" fill="freeze" /></path><path d="M52,44.5c9.25,1.25,12.25,20,30.87,40.12c3.2,3.46,4.88,5.12,8.13,7.12" class="stroke" stroke-dasharray="150"><set attributeName="opacity" to="0" dur="4.699999999999999s" /><animate attributeName="stroke-dashoffset" from="150" to="0" dur="1.8s" begin="4.699999999999999s" fill="freeze" /></path></svg>