<svg id="kvg-07a7a" class="kanjivg" viewBox="0 0 106 106" width="106" height="106" xmlns="http://www.w3.org/2000/svg" xmlns:xlink="http://www.w3.org/1999/xlink" xml:space="preserve" version="1.1" baseProfile="full"><defs><style type="text/css">path.black{fill:none;stroke:black;stroke-width:5;stroke-linecap:round;stroke-linejoin:round;}path.grey{fill:none;stroke:#ddd;stroke-width:5;stroke-linecap:round;stroke-linejoin:round;}path.stroke{fill:none;stroke:black;stroke-width:5;stroke-linecap:round;stroke-linejoin:round;}text{font-size:16px;font-family:Segoe UI Symbol,Cambria Math,DejaVu Sans,Symbola,Quivira,STIX,Code2000;-webkit-touch-callout:none;cursor:pointer;-webkit-user-select:none;-khtml-user-select:none;-moz-user-select:none;-ms-user-select:none;user-select: none;}text:hover{color:#777;}#reset{font-weight:bold;}</style><marker id="markerStart" markerWidth="8" markerHeight="8" style="overflow:visible;"><circle cx="0" cy="0" r="1.5" style="stroke:none;fill:red;fill-opacity:0.5;"/></marker><marker id="markerEnd" style="overflow:visible;"><circle cx="0" cy="0" r="0.8" style="stroke:none;fill:blue;fill-opacity:0.5;"><animate attributeName="opacity" from="1" to="0" dur="3s" repeatCount="indefinite" /></circle></marker></defs><path d="M52.29,12c0.96,0.75,1.7,2,1.7,3.64c0,3.36-0.08,7.61-0.08,10.67" class="grey" /><path d="M27.07,27.75c0,3.34-1.57,8.5-4.63,15.25" class="grey" /><path d="M27.65,30c18.85-2.75,40.6-5.12,52.95-5.75c9.9-0.5,4.15,5-0.6,8.75" class="grey" /><path d="M41.51,39c0.24,1.5-0.01,2.38-0.67,3.76C38.17,48.4,33.38,55.88,25,61.25" class="grey" /><path d="M59.76,32.97c0.94,1.02,1.43,2.47,1.49,4.03c0.12,3.47,0.06,6.75,0.06,9.48c0,5.77,1.69,7.33,11.45,7.33c5.5,0,10.54-1.04,12.25-1.56" class="grey" /><path d="M32.29,68.97c2.46,1.03,5.63,0.46,7.97,0.22c7.7-0.76,18.13-2.01,27.36-2.76c2.53-0.21,5.16-0.53,7.62,0.32" class="grey" /><path d="M53.08,70.45c0.67,0.8,0.96,2.05,0.96,3.5c0,5.56-0.1,14.66-0.1,16.3" class="grey" /><path d="M19.5,92.55c3.17,1.27,6.19,1,9.52,0.7c13.57-1.2,37.71-3.53,54.11-4.35c3.19-0.16,6.33-0.28,9.37,0.9" class="grey" /><path d="M52.29,12c0.96,0.75,1.7,2,1.7,3.64c0,3.36-0.08,7.61-0.08,10.67" class="stroke" stroke-dasharray="150"><animate attributeName="stroke-dashoffset" from="150" to="0" dur="1.8s" begin="0.0s" fill="freeze" /></path><path d="M27.07,27.75c0,3.34-1.57,8.5-4.63,15.25" class="stroke" stroke-dasharray="150"><set attributeName="opacity" to="0" dur="0.9s" /><animate attributeName="stroke-dashoffset" from="150" to="0" dur="1.8s" begin="0.9s" fill="freeze" /></path><path d="M27.65,30c18.85-2.75,40.6-5.12,52.95-5.75c9.9-0.5,4.15,5-0.6,8.75" class="stroke" stroke-dasharray="150"><set attributeName="opacity" to="0" dur="1.8s" /><animate attributeName="stroke-dashoffset" from="150" to="0" dur="1.8s" begin="1.8s" fill="freeze" /></path><path d="M41.51,39c0.24,1.5-0.01,2.38-0.67,3.76C38.17,48.4,33.38,55.88,25,61.25" class="stroke" stroke-dasharray="150"><set attributeName="opacity" to="0" dur="3.3s" /><animate attributeName="stroke-dashoffset" from="150" to="0" dur="1.8s" begin="3.3s" fill="freeze" /></path><path d="M59.76,32.97c0.94,1.02,1.43,2.47,1.49,4.03c0.12,3.47,0.06,6.75,0.06,9.48c0,5.77,1.69,7.33,11.45,7.33c5.5,0,10.54-1.04,12.25-1.56" class="stroke" stroke-dasharray="150"><set attributeName="opacity" to="0" dur="4.3s" /><animate attributeName="stroke-dashoffset" from="150" to="0" dur="1.8s" begin="4.3s" fill="freeze" /></path><path d="M32.29,68.97c2.46,1.03,5.63,0.46,7.97,0.22c7.7-0.76,18.13-2.01,27.36-2.76c2.53-0.21,5.16-0.53,7.62,0.32" class="stroke" stroke-dasharray="150"><set attributeName="opacity" to="0" dur="5.4s" /><animate attributeName="stroke-dashoffset" from="150" to="0" dur="1.8s" begin="5.4s" fill="freeze" /></path><path d="M53.08,70.45c0.67,0.8,0.96,2.05,0.96,3.5c0,5.56-0.1,14.66-0.1,16.3" class="stroke" stroke-dasharray="150"><set attributeName="opacity" to="0" dur="6.5s" /><animate attributeName="stroke-dashoffset" from="150" to="0" dur="1.8s" begin="6.5s" fill="freeze" /></path><path d="M19.5,92.55c3.17,1.27,6.19,1,9.52,0.7c13.57-1.2,37.71-3.53,54.11-4.35c3.19-0.16,6.33-0.28,9.37,0.9" class="stroke" stroke-dasharray="150"><set attributeName="opacity" to="0" dur="7.5s" /><animate attributeName="stroke-dashoffset" from="150" to="0" dur="1.8s" begin="7.5s" fill="freeze" /></path></svg>