<svg id="kvg-07acb" class="kanjivg" viewBox="0 0 106 126" width="106" height="106" xmlns="http://www.w3.org/2000/svg" xmlns:xlink="http://www.w3.org/1999/xlink" xml:space="preserve" version="1.1" baseProfile="full"><defs><style type="text/css">path.black{fill:none;stroke:black;stroke-width:5;stroke-linecap:round;stroke-linejoin:round;}path.grey{fill:none;stroke:#ddd;stroke-width:5;stroke-linecap:round;stroke-linejoin:round;}path.stroke{fill:none;stroke:black;stroke-width:5;stroke-linecap:round;stroke-linejoin:round;}text{font-size:16px;font-family:Segoe UI Symbol,Cambria Math,DejaVu Sans,Symbola,Quivira,STIX,Code2000;-webkit-touch-callout:none;cursor:pointer;-webkit-user-select:none;-khtml-user-select:none;-moz-user-select:none;-ms-user-select:none;user-select: none;}text:hover{color:#777;}#reset{font-weight:bold;}</style><marker id="markerStart" markerWidth="8" markerHeight="8" style="overflow:visible;"><circle cx="0" cy="0" r="1.5" style="stroke:none;fill:red;fill-opacity:0.5;"/></marker><marker id="markerEnd" style="overflow:visible;"><circle cx="0" cy="0" r="0.8" style="stroke:none;fill:blue;fill-opacity:0.5;"><animate attributeName="opacity" from="1" to="0" dur="3s" repeatCount="indefinite" /></circle></marker></defs><path d="M51.51,15c1.43,1.43,2.24,3.25,2.24,5.81c0,4.06,0,9.56,0,13.69" class="grey" /><path d="M22,37.86c2.62,0.51,4.75,0.34,7,0.16c11.38-0.9,36.13-3.4,50.65-4.26c2.38-0.14,4.86-0.01,6.86,0.4" class="grey" /><path d="M32,49c4.75,9.75,8.25,22.5,9.5,31.5" class="grey" /><path d="M74,39c0.75,1.38,0.81,3.29,0.5,4.5c-2.88,11.12-8.5,30.38-12.75,42" class="grey" /><path d="M15.25,88.8c2.33,0.45,5.89,0.53,7.82,0.39c18.3-1.32,40.31-1.94,64.83-2.75c3.24-0.11,6.14,0.05,8.47,0.88" class="grey" /><path d="M51.51,15c1.43,1.43,2.24,3.25,2.24,5.81c0,4.06,0,9.56,0,13.69" class="stroke" stroke-dasharray="150"><animate attributeName="stroke-dashoffset" from="150" to="0" dur="1.8s" begin="0.0s" fill="freeze" /></path><path d="M22,37.86c2.62,0.51,4.75,0.34,7,0.16c11.38-0.9,36.13-3.4,50.65-4.26c2.38-0.14,4.86-0.01,6.86,0.4" class="stroke" stroke-dasharray="150"><set attributeName="opacity" to="0" dur="1.0s" /><animate attributeName="stroke-dashoffset" from="150" to="0" dur="1.8s" begin="1.0s" fill="freeze" /></path><path d="M32,49c4.75,9.75,8.25,22.5,9.5,31.5" class="stroke" stroke-dasharray="150"><set attributeName="opacity" to="0" dur="2.5s" /><animate attributeName="stroke-dashoffset" from="150" to="0" dur="1.8s" begin="2.5s" fill="freeze" /></path><path d="M74,39c0.75,1.38,0.81,3.29,0.5,4.5c-2.88,11.12-8.5,30.38-12.75,42" class="stroke" stroke-dasharray="150"><set attributeName="opacity" to="0" dur="3.5s" /><animate attributeName="stroke-dashoffset" from="150" to="0" dur="1.8s" begin="3.5s" fill="freeze" /></path><path d="M15.25,88.8c2.33,0.45,5.89,0.53,7.82,0.39c18.3-1.32,40.31-1.94,64.83-2.75c3.24-0.11,6.14,0.05,8.47,0.88" class="stroke" stroke-dasharray="150"><set attributeName="opacity" to="0" dur="4.7s" /><animate attributeName="stroke-dashoffset" from="150" to="0" dur="1.8s" begin="4.7s" fill="freeze" /></path></svg>