<svg id="kvg-07af9" class="kanjivg" viewBox="0 0 106 106" width="106" height="106" xmlns="http://www.w3.org/2000/svg" xmlns:xlink="http://www.w3.org/1999/xlink" xml:space="preserve" version="1.1" baseProfile="full"><defs><style type="text/css">path.black{fill:none;stroke:black;stroke-width:5;stroke-linecap:round;stroke-linejoin:round;}path.grey{fill:none;stroke:#ddd;stroke-width:5;stroke-linecap:round;stroke-linejoin:round;}path.stroke{fill:none;stroke:black;stroke-width:5;stroke-linecap:round;stroke-linejoin:round;}text{font-size:16px;font-family:Segoe UI Symbol,Cambria Math,DejaVu Sans,Symbola,Quivira,STIX,Code2000;-webkit-touch-callout:none;cursor:pointer;-webkit-user-select:none;-khtml-user-select:none;-moz-user-select:none;-ms-user-select:none;user-select: none;}text:hover{color:#777;}#reset{font-weight:bold;}</style><marker id="markerStart" markerWidth="8" markerHeight="8" style="overflow:visible;"><circle cx="0" cy="0" r="1.5" style="stroke:none;fill:red;fill-opacity:0.5;"/></marker><marker id="markerEnd" style="overflow:visible;"><circle cx="0" cy="0" r="0.8" style="stroke:none;fill:blue;fill-opacity:0.5;"><animate attributeName="opacity" from="1" to="0" dur="3s" repeatCount="indefinite" /></circle></marker></defs><path d="M30.2,16.43c0.17,0.95,0.19,2.1-0.09,3.24c-1.74,7.09-7.28,22.56-15.48,31.74" class="grey" /><path d="M24.48,43.58c6.14,0.04,14.59-2.46,21.58-3.72c1.9-0.34,3.43-0.56,4.32-0.56" class="grey" /><path d="M35.21,45.61c0.96,0.96,1.55,2.39,1.55,4.13c0,10.53-0.09,29.94-0.24,40.26c-0.04,3.02-0.07,4.71-0.07,5.62" class="grey" /><path d="M68.7,11.68c0.43,1.2,0.21,2.55-0.1,3.79C66.25,24.75,59.75,38,51.14,49.4" class="grey" /><path d="M64.48,36.08c8.14,0.04,20.64-3.08,28.54-4.71c2.1-0.43,3.83-0.57,4.86-0.57" class="grey" /><path d="M76.77,37.83c1.08,1.08,2.01,2.79,2.01,5.02c0,14.56-0.01,42.16-0.01,47.12c0,11.03-4.89,4.66-7.96,1" class="grey" /><path d="M30.2,16.43c0.17,0.95,0.19,2.1-0.09,3.24c-1.74,7.09-7.28,22.56-15.48,31.74" class="stroke" stroke-dasharray="150"><animate attributeName="stroke-dashoffset" from="150" to="0" dur="1.8s" begin="0.0s" fill="freeze" /></path><path d="M24.48,43.58c6.14,0.04,14.59-2.46,21.58-3.72c1.9-0.34,3.43-0.56,4.32-0.56" class="stroke" stroke-dasharray="150"><set attributeName="opacity" to="0" dur="1.0s" /><animate attributeName="stroke-dashoffset" from="150" to="0" dur="1.8s" begin="1.0s" fill="freeze" /></path><path d="M35.21,45.61c0.96,0.96,1.55,2.39,1.55,4.13c0,10.53-0.09,29.94-0.24,40.26c-0.04,3.02-0.07,4.71-0.07,5.62" class="stroke" stroke-dasharray="150"><set attributeName="opacity" to="0" dur="2.0s" /><animate attributeName="stroke-dashoffset" from="150" to="0" dur="1.8s" begin="2.0s" fill="freeze" /></path><path d="M68.7,11.68c0.43,1.2,0.21,2.55-0.1,3.79C66.25,24.75,59.75,38,51.14,49.4" class="stroke" stroke-dasharray="150"><set attributeName="opacity" to="0" dur="3.3s" /><animate attributeName="stroke-dashoffset" from="150" to="0" dur="1.8s" begin="3.3s" fill="freeze" /></path><path d="M64.48,36.08c8.14,0.04,20.64-3.08,28.54-4.71c2.1-0.43,3.83-0.57,4.86-0.57" class="stroke" stroke-dasharray="150"><set attributeName="opacity" to="0" dur="4.4s" /><animate attributeName="stroke-dashoffset" from="150" to="0" dur="1.8s" begin="4.4s" fill="freeze" /></path><path d="M76.77,37.83c1.08,1.08,2.01,2.79,2.01,5.02c0,14.56-0.01,42.16-0.01,47.12c0,11.03-4.89,4.66-7.96,1" class="stroke" stroke-dasharray="150"><set attributeName="opacity" to="0" dur="5.4s" /><animate attributeName="stroke-dashoffset" from="150" to="0" dur="1.8s" begin="5.4s" fill="freeze" /></path></svg>