<svg id="kvg-07c73-Kaisho" class="kanjivg" viewBox="0 0 106 106" width="106" height="106" xmlns="http://www.w3.org/2000/svg" xmlns:xlink="http://www.w3.org/1999/xlink" xml:space="preserve" version="1.1" baseProfile="full"><defs><style type="text/css">path.black{fill:none;stroke:black;stroke-width:5;stroke-linecap:round;stroke-linejoin:round;}path.grey{fill:none;stroke:#ddd;stroke-width:5;stroke-linecap:round;stroke-linejoin:round;}path.stroke{fill:none;stroke:black;stroke-width:5;stroke-linecap:round;stroke-linejoin:round;}text{font-size:16px;font-family:Segoe UI Symbol,Cambria Math,DejaVu Sans,Symbola,Quivira,STIX,Code2000;-webkit-touch-callout:none;cursor:pointer;-webkit-user-select:none;-khtml-user-select:none;-moz-user-select:none;-ms-user-select:none;user-select: none;}text:hover{color:#777;}#reset{font-weight:bold;}</style><marker id="markerStart" markerWidth="8" markerHeight="8" style="overflow:visible;"><circle cx="0" cy="0" r="1.5" style="stroke:none;fill:red;fill-opacity:0.5;"/></marker><marker id="markerEnd" style="overflow:visible;"><circle cx="0" cy="0" r="0.8" style="stroke:none;fill:blue;fill-opacity:0.5;"><animate attributeName="opacity" from="1" to="0" dur="3s" repeatCount="indefinite" /></circle></marker></defs><path d="M29.52,28.08c2.98,1.94,7.49,7.4,8.23,10.42" class="grey" /><path d="M78.52,20.14c0.03,0.37,0.07,0.95-0.07,1.47c-0.82,3.11-5.49,9.93-11.9,14.1" class="grey" /><path d="M18.75,49.25C19.5,49.5,21.5,49.91,23.5,50c5.5,0.25,49.75-6.5,58.5-6c2,0.11,2.5-0.25,3.75,0" class="grey" /><path d="M51.25,13.5c1.25,0.5,2,2.25,2.25,3.25s-0.25,67.75-0.25,74c0,14-5.62,2.38-6.75,1.25" class="grey" /><path d="M51.25,47.25C44.69,60.25,28.75,78.5,14,86" class="grey" /><path d="M56,48.75c5.02,4.8,27.02,27.53,32.47,32.25c1.85,1.6,3.43,2.29,5.28,2.75" class="grey" /><path d="M29.52,28.08c2.98,1.94,7.49,7.4,8.23,10.42" class="stroke" stroke-dasharray="150"><animate attributeName="stroke-dashoffset" from="150" to="0" dur="1.8s" begin="0.0s" fill="freeze" /></path><path d="M78.52,20.14c0.03,0.37,0.07,0.95-0.07,1.47c-0.82,3.11-5.49,9.93-11.9,14.1" class="stroke" stroke-dasharray="150"><set attributeName="opacity" to="0" dur="0.9s" /><animate attributeName="stroke-dashoffset" from="150" to="0" dur="1.8s" begin="0.9s" fill="freeze" /></path><path d="M18.75,49.25C19.5,49.5,21.5,49.91,23.5,50c5.5,0.25,49.75-6.5,58.5-6c2,0.11,2.5-0.25,3.75,0" class="stroke" stroke-dasharray="150"><set attributeName="opacity" to="0" dur="1.9s" /><animate attributeName="stroke-dashoffset" from="150" to="0" dur="1.8s" begin="1.9s" fill="freeze" /></path><path d="M51.25,13.5c1.25,0.5,2,2.25,2.25,3.25s-0.25,67.75-0.25,74c0,14-5.62,2.38-6.75,1.25" class="stroke" stroke-dasharray="150"><set attributeName="opacity" to="0" dur="3.4s" /><animate attributeName="stroke-dashoffset" from="150" to="0" dur="1.8s" begin="3.4s" fill="freeze" /></path><path d="M51.25,47.25C44.69,60.25,28.75,78.5,14,86" class="stroke" stroke-dasharray="150"><set attributeName="opacity" to="0" dur="5.2s" /><animate attributeName="stroke-dashoffset" from="150" to="0" dur="1.8s" begin="5.2s" fill="freeze" /></path><path d="M56,48.75c5.02,4.8,27.02,27.53,32.47,32.25c1.85,1.6,3.43,2.29,5.28,2.75" class="stroke" stroke-dasharray="150"><set attributeName="opacity" to="0" dur="6.5s" /><animate attributeName="stroke-dashoffset" from="150" to="0" dur="1.8s" begin="6.5s" fill="freeze" /></path></svg>