<svg id="kvg-07c73" class="kanjivg" viewBox="0 0 106 106" width="106" height="106" xmlns="http://www.w3.org/2000/svg" xmlns:xlink="http://www.w3.org/1999/xlink" xml:space="preserve" version="1.1" baseProfile="full"><defs><style type="text/css">path.black{fill:none;stroke:black;stroke-width:5;stroke-linecap:round;stroke-linejoin:round;}path.grey{fill:none;stroke:#ddd;stroke-width:5;stroke-linecap:round;stroke-linejoin:round;}path.stroke{fill:none;stroke:black;stroke-width:5;stroke-linecap:round;stroke-linejoin:round;}text{font-size:16px;font-family:Segoe UI Symbol,Cambria Math,DejaVu Sans,Symbola,Quivira,STIX,Code2000;-webkit-touch-callout:none;cursor:pointer;-webkit-user-select:none;-khtml-user-select:none;-moz-user-select:none;-ms-user-select:none;user-select: none;}text:hover{color:#777;}#reset{font-weight:bold;}</style><marker id="markerStart" markerWidth="8" markerHeight="8" style="overflow:visible;"><circle cx="0" cy="0" r="1.5" style="stroke:none;fill:red;fill-opacity:0.5;"/></marker><marker id="markerEnd" style="overflow:visible;"><circle cx="0" cy="0" r="0.8" style="stroke:none;fill:blue;fill-opacity:0.5;"><animate attributeName="opacity" from="1" to="0" dur="3s" repeatCount="indefinite" /></circle></marker></defs><path d="M26.64,25.46c4.03,2.47,10.1,9.45,11.11,13.29" class="grey" /><path d="M78.52,19.64c0.1,0.85-0.21,2.19-0.63,2.91C75.25,27,72.25,30.5,66.56,35.22" class="grey" /><path d="M18,49.25c2.25,0.62,4.8,0.83,8.24,0.5c19.67-1.88,38.77-4.5,52.75-5.25c3.46-0.19,6.13-0.12,8.51,0.5" class="grey" /><path d="M51.75,13.25C53.06,14.56,54,17,54,18.75c0,4.75,0.06,50.93-0.14,70.51c-0.04,3.54-0.07,5.54-0.11,6.49" class="grey" /><path d="M49.38,48.25c0,1.47-0.81,3.5-1.26,4.29C41,64.89,27.22,78.84,13.5,85.75" class="grey" /><path d="M55.75,48.25C60,53,75.38,68.74,83.7,76.96c2.8,2.77,5.74,5.16,9.43,6.79" class="grey" /><path d="M26.64,25.46c4.03,2.47,10.1,9.45,11.11,13.29" class="stroke" stroke-dasharray="150"><animate attributeName="stroke-dashoffset" from="150" to="0" dur="1.8s" begin="0.0s" fill="freeze" /></path><path d="M78.52,19.64c0.1,0.85-0.21,2.19-0.63,2.91C75.25,27,72.25,30.5,66.56,35.22" class="stroke" stroke-dasharray="150"><set attributeName="opacity" to="0" dur="0.9s" /><animate attributeName="stroke-dashoffset" from="150" to="0" dur="1.8s" begin="0.9s" fill="freeze" /></path><path d="M18,49.25c2.25,0.62,4.8,0.83,8.24,0.5c19.67-1.88,38.77-4.5,52.75-5.25c3.46-0.19,6.13-0.12,8.51,0.5" class="stroke" stroke-dasharray="150"><set attributeName="opacity" to="0" dur="1.9s" /><animate attributeName="stroke-dashoffset" from="150" to="0" dur="1.8s" begin="1.9s" fill="freeze" /></path><path d="M51.75,13.25C53.06,14.56,54,17,54,18.75c0,4.75,0.06,50.93-0.14,70.51c-0.04,3.54-0.07,5.54-0.11,6.49" class="stroke" stroke-dasharray="150"><set attributeName="opacity" to="0" dur="3.4s" /><animate attributeName="stroke-dashoffset" from="150" to="0" dur="1.8s" begin="3.4s" fill="freeze" /></path><path d="M49.38,48.25c0,1.47-0.81,3.5-1.26,4.29C41,64.89,27.22,78.84,13.5,85.75" class="stroke" stroke-dasharray="150"><set attributeName="opacity" to="0" dur="5.1s" /><animate attributeName="stroke-dashoffset" from="150" to="0" dur="1.8s" begin="5.1s" fill="freeze" /></path><path d="M55.75,48.25C60,53,75.38,68.74,83.7,76.96c2.8,2.77,5.74,5.16,9.43,6.79" class="stroke" stroke-dasharray="150"><set attributeName="opacity" to="0" dur="6.3999999999999995s" /><animate attributeName="stroke-dashoffset" from="150" to="0" dur="1.8s" begin="6.3999999999999995s" fill="freeze" /></path></svg>