<svg id="kvg-07cf8" class="kanjivg" viewBox="0 0 106 126" width="106" height="106" xmlns="http://www.w3.org/2000/svg" xmlns:xlink="http://www.w3.org/1999/xlink" xml:space="preserve" version="1.1" baseProfile="full"><defs><style type="text/css">path.black{fill:none;stroke:black;stroke-width:5;stroke-linecap:round;stroke-linejoin:round;}path.grey{fill:none;stroke:#ddd;stroke-width:5;stroke-linecap:round;stroke-linejoin:round;}path.stroke{fill:none;stroke:black;stroke-width:5;stroke-linecap:round;stroke-linejoin:round;}text{font-size:16px;font-family:Segoe UI Symbol,Cambria Math,DejaVu Sans,Symbola,Quivira,STIX,Code2000;-webkit-touch-callout:none;cursor:pointer;-webkit-user-select:none;-khtml-user-select:none;-moz-user-select:none;-ms-user-select:none;user-select: none;}text:hover{color:#777;}#reset{font-weight:bold;}</style><marker id="markerStart" markerWidth="8" markerHeight="8" style="overflow:visible;"><circle cx="0" cy="0" r="1.5" style="stroke:none;fill:red;fill-opacity:0.5;"/></marker><marker id="markerEnd" style="overflow:visible;"><circle cx="0" cy="0" r="0.8" style="stroke:none;fill:blue;fill-opacity:0.5;"><animate attributeName="opacity" from="1" to="0" dur="3s" repeatCount="indefinite" /></circle></marker></defs><path d="M51.25,11.5c0.5,1.5,0.28,2.9-0.75,4.5C46,23,38.12,31.75,32.25,35.75c-1.98,1.35-0.74,3.47,0.25,3.75c5.25,1.5,10.75,4,15.25,6.75" class="grey" /><path d="M70.5,21c0.62,1.38,0.38,2.75-1,4.25c-11.01,12.01-22.25,23.75-36,37c-1.66,1.6-1.01,2.46,1,2c9.38-2.12,31.75-7,42.5-9" class="grey" /><path d="M72.25,47.25c3.71,2.78,9.57,11.43,10.5,15.75" class="grey" /><path d="M53,63c0.75,0.75,1.42,1.85,1.51,3.49c0.29,5.73,0.03,19.24-0.14,27.25c-0.06,3.03-0.11,5.27-0.11,6.01" class="grey" /><path d="M32.98,74.66c0.39,1.47,0.27,2.59-0.77,4.12c-2.85,4.19-10.79,11.02-15.46,14.31" class="grey" /><path d="M76.16,73.5c4.38,3.75,11.88,13.75,13.44,17.5" class="grey" /><path d="M51.25,11.5c0.5,1.5,0.28,2.9-0.75,4.5C46,23,38.12,31.75,32.25,35.75c-1.98,1.35-0.74,3.47,0.25,3.75c5.25,1.5,10.75,4,15.25,6.75" class="stroke" stroke-dasharray="150"><animate attributeName="stroke-dashoffset" from="150" to="0" dur="1.8s" begin="0.0s" fill="freeze" /></path><path d="M70.5,21c0.62,1.38,0.38,2.75-1,4.25c-11.01,12.01-22.25,23.75-36,37c-1.66,1.6-1.01,2.46,1,2c9.38-2.12,31.75-7,42.5-9" class="stroke" stroke-dasharray="150"><set attributeName="opacity" to="0" dur="1.3s" /><animate attributeName="stroke-dashoffset" from="150" to="0" dur="1.8s" begin="1.3s" fill="freeze" /></path><path d="M72.25,47.25c3.71,2.78,9.57,11.43,10.5,15.75" class="stroke" stroke-dasharray="150"><set attributeName="opacity" to="0" dur="3.2s" /><animate attributeName="stroke-dashoffset" from="150" to="0" dur="1.8s" begin="3.2s" fill="freeze" /></path><path d="M53,63c0.75,0.75,1.42,1.85,1.51,3.49c0.29,5.73,0.03,19.24-0.14,27.25c-0.06,3.03-0.11,5.27-0.11,6.01" class="stroke" stroke-dasharray="150"><set attributeName="opacity" to="0" dur="4.1000000000000005s" /><animate attributeName="stroke-dashoffset" from="150" to="0" dur="1.8s" begin="4.1000000000000005s" fill="freeze" /></path><path d="M32.98,74.66c0.39,1.47,0.27,2.59-0.77,4.12c-2.85,4.19-10.79,11.02-15.46,14.31" class="stroke" stroke-dasharray="150"><set attributeName="opacity" to="0" dur="5.1000000000000005s" /><animate attributeName="stroke-dashoffset" from="150" to="0" dur="1.8s" begin="5.1000000000000005s" fill="freeze" /></path><path d="M76.16,73.5c4.38,3.75,11.88,13.75,13.44,17.5" class="stroke" stroke-dasharray="150"><set attributeName="opacity" to="0" dur="6.1000000000000005s" /><animate attributeName="stroke-dashoffset" from="150" to="0" dur="1.8s" begin="6.1000000000000005s" fill="freeze" /></path></svg>