<svg id="kvg-07f36" class="kanjivg" viewBox="0 0 106 106" width="106" height="106" xmlns="http://www.w3.org/2000/svg" xmlns:xlink="http://www.w3.org/1999/xlink" xml:space="preserve" version="1.1" baseProfile="full"><defs><style type="text/css">path.black{fill:none;stroke:black;stroke-width:5;stroke-linecap:round;stroke-linejoin:round;}path.grey{fill:none;stroke:#ddd;stroke-width:5;stroke-linecap:round;stroke-linejoin:round;}path.stroke{fill:none;stroke:black;stroke-width:5;stroke-linecap:round;stroke-linejoin:round;}text{font-size:16px;font-family:Segoe UI Symbol,Cambria Math,DejaVu Sans,Symbola,Quivira,STIX,Code2000;-webkit-touch-callout:none;cursor:pointer;-webkit-user-select:none;-khtml-user-select:none;-moz-user-select:none;-ms-user-select:none;user-select: none;}text:hover{color:#777;}#reset{font-weight:bold;}</style><marker id="markerStart" markerWidth="8" markerHeight="8" style="overflow:visible;"><circle cx="0" cy="0" r="1.5" style="stroke:none;fill:red;fill-opacity:0.5;"/></marker><marker id="markerEnd" style="overflow:visible;"><circle cx="0" cy="0" r="0.8" style="stroke:none;fill:blue;fill-opacity:0.5;"><animate attributeName="opacity" from="1" to="0" dur="3s" repeatCount="indefinite" /></circle></marker></defs><path d="M40.99,14.64c0.06,0.77-0.16,2.07-0.62,3.11c-2.87,6.5-11.1,19.94-22.87,28.75" class="grey" /><path d="M36.63,30.42c2.12,0.46,4.21,0.31,6.01,0.15c8.99-0.81,23-2.83,32.5-4.15c2.45-0.34,4.58-0.72,7-0.13" class="grey" /><path d="M15.38,54.98c3.2,1.14,7.68,0.81,10.99,0.42c20.88-2.52,40.38-4.89,58.75-5.77c3.19-0.15,6.36-0.23,9.5,0.44" class="grey" /><path d="M53.06,31.63c1.09,1.09,1.26,2.62,1.26,4.5c0,6.62,0,45.37,0,51.75" class="grey" /><path d="M27.06,66.38c0.84,0.84,1.01,2.24,1.01,3.75c0,5.62-0.07,7.37,0,18c0.02,3.15,0.11,3.91,3.3,3.49c15.12-2,29.5-3.38,48.7-4.24" class="grey" /><path d="M82.56,60.88c0.69,1.12,0.94,2.49,0.76,4.5c-0.36,4.06-1.1,11.75-1.85,19.89c-0.27,2.95-0.57,5.88-0.9,8.61" class="grey" /><path d="M40.99,14.64c0.06,0.77-0.16,2.07-0.62,3.11c-2.87,6.5-11.1,19.94-22.87,28.75" class="stroke" stroke-dasharray="150"><animate attributeName="stroke-dashoffset" from="150" to="0" dur="1.8s" begin="0.0s" fill="freeze" /></path><path d="M36.63,30.42c2.12,0.46,4.21,0.31,6.01,0.15c8.99-0.81,23-2.83,32.5-4.15c2.45-0.34,4.58-0.72,7-0.13" class="stroke" stroke-dasharray="150"><set attributeName="opacity" to="0" dur="1.1s" /><animate attributeName="stroke-dashoffset" from="150" to="0" dur="1.8s" begin="1.1s" fill="freeze" /></path><path d="M15.38,54.98c3.2,1.14,7.68,0.81,10.99,0.42c20.88-2.52,40.38-4.89,58.75-5.77c3.19-0.15,6.36-0.23,9.5,0.44" class="stroke" stroke-dasharray="150"><set attributeName="opacity" to="0" dur="2.3s" /><animate attributeName="stroke-dashoffset" from="150" to="0" dur="1.8s" begin="2.3s" fill="freeze" /></path><path d="M53.06,31.63c1.09,1.09,1.26,2.62,1.26,4.5c0,6.62,0,45.37,0,51.75" class="stroke" stroke-dasharray="150"><set attributeName="opacity" to="0" dur="4.0s" /><animate attributeName="stroke-dashoffset" from="150" to="0" dur="1.8s" begin="4.0s" fill="freeze" /></path><path d="M27.06,66.38c0.84,0.84,1.01,2.24,1.01,3.75c0,5.62-0.07,7.37,0,18c0.02,3.15,0.11,3.91,3.3,3.49c15.12-2,29.5-3.38,48.7-4.24" class="stroke" stroke-dasharray="150"><set attributeName="opacity" to="0" dur="5.4s" /><animate attributeName="stroke-dashoffset" from="150" to="0" dur="1.8s" begin="5.4s" fill="freeze" /></path><path d="M82.56,60.88c0.69,1.12,0.94,2.49,0.76,4.5c-0.36,4.06-1.1,11.75-1.85,19.89c-0.27,2.95-0.57,5.88-0.9,8.61" class="stroke" stroke-dasharray="150"><set attributeName="opacity" to="0" dur="7.1000000000000005s" /><animate attributeName="stroke-dashoffset" from="150" to="0" dur="1.8s" begin="7.1000000000000005s" fill="freeze" /></path></svg>