<svg id="kvg-07f51" class="kanjivg" viewBox="0 0 106 106" width="106" height="106" xmlns="http://www.w3.org/2000/svg" xmlns:xlink="http://www.w3.org/1999/xlink" xml:space="preserve" version="1.1" baseProfile="full"><defs><style type="text/css">path.black{fill:none;stroke:black;stroke-width:5;stroke-linecap:round;stroke-linejoin:round;}path.grey{fill:none;stroke:#ddd;stroke-width:5;stroke-linecap:round;stroke-linejoin:round;}path.stroke{fill:none;stroke:black;stroke-width:5;stroke-linecap:round;stroke-linejoin:round;}text{font-size:16px;font-family:Segoe UI Symbol,Cambria Math,DejaVu Sans,Symbola,Quivira,STIX,Code2000;-webkit-touch-callout:none;cursor:pointer;-webkit-user-select:none;-khtml-user-select:none;-moz-user-select:none;-ms-user-select:none;user-select: none;}text:hover{color:#777;}#reset{font-weight:bold;}</style><marker id="markerStart" markerWidth="8" markerHeight="8" style="overflow:visible;"><circle cx="0" cy="0" r="1.5" style="stroke:none;fill:red;fill-opacity:0.5;"/></marker><marker id="markerEnd" style="overflow:visible;"><circle cx="0" cy="0" r="0.8" style="stroke:none;fill:blue;fill-opacity:0.5;"><animate attributeName="opacity" from="1" to="0" dur="3s" repeatCount="indefinite" /></circle></marker></defs><path d="M19.5,20.5c0.75,1.21,1.25,3.15,1,5.32s0.25,66.3,0.25,69.93" class="grey" /><path d="M20.5,23c9.5-1,62.63-3.65,64.5-4c4-0.75,6,2.75,6,4c0,4.5-3.09,52.05-4.25,60c-2,13.75-5.75,5.25-8.75,2" class="grey" /><path d="M49,27.84c0.37,1.26,0.68,2.21,0.19,4.45C44.79,52.25,36.81,70.14,26,79" class="grey" /><path d="M29.75,40.5c8.17,6.53,17.16,18.95,21.49,28.81" class="grey" /><path d="M75.76,27.5c0.46,1.4,0.83,2.47,0.23,4.98C70.75,54.5,60.75,72.75,47.22,84.73" class="grey" /><path d="M55.75,41c8.65,6.75,18.17,19.57,22.75,29.75" class="grey" /><path d="M19.5,20.5c0.75,1.21,1.25,3.15,1,5.32s0.25,66.3,0.25,69.93" class="stroke" stroke-dasharray="150"><animate attributeName="stroke-dashoffset" from="150" to="0" dur="1.8s" begin="0.0s" fill="freeze" /></path><path d="M20.5,23c9.5-1,62.63-3.65,64.5-4c4-0.75,6,2.75,6,4c0,4.5-3.09,52.05-4.25,60c-2,13.75-5.75,5.25-8.75,2" class="stroke" stroke-dasharray="150"><set attributeName="opacity" to="0" dur="1.7s" /><animate attributeName="stroke-dashoffset" from="150" to="0" dur="1.8s" begin="1.7s" fill="freeze" /></path><path d="M49,27.84c0.37,1.26,0.68,2.21,0.19,4.45C44.79,52.25,36.81,70.14,26,79" class="stroke" stroke-dasharray="150"><set attributeName="opacity" to="0" dur="3.7s" /><animate attributeName="stroke-dashoffset" from="150" to="0" dur="1.8s" begin="3.7s" fill="freeze" /></path><path d="M29.75,40.5c8.17,6.53,17.16,18.95,21.49,28.81" class="stroke" stroke-dasharray="150"><set attributeName="opacity" to="0" dur="5.1s" /><animate attributeName="stroke-dashoffset" from="150" to="0" dur="1.8s" begin="5.1s" fill="freeze" /></path><path d="M75.76,27.5c0.46,1.4,0.83,2.47,0.23,4.98C70.75,54.5,60.75,72.75,47.22,84.73" class="stroke" stroke-dasharray="150"><set attributeName="opacity" to="0" dur="6.1s" /><animate attributeName="stroke-dashoffset" from="150" to="0" dur="1.8s" begin="6.1s" fill="freeze" /></path><path d="M55.75,41c8.65,6.75,18.17,19.57,22.75,29.75" class="stroke" stroke-dasharray="150"><set attributeName="opacity" to="0" dur="7.6s" /><animate attributeName="stroke-dashoffset" from="150" to="0" dur="1.8s" begin="7.6s" fill="freeze" /></path></svg>