<svg id="kvg-07f8a" class="kanjivg" viewBox="0 0 106 106" width="106" height="106" xmlns="http://www.w3.org/2000/svg" xmlns:xlink="http://www.w3.org/1999/xlink" xml:space="preserve" version="1.1" baseProfile="full"><defs><style type="text/css">path.black{fill:none;stroke:black;stroke-width:5;stroke-linecap:round;stroke-linejoin:round;}path.grey{fill:none;stroke:#ddd;stroke-width:5;stroke-linecap:round;stroke-linejoin:round;}path.stroke{fill:none;stroke:black;stroke-width:5;stroke-linecap:round;stroke-linejoin:round;}text{font-size:16px;font-family:Segoe UI Symbol,Cambria Math,DejaVu Sans,Symbola,Quivira,STIX,Code2000;-webkit-touch-callout:none;cursor:pointer;-webkit-user-select:none;-khtml-user-select:none;-moz-user-select:none;-ms-user-select:none;user-select: none;}text:hover{color:#777;}#reset{font-weight:bold;}</style><marker id="markerStart" markerWidth="8" markerHeight="8" style="overflow:visible;"><circle cx="0" cy="0" r="1.5" style="stroke:none;fill:red;fill-opacity:0.5;"/></marker><marker id="markerEnd" style="overflow:visible;"><circle cx="0" cy="0" r="0.8" style="stroke:none;fill:blue;fill-opacity:0.5;"><animate attributeName="opacity" from="1" to="0" dur="3s" repeatCount="indefinite" /></circle></marker></defs><path d="M33.89,11.71c3.06,2.03,7.9,8.35,8.67,11.51" class="grey" /><path d="M69.9,10.64c0.03,0.38,0.12,1.25-0.06,1.79C68.5,16.25,65,21,59.78,25.95" class="grey" /><path d="M26.5,31.64c2.88,0.44,5.74,0.25,8.63,0.01c11-0.9,27.5-3.4,39.36-3.89c2.52-0.1,5.16-0.34,7.64,0.25" class="grey" /><path d="M28.25,49.64c2.38,0.61,4.96,0.67,7.14,0.34c11.36-1.73,26.36-3.23,36.74-3.73c2.43-0.12,5.23-0.07,7.62,0.51" class="grey" /><path d="M13.75,68.95c3.96,0.68,8.72,0.42,12.73,0.13c15.53-1.16,37.11-3.35,55.58-3.77c4.08-0.09,8.3-0.28,12.32,0.49" class="grey" /><path d="M52.75,32.75c1,1,1.5,2.5,1.5,3.5c0,0.89,0,41.12,0,58.12c0,2.72,0,4.85,0,6.12" class="grey" /><path d="M33.89,11.71c3.06,2.03,7.9,8.35,8.67,11.51" class="stroke" stroke-dasharray="150"><animate attributeName="stroke-dashoffset" from="150" to="0" dur="1.8s" begin="0.0s" fill="freeze" /></path><path d="M69.9,10.64c0.03,0.38,0.12,1.25-0.06,1.79C68.5,16.25,65,21,59.78,25.95" class="stroke" stroke-dasharray="150"><set attributeName="opacity" to="0" dur="0.9s" /><animate attributeName="stroke-dashoffset" from="150" to="0" dur="1.8s" begin="0.9s" fill="freeze" /></path><path d="M26.5,31.64c2.88,0.44,5.74,0.25,8.63,0.01c11-0.9,27.5-3.4,39.36-3.89c2.52-0.1,5.16-0.34,7.64,0.25" class="stroke" stroke-dasharray="150"><set attributeName="opacity" to="0" dur="1.8s" /><animate attributeName="stroke-dashoffset" from="150" to="0" dur="1.8s" begin="1.8s" fill="freeze" /></path><path d="M28.25,49.64c2.38,0.61,4.96,0.67,7.14,0.34c11.36-1.73,26.36-3.23,36.74-3.73c2.43-0.12,5.23-0.07,7.62,0.51" class="stroke" stroke-dasharray="150"><set attributeName="opacity" to="0" dur="3.2s" /><animate attributeName="stroke-dashoffset" from="150" to="0" dur="1.8s" begin="3.2s" fill="freeze" /></path><path d="M13.75,68.95c3.96,0.68,8.72,0.42,12.73,0.13c15.53-1.16,37.11-3.35,55.58-3.77c4.08-0.09,8.3-0.28,12.32,0.49" class="stroke" stroke-dasharray="150"><set attributeName="opacity" to="0" dur="4.5s" /><animate attributeName="stroke-dashoffset" from="150" to="0" dur="1.8s" begin="4.5s" fill="freeze" /></path><path d="M52.75,32.75c1,1,1.5,2.5,1.5,3.5c0,0.89,0,41.12,0,58.12c0,2.72,0,4.85,0,6.12" class="stroke" stroke-dasharray="150"><set attributeName="opacity" to="0" dur="6.2s" /><animate attributeName="stroke-dashoffset" from="150" to="0" dur="1.8s" begin="6.2s" fill="freeze" /></path></svg>