<svg id="kvg-07fbd-Kaisho" class="kanjivg" viewBox="0 0 106 106" width="106" height="106" xmlns="http://www.w3.org/2000/svg" xmlns:xlink="http://www.w3.org/1999/xlink" xml:space="preserve" version="1.1" baseProfile="full"><defs><style type="text/css">path.black{fill:none;stroke:black;stroke-width:5;stroke-linecap:round;stroke-linejoin:round;}path.grey{fill:none;stroke:#ddd;stroke-width:5;stroke-linecap:round;stroke-linejoin:round;}path.stroke{fill:none;stroke:black;stroke-width:5;stroke-linecap:round;stroke-linejoin:round;}text{font-size:16px;font-family:Segoe UI Symbol,Cambria Math,DejaVu Sans,Symbola,Quivira,STIX,Code2000;-webkit-touch-callout:none;cursor:pointer;-webkit-user-select:none;-khtml-user-select:none;-moz-user-select:none;-ms-user-select:none;user-select: none;}text:hover{color:#777;}#reset{font-weight:bold;}</style><marker id="markerStart" markerWidth="8" markerHeight="8" style="overflow:visible;"><circle cx="0" cy="0" r="1.5" style="stroke:none;fill:red;fill-opacity:0.5;"/></marker><marker id="markerEnd" style="overflow:visible;"><circle cx="0" cy="0" r="0.8" style="stroke:none;fill:blue;fill-opacity:0.5;"><animate attributeName="opacity" from="1" to="0" dur="3s" repeatCount="indefinite" /></circle></marker></defs><path d="M19.25,25c1.75,1.25,3.25,1.25,5.82,0.84c5.22-0.84,14.87-3.22,16.46-3.35c3.58-0.29,4.93,1.91,4.48,2.8c-0.43,0.85-0.67,48.98-0.67,60.9c0,9.08-7.72,1.06-8.61,0.32" class="grey" /><path d="M21.52,40.83c3.02,1.3,7.79,5.36,8.54,7.38" class="grey" /><path d="M17,71c1.5,1.75,2.75,2.5,4.25,1c0.88-0.88,8-8.75,11.75-13" class="grey" /><path d="M57.25,22c1.75,1.25,3.25,1.25,5.82,0.84c5.22-0.84,18.87-4.22,20.46-4.35c3.58-0.29,4.93,1.91,4.48,2.8c-0.43,0.85-0.67,52.98-0.67,64.9c0,8.58-7.72,1.06-8.61,0.32" class="grey" /><path d="M61.52,39.83c3.02,1.3,7.79,5.36,8.54,7.38" class="grey" /><path d="M59.77,62.08c4.25,1.39,10.98,5.72,12.04,7.88" class="grey" /><path d="M19.25,25c1.75,1.25,3.25,1.25,5.82,0.84c5.22-0.84,14.87-3.22,16.46-3.35c3.58-0.29,4.93,1.91,4.48,2.8c-0.43,0.85-0.67,48.98-0.67,60.9c0,9.08-7.72,1.06-8.61,0.32" class="stroke" stroke-dasharray="150"><animate attributeName="stroke-dashoffset" from="150" to="0" dur="1.8s" begin="0.0s" fill="freeze" /></path><path d="M21.52,40.83c3.02,1.3,7.79,5.36,8.54,7.38" class="stroke" stroke-dasharray="150"><set attributeName="opacity" to="0" dur="1.9s" /><animate attributeName="stroke-dashoffset" from="150" to="0" dur="1.8s" begin="1.9s" fill="freeze" /></path><path d="M17,71c1.5,1.75,2.75,2.5,4.25,1c0.88-0.88,8-8.75,11.75-13" class="stroke" stroke-dasharray="150"><set attributeName="opacity" to="0" dur="2.8s" /><animate attributeName="stroke-dashoffset" from="150" to="0" dur="1.8s" begin="2.8s" fill="freeze" /></path><path d="M57.25,22c1.75,1.25,3.25,1.25,5.82,0.84c5.22-0.84,18.87-4.22,20.46-4.35c3.58-0.29,4.93,1.91,4.48,2.8c-0.43,0.85-0.67,52.98-0.67,64.9c0,8.58-7.72,1.06-8.61,0.32" class="stroke" stroke-dasharray="150"><set attributeName="opacity" to="0" dur="3.8s" /><animate attributeName="stroke-dashoffset" from="150" to="0" dur="1.8s" begin="3.8s" fill="freeze" /></path><path d="M61.52,39.83c3.02,1.3,7.79,5.36,8.54,7.38" class="stroke" stroke-dasharray="150"><set attributeName="opacity" to="0" dur="5.8s" /><animate attributeName="stroke-dashoffset" from="150" to="0" dur="1.8s" begin="5.8s" fill="freeze" /></path><path d="M59.77,62.08c4.25,1.39,10.98,5.72,12.04,7.88" class="stroke" stroke-dasharray="150"><set attributeName="opacity" to="0" dur="6.7s" /><animate attributeName="stroke-dashoffset" from="150" to="0" dur="1.8s" begin="6.7s" fill="freeze" /></path></svg>