<svg id="kvg-07fbd" class="kanjivg" viewBox="0 0 106 106" width="106" height="106" xmlns="http://www.w3.org/2000/svg" xmlns:xlink="http://www.w3.org/1999/xlink" xml:space="preserve" version="1.1" baseProfile="full"><defs><style type="text/css">path.black{fill:none;stroke:black;stroke-width:5;stroke-linecap:round;stroke-linejoin:round;}path.grey{fill:none;stroke:#ddd;stroke-width:5;stroke-linecap:round;stroke-linejoin:round;}path.stroke{fill:none;stroke:black;stroke-width:5;stroke-linecap:round;stroke-linejoin:round;}text{font-size:16px;font-family:Segoe UI Symbol,Cambria Math,DejaVu Sans,Symbola,Quivira,STIX,Code2000;-webkit-touch-callout:none;cursor:pointer;-webkit-user-select:none;-khtml-user-select:none;-moz-user-select:none;-ms-user-select:none;user-select: none;}text:hover{color:#777;}#reset{font-weight:bold;}</style><marker id="markerStart" markerWidth="8" markerHeight="8" style="overflow:visible;"><circle cx="0" cy="0" r="1.5" style="stroke:none;fill:red;fill-opacity:0.5;"/></marker><marker id="markerEnd" style="overflow:visible;"><circle cx="0" cy="0" r="0.8" style="stroke:none;fill:blue;fill-opacity:0.5;"><animate attributeName="opacity" from="1" to="0" dur="3s" repeatCount="indefinite" /></circle></marker></defs><path d="M18.5,25.25c1.75,0.75,3.75,0.75,6.32,0.34c5.22-0.84,14.87-2.97,16.46-3.1c3.58-0.29,4.48,0.39,4.48,3.55c0,3.6-0.17,48.23-0.17,60.15c0,9.08-7.72,1.06-8.61,0.32" class="grey" /><path d="M21.77,41.08c3.02,1.3,6.48,4.29,8.54,7.38" class="grey" /><path d="M17,72c2.12,0.62,3.25,0.25,4.75-1.25c0.88-0.88,7.5-7.75,11.25-12" class="grey" /><path d="M56.75,22.25C58.5,22.88,60,23,62.57,22.59c5.22-0.84,18.89-3.55,20.46-3.85c2.47-0.48,4.48,1.27,4.48,3.55c0,3.85-0.17,51.73-0.17,63.65c0,8.58-7.72,1.06-8.61,0.32" class="grey" /><path d="M61.77,39.58c3.02,1.3,6.98,4.92,8.54,7.38" class="grey" /><path d="M56.75,71c1.88,0.5,3.25,0.25,4.75-1.25c1.51-1.51,8.7-9.55,12.25-13.75" class="grey" /><path d="M18.5,25.25c1.75,0.75,3.75,0.75,6.32,0.34c5.22-0.84,14.87-2.97,16.46-3.1c3.58-0.29,4.48,0.39,4.48,3.55c0,3.6-0.17,48.23-0.17,60.15c0,9.08-7.72,1.06-8.61,0.32" class="stroke" stroke-dasharray="150"><animate attributeName="stroke-dashoffset" from="150" to="0" dur="1.8s" begin="0.0s" fill="freeze" /></path><path d="M21.77,41.08c3.02,1.3,6.48,4.29,8.54,7.38" class="stroke" stroke-dasharray="150"><set attributeName="opacity" to="0" dur="1.9s" /><animate attributeName="stroke-dashoffset" from="150" to="0" dur="1.8s" begin="1.9s" fill="freeze" /></path><path d="M17,72c2.12,0.62,3.25,0.25,4.75-1.25c0.88-0.88,7.5-7.75,11.25-12" class="stroke" stroke-dasharray="150"><set attributeName="opacity" to="0" dur="2.8s" /><animate attributeName="stroke-dashoffset" from="150" to="0" dur="1.8s" begin="2.8s" fill="freeze" /></path><path d="M56.75,22.25C58.5,22.88,60,23,62.57,22.59c5.22-0.84,18.89-3.55,20.46-3.85c2.47-0.48,4.48,1.27,4.48,3.55c0,3.85-0.17,51.73-0.17,63.65c0,8.58-7.72,1.06-8.61,0.32" class="stroke" stroke-dasharray="150"><set attributeName="opacity" to="0" dur="3.8s" /><animate attributeName="stroke-dashoffset" from="150" to="0" dur="1.8s" begin="3.8s" fill="freeze" /></path><path d="M61.77,39.58c3.02,1.3,6.98,4.92,8.54,7.38" class="stroke" stroke-dasharray="150"><set attributeName="opacity" to="0" dur="5.699999999999999s" /><animate attributeName="stroke-dashoffset" from="150" to="0" dur="1.8s" begin="5.699999999999999s" fill="freeze" /></path><path d="M56.75,71c1.88,0.5,3.25,0.25,4.75-1.25c1.51-1.51,8.7-9.55,12.25-13.75" class="stroke" stroke-dasharray="150"><set attributeName="opacity" to="0" dur="6.6s" /><animate attributeName="stroke-dashoffset" from="150" to="0" dur="1.8s" begin="6.6s" fill="freeze" /></path></svg>