<svg id="kvg-0800c" class="kanjivg" viewBox="0 0 106 106" width="106" height="106" xmlns="http://www.w3.org/2000/svg" xmlns:xlink="http://www.w3.org/1999/xlink" xml:space="preserve" version="1.1" baseProfile="full"><defs><style type="text/css">path.black{fill:none;stroke:black;stroke-width:5;stroke-linecap:round;stroke-linejoin:round;}path.grey{fill:none;stroke:#ddd;stroke-width:5;stroke-linecap:round;stroke-linejoin:round;}path.stroke{fill:none;stroke:black;stroke-width:5;stroke-linecap:round;stroke-linejoin:round;}text{font-size:16px;font-family:Segoe UI Symbol,Cambria Math,DejaVu Sans,Symbola,Quivira,STIX,Code2000;-webkit-touch-callout:none;cursor:pointer;-webkit-user-select:none;-khtml-user-select:none;-moz-user-select:none;-ms-user-select:none;user-select: none;}text:hover{color:#777;}#reset{font-weight:bold;}</style><marker id="markerStart" markerWidth="8" markerHeight="8" style="overflow:visible;"><circle cx="0" cy="0" r="1.5" style="stroke:none;fill:red;fill-opacity:0.5;"/></marker><marker id="markerEnd" style="overflow:visible;"><circle cx="0" cy="0" r="0.8" style="stroke:none;fill:blue;fill-opacity:0.5;"><animate attributeName="opacity" from="1" to="0" dur="3s" repeatCount="indefinite" /></circle></marker></defs><path d="M20.75,23.27c4.15,0.67,8.28,0.39,12.48,0.01c11.66-1.05,28.77-2.53,41.63-3.26c4.25-0.24,8.44-0.44,12.63,0.2" class="grey" /><path d="M51.53,25.39c0.07,0.86-0.07,1.77-0.48,2.52c-2.68,4.96-3.93,7.09-8.18,13.21" class="grey" /><path d="M17,43.25c1.12,1.12,1.35,2.24,1.5,4.5c0.37,5.49,1.58,20.95,2.22,31.88c0.23,4.01,0.43,7.38,0.53,9.37" class="grey" /><path d="M19.25,46c3,0.48,5.99,0.69,8.98,0.3c20.79-2.74,33.92-4.59,55.03-6.89c4.68-0.51,8.08,0.63,7.97,5.83c-0.17,7.49-0.85,30.13-1.48,40.51c-0.96,16.02-6,4.75-9,1.5" class="grey" /><path d="M40.77,47.83c0.98,0.92,1.17,2.29,1.26,3.77c0.85,14.27,0.96,18.93,1.19,26.02c0.09,2.85,0.18,5.72,0.29,8.88" class="grey" /><path d="M65.25,44c0.98,0.92,1.34,2.25,1.27,3.85c-0.5,11.37-0.99,21.43-1.4,29.02c-0.23,4.19-0.44,7.63-0.62,10.12" class="grey" /><path d="M20.75,23.27c4.15,0.67,8.28,0.39,12.48,0.01c11.66-1.05,28.77-2.53,41.63-3.26c4.25-0.24,8.44-0.44,12.63,0.2" class="stroke" stroke-dasharray="150"><animate attributeName="stroke-dashoffset" from="150" to="0" dur="1.8s" begin="0.0s" fill="freeze" /></path><path d="M51.53,25.39c0.07,0.86-0.07,1.77-0.48,2.52c-2.68,4.96-3.93,7.09-8.18,13.21" class="stroke" stroke-dasharray="150"><set attributeName="opacity" to="0" dur="1.5s" /><animate attributeName="stroke-dashoffset" from="150" to="0" dur="1.8s" begin="1.5s" fill="freeze" /></path><path d="M17,43.25c1.12,1.12,1.35,2.24,1.5,4.5c0.37,5.49,1.58,20.95,2.22,31.88c0.23,4.01,0.43,7.38,0.53,9.37" class="stroke" stroke-dasharray="150"><set attributeName="opacity" to="0" dur="2.4s" /><animate attributeName="stroke-dashoffset" from="150" to="0" dur="1.8s" begin="2.4s" fill="freeze" /></path><path d="M19.25,46c3,0.48,5.99,0.69,8.98,0.3c20.79-2.74,33.92-4.59,55.03-6.89c4.68-0.51,8.08,0.63,7.97,5.83c-0.17,7.49-0.85,30.13-1.48,40.51c-0.96,16.02-6,4.75-9,1.5" class="stroke" stroke-dasharray="150"><set attributeName="opacity" to="0" dur="3.5999999999999996s" /><animate attributeName="stroke-dashoffset" from="150" to="0" dur="1.8s" begin="3.5999999999999996s" fill="freeze" /></path><path d="M40.77,47.83c0.98,0.92,1.17,2.29,1.26,3.77c0.85,14.27,0.96,18.93,1.19,26.02c0.09,2.85,0.18,5.72,0.29,8.88" class="stroke" stroke-dasharray="150"><set attributeName="opacity" to="0" dur="5.6s" /><animate attributeName="stroke-dashoffset" from="150" to="0" dur="1.8s" begin="5.6s" fill="freeze" /></path><path d="M65.25,44c0.98,0.92,1.34,2.25,1.27,3.85c-0.5,11.37-0.99,21.43-1.4,29.02c-0.23,4.19-0.44,7.63-0.62,10.12" class="stroke" stroke-dasharray="150"><set attributeName="opacity" to="0" dur="6.6s" /><animate attributeName="stroke-dashoffset" from="150" to="0" dur="1.8s" begin="6.6s" fill="freeze" /></path></svg>