<svg id="kvg-08001" class="kanjivg" viewBox="0 0 106 106" width="106" height="106" xmlns="http://www.w3.org/2000/svg" xmlns:xlink="http://www.w3.org/1999/xlink" xml:space="preserve" version="1.1" baseProfile="full"><defs><style type="text/css">path.black{fill:none;stroke:black;stroke-width:5;stroke-linecap:round;stroke-linejoin:round;}path.grey{fill:none;stroke:#ddd;stroke-width:5;stroke-linecap:round;stroke-linejoin:round;}path.stroke{fill:none;stroke:black;stroke-width:5;stroke-linecap:round;stroke-linejoin:round;}text{font-size:16px;font-family:Segoe UI Symbol,Cambria Math,DejaVu Sans,Symbola,Quivira,STIX,Code2000;-webkit-touch-callout:none;cursor:pointer;-webkit-user-select:none;-khtml-user-select:none;-moz-user-select:none;-ms-user-select:none;user-select: none;}text:hover{color:#777;}#reset{font-weight:bold;}</style><marker id="markerStart" markerWidth="8" markerHeight="8" style="overflow:visible;"><circle cx="0" cy="0" r="1.5" style="stroke:none;fill:red;fill-opacity:0.5;"/></marker><marker id="markerEnd" style="overflow:visible;"><circle cx="0" cy="0" r="0.8" style="stroke:none;fill:blue;fill-opacity:0.5;"><animate attributeName="opacity" from="1" to="0" dur="3s" repeatCount="indefinite" /></circle></marker></defs><path d="M31,30.7c2.25,0.42,4.66,0.35,6.64,0.02c8.86-1.47,18.48-2.6,26.86-3.64c1.85-0.23,3.75-0.08,5.63,0.27" class="grey" /><path d="M49.67,12.37c0.86,0.85,1.52,2.27,1.52,4.14c0,9.37,0.06,23.25,0.06,28.5" class="grey" /><path d="M17,49.03c3.12,0.72,5.75,0.84,8.78,0.44c20.06-2.66,37.22-5.22,60.09-6.43c3.8-0.2,6.11,0.08,8.01,0.43" class="grey" /><path d="M79.84,16.98c0.18,1.61-0.3,3.55-1.6,5.45C61.56,46.85,44.5,65.25,16.81,83.97" class="grey" /><path d="M80.19,58.64c-0.11,1.45-0.89,2.79-1.93,3.62c-5.62,4.52-13.24,8.82-22.01,12.49" class="grey" /><path d="M50.6,62c0.78,0.84,1.35,2.12,1.35,3.51c0,1.15,0.01,15.74,0.01,20.46c0,8.29,1.78,10.07,19.44,10.07c16.34,0,17.88-1.66,17.88-11.92" class="grey" /><path d="M31,30.7c2.25,0.42,4.66,0.35,6.64,0.02c8.86-1.47,18.48-2.6,26.86-3.64c1.85-0.23,3.75-0.08,5.63,0.27" class="stroke" stroke-dasharray="150"><animate attributeName="stroke-dashoffset" from="150" to="0" dur="1.8s" begin="0.0s" fill="freeze" /></path><path d="M49.67,12.37c0.86,0.85,1.52,2.27,1.52,4.14c0,9.37,0.06,23.25,0.06,28.5" class="stroke" stroke-dasharray="150"><set attributeName="opacity" to="0" dur="1.0s" /><animate attributeName="stroke-dashoffset" from="150" to="0" dur="1.8s" begin="1.0s" fill="freeze" /></path><path d="M17,49.03c3.12,0.72,5.75,0.84,8.78,0.44c20.06-2.66,37.22-5.22,60.09-6.43c3.8-0.2,6.11,0.08,8.01,0.43" class="stroke" stroke-dasharray="150"><set attributeName="opacity" to="0" dur="2.0s" /><animate attributeName="stroke-dashoffset" from="150" to="0" dur="1.8s" begin="2.0s" fill="freeze" /></path><path d="M79.84,16.98c0.18,1.61-0.3,3.55-1.6,5.45C61.56,46.85,44.5,65.25,16.81,83.97" class="stroke" stroke-dasharray="150"><set attributeName="opacity" to="0" dur="3.7s" /><animate attributeName="stroke-dashoffset" from="150" to="0" dur="1.8s" begin="3.7s" fill="freeze" /></path><path d="M80.19,58.64c-0.11,1.45-0.89,2.79-1.93,3.62c-5.62,4.52-13.24,8.82-22.01,12.49" class="stroke" stroke-dasharray="150"><set attributeName="opacity" to="0" dur="5.5s" /><animate attributeName="stroke-dashoffset" from="150" to="0" dur="1.8s" begin="5.5s" fill="freeze" /></path><path d="M50.6,62c0.78,0.84,1.35,2.12,1.35,3.51c0,1.15,0.01,15.74,0.01,20.46c0,8.29,1.78,10.07,19.44,10.07c16.34,0,17.88-1.66,17.88-11.92" class="stroke" stroke-dasharray="150"><set attributeName="opacity" to="0" dur="6.5s" /><animate attributeName="stroke-dashoffset" from="150" to="0" dur="1.8s" begin="6.5s" fill="freeze" /></path></svg>