<svg id="kvg-08001-Kaisho" class="kanjivg" viewBox="0 0 106 106" width="106" height="106" xmlns="http://www.w3.org/2000/svg" xmlns:xlink="http://www.w3.org/1999/xlink" xml:space="preserve" version="1.1" baseProfile="full"><defs><style type="text/css">path.black{fill:none;stroke:black;stroke-width:5;stroke-linecap:round;stroke-linejoin:round;}path.grey{fill:none;stroke:#ddd;stroke-width:5;stroke-linecap:round;stroke-linejoin:round;}path.stroke{fill:none;stroke:black;stroke-width:5;stroke-linecap:round;stroke-linejoin:round;}text{font-size:16px;font-family:Segoe UI Symbol,Cambria Math,DejaVu Sans,Symbola,Quivira,STIX,Code2000;-webkit-touch-callout:none;cursor:pointer;-webkit-user-select:none;-khtml-user-select:none;-moz-user-select:none;-ms-user-select:none;user-select: none;}text:hover{color:#777;}#reset{font-weight:bold;}</style><marker id="markerStart" markerWidth="8" markerHeight="8" style="overflow:visible;"><circle cx="0" cy="0" r="1.5" style="stroke:none;fill:red;fill-opacity:0.5;"/></marker><marker id="markerEnd" style="overflow:visible;"><circle cx="0" cy="0" r="0.8" style="stroke:none;fill:blue;fill-opacity:0.5;"><animate attributeName="opacity" from="1" to="0" dur="3s" repeatCount="indefinite" /></circle></marker></defs><path d="M31,30.45c0.77,0.33,2.19,0.37,2.96,0.33c8.79-0.53,25.79-3.53,33.21-4.25c1.28-0.12,2.06,0.16,2.71,0.32" class="grey" /><path d="M49.42,12.37c0.12,0.29,1.65,1.53,1.77,3.39c0.57,8.93,0.31,26.2,0.31,29.25" class="grey" /><path d="M17.25,49.28c1.57,0.69,4.47,1.02,6.01,0.69c6.35-1.35,45.49-5.97,65.37-7.18c2.61-0.16,4.18,0.33,5.49,0.68" class="grey" /><path d="M78.59,15.98c0.18,1.61,0.95,4.55-0.35,6.45C61.56,46.85,44.5,65.5,16.81,84.22" class="grey" /><path d="M52.25,76c3.5-0.5,17.25-4,23-5c1.09-0.19,2.5-0.5,4.75-0.5" class="grey" /><path d="M50.6,62.25c0.78,0.84,0.84,1.39,1.1,2.51s0.26,19.71,0.26,23.21c0,8.97,10.5,7.57,19.44,7.57c6.94,0,12.71-0.47,15.33-2.98c2.61-2.51,2.29-5.42,2.56-7.93" class="grey" /><path d="M31,30.45c0.77,0.33,2.19,0.37,2.96,0.33c8.79-0.53,25.79-3.53,33.21-4.25c1.28-0.12,2.06,0.16,2.71,0.32" class="stroke" stroke-dasharray="150"><animate attributeName="stroke-dashoffset" from="150" to="0" dur="1.8s" begin="0.0s" fill="freeze" /></path><path d="M49.42,12.37c0.12,0.29,1.65,1.53,1.77,3.39c0.57,8.93,0.31,26.2,0.31,29.25" class="stroke" stroke-dasharray="150"><set attributeName="opacity" to="0" dur="1.0s" /><animate attributeName="stroke-dashoffset" from="150" to="0" dur="1.8s" begin="1.0s" fill="freeze" /></path><path d="M17.25,49.28c1.57,0.69,4.47,1.02,6.01,0.69c6.35-1.35,45.49-5.97,65.37-7.18c2.61-0.16,4.18,0.33,5.49,0.68" class="stroke" stroke-dasharray="150"><set attributeName="opacity" to="0" dur="2.0s" /><animate attributeName="stroke-dashoffset" from="150" to="0" dur="1.8s" begin="2.0s" fill="freeze" /></path><path d="M78.59,15.98c0.18,1.61,0.95,4.55-0.35,6.45C61.56,46.85,44.5,65.5,16.81,84.22" class="stroke" stroke-dasharray="150"><set attributeName="opacity" to="0" dur="3.7s" /><animate attributeName="stroke-dashoffset" from="150" to="0" dur="1.8s" begin="3.7s" fill="freeze" /></path><path d="M52.25,76c3.5-0.5,17.25-4,23-5c1.09-0.19,2.5-0.5,4.75-0.5" class="stroke" stroke-dasharray="150"><set attributeName="opacity" to="0" dur="5.5s" /><animate attributeName="stroke-dashoffset" from="150" to="0" dur="1.8s" begin="5.5s" fill="freeze" /></path><path d="M50.6,62.25c0.78,0.84,0.84,1.39,1.1,2.51s0.26,19.71,0.26,23.21c0,8.97,10.5,7.57,19.44,7.57c6.94,0,12.71-0.47,15.33-2.98c2.61-2.51,2.29-5.42,2.56-7.93" class="stroke" stroke-dasharray="150"><set attributeName="opacity" to="0" dur="6.5s" /><animate attributeName="stroke-dashoffset" from="150" to="0" dur="1.8s" begin="6.5s" fill="freeze" /></path></svg>