<svg id="kvg-08012-Kaisho" class="kanjivg" viewBox="0 0 106 106" width="106" height="106" xmlns="http://www.w3.org/2000/svg" xmlns:xlink="http://www.w3.org/1999/xlink" xml:space="preserve" version="1.1" baseProfile="full"><defs><style type="text/css">path.black{fill:none;stroke:black;stroke-width:5;stroke-linecap:round;stroke-linejoin:round;}path.grey{fill:none;stroke:#ddd;stroke-width:5;stroke-linecap:round;stroke-linejoin:round;}path.stroke{fill:none;stroke:black;stroke-width:5;stroke-linecap:round;stroke-linejoin:round;}text{font-size:16px;font-family:Segoe UI Symbol,Cambria Math,DejaVu Sans,Symbola,Quivira,STIX,Code2000;-webkit-touch-callout:none;cursor:pointer;-webkit-user-select:none;-khtml-user-select:none;-moz-user-select:none;-ms-user-select:none;user-select: none;}text:hover{color:#777;}#reset{font-weight:bold;}</style><marker id="markerStart" markerWidth="8" markerHeight="8" style="overflow:visible;"><circle cx="0" cy="0" r="1.5" style="stroke:none;fill:red;fill-opacity:0.5;"/></marker><marker id="markerEnd" style="overflow:visible;"><circle cx="0" cy="0" r="0.8" style="stroke:none;fill:blue;fill-opacity:0.5;"><animate attributeName="opacity" from="1" to="0" dur="3s" repeatCount="indefinite" /></circle></marker></defs><path d="M76.96,17.25c0.04,1.25-0.97,2.22-2.24,2.69c-6.97,2.56-18.97,8.31-41.97,10.36" class="grey" /><path d="M27.63,42.27c0.88,0.28,2.49,0.31,3.37,0.28c9.16-0.32,36-2.8,49.14-3.23c1.47-0.05,2.35,0.13,3.08,0.27" class="grey" /><path d="M16.94,56.75c0.89,0.25,3.27,0.82,5.64,0.75c8.92-0.25,44.17-3.25,62.91-3.5c2.37-0.03,4.47,0.25,5.95,0.5" class="grey" /><path d="M51.16,11.5c1.48,0.5,2.67,3.71,2.67,4.75c0,4,0.2,75.71,0.2,77c0,12-5.03,3.5-7.03,1.5" class="grey" /><path d="M53.5,56.25C46.71,66.79,29.13,82.78,15,88.75" class="grey" /><path d="M54.25,56c5,6.36,26.14,24.53,33.59,29.84c1.86,1.33,3.35,2,5.16,2.41" class="grey" /><path d="M76.96,17.25c0.04,1.25-0.97,2.22-2.24,2.69c-6.97,2.56-18.97,8.31-41.97,10.36" class="stroke" stroke-dasharray="150"><animate attributeName="stroke-dashoffset" from="150" to="0" dur="1.8s" begin="0.0s" fill="freeze" /></path><path d="M27.63,42.27c0.88,0.28,2.49,0.31,3.37,0.28c9.16-0.32,36-2.8,49.14-3.23c1.47-0.05,2.35,0.13,3.08,0.27" class="stroke" stroke-dasharray="150"><set attributeName="opacity" to="0" dur="1.2s" /><animate attributeName="stroke-dashoffset" from="150" to="0" dur="1.8s" begin="1.2s" fill="freeze" /></path><path d="M16.94,56.75c0.89,0.25,3.27,0.82,5.64,0.75c8.92-0.25,44.17-3.25,62.91-3.5c2.37-0.03,4.47,0.25,5.95,0.5" class="stroke" stroke-dasharray="150"><set attributeName="opacity" to="0" dur="2.5999999999999996s" /><animate attributeName="stroke-dashoffset" from="150" to="0" dur="1.8s" begin="2.5999999999999996s" fill="freeze" /></path><path d="M51.16,11.5c1.48,0.5,2.67,3.71,2.67,4.75c0,4,0.2,75.71,0.2,77c0,12-5.03,3.5-7.03,1.5" class="stroke" stroke-dasharray="150"><set attributeName="opacity" to="0" dur="4.3s" /><animate attributeName="stroke-dashoffset" from="150" to="0" dur="1.8s" begin="4.3s" fill="freeze" /></path><path d="M53.5,56.25C46.71,66.79,29.13,82.78,15,88.75" class="stroke" stroke-dasharray="150"><set attributeName="opacity" to="0" dur="6.1s" /><animate attributeName="stroke-dashoffset" from="150" to="0" dur="1.8s" begin="6.1s" fill="freeze" /></path><path d="M54.25,56c5,6.36,26.14,24.53,33.59,29.84c1.86,1.33,3.35,2,5.16,2.41" class="stroke" stroke-dasharray="150"><set attributeName="opacity" to="0" dur="7.3999999999999995s" /><animate attributeName="stroke-dashoffset" from="150" to="0" dur="1.8s" begin="7.3999999999999995s" fill="freeze" /></path></svg>