<svg id="kvg-08033" class="kanjivg" viewBox="0 0 106 126" width="106" height="106" xmlns="http://www.w3.org/2000/svg" xmlns:xlink="http://www.w3.org/1999/xlink" xml:space="preserve" version="1.1" baseProfile="full"><defs><style type="text/css">path.black{fill:none;stroke:black;stroke-width:5;stroke-linecap:round;stroke-linejoin:round;}path.grey{fill:none;stroke:#ddd;stroke-width:5;stroke-linecap:round;stroke-linejoin:round;}path.stroke{fill:none;stroke:black;stroke-width:5;stroke-linecap:round;stroke-linejoin:round;}text{font-size:16px;font-family:Segoe UI Symbol,Cambria Math,DejaVu Sans,Symbola,Quivira,STIX,Code2000;-webkit-touch-callout:none;cursor:pointer;-webkit-user-select:none;-khtml-user-select:none;-moz-user-select:none;-ms-user-select:none;user-select: none;}text:hover{color:#777;}#reset{font-weight:bold;}</style><marker id="markerStart" markerWidth="8" markerHeight="8" style="overflow:visible;"><circle cx="0" cy="0" r="1.5" style="stroke:none;fill:red;fill-opacity:0.5;"/></marker><marker id="markerEnd" style="overflow:visible;"><circle cx="0" cy="0" r="0.8" style="stroke:none;fill:blue;fill-opacity:0.5;"><animate attributeName="opacity" from="1" to="0" dur="3s" repeatCount="indefinite" /></circle></marker></defs><path d="M20.25,20c3.03,0.85,6.17,0.58,9.24,0.21c14.62-1.76,31.45-3.95,48.12-5.06c3.33-0.22,6.59-0.2,9.89,0.35" class="grey" /><path d="M36.68,22.5c1.1,1.1,1.64,2.71,1.64,4.73c0,1.6-0.33,40.02-0.33,41.52" class="grey" /><path d="M39.5,35.5c6.75-0.88,24-2.75,32.25-3.25" class="grey" /><path d="M39.25,51.25c7-0.5,24.62-2.75,32.25-3" class="grey" /><path d="M17.25,71c0.75,1.12,2.01,1.81,3.75,1.5c7-1.25,48-8.75,58.75-10.75" class="grey" /><path d="M71,18.5c1,1,1.75,2.5,1.75,4.25c0,1.05,0.18,44.73,0.23,64.75c0.01,3.74,0.02,6.64,0.02,8.25" class="grey" /><path d="M20.25,20c3.03,0.85,6.17,0.58,9.24,0.21c14.62-1.76,31.45-3.95,48.12-5.06c3.33-0.22,6.59-0.2,9.89,0.35" class="stroke" stroke-dasharray="150"><animate attributeName="stroke-dashoffset" from="150" to="0" dur="1.8s" begin="0.0s" fill="freeze" /></path><path d="M36.68,22.5c1.1,1.1,1.64,2.71,1.64,4.73c0,1.6-0.33,40.02-0.33,41.52" class="stroke" stroke-dasharray="150"><set attributeName="opacity" to="0" dur="1.5s" /><animate attributeName="stroke-dashoffset" from="150" to="0" dur="1.8s" begin="1.5s" fill="freeze" /></path><path d="M39.5,35.5c6.75-0.88,24-2.75,32.25-3.25" class="stroke" stroke-dasharray="150"><set attributeName="opacity" to="0" dur="2.7s" /><animate attributeName="stroke-dashoffset" from="150" to="0" dur="1.8s" begin="2.7s" fill="freeze" /></path><path d="M39.25,51.25c7-0.5,24.62-2.75,32.25-3" class="stroke" stroke-dasharray="150"><set attributeName="opacity" to="0" dur="3.7s" /><animate attributeName="stroke-dashoffset" from="150" to="0" dur="1.8s" begin="3.7s" fill="freeze" /></path><path d="M17.25,71c0.75,1.12,2.01,1.81,3.75,1.5c7-1.25,48-8.75,58.75-10.75" class="stroke" stroke-dasharray="150"><set attributeName="opacity" to="0" dur="4.7s" /><animate attributeName="stroke-dashoffset" from="150" to="0" dur="1.8s" begin="4.7s" fill="freeze" /></path><path d="M71,18.5c1,1,1.75,2.5,1.75,4.25c0,1.05,0.18,44.73,0.23,64.75c0.01,3.74,0.02,6.64,0.02,8.25" class="stroke" stroke-dasharray="150"><set attributeName="opacity" to="0" dur="6.2s" /><animate attributeName="stroke-dashoffset" from="150" to="0" dur="1.8s" begin="6.2s" fill="freeze" /></path></svg>