<svg id="kvg-08033-Kaisho" class="kanjivg" viewBox="0 0 106 106" width="106" height="106" xmlns="http://www.w3.org/2000/svg" xmlns:xlink="http://www.w3.org/1999/xlink" xml:space="preserve" version="1.1" baseProfile="full"><defs><style type="text/css">path.black{fill:none;stroke:black;stroke-width:5;stroke-linecap:round;stroke-linejoin:round;}path.grey{fill:none;stroke:#ddd;stroke-width:5;stroke-linecap:round;stroke-linejoin:round;}path.stroke{fill:none;stroke:black;stroke-width:5;stroke-linecap:round;stroke-linejoin:round;}text{font-size:16px;font-family:Segoe UI Symbol,Cambria Math,DejaVu Sans,Symbola,Quivira,STIX,Code2000;-webkit-touch-callout:none;cursor:pointer;-webkit-user-select:none;-khtml-user-select:none;-moz-user-select:none;-ms-user-select:none;user-select: none;}text:hover{color:#777;}#reset{font-weight:bold;}</style><marker id="markerStart" markerWidth="8" markerHeight="8" style="overflow:visible;"><circle cx="0" cy="0" r="1.5" style="stroke:none;fill:red;fill-opacity:0.5;"/></marker><marker id="markerEnd" style="overflow:visible;"><circle cx="0" cy="0" r="0.8" style="stroke:none;fill:blue;fill-opacity:0.5;"><animate attributeName="opacity" from="1" to="0" dur="3s" repeatCount="indefinite" /></circle></marker></defs><path d="M21,20.25c1.61,0.5,4.58,0.72,6.17,0.5c14.33-2,35.08-5,54.69-5.74c2.68-0.1,4.29,0.24,5.64,0.49" class="grey" /><path d="M36.68,22.5c1.07,0.75,1.64,2.71,1.64,4.73c0,2.02-0.33,34.76-0.33,42.02" class="grey" /><path d="M40,35.5c4.85,0,9.78-0.93,14.58-1.5c1.57-0.19,3.17-0.38,4.75-0.55" class="grey" /><path d="M39.5,51.25c4.9,0,9.86-0.82,14.72-1.38c1.51-0.17,3.04-0.34,4.55-0.5" class="grey" /><path d="M17.5,71c0.5,0.75,1.76,1.81,3.5,1.5c7-1.25,48-8.75,58.75-10.75" class="grey" /><path d="M71.25,18.5c0.5,1,1.25,2.25,1.25,3.5s0.25,63.25,0.25,73.5" class="grey" /><path d="M21,20.25c1.61,0.5,4.58,0.72,6.17,0.5c14.33-2,35.08-5,54.69-5.74c2.68-0.1,4.29,0.24,5.64,0.49" class="stroke" stroke-dasharray="150"><animate attributeName="stroke-dashoffset" from="150" to="0" dur="1.8s" begin="0.0s" fill="freeze" /></path><path d="M36.68,22.5c1.07,0.75,1.64,2.71,1.64,4.73c0,2.02-0.33,34.76-0.33,42.02" class="stroke" stroke-dasharray="150"><set attributeName="opacity" to="0" dur="1.5s" /><animate attributeName="stroke-dashoffset" from="150" to="0" dur="1.8s" begin="1.5s" fill="freeze" /></path><path d="M40,35.5c4.85,0,9.78-0.93,14.58-1.5c1.57-0.19,3.17-0.38,4.75-0.55" class="stroke" stroke-dasharray="150"><set attributeName="opacity" to="0" dur="2.7s" /><animate attributeName="stroke-dashoffset" from="150" to="0" dur="1.8s" begin="2.7s" fill="freeze" /></path><path d="M39.5,51.25c4.9,0,9.86-0.82,14.72-1.38c1.51-0.17,3.04-0.34,4.55-0.5" class="stroke" stroke-dasharray="150"><set attributeName="opacity" to="0" dur="3.6s" /><animate attributeName="stroke-dashoffset" from="150" to="0" dur="1.8s" begin="3.6s" fill="freeze" /></path><path d="M17.5,71c0.5,0.75,1.76,1.81,3.5,1.5c7-1.25,48-8.75,58.75-10.75" class="stroke" stroke-dasharray="150"><set attributeName="opacity" to="0" dur="4.5s" /><animate attributeName="stroke-dashoffset" from="150" to="0" dur="1.8s" begin="4.5s" fill="freeze" /></path><path d="M71.25,18.5c0.5,1,1.25,2.25,1.25,3.5s0.25,63.25,0.25,73.5" class="stroke" stroke-dasharray="150"><set attributeName="opacity" to="0" dur="6.0s" /><animate attributeName="stroke-dashoffset" from="150" to="0" dur="1.8s" begin="6.0s" fill="freeze" /></path></svg>