<svg id="kvg-08089" class="kanjivg" viewBox="0 0 106 106" width="106" height="106" xmlns="http://www.w3.org/2000/svg" xmlns:xlink="http://www.w3.org/1999/xlink" xml:space="preserve" version="1.1" baseProfile="full"><defs><style type="text/css">path.black{fill:none;stroke:black;stroke-width:5;stroke-linecap:round;stroke-linejoin:round;}path.grey{fill:none;stroke:#ddd;stroke-width:5;stroke-linecap:round;stroke-linejoin:round;}path.stroke{fill:none;stroke:black;stroke-width:5;stroke-linecap:round;stroke-linejoin:round;}text{font-size:16px;font-family:Segoe UI Symbol,Cambria Math,DejaVu Sans,Symbola,Quivira,STIX,Code2000;-webkit-touch-callout:none;cursor:pointer;-webkit-user-select:none;-khtml-user-select:none;-moz-user-select:none;-ms-user-select:none;user-select: none;}text:hover{color:#777;}#reset{font-weight:bold;}</style><marker id="markerStart" markerWidth="8" markerHeight="8" style="overflow:visible;"><circle cx="0" cy="0" r="1.5" style="stroke:none;fill:red;fill-opacity:0.5;"/></marker><marker id="markerEnd" style="overflow:visible;"><circle cx="0" cy="0" r="0.8" style="stroke:none;fill:blue;fill-opacity:0.5;"><animate attributeName="opacity" from="1" to="0" dur="3s" repeatCount="indefinite" /></circle></marker></defs><path d="M19,30.27c1.11,1.11,1.44,2.82,1.44,4.56c0,5.46,0.16,39.85,0.21,53.67c0.01,3.04,0.02,5.09,0.02,5.61" class="grey" /><path d="M21.01,32.11c16.09-1.31,61.86-4.76,63.38-4.76c3.86,0,5.92,1.9,5.92,5.3c0,1.91,0.24,54.28,0.24,58.68c0,9.67-6.04,2.42-9.44-0.71" class="grey" /><path d="M53.28,12.75C54,14,54.03,15.33,54.1,16.79c0.65,13.46-8.35,34.46-24.6,38.71" class="grey" /><path d="M54.5,37.25c8.56,3.18,22.11,13.06,24.25,18" class="grey" /><path d="M52,51.38c0.12,1.22,0.05,2.34-0.47,3.45c-3.28,7.05-11.03,17.05-21.23,22.4" class="grey" /><path d="M52,62.25C60.47,65.03,73.88,73.68,76,78" class="grey" /><path d="M19,30.27c1.11,1.11,1.44,2.82,1.44,4.56c0,5.46,0.16,39.85,0.21,53.67c0.01,3.04,0.02,5.09,0.02,5.61" class="stroke" stroke-dasharray="150"><animate attributeName="stroke-dashoffset" from="150" to="0" dur="1.8s" begin="0.0s" fill="freeze" /></path><path d="M21.01,32.11c16.09-1.31,61.86-4.76,63.38-4.76c3.86,0,5.92,1.9,5.92,5.3c0,1.91,0.24,54.28,0.24,58.68c0,9.67-6.04,2.42-9.44-0.71" class="stroke" stroke-dasharray="150"><set attributeName="opacity" to="0" dur="1.5s" /><animate attributeName="stroke-dashoffset" from="150" to="0" dur="1.8s" begin="1.5s" fill="freeze" /></path><path d="M53.28,12.75C54,14,54.03,15.33,54.1,16.79c0.65,13.46-8.35,34.46-24.6,38.71" class="stroke" stroke-dasharray="150"><set attributeName="opacity" to="0" dur="3.5s" /><animate attributeName="stroke-dashoffset" from="150" to="0" dur="1.8s" begin="3.5s" fill="freeze" /></path><path d="M54.5,37.25c8.56,3.18,22.11,13.06,24.25,18" class="stroke" stroke-dasharray="150"><set attributeName="opacity" to="0" dur="4.8s" /><animate attributeName="stroke-dashoffset" from="150" to="0" dur="1.8s" begin="4.8s" fill="freeze" /></path><path d="M52,51.38c0.12,1.22,0.05,2.34-0.47,3.45c-3.28,7.05-11.03,17.05-21.23,22.4" class="stroke" stroke-dasharray="150"><set attributeName="opacity" to="0" dur="5.8s" /><animate attributeName="stroke-dashoffset" from="150" to="0" dur="1.8s" begin="5.8s" fill="freeze" /></path><path d="M52,62.25C60.47,65.03,73.88,73.68,76,78" class="stroke" stroke-dasharray="150"><set attributeName="opacity" to="0" dur="6.8s" /><animate attributeName="stroke-dashoffset" from="150" to="0" dur="1.8s" begin="6.8s" fill="freeze" /></path></svg>