<svg id="kvg-081e3" class="kanjivg" viewBox="0 0 106 106" width="106" height="106" xmlns="http://www.w3.org/2000/svg" xmlns:xlink="http://www.w3.org/1999/xlink" xml:space="preserve" version="1.1" baseProfile="full"><defs><style type="text/css">path.black{fill:none;stroke:black;stroke-width:5;stroke-linecap:round;stroke-linejoin:round;}path.grey{fill:none;stroke:#ddd;stroke-width:5;stroke-linecap:round;stroke-linejoin:round;}path.stroke{fill:none;stroke:black;stroke-width:5;stroke-linecap:round;stroke-linejoin:round;}text{font-size:16px;font-family:Segoe UI Symbol,Cambria Math,DejaVu Sans,Symbola,Quivira,STIX,Code2000;-webkit-touch-callout:none;cursor:pointer;-webkit-user-select:none;-khtml-user-select:none;-moz-user-select:none;-ms-user-select:none;user-select: none;}text:hover{color:#777;}#reset{font-weight:bold;}</style><marker id="markerStart" markerWidth="8" markerHeight="8" style="overflow:visible;"><circle cx="0" cy="0" r="1.5" style="stroke:none;fill:red;fill-opacity:0.5;"/></marker><marker id="markerEnd" style="overflow:visible;"><circle cx="0" cy="0" r="0.8" style="stroke:none;fill:blue;fill-opacity:0.5;"><animate attributeName="opacity" from="1" to="0" dur="3s" repeatCount="indefinite" /></circle></marker></defs><path d="M24.37,16.25c0.88,0.88,1.46,2.38,1.46,3.5c0,4.33-0.15,52.55-0.2,71.62c-0.01,3.52-0.01,6.05-0.01,7.12" class="grey" /><path d="M26.57,18.49c6.78-0.7,35.22-2.63,53.05-3.78c2.69-0.17,6.21-0.49,8.88,0.08" class="grey" /><path d="M54.12,18.5c1.13,1.13,1.46,2.73,1.46,3.75c0,4.75-0.08,10.12-0.08,16.5" class="grey" /><path d="M27,42.5c18.38-1.75,39.32-3.24,51.25-4.5c4.83-0.51,6.25,1,5.25,5c-1.22,4.88-2.76,10.88-4,16.75" class="grey" /><path d="M26.82,64.74C32.84,64.12,61.85,62,76,61.13c2.72-0.17,4.9-0.29,6.25-0.34" class="grey" /><path d="M55.12,64.5c0.94,0.94,1.46,2.23,1.46,3.25c0,4-0.08,16.88-0.08,23" class="grey" /><path d="M26.57,93.49c8.55-0.62,38.68-2.37,57.93-3.86c2.57-0.2,5.96-0.39,8.5,0.16" class="grey" /><path d="M24.37,16.25c0.88,0.88,1.46,2.38,1.46,3.5c0,4.33-0.15,52.55-0.2,71.62c-0.01,3.52-0.01,6.05-0.01,7.12" class="stroke" stroke-dasharray="150"><animate attributeName="stroke-dashoffset" from="150" to="0" dur="1.8s" begin="0.0s" fill="freeze" /></path><path d="M26.57,18.49c6.78-0.7,35.22-2.63,53.05-3.78c2.69-0.17,6.21-0.49,8.88,0.08" class="stroke" stroke-dasharray="150"><set attributeName="opacity" to="0" dur="1.7s" /><animate attributeName="stroke-dashoffset" from="150" to="0" dur="1.8s" begin="1.7s" fill="freeze" /></path><path d="M54.12,18.5c1.13,1.13,1.46,2.73,1.46,3.75c0,4.75-0.08,10.12-0.08,16.5" class="stroke" stroke-dasharray="150"><set attributeName="opacity" to="0" dur="3.2s" /><animate attributeName="stroke-dashoffset" from="150" to="0" dur="1.8s" begin="3.2s" fill="freeze" /></path><path d="M27,42.5c18.38-1.75,39.32-3.24,51.25-4.5c4.83-0.51,6.25,1,5.25,5c-1.22,4.88-2.76,10.88-4,16.75" class="stroke" stroke-dasharray="150"><set attributeName="opacity" to="0" dur="4.2s" /><animate attributeName="stroke-dashoffset" from="150" to="0" dur="1.8s" begin="4.2s" fill="freeze" /></path><path d="M26.82,64.74C32.84,64.12,61.85,62,76,61.13c2.72-0.17,4.9-0.29,6.25-0.34" class="stroke" stroke-dasharray="150"><set attributeName="opacity" to="0" dur="5.9s" /><animate attributeName="stroke-dashoffset" from="150" to="0" dur="1.8s" begin="5.9s" fill="freeze" /></path><path d="M55.12,64.5c0.94,0.94,1.46,2.23,1.46,3.25c0,4-0.08,16.88-0.08,23" class="stroke" stroke-dasharray="150"><set attributeName="opacity" to="0" dur="7.300000000000001s" /><animate attributeName="stroke-dashoffset" from="150" to="0" dur="1.8s" begin="7.300000000000001s" fill="freeze" /></path><path d="M26.57,93.49c8.55-0.62,38.68-2.37,57.93-3.86c2.57-0.2,5.96-0.39,8.5,0.16" class="stroke" stroke-dasharray="150"><set attributeName="opacity" to="0" dur="8.3s" /><animate attributeName="stroke-dashoffset" from="150" to="0" dur="1.8s" begin="8.3s" fill="freeze" /></path></svg>