<svg id="kvg-081ea-Kaisho" class="kanjivg" viewBox="0 0 106 106" width="106" height="106" xmlns="http://www.w3.org/2000/svg" xmlns:xlink="http://www.w3.org/1999/xlink" xml:space="preserve" version="1.1" baseProfile="full"><defs><style type="text/css">path.black{fill:none;stroke:black;stroke-width:5;stroke-linecap:round;stroke-linejoin:round;}path.grey{fill:none;stroke:#ddd;stroke-width:5;stroke-linecap:round;stroke-linejoin:round;}path.stroke{fill:none;stroke:black;stroke-width:5;stroke-linecap:round;stroke-linejoin:round;}text{font-size:16px;font-family:Segoe UI Symbol,Cambria Math,DejaVu Sans,Symbola,Quivira,STIX,Code2000;-webkit-touch-callout:none;cursor:pointer;-webkit-user-select:none;-khtml-user-select:none;-moz-user-select:none;-ms-user-select:none;user-select: none;}text:hover{color:#777;}#reset{font-weight:bold;}</style><marker id="markerStart" markerWidth="8" markerHeight="8" style="overflow:visible;"><circle cx="0" cy="0" r="1.5" style="stroke:none;fill:red;fill-opacity:0.5;"/></marker><marker id="markerEnd" style="overflow:visible;"><circle cx="0" cy="0" r="0.8" style="stroke:none;fill:blue;fill-opacity:0.5;"><animate attributeName="opacity" from="1" to="0" dur="3s" repeatCount="indefinite" /></circle></marker></defs><path d="M50.94,13.17c0.48,0.2-0.44,3.56-0.74,4.15c-1.95,3.93-3.95,9.27-8.56,14.43" class="grey" /><path d="M27,32.23c0.8,1.43,1.98,2.49,1.98,4.39c0,1.9-0.04,52.32-0.04,53.28c0,0.95,0.06,2.85,0.04,4.85" class="grey" /><path d="M28.81,33.82c6.44-1.07,40.67-4.78,44.81-5.07C77.07,28.51,79,30,79.5,34.34c0.26,2.25-0.85,32.01-0.83,52.94c0,2.15,0,5.11-0.27,6.52" class="grey" /><path d="M30.23,51.23c8.02-0.29,16.03-1.04,24.02-1.63c2.42-0.18,4.82-0.35,7.12-0.52" class="grey" /><path d="M30.61,70.42c7.7-0.51,16.38-1.67,24.07-2.23c2.13-0.15,4.25-0.3,6.33-0.43" class="grey" /><path d="M29.04,92.07C39.75,91.5,64.32,88.94,76,88.94" class="grey" /><path d="M50.94,13.17c0.48,0.2-0.44,3.56-0.74,4.15c-1.95,3.93-3.95,9.27-8.56,14.43" class="stroke" stroke-dasharray="150"><animate attributeName="stroke-dashoffset" from="150" to="0" dur="1.8s" begin="0.0s" fill="freeze" /></path><path d="M27,32.23c0.8,1.43,1.98,2.49,1.98,4.39c0,1.9-0.04,52.32-0.04,53.28c0,0.95,0.06,2.85,0.04,4.85" class="stroke" stroke-dasharray="150"><set attributeName="opacity" to="0" dur="1.0s" /><animate attributeName="stroke-dashoffset" from="150" to="0" dur="1.8s" begin="1.0s" fill="freeze" /></path><path d="M28.81,33.82c6.44-1.07,40.67-4.78,44.81-5.07C77.07,28.51,79,30,79.5,34.34c0.26,2.25-0.85,32.01-0.83,52.94c0,2.15,0,5.11-0.27,6.52" class="stroke" stroke-dasharray="150"><set attributeName="opacity" to="0" dur="2.5s" /><animate attributeName="stroke-dashoffset" from="150" to="0" dur="1.8s" begin="2.5s" fill="freeze" /></path><path d="M30.23,51.23c8.02-0.29,16.03-1.04,24.02-1.63c2.42-0.18,4.82-0.35,7.12-0.52" class="stroke" stroke-dasharray="150"><set attributeName="opacity" to="0" dur="4.5s" /><animate attributeName="stroke-dashoffset" from="150" to="0" dur="1.8s" begin="4.5s" fill="freeze" /></path><path d="M30.61,70.42c7.7-0.51,16.38-1.67,24.07-2.23c2.13-0.15,4.25-0.3,6.33-0.43" class="stroke" stroke-dasharray="150"><set attributeName="opacity" to="0" dur="5.5s" /><animate attributeName="stroke-dashoffset" from="150" to="0" dur="1.8s" begin="5.5s" fill="freeze" /></path><path d="M29.04,92.07C39.75,91.5,64.32,88.94,76,88.94" class="stroke" stroke-dasharray="150"><set attributeName="opacity" to="0" dur="6.5s" /><animate attributeName="stroke-dashoffset" from="150" to="0" dur="1.8s" begin="6.5s" fill="freeze" /></path></svg>