<svg id="kvg-081e3-HzFst" class="kanjivg" viewBox="0 0 106 106" width="106" height="106" xmlns="http://www.w3.org/2000/svg" xmlns:xlink="http://www.w3.org/1999/xlink" xml:space="preserve" version="1.1" baseProfile="full"><defs><style type="text/css">path.black{fill:none;stroke:black;stroke-width:5;stroke-linecap:round;stroke-linejoin:round;}path.grey{fill:none;stroke:#ddd;stroke-width:5;stroke-linecap:round;stroke-linejoin:round;}path.stroke{fill:none;stroke:black;stroke-width:5;stroke-linecap:round;stroke-linejoin:round;}text{font-size:16px;font-family:Segoe UI Symbol,Cambria Math,DejaVu Sans,Symbola,Quivira,STIX,Code2000;-webkit-touch-callout:none;cursor:pointer;-webkit-user-select:none;-khtml-user-select:none;-moz-user-select:none;-ms-user-select:none;user-select: none;}text:hover{color:#777;}#reset{font-weight:bold;}</style><marker id="markerStart" markerWidth="8" markerHeight="8" style="overflow:visible;"><circle cx="0" cy="0" r="1.5" style="stroke:none;fill:red;fill-opacity:0.5;"/></marker><marker id="markerEnd" style="overflow:visible;"><circle cx="0" cy="0" r="0.8" style="stroke:none;fill:blue;fill-opacity:0.5;"><animate attributeName="opacity" from="1" to="0" dur="3s" repeatCount="indefinite" /></circle></marker></defs><path d="M26.07,18.74C33.25,18,66,15.25,82.69,14.51c2.53-0.11,4.05-0.24,5.31,0.03" class="grey" /><path d="M23.87,16.25c1.09,0.5,1.74,2.25,1.96,3.25c0.22,1,0,72.25-0.22,78.5" class="grey" /><path d="M53.87,16.75c1.09,0.5,1.74,2.25,1.96,3.25c0.22,1,0.14,13.5-0.08,19.75" class="grey" /><path d="M26.5,42.75c17.19-1.84,39.82-3.74,51.75-5c4.83-0.51,6.17,1.56,5.5,4.25c-1.22,4.88-3.01,11.88-4.25,17.75" class="grey" /><path d="M26.57,65.24c7.18-0.74,48.68-3.74,55.43-4.2" class="grey" /><path d="M54.62,63.5c1.09,0.5,1.74,2.25,1.96,3.25c0.22,1,0.14,18-0.08,24.25" class="grey" /><path d="M26.07,93.74C33.25,93,71,90.75,87.69,90.01c2.53-0.11,4.05-0.24,5.31,0.03" class="grey" /><path d="M26.07,18.74C33.25,18,66,15.25,82.69,14.51c2.53-0.11,4.05-0.24,5.31,0.03" class="stroke" stroke-dasharray="150"><animate attributeName="stroke-dashoffset" from="150" to="0" dur="1.8s" begin="0.0s" fill="freeze" /></path><path d="M23.87,16.25c1.09,0.5,1.74,2.25,1.96,3.25c0.22,1,0,72.25-0.22,78.5" class="stroke" stroke-dasharray="150"><set attributeName="opacity" to="0" dur="1.5s" /><animate attributeName="stroke-dashoffset" from="150" to="0" dur="1.8s" begin="1.5s" fill="freeze" /></path><path d="M53.87,16.75c1.09,0.5,1.74,2.25,1.96,3.25c0.22,1,0.14,13.5-0.08,19.75" class="stroke" stroke-dasharray="150"><set attributeName="opacity" to="0" dur="3.2s" /><animate attributeName="stroke-dashoffset" from="150" to="0" dur="1.8s" begin="3.2s" fill="freeze" /></path><path d="M26.5,42.75c17.19-1.84,39.82-3.74,51.75-5c4.83-0.51,6.17,1.56,5.5,4.25c-1.22,4.88-3.01,11.88-4.25,17.75" class="stroke" stroke-dasharray="150"><set attributeName="opacity" to="0" dur="4.2s" /><animate attributeName="stroke-dashoffset" from="150" to="0" dur="1.8s" begin="4.2s" fill="freeze" /></path><path d="M26.57,65.24c7.18-0.74,48.68-3.74,55.43-4.2" class="stroke" stroke-dasharray="150"><set attributeName="opacity" to="0" dur="5.9s" /><animate attributeName="stroke-dashoffset" from="150" to="0" dur="1.8s" begin="5.9s" fill="freeze" /></path><path d="M54.62,63.5c1.09,0.5,1.74,2.25,1.96,3.25c0.22,1,0.14,18-0.08,24.25" class="stroke" stroke-dasharray="150"><set attributeName="opacity" to="0" dur="7.300000000000001s" /><animate attributeName="stroke-dashoffset" from="150" to="0" dur="1.8s" begin="7.300000000000001s" fill="freeze" /></path><path d="M26.07,93.74C33.25,93,71,90.75,87.69,90.01c2.53-0.11,4.05-0.24,5.31,0.03" class="stroke" stroke-dasharray="150"><set attributeName="opacity" to="0" dur="8.3s" /><animate attributeName="stroke-dashoffset" from="150" to="0" dur="1.8s" begin="8.3s" fill="freeze" /></path></svg>