<svg id="kvg-081f3-VtFst" class="kanjivg" viewBox="0 0 106 106" width="106" height="106" xmlns="http://www.w3.org/2000/svg" xmlns:xlink="http://www.w3.org/1999/xlink" xml:space="preserve" version="1.1" baseProfile="full"><defs><style type="text/css">path.black{fill:none;stroke:black;stroke-width:5;stroke-linecap:round;stroke-linejoin:round;}path.grey{fill:none;stroke:#ddd;stroke-width:5;stroke-linecap:round;stroke-linejoin:round;}path.stroke{fill:none;stroke:black;stroke-width:5;stroke-linecap:round;stroke-linejoin:round;}text{font-size:16px;font-family:Segoe UI Symbol,Cambria Math,DejaVu Sans,Symbola,Quivira,STIX,Code2000;-webkit-touch-callout:none;cursor:pointer;-webkit-user-select:none;-khtml-user-select:none;-moz-user-select:none;-ms-user-select:none;user-select: none;}text:hover{color:#777;}#reset{font-weight:bold;}</style><marker id="markerStart" markerWidth="8" markerHeight="8" style="overflow:visible;"><circle cx="0" cy="0" r="1.5" style="stroke:none;fill:red;fill-opacity:0.5;"/></marker><marker id="markerEnd" style="overflow:visible;"><circle cx="0" cy="0" r="0.8" style="stroke:none;fill:blue;fill-opacity:0.5;"><animate attributeName="opacity" from="1" to="0" dur="3s" repeatCount="indefinite" /></circle></marker></defs><path d="M23.6,21.38c1.02,0.37,2.89,0.44,3.9,0.37c14-1,35.5-4,52.56-4.46c1.7-0.05,2.72,0.18,3.57,0.36" class="grey" /><path d="M47.39,23.25c0.6,0.52,0.81,2.14,0.36,2.75C42.5,33,38.25,37.5,31,44.25c-2.34,2.17-2.5,3.64,1.25,3c8.75-1.5,29.25-5.5,43.04-7.97" class="grey" /><path d="M67.5,30.75C72.53,33.62,80.49,42.54,81.75,47" class="grey" /><path d="M52.42,46.12c0.12,0.23,1.81,1.21,1.77,2.69C54,57.25,54.75,85.59,54.75,88" class="grey" /><path d="M30.63,68.45c0.98,0.3,2.78,0.38,3.76,0.3C44.5,68,66.5,65.77,75.69,65.77c1.64,0,2.62,0.14,3.43,0.3" class="grey" /><path d="M15.38,90.86c1.52,0.43,4.31,0.55,5.82,0.43c22.3-1.79,40.03-3.53,69.11-3.65c2.53-0.01,4.05,0.2,5.31,0.42" class="grey" /><path d="M23.6,21.38c1.02,0.37,2.89,0.44,3.9,0.37c14-1,35.5-4,52.56-4.46c1.7-0.05,2.72,0.18,3.57,0.36" class="stroke" stroke-dasharray="150"><animate attributeName="stroke-dashoffset" from="150" to="0" dur="1.8s" begin="0.0s" fill="freeze" /></path><path d="M47.39,23.25c0.6,0.52,0.81,2.14,0.36,2.75C42.5,33,38.25,37.5,31,44.25c-2.34,2.17-2.5,3.64,1.25,3c8.75-1.5,29.25-5.5,43.04-7.97" class="stroke" stroke-dasharray="150"><set attributeName="opacity" to="0" dur="1.5s" /><animate attributeName="stroke-dashoffset" from="150" to="0" dur="1.8s" begin="1.5s" fill="freeze" /></path><path d="M67.5,30.75C72.53,33.62,80.49,42.54,81.75,47" class="stroke" stroke-dasharray="150"><set attributeName="opacity" to="0" dur="3.2s" /><animate attributeName="stroke-dashoffset" from="150" to="0" dur="1.8s" begin="3.2s" fill="freeze" /></path><path d="M52.42,46.12c0.12,0.23,1.81,1.21,1.77,2.69C54,57.25,54.75,85.59,54.75,88" class="stroke" stroke-dasharray="150"><set attributeName="opacity" to="0" dur="4.2s" /><animate attributeName="stroke-dashoffset" from="150" to="0" dur="1.8s" begin="4.2s" fill="freeze" /></path><path d="M30.63,68.45c0.98,0.3,2.78,0.38,3.76,0.3C44.5,68,66.5,65.77,75.69,65.77c1.64,0,2.62,0.14,3.43,0.3" class="stroke" stroke-dasharray="150"><set attributeName="opacity" to="0" dur="5.300000000000001s" /><animate attributeName="stroke-dashoffset" from="150" to="0" dur="1.8s" begin="5.300000000000001s" fill="freeze" /></path><path d="M15.38,90.86c1.52,0.43,4.31,0.55,5.82,0.43c22.3-1.79,40.03-3.53,69.11-3.65c2.53-0.01,4.05,0.2,5.31,0.42" class="stroke" stroke-dasharray="150"><set attributeName="opacity" to="0" dur="6.500000000000001s" /><animate attributeName="stroke-dashoffset" from="150" to="0" dur="1.8s" begin="6.500000000000001s" fill="freeze" /></path></svg>