<svg id="kvg-081fc" class="kanjivg" viewBox="0 0 106 106" width="106" height="106" xmlns="http://www.w3.org/2000/svg" xmlns:xlink="http://www.w3.org/1999/xlink" xml:space="preserve" version="1.1" baseProfile="full"><defs><style type="text/css">path.black{fill:none;stroke:black;stroke-width:5;stroke-linecap:round;stroke-linejoin:round;}path.grey{fill:none;stroke:#ddd;stroke-width:5;stroke-linecap:round;stroke-linejoin:round;}path.stroke{fill:none;stroke:black;stroke-width:5;stroke-linecap:round;stroke-linejoin:round;}text{font-size:16px;font-family:Segoe UI Symbol,Cambria Math,DejaVu Sans,Symbola,Quivira,STIX,Code2000;-webkit-touch-callout:none;cursor:pointer;-webkit-user-select:none;-khtml-user-select:none;-moz-user-select:none;-ms-user-select:none;user-select: none;}text:hover{color:#777;}#reset{font-weight:bold;}</style><marker id="markerStart" markerWidth="8" markerHeight="8" style="overflow:visible;"><circle cx="0" cy="0" r="1.5" style="stroke:none;fill:red;fill-opacity:0.5;"/></marker><marker id="markerEnd" style="overflow:visible;"><circle cx="0" cy="0" r="0.8" style="stroke:none;fill:blue;fill-opacity:0.5;"><animate attributeName="opacity" from="1" to="0" dur="3s" repeatCount="indefinite" /></circle></marker></defs><path d="M48.55,18.21c-0.29,1.43-0.99,2.55-2.11,3.36c-6.01,5.4-12.97,10.31-23.94,15.67" class="grey" /><path d="M19.78,35.73c1.06,1.1,1.55,3.55,1.76,5.8c1.2,13.03,2.58,29.47,3.8,41.37c0.42,4.08,0.7,7.62,0.91,10.1" class="grey" /><path d="M60,31.75c2.17,0.67,4.34,0.85,6.52,0.53c4.85-0.52,14.99-1.82,18.6-2.37c3.51-0.54,4.76,0.46,4.47,4.21c-0.88,11.34-2.96,31.9-4.14,45.38c-0.42,4.83-0.76,8.68-0.95,10.75" class="grey" /><path d="M24.25,60.25c4.97-0.47,10.83-1.62,18.86-2.59c1.78-0.26,3.58-0.32,5.39-0.16" class="grey" /><path d="M60.5,57c2.17,0.49,4.34,0.59,6.51,0.31c5.46-0.5,17.62-1.86,19.24-2.06" class="grey" /><path d="M27,88.75c18.62-1.38,39.62-2.75,56.5-3.5" class="grey" /><path d="M48.55,18.21c-0.29,1.43-0.99,2.55-2.11,3.36c-6.01,5.4-12.97,10.31-23.94,15.67" class="stroke" stroke-dasharray="150"><animate attributeName="stroke-dashoffset" from="150" to="0" dur="1.8s" begin="0.0s" fill="freeze" /></path><path d="M19.78,35.73c1.06,1.1,1.55,3.55,1.76,5.8c1.2,13.03,2.58,29.47,3.8,41.37c0.42,4.08,0.7,7.62,0.91,10.1" class="stroke" stroke-dasharray="150"><set attributeName="opacity" to="0" dur="1.0s" /><animate attributeName="stroke-dashoffset" from="150" to="0" dur="1.8s" begin="1.0s" fill="freeze" /></path><path d="M60,31.75c2.17,0.67,4.34,0.85,6.52,0.53c4.85-0.52,14.99-1.82,18.6-2.37c3.51-0.54,4.76,0.46,4.47,4.21c-0.88,11.34-2.96,31.9-4.14,45.38c-0.42,4.83-0.76,8.68-0.95,10.75" class="stroke" stroke-dasharray="150"><set attributeName="opacity" to="0" dur="2.4s" /><animate attributeName="stroke-dashoffset" from="150" to="0" dur="1.8s" begin="2.4s" fill="freeze" /></path><path d="M24.25,60.25c4.97-0.47,10.83-1.62,18.86-2.59c1.78-0.26,3.58-0.32,5.39-0.16" class="stroke" stroke-dasharray="150"><set attributeName="opacity" to="0" dur="4.1s" /><animate attributeName="stroke-dashoffset" from="150" to="0" dur="1.8s" begin="4.1s" fill="freeze" /></path><path d="M60.5,57c2.17,0.49,4.34,0.59,6.51,0.31c5.46-0.5,17.62-1.86,19.24-2.06" class="stroke" stroke-dasharray="150"><set attributeName="opacity" to="0" dur="5.1s" /><animate attributeName="stroke-dashoffset" from="150" to="0" dur="1.8s" begin="5.1s" fill="freeze" /></path><path d="M27,88.75c18.62-1.38,39.62-2.75,56.5-3.5" class="stroke" stroke-dasharray="150"><set attributeName="opacity" to="0" dur="6.1s" /><animate attributeName="stroke-dashoffset" from="150" to="0" dur="1.8s" begin="6.1s" fill="freeze" /></path></svg>