<svg id="kvg-081fc-HzFst" class="kanjivg" viewBox="0 0 106 106" width="106" height="106" xmlns="http://www.w3.org/2000/svg" xmlns:xlink="http://www.w3.org/1999/xlink" xml:space="preserve" version="1.1" baseProfile="full"><defs><style type="text/css">path.black{fill:none;stroke:black;stroke-width:5;stroke-linecap:round;stroke-linejoin:round;}path.grey{fill:none;stroke:#ddd;stroke-width:5;stroke-linecap:round;stroke-linejoin:round;}path.stroke{fill:none;stroke:black;stroke-width:5;stroke-linecap:round;stroke-linejoin:round;}text{font-size:16px;font-family:Segoe UI Symbol,Cambria Math,DejaVu Sans,Symbola,Quivira,STIX,Code2000;-webkit-touch-callout:none;cursor:pointer;-webkit-user-select:none;-khtml-user-select:none;-moz-user-select:none;-ms-user-select:none;user-select: none;}text:hover{color:#777;}#reset{font-weight:bold;}</style><marker id="markerStart" markerWidth="8" markerHeight="8" style="overflow:visible;"><circle cx="0" cy="0" r="1.5" style="stroke:none;fill:red;fill-opacity:0.5;"/></marker><marker id="markerEnd" style="overflow:visible;"><circle cx="0" cy="0" r="0.8" style="stroke:none;fill:blue;fill-opacity:0.5;"><animate attributeName="opacity" from="1" to="0" dur="3s" repeatCount="indefinite" /></circle></marker></defs><path d="M47.55,17.46c0.07,0.47,0.29,1.37-0.14,1.87C41.75,26,35.15,31.95,22.25,37.25" class="grey" /><path d="M19.53,35.73c1.06,1.1,1.5,3.55,1.76,5.8c0.96,8.22,3.99,40.35,4.96,51.47" class="grey" /><path d="M23.75,60.25c5.25-0.5,19.75-2.5,21-2.5s3,0,4,0" class="grey" /><path d="M60,31.75c1.25,0.25,2.25,0.75,4,0.75s20.25-3,22.25-3.25s3.66,1.24,3.5,2.75c-1.5,14.5-3.5,42.5-5,54.5c-0.22,1.74,0,2.75-0.25,3.75" class="grey" /><path d="M60.5,56.75c1.25,0.25,2.25,0.75,4,0.75s19.75-2,21.75-2.25" class="grey" /><path d="M26.5,88.75c3.25,0,53.25-3.25,57-3.5" class="grey" /><path d="M47.55,17.46c0.07,0.47,0.29,1.37-0.14,1.87C41.75,26,35.15,31.95,22.25,37.25" class="stroke" stroke-dasharray="150"><animate attributeName="stroke-dashoffset" from="150" to="0" dur="1.8s" begin="0.0s" fill="freeze" /></path><path d="M19.53,35.73c1.06,1.1,1.5,3.55,1.76,5.8c0.96,8.22,3.99,40.35,4.96,51.47" class="stroke" stroke-dasharray="150"><set attributeName="opacity" to="0" dur="1.0s" /><animate attributeName="stroke-dashoffset" from="150" to="0" dur="1.8s" begin="1.0s" fill="freeze" /></path><path d="M23.75,60.25c5.25-0.5,19.75-2.5,21-2.5s3,0,4,0" class="stroke" stroke-dasharray="150"><set attributeName="opacity" to="0" dur="2.4s" /><animate attributeName="stroke-dashoffset" from="150" to="0" dur="1.8s" begin="2.4s" fill="freeze" /></path><path d="M60,31.75c1.25,0.25,2.25,0.75,4,0.75s20.25-3,22.25-3.25s3.66,1.24,3.5,2.75c-1.5,14.5-3.5,42.5-5,54.5c-0.22,1.74,0,2.75-0.25,3.75" class="stroke" stroke-dasharray="150"><set attributeName="opacity" to="0" dur="3.4s" /><animate attributeName="stroke-dashoffset" from="150" to="0" dur="1.8s" begin="3.4s" fill="freeze" /></path><path d="M60.5,56.75c1.25,0.25,2.25,0.75,4,0.75s19.75-2,21.75-2.25" class="stroke" stroke-dasharray="150"><set attributeName="opacity" to="0" dur="5.2s" /><animate attributeName="stroke-dashoffset" from="150" to="0" dur="1.8s" begin="5.2s" fill="freeze" /></path><path d="M26.5,88.75c3.25,0,53.25-3.25,57-3.5" class="stroke" stroke-dasharray="150"><set attributeName="opacity" to="0" dur="6.2s" /><animate attributeName="stroke-dashoffset" from="150" to="0" dur="1.8s" begin="6.2s" fill="freeze" /></path></svg>