<svg id="kvg-0820c" class="kanjivg" viewBox="0 0 106 106" width="106" height="106" xmlns="http://www.w3.org/2000/svg" xmlns:xlink="http://www.w3.org/1999/xlink" xml:space="preserve" version="1.1" baseProfile="full"><defs><style type="text/css">path.black{fill:none;stroke:black;stroke-width:5;stroke-linecap:round;stroke-linejoin:round;}path.grey{fill:none;stroke:#ddd;stroke-width:5;stroke-linecap:round;stroke-linejoin:round;}path.stroke{fill:none;stroke:black;stroke-width:5;stroke-linecap:round;stroke-linejoin:round;}text{font-size:16px;font-family:Segoe UI Symbol,Cambria Math,DejaVu Sans,Symbola,Quivira,STIX,Code2000;-webkit-touch-callout:none;cursor:pointer;-webkit-user-select:none;-khtml-user-select:none;-moz-user-select:none;-ms-user-select:none;user-select: none;}text:hover{color:#777;}#reset{font-weight:bold;}</style><marker id="markerStart" markerWidth="8" markerHeight="8" style="overflow:visible;"><circle cx="0" cy="0" r="1.5" style="stroke:none;fill:red;fill-opacity:0.5;"/></marker><marker id="markerEnd" style="overflow:visible;"><circle cx="0" cy="0" r="0.8" style="stroke:none;fill:blue;fill-opacity:0.5;"><animate attributeName="opacity" from="1" to="0" dur="3s" repeatCount="indefinite" /></circle></marker></defs><path d="M67.12,11.5c-0.25,1.12-1,2.25-2.27,3.11c-5.1,3.46-18.98,9.89-37.47,15.41" class="grey" /><path d="M14.63,48.81c1.8,0.41,6.32,0.64,8.09,0.41c17.66-2.34,47.03-6.22,66.36-6.71c3-0.08,4.8,0.19,6.3,0.4" class="grey" /><path d="M52.56,25.26c1.21,1.21,1.76,2.99,1.76,4.58c0,4.28,0,29.41,0,38.91" class="grey" /><path d="M30,70.75c1.5,0.88,2.12,2.25,2.52,3.74c1.31,4.92,3.49,13.03,4.85,20.03c0.32,1.67,0.62,3.26,0.88,4.73" class="grey" /><path d="M32.66,71.83c13.59-1.45,36.19-3.69,44.96-4.34c3.2-0.24,4.13,2.41,3.67,3.81c-1.9,5.78-5.62,13.76-8.44,21.75" class="grey" /><path d="M38.42,96.91c9.19-0.66,22.7-1.91,32.12-2.51c1.48-0.1,2.98-0.25,4.51-0.37" class="grey" /><path d="M67.12,11.5c-0.25,1.12-1,2.25-2.27,3.11c-5.1,3.46-18.98,9.89-37.47,15.41" class="stroke" stroke-dasharray="150"><animate attributeName="stroke-dashoffset" from="150" to="0" dur="1.8s" begin="0.0s" fill="freeze" /></path><path d="M14.63,48.81c1.8,0.41,6.32,0.64,8.09,0.41c17.66-2.34,47.03-6.22,66.36-6.71c3-0.08,4.8,0.19,6.3,0.4" class="stroke" stroke-dasharray="150"><set attributeName="opacity" to="0" dur="1.1s" /><animate attributeName="stroke-dashoffset" from="150" to="0" dur="1.8s" begin="1.1s" fill="freeze" /></path><path d="M52.56,25.26c1.21,1.21,1.76,2.99,1.76,4.58c0,4.28,0,29.41,0,38.91" class="stroke" stroke-dasharray="150"><set attributeName="opacity" to="0" dur="2.8s" /><animate attributeName="stroke-dashoffset" from="150" to="0" dur="1.8s" begin="2.8s" fill="freeze" /></path><path d="M30,70.75c1.5,0.88,2.12,2.25,2.52,3.74c1.31,4.92,3.49,13.03,4.85,20.03c0.32,1.67,0.62,3.26,0.88,4.73" class="stroke" stroke-dasharray="150"><set attributeName="opacity" to="0" dur="3.9s" /><animate attributeName="stroke-dashoffset" from="150" to="0" dur="1.8s" begin="3.9s" fill="freeze" /></path><path d="M32.66,71.83c13.59-1.45,36.19-3.69,44.96-4.34c3.2-0.24,4.13,2.41,3.67,3.81c-1.9,5.78-5.62,13.76-8.44,21.75" class="stroke" stroke-dasharray="150"><set attributeName="opacity" to="0" dur="4.9s" /><animate attributeName="stroke-dashoffset" from="150" to="0" dur="1.8s" begin="4.9s" fill="freeze" /></path><path d="M38.42,96.91c9.19-0.66,22.7-1.91,32.12-2.51c1.48-0.1,2.98-0.25,4.51-0.37" class="stroke" stroke-dasharray="150"><set attributeName="opacity" to="0" dur="6.6000000000000005s" /><animate attributeName="stroke-dashoffset" from="150" to="0" dur="1.8s" begin="6.6000000000000005s" fill="freeze" /></path></svg>