<svg id="kvg-0821b" class="kanjivg" viewBox="0 0 106 106" width="106" height="106" xmlns="http://www.w3.org/2000/svg" xmlns:xlink="http://www.w3.org/1999/xlink" xml:space="preserve" version="1.1" baseProfile="full"><defs><style type="text/css">path.black{fill:none;stroke:black;stroke-width:5;stroke-linecap:round;stroke-linejoin:round;}path.grey{fill:none;stroke:#ddd;stroke-width:5;stroke-linecap:round;stroke-linejoin:round;}path.stroke{fill:none;stroke:black;stroke-width:5;stroke-linecap:round;stroke-linejoin:round;}text{font-size:16px;font-family:Segoe UI Symbol,Cambria Math,DejaVu Sans,Symbola,Quivira,STIX,Code2000;-webkit-touch-callout:none;cursor:pointer;-webkit-user-select:none;-khtml-user-select:none;-moz-user-select:none;-ms-user-select:none;user-select: none;}text:hover{color:#777;}#reset{font-weight:bold;}</style><marker id="markerStart" markerWidth="8" markerHeight="8" style="overflow:visible;"><circle cx="0" cy="0" r="1.5" style="stroke:none;fill:red;fill-opacity:0.5;"/></marker><marker id="markerEnd" style="overflow:visible;"><circle cx="0" cy="0" r="0.8" style="stroke:none;fill:blue;fill-opacity:0.5;"><animate attributeName="opacity" from="1" to="0" dur="3s" repeatCount="indefinite" /></circle></marker></defs><path d="M34.85,16.64c0,1.36-0.09,2.39-0.57,3.75C30.5,31,24.25,44.75,13.08,57.56" class="grey" /><path d="M34.91,28.11c1.45,0.43,2.89,0.46,4.34,0.1c2.82-0.38,5.86-0.9,9.26-1.8c4.34-1.14,5.7,0.58,4.27,4.66C42.88,59.25,28.38,81,10,91" class="grey" /><path d="M24.46,48.93c3.63,2.1,9.14,8.39,10.05,11.66" class="grey" /><path d="M58.25,36.64c2.47,0.54,4.88,0.26,7.39-0.1c6.64-0.96,12.86-1.79,22.74-2.79c2.31-0.23,4.6-0.16,6.88,0.26" class="grey" /><path d="M59,45c0.62,1.5,0.51,3.31,0,5c-0.64,2.13-1.86,8.14-2.64,10.75c-0.98,3.24-0.69,3.82,2.51,3.24c10.39-1.91,28.87-2.97,33.63-3.2c2.93-0.15,5.85,0.09,8.75,0.71" class="grey" /><path d="M78.62,12.25c1,1,1.21,2.5,1.21,3.75c0,0.81,0.02,47.89,0.03,70.63c0,6.01,0,10.32,0,11.62" class="grey" /><path d="M34.85,16.64c0,1.36-0.09,2.39-0.57,3.75C30.5,31,24.25,44.75,13.08,57.56" class="stroke" stroke-dasharray="150"><animate attributeName="stroke-dashoffset" from="150" to="0" dur="1.8s" begin="0.0s" fill="freeze" /></path><path d="M34.91,28.11c1.45,0.43,2.89,0.46,4.34,0.1c2.82-0.38,5.86-0.9,9.26-1.8c4.34-1.14,5.7,0.58,4.27,4.66C42.88,59.25,28.38,81,10,91" class="stroke" stroke-dasharray="150"><set attributeName="opacity" to="0" dur="1.2s" /><animate attributeName="stroke-dashoffset" from="150" to="0" dur="1.8s" begin="1.2s" fill="freeze" /></path><path d="M24.46,48.93c3.63,2.1,9.14,8.39,10.05,11.66" class="stroke" stroke-dasharray="150"><set attributeName="opacity" to="0" dur="3.0s" /><animate attributeName="stroke-dashoffset" from="150" to="0" dur="1.8s" begin="3.0s" fill="freeze" /></path><path d="M58.25,36.64c2.47,0.54,4.88,0.26,7.39-0.1c6.64-0.96,12.86-1.79,22.74-2.79c2.31-0.23,4.6-0.16,6.88,0.26" class="stroke" stroke-dasharray="150"><set attributeName="opacity" to="0" dur="3.9s" /><animate attributeName="stroke-dashoffset" from="150" to="0" dur="1.8s" begin="3.9s" fill="freeze" /></path><path d="M59,45c0.62,1.5,0.51,3.31,0,5c-0.64,2.13-1.86,8.14-2.64,10.75c-0.98,3.24-0.69,3.82,2.51,3.24c10.39-1.91,28.87-2.97,33.63-3.2c2.93-0.15,5.85,0.09,8.75,0.71" class="stroke" stroke-dasharray="150"><set attributeName="opacity" to="0" dur="4.9s" /><animate attributeName="stroke-dashoffset" from="150" to="0" dur="1.8s" begin="4.9s" fill="freeze" /></path><path d="M78.62,12.25c1,1,1.21,2.5,1.21,3.75c0,0.81,0.02,47.89,0.03,70.63c0,6.01,0,10.32,0,11.62" class="stroke" stroke-dasharray="150"><set attributeName="opacity" to="0" dur="6.4s" /><animate attributeName="stroke-dashoffset" from="150" to="0" dur="1.8s" begin="6.4s" fill="freeze" /></path></svg>