<svg id="kvg-0821f" class="kanjivg" viewBox="0 0 106 106" width="106" height="106" xmlns="http://www.w3.org/2000/svg" xmlns:xlink="http://www.w3.org/1999/xlink" xml:space="preserve" version="1.1" baseProfile="full"><defs><style type="text/css">path.black{fill:none;stroke:black;stroke-width:5;stroke-linecap:round;stroke-linejoin:round;}path.grey{fill:none;stroke:#ddd;stroke-width:5;stroke-linecap:round;stroke-linejoin:round;}path.stroke{fill:none;stroke:black;stroke-width:5;stroke-linecap:round;stroke-linejoin:round;}text{font-size:16px;font-family:Segoe UI Symbol,Cambria Math,DejaVu Sans,Symbola,Quivira,STIX,Code2000;-webkit-touch-callout:none;cursor:pointer;-webkit-user-select:none;-khtml-user-select:none;-moz-user-select:none;-ms-user-select:none;user-select: none;}text:hover{color:#777;}#reset{font-weight:bold;}</style><marker id="markerStart" markerWidth="8" markerHeight="8" style="overflow:visible;"><circle cx="0" cy="0" r="1.5" style="stroke:none;fill:red;fill-opacity:0.5;"/></marker><marker id="markerEnd" style="overflow:visible;"><circle cx="0" cy="0" r="0.8" style="stroke:none;fill:blue;fill-opacity:0.5;"><animate attributeName="opacity" from="1" to="0" dur="3s" repeatCount="indefinite" /></circle></marker></defs><path d="M52.5,10.42c0.25,0.83,0,2.05-0.67,3.25C50,17,49,19.25,47,22" class="grey" /><path d="M35.83,24.67c0.94,0.94,1.36,2.46,1.42,4.58c1,35.5-0.75,55.25-9.25,66.42" class="grey" /><path d="M38,26.33c1.22-0.12,2.76-0.28,4.52-0.48c8.3-0.95,21.26-2.63,26.48-3.18c6.33-0.67,6,1.33,6,3.67s-0.67,61-0.67,64.33c0,9.33-9,2-10.33,1.33" class="grey" /><path d="M51.67,35.75c1.58,1.25,5.67,8.33,6,10.67" class="grey" /><path d="M52.92,58.67c1.08,1.08,1.5,2.67,1.5,4c0,1.84-0.02,8.37-0.03,13.08c0,1.89-0.01,3.48-0.01,4.38" class="grey" /><path d="M12.92,58.58c4.43,0.89,8.04,0.66,12.48,0.09c16.73-2.17,44.1-4.8,60.35-5.84c3.67-0.24,7.74-0.14,11.34,0.75" class="grey" /><path d="M52.5,10.42c0.25,0.83,0,2.05-0.67,3.25C50,17,49,19.25,47,22" class="stroke" stroke-dasharray="150"><animate attributeName="stroke-dashoffset" from="150" to="0" dur="1.8s" begin="0.0s" fill="freeze" /></path><path d="M35.83,24.67c0.94,0.94,1.36,2.46,1.42,4.58c1,35.5-0.75,55.25-9.25,66.42" class="stroke" stroke-dasharray="150"><set attributeName="opacity" to="0" dur="0.9s" /><animate attributeName="stroke-dashoffset" from="150" to="0" dur="1.8s" begin="0.9s" fill="freeze" /></path><path d="M38,26.33c1.22-0.12,2.76-0.28,4.52-0.48c8.3-0.95,21.26-2.63,26.48-3.18c6.33-0.67,6,1.33,6,3.67s-0.67,61-0.67,64.33c0,9.33-9,2-10.33,1.33" class="stroke" stroke-dasharray="150"><set attributeName="opacity" to="0" dur="2.6s" /><animate attributeName="stroke-dashoffset" from="150" to="0" dur="1.8s" begin="2.6s" fill="freeze" /></path><path d="M51.67,35.75c1.58,1.25,5.67,8.33,6,10.67" class="stroke" stroke-dasharray="150"><set attributeName="opacity" to="0" dur="4.6s" /><animate attributeName="stroke-dashoffset" from="150" to="0" dur="1.8s" begin="4.6s" fill="freeze" /></path><path d="M52.92,58.67c1.08,1.08,1.5,2.67,1.5,4c0,1.84-0.02,8.37-0.03,13.08c0,1.89-0.01,3.48-0.01,4.38" class="stroke" stroke-dasharray="150"><set attributeName="opacity" to="0" dur="5.5s" /><animate attributeName="stroke-dashoffset" from="150" to="0" dur="1.8s" begin="5.5s" fill="freeze" /></path><path d="M12.92,58.58c4.43,0.89,8.04,0.66,12.48,0.09c16.73-2.17,44.1-4.8,60.35-5.84c3.67-0.24,7.74-0.14,11.34,0.75" class="stroke" stroke-dasharray="150"><set attributeName="opacity" to="0" dur="6.5s" /><animate attributeName="stroke-dashoffset" from="150" to="0" dur="1.8s" begin="6.5s" fill="freeze" /></path></svg>