<svg id="kvg-0826e-Kaisho" class="kanjivg" viewBox="0 0 106 106" width="106" height="106" xmlns="http://www.w3.org/2000/svg" xmlns:xlink="http://www.w3.org/1999/xlink" xml:space="preserve" version="1.1" baseProfile="full"><defs><style type="text/css">path.black{fill:none;stroke:black;stroke-width:5;stroke-linecap:round;stroke-linejoin:round;}path.grey{fill:none;stroke:#ddd;stroke-width:5;stroke-linecap:round;stroke-linejoin:round;}path.stroke{fill:none;stroke:black;stroke-width:5;stroke-linecap:round;stroke-linejoin:round;}text{font-size:16px;font-family:Segoe UI Symbol,Cambria Math,DejaVu Sans,Symbola,Quivira,STIX,Code2000;-webkit-touch-callout:none;cursor:pointer;-webkit-user-select:none;-khtml-user-select:none;-moz-user-select:none;-ms-user-select:none;user-select: none;}text:hover{color:#777;}#reset{font-weight:bold;}</style><marker id="markerStart" markerWidth="8" markerHeight="8" style="overflow:visible;"><circle cx="0" cy="0" r="1.5" style="stroke:none;fill:red;fill-opacity:0.5;"/></marker><marker id="markerEnd" style="overflow:visible;"><circle cx="0" cy="0" r="0.8" style="stroke:none;fill:blue;fill-opacity:0.5;"><animate attributeName="opacity" from="1" to="0" dur="3s" repeatCount="indefinite" /></circle></marker></defs><path d="M33.03,18.35c5.72-0.85,32.08-4.32,34.7-4.48c2.18-0.14,3.43,1.5,3.41,2.32C71,22,68,43,66.75,47" class="grey" /><path d="M33.25,32.5c6-0.54,11.99-1.27,17.98-1.93c1.79-0.2,3.58-0.4,5.31-0.58" class="grey" /><path d="M33.86,48.04C43.75,47,56.25,45.5,67,44.5" class="grey" /><path d="M30.01,14.87c1.63,0.65,2.61,2.94,2.94,4.25c0.33,1.31,0.69,68.74,0.33,71.99c-0.33,2.94-1.44,7.49,2.48,5.2c3.92-2.29,14.17-10.45,17.44-13.39" class="grey" /><path d="M74.01,50.17c0.33,1.63,0.25,2.88-0.85,4.09c-2.92,3.23-7.73,7.95-10.67,10.23" class="grey" /><path d="M42.35,53.57c5.83,0,36.38,30.25,41.15,32.51c6.86,3.25,7.88,3.25,11.31,3.97" class="grey" /><path d="M33.03,18.35c5.72-0.85,32.08-4.32,34.7-4.48c2.18-0.14,3.43,1.5,3.41,2.32C71,22,68,43,66.75,47" class="stroke" stroke-dasharray="150"><animate attributeName="stroke-dashoffset" from="150" to="0" dur="1.8s" begin="0.0s" fill="freeze" /></path><path d="M33.25,32.5c6-0.54,11.99-1.27,17.98-1.93c1.79-0.2,3.58-0.4,5.31-0.58" class="stroke" stroke-dasharray="150"><set attributeName="opacity" to="0" dur="1.7s" /><animate attributeName="stroke-dashoffset" from="150" to="0" dur="1.8s" begin="1.7s" fill="freeze" /></path><path d="M33.86,48.04C43.75,47,56.25,45.5,67,44.5" class="stroke" stroke-dasharray="150"><set attributeName="opacity" to="0" dur="2.7s" /><animate attributeName="stroke-dashoffset" from="150" to="0" dur="1.8s" begin="2.7s" fill="freeze" /></path><path d="M30.01,14.87c1.63,0.65,2.61,2.94,2.94,4.25c0.33,1.31,0.69,68.74,0.33,71.99c-0.33,2.94-1.44,7.49,2.48,5.2c3.92-2.29,14.17-10.45,17.44-13.39" class="stroke" stroke-dasharray="150"><set attributeName="opacity" to="0" dur="3.7s" /><animate attributeName="stroke-dashoffset" from="150" to="0" dur="1.8s" begin="3.7s" fill="freeze" /></path><path d="M74.01,50.17c0.33,1.63,0.25,2.88-0.85,4.09c-2.92,3.23-7.73,7.95-10.67,10.23" class="stroke" stroke-dasharray="150"><set attributeName="opacity" to="0" dur="5.6s" /><animate attributeName="stroke-dashoffset" from="150" to="0" dur="1.8s" begin="5.6s" fill="freeze" /></path><path d="M42.35,53.57c5.83,0,36.38,30.25,41.15,32.51c6.86,3.25,7.88,3.25,11.31,3.97" class="stroke" stroke-dasharray="150"><set attributeName="opacity" to="0" dur="6.5s" /><animate attributeName="stroke-dashoffset" from="150" to="0" dur="1.8s" begin="6.5s" fill="freeze" /></path></svg>