<svg id="kvg-08278" class="kanjivg" viewBox="0 0 106 106" width="106" height="106" xmlns="http://www.w3.org/2000/svg" xmlns:xlink="http://www.w3.org/1999/xlink" xml:space="preserve" version="1.1" baseProfile="full"><defs><style type="text/css">path.black{fill:none;stroke:black;stroke-width:5;stroke-linecap:round;stroke-linejoin:round;}path.grey{fill:none;stroke:#ddd;stroke-width:5;stroke-linecap:round;stroke-linejoin:round;}path.stroke{fill:none;stroke:black;stroke-width:5;stroke-linecap:round;stroke-linejoin:round;}text{font-size:16px;font-family:Segoe UI Symbol,Cambria Math,DejaVu Sans,Symbola,Quivira,STIX,Code2000;-webkit-touch-callout:none;cursor:pointer;-webkit-user-select:none;-khtml-user-select:none;-moz-user-select:none;-ms-user-select:none;user-select: none;}text:hover{color:#777;}#reset{font-weight:bold;}</style><marker id="markerStart" markerWidth="8" markerHeight="8" style="overflow:visible;"><circle cx="0" cy="0" r="1.5" style="stroke:none;fill:red;fill-opacity:0.5;"/></marker><marker id="markerEnd" style="overflow:visible;"><circle cx="0" cy="0" r="0.8" style="stroke:none;fill:blue;fill-opacity:0.5;"><animate attributeName="opacity" from="1" to="0" dur="3s" repeatCount="indefinite" /></circle></marker></defs><path d="M16.85,35.91c0.9,0.46,2.3,1.71,2.3,4.41c0,3.13-0.15,17.8-0.65,23.3c-0.26,2.84-0.98,4.69,3.31,4.16c8.44-1.03,14.44-2.16,25.7-3.42" class="grey" /><path d="M46.73,34.5c0.77,0.62,1.8,2.25,1.8,3.91c0,5.98-0.29,18.71-1.23,29.08" class="grey" /><path d="M33.22,14.87c0.71,0.87,1.36,2.61,1.36,4.02c0,12.12,0.03,16.43-0.11,27.74C34.23,66.82,30,85.24,17.81,94.34" class="grey" /><path d="M58.35,34.16c0.9,0.46,2.3,1.71,2.3,4.41c0,3.13-0.15,17.8-0.65,23.3c-0.26,2.84-0.98,4.69,3.31,4.16c8.44-1.03,17.94-2.16,29.2-3.42" class="grey" /><path d="M91.23,31.75c0.77,0.62,1.8,2.62,1.8,3.91c0,6.59,0.21,20.21-0.73,30.58" class="grey" /><path d="M73.54,13.62c0.89,0.87,1.7,2.61,1.7,4.02c0,12.12,0.04,68.44-0.13,79.74" class="grey" /><path d="M16.85,35.91c0.9,0.46,2.3,1.71,2.3,4.41c0,3.13-0.15,17.8-0.65,23.3c-0.26,2.84-0.98,4.69,3.31,4.16c8.44-1.03,14.44-2.16,25.7-3.42" class="stroke" stroke-dasharray="150"><animate attributeName="stroke-dashoffset" from="150" to="0" dur="1.8s" begin="0.0s" fill="freeze" /></path><path d="M46.73,34.5c0.77,0.62,1.8,2.25,1.8,3.91c0,5.98-0.29,18.71-1.23,29.08" class="stroke" stroke-dasharray="150"><set attributeName="opacity" to="0" dur="1.5s" /><animate attributeName="stroke-dashoffset" from="150" to="0" dur="1.8s" begin="1.5s" fill="freeze" /></path><path d="M33.22,14.87c0.71,0.87,1.36,2.61,1.36,4.02c0,12.12,0.03,16.43-0.11,27.74C34.23,66.82,30,85.24,17.81,94.34" class="stroke" stroke-dasharray="150"><set attributeName="opacity" to="0" dur="2.5s" /><animate attributeName="stroke-dashoffset" from="150" to="0" dur="1.8s" begin="2.5s" fill="freeze" /></path><path d="M58.35,34.16c0.9,0.46,2.3,1.71,2.3,4.41c0,3.13-0.15,17.8-0.65,23.3c-0.26,2.84-0.98,4.69,3.31,4.16c8.44-1.03,17.94-2.16,29.2-3.42" class="stroke" stroke-dasharray="150"><set attributeName="opacity" to="0" dur="4.2s" /><animate attributeName="stroke-dashoffset" from="150" to="0" dur="1.8s" begin="4.2s" fill="freeze" /></path><path d="M91.23,31.75c0.77,0.62,1.8,2.62,1.8,3.91c0,6.59,0.21,20.21-0.73,30.58" class="stroke" stroke-dasharray="150"><set attributeName="opacity" to="0" dur="5.7s" /><animate attributeName="stroke-dashoffset" from="150" to="0" dur="1.8s" begin="5.7s" fill="freeze" /></path><path d="M73.54,13.62c0.89,0.87,1.7,2.61,1.7,4.02c0,12.12,0.04,68.44-0.13,79.74" class="stroke" stroke-dasharray="150"><set attributeName="opacity" to="0" dur="6.7s" /><animate attributeName="stroke-dashoffset" from="150" to="0" dur="1.8s" begin="6.7s" fill="freeze" /></path></svg>