<svg id="kvg-0864d" class="kanjivg" viewBox="0 0 106 106" width="106" height="106" xmlns="http://www.w3.org/2000/svg" xmlns:xlink="http://www.w3.org/1999/xlink" xml:space="preserve" version="1.1" baseProfile="full"><defs><style type="text/css">path.black{fill:none;stroke:black;stroke-width:5;stroke-linecap:round;stroke-linejoin:round;}path.grey{fill:none;stroke:#ddd;stroke-width:5;stroke-linecap:round;stroke-linejoin:round;}path.stroke{fill:none;stroke:black;stroke-width:5;stroke-linecap:round;stroke-linejoin:round;}text{font-size:16px;font-family:Segoe UI Symbol,Cambria Math,DejaVu Sans,Symbola,Quivira,STIX,Code2000;-webkit-touch-callout:none;cursor:pointer;-webkit-user-select:none;-khtml-user-select:none;-moz-user-select:none;-ms-user-select:none;user-select: none;}text:hover{color:#777;}#reset{font-weight:bold;}</style><marker id="markerStart" markerWidth="8" markerHeight="8" style="overflow:visible;"><circle cx="0" cy="0" r="1.5" style="stroke:none;fill:red;fill-opacity:0.5;"/></marker><marker id="markerEnd" style="overflow:visible;"><circle cx="0" cy="0" r="0.8" style="stroke:none;fill:blue;fill-opacity:0.5;"><animate attributeName="opacity" from="1" to="0" dur="3s" repeatCount="indefinite" /></circle></marker></defs><path d="M53.02,11.08C54,12,54.77,13.07,54.77,16.1c0,5.9-0.02,13.19-0.02,18.15" class="grey" /><path d="M56.35,22.77C63,22,70,20.75,75.46,20.39c1.56-0.1,2.5,0.18,3.29,0.37" class="grey" /><path d="M29.2,35.18c0.8,0.57,0.99,2.73,0.88,4.82C29,62,25.25,83.75,9.64,98.65" class="grey" /><path d="M30.24,37.24c1.16,0.19,2.75-0.06,4.64-0.22c15.62-1.27,36.87-4.27,44.31-4.18c12.07,0.14,2.55,7.16-0.45,9.28" class="grey" /><path d="M30.5,69.13c1.26,0.42,3.58,0.61,4.82,0.42c12.37-1.89,34.93-5.8,48.53-6.83c2.09-0.16,3.35,0.2,4.4,0.41" class="grey" /><path d="M52.75,45.18c0.81,1,1.63,1.67,1.9,3.01c0.27,1.34-0.15,27.31-0.15,32.31c0,14.25-0.75,16.25,15.5,16c4.36-0.07,13.75,0,17.5-2" class="grey" /><path d="M53.02,11.08C54,12,54.77,13.07,54.77,16.1c0,5.9-0.02,13.19-0.02,18.15" class="stroke" stroke-dasharray="150"><animate attributeName="stroke-dashoffset" from="150" to="0" dur="1.8s" begin="0.0s" fill="freeze" /></path><path d="M56.35,22.77C63,22,70,20.75,75.46,20.39c1.56-0.1,2.5,0.18,3.29,0.37" class="stroke" stroke-dasharray="150"><set attributeName="opacity" to="0" dur="1.0s" /><animate attributeName="stroke-dashoffset" from="150" to="0" dur="1.8s" begin="1.0s" fill="freeze" /></path><path d="M29.2,35.18c0.8,0.57,0.99,2.73,0.88,4.82C29,62,25.25,83.75,9.64,98.65" class="stroke" stroke-dasharray="150"><set attributeName="opacity" to="0" dur="2.0s" /><animate attributeName="stroke-dashoffset" from="150" to="0" dur="1.8s" begin="2.0s" fill="freeze" /></path><path d="M30.24,37.24c1.16,0.19,2.75-0.06,4.64-0.22c15.62-1.27,36.87-4.27,44.31-4.18c12.07,0.14,2.55,7.16-0.45,9.28" class="stroke" stroke-dasharray="150"><set attributeName="opacity" to="0" dur="3.5s" /><animate attributeName="stroke-dashoffset" from="150" to="0" dur="1.8s" begin="3.5s" fill="freeze" /></path><path d="M30.5,69.13c1.26,0.42,3.58,0.61,4.82,0.42c12.37-1.89,34.93-5.8,48.53-6.83c2.09-0.16,3.35,0.2,4.4,0.41" class="stroke" stroke-dasharray="150"><set attributeName="opacity" to="0" dur="5.0s" /><animate attributeName="stroke-dashoffset" from="150" to="0" dur="1.8s" begin="5.0s" fill="freeze" /></path><path d="M52.75,45.18c0.81,1,1.63,1.67,1.9,3.01c0.27,1.34-0.15,27.31-0.15,32.31c0,14.25-0.75,16.25,15.5,16c4.36-0.07,13.75,0,17.5-2" class="stroke" stroke-dasharray="150"><set attributeName="opacity" to="0" dur="6.4s" /><animate attributeName="stroke-dashoffset" from="150" to="0" dur="1.8s" begin="6.4s" fill="freeze" /></path></svg>