<svg id="kvg-08840" class="kanjivg" viewBox="0 0 106 106" width="106" height="106" xmlns="http://www.w3.org/2000/svg" xmlns:xlink="http://www.w3.org/1999/xlink" xml:space="preserve" version="1.1" baseProfile="full"><defs><style type="text/css">path.black{fill:none;stroke:black;stroke-width:5;stroke-linecap:round;stroke-linejoin:round;}path.grey{fill:none;stroke:#ddd;stroke-width:5;stroke-linecap:round;stroke-linejoin:round;}path.stroke{fill:none;stroke:black;stroke-width:5;stroke-linecap:round;stroke-linejoin:round;}text{font-size:16px;font-family:Segoe UI Symbol,Cambria Math,DejaVu Sans,Symbola,Quivira,STIX,Code2000;-webkit-touch-callout:none;cursor:pointer;-webkit-user-select:none;-khtml-user-select:none;-moz-user-select:none;-ms-user-select:none;user-select: none;}text:hover{color:#777;}#reset{font-weight:bold;}</style><marker id="markerStart" markerWidth="8" markerHeight="8" style="overflow:visible;"><circle cx="0" cy="0" r="1.5" style="stroke:none;fill:red;fill-opacity:0.5;"/></marker><marker id="markerEnd" style="overflow:visible;"><circle cx="0" cy="0" r="0.8" style="stroke:none;fill:blue;fill-opacity:0.5;"><animate attributeName="opacity" from="1" to="0" dur="3s" repeatCount="indefinite" /></circle></marker></defs><path d="M53.73,19.64c0.07,0.67-0.35,2.35-0.9,3.2C48.5,29.62,40.12,39,27.06,47.72" class="grey" /><path d="M24.01,47.03c0.99,0.72,1.64,2.36,1.79,3.28c1.2,7.33,2.2,21.15,3.02,34.33" class="grey" /><path d="M26.66,51.33c11.87-1.41,45.81-3.8,54.22-4.3c2.62-0.16,3.99,1.74,3.49,4.09c-1.86,8.75-4.61,25.38-5.9,31.64" class="grey" /><path d="M43.9,51.44c0.3,0.7,0.69,1.77,0.73,2.65c0.5,12.28,0.5,20.41,0.96,29.44" class="grey" /><path d="M62.99,49.6c0.51,1.15,0.59,2.15,0.54,2.9c-0.53,8.13-1.15,16.25-2.04,30.46" class="grey" /><path d="M9.75,85.78c2.46,0.49,6.96,0.61,9.42,0.49C45.5,85,69.12,83.62,90.53,83.33c4.09-0.06,6.55,0.24,8.59,0.48" class="grey" /><path d="M53.73,19.64c0.07,0.67-0.35,2.35-0.9,3.2C48.5,29.62,40.12,39,27.06,47.72" class="stroke" stroke-dasharray="150"><animate attributeName="stroke-dashoffset" from="150" to="0" dur="1.8s" begin="0.0s" fill="freeze" /></path><path d="M24.01,47.03c0.99,0.72,1.64,2.36,1.79,3.28c1.2,7.33,2.2,21.15,3.02,34.33" class="stroke" stroke-dasharray="150"><set attributeName="opacity" to="0" dur="1.0s" /><animate attributeName="stroke-dashoffset" from="150" to="0" dur="1.8s" begin="1.0s" fill="freeze" /></path><path d="M26.66,51.33c11.87-1.41,45.81-3.8,54.22-4.3c2.62-0.16,3.99,1.74,3.49,4.09c-1.86,8.75-4.61,25.38-5.9,31.64" class="stroke" stroke-dasharray="150"><set attributeName="opacity" to="0" dur="2.0s" /><animate attributeName="stroke-dashoffset" from="150" to="0" dur="1.8s" begin="2.0s" fill="freeze" /></path><path d="M43.9,51.44c0.3,0.7,0.69,1.77,0.73,2.65c0.5,12.28,0.5,20.41,0.96,29.44" class="stroke" stroke-dasharray="150"><set attributeName="opacity" to="0" dur="3.8s" /><animate attributeName="stroke-dashoffset" from="150" to="0" dur="1.8s" begin="3.8s" fill="freeze" /></path><path d="M62.99,49.6c0.51,1.15,0.59,2.15,0.54,2.9c-0.53,8.13-1.15,16.25-2.04,30.46" class="stroke" stroke-dasharray="150"><set attributeName="opacity" to="0" dur="4.8s" /><animate attributeName="stroke-dashoffset" from="150" to="0" dur="1.8s" begin="4.8s" fill="freeze" /></path><path d="M9.75,85.78c2.46,0.49,6.96,0.61,9.42,0.49C45.5,85,69.12,83.62,90.53,83.33c4.09-0.06,6.55,0.24,8.59,0.48" class="stroke" stroke-dasharray="150"><set attributeName="opacity" to="0" dur="5.8s" /><animate attributeName="stroke-dashoffset" from="150" to="0" dur="1.8s" begin="5.8s" fill="freeze" /></path></svg>