<svg id="kvg-08863" class="kanjivg" viewBox="0 0 106 106" width="106" height="106" xmlns="http://www.w3.org/2000/svg" xmlns:xlink="http://www.w3.org/1999/xlink" xml:space="preserve" version="1.1" baseProfile="full"><defs><style type="text/css">path.black{fill:none;stroke:black;stroke-width:5;stroke-linecap:round;stroke-linejoin:round;}path.grey{fill:none;stroke:#ddd;stroke-width:5;stroke-linecap:round;stroke-linejoin:round;}path.stroke{fill:none;stroke:black;stroke-width:5;stroke-linecap:round;stroke-linejoin:round;}text{font-size:16px;font-family:Segoe UI Symbol,Cambria Math,DejaVu Sans,Symbola,Quivira,STIX,Code2000;-webkit-touch-callout:none;cursor:pointer;-webkit-user-select:none;-khtml-user-select:none;-moz-user-select:none;-ms-user-select:none;user-select: none;}text:hover{color:#777;}#reset{font-weight:bold;}</style><marker id="markerStart" markerWidth="8" markerHeight="8" style="overflow:visible;"><circle cx="0" cy="0" r="1.5" style="stroke:none;fill:red;fill-opacity:0.5;"/></marker><marker id="markerEnd" style="overflow:visible;"><circle cx="0" cy="0" r="0.8" style="stroke:none;fill:blue;fill-opacity:0.5;"><animate attributeName="opacity" from="1" to="0" dur="3s" repeatCount="indefinite" /></circle></marker></defs><path d="M52.11,13.25c1.38,1.38,1.98,2.88,1.98,4.66c0,2.34-0.15,8.59-0.15,11.15" class="grey" /><path d="M13.25,33.11c3.25,0.64,5.81,0.6,8.88,0.32c15.74-1.42,41.74-4.55,58.12-5.85c2.9-0.23,6.38-0.33,9.5,0.33" class="grey" /><path d="M46.72,33.89c0,1.11-0.14,2.25-0.68,3.39C42.56,44.65,30,59,13.81,69.72" class="grey" /><path d="M37.5,53.75c0.88,0.88,1.25,2.12,1.25,3.5c0,11.82,0.18,31.19,0.18,33.19c0,2.81,1.01,3.02,3.31,1.05c4.38-3.74,13.64-11.39,15.47-12.76" class="grey" /><path d="M77,38.89c0.25,1.11-0.04,1.96-0.75,2.86c-3.5,4.38-8,8.25-18.19,15.22" class="grey" /><path d="M46.25,50.75c3.73,0.63,25.49,21.06,36.59,28.66c3.29,2.25,6.3,4.07,10.16,5.34" class="grey" /><path d="M52.11,13.25c1.38,1.38,1.98,2.88,1.98,4.66c0,2.34-0.15,8.59-0.15,11.15" class="stroke" stroke-dasharray="150"><animate attributeName="stroke-dashoffset" from="150" to="0" dur="1.8s" begin="0.0s" fill="freeze" /></path><path d="M13.25,33.11c3.25,0.64,5.81,0.6,8.88,0.32c15.74-1.42,41.74-4.55,58.12-5.85c2.9-0.23,6.38-0.33,9.5,0.33" class="stroke" stroke-dasharray="150"><set attributeName="opacity" to="0" dur="0.9s" /><animate attributeName="stroke-dashoffset" from="150" to="0" dur="1.8s" begin="0.9s" fill="freeze" /></path><path d="M46.72,33.89c0,1.11-0.14,2.25-0.68,3.39C42.56,44.65,30,59,13.81,69.72" class="stroke" stroke-dasharray="150"><set attributeName="opacity" to="0" dur="2.6s" /><animate attributeName="stroke-dashoffset" from="150" to="0" dur="1.8s" begin="2.6s" fill="freeze" /></path><path d="M37.5,53.75c0.88,0.88,1.25,2.12,1.25,3.5c0,11.82,0.18,31.19,0.18,33.19c0,2.81,1.01,3.02,3.31,1.05c4.38-3.74,13.64-11.39,15.47-12.76" class="stroke" stroke-dasharray="150"><set attributeName="opacity" to="0" dur="3.8s" /><animate attributeName="stroke-dashoffset" from="150" to="0" dur="1.8s" begin="3.8s" fill="freeze" /></path><path d="M77,38.89c0.25,1.11-0.04,1.96-0.75,2.86c-3.5,4.38-8,8.25-18.19,15.22" class="stroke" stroke-dasharray="150"><set attributeName="opacity" to="0" dur="5.3s" /><animate attributeName="stroke-dashoffset" from="150" to="0" dur="1.8s" begin="5.3s" fill="freeze" /></path><path d="M46.25,50.75c3.73,0.63,25.49,21.06,36.59,28.66c3.29,2.25,6.3,4.07,10.16,5.34" class="stroke" stroke-dasharray="150"><set attributeName="opacity" to="0" dur="6.3s" /><animate attributeName="stroke-dashoffset" from="150" to="0" dur="1.8s" begin="6.3s" fill="freeze" /></path></svg>