<svg id="kvg-08863-Kaisho" class="kanjivg" viewBox="0 0 106 106" width="106" height="106" xmlns="http://www.w3.org/2000/svg" xmlns:xlink="http://www.w3.org/1999/xlink" xml:space="preserve" version="1.1" baseProfile="full"><defs><style type="text/css">path.black{fill:none;stroke:black;stroke-width:5;stroke-linecap:round;stroke-linejoin:round;}path.grey{fill:none;stroke:#ddd;stroke-width:5;stroke-linecap:round;stroke-linejoin:round;}path.stroke{fill:none;stroke:black;stroke-width:5;stroke-linecap:round;stroke-linejoin:round;}text{font-size:16px;font-family:Segoe UI Symbol,Cambria Math,DejaVu Sans,Symbola,Quivira,STIX,Code2000;-webkit-touch-callout:none;cursor:pointer;-webkit-user-select:none;-khtml-user-select:none;-moz-user-select:none;-ms-user-select:none;user-select: none;}text:hover{color:#777;}#reset{font-weight:bold;}</style><marker id="markerStart" markerWidth="8" markerHeight="8" style="overflow:visible;"><circle cx="0" cy="0" r="1.5" style="stroke:none;fill:red;fill-opacity:0.5;"/></marker><marker id="markerEnd" style="overflow:visible;"><circle cx="0" cy="0" r="0.8" style="stroke:none;fill:blue;fill-opacity:0.5;"><animate attributeName="opacity" from="1" to="0" dur="3s" repeatCount="indefinite" /></circle></marker></defs><path d="M47.36,12.25c3.97,1.84,9.23,7.55,10.51,12.58" class="grey" /><path d="M13,33.11c1.42,0.1,4.67,0.65,6.06,0.55C34.5,32.5,69,27.75,84.2,27.45c2.35-0.05,3.55,0.05,5.3,0.7" class="grey" /><path d="M45.97,34.64c0.09,0.83,0.36,2.22-0.18,3.34c-3.53,7.26-15.03,20.51-32.73,31.98" class="grey" /><path d="M37.75,54.5c0.48,0.54,1,1.06,1,2c-0.03,11.82-0.32,32.19-0.32,34.19s1.18,3.14,2.68,1.64s14.35-11.84,16.35-13.34" class="grey" /><path d="M76.25,38.89c0.05,0.43,0.57,2.05,0.25,2.61c-2,3.5-8.25,8.5-18.44,15.47" class="grey" /><path d="M48.75,51.75c2,1,5.2,3.83,5.75,4.25c8.17,6.3,28.04,22.39,33.56,26.1c2.08,1.4,3.86,2,5.94,2.4" class="grey" /><path d="M47.36,12.25c3.97,1.84,9.23,7.55,10.51,12.58" class="stroke" stroke-dasharray="150"><animate attributeName="stroke-dashoffset" from="150" to="0" dur="1.8s" begin="0.0s" fill="freeze" /></path><path d="M13,33.11c1.42,0.1,4.67,0.65,6.06,0.55C34.5,32.5,69,27.75,84.2,27.45c2.35-0.05,3.55,0.05,5.3,0.7" class="stroke" stroke-dasharray="150"><set attributeName="opacity" to="0" dur="0.9s" /><animate attributeName="stroke-dashoffset" from="150" to="0" dur="1.8s" begin="0.9s" fill="freeze" /></path><path d="M45.97,34.64c0.09,0.83,0.36,2.22-0.18,3.34c-3.53,7.26-15.03,20.51-32.73,31.98" class="stroke" stroke-dasharray="150"><set attributeName="opacity" to="0" dur="2.6s" /><animate attributeName="stroke-dashoffset" from="150" to="0" dur="1.8s" begin="2.6s" fill="freeze" /></path><path d="M37.75,54.5c0.48,0.54,1,1.06,1,2c-0.03,11.82-0.32,32.19-0.32,34.19s1.18,3.14,2.68,1.64s14.35-11.84,16.35-13.34" class="stroke" stroke-dasharray="150"><set attributeName="opacity" to="0" dur="3.8s" /><animate attributeName="stroke-dashoffset" from="150" to="0" dur="1.8s" begin="3.8s" fill="freeze" /></path><path d="M76.25,38.89c0.05,0.43,0.57,2.05,0.25,2.61c-2,3.5-8.25,8.5-18.44,15.47" class="stroke" stroke-dasharray="150"><set attributeName="opacity" to="0" dur="5.3s" /><animate attributeName="stroke-dashoffset" from="150" to="0" dur="1.8s" begin="5.3s" fill="freeze" /></path><path d="M48.75,51.75c2,1,5.2,3.83,5.75,4.25c8.17,6.3,28.04,22.39,33.56,26.1c2.08,1.4,3.86,2,5.94,2.4" class="stroke" stroke-dasharray="150"><set attributeName="opacity" to="0" dur="6.3s" /><animate attributeName="stroke-dashoffset" from="150" to="0" dur="1.8s" begin="6.3s" fill="freeze" /></path></svg>