<svg id="kvg-0897f" class="kanjivg" viewBox="0 0 106 106" width="106" height="106" xmlns="http://www.w3.org/2000/svg" xmlns:xlink="http://www.w3.org/1999/xlink" xml:space="preserve" version="1.1" baseProfile="full"><defs><style type="text/css">path.black{fill:none;stroke:black;stroke-width:5;stroke-linecap:round;stroke-linejoin:round;}path.grey{fill:none;stroke:#ddd;stroke-width:5;stroke-linecap:round;stroke-linejoin:round;}path.stroke{fill:none;stroke:black;stroke-width:5;stroke-linecap:round;stroke-linejoin:round;}text{font-size:16px;font-family:Segoe UI Symbol,Cambria Math,DejaVu Sans,Symbola,Quivira,STIX,Code2000;-webkit-touch-callout:none;cursor:pointer;-webkit-user-select:none;-khtml-user-select:none;-moz-user-select:none;-ms-user-select:none;user-select: none;}text:hover{color:#777;}#reset{font-weight:bold;}</style><marker id="markerStart" markerWidth="8" markerHeight="8" style="overflow:visible;"><circle cx="0" cy="0" r="1.5" style="stroke:none;fill:red;fill-opacity:0.5;"/></marker><marker id="markerEnd" style="overflow:visible;"><circle cx="0" cy="0" r="0.8" style="stroke:none;fill:blue;fill-opacity:0.5;"><animate attributeName="opacity" from="1" to="0" dur="3s" repeatCount="indefinite" /></circle></marker></defs><path d="M20.63,24.22c2.31,0.34,6.05,0.3,8.35,0.09c15.15-1.43,36.18-3.38,49.83-4.02c3.84-0.18,6.66-0.09,8.58,0.08" class="grey" /><path d="M18.25,48.63c1.25,1.25,2.14,3.42,2.33,4.49c1.25,6.77,3.24,20.18,5.12,33.35c0.27,1.87,0.53,3.72,0.77,5.53" class="grey" /><path d="M20.75,50.26c17.77-1.6,53.73-5.05,63.68-5.27c4.51-0.1,7.27,2.79,6.55,6.54c-1.6,8.35-4.1,21.97-6.49,32.97c-0.36,1.68-0.61,2.5-1.13,4.6" class="grey" /><path d="M42.75,26.75c0.5,1.25,0.81,3.99,0.85,5.73C43.98,48.84,42,64.5,30.64,73.77" class="grey" /><path d="M60.6,24.46c0.94,1.12,1.74,2.94,1.74,4.67c0,13.33-0.45,21.61-0.45,27.37c0,10.25,0.62,11.14,11.36,11.14c6.38,0,8.94-0.54,10.55-1.53" class="grey" /><path d="M27.34,88.55C40.75,88,66.69,86.2,83,85.97" class="grey" /><path d="M20.63,24.22c2.31,0.34,6.05,0.3,8.35,0.09c15.15-1.43,36.18-3.38,49.83-4.02c3.84-0.18,6.66-0.09,8.58,0.08" class="stroke" stroke-dasharray="150"><animate attributeName="stroke-dashoffset" from="150" to="0" dur="1.8s" begin="0.0s" fill="freeze" /></path><path d="M18.25,48.63c1.25,1.25,2.14,3.42,2.33,4.49c1.25,6.77,3.24,20.18,5.12,33.35c0.27,1.87,0.53,3.72,0.77,5.53" class="stroke" stroke-dasharray="150"><set attributeName="opacity" to="0" dur="1.5s" /><animate attributeName="stroke-dashoffset" from="150" to="0" dur="1.8s" begin="1.5s" fill="freeze" /></path><path d="M20.75,50.26c17.77-1.6,53.73-5.05,63.68-5.27c4.51-0.1,7.27,2.79,6.55,6.54c-1.6,8.35-4.1,21.97-6.49,32.97c-0.36,1.68-0.61,2.5-1.13,4.6" class="stroke" stroke-dasharray="150"><set attributeName="opacity" to="0" dur="2.6s" /><animate attributeName="stroke-dashoffset" from="150" to="0" dur="1.8s" begin="2.6s" fill="freeze" /></path><path d="M42.75,26.75c0.5,1.25,0.81,3.99,0.85,5.73C43.98,48.84,42,64.5,30.64,73.77" class="stroke" stroke-dasharray="150"><set attributeName="opacity" to="0" dur="4.6s" /><animate attributeName="stroke-dashoffset" from="150" to="0" dur="1.8s" begin="4.6s" fill="freeze" /></path><path d="M60.6,24.46c0.94,1.12,1.74,2.94,1.74,4.67c0,13.33-0.45,21.61-0.45,27.37c0,10.25,0.62,11.14,11.36,11.14c6.38,0,8.94-0.54,10.55-1.53" class="stroke" stroke-dasharray="150"><set attributeName="opacity" to="0" dur="5.8999999999999995s" /><animate attributeName="stroke-dashoffset" from="150" to="0" dur="1.8s" begin="5.8999999999999995s" fill="freeze" /></path><path d="M27.34,88.55C40.75,88,66.69,86.2,83,85.97" class="stroke" stroke-dasharray="150"><set attributeName="opacity" to="0" dur="7.3999999999999995s" /><animate attributeName="stroke-dashoffset" from="150" to="0" dur="1.8s" begin="7.3999999999999995s" fill="freeze" /></path></svg>