<svg id="kvg-0898b" class="kanjivg" viewBox="0 0 106 126" width="106" height="106" xmlns="http://www.w3.org/2000/svg" xmlns:xlink="http://www.w3.org/1999/xlink" xml:space="preserve" version="1.1" baseProfile="full"><defs><style type="text/css">path.black{fill:none;stroke:black;stroke-width:5;stroke-linecap:round;stroke-linejoin:round;}path.grey{fill:none;stroke:#ddd;stroke-width:5;stroke-linecap:round;stroke-linejoin:round;}path.stroke{fill:none;stroke:black;stroke-width:5;stroke-linecap:round;stroke-linejoin:round;}text{font-size:16px;font-family:Segoe UI Symbol,Cambria Math,DejaVu Sans,Symbola,Quivira,STIX,Code2000;-webkit-touch-callout:none;cursor:pointer;-webkit-user-select:none;-khtml-user-select:none;-moz-user-select:none;-ms-user-select:none;user-select: none;}text:hover{color:#777;}#reset{font-weight:bold;}</style><marker id="markerStart" markerWidth="8" markerHeight="8" style="overflow:visible;"><circle cx="0" cy="0" r="1.5" style="stroke:none;fill:red;fill-opacity:0.5;"/></marker><marker id="markerEnd" style="overflow:visible;"><circle cx="0" cy="0" r="0.8" style="stroke:none;fill:blue;fill-opacity:0.5;"><animate attributeName="opacity" from="1" to="0" dur="3s" repeatCount="indefinite" /></circle></marker></defs><path d="M32.5,15.46c0.96,0.96,1.18,2.1,1.18,3.52c0,1.12,0.07,27.43-0.02,39.27c-0.02,3.12-0.02,5.21,0.02,5.5" class="grey" /><path d="M34.65,17.15c9.23-1.27,22.23-2.65,31.1-3.65c2.99-0.34,4.26,1.01,4.26,3.55c0,2.5-0.1,28.08-0.14,38.96c-0.01,2.91-0.02,4.75-0.02,4.79" class="grey" /><path d="M34.84,31.1c7.28-0.6,25.03-2.98,33.9-3.38" class="grey" /><path d="M34.86,44.63C43.38,44,59,42.12,68.6,41.51" class="grey" /><path d="M34.71,59.66C44.5,59,58.38,57.5,68.45,57.03" class="grey" /><path d="M41.99,66.75c0.26,1.5,0.01,2.99-0.41,4.04c-2.7,6.83-13.83,20.83-28.41,27.87" class="grey" /><path d="M54.49,61.37c1.07,1.07,1.33,2.59,1.38,4.43c0.2,8.19,0.04,6.2,0.04,18.2c0,10.12,1.23,11.53,18.54,11.53c18.81,0,19.81-1.53,19.81-10.12" class="grey" /><path d="M32.5,15.46c0.96,0.96,1.18,2.1,1.18,3.52c0,1.12,0.07,27.43-0.02,39.27c-0.02,3.12-0.02,5.21,0.02,5.5" class="stroke" stroke-dasharray="150"><animate attributeName="stroke-dashoffset" from="150" to="0" dur="1.8s" begin="0.0s" fill="freeze" /></path><path d="M34.65,17.15c9.23-1.27,22.23-2.65,31.1-3.65c2.99-0.34,4.26,1.01,4.26,3.55c0,2.5-0.1,28.08-0.14,38.96c-0.01,2.91-0.02,4.75-0.02,4.79" class="stroke" stroke-dasharray="150"><set attributeName="opacity" to="0" dur="1.2s" /><animate attributeName="stroke-dashoffset" from="150" to="0" dur="1.8s" begin="1.2s" fill="freeze" /></path><path d="M34.84,31.1c7.28-0.6,25.03-2.98,33.9-3.38" class="stroke" stroke-dasharray="150"><set attributeName="opacity" to="0" dur="2.9s" /><animate attributeName="stroke-dashoffset" from="150" to="0" dur="1.8s" begin="2.9s" fill="freeze" /></path><path d="M34.86,44.63C43.38,44,59,42.12,68.6,41.51" class="stroke" stroke-dasharray="150"><set attributeName="opacity" to="0" dur="3.9s" /><animate attributeName="stroke-dashoffset" from="150" to="0" dur="1.8s" begin="3.9s" fill="freeze" /></path><path d="M34.71,59.66C44.5,59,58.38,57.5,68.45,57.03" class="stroke" stroke-dasharray="150"><set attributeName="opacity" to="0" dur="4.9s" /><animate attributeName="stroke-dashoffset" from="150" to="0" dur="1.8s" begin="4.9s" fill="freeze" /></path><path d="M41.99,66.75c0.26,1.5,0.01,2.99-0.41,4.04c-2.7,6.83-13.83,20.83-28.41,27.87" class="stroke" stroke-dasharray="150"><set attributeName="opacity" to="0" dur="5.9s" /><animate attributeName="stroke-dashoffset" from="150" to="0" dur="1.8s" begin="5.9s" fill="freeze" /></path><path d="M54.49,61.37c1.07,1.07,1.33,2.59,1.38,4.43c0.2,8.19,0.04,6.2,0.04,18.2c0,10.12,1.23,11.53,18.54,11.53c18.81,0,19.81-1.53,19.81-10.12" class="stroke" stroke-dasharray="150"><set attributeName="opacity" to="0" dur="7.0s" /><animate attributeName="stroke-dashoffset" from="150" to="0" dur="1.8s" begin="7.0s" fill="freeze" /></path></svg>