<svg id="kvg-089d2-Kaisho" class="kanjivg" viewBox="0 0 106 106" width="106" height="106" xmlns="http://www.w3.org/2000/svg" xmlns:xlink="http://www.w3.org/1999/xlink" xml:space="preserve" version="1.1" baseProfile="full"><defs><style type="text/css">path.black{fill:none;stroke:black;stroke-width:5;stroke-linecap:round;stroke-linejoin:round;}path.grey{fill:none;stroke:#ddd;stroke-width:5;stroke-linecap:round;stroke-linejoin:round;}path.stroke{fill:none;stroke:black;stroke-width:5;stroke-linecap:round;stroke-linejoin:round;}text{font-size:16px;font-family:Segoe UI Symbol,Cambria Math,DejaVu Sans,Symbola,Quivira,STIX,Code2000;-webkit-touch-callout:none;cursor:pointer;-webkit-user-select:none;-khtml-user-select:none;-moz-user-select:none;-ms-user-select:none;user-select: none;}text:hover{color:#777;}#reset{font-weight:bold;}</style><marker id="markerStart" markerWidth="8" markerHeight="8" style="overflow:visible;"><circle cx="0" cy="0" r="1.5" style="stroke:none;fill:red;fill-opacity:0.5;"/></marker><marker id="markerEnd" style="overflow:visible;"><circle cx="0" cy="0" r="0.8" style="stroke:none;fill:blue;fill-opacity:0.5;"><animate attributeName="opacity" from="1" to="0" dur="3s" repeatCount="indefinite" /></circle></marker></defs><path d="M46.25,12c0.06,0.52,0.12,1.34-0.12,2.08C44.7,18.47,36.49,28.1,25.25,34" class="grey" /><path d="M48,15.5c3,0,17-1.25,20-2.25s4.38,1.41,3,3.25c-4.5,6-9.75,12.25-14.5,18" class="grey" /><path d="M29.88,37c0.8,0.81,1.6,3.07,1.6,3.93c0,3.32-0.58,29.01-0.73,30.82c-1,11.68-3.25,19.25-10,26.5" class="grey" /><path d="M31.75,38.7c3.75-0.21,39.68-3.73,42.47-3.96c5-0.42,6.78,3.51,6.25,5.96c-0.28,1.31-0.94,33.05-0.94,49.93c0,14.37-4.04,5.12-8.54,2.12" class="grey" /><path d="M53.29,37.87c0.08,0.24,1.02,1.25,1.1,2.77c0.35,7.29-0.22,26.38-0.22,28.87" class="grey" /><path d="M31.75,54.85c9.5-0.35,17.25-1.35,29.34-2.13c1.21-0.08,2.41-0.22,3.58-0.33" class="grey" /><path d="M31.74,71.75c7.92,0,35.31-3,46.85-3" class="grey" /><path d="M46.25,12c0.06,0.52,0.12,1.34-0.12,2.08C44.7,18.47,36.49,28.1,25.25,34" class="stroke" stroke-dasharray="150"><animate attributeName="stroke-dashoffset" from="150" to="0" dur="1.8s" begin="0.0s" fill="freeze" /></path><path d="M48,15.5c3,0,17-1.25,20-2.25s4.38,1.41,3,3.25c-4.5,6-9.75,12.25-14.5,18" class="stroke" stroke-dasharray="150"><set attributeName="opacity" to="0" dur="1.0s" /><animate attributeName="stroke-dashoffset" from="150" to="0" dur="1.8s" begin="1.0s" fill="freeze" /></path><path d="M29.88,37c0.8,0.81,1.6,3.07,1.6,3.93c0,3.32-0.58,29.01-0.73,30.82c-1,11.68-3.25,19.25-10,26.5" class="stroke" stroke-dasharray="150"><set attributeName="opacity" to="0" dur="2.2s" /><animate attributeName="stroke-dashoffset" from="150" to="0" dur="1.8s" begin="2.2s" fill="freeze" /></path><path d="M31.75,38.7c3.75-0.21,39.68-3.73,42.47-3.96c5-0.42,6.78,3.51,6.25,5.96c-0.28,1.31-0.94,33.05-0.94,49.93c0,14.37-4.04,5.12-8.54,2.12" class="stroke" stroke-dasharray="150"><set attributeName="opacity" to="0" dur="3.7s" /><animate attributeName="stroke-dashoffset" from="150" to="0" dur="1.8s" begin="3.7s" fill="freeze" /></path><path d="M53.29,37.87c0.08,0.24,1.02,1.25,1.1,2.77c0.35,7.29-0.22,26.38-0.22,28.87" class="stroke" stroke-dasharray="150"><set attributeName="opacity" to="0" dur="5.7s" /><animate attributeName="stroke-dashoffset" from="150" to="0" dur="1.8s" begin="5.7s" fill="freeze" /></path><path d="M31.75,54.85c9.5-0.35,17.25-1.35,29.34-2.13c1.21-0.08,2.41-0.22,3.58-0.33" class="stroke" stroke-dasharray="150"><set attributeName="opacity" to="0" dur="6.7s" /><animate attributeName="stroke-dashoffset" from="150" to="0" dur="1.8s" begin="6.7s" fill="freeze" /></path><path d="M31.74,71.75c7.92,0,35.31-3,46.85-3" class="stroke" stroke-dasharray="150"><set attributeName="opacity" to="0" dur="7.7s" /><animate attributeName="stroke-dashoffset" from="150" to="0" dur="1.8s" begin="7.7s" fill="freeze" /></path></svg>