<svg id="kvg-089d2" class="kanjivg" viewBox="0 0 106 106" width="106" height="106" xmlns="http://www.w3.org/2000/svg" xmlns:xlink="http://www.w3.org/1999/xlink" xml:space="preserve" version="1.1" baseProfile="full"><defs><style type="text/css">path.black{fill:none;stroke:black;stroke-width:5;stroke-linecap:round;stroke-linejoin:round;}path.grey{fill:none;stroke:#ddd;stroke-width:5;stroke-linecap:round;stroke-linejoin:round;}path.stroke{fill:none;stroke:black;stroke-width:5;stroke-linecap:round;stroke-linejoin:round;}text{font-size:16px;font-family:Segoe UI Symbol,Cambria Math,DejaVu Sans,Symbola,Quivira,STIX,Code2000;-webkit-touch-callout:none;cursor:pointer;-webkit-user-select:none;-khtml-user-select:none;-moz-user-select:none;-ms-user-select:none;user-select: none;}text:hover{color:#777;}#reset{font-weight:bold;}</style><marker id="markerStart" markerWidth="8" markerHeight="8" style="overflow:visible;"><circle cx="0" cy="0" r="1.5" style="stroke:none;fill:red;fill-opacity:0.5;"/></marker><marker id="markerEnd" style="overflow:visible;"><circle cx="0" cy="0" r="0.8" style="stroke:none;fill:blue;fill-opacity:0.5;"><animate attributeName="opacity" from="1" to="0" dur="3s" repeatCount="indefinite" /></circle></marker></defs><path d="M46.75,12c0.17,1.49-0.3,2.79-1.03,4.05c-2.8,4.87-10.7,12.82-20.47,17.95" class="grey" /><path d="M49,16c5,0.25,14.12-1,19-2.25c3.06-0.79,3.88,1.41,2.5,3.25c-4.5,6-9.25,11.75-14,17.5" class="grey" /><path d="M30.38,36.5c0.8,0.81,1.1,2.2,1.1,4.43c0,29.32,0.27,43.57-10.73,57.32" class="grey" /><path d="M31.75,38.7c15.62-1.45,37.25-3.08,42.47-3.46c5.01-0.37,5.75,2.63,5.75,6.21c0,1.34-0.19,32.3-0.19,49.18c0,12.62-5.79,5.37-8.54,2.12" class="grey" /><path d="M53.29,38.87c0.08,0.24,1.1,1.24,1.1,2.77c0,7.49,0.03,23.87,0.03,27.62" class="grey" /><path d="M32.25,54.6c8.12-0.6,35.75-2.85,47-3.1" class="grey" /><path d="M31.74,71.5c10.01-0.75,35.51-2.5,46.85-3" class="grey" /><path d="M46.75,12c0.17,1.49-0.3,2.79-1.03,4.05c-2.8,4.87-10.7,12.82-20.47,17.95" class="stroke" stroke-dasharray="150"><animate attributeName="stroke-dashoffset" from="150" to="0" dur="1.8s" begin="0.0s" fill="freeze" /></path><path d="M49,16c5,0.25,14.12-1,19-2.25c3.06-0.79,3.88,1.41,2.5,3.25c-4.5,6-9.25,11.75-14,17.5" class="stroke" stroke-dasharray="150"><set attributeName="opacity" to="0" dur="1.0s" /><animate attributeName="stroke-dashoffset" from="150" to="0" dur="1.8s" begin="1.0s" fill="freeze" /></path><path d="M30.38,36.5c0.8,0.81,1.1,2.2,1.1,4.43c0,29.32,0.27,43.57-10.73,57.32" class="stroke" stroke-dasharray="150"><set attributeName="opacity" to="0" dur="2.2s" /><animate attributeName="stroke-dashoffset" from="150" to="0" dur="1.8s" begin="2.2s" fill="freeze" /></path><path d="M31.75,38.7c15.62-1.45,37.25-3.08,42.47-3.46c5.01-0.37,5.75,2.63,5.75,6.21c0,1.34-0.19,32.3-0.19,49.18c0,12.62-5.79,5.37-8.54,2.12" class="stroke" stroke-dasharray="150"><set attributeName="opacity" to="0" dur="3.7s" /><animate attributeName="stroke-dashoffset" from="150" to="0" dur="1.8s" begin="3.7s" fill="freeze" /></path><path d="M53.29,38.87c0.08,0.24,1.1,1.24,1.1,2.77c0,7.49,0.03,23.87,0.03,27.62" class="stroke" stroke-dasharray="150"><set attributeName="opacity" to="0" dur="5.7s" /><animate attributeName="stroke-dashoffset" from="150" to="0" dur="1.8s" begin="5.7s" fill="freeze" /></path><path d="M32.25,54.6c8.12-0.6,35.75-2.85,47-3.1" class="stroke" stroke-dasharray="150"><set attributeName="opacity" to="0" dur="6.7s" /><animate attributeName="stroke-dashoffset" from="150" to="0" dur="1.8s" begin="6.7s" fill="freeze" /></path><path d="M31.74,71.5c10.01-0.75,35.51-2.5,46.85-3" class="stroke" stroke-dasharray="150"><set attributeName="opacity" to="0" dur="7.9s" /><animate attributeName="stroke-dashoffset" from="150" to="0" dur="1.8s" begin="7.9s" fill="freeze" /></path></svg>