<svg id="kvg-08c37" class="kanjivg" viewBox="0 0 106 106" width="106" height="106" xmlns="http://www.w3.org/2000/svg" xmlns:xlink="http://www.w3.org/1999/xlink" xml:space="preserve" version="1.1" baseProfile="full"><defs><style type="text/css">path.black{fill:none;stroke:black;stroke-width:5;stroke-linecap:round;stroke-linejoin:round;}path.grey{fill:none;stroke:#ddd;stroke-width:5;stroke-linecap:round;stroke-linejoin:round;}path.stroke{fill:none;stroke:black;stroke-width:5;stroke-linecap:round;stroke-linejoin:round;}text{font-size:16px;font-family:Segoe UI Symbol,Cambria Math,DejaVu Sans,Symbola,Quivira,STIX,Code2000;-webkit-touch-callout:none;cursor:pointer;-webkit-user-select:none;-khtml-user-select:none;-moz-user-select:none;-ms-user-select:none;user-select: none;}text:hover{color:#777;}#reset{font-weight:bold;}</style><marker id="markerStart" markerWidth="8" markerHeight="8" style="overflow:visible;"><circle cx="0" cy="0" r="1.5" style="stroke:none;fill:red;fill-opacity:0.5;"/></marker><marker id="markerEnd" style="overflow:visible;"><circle cx="0" cy="0" r="0.8" style="stroke:none;fill:blue;fill-opacity:0.5;"><animate attributeName="opacity" from="1" to="0" dur="3s" repeatCount="indefinite" /></circle></marker></defs><path d="M36.76,16.48c0.12,1.35-0.01,2.47-0.71,3.66C33.5,24.5,27.88,31,21.33,35.75" class="grey" /><path d="M67.75,15.88c7.23,4.04,16.03,11.75,18.5,15.88" class="grey" /><path d="M52.91,29.75c0.22,1.87,0.06,3.24-0.85,4.9C46.62,44.5,33.25,58,15.67,67.5" class="grey" /><path d="M53.67,35.33c9.83,8.42,23.1,18.25,32.61,24.27c3.37,2.13,6.76,4.01,10.72,4.79" class="grey" /><path d="M31.56,67.91c1.02,0.99,1.29,1.59,1.69,3.02c1.32,4.67,2.88,13.76,4.04,21.02c0.21,1.32,0.4,2.59,0.56,3.75" class="grey" /><path d="M33.75,69.2c12.58-1.22,30.04-2.91,37.35-3.74c2.77-0.32,4.66,1.54,4.04,3.77c-1.43,5.19-3.57,14.4-4.92,20.07" class="grey" /><path d="M38.65,92.84c10.47-0.96,18.55-1.55,28.85-2.46c1.47-0.13,2.96-0.26,4.49-0.38" class="grey" /><path d="M36.76,16.48c0.12,1.35-0.01,2.47-0.71,3.66C33.5,24.5,27.88,31,21.33,35.75" class="stroke" stroke-dasharray="150"><animate attributeName="stroke-dashoffset" from="150" to="0" dur="1.8s" begin="0.0s" fill="freeze" /></path><path d="M67.75,15.88c7.23,4.04,16.03,11.75,18.5,15.88" class="stroke" stroke-dasharray="150"><set attributeName="opacity" to="0" dur="1.0s" /><animate attributeName="stroke-dashoffset" from="150" to="0" dur="1.8s" begin="1.0s" fill="freeze" /></path><path d="M52.91,29.75c0.22,1.87,0.06,3.24-0.85,4.9C46.62,44.5,33.25,58,15.67,67.5" class="stroke" stroke-dasharray="150"><set attributeName="opacity" to="0" dur="2.0s" /><animate attributeName="stroke-dashoffset" from="150" to="0" dur="1.8s" begin="2.0s" fill="freeze" /></path><path d="M53.67,35.33c9.83,8.42,23.1,18.25,32.61,24.27c3.37,2.13,6.76,4.01,10.72,4.79" class="stroke" stroke-dasharray="150"><set attributeName="opacity" to="0" dur="3.3s" /><animate attributeName="stroke-dashoffset" from="150" to="0" dur="1.8s" begin="3.3s" fill="freeze" /></path><path d="M31.56,67.91c1.02,0.99,1.29,1.59,1.69,3.02c1.32,4.67,2.88,13.76,4.04,21.02c0.21,1.32,0.4,2.59,0.56,3.75" class="stroke" stroke-dasharray="150"><set attributeName="opacity" to="0" dur="4.6s" /><animate attributeName="stroke-dashoffset" from="150" to="0" dur="1.8s" begin="4.6s" fill="freeze" /></path><path d="M33.75,69.2c12.58-1.22,30.04-2.91,37.35-3.74c2.77-0.32,4.66,1.54,4.04,3.77c-1.43,5.19-3.57,14.4-4.92,20.07" class="stroke" stroke-dasharray="150"><set attributeName="opacity" to="0" dur="5.6s" /><animate attributeName="stroke-dashoffset" from="150" to="0" dur="1.8s" begin="5.6s" fill="freeze" /></path><path d="M38.65,92.84c10.47-0.96,18.55-1.55,28.85-2.46c1.47-0.13,2.96-0.26,4.49-0.38" class="stroke" stroke-dasharray="150"><set attributeName="opacity" to="0" dur="7.1s" /><animate attributeName="stroke-dashoffset" from="150" to="0" dur="1.8s" begin="7.1s" fill="freeze" /></path></svg>