<svg id="kvg-08c46" class="kanjivg" viewBox="0 0 106 106" width="106" height="106" xmlns="http://www.w3.org/2000/svg" xmlns:xlink="http://www.w3.org/1999/xlink" xml:space="preserve" version="1.1" baseProfile="full"><defs><style type="text/css">path.black{fill:none;stroke:black;stroke-width:5;stroke-linecap:round;stroke-linejoin:round;}path.grey{fill:none;stroke:#ddd;stroke-width:5;stroke-linecap:round;stroke-linejoin:round;}path.stroke{fill:none;stroke:black;stroke-width:5;stroke-linecap:round;stroke-linejoin:round;}text{font-size:16px;font-family:Segoe UI Symbol,Cambria Math,DejaVu Sans,Symbola,Quivira,STIX,Code2000;-webkit-touch-callout:none;cursor:pointer;-webkit-user-select:none;-khtml-user-select:none;-moz-user-select:none;-ms-user-select:none;user-select: none;}text:hover{color:#777;}#reset{font-weight:bold;}</style><marker id="markerStart" markerWidth="8" markerHeight="8" style="overflow:visible;"><circle cx="0" cy="0" r="1.5" style="stroke:none;fill:red;fill-opacity:0.5;"/></marker><marker id="markerEnd" style="overflow:visible;"><circle cx="0" cy="0" r="0.8" style="stroke:none;fill:blue;fill-opacity:0.5;"><animate attributeName="opacity" from="1" to="0" dur="3s" repeatCount="indefinite" /></circle></marker></defs><path d="M28.38,20.42c2.62,0.46,5.87,0.52,8.39,0.29c8.96-0.82,23.61-2.71,36.49-3.24c2.29-0.09,4.63,0.02,6.87,0.57" class="grey" /><path d="M29.92,38.1c1.08,0.52,1.83,1.4,2.02,2.26c0.72,3.22,2.23,9.07,3.8,15.39c0.33,1.32,0.66,2.67,0.99,4.01" class="grey" /><path d="M32.56,39.51c10.07-1.26,31.45-3.67,39.44-4.07c3.71-0.19,5.46,1.91,4.42,5.07c-1.22,3.72-2.62,6.92-5.58,14.02" class="grey" /><path d="M37.48,58.02c7.32-0.55,19.84-1.9,30.15-2.45c1.68-0.09,3.29-0.17,4.8-0.22" class="grey" /><path d="M38.25,69.17c2.58,2.6,6.66,10.68,7.31,14.72" class="grey" /><path d="M69.36,63.81c0.13,0.67,0.12,1.61-0.05,2.34c-1.14,4.9-4.14,13.41-8.94,20.1" class="grey" /><path d="M15.13,90.63c2.47,0.76,6.99,0.96,9.46,0.76c20.87-1.63,38.01-2.76,59.03-3.25c4.11-0.09,6.58,0.36,8.64,0.75" class="grey" /><path d="M28.38,20.42c2.62,0.46,5.87,0.52,8.39,0.29c8.96-0.82,23.61-2.71,36.49-3.24c2.29-0.09,4.63,0.02,6.87,0.57" class="stroke" stroke-dasharray="150"><animate attributeName="stroke-dashoffset" from="150" to="0" dur="1.8s" begin="0.0s" fill="freeze" /></path><path d="M29.92,38.1c1.08,0.52,1.83,1.4,2.02,2.26c0.72,3.22,2.23,9.07,3.8,15.39c0.33,1.32,0.66,2.67,0.99,4.01" class="stroke" stroke-dasharray="150"><set attributeName="opacity" to="0" dur="1.3s" /><animate attributeName="stroke-dashoffset" from="150" to="0" dur="1.8s" begin="1.3s" fill="freeze" /></path><path d="M32.56,39.51c10.07-1.26,31.45-3.67,39.44-4.07c3.71-0.19,5.46,1.91,4.42,5.07c-1.22,3.72-2.62,6.92-5.58,14.02" class="stroke" stroke-dasharray="150"><set attributeName="opacity" to="0" dur="2.3s" /><animate attributeName="stroke-dashoffset" from="150" to="0" dur="1.8s" begin="2.3s" fill="freeze" /></path><path d="M37.48,58.02c7.32-0.55,19.84-1.9,30.15-2.45c1.68-0.09,3.29-0.17,4.8-0.22" class="stroke" stroke-dasharray="150"><set attributeName="opacity" to="0" dur="3.8s" /><animate attributeName="stroke-dashoffset" from="150" to="0" dur="1.8s" begin="3.8s" fill="freeze" /></path><path d="M38.25,69.17c2.58,2.6,6.66,10.68,7.31,14.72" class="stroke" stroke-dasharray="150"><set attributeName="opacity" to="0" dur="4.8s" /><animate attributeName="stroke-dashoffset" from="150" to="0" dur="1.8s" begin="4.8s" fill="freeze" /></path><path d="M69.36,63.81c0.13,0.67,0.12,1.61-0.05,2.34c-1.14,4.9-4.14,13.41-8.94,20.1" class="stroke" stroke-dasharray="150"><set attributeName="opacity" to="0" dur="5.7s" /><animate attributeName="stroke-dashoffset" from="150" to="0" dur="1.8s" begin="5.7s" fill="freeze" /></path><path d="M15.13,90.63c2.47,0.76,6.99,0.96,9.46,0.76c20.87-1.63,38.01-2.76,59.03-3.25c4.11-0.09,6.58,0.36,8.64,0.75" class="stroke" stroke-dasharray="150"><set attributeName="opacity" to="0" dur="6.7s" /><animate attributeName="stroke-dashoffset" from="150" to="0" dur="1.8s" begin="6.7s" fill="freeze" /></path></svg>