<svg id="kvg-08c55" class="kanjivg" viewBox="0 0 106 106" width="106" height="106" xmlns="http://www.w3.org/2000/svg" xmlns:xlink="http://www.w3.org/1999/xlink" xml:space="preserve" version="1.1" baseProfile="full"><defs><style type="text/css">path.black{fill:none;stroke:black;stroke-width:5;stroke-linecap:round;stroke-linejoin:round;}path.grey{fill:none;stroke:#ddd;stroke-width:5;stroke-linecap:round;stroke-linejoin:round;}path.stroke{fill:none;stroke:black;stroke-width:5;stroke-linecap:round;stroke-linejoin:round;}text{font-size:16px;font-family:Segoe UI Symbol,Cambria Math,DejaVu Sans,Symbola,Quivira,STIX,Code2000;-webkit-touch-callout:none;cursor:pointer;-webkit-user-select:none;-khtml-user-select:none;-moz-user-select:none;-ms-user-select:none;user-select: none;}text:hover{color:#777;}#reset{font-weight:bold;}</style><marker id="markerStart" markerWidth="8" markerHeight="8" style="overflow:visible;"><circle cx="0" cy="0" r="1.5" style="stroke:none;fill:red;fill-opacity:0.5;"/></marker><marker id="markerEnd" style="overflow:visible;"><circle cx="0" cy="0" r="0.8" style="stroke:none;fill:blue;fill-opacity:0.5;"><animate attributeName="opacity" from="1" to="0" dur="3s" repeatCount="indefinite" /></circle></marker></defs><path d="M20.13,20.54c1.26,0.49,3.57,0.6,4.84,0.49C34,20.25,69,16.5,83.21,16.29c2.1-0.03,3.36,0.23,4.42,0.48" class="grey" /><path d="M56.65,18.18c0.1,0.55,0.21,1.41-0.2,2.2c-2.37,4.63-15.96,14.8-34.57,21.03" class="grey" /><path d="M46.25,31.5c10,5.5,19.89,36.22,12.08,58.33c-3.33,9.42-9.64,1.12-10.89,0.06" class="grey" /><path d="M49.25,38.25c0.09,0.67,0.18,1.73-0.17,2.69c-2.12,5.67-14.29,18.1-30.94,25.72" class="grey" /><path d="M53.75,52.75c0.1,0.85,0.21,2.19-0.2,3.41C51.19,63.34,37.6,79.1,19,88.75" class="grey" /><path d="M80.54,31c0.06,0.45,0.12,1.17-0.11,1.82c-1.38,3.84-9.32,12.27-20.17,17.43" class="grey" /><path d="M59.25,52c4.52,4.56,24.33,26.15,29.25,30.64c1.66,1.52,3.09,2.17,4.75,2.61" class="grey" /><path d="M20.13,20.54c1.26,0.49,3.57,0.6,4.84,0.49C34,20.25,69,16.5,83.21,16.29c2.1-0.03,3.36,0.23,4.42,0.48" class="stroke" stroke-dasharray="150"><animate attributeName="stroke-dashoffset" from="150" to="0" dur="1.8s" begin="0.0s" fill="freeze" /></path><path d="M56.65,18.18c0.1,0.55,0.21,1.41-0.2,2.2c-2.37,4.63-15.96,14.8-34.57,21.03" class="stroke" stroke-dasharray="150"><set attributeName="opacity" to="0" dur="1.5s" /><animate attributeName="stroke-dashoffset" from="150" to="0" dur="1.8s" begin="1.5s" fill="freeze" /></path><path d="M46.25,31.5c10,5.5,19.89,36.22,12.08,58.33c-3.33,9.42-9.64,1.12-10.89,0.06" class="stroke" stroke-dasharray="150"><set attributeName="opacity" to="0" dur="2.6s" /><animate attributeName="stroke-dashoffset" from="150" to="0" dur="1.8s" begin="2.6s" fill="freeze" /></path><path d="M49.25,38.25c0.09,0.67,0.18,1.73-0.17,2.69c-2.12,5.67-14.29,18.1-30.94,25.72" class="stroke" stroke-dasharray="150"><set attributeName="opacity" to="0" dur="4.3s" /><animate attributeName="stroke-dashoffset" from="150" to="0" dur="1.8s" begin="4.3s" fill="freeze" /></path><path d="M53.75,52.75c0.1,0.85,0.21,2.19-0.2,3.41C51.19,63.34,37.6,79.1,19,88.75" class="stroke" stroke-dasharray="150"><set attributeName="opacity" to="0" dur="5.4s" /><animate attributeName="stroke-dashoffset" from="150" to="0" dur="1.8s" begin="5.4s" fill="freeze" /></path><path d="M80.54,31c0.06,0.45,0.12,1.17-0.11,1.82c-1.38,3.84-9.32,12.27-20.17,17.43" class="stroke" stroke-dasharray="150"><set attributeName="opacity" to="0" dur="6.7s" /><animate attributeName="stroke-dashoffset" from="150" to="0" dur="1.8s" begin="6.7s" fill="freeze" /></path><path d="M59.25,52c4.52,4.56,24.33,26.15,29.25,30.64c1.66,1.52,3.09,2.17,4.75,2.61" class="stroke" stroke-dasharray="150"><set attributeName="opacity" to="0" dur="7.7s" /><animate attributeName="stroke-dashoffset" from="150" to="0" dur="1.8s" begin="7.7s" fill="freeze" /></path></svg>