<svg id="kvg-08c9d-Kaisho" class="kanjivg" viewBox="0 0 106 106" width="106" height="106" xmlns="http://www.w3.org/2000/svg" xmlns:xlink="http://www.w3.org/1999/xlink" xml:space="preserve" version="1.1" baseProfile="full"><defs><style type="text/css">path.black{fill:none;stroke:black;stroke-width:5;stroke-linecap:round;stroke-linejoin:round;}path.grey{fill:none;stroke:#ddd;stroke-width:5;stroke-linecap:round;stroke-linejoin:round;}path.stroke{fill:none;stroke:black;stroke-width:5;stroke-linecap:round;stroke-linejoin:round;}text{font-size:16px;font-family:Segoe UI Symbol,Cambria Math,DejaVu Sans,Symbola,Quivira,STIX,Code2000;-webkit-touch-callout:none;cursor:pointer;-webkit-user-select:none;-khtml-user-select:none;-moz-user-select:none;-ms-user-select:none;user-select: none;}text:hover{color:#777;}#reset{font-weight:bold;}</style><marker id="markerStart" markerWidth="8" markerHeight="8" style="overflow:visible;"><circle cx="0" cy="0" r="1.5" style="stroke:none;fill:red;fill-opacity:0.5;"/></marker><marker id="markerEnd" style="overflow:visible;"><circle cx="0" cy="0" r="0.8" style="stroke:none;fill:blue;fill-opacity:0.5;"><animate attributeName="opacity" from="1" to="0" dur="3s" repeatCount="indefinite" /></circle></marker></defs><path d="M31.75,17.8c0.68,1.34,1.68,2.34,1.68,4.13s0.32,47.81-0.5,55.31" class="grey" /><path d="M34.57,19.35c3.87-0.22,33.39-3.09,36.92-3.36c2.94-0.22,4.51,1.23,4.51,2.91c0,4.09-0.87,55.6-0.87,56.95" class="grey" /><path d="M33.51,38.26c7.06-0.5,14.11-1.33,21.15-2.01c2.17-0.21,4.34-0.42,6.42-0.61" class="grey" /><path d="M33.82,55.24c6.8-0.61,14.58-1.3,21.38-1.89c1.88-0.16,3.76-0.32,5.61-0.46" class="grey" /><path d="M33.32,73.74c10.93-0.74,31.8-2.68,41.76-2.68" class="grey" /><path d="M41.95,80.5c0.55,1.41-0.42,2.8-1.5,3.83C37.17,87.44,28.56,94.07,22,97.75" class="grey" /><path d="M65.75,80C72.78,84.75,81.08,93.35,83,97.5" class="grey" /><path d="M31.75,17.8c0.68,1.34,1.68,2.34,1.68,4.13s0.32,47.81-0.5,55.31" class="stroke" stroke-dasharray="150"><animate attributeName="stroke-dashoffset" from="150" to="0" dur="1.8s" begin="0.0s" fill="freeze" /></path><path d="M34.57,19.35c3.87-0.22,33.39-3.09,36.92-3.36c2.94-0.22,4.51,1.23,4.51,2.91c0,4.09-0.87,55.6-0.87,56.95" class="stroke" stroke-dasharray="150"><set attributeName="opacity" to="0" dur="1.4s" /><animate attributeName="stroke-dashoffset" from="150" to="0" dur="1.8s" begin="1.4s" fill="freeze" /></path><path d="M33.51,38.26c7.06-0.5,14.11-1.33,21.15-2.01c2.17-0.21,4.34-0.42,6.42-0.61" class="stroke" stroke-dasharray="150"><set attributeName="opacity" to="0" dur="3.3s" /><animate attributeName="stroke-dashoffset" from="150" to="0" dur="1.8s" begin="3.3s" fill="freeze" /></path><path d="M33.82,55.24c6.8-0.61,14.58-1.3,21.38-1.89c1.88-0.16,3.76-0.32,5.61-0.46" class="stroke" stroke-dasharray="150"><set attributeName="opacity" to="0" dur="4.3s" /><animate attributeName="stroke-dashoffset" from="150" to="0" dur="1.8s" begin="4.3s" fill="freeze" /></path><path d="M33.32,73.74c10.93-0.74,31.8-2.68,41.76-2.68" class="stroke" stroke-dasharray="150"><set attributeName="opacity" to="0" dur="5.3s" /><animate attributeName="stroke-dashoffset" from="150" to="0" dur="1.8s" begin="5.3s" fill="freeze" /></path><path d="M41.95,80.5c0.55,1.41-0.42,2.8-1.5,3.83C37.17,87.44,28.56,94.07,22,97.75" class="stroke" stroke-dasharray="150"><set attributeName="opacity" to="0" dur="6.4s" /><animate attributeName="stroke-dashoffset" from="150" to="0" dur="1.8s" begin="6.4s" fill="freeze" /></path><path d="M65.75,80C72.78,84.75,81.08,93.35,83,97.5" class="stroke" stroke-dasharray="150"><set attributeName="opacity" to="0" dur="7.4s" /><animate attributeName="stroke-dashoffset" from="150" to="0" dur="1.8s" begin="7.4s" fill="freeze" /></path></svg>