<svg id="kvg-08c9d" class="kanjivg" viewBox="0 0 106 106" width="106" height="106" xmlns="http://www.w3.org/2000/svg" xmlns:xlink="http://www.w3.org/1999/xlink" xml:space="preserve" version="1.1" baseProfile="full"><defs><style type="text/css">path.black{fill:none;stroke:black;stroke-width:5;stroke-linecap:round;stroke-linejoin:round;}path.grey{fill:none;stroke:#ddd;stroke-width:5;stroke-linecap:round;stroke-linejoin:round;}path.stroke{fill:none;stroke:black;stroke-width:5;stroke-linecap:round;stroke-linejoin:round;}text{font-size:16px;font-family:Segoe UI Symbol,Cambria Math,DejaVu Sans,Symbola,Quivira,STIX,Code2000;-webkit-touch-callout:none;cursor:pointer;-webkit-user-select:none;-khtml-user-select:none;-moz-user-select:none;-ms-user-select:none;user-select: none;}text:hover{color:#777;}#reset{font-weight:bold;}</style><marker id="markerStart" markerWidth="8" markerHeight="8" style="overflow:visible;"><circle cx="0" cy="0" r="1.5" style="stroke:none;fill:red;fill-opacity:0.5;"/></marker><marker id="markerEnd" style="overflow:visible;"><circle cx="0" cy="0" r="0.8" style="stroke:none;fill:blue;fill-opacity:0.5;"><animate attributeName="opacity" from="1" to="0" dur="3s" repeatCount="indefinite" /></circle></marker></defs><path d="M31.75,17.8c1.16,1.16,1.68,2.84,1.68,4.63c0,1.49-0.18,33.31-0.18,48.31c0,3.5-0.07,3.62-0.07,6.5" class="grey" /><path d="M33.82,19.85c7.3-0.73,30.8-3.48,37.67-4.11c2.94-0.27,4.51,1,4.51,3.66c0,3.09-0.5,32.69-0.74,47.84c-0.08,4.93-0.13,8.28-0.13,8.6" class="grey" /><path d="M34.76,38.26c8.99-1.26,33.57-3.64,39.78-3.64" class="grey" /><path d="M34.82,55.24c10.93-0.99,27.93-2.99,39.51-3.18" class="grey" /><path d="M34.57,73.74C45.5,73,64.12,71.05,74.08,71.05" class="grey" /><path d="M41.95,80.5c0.55,1.41-0.42,3.3-1.5,4.33C37.17,87.94,28.56,94.07,22,97.75" class="grey" /><path d="M65.75,80C72.78,84.75,81.08,93.35,83,97.5" class="grey" /><path d="M31.75,17.8c1.16,1.16,1.68,2.84,1.68,4.63c0,1.49-0.18,33.31-0.18,48.31c0,3.5-0.07,3.62-0.07,6.5" class="stroke" stroke-dasharray="150"><animate attributeName="stroke-dashoffset" from="150" to="0" dur="1.8s" begin="0.0s" fill="freeze" /></path><path d="M33.82,19.85c7.3-0.73,30.8-3.48,37.67-4.11c2.94-0.27,4.51,1,4.51,3.66c0,3.09-0.5,32.69-0.74,47.84c-0.08,4.93-0.13,8.28-0.13,8.6" class="stroke" stroke-dasharray="150"><set attributeName="opacity" to="0" dur="1.4s" /><animate attributeName="stroke-dashoffset" from="150" to="0" dur="1.8s" begin="1.4s" fill="freeze" /></path><path d="M34.76,38.26c8.99-1.26,33.57-3.64,39.78-3.64" class="stroke" stroke-dasharray="150"><set attributeName="opacity" to="0" dur="3.3s" /><animate attributeName="stroke-dashoffset" from="150" to="0" dur="1.8s" begin="3.3s" fill="freeze" /></path><path d="M34.82,55.24c10.93-0.99,27.93-2.99,39.51-3.18" class="stroke" stroke-dasharray="150"><set attributeName="opacity" to="0" dur="4.3s" /><animate attributeName="stroke-dashoffset" from="150" to="0" dur="1.8s" begin="4.3s" fill="freeze" /></path><path d="M34.57,73.74C45.5,73,64.12,71.05,74.08,71.05" class="stroke" stroke-dasharray="150"><set attributeName="opacity" to="0" dur="5.3s" /><animate attributeName="stroke-dashoffset" from="150" to="0" dur="1.8s" begin="5.3s" fill="freeze" /></path><path d="M41.95,80.5c0.55,1.41-0.42,3.3-1.5,4.33C37.17,87.94,28.56,94.07,22,97.75" class="stroke" stroke-dasharray="150"><set attributeName="opacity" to="0" dur="6.3s" /><animate attributeName="stroke-dashoffset" from="150" to="0" dur="1.8s" begin="6.3s" fill="freeze" /></path><path d="M65.75,80C72.78,84.75,81.08,93.35,83,97.5" class="stroke" stroke-dasharray="150"><set attributeName="opacity" to="0" dur="7.3s" /><animate attributeName="stroke-dashoffset" from="150" to="0" dur="1.8s" begin="7.3s" fill="freeze" /></path></svg>