<svg id="kvg-08d64" class="kanjivg" viewBox="0 0 106 126" width="106" height="106" xmlns="http://www.w3.org/2000/svg" xmlns:xlink="http://www.w3.org/1999/xlink" xml:space="preserve" version="1.1" baseProfile="full"><defs><style type="text/css">path.black{fill:none;stroke:black;stroke-width:5;stroke-linecap:round;stroke-linejoin:round;}path.grey{fill:none;stroke:#ddd;stroke-width:5;stroke-linecap:round;stroke-linejoin:round;}path.stroke{fill:none;stroke:black;stroke-width:5;stroke-linecap:round;stroke-linejoin:round;}text{font-size:16px;font-family:Segoe UI Symbol,Cambria Math,DejaVu Sans,Symbola,Quivira,STIX,Code2000;-webkit-touch-callout:none;cursor:pointer;-webkit-user-select:none;-khtml-user-select:none;-moz-user-select:none;-ms-user-select:none;user-select: none;}text:hover{color:#777;}#reset{font-weight:bold;}</style><marker id="markerStart" markerWidth="8" markerHeight="8" style="overflow:visible;"><circle cx="0" cy="0" r="1.5" style="stroke:none;fill:red;fill-opacity:0.5;"/></marker><marker id="markerEnd" style="overflow:visible;"><circle cx="0" cy="0" r="0.8" style="stroke:none;fill:blue;fill-opacity:0.5;"><animate attributeName="opacity" from="1" to="0" dur="3s" repeatCount="indefinite" /></circle></marker></defs><path d="M30.13,29.42c2.55,0.64,5.18,0.48,7.76,0.15c9.53-1.23,23.14-3.87,31.61-4.52c2.51-0.19,4.9-0.13,7.38,0.25" class="grey" /><path d="M52.24,12.45c1.53,1.53,2.01,3.55,2.01,5.05c0,3.33,0.04,25.2,0,26.25" class="grey" /><path d="M14.38,49.17c2.64,0.58,4.98,0.91,10.12,0.13c18.5-2.8,40.29-6,58.24-7.47c3.33-0.27,6.79-0.66,10.13-0.3" class="grey" /><path d="M42.78,49.89c0.97,1.23,1.22,3.09,1.2,4.53c-0.22,15.82,0.15,26.07-8.72,37.82" class="grey" /><path d="M61.02,46.83c1.39,1.39,2.01,2.92,2.01,5.02c0,13.52-0.06,30.44-0.06,35.4c0,12.25-3.71,5.75-6.71,2.75" class="grey" /><path d="M28.53,63.89c0.35,1.23,0.25,2.31-0.02,3.18c-1.63,5.43-4.42,9.93-9.26,15.93" class="grey" /><path d="M78.77,63.83c3.86,3.92,9.11,12.92,10.98,19.17" class="grey" /><path d="M30.13,29.42c2.55,0.64,5.18,0.48,7.76,0.15c9.53-1.23,23.14-3.87,31.61-4.52c2.51-0.19,4.9-0.13,7.38,0.25" class="stroke" stroke-dasharray="150"><animate attributeName="stroke-dashoffset" from="150" to="0" dur="1.8s" begin="0.0s" fill="freeze" /></path><path d="M52.24,12.45c1.53,1.53,2.01,3.55,2.01,5.05c0,3.33,0.04,25.2,0,26.25" class="stroke" stroke-dasharray="150"><set attributeName="opacity" to="0" dur="1.2s" /><animate attributeName="stroke-dashoffset" from="150" to="0" dur="1.8s" begin="1.2s" fill="freeze" /></path><path d="M14.38,49.17c2.64,0.58,4.98,0.91,10.12,0.13c18.5-2.8,40.29-6,58.24-7.47c3.33-0.27,6.79-0.66,10.13-0.3" class="stroke" stroke-dasharray="150"><set attributeName="opacity" to="0" dur="2.2s" /><animate attributeName="stroke-dashoffset" from="150" to="0" dur="1.8s" begin="2.2s" fill="freeze" /></path><path d="M42.78,49.89c0.97,1.23,1.22,3.09,1.2,4.53c-0.22,15.82,0.15,26.07-8.72,37.82" class="stroke" stroke-dasharray="150"><set attributeName="opacity" to="0" dur="3.9000000000000004s" /><animate attributeName="stroke-dashoffset" from="150" to="0" dur="1.8s" begin="3.9000000000000004s" fill="freeze" /></path><path d="M61.02,46.83c1.39,1.39,2.01,2.92,2.01,5.02c0,13.52-0.06,30.44-0.06,35.4c0,12.25-3.71,5.75-6.71,2.75" class="stroke" stroke-dasharray="150"><set attributeName="opacity" to="0" dur="5.0s" /><animate attributeName="stroke-dashoffset" from="150" to="0" dur="1.8s" begin="5.0s" fill="freeze" /></path><path d="M28.53,63.89c0.35,1.23,0.25,2.31-0.02,3.18c-1.63,5.43-4.42,9.93-9.26,15.93" class="stroke" stroke-dasharray="150"><set attributeName="opacity" to="0" dur="6.4s" /><animate attributeName="stroke-dashoffset" from="150" to="0" dur="1.8s" begin="6.4s" fill="freeze" /></path><path d="M78.77,63.83c3.86,3.92,9.11,12.92,10.98,19.17" class="stroke" stroke-dasharray="150"><set attributeName="opacity" to="0" dur="7.4s" /><animate attributeName="stroke-dashoffset" from="150" to="0" dur="1.8s" begin="7.4s" fill="freeze" /></path></svg>