<svg id="kvg-08d70" class="kanjivg" viewBox="0 0 106 106" width="106" height="106" xmlns="http://www.w3.org/2000/svg" xmlns:xlink="http://www.w3.org/1999/xlink" xml:space="preserve" version="1.1" baseProfile="full"><defs><style type="text/css">path.black{fill:none;stroke:black;stroke-width:5;stroke-linecap:round;stroke-linejoin:round;}path.grey{fill:none;stroke:#ddd;stroke-width:5;stroke-linecap:round;stroke-linejoin:round;}path.stroke{fill:none;stroke:black;stroke-width:5;stroke-linecap:round;stroke-linejoin:round;}text{font-size:16px;font-family:Segoe UI Symbol,Cambria Math,DejaVu Sans,Symbola,Quivira,STIX,Code2000;-webkit-touch-callout:none;cursor:pointer;-webkit-user-select:none;-khtml-user-select:none;-moz-user-select:none;-ms-user-select:none;user-select: none;}text:hover{color:#777;}#reset{font-weight:bold;}</style><marker id="markerStart" markerWidth="8" markerHeight="8" style="overflow:visible;"><circle cx="0" cy="0" r="1.5" style="stroke:none;fill:red;fill-opacity:0.5;"/></marker><marker id="markerEnd" style="overflow:visible;"><circle cx="0" cy="0" r="0.8" style="stroke:none;fill:blue;fill-opacity:0.5;"><animate attributeName="opacity" from="1" to="0" dur="3s" repeatCount="indefinite" /></circle></marker></defs><path d="M30.13,28.92c1.62,0.38,4.6,0.57,6.21,0.38C47.25,28,60.75,26,70.08,25.16c2.69-0.24,4.32,0.18,5.67,0.37" class="grey" /><path d="M52.01,12.37c1.25,1.25,2.05,2.85,2.05,5.01c0,4.58-0.06,25.5-0.06,26.37" class="grey" /><path d="M15.13,48.05c2.29,0.69,6.48,0.95,8.77,0.69c24.84-2.74,36-4.24,60.98-6.45c3.79-0.33,6.35,0.08,8.25,0.43" class="grey" /><path d="M53.12,49c1.13,1.13,1.78,3.13,1.78,4.75c0,6.38-0.15,21.5-0.15,27" class="grey" /><path d="M56.5,63.5c7.75-1,15.25-2.09,17.84-2.09c1.57,0,2.5,0.18,3.29,0.37" class="grey" /><path d="M36.75,60.25c0.11,1.43-0.01,2.77-0.41,4.15c-2.01,6.95-8.97,19.48-20.84,28.1" class="grey" /><path d="M33.75,73.5c10.2,2.44,40.07,16.59,49.72,18.89C86.44,93.1,90.1,93.73,93,94" class="grey" /><path d="M30.13,28.92c1.62,0.38,4.6,0.57,6.21,0.38C47.25,28,60.75,26,70.08,25.16c2.69-0.24,4.32,0.18,5.67,0.37" class="stroke" stroke-dasharray="150"><animate attributeName="stroke-dashoffset" from="150" to="0" dur="1.8s" begin="0.0s" fill="freeze" /></path><path d="M52.01,12.37c1.25,1.25,2.05,2.85,2.05,5.01c0,4.58-0.06,25.5-0.06,26.37" class="stroke" stroke-dasharray="150"><set attributeName="opacity" to="0" dur="1.2s" /><animate attributeName="stroke-dashoffset" from="150" to="0" dur="1.8s" begin="1.2s" fill="freeze" /></path><path d="M15.13,48.05c2.29,0.69,6.48,0.95,8.77,0.69c24.84-2.74,36-4.24,60.98-6.45c3.79-0.33,6.35,0.08,8.25,0.43" class="stroke" stroke-dasharray="150"><set attributeName="opacity" to="0" dur="2.2s" /><animate attributeName="stroke-dashoffset" from="150" to="0" dur="1.8s" begin="2.2s" fill="freeze" /></path><path d="M53.12,49c1.13,1.13,1.78,3.13,1.78,4.75c0,6.38-0.15,21.5-0.15,27" class="stroke" stroke-dasharray="150"><set attributeName="opacity" to="0" dur="3.9000000000000004s" /><animate attributeName="stroke-dashoffset" from="150" to="0" dur="1.8s" begin="3.9000000000000004s" fill="freeze" /></path><path d="M56.5,63.5c7.75-1,15.25-2.09,17.84-2.09c1.57,0,2.5,0.18,3.29,0.37" class="stroke" stroke-dasharray="150"><set attributeName="opacity" to="0" dur="4.9s" /><animate attributeName="stroke-dashoffset" from="150" to="0" dur="1.8s" begin="4.9s" fill="freeze" /></path><path d="M36.75,60.25c0.11,1.43-0.01,2.77-0.41,4.15c-2.01,6.95-8.97,19.48-20.84,28.1" class="stroke" stroke-dasharray="150"><set attributeName="opacity" to="0" dur="5.9s" /><animate attributeName="stroke-dashoffset" from="150" to="0" dur="1.8s" begin="5.9s" fill="freeze" /></path><path d="M33.75,73.5c10.2,2.44,40.07,16.59,49.72,18.89C86.44,93.1,90.1,93.73,93,94" class="stroke" stroke-dasharray="150"><set attributeName="opacity" to="0" dur="6.9s" /><animate attributeName="stroke-dashoffset" from="150" to="0" dur="1.8s" begin="6.9s" fill="freeze" /></path></svg>