<svg id="kvg-08db3" class="kanjivg" viewBox="0 0 106 126" width="106" height="106" xmlns="http://www.w3.org/2000/svg" xmlns:xlink="http://www.w3.org/1999/xlink" xml:space="preserve" version="1.1" baseProfile="full"><defs><style type="text/css">path.black{fill:none;stroke:black;stroke-width:5;stroke-linecap:round;stroke-linejoin:round;}path.grey{fill:none;stroke:#ddd;stroke-width:5;stroke-linecap:round;stroke-linejoin:round;}path.stroke{fill:none;stroke:black;stroke-width:5;stroke-linecap:round;stroke-linejoin:round;}text{font-size:16px;font-family:Segoe UI Symbol,Cambria Math,DejaVu Sans,Symbola,Quivira,STIX,Code2000;-webkit-touch-callout:none;cursor:pointer;-webkit-user-select:none;-khtml-user-select:none;-moz-user-select:none;-ms-user-select:none;user-select: none;}text:hover{color:#777;}#reset{font-weight:bold;}</style><marker id="markerStart" markerWidth="8" markerHeight="8" style="overflow:visible;"><circle cx="0" cy="0" r="1.5" style="stroke:none;fill:red;fill-opacity:0.5;"/></marker><marker id="markerEnd" style="overflow:visible;"><circle cx="0" cy="0" r="0.8" style="stroke:none;fill:blue;fill-opacity:0.5;"><animate attributeName="opacity" from="1" to="0" dur="3s" repeatCount="indefinite" /></circle></marker></defs><path d="M29.75,18.99c0.82,0.82,1.43,1.68,1.66,2.33c1.15,3.39,3.44,13.48,4.61,18.68c0.34,1.51,0.59,2.61,0.68,3" class="grey" /><path d="M31.56,19.63c12.09-1.87,34.1-5.01,40.27-5.14c2.89-0.06,3.98,2.41,3.7,3.88c-0.73,3.84-3.94,15.23-4.51,17.27" class="grey" /><path d="M37.25,40.74c7.07-0.43,20.75-2.48,31.53-3.73c1.71-0.2,3.34-0.14,4.86-0.32" class="grey" /><path d="M52.75,41c0.81,0.81,1.4,1.75,1.4,3.62c0,5.11,0.37,32.49,0.35,33.88" class="grey" /><path d="M55.75,59.25C56.94,59.25,66.25,57.75,73.54,56.53C75.08,56.27,76.53,56.25,77.75,56.25" class="grey" /><path d="M36.49,55c0.13,1.5,0.14,3.05-0.2,4.35c-2.04,7.78-10.16,24.15-17.79,30.9" class="grey" /><path d="M33.25,70.75C41.75,72.12,67,87.38,82,92.5c2.94,1,6.85,1.68,9.75,2" class="grey" /><path d="M29.75,18.99c0.82,0.82,1.43,1.68,1.66,2.33c1.15,3.39,3.44,13.48,4.61,18.68c0.34,1.51,0.59,2.61,0.68,3" class="stroke" stroke-dasharray="150"><animate attributeName="stroke-dashoffset" from="150" to="0" dur="1.8s" begin="0.0s" fill="freeze" /></path><path d="M31.56,19.63c12.09-1.87,34.1-5.01,40.27-5.14c2.89-0.06,3.98,2.41,3.7,3.88c-0.73,3.84-3.94,15.23-4.51,17.27" class="stroke" stroke-dasharray="150"><set attributeName="opacity" to="0" dur="1.0s" /><animate attributeName="stroke-dashoffset" from="150" to="0" dur="1.8s" begin="1.0s" fill="freeze" /></path><path d="M37.25,40.74c7.07-0.43,20.75-2.48,31.53-3.73c1.71-0.2,3.34-0.14,4.86-0.32" class="stroke" stroke-dasharray="150"><set attributeName="opacity" to="0" dur="2.5s" /><animate attributeName="stroke-dashoffset" from="150" to="0" dur="1.8s" begin="2.5s" fill="freeze" /></path><path d="M52.75,41c0.81,0.81,1.4,1.75,1.4,3.62c0,5.11,0.37,32.49,0.35,33.88" class="stroke" stroke-dasharray="150"><set attributeName="opacity" to="0" dur="3.5s" /><animate attributeName="stroke-dashoffset" from="150" to="0" dur="1.8s" begin="3.5s" fill="freeze" /></path><path d="M55.75,59.25C56.94,59.25,66.25,57.75,73.54,56.53C75.08,56.27,76.53,56.25,77.75,56.25" class="stroke" stroke-dasharray="150"><set attributeName="opacity" to="0" dur="4.5s" /><animate attributeName="stroke-dashoffset" from="150" to="0" dur="1.8s" begin="4.5s" fill="freeze" /></path><path d="M36.49,55c0.13,1.5,0.14,3.05-0.2,4.35c-2.04,7.78-10.16,24.15-17.79,30.9" class="stroke" stroke-dasharray="150"><set attributeName="opacity" to="0" dur="5.5s" /><animate attributeName="stroke-dashoffset" from="150" to="0" dur="1.8s" begin="5.5s" fill="freeze" /></path><path d="M33.25,70.75C41.75,72.12,67,87.38,82,92.5c2.94,1,6.85,1.68,9.75,2" class="stroke" stroke-dasharray="150"><set attributeName="opacity" to="0" dur="6.6s" /><animate attributeName="stroke-dashoffset" from="150" to="0" dur="1.8s" begin="6.6s" fill="freeze" /></path></svg>