<svg id="kvg-08f9b-Kaisho" class="kanjivg" viewBox="0 0 106 106" width="106" height="106" xmlns="http://www.w3.org/2000/svg" xmlns:xlink="http://www.w3.org/1999/xlink" xml:space="preserve" version="1.1" baseProfile="full"><defs><style type="text/css">path.black{fill:none;stroke:black;stroke-width:5;stroke-linecap:round;stroke-linejoin:round;}path.grey{fill:none;stroke:#ddd;stroke-width:5;stroke-linecap:round;stroke-linejoin:round;}path.stroke{fill:none;stroke:black;stroke-width:5;stroke-linecap:round;stroke-linejoin:round;}text{font-size:16px;font-family:Segoe UI Symbol,Cambria Math,DejaVu Sans,Symbola,Quivira,STIX,Code2000;-webkit-touch-callout:none;cursor:pointer;-webkit-user-select:none;-khtml-user-select:none;-moz-user-select:none;-ms-user-select:none;user-select: none;}text:hover{color:#777;}#reset{font-weight:bold;}</style><marker id="markerStart" markerWidth="8" markerHeight="8" style="overflow:visible;"><circle cx="0" cy="0" r="1.5" style="stroke:none;fill:red;fill-opacity:0.5;"/></marker><marker id="markerEnd" style="overflow:visible;"><circle cx="0" cy="0" r="0.8" style="stroke:none;fill:blue;fill-opacity:0.5;"><animate attributeName="opacity" from="1" to="0" dur="3s" repeatCount="indefinite" /></circle></marker></defs><path d="M49.44,12.25c3.48,2.25,6.27,5.25,7.74,8.7" class="grey" /><path d="M29,28.7c1.16,0.33,2.53,0.38,3.68,0.33c6.57-0.28,34.07-4.53,43.99-4.77c1.94-0.05,3.1,0.16,4.07,0.32" class="grey" /><path d="M37.75,32.5c2.91,4.85,4.24,9.81,4.5,13" class="grey" /><path d="M67.51,27.25c0.49,1.25,0.35,2.32,0.26,2.77C67.16,33.1,62.52,41.39,61,43.75" class="grey" /><path d="M13.75,50.8c1.46,0.39,3.17,0.54,4.62,0.39c15.88-1.69,53.38-5.69,71.78-6.5c2.43-0.11,3.89,0.19,5.1,0.38" class="grey" /><path d="M24.89,69.45c1.32,0.47,3.73,0.59,5.04,0.47c16.73-1.53,34.56-4.42,50.07-5.4c2.19-0.14,3.51,0.22,4.61,0.46" class="grey" /><path d="M52.14,48.63c0.66,0.52,2.05,3.92,2.18,4.96c0.76,6-0.19,42.74-0.22,44.29" class="grey" /><path d="M49.44,12.25c3.48,2.25,6.27,5.25,7.74,8.7" class="stroke" stroke-dasharray="150"><animate attributeName="stroke-dashoffset" from="150" to="0" dur="1.8s" begin="0.0s" fill="freeze" /></path><path d="M29,28.7c1.16,0.33,2.53,0.38,3.68,0.33c6.57-0.28,34.07-4.53,43.99-4.77c1.94-0.05,3.1,0.16,4.07,0.32" class="stroke" stroke-dasharray="150"><set attributeName="opacity" to="0" dur="0.9s" /><animate attributeName="stroke-dashoffset" from="150" to="0" dur="1.8s" begin="0.9s" fill="freeze" /></path><path d="M37.75,32.5c2.91,4.85,4.24,9.81,4.5,13" class="stroke" stroke-dasharray="150"><set attributeName="opacity" to="0" dur="2.2s" /><animate attributeName="stroke-dashoffset" from="150" to="0" dur="1.8s" begin="2.2s" fill="freeze" /></path><path d="M67.51,27.25c0.49,1.25,0.35,2.32,0.26,2.77C67.16,33.1,62.52,41.39,61,43.75" class="stroke" stroke-dasharray="150"><set attributeName="opacity" to="0" dur="3.1s" /><animate attributeName="stroke-dashoffset" from="150" to="0" dur="1.8s" begin="3.1s" fill="freeze" /></path><path d="M13.75,50.8c1.46,0.39,3.17,0.54,4.62,0.39c15.88-1.69,53.38-5.69,71.78-6.5c2.43-0.11,3.89,0.19,5.1,0.38" class="stroke" stroke-dasharray="150"><set attributeName="opacity" to="0" dur="4.0s" /><animate attributeName="stroke-dashoffset" from="150" to="0" dur="1.8s" begin="4.0s" fill="freeze" /></path><path d="M24.89,69.45c1.32,0.47,3.73,0.59,5.04,0.47c16.73-1.53,34.56-4.42,50.07-5.4c2.19-0.14,3.51,0.22,4.61,0.46" class="stroke" stroke-dasharray="150"><set attributeName="opacity" to="0" dur="5.7s" /><animate attributeName="stroke-dashoffset" from="150" to="0" dur="1.8s" begin="5.7s" fill="freeze" /></path><path d="M52.14,48.63c0.66,0.52,2.05,3.92,2.18,4.96c0.76,6-0.19,42.74-0.22,44.29" class="stroke" stroke-dasharray="150"><set attributeName="opacity" to="0" dur="7.2s" /><animate attributeName="stroke-dashoffset" from="150" to="0" dur="1.8s" begin="7.2s" fill="freeze" /></path></svg>