<svg id="kvg-08f9b" class="kanjivg" viewBox="0 0 106 106" width="106" height="106" xmlns="http://www.w3.org/2000/svg" xmlns:xlink="http://www.w3.org/1999/xlink" xml:space="preserve" version="1.1" baseProfile="full"><defs><style type="text/css">path.black{fill:none;stroke:black;stroke-width:5;stroke-linecap:round;stroke-linejoin:round;}path.grey{fill:none;stroke:#ddd;stroke-width:5;stroke-linecap:round;stroke-linejoin:round;}path.stroke{fill:none;stroke:black;stroke-width:5;stroke-linecap:round;stroke-linejoin:round;}text{font-size:16px;font-family:Segoe UI Symbol,Cambria Math,DejaVu Sans,Symbola,Quivira,STIX,Code2000;-webkit-touch-callout:none;cursor:pointer;-webkit-user-select:none;-khtml-user-select:none;-moz-user-select:none;-ms-user-select:none;user-select: none;}text:hover{color:#777;}#reset{font-weight:bold;}</style><marker id="markerStart" markerWidth="8" markerHeight="8" style="overflow:visible;"><circle cx="0" cy="0" r="1.5" style="stroke:none;fill:red;fill-opacity:0.5;"/></marker><marker id="markerEnd" style="overflow:visible;"><circle cx="0" cy="0" r="0.8" style="stroke:none;fill:blue;fill-opacity:0.5;"><animate attributeName="opacity" from="1" to="0" dur="3s" repeatCount="indefinite" /></circle></marker></defs><path d="M52.81,12.5c1.28,1.28,1.87,3.25,1.87,5.35c0,3.05,0,3.65,0,7.65" class="grey" /><path d="M29.25,28.45c2.19,0.62,5.12,0.5,7.4,0.27c8.67-0.91,26.08-3.46,36.1-4.24c2.68-0.21,5.33-0.35,8,0.1" class="grey" /><path d="M38.25,33.25c2.91,4.85,4.24,9.81,4.5,13" class="grey" /><path d="M68.26,28c0.37,1,0.12,1.75-0.24,2.77c-1.04,2.96-4.74,10.12-6.27,12.48" class="grey" /><path d="M13.25,50.3c3.28,0.88,6.65,0.76,10,0.32c17-2.25,44.14-4.57,61.63-5.64c3.5-0.21,6.9-0.21,10.38,0.35" class="grey" /><path d="M24.64,69.2c2.96,1.05,7.34,0.67,10.36,0.19c13.8-2.19,28.14-3.34,40.5-4.25c3.41-0.25,6.73-0.14,10.11,0.58" class="grey" /><path d="M53.14,49.38c0.99,0.99,1.18,2.37,1.18,4.21c0,6.46,0.02,25.4,0.03,37.15c0,3.07,0,5.65,0,7.38" class="grey" /><path d="M52.81,12.5c1.28,1.28,1.87,3.25,1.87,5.35c0,3.05,0,3.65,0,7.65" class="stroke" stroke-dasharray="150"><animate attributeName="stroke-dashoffset" from="150" to="0" dur="1.8s" begin="0.0s" fill="freeze" /></path><path d="M29.25,28.45c2.19,0.62,5.12,0.5,7.4,0.27c8.67-0.91,26.08-3.46,36.1-4.24c2.68-0.21,5.33-0.35,8,0.1" class="stroke" stroke-dasharray="150"><set attributeName="opacity" to="0" dur="0.9s" /><animate attributeName="stroke-dashoffset" from="150" to="0" dur="1.8s" begin="0.9s" fill="freeze" /></path><path d="M38.25,33.25c2.91,4.85,4.24,9.81,4.5,13" class="stroke" stroke-dasharray="150"><set attributeName="opacity" to="0" dur="2.2s" /><animate attributeName="stroke-dashoffset" from="150" to="0" dur="1.8s" begin="2.2s" fill="freeze" /></path><path d="M68.26,28c0.37,1,0.12,1.75-0.24,2.77c-1.04,2.96-4.74,10.12-6.27,12.48" class="stroke" stroke-dasharray="150"><set attributeName="opacity" to="0" dur="3.1s" /><animate attributeName="stroke-dashoffset" from="150" to="0" dur="1.8s" begin="3.1s" fill="freeze" /></path><path d="M13.25,50.3c3.28,0.88,6.65,0.76,10,0.32c17-2.25,44.14-4.57,61.63-5.64c3.5-0.21,6.9-0.21,10.38,0.35" class="stroke" stroke-dasharray="150"><set attributeName="opacity" to="0" dur="4.0s" /><animate attributeName="stroke-dashoffset" from="150" to="0" dur="1.8s" begin="4.0s" fill="freeze" /></path><path d="M24.64,69.2c2.96,1.05,7.34,0.67,10.36,0.19c13.8-2.19,28.14-3.34,40.5-4.25c3.41-0.25,6.73-0.14,10.11,0.58" class="stroke" stroke-dasharray="150"><set attributeName="opacity" to="0" dur="5.7s" /><animate attributeName="stroke-dashoffset" from="150" to="0" dur="1.8s" begin="5.7s" fill="freeze" /></path><path d="M53.14,49.38c0.99,0.99,1.18,2.37,1.18,4.21c0,6.46,0.02,25.4,0.03,37.15c0,3.07,0,5.65,0,7.38" class="stroke" stroke-dasharray="150"><set attributeName="opacity" to="0" dur="7.2s" /><animate attributeName="stroke-dashoffset" from="150" to="0" dur="1.8s" begin="7.2s" fill="freeze" /></path></svg>