<svg id="kvg-08fb0" class="kanjivg" viewBox="0 0 106 106" width="106" height="106" xmlns="http://www.w3.org/2000/svg" xmlns:xlink="http://www.w3.org/1999/xlink" xml:space="preserve" version="1.1" baseProfile="full"><defs><style type="text/css">path.black{fill:none;stroke:black;stroke-width:5;stroke-linecap:round;stroke-linejoin:round;}path.grey{fill:none;stroke:#ddd;stroke-width:5;stroke-linecap:round;stroke-linejoin:round;}path.stroke{fill:none;stroke:black;stroke-width:5;stroke-linecap:round;stroke-linejoin:round;}text{font-size:16px;font-family:Segoe UI Symbol,Cambria Math,DejaVu Sans,Symbola,Quivira,STIX,Code2000;-webkit-touch-callout:none;cursor:pointer;-webkit-user-select:none;-khtml-user-select:none;-moz-user-select:none;-ms-user-select:none;user-select: none;}text:hover{color:#777;}#reset{font-weight:bold;}</style><marker id="markerStart" markerWidth="8" markerHeight="8" style="overflow:visible;"><circle cx="0" cy="0" r="1.5" style="stroke:none;fill:red;fill-opacity:0.5;"/></marker><marker id="markerEnd" style="overflow:visible;"><circle cx="0" cy="0" r="0.8" style="stroke:none;fill:blue;fill-opacity:0.5;"><animate attributeName="opacity" from="1" to="0" dur="3s" repeatCount="indefinite" /></circle></marker></defs><path d="M21.38,22.48c3.17,1.13,6.88,0.47,10.14,0.14c10.82-1.1,27.45-3.28,36.62-4.31c3.49-0.39,7.06-0.72,10.5,0.02" class="grey" /><path d="M25,23.75c1,1,1.18,2.37,1.18,4.81c0,15.69-2.3,43.19-13.43,59.44" class="grey" /><path d="M37.5,34.39c2.13,0.86,5.31,0.44,7.52,0.13c5.97-0.82,14.94-2.2,20.74-2.97c2.35-0.31,4.94-0.36,7.24,0.21" class="grey" /><path d="M29,48.89c3.38,0.74,7.45,0.52,10.39,0.11c11.61-1.62,30.15-3.76,39.61-4.57c3.14-0.27,6.65-0.68,9.76,0.08" class="grey" /><path d="M38.25,52.25c1.12,1.12,1.39,2.5,1.39,5c0,11.82,0.05,29.94,0.05,31.94s1.65,3.14,3.74,1.64s11.45-9.95,14.78-12.59" class="grey" /><path d="M75.02,51.64c0.09,0.94-0.14,1.81-0.72,2.58c-1.92,2.53-4.76,4.82-9.99,8.25" class="grey" /><path d="M47,55.25c7.58,2.1,25.56,19.66,36.3,27.22c3.07,2.16,6.07,4.41,11.45,6.28" class="grey" /><path d="M21.38,22.48c3.17,1.13,6.88,0.47,10.14,0.14c10.82-1.1,27.45-3.28,36.62-4.31c3.49-0.39,7.06-0.72,10.5,0.02" class="stroke" stroke-dasharray="150"><animate attributeName="stroke-dashoffset" from="150" to="0" dur="1.8s" begin="0.0s" fill="freeze" /></path><path d="M25,23.75c1,1,1.18,2.37,1.18,4.81c0,15.69-2.3,43.19-13.43,59.44" class="stroke" stroke-dasharray="150"><set attributeName="opacity" to="0" dur="1.4s" /><animate attributeName="stroke-dashoffset" from="150" to="0" dur="1.8s" begin="1.4s" fill="freeze" /></path><path d="M37.5,34.39c2.13,0.86,5.31,0.44,7.52,0.13c5.97-0.82,14.94-2.2,20.74-2.97c2.35-0.31,4.94-0.36,7.24,0.21" class="stroke" stroke-dasharray="150"><set attributeName="opacity" to="0" dur="2.9s" /><animate attributeName="stroke-dashoffset" from="150" to="0" dur="1.8s" begin="2.9s" fill="freeze" /></path><path d="M29,48.89c3.38,0.74,7.45,0.52,10.39,0.11c11.61-1.62,30.15-3.76,39.61-4.57c3.14-0.27,6.65-0.68,9.76,0.08" class="stroke" stroke-dasharray="150"><set attributeName="opacity" to="0" dur="3.9s" /><animate attributeName="stroke-dashoffset" from="150" to="0" dur="1.8s" begin="3.9s" fill="freeze" /></path><path d="M38.25,52.25c1.12,1.12,1.39,2.5,1.39,5c0,11.82,0.05,29.94,0.05,31.94s1.65,3.14,3.74,1.64s11.45-9.95,14.78-12.59" class="stroke" stroke-dasharray="150"><set attributeName="opacity" to="0" dur="5.4s" /><animate attributeName="stroke-dashoffset" from="150" to="0" dur="1.8s" begin="5.4s" fill="freeze" /></path><path d="M75.02,51.64c0.09,0.94-0.14,1.81-0.72,2.58c-1.92,2.53-4.76,4.82-9.99,8.25" class="stroke" stroke-dasharray="150"><set attributeName="opacity" to="0" dur="6.9s" /><animate attributeName="stroke-dashoffset" from="150" to="0" dur="1.8s" begin="6.9s" fill="freeze" /></path><path d="M47,55.25c7.58,2.1,25.56,19.66,36.3,27.22c3.07,2.16,6.07,4.41,11.45,6.28" class="stroke" stroke-dasharray="150"><set attributeName="opacity" to="0" dur="7.800000000000001s" /><animate attributeName="stroke-dashoffset" from="150" to="0" dur="1.8s" begin="7.800000000000001s" fill="freeze" /></path></svg>