<svg id="kvg-09091" class="kanjivg" viewBox="0 0 106 106" width="106" height="106" xmlns="http://www.w3.org/2000/svg" xmlns:xlink="http://www.w3.org/1999/xlink" xml:space="preserve" version="1.1" baseProfile="full"><defs><style type="text/css">path.black{fill:none;stroke:black;stroke-width:5;stroke-linecap:round;stroke-linejoin:round;}path.grey{fill:none;stroke:#ddd;stroke-width:5;stroke-linecap:round;stroke-linejoin:round;}path.stroke{fill:none;stroke:black;stroke-width:5;stroke-linecap:round;stroke-linejoin:round;}text{font-size:16px;font-family:Segoe UI Symbol,Cambria Math,DejaVu Sans,Symbola,Quivira,STIX,Code2000;-webkit-touch-callout:none;cursor:pointer;-webkit-user-select:none;-khtml-user-select:none;-moz-user-select:none;-ms-user-select:none;user-select: none;}text:hover{color:#777;}#reset{font-weight:bold;}</style><marker id="markerStart" markerWidth="8" markerHeight="8" style="overflow:visible;"><circle cx="0" cy="0" r="1.5" style="stroke:none;fill:red;fill-opacity:0.5;"/></marker><marker id="markerEnd" style="overflow:visible;"><circle cx="0" cy="0" r="0.8" style="stroke:none;fill:blue;fill-opacity:0.5;"><animate attributeName="opacity" from="1" to="0" dur="3s" repeatCount="indefinite" /></circle></marker></defs><path d="M35.12,15.62c0.86,0.66,1.36,1.54,1.5,2.63c0.99,4.23,1.89,8.55,2.61,12.63c0.28,1.59,0.54,3.13,0.77,4.62" class="grey" /><path d="M37.63,17.45c8.52-1.29,23.62-2.72,30.39-3.28c3.03-0.25,5.27,0.19,4.39,3.59c-0.97,3.78-2.1,7.72-3.49,12.56" class="grey" /><path d="M40.45,33.49c4.65-0.41,14.72-1.12,24.05-1.74c2.32-0.15,4.58-0.3,6.71-0.44" class="grey" /><path d="M28.62,45.98c14.33-1.51,35.02-2.87,49.89-3.87c3.78-0.25,7.19-0.16,6.37,4.58c-0.83,4.78-1.61,8.98-2.4,12.58c-0.4,1.81-0.8,3.47-1.22,4.98" class="grey" /><path d="M53.41,45.84c1.06,1.06,1.41,2.41,1.41,4.25c0,5.66-0.03,8.94-0.03,12.37" class="grey" /><path d="M29.28,64.96c9.6-0.83,39.35-2.83,51.42-3.25" class="grey" /><path d="M26.38,43.46c1.08,1.08,1.44,2.19,1.44,4.28c0,9.14,0.04,18.44,0.04,24.72c0,22.17,0.01,22.29,34.04,22.29c31.85,0,32.57-1.62,32.57-13.39" class="grey" /><path d="M35.12,15.62c0.86,0.66,1.36,1.54,1.5,2.63c0.99,4.23,1.89,8.55,2.61,12.63c0.28,1.59,0.54,3.13,0.77,4.62" class="stroke" stroke-dasharray="150"><animate attributeName="stroke-dashoffset" from="150" to="0" dur="1.8s" begin="0.0s" fill="freeze" /></path><path d="M37.63,17.45c8.52-1.29,23.62-2.72,30.39-3.28c3.03-0.25,5.27,0.19,4.39,3.59c-0.97,3.78-2.1,7.72-3.49,12.56" class="stroke" stroke-dasharray="150"><set attributeName="opacity" to="0" dur="1.0s" /><animate attributeName="stroke-dashoffset" from="150" to="0" dur="1.8s" begin="1.0s" fill="freeze" /></path><path d="M40.45,33.49c4.65-0.41,14.72-1.12,24.05-1.74c2.32-0.15,4.58-0.3,6.71-0.44" class="stroke" stroke-dasharray="150"><set attributeName="opacity" to="0" dur="2.3s" /><animate attributeName="stroke-dashoffset" from="150" to="0" dur="1.8s" begin="2.3s" fill="freeze" /></path><path d="M28.62,45.98c14.33-1.51,35.02-2.87,49.89-3.87c3.78-0.25,7.19-0.16,6.37,4.58c-0.83,4.78-1.61,8.98-2.4,12.58c-0.4,1.81-0.8,3.47-1.22,4.98" class="stroke" stroke-dasharray="150"><set attributeName="opacity" to="0" dur="3.3s" /><animate attributeName="stroke-dashoffset" from="150" to="0" dur="1.8s" begin="3.3s" fill="freeze" /></path><path d="M53.41,45.84c1.06,1.06,1.41,2.41,1.41,4.25c0,5.66-0.03,8.94-0.03,12.37" class="stroke" stroke-dasharray="150"><set attributeName="opacity" to="0" dur="5.0s" /><animate attributeName="stroke-dashoffset" from="150" to="0" dur="1.8s" begin="5.0s" fill="freeze" /></path><path d="M29.28,64.96c9.6-0.83,39.35-2.83,51.42-3.25" class="stroke" stroke-dasharray="150"><set attributeName="opacity" to="0" dur="5.9s" /><animate attributeName="stroke-dashoffset" from="150" to="0" dur="1.8s" begin="5.9s" fill="freeze" /></path><path d="M26.38,43.46c1.08,1.08,1.44,2.19,1.44,4.28c0,9.14,0.04,18.44,0.04,24.72c0,22.17,0.01,22.29,34.04,22.29c31.85,0,32.57-1.62,32.57-13.39" class="stroke" stroke-dasharray="150"><set attributeName="opacity" to="0" dur="7.2s" /><animate attributeName="stroke-dashoffset" from="150" to="0" dur="1.8s" begin="7.2s" fill="freeze" /></path></svg>