<svg id="kvg-09149" class="kanjivg" viewBox="0 0 106 106" width="106" height="106" xmlns="http://www.w3.org/2000/svg" xmlns:xlink="http://www.w3.org/1999/xlink" xml:space="preserve" version="1.1" baseProfile="full"><defs><style type="text/css">path.black{fill:none;stroke:black;stroke-width:5;stroke-linecap:round;stroke-linejoin:round;}path.grey{fill:none;stroke:#ddd;stroke-width:5;stroke-linecap:round;stroke-linejoin:round;}path.stroke{fill:none;stroke:black;stroke-width:5;stroke-linecap:round;stroke-linejoin:round;}text{font-size:16px;font-family:Segoe UI Symbol,Cambria Math,DejaVu Sans,Symbola,Quivira,STIX,Code2000;-webkit-touch-callout:none;cursor:pointer;-webkit-user-select:none;-khtml-user-select:none;-moz-user-select:none;-ms-user-select:none;user-select: none;}text:hover{color:#777;}#reset{font-weight:bold;}</style><marker id="markerStart" markerWidth="8" markerHeight="8" style="overflow:visible;"><circle cx="0" cy="0" r="1.5" style="stroke:none;fill:red;fill-opacity:0.5;"/></marker><marker id="markerEnd" style="overflow:visible;"><circle cx="0" cy="0" r="0.8" style="stroke:none;fill:blue;fill-opacity:0.5;"><animate attributeName="opacity" from="1" to="0" dur="3s" repeatCount="indefinite" /></circle></marker></defs><path d="M26,19.15c3.5,0.85,7.61,0.17,10.63-0.11c9.79-0.92,27.93-2.28,38.61-2.81c3.29-0.16,7.01-0.07,10.26,0.64" class="grey" /><path d="M23.77,38.69c1.08,1.08,1.1,2.43,1.1,4.22c0,0.83-0.02,32.82-0.03,46.46c0,3.62,0,5.95,0,6.06" class="grey" /><path d="M26.19,40.82c6.56-0.45,49.06-3.6,53.16-3.83c4.27-0.24,5.86,0.76,5.86,4.22c0,1.4-0.04,30.21-0.04,46.16c0,3,0,5.55,0,7.37" class="grey" /><path d="M45.5,21c1.25,1.25,1.33,2.96,1.34,4.68C47,42.5,45.88,56.5,34,65.75" class="grey" /><path d="M60,19.75c1,1,1.49,2.8,1.49,4.78c0,4.84-0.11,22.59-0.11,27.09c0,6.62,0.88,7.9,7.63,7.9c6.12,0,7.62-0.9,8.76-2.6" class="grey" /><path d="M25.99,76.98c13.89-0.98,43.64-2.6,57.82-3.06" class="grey" /><path d="M26.21,92.56c16.67-1.06,42.11-2.31,57.58-2.79" class="grey" /><path d="M26,19.15c3.5,0.85,7.61,0.17,10.63-0.11c9.79-0.92,27.93-2.28,38.61-2.81c3.29-0.16,7.01-0.07,10.26,0.64" class="stroke" stroke-dasharray="150"><animate attributeName="stroke-dashoffset" from="150" to="0" dur="1.8s" begin="0.0s" fill="freeze" /></path><path d="M23.77,38.69c1.08,1.08,1.1,2.43,1.1,4.22c0,0.83-0.02,32.82-0.03,46.46c0,3.62,0,5.95,0,6.06" class="stroke" stroke-dasharray="150"><set attributeName="opacity" to="0" dur="1.4s" /><animate attributeName="stroke-dashoffset" from="150" to="0" dur="1.8s" begin="1.4s" fill="freeze" /></path><path d="M26.19,40.82c6.56-0.45,49.06-3.6,53.16-3.83c4.27-0.24,5.86,0.76,5.86,4.22c0,1.4-0.04,30.21-0.04,46.16c0,3,0,5.55,0,7.37" class="stroke" stroke-dasharray="150"><set attributeName="opacity" to="0" dur="2.8s" /><animate attributeName="stroke-dashoffset" from="150" to="0" dur="1.8s" begin="2.8s" fill="freeze" /></path><path d="M45.5,21c1.25,1.25,1.33,2.96,1.34,4.68C47,42.5,45.88,56.5,34,65.75" class="stroke" stroke-dasharray="150"><set attributeName="opacity" to="0" dur="4.8s" /><animate attributeName="stroke-dashoffset" from="150" to="0" dur="1.8s" begin="4.8s" fill="freeze" /></path><path d="M60,19.75c1,1,1.49,2.8,1.49,4.78c0,4.84-0.11,22.59-0.11,27.09c0,6.62,0.88,7.9,7.63,7.9c6.12,0,7.62-0.9,8.76-2.6" class="stroke" stroke-dasharray="150"><set attributeName="opacity" to="0" dur="6.0s" /><animate attributeName="stroke-dashoffset" from="150" to="0" dur="1.8s" begin="6.0s" fill="freeze" /></path><path d="M25.99,76.98c13.89-0.98,43.64-2.6,57.82-3.06" class="stroke" stroke-dasharray="150"><set attributeName="opacity" to="0" dur="7.4s" /><animate attributeName="stroke-dashoffset" from="150" to="0" dur="1.8s" begin="7.4s" fill="freeze" /></path><path d="M26.21,92.56c16.67-1.06,42.11-2.31,57.58-2.79" class="stroke" stroke-dasharray="150"><set attributeName="opacity" to="0" dur="8.8s" /><animate attributeName="stroke-dashoffset" from="150" to="0" dur="1.8s" begin="8.8s" fill="freeze" /></path></svg>