<svg id="kvg-09149-Kaisho" class="kanjivg" viewBox="0 0 106 106" width="106" height="106" xmlns="http://www.w3.org/2000/svg" xmlns:xlink="http://www.w3.org/1999/xlink" xml:space="preserve" version="1.1" baseProfile="full"><defs><style type="text/css">path.black{fill:none;stroke:black;stroke-width:5;stroke-linecap:round;stroke-linejoin:round;}path.grey{fill:none;stroke:#ddd;stroke-width:5;stroke-linecap:round;stroke-linejoin:round;}path.stroke{fill:none;stroke:black;stroke-width:5;stroke-linecap:round;stroke-linejoin:round;}text{font-size:16px;font-family:Segoe UI Symbol,Cambria Math,DejaVu Sans,Symbola,Quivira,STIX,Code2000;-webkit-touch-callout:none;cursor:pointer;-webkit-user-select:none;-khtml-user-select:none;-moz-user-select:none;-ms-user-select:none;user-select: none;}text:hover{color:#777;}#reset{font-weight:bold;}</style><marker id="markerStart" markerWidth="8" markerHeight="8" style="overflow:visible;"><circle cx="0" cy="0" r="1.5" style="stroke:none;fill:red;fill-opacity:0.5;"/></marker><marker id="markerEnd" style="overflow:visible;"><circle cx="0" cy="0" r="0.8" style="stroke:none;fill:blue;fill-opacity:0.5;"><animate attributeName="opacity" from="1" to="0" dur="3s" repeatCount="indefinite" /></circle></marker></defs><path d="M26,19.4c1.02,0.37,2.9,0.55,3.9,0.37c4.12-0.72,41.85-3.76,51.53-3.76c1.7,0,2.72,0.18,3.57,0.36" class="grey" /><path d="M24.27,39.19c0.8,0.78,1.1,2.68,1.1,3.72c0,1.04-0.76,51.79-0.5,52.84" class="grey" /><path d="M26.69,40.82c4.51-0.13,50.05-4.17,54.16-4.33c3.42-0.13,5.86,1.26,5.86,4.22c0,1.38-1.76,36.86-2.36,49.28c-0.12,2.53-0.19,4.1-0.19,4.23" class="grey" /><path d="M45.75,21.75C47,23,46.58,24.71,46.6,26.43C46.75,43.25,46,55.25,34,65.75" class="grey" /><path d="M60.25,20.5c0.8,1.29,1.44,2.8,1.49,4.78c0.15,6.3-0.35,18.69-0.43,26.47c-0.06,6.75,1.94,8.5,6.24,8.14c2.28-0.19,4.96-0.38,7.35-0.96c1.26-0.3,2.31-1,2.86-1.76" class="grey" /><path d="M37.81,76.54c1.25-0.07,2.56-0.14,3.94-0.21c8.93-0.49,17.85-1.02,26.78-1.5c1.39-0.08,2.73-0.15,4-0.21" class="grey" /><path d="M27.21,92.81c12.42-0.56,40.61-2.06,56.08-2.54" class="grey" /><path d="M26,19.4c1.02,0.37,2.9,0.55,3.9,0.37c4.12-0.72,41.85-3.76,51.53-3.76c1.7,0,2.72,0.18,3.57,0.36" class="stroke" stroke-dasharray="150"><animate attributeName="stroke-dashoffset" from="150" to="0" dur="1.8s" begin="0.0s" fill="freeze" /></path><path d="M24.27,39.19c0.8,0.78,1.1,2.68,1.1,3.72c0,1.04-0.76,51.79-0.5,52.84" class="stroke" stroke-dasharray="150"><set attributeName="opacity" to="0" dur="1.4s" /><animate attributeName="stroke-dashoffset" from="150" to="0" dur="1.8s" begin="1.4s" fill="freeze" /></path><path d="M26.69,40.82c4.51-0.13,50.05-4.17,54.16-4.33c3.42-0.13,5.86,1.26,5.86,4.22c0,1.38-1.76,36.86-2.36,49.28c-0.12,2.53-0.19,4.1-0.19,4.23" class="stroke" stroke-dasharray="150"><set attributeName="opacity" to="0" dur="2.8s" /><animate attributeName="stroke-dashoffset" from="150" to="0" dur="1.8s" begin="2.8s" fill="freeze" /></path><path d="M45.75,21.75C47,23,46.58,24.71,46.6,26.43C46.75,43.25,46,55.25,34,65.75" class="stroke" stroke-dasharray="150"><set attributeName="opacity" to="0" dur="4.8s" /><animate attributeName="stroke-dashoffset" from="150" to="0" dur="1.8s" begin="4.8s" fill="freeze" /></path><path d="M60.25,20.5c0.8,1.29,1.44,2.8,1.49,4.78c0.15,6.3-0.35,18.69-0.43,26.47c-0.06,6.75,1.94,8.5,6.24,8.14c2.28-0.19,4.96-0.38,7.35-0.96c1.26-0.3,2.31-1,2.86-1.76" class="stroke" stroke-dasharray="150"><set attributeName="opacity" to="0" dur="6.0s" /><animate attributeName="stroke-dashoffset" from="150" to="0" dur="1.8s" begin="6.0s" fill="freeze" /></path><path d="M37.81,76.54c1.25-0.07,2.56-0.14,3.94-0.21c8.93-0.49,17.85-1.02,26.78-1.5c1.39-0.08,2.73-0.15,4-0.21" class="stroke" stroke-dasharray="150"><set attributeName="opacity" to="0" dur="7.3s" /><animate attributeName="stroke-dashoffset" from="150" to="0" dur="1.8s" begin="7.3s" fill="freeze" /></path><path d="M27.21,92.81c12.42-0.56,40.61-2.06,56.08-2.54" class="stroke" stroke-dasharray="150"><set attributeName="opacity" to="0" dur="8.3s" /><animate attributeName="stroke-dashoffset" from="150" to="0" dur="1.8s" begin="8.3s" fill="freeze" /></path></svg>