<svg id="kvg-091c6-Kaisho" class="kanjivg" viewBox="0 0 106 106" width="106" height="106" xmlns="http://www.w3.org/2000/svg" xmlns:xlink="http://www.w3.org/1999/xlink" xml:space="preserve" version="1.1" baseProfile="full"><defs><style type="text/css">path.black{fill:none;stroke:black;stroke-width:5;stroke-linecap:round;stroke-linejoin:round;}path.grey{fill:none;stroke:#ddd;stroke-width:5;stroke-linecap:round;stroke-linejoin:round;}path.stroke{fill:none;stroke:black;stroke-width:5;stroke-linecap:round;stroke-linejoin:round;}text{font-size:16px;font-family:Segoe UI Symbol,Cambria Math,DejaVu Sans,Symbola,Quivira,STIX,Code2000;-webkit-touch-callout:none;cursor:pointer;-webkit-user-select:none;-khtml-user-select:none;-moz-user-select:none;-ms-user-select:none;user-select: none;}text:hover{color:#777;}#reset{font-weight:bold;}</style><marker id="markerStart" markerWidth="8" markerHeight="8" style="overflow:visible;"><circle cx="0" cy="0" r="1.5" style="stroke:none;fill:red;fill-opacity:0.5;"/></marker><marker id="markerEnd" style="overflow:visible;"><circle cx="0" cy="0" r="0.8" style="stroke:none;fill:blue;fill-opacity:0.5;"><animate attributeName="opacity" from="1" to="0" dur="3s" repeatCount="indefinite" /></circle></marker></defs><path d="M71.68,10.89c0.13,0.41,0.17,1-0.25,1.67C68,18,48,25.25,27.25,27.5" class="grey" /><path d="M28.5,32.5c2.63,1.96,6.59,7.48,7.25,10.52" class="grey" /><path d="M78.75,24.5c0.04,0.47,0.2,1.26-0.07,1.89C76.5,31.5,73,37.5,65.81,44.52" class="grey" /><path d="M14.75,50.67c0.75,0.25,2.75,0.65,4.75,0.74c5.5,0.25,60.75-6.44,69.5-5.95c2,0.11,2.5-0.25,3.75,0" class="grey" /><path d="M52.25,25.25c1.25,0.5,2,2.23,2.25,3.22c0.25,0.99-0.25,58.08-0.25,64.28C54.25,104.5,47,95,46,94" class="grey" /><path d="M52.25,48.69C45.69,61.57,29.75,79.66,15,87.09" class="grey" /><path d="M57,50.18c5.02,4.76,27.02,27.28,32.47,31.96c1.85,1.59,3.43,2.27,5.28,2.72" class="grey" /><path d="M71.68,10.89c0.13,0.41,0.17,1-0.25,1.67C68,18,48,25.25,27.25,27.5" class="stroke" stroke-dasharray="150"><animate attributeName="stroke-dashoffset" from="150" to="0" dur="1.8s" begin="0.0s" fill="freeze" /></path><path d="M28.5,32.5c2.63,1.96,6.59,7.48,7.25,10.52" class="stroke" stroke-dasharray="150"><set attributeName="opacity" to="0" dur="1.2s" /><animate attributeName="stroke-dashoffset" from="150" to="0" dur="1.8s" begin="1.2s" fill="freeze" /></path><path d="M78.75,24.5c0.04,0.47,0.2,1.26-0.07,1.89C76.5,31.5,73,37.5,65.81,44.52" class="stroke" stroke-dasharray="150"><set attributeName="opacity" to="0" dur="2.1s" /><animate attributeName="stroke-dashoffset" from="150" to="0" dur="1.8s" begin="2.1s" fill="freeze" /></path><path d="M14.75,50.67c0.75,0.25,2.75,0.65,4.75,0.74c5.5,0.25,60.75-6.44,69.5-5.95c2,0.11,2.5-0.25,3.75,0" class="stroke" stroke-dasharray="150"><set attributeName="opacity" to="0" dur="3.1s" /><animate attributeName="stroke-dashoffset" from="150" to="0" dur="1.8s" begin="3.1s" fill="freeze" /></path><path d="M52.25,25.25c1.25,0.5,2,2.23,2.25,3.22c0.25,0.99-0.25,58.08-0.25,64.28C54.25,104.5,47,95,46,94" class="stroke" stroke-dasharray="150"><set attributeName="opacity" to="0" dur="4.8s" /><animate attributeName="stroke-dashoffset" from="150" to="0" dur="1.8s" begin="4.8s" fill="freeze" /></path><path d="M52.25,48.69C45.69,61.57,29.75,79.66,15,87.09" class="stroke" stroke-dasharray="150"><set attributeName="opacity" to="0" dur="6.5s" /><animate attributeName="stroke-dashoffset" from="150" to="0" dur="1.8s" begin="6.5s" fill="freeze" /></path><path d="M57,50.18c5.02,4.76,27.02,27.28,32.47,31.96c1.85,1.59,3.43,2.27,5.28,2.72" class="stroke" stroke-dasharray="150"><set attributeName="opacity" to="0" dur="7.8s" /><animate attributeName="stroke-dashoffset" from="150" to="0" dur="1.8s" begin="7.8s" fill="freeze" /></path></svg>