<svg id="kvg-091cc-Kaisho" class="kanjivg" viewBox="0 0 106 106" width="106" height="106" xmlns="http://www.w3.org/2000/svg" xmlns:xlink="http://www.w3.org/1999/xlink" xml:space="preserve" version="1.1" baseProfile="full"><defs><style type="text/css">path.black{fill:none;stroke:black;stroke-width:5;stroke-linecap:round;stroke-linejoin:round;}path.grey{fill:none;stroke:#ddd;stroke-width:5;stroke-linecap:round;stroke-linejoin:round;}path.stroke{fill:none;stroke:black;stroke-width:5;stroke-linecap:round;stroke-linejoin:round;}text{font-size:16px;font-family:Segoe UI Symbol,Cambria Math,DejaVu Sans,Symbola,Quivira,STIX,Code2000;-webkit-touch-callout:none;cursor:pointer;-webkit-user-select:none;-khtml-user-select:none;-moz-user-select:none;-ms-user-select:none;user-select: none;}text:hover{color:#777;}#reset{font-weight:bold;}</style><marker id="markerStart" markerWidth="8" markerHeight="8" style="overflow:visible;"><circle cx="0" cy="0" r="1.5" style="stroke:none;fill:red;fill-opacity:0.5;"/></marker><marker id="markerEnd" style="overflow:visible;"><circle cx="0" cy="0" r="0.8" style="stroke:none;fill:blue;fill-opacity:0.5;"><animate attributeName="opacity" from="1" to="0" dur="3s" repeatCount="indefinite" /></circle></marker></defs><path d="M25.33,21.44c0.42,0.56,0.43,0.95,0.66,1.65c1.9,5.8,3.69,20.45,4.87,31.27" class="grey" /><path d="M27.3,22.22c14.73-1.46,39.97-3.94,50.97-5.17c4.04-0.45,6.11,1.14,5.9,2.74c-0.76,5.85-2.64,21.78-4.48,31.55" class="grey" /><path d="M30.05,37.22c11.41-1.36,22.88-2.35,34.32-3.46c1.37-0.13,2.71-0.26,3.99-0.39" class="grey" /><path d="M31.62,52.79c10.6-0.62,33.42-3.22,48.06-4.24" class="grey" /><path d="M52.33,20.63c0.42,1.12,1.62,2.63,1.66,4.87c0.3,15.62,0.1,58.11,0.1,62.5" class="grey" /><path d="M27.88,71.17c0.94,0.38,2.66,0.42,3.6,0.38c9.77-0.44,31.27-4.3,43.36-4.38c1.57-0.01,2.5,0.18,3.29,0.37" class="grey" /><path d="M16.38,91.73c1.52,0.54,4.3,0.63,5.82,0.54C38,91.36,68.5,87,87.31,87.04c2.53,0,4.05,0.26,5.31,0.53" class="grey" /><path d="M25.33,21.44c0.42,0.56,0.43,0.95,0.66,1.65c1.9,5.8,3.69,20.45,4.87,31.27" class="stroke" stroke-dasharray="150"><animate attributeName="stroke-dashoffset" from="150" to="0" dur="1.8s" begin="0.0s" fill="freeze" /></path><path d="M27.3,22.22c14.73-1.46,39.97-3.94,50.97-5.17c4.04-0.45,6.11,1.14,5.9,2.74c-0.76,5.85-2.64,21.78-4.48,31.55" class="stroke" stroke-dasharray="150"><set attributeName="opacity" to="0" dur="1.0s" /><animate attributeName="stroke-dashoffset" from="150" to="0" dur="1.8s" begin="1.0s" fill="freeze" /></path><path d="M30.05,37.22c11.41-1.36,22.88-2.35,34.32-3.46c1.37-0.13,2.71-0.26,3.99-0.39" class="stroke" stroke-dasharray="150"><set attributeName="opacity" to="0" dur="2.8s" /><animate attributeName="stroke-dashoffset" from="150" to="0" dur="1.8s" begin="2.8s" fill="freeze" /></path><path d="M31.62,52.79c10.6-0.62,33.42-3.22,48.06-4.24" class="stroke" stroke-dasharray="150"><set attributeName="opacity" to="0" dur="3.8s" /><animate attributeName="stroke-dashoffset" from="150" to="0" dur="1.8s" begin="3.8s" fill="freeze" /></path><path d="M52.33,20.63c0.42,1.12,1.62,2.63,1.66,4.87c0.3,15.62,0.1,58.11,0.1,62.5" class="stroke" stroke-dasharray="150"><set attributeName="opacity" to="0" dur="5.0s" /><animate attributeName="stroke-dashoffset" from="150" to="0" dur="1.8s" begin="5.0s" fill="freeze" /></path><path d="M27.88,71.17c0.94,0.38,2.66,0.42,3.6,0.38c9.77-0.44,31.27-4.3,43.36-4.38c1.57-0.01,2.5,0.18,3.29,0.37" class="stroke" stroke-dasharray="150"><set attributeName="opacity" to="0" dur="6.5s" /><animate attributeName="stroke-dashoffset" from="150" to="0" dur="1.8s" begin="6.5s" fill="freeze" /></path><path d="M16.38,91.73c1.52,0.54,4.3,0.63,5.82,0.54C38,91.36,68.5,87,87.31,87.04c2.53,0,4.05,0.26,5.31,0.53" class="stroke" stroke-dasharray="150"><set attributeName="opacity" to="0" dur="7.8s" /><animate attributeName="stroke-dashoffset" from="150" to="0" dur="1.8s" begin="7.8s" fill="freeze" /></path></svg>