<svg id="kvg-09577" class="kanjivg" viewBox="0 0 106 106" width="106" height="106" xmlns="http://www.w3.org/2000/svg" xmlns:xlink="http://www.w3.org/1999/xlink" xml:space="preserve" version="1.1" baseProfile="full"><defs><style type="text/css">path.black{fill:none;stroke:black;stroke-width:5;stroke-linecap:round;stroke-linejoin:round;}path.grey{fill:none;stroke:#ddd;stroke-width:5;stroke-linecap:round;stroke-linejoin:round;}path.stroke{fill:none;stroke:black;stroke-width:5;stroke-linecap:round;stroke-linejoin:round;}text{font-size:16px;font-family:Segoe UI Symbol,Cambria Math,DejaVu Sans,Symbola,Quivira,STIX,Code2000;-webkit-touch-callout:none;cursor:pointer;-webkit-user-select:none;-khtml-user-select:none;-moz-user-select:none;-ms-user-select:none;user-select: none;}text:hover{color:#777;}#reset{font-weight:bold;}</style><marker id="markerStart" markerWidth="8" markerHeight="8" style="overflow:visible;"><circle cx="0" cy="0" r="1.5" style="stroke:none;fill:red;fill-opacity:0.5;"/></marker><marker id="markerEnd" style="overflow:visible;"><circle cx="0" cy="0" r="0.8" style="stroke:none;fill:blue;fill-opacity:0.5;"><animate attributeName="opacity" from="1" to="0" dur="3s" repeatCount="indefinite" /></circle></marker></defs><path d="M34,14.75C35.25,16,36,18,36,19.5s0,33.5,0,35.75" class="grey" /><path d="M37.75,16c9.6-0.15,21.73-3.26,26.63-4.2c1.97-0.38,3.9-0.41,5.87,0.06" class="grey" /><path d="M37.25,29.5C48.12,28.25,57,27,64,25.72c1.96-0.36,3.76-0.25,5.25,0.06" class="grey" /><path d="M37.5,42.5c8.88-0.86,21.62-2.62,26.75-3.53c1.97-0.35,3.88-0.32,5.75,0" class="grey" /><path d="M10.88,58.23c3.14,0.86,6.44,0.68,9.62,0.29c19.73-2.35,44.86-6.1,65-7.61c2.97-0.22,5.7-0.08,8.63,0.4" class="grey" /><path d="M31.25,60.25c0.94,0.94,1.39,2.38,1.39,4c0,11.82-0.7,28.19-0.7,30.19s1.65,3.14,3.74,1.64c2.09-1.5,17.25-11.09,20.03-12.59" class="grey" /><path d="M76.52,55.25c0.23,1.25-0.33,2.45-1.05,3.41C73.5,61.25,69.62,65,64.62,68.75" class="grey" /><path d="M46.5,62.25c8.21,0,34.52,25.9,44.28,29.5C93.12,92.61,94.51,93,97,93.5" class="grey" /><path d="M34,14.75C35.25,16,36,18,36,19.5s0,33.5,0,35.75" class="stroke" stroke-dasharray="150"><animate attributeName="stroke-dashoffset" from="150" to="0" dur="1.8s" begin="0.0s" fill="freeze" /></path><path d="M37.75,16c9.6-0.15,21.73-3.26,26.63-4.2c1.97-0.38,3.9-0.41,5.87,0.06" class="stroke" stroke-dasharray="150"><set attributeName="opacity" to="0" dur="1.1s" /><animate attributeName="stroke-dashoffset" from="150" to="0" dur="1.8s" begin="1.1s" fill="freeze" /></path><path d="M37.25,29.5C48.12,28.25,57,27,64,25.72c1.96-0.36,3.76-0.25,5.25,0.06" class="stroke" stroke-dasharray="150"><set attributeName="opacity" to="0" dur="2.1s" /><animate attributeName="stroke-dashoffset" from="150" to="0" dur="1.8s" begin="2.1s" fill="freeze" /></path><path d="M37.5,42.5c8.88-0.86,21.62-2.62,26.75-3.53c1.97-0.35,3.88-0.32,5.75,0" class="stroke" stroke-dasharray="150"><set attributeName="opacity" to="0" dur="3.1s" /><animate attributeName="stroke-dashoffset" from="150" to="0" dur="1.8s" begin="3.1s" fill="freeze" /></path><path d="M10.88,58.23c3.14,0.86,6.44,0.68,9.62,0.29c19.73-2.35,44.86-6.1,65-7.61c2.97-0.22,5.7-0.08,8.63,0.4" class="stroke" stroke-dasharray="150"><set attributeName="opacity" to="0" dur="4.1s" /><animate attributeName="stroke-dashoffset" from="150" to="0" dur="1.8s" begin="4.1s" fill="freeze" /></path><path d="M31.25,60.25c0.94,0.94,1.39,2.38,1.39,4c0,11.82-0.7,28.19-0.7,30.19s1.65,3.14,3.74,1.64c2.09-1.5,17.25-11.09,20.03-12.59" class="stroke" stroke-dasharray="150"><set attributeName="opacity" to="0" dur="5.8s" /><animate attributeName="stroke-dashoffset" from="150" to="0" dur="1.8s" begin="5.8s" fill="freeze" /></path><path d="M76.52,55.25c0.23,1.25-0.33,2.45-1.05,3.41C73.5,61.25,69.62,65,64.62,68.75" class="stroke" stroke-dasharray="150"><set attributeName="opacity" to="0" dur="7.3s" /><animate attributeName="stroke-dashoffset" from="150" to="0" dur="1.8s" begin="7.3s" fill="freeze" /></path><path d="M46.5,62.25c8.21,0,34.52,25.9,44.28,29.5C93.12,92.61,94.51,93,97,93.5" class="stroke" stroke-dasharray="150"><set attributeName="opacity" to="0" dur="8.2s" /><animate attributeName="stroke-dashoffset" from="150" to="0" dur="1.8s" begin="8.2s" fill="freeze" /></path></svg>