<svg id="kvg-09577-HzFst" class="kanjivg" viewBox="0 0 106 106" width="106" height="106" xmlns="http://www.w3.org/2000/svg" xmlns:xlink="http://www.w3.org/1999/xlink" xml:space="preserve" version="1.1" baseProfile="full"><defs><style type="text/css">path.black{fill:none;stroke:black;stroke-width:5;stroke-linecap:round;stroke-linejoin:round;}path.grey{fill:none;stroke:#ddd;stroke-width:5;stroke-linecap:round;stroke-linejoin:round;}path.stroke{fill:none;stroke:black;stroke-width:5;stroke-linecap:round;stroke-linejoin:round;}text{font-size:16px;font-family:Segoe UI Symbol,Cambria Math,DejaVu Sans,Symbola,Quivira,STIX,Code2000;-webkit-touch-callout:none;cursor:pointer;-webkit-user-select:none;-khtml-user-select:none;-moz-user-select:none;-ms-user-select:none;user-select: none;}text:hover{color:#777;}#reset{font-weight:bold;}</style><marker id="markerStart" markerWidth="8" markerHeight="8" style="overflow:visible;"><circle cx="0" cy="0" r="1.5" style="stroke:none;fill:red;fill-opacity:0.5;"/></marker><marker id="markerEnd" style="overflow:visible;"><circle cx="0" cy="0" r="0.8" style="stroke:none;fill:blue;fill-opacity:0.5;"><animate attributeName="opacity" from="1" to="0" dur="3s" repeatCount="indefinite" /></circle></marker></defs><path d="M38.25,16c11.5-0.25,25.2-4.5,27.75-4.5c2,0,2.25,0,3.75,0.5" class="grey" /><path d="M34,14.75c1.5,1.5,1.5,1.75,1.5,3.25S36,53,36,55.25" class="grey" /><path d="M36.25,30c11.5-0.25,26.2-4.5,28.75-4.5c2,0,2.26-0.02,3.75,0.5" class="grey" /><path d="M37.5,42.75C49,42.5,60.25,39,64.5,38.5c1.99-0.23,3.98-0.2,5.5,0.25" class="grey" /><path d="M10.88,58.98c1.52,0.54,4.3,0.63,5.82,0.54c15.8-0.91,50.55-7.52,72.11-8.23c2.53-0.08,4.05,0.26,5.31,0.53" class="grey" /><path d="M31.75,61.5c1.5,1.75,1.39,2.5,1.39,5c0,11.82-0.45,25.19-0.45,27.19s1.65,3.14,3.74,1.64c2.09-1.5,17-10.84,19.78-12.34" class="grey" /><path d="M77.02,55.75c0.04,0.33,0.4,1.58,0.17,2.02c-1.4,2.71-5.79,6.58-12.94,11.98" class="grey" /><path d="M46.25,62.25c8.25,0,34.69,25.9,44.5,29.5C93.1,92.61,94.5,93,97,93.5" class="grey" /><path d="M38.25,16c11.5-0.25,25.2-4.5,27.75-4.5c2,0,2.25,0,3.75,0.5" class="stroke" stroke-dasharray="150"><animate attributeName="stroke-dashoffset" from="150" to="0" dur="1.8s" begin="0.0s" fill="freeze" /></path><path d="M34,14.75c1.5,1.5,1.5,1.75,1.5,3.25S36,53,36,55.25" class="stroke" stroke-dasharray="150"><set attributeName="opacity" to="0" dur="1.0s" /><animate attributeName="stroke-dashoffset" from="150" to="0" dur="1.8s" begin="1.0s" fill="freeze" /></path><path d="M36.25,30c11.5-0.25,26.2-4.5,28.75-4.5c2,0,2.26-0.02,3.75,0.5" class="stroke" stroke-dasharray="150"><set attributeName="opacity" to="0" dur="2.1s" /><animate attributeName="stroke-dashoffset" from="150" to="0" dur="1.8s" begin="2.1s" fill="freeze" /></path><path d="M37.5,42.75C49,42.5,60.25,39,64.5,38.5c1.99-0.23,3.98-0.2,5.5,0.25" class="stroke" stroke-dasharray="150"><set attributeName="opacity" to="0" dur="3.1s" /><animate attributeName="stroke-dashoffset" from="150" to="0" dur="1.8s" begin="3.1s" fill="freeze" /></path><path d="M10.88,58.98c1.52,0.54,4.3,0.63,5.82,0.54c15.8-0.91,50.55-7.52,72.11-8.23c2.53-0.08,4.05,0.26,5.31,0.53" class="stroke" stroke-dasharray="150"><set attributeName="opacity" to="0" dur="4.1s" /><animate attributeName="stroke-dashoffset" from="150" to="0" dur="1.8s" begin="4.1s" fill="freeze" /></path><path d="M31.75,61.5c1.5,1.75,1.39,2.5,1.39,5c0,11.82-0.45,25.19-0.45,27.19s1.65,3.14,3.74,1.64c2.09-1.5,17-10.84,19.78-12.34" class="stroke" stroke-dasharray="150"><set attributeName="opacity" to="0" dur="5.8s" /><animate attributeName="stroke-dashoffset" from="150" to="0" dur="1.8s" begin="5.8s" fill="freeze" /></path><path d="M77.02,55.75c0.04,0.33,0.4,1.58,0.17,2.02c-1.4,2.71-5.79,6.58-12.94,11.98" class="stroke" stroke-dasharray="150"><set attributeName="opacity" to="0" dur="7.3s" /><animate attributeName="stroke-dashoffset" from="150" to="0" dur="1.8s" begin="7.3s" fill="freeze" /></path><path d="M46.25,62.25c8.25,0,34.69,25.9,44.5,29.5C93.1,92.61,94.5,93,97,93.5" class="stroke" stroke-dasharray="150"><set attributeName="opacity" to="0" dur="8.2s" /><animate attributeName="stroke-dashoffset" from="150" to="0" dur="1.8s" begin="8.2s" fill="freeze" /></path></svg>