<svg id="kvg-09580-Kaisho" class="kanjivg" viewBox="0 0 106 106" width="106" height="106" xmlns="http://www.w3.org/2000/svg" xmlns:xlink="http://www.w3.org/1999/xlink" xml:space="preserve" version="1.1" baseProfile="full"><defs><style type="text/css">path.black{fill:none;stroke:black;stroke-width:5;stroke-linecap:round;stroke-linejoin:round;}path.grey{fill:none;stroke:#ddd;stroke-width:5;stroke-linecap:round;stroke-linejoin:round;}path.stroke{fill:none;stroke:black;stroke-width:5;stroke-linecap:round;stroke-linejoin:round;}text{font-size:16px;font-family:Segoe UI Symbol,Cambria Math,DejaVu Sans,Symbola,Quivira,STIX,Code2000;-webkit-touch-callout:none;cursor:pointer;-webkit-user-select:none;-khtml-user-select:none;-moz-user-select:none;-ms-user-select:none;user-select: none;}text:hover{color:#777;}#reset{font-weight:bold;}</style><marker id="markerStart" markerWidth="8" markerHeight="8" style="overflow:visible;"><circle cx="0" cy="0" r="1.5" style="stroke:none;fill:red;fill-opacity:0.5;"/></marker><marker id="markerEnd" style="overflow:visible;"><circle cx="0" cy="0" r="0.8" style="stroke:none;fill:blue;fill-opacity:0.5;"><animate attributeName="opacity" from="1" to="0" dur="3s" repeatCount="indefinite" /></circle></marker></defs><path d="M16.14,14.22c0.76,0.45,2.36,3.35,2.51,4.25c0.15,0.9-0.1,68.15-0.25,73.75" class="grey" /><path d="M18.86,17.32c2.52-0.12,19.94-2.47,22.23-2.61c1.91-0.12,2.9,1.04,3,1.96c0.14,1.41-1.59,25.52-1.59,26.21" class="grey" /><path d="M19.31,29.68C25.5,29,36.5,27.25,42.46,26.52" class="grey" /><path d="M18.86,44.07c8.39-1.32,14.89-2.32,22.3-2.92" class="grey" /><path d="M61.96,13.47c0.46,0.61,0.92,1.92,0.92,2.73c0,0.81-0.15,23.23,0,24.05" class="grey" /><path d="M63.63,14.57c2.58-0.1,22.2-2.21,24.55-2.33c1.96-0.1,3.08,1.11,3.07,1.73C90.75,32.75,90.74,76,90.74,89.62c0.01,11.13-5.99,3.13-10.24-0.62" class="grey" /><path d="M64.09,26.39c3.49,0,21.55-1.92,25.5-1.92" class="grey" /><path d="M63.63,39.13c5.16,0,18.97-1.72,25.65-1.72" class="grey" /><path d="M16.14,14.22c0.76,0.45,2.36,3.35,2.51,4.25c0.15,0.9-0.1,68.15-0.25,73.75" class="stroke" stroke-dasharray="150"><animate attributeName="stroke-dashoffset" from="150" to="0" dur="1.8s" begin="0.0s" fill="freeze" /></path><path d="M18.86,17.32c2.52-0.12,19.94-2.47,22.23-2.61c1.91-0.12,2.9,1.04,3,1.96c0.14,1.41-1.59,25.52-1.59,26.21" class="stroke" stroke-dasharray="150"><set attributeName="opacity" to="0" dur="1.7s" /><animate attributeName="stroke-dashoffset" from="150" to="0" dur="1.8s" begin="1.7s" fill="freeze" /></path><path d="M19.31,29.68C25.5,29,36.5,27.25,42.46,26.52" class="stroke" stroke-dasharray="150"><set attributeName="opacity" to="0" dur="3.0s" /><animate attributeName="stroke-dashoffset" from="150" to="0" dur="1.8s" begin="3.0s" fill="freeze" /></path><path d="M18.86,44.07c8.39-1.32,14.89-2.32,22.3-2.92" class="stroke" stroke-dasharray="150"><set attributeName="opacity" to="0" dur="4.0s" /><animate attributeName="stroke-dashoffset" from="150" to="0" dur="1.8s" begin="4.0s" fill="freeze" /></path><path d="M61.96,13.47c0.46,0.61,0.92,1.92,0.92,2.73c0,0.81-0.15,23.23,0,24.05" class="stroke" stroke-dasharray="150"><set attributeName="opacity" to="0" dur="5.0s" /><animate attributeName="stroke-dashoffset" from="150" to="0" dur="1.8s" begin="5.0s" fill="freeze" /></path><path d="M63.63,14.57c2.58-0.1,22.2-2.21,24.55-2.33c1.96-0.1,3.08,1.11,3.07,1.73C90.75,32.75,90.74,76,90.74,89.62c0.01,11.13-5.99,3.13-10.24-0.62" class="stroke" stroke-dasharray="150"><set attributeName="opacity" to="0" dur="6.0s" /><animate attributeName="stroke-dashoffset" from="150" to="0" dur="1.8s" begin="6.0s" fill="freeze" /></path><path d="M64.09,26.39c3.49,0,21.55-1.92,25.5-1.92" class="stroke" stroke-dasharray="150"><set attributeName="opacity" to="0" dur="8.0s" /><animate attributeName="stroke-dashoffset" from="150" to="0" dur="1.8s" begin="8.0s" fill="freeze" /></path><path d="M63.63,39.13c5.16,0,18.97-1.72,25.65-1.72" class="stroke" stroke-dasharray="150"><set attributeName="opacity" to="0" dur="9.0s" /><animate attributeName="stroke-dashoffset" from="150" to="0" dur="1.8s" begin="9.0s" fill="freeze" /></path></svg>