<svg id="kvg-09580" class="kanjivg" viewBox="0 0 106 106" width="106" height="106" xmlns="http://www.w3.org/2000/svg" xmlns:xlink="http://www.w3.org/1999/xlink" xml:space="preserve" version="1.1" baseProfile="full"><defs><style type="text/css">path.black{fill:none;stroke:black;stroke-width:5;stroke-linecap:round;stroke-linejoin:round;}path.grey{fill:none;stroke:#ddd;stroke-width:5;stroke-linecap:round;stroke-linejoin:round;}path.stroke{fill:none;stroke:black;stroke-width:5;stroke-linecap:round;stroke-linejoin:round;}text{font-size:16px;font-family:Segoe UI Symbol,Cambria Math,DejaVu Sans,Symbola,Quivira,STIX,Code2000;-webkit-touch-callout:none;cursor:pointer;-webkit-user-select:none;-khtml-user-select:none;-moz-user-select:none;-ms-user-select:none;user-select: none;}text:hover{color:#777;}#reset{font-weight:bold;}</style><marker id="markerStart" markerWidth="8" markerHeight="8" style="overflow:visible;"><circle cx="0" cy="0" r="1.5" style="stroke:none;fill:red;fill-opacity:0.5;"/></marker><marker id="markerEnd" style="overflow:visible;"><circle cx="0" cy="0" r="0.8" style="stroke:none;fill:blue;fill-opacity:0.5;"><animate attributeName="opacity" from="1" to="0" dur="3s" repeatCount="indefinite" /></circle></marker></defs><path d="M17.39,14.97c0.94,0.94,1.26,2.28,1.26,4c0,0.77-0.18,49.78-0.18,69.28c0,3.3-0.04,4.11-0.07,4.97" class="grey" /><path d="M19.77,17.18c6.04-0.81,20.02-2.86,21.83-2.97c1.91-0.12,2.9,1.04,3,1.96c0.11,1.07-1.17,15.69-1.78,22.84c-0.19,2.21-0.31,3.71-0.31,3.87" class="grey" /><path d="M20.06,30.18C27,29,36.5,27.75,42.46,27.02" class="grey" /><path d="M19.61,43.82c8.39-1.32,14.14-2.57,21.55-3.17" class="grey" /><path d="M61.96,13.47c0.89,1.19,0.92,2.64,0.91,4.04c-0.02,3.82-0.08,14.92-0.05,20.49c0.01,1.84,0.03,3.07,0.06,3.25" class="grey" /><path d="M63.98,15.09c6.63-0.9,21.65-3.51,23.46-3.6c1.96-0.1,3.82,1.63,3.82,2.98c0,18.78-0.52,61.53-0.51,75.14c0.01,11.13-5.24,3.63-9.49-0.12" class="grey" /><path d="M64.34,26.89c6.16-0.89,20.29-2.39,25.5-2.67" class="grey" /><path d="M64.13,39.63c8.99-1,15.87-1.63,25.9-2.47" class="grey" /><path d="M17.39,14.97c0.94,0.94,1.26,2.28,1.26,4c0,0.77-0.18,49.78-0.18,69.28c0,3.3-0.04,4.11-0.07,4.97" class="stroke" stroke-dasharray="150"><animate attributeName="stroke-dashoffset" from="150" to="0" dur="1.8s" begin="0.0s" fill="freeze" /></path><path d="M19.77,17.18c6.04-0.81,20.02-2.86,21.83-2.97c1.91-0.12,2.9,1.04,3,1.96c0.11,1.07-1.17,15.69-1.78,22.84c-0.19,2.21-0.31,3.71-0.31,3.87" class="stroke" stroke-dasharray="150"><set attributeName="opacity" to="0" dur="1.7s" /><animate attributeName="stroke-dashoffset" from="150" to="0" dur="1.8s" begin="1.7s" fill="freeze" /></path><path d="M20.06,30.18C27,29,36.5,27.75,42.46,27.02" class="stroke" stroke-dasharray="150"><set attributeName="opacity" to="0" dur="3.0s" /><animate attributeName="stroke-dashoffset" from="150" to="0" dur="1.8s" begin="3.0s" fill="freeze" /></path><path d="M19.61,43.82c8.39-1.32,14.14-2.57,21.55-3.17" class="stroke" stroke-dasharray="150"><set attributeName="opacity" to="0" dur="4.0s" /><animate attributeName="stroke-dashoffset" from="150" to="0" dur="1.8s" begin="4.0s" fill="freeze" /></path><path d="M61.96,13.47c0.89,1.19,0.92,2.64,0.91,4.04c-0.02,3.82-0.08,14.92-0.05,20.49c0.01,1.84,0.03,3.07,0.06,3.25" class="stroke" stroke-dasharray="150"><set attributeName="opacity" to="0" dur="5.0s" /><animate attributeName="stroke-dashoffset" from="150" to="0" dur="1.8s" begin="5.0s" fill="freeze" /></path><path d="M63.98,15.09c6.63-0.9,21.65-3.51,23.46-3.6c1.96-0.1,3.82,1.63,3.82,2.98c0,18.78-0.52,61.53-0.51,75.14c0.01,11.13-5.24,3.63-9.49-0.12" class="stroke" stroke-dasharray="150"><set attributeName="opacity" to="0" dur="6.0s" /><animate attributeName="stroke-dashoffset" from="150" to="0" dur="1.8s" begin="6.0s" fill="freeze" /></path><path d="M64.34,26.89c6.16-0.89,20.29-2.39,25.5-2.67" class="stroke" stroke-dasharray="150"><set attributeName="opacity" to="0" dur="8.0s" /><animate attributeName="stroke-dashoffset" from="150" to="0" dur="1.8s" begin="8.0s" fill="freeze" /></path><path d="M64.13,39.63c8.99-1,15.87-1.63,25.9-2.47" class="stroke" stroke-dasharray="150"><set attributeName="opacity" to="0" dur="9.0s" /><animate attributeName="stroke-dashoffset" from="150" to="0" dur="1.8s" begin="9.0s" fill="freeze" /></path></svg>