<svg id="kvg-0961c" class="kanjivg" viewBox="0 0 106 106" width="106" height="106" xmlns="http://www.w3.org/2000/svg" xmlns:xlink="http://www.w3.org/1999/xlink" xml:space="preserve" version="1.1" baseProfile="full"><defs><style type="text/css">path.black{fill:none;stroke:black;stroke-width:5;stroke-linecap:round;stroke-linejoin:round;}path.grey{fill:none;stroke:#ddd;stroke-width:5;stroke-linecap:round;stroke-linejoin:round;}path.stroke{fill:none;stroke:black;stroke-width:5;stroke-linecap:round;stroke-linejoin:round;}text{font-size:16px;font-family:Segoe UI Symbol,Cambria Math,DejaVu Sans,Symbola,Quivira,STIX,Code2000;-webkit-touch-callout:none;cursor:pointer;-webkit-user-select:none;-khtml-user-select:none;-moz-user-select:none;-ms-user-select:none;user-select: none;}text:hover{color:#777;}#reset{font-weight:bold;}</style><marker id="markerStart" markerWidth="8" markerHeight="8" style="overflow:visible;"><circle cx="0" cy="0" r="1.5" style="stroke:none;fill:red;fill-opacity:0.5;"/></marker><marker id="markerEnd" style="overflow:visible;"><circle cx="0" cy="0" r="0.8" style="stroke:none;fill:blue;fill-opacity:0.5;"><animate attributeName="opacity" from="1" to="0" dur="3s" repeatCount="indefinite" /></circle></marker></defs><path d="M54.78,9.64c0.02,0.25,0.04,0.65-0.04,1.02c-0.45,2.15-3.29,7.25-6.86,10.14" class="grey" /><path d="M31.54,20.75C32.25,22,32.28,23,32.5,24c0.22,1,0,30.75-0.22,37" class="grey" /><path d="M33.89,23.09c7.33-1.16,38.67-4.19,42.45-4.58c1.38-0.14,2.21,1.44,2.02,2.29c-0.82,3.48-1.75,5.99-3.51,11.01" class="grey" /><path d="M33.05,35.54c11.95-1.21,39.04-3.36,44.68-3.8" class="grey" /><path d="M32.98,44.82c11.02-1.07,39.41-3.67,43.68-4.14c1.56-0.17,2.5,1.7,2.28,2.7c-0.92,4.12-2.44,7.37-3.96,11.1" class="grey" /><path d="M32.92,58.21c5.02-0.52,38.75-2.69,45.11-3.22" class="grey" /><path d="M12.88,72.48c1.52,0.54,4.31,0.68,5.82,0.54C38,71.25,76,68.5,89.31,68.29c2.53-0.04,4.05,0.26,5.31,0.53" class="grey" /><path d="M51.81,57.88c0.76,0.6,2.36,4.52,2.51,5.73c0.15,1.21-0.1,28.98-0.25,36.52" class="grey" /><path d="M54.78,9.64c0.02,0.25,0.04,0.65-0.04,1.02c-0.45,2.15-3.29,7.25-6.86,10.14" class="stroke" stroke-dasharray="150"><animate attributeName="stroke-dashoffset" from="150" to="0" dur="1.8s" begin="0.0s" fill="freeze" /></path><path d="M31.54,20.75C32.25,22,32.28,23,32.5,24c0.22,1,0,30.75-0.22,37" class="stroke" stroke-dasharray="150"><set attributeName="opacity" to="0" dur="0.9s" /><animate attributeName="stroke-dashoffset" from="150" to="0" dur="1.8s" begin="0.9s" fill="freeze" /></path><path d="M33.89,23.09c7.33-1.16,38.67-4.19,42.45-4.58c1.38-0.14,2.21,1.44,2.02,2.29c-0.82,3.48-1.75,5.99-3.51,11.01" class="stroke" stroke-dasharray="150"><set attributeName="opacity" to="0" dur="2.0s" /><animate attributeName="stroke-dashoffset" from="150" to="0" dur="1.8s" begin="2.0s" fill="freeze" /></path><path d="M33.05,35.54c11.95-1.21,39.04-3.36,44.68-3.8" class="stroke" stroke-dasharray="150"><set attributeName="opacity" to="0" dur="3.4s" /><animate attributeName="stroke-dashoffset" from="150" to="0" dur="1.8s" begin="3.4s" fill="freeze" /></path><path d="M32.98,44.82c11.02-1.07,39.41-3.67,43.68-4.14c1.56-0.17,2.5,1.7,2.28,2.7c-0.92,4.12-2.44,7.37-3.96,11.1" class="stroke" stroke-dasharray="150"><set attributeName="opacity" to="0" dur="4.5s" /><animate attributeName="stroke-dashoffset" from="150" to="0" dur="1.8s" begin="4.5s" fill="freeze" /></path><path d="M32.92,58.21c5.02-0.52,38.75-2.69,45.11-3.22" class="stroke" stroke-dasharray="150"><set attributeName="opacity" to="0" dur="5.9s" /><animate attributeName="stroke-dashoffset" from="150" to="0" dur="1.8s" begin="5.9s" fill="freeze" /></path><path d="M12.88,72.48c1.52,0.54,4.31,0.68,5.82,0.54C38,71.25,76,68.5,89.31,68.29c2.53-0.04,4.05,0.26,5.31,0.53" class="stroke" stroke-dasharray="150"><set attributeName="opacity" to="0" dur="7.1000000000000005s" /><animate attributeName="stroke-dashoffset" from="150" to="0" dur="1.8s" begin="7.1000000000000005s" fill="freeze" /></path><path d="M51.81,57.88c0.76,0.6,2.36,4.52,2.51,5.73c0.15,1.21-0.1,28.98-0.25,36.52" class="stroke" stroke-dasharray="150"><set attributeName="opacity" to="0" dur="8.8s" /><animate attributeName="stroke-dashoffset" from="150" to="0" dur="1.8s" begin="8.8s" fill="freeze" /></path></svg>