<svg id="kvg-096b6" class="kanjivg" viewBox="0 0 106 106" width="106" height="106" xmlns="http://www.w3.org/2000/svg" xmlns:xlink="http://www.w3.org/1999/xlink" xml:space="preserve" version="1.1" baseProfile="full"><defs><style type="text/css">path.black{fill:none;stroke:black;stroke-width:5;stroke-linecap:round;stroke-linejoin:round;}path.grey{fill:none;stroke:#ddd;stroke-width:5;stroke-linecap:round;stroke-linejoin:round;}path.stroke{fill:none;stroke:black;stroke-width:5;stroke-linecap:round;stroke-linejoin:round;}text{font-size:16px;font-family:Segoe UI Symbol,Cambria Math,DejaVu Sans,Symbola,Quivira,STIX,Code2000;-webkit-touch-callout:none;cursor:pointer;-webkit-user-select:none;-khtml-user-select:none;-moz-user-select:none;-ms-user-select:none;user-select: none;}text:hover{color:#777;}#reset{font-weight:bold;}</style><marker id="markerStart" markerWidth="8" markerHeight="8" style="overflow:visible;"><circle cx="0" cy="0" r="1.5" style="stroke:none;fill:red;fill-opacity:0.5;"/></marker><marker id="markerEnd" style="overflow:visible;"><circle cx="0" cy="0" r="0.8" style="stroke:none;fill:blue;fill-opacity:0.5;"><animate attributeName="opacity" from="1" to="0" dur="3s" repeatCount="indefinite" /></circle></marker></defs><path d="M28,26.25c1.75,0.25,3.7,0.66,6,0.5c14-1,31.02-2.1,42-2.75c4.25-0.25,5.5,1.75,5,4.25c-1.31,6.54-2.5,9-4.25,20.25" class="grey" /><path d="M13.75,39.5c2.25,0.25,4.01,0.73,6.5,0.5c21.75-2,51.25-4.5,68.5-5.25c2.76-0.12,5,0.5,6.25,0.75" class="grey" /><path d="M28,50.71c1.25,0.2,3.51,0.72,5,0.61c13.75-1.02,29.25-2.23,41.75-2.64c2-0.06,3.25,0,4.75,0.2" class="grey" /><path d="M52.27,11.83c0.09,0.48,1.67,2.49,1.76,5.52c0.4,14.55-0.26,68.16-0.26,73.12c0,12.78-7.71,1.5-9.21,0.25" class="grey" /><path d="M26.75,58.25c3.44,1.85,8.89,7.62,9.75,10.5" class="grey" /><path d="M18.5,90.23c1.64,1.53,3.01,2.18,4.65,0.87C24.12,90.33,37.9,77.96,42,74.25" class="grey" /><path d="M77.28,54.64c0.03,0.28,0.06,0.73-0.05,1.14c-0.66,2.41-4.46,7.7-9.66,10.93" class="grey" /><path d="M56.25,61.75c3.93,1.2,25.59,23.6,30.75,27.65c1.75,1.37,3.25,1.96,5,2.35" class="grey" /><path d="M28,26.25c1.75,0.25,3.7,0.66,6,0.5c14-1,31.02-2.1,42-2.75c4.25-0.25,5.5,1.75,5,4.25c-1.31,6.54-2.5,9-4.25,20.25" class="stroke" stroke-dasharray="150"><animate attributeName="stroke-dashoffset" from="150" to="0" dur="1.8s" begin="0.0s" fill="freeze" /></path><path d="M13.75,39.5c2.25,0.25,4.01,0.73,6.5,0.5c21.75-2,51.25-4.5,68.5-5.25c2.76-0.12,5,0.5,6.25,0.75" class="stroke" stroke-dasharray="150"><set attributeName="opacity" to="0" dur="1.7s" /><animate attributeName="stroke-dashoffset" from="150" to="0" dur="1.8s" begin="1.7s" fill="freeze" /></path><path d="M28,50.71c1.25,0.2,3.51,0.72,5,0.61c13.75-1.02,29.25-2.23,41.75-2.64c2-0.06,3.25,0,4.75,0.2" class="stroke" stroke-dasharray="150"><set attributeName="opacity" to="0" dur="3.4s" /><animate attributeName="stroke-dashoffset" from="150" to="0" dur="1.8s" begin="3.4s" fill="freeze" /></path><path d="M52.27,11.83c0.09,0.48,1.67,2.49,1.76,5.52c0.4,14.55-0.26,68.16-0.26,73.12c0,12.78-7.71,1.5-9.21,0.25" class="stroke" stroke-dasharray="150"><set attributeName="opacity" to="0" dur="4.7s" /><animate attributeName="stroke-dashoffset" from="150" to="0" dur="1.8s" begin="4.7s" fill="freeze" /></path><path d="M26.75,58.25c3.44,1.85,8.89,7.62,9.75,10.5" class="stroke" stroke-dasharray="150"><set attributeName="opacity" to="0" dur="6.5s" /><animate attributeName="stroke-dashoffset" from="150" to="0" dur="1.8s" begin="6.5s" fill="freeze" /></path><path d="M18.5,90.23c1.64,1.53,3.01,2.18,4.65,0.87C24.12,90.33,37.9,77.96,42,74.25" class="stroke" stroke-dasharray="150"><set attributeName="opacity" to="0" dur="7.4s" /><animate attributeName="stroke-dashoffset" from="150" to="0" dur="1.8s" begin="7.4s" fill="freeze" /></path><path d="M77.28,54.64c0.03,0.28,0.06,0.73-0.05,1.14c-0.66,2.41-4.46,7.7-9.66,10.93" class="stroke" stroke-dasharray="150"><set attributeName="opacity" to="0" dur="8.4s" /><animate attributeName="stroke-dashoffset" from="150" to="0" dur="1.8s" begin="8.4s" fill="freeze" /></path><path d="M56.25,61.75c3.93,1.2,25.59,23.6,30.75,27.65c1.75,1.37,3.25,1.96,5,2.35" class="stroke" stroke-dasharray="150"><set attributeName="opacity" to="0" dur="9.3s" /><animate attributeName="stroke-dashoffset" from="150" to="0" dur="1.8s" begin="9.3s" fill="freeze" /></path></svg>