<svg id="kvg-096b9" class="kanjivg" viewBox="0 0 106 106" width="106" height="106" xmlns="http://www.w3.org/2000/svg" xmlns:xlink="http://www.w3.org/1999/xlink" xml:space="preserve" version="1.1" baseProfile="full"><defs><style type="text/css">path.black{fill:none;stroke:black;stroke-width:5;stroke-linecap:round;stroke-linejoin:round;}path.grey{fill:none;stroke:#ddd;stroke-width:5;stroke-linecap:round;stroke-linejoin:round;}path.stroke{fill:none;stroke:black;stroke-width:5;stroke-linecap:round;stroke-linejoin:round;}text{font-size:16px;font-family:Segoe UI Symbol,Cambria Math,DejaVu Sans,Symbola,Quivira,STIX,Code2000;-webkit-touch-callout:none;cursor:pointer;-webkit-user-select:none;-khtml-user-select:none;-moz-user-select:none;-ms-user-select:none;user-select: none;}text:hover{color:#777;}#reset{font-weight:bold;}</style><marker id="markerStart" markerWidth="8" markerHeight="8" style="overflow:visible;"><circle cx="0" cy="0" r="1.5" style="stroke:none;fill:red;fill-opacity:0.5;"/></marker><marker id="markerEnd" style="overflow:visible;"><circle cx="0" cy="0" r="0.8" style="stroke:none;fill:blue;fill-opacity:0.5;"><animate attributeName="opacity" from="1" to="0" dur="3s" repeatCount="indefinite" /></circle></marker></defs><path d="M39.98,10.75c0.3,1.99-0.08,4.59-1.04,6.29C32.81,27.89,25.04,37.08,11,50.29" class="grey" /><path d="M27.03,36c0.97,1,1.71,3.19,1.77,4.75c0.57,13.82-0.79,50.31-0.31,57.5" class="grey" /><path d="M64.3,10.75c0.1,1.1-0.03,2.55-0.33,3.49C62,20.27,59.51,24.92,55,32.25" class="grey" /><path d="M28.53,36.3c11.22-1.3,53.9-5.09,58.72-5.8" class="grey" /><path d="M56.68,34.5c0.54,0.51,0.97,1.21,0.97,2.09c0,8.96,0.06,41.05-0.27,55.16" class="grey" /><path d="M30.03,53.3c10.58-1.08,49.93-4.21,54.47-4.8" class="grey" /><path d="M28.75,71.5c11.17-0.91,52.46-2.75,57.25-3.25" class="grey" /><path d="M28.75,94.75c11.22-1.3,56.94-3.79,61.75-4.5" class="grey" /><path d="M39.98,10.75c0.3,1.99-0.08,4.59-1.04,6.29C32.81,27.89,25.04,37.08,11,50.29" class="stroke" stroke-dasharray="150"><animate attributeName="stroke-dashoffset" from="150" to="0" dur="1.8s" begin="0.0s" fill="freeze" /></path><path d="M27.03,36c0.97,1,1.71,3.19,1.77,4.75c0.57,13.82-0.79,50.31-0.31,57.5" class="stroke" stroke-dasharray="150"><set attributeName="opacity" to="0" dur="1.3s" /><animate attributeName="stroke-dashoffset" from="150" to="0" dur="1.8s" begin="1.3s" fill="freeze" /></path><path d="M64.3,10.75c0.1,1.1-0.03,2.55-0.33,3.49C62,20.27,59.51,24.92,55,32.25" class="stroke" stroke-dasharray="150"><set attributeName="opacity" to="0" dur="2.8s" /><animate attributeName="stroke-dashoffset" from="150" to="0" dur="1.8s" begin="2.8s" fill="freeze" /></path><path d="M28.53,36.3c11.22-1.3,53.9-5.09,58.72-5.8" class="stroke" stroke-dasharray="150"><set attributeName="opacity" to="0" dur="3.8s" /><animate attributeName="stroke-dashoffset" from="150" to="0" dur="1.8s" begin="3.8s" fill="freeze" /></path><path d="M56.68,34.5c0.54,0.51,0.97,1.21,0.97,2.09c0,8.96,0.06,41.05-0.27,55.16" class="stroke" stroke-dasharray="150"><set attributeName="opacity" to="0" dur="5.199999999999999s" /><animate attributeName="stroke-dashoffset" from="150" to="0" dur="1.8s" begin="5.199999999999999s" fill="freeze" /></path><path d="M30.03,53.3c10.58-1.08,49.93-4.21,54.47-4.8" class="stroke" stroke-dasharray="150"><set attributeName="opacity" to="0" dur="6.6s" /><animate attributeName="stroke-dashoffset" from="150" to="0" dur="1.8s" begin="6.6s" fill="freeze" /></path><path d="M28.75,71.5c11.17-0.91,52.46-2.75,57.25-3.25" class="stroke" stroke-dasharray="150"><set attributeName="opacity" to="0" dur="7.8999999999999995s" /><animate attributeName="stroke-dashoffset" from="150" to="0" dur="1.8s" begin="7.8999999999999995s" fill="freeze" /></path><path d="M28.75,94.75c11.22-1.3,56.94-3.79,61.75-4.5" class="stroke" stroke-dasharray="150"><set attributeName="opacity" to="0" dur="9.299999999999999s" /><animate attributeName="stroke-dashoffset" from="150" to="0" dur="1.8s" begin="9.299999999999999s" fill="freeze" /></path></svg>