<svg id="kvg-096e8" class="kanjivg" viewBox="0 0 106 126" width="106" height="106" xmlns="http://www.w3.org/2000/svg" xmlns:xlink="http://www.w3.org/1999/xlink" xml:space="preserve" version="1.1" baseProfile="full"><defs><style type="text/css">path.black{fill:none;stroke:black;stroke-width:5;stroke-linecap:round;stroke-linejoin:round;}path.grey{fill:none;stroke:#ddd;stroke-width:5;stroke-linecap:round;stroke-linejoin:round;}path.stroke{fill:none;stroke:black;stroke-width:5;stroke-linecap:round;stroke-linejoin:round;}text{font-size:16px;font-family:Segoe UI Symbol,Cambria Math,DejaVu Sans,Symbola,Quivira,STIX,Code2000;-webkit-touch-callout:none;cursor:pointer;-webkit-user-select:none;-khtml-user-select:none;-moz-user-select:none;-ms-user-select:none;user-select: none;}text:hover{color:#777;}#reset{font-weight:bold;}</style><marker id="markerStart" markerWidth="8" markerHeight="8" style="overflow:visible;"><circle cx="0" cy="0" r="1.5" style="stroke:none;fill:red;fill-opacity:0.5;"/></marker><marker id="markerEnd" style="overflow:visible;"><circle cx="0" cy="0" r="0.8" style="stroke:none;fill:blue;fill-opacity:0.5;"><animate attributeName="opacity" from="1" to="0" dur="3s" repeatCount="indefinite" /></circle></marker></defs><path d="M25.75,22.37c1.87,0.4,4.47,0.62,6.32,0.4c11.68-1.39,28.28-3.77,41.25-4.64c2.49-0.17,4.37-0.12,7.18,0.28" class="grey" /><path d="M15.5,41.25c1.25,1.5,1.66,3.26,1.89,5.19c1.24,10.69,2.19,26.61,2.66,36.31c0.13,2.7,0.2,5,0.2,6" class="grey" /><path d="M18.25,44.25c1.42-0.09,62.76-5.33,69.5-6c2.5-0.25,4.61,1,4.5,3.75c-0.5,12.75-1.77,28.11-6,44.75c-1.88,7.38-5.38,1.88-8.5-1.25" class="grey" /><path d="M52.25,23.5C53.31,24.56,54,26.25,54,28c0,0.82-0.25,37.8-0.43,53c-0.04,3.43-0.07,5.74-0.07,6.25" class="grey" /><path d="M31,53.5c4.21,1.24,8.95,3.94,11.25,6" class="grey" /><path d="M30.5,68.75c3.8,1.26,9.68,5.89,11.75,8" class="grey" /><path d="M66.88,48.88c4.98,1.99,10.63,5.97,12.62,7.62" class="grey" /><path d="M67.25,66.5c2.75,1,9,5.5,11,7.75" class="grey" /><path d="M25.75,22.37c1.87,0.4,4.47,0.62,6.32,0.4c11.68-1.39,28.28-3.77,41.25-4.64c2.49-0.17,4.37-0.12,7.18,0.28" class="stroke" stroke-dasharray="150"><animate attributeName="stroke-dashoffset" from="150" to="0" dur="1.8s" begin="0.0s" fill="freeze" /></path><path d="M15.5,41.25c1.25,1.5,1.66,3.26,1.89,5.19c1.24,10.69,2.19,26.61,2.66,36.31c0.13,2.7,0.2,5,0.2,6" class="stroke" stroke-dasharray="150"><set attributeName="opacity" to="0" dur="1.4s" /><animate attributeName="stroke-dashoffset" from="150" to="0" dur="1.8s" begin="1.4s" fill="freeze" /></path><path d="M18.25,44.25c1.42-0.09,62.76-5.33,69.5-6c2.5-0.25,4.61,1,4.5,3.75c-0.5,12.75-1.77,28.11-6,44.75c-1.88,7.38-5.38,1.88-8.5-1.25" class="stroke" stroke-dasharray="150"><set attributeName="opacity" to="0" dur="2.5999999999999996s" /><animate attributeName="stroke-dashoffset" from="150" to="0" dur="1.8s" begin="2.5999999999999996s" fill="freeze" /></path><path d="M52.25,23.5C53.31,24.56,54,26.25,54,28c0,0.82-0.25,37.8-0.43,53c-0.04,3.43-0.07,5.74-0.07,6.25" class="stroke" stroke-dasharray="150"><set attributeName="opacity" to="0" dur="4.6s" /><animate attributeName="stroke-dashoffset" from="150" to="0" dur="1.8s" begin="4.6s" fill="freeze" /></path><path d="M31,53.5c4.21,1.24,8.95,3.94,11.25,6" class="stroke" stroke-dasharray="150"><set attributeName="opacity" to="0" dur="6.1s" /><animate attributeName="stroke-dashoffset" from="150" to="0" dur="1.8s" begin="6.1s" fill="freeze" /></path><path d="M30.5,68.75c3.8,1.26,9.68,5.89,11.75,8" class="stroke" stroke-dasharray="150"><set attributeName="opacity" to="0" dur="7.0s" /><animate attributeName="stroke-dashoffset" from="150" to="0" dur="1.8s" begin="7.0s" fill="freeze" /></path><path d="M66.88,48.88c4.98,1.99,10.63,5.97,12.62,7.62" class="stroke" stroke-dasharray="150"><set attributeName="opacity" to="0" dur="7.9s" /><animate attributeName="stroke-dashoffset" from="150" to="0" dur="1.8s" begin="7.9s" fill="freeze" /></path><path d="M67.25,66.5c2.75,1,9,5.5,11,7.75" class="stroke" stroke-dasharray="150"><set attributeName="opacity" to="0" dur="8.8s" /><animate attributeName="stroke-dashoffset" from="150" to="0" dur="1.8s" begin="8.8s" fill="freeze" /></path></svg>