<svg id="kvg-09752" class="kanjivg" viewBox="0 0 106 106" width="106" height="106" xmlns="http://www.w3.org/2000/svg" xmlns:xlink="http://www.w3.org/1999/xlink" xml:space="preserve" version="1.1" baseProfile="full"><defs><style type="text/css">path.black{fill:none;stroke:black;stroke-width:5;stroke-linecap:round;stroke-linejoin:round;}path.grey{fill:none;stroke:#ddd;stroke-width:5;stroke-linecap:round;stroke-linejoin:round;}path.stroke{fill:none;stroke:black;stroke-width:5;stroke-linecap:round;stroke-linejoin:round;}text{font-size:16px;font-family:Segoe UI Symbol,Cambria Math,DejaVu Sans,Symbola,Quivira,STIX,Code2000;-webkit-touch-callout:none;cursor:pointer;-webkit-user-select:none;-khtml-user-select:none;-moz-user-select:none;-ms-user-select:none;user-select: none;}text:hover{color:#777;}#reset{font-weight:bold;}</style><marker id="markerStart" markerWidth="8" markerHeight="8" style="overflow:visible;"><circle cx="0" cy="0" r="1.5" style="stroke:none;fill:red;fill-opacity:0.5;"/></marker><marker id="markerEnd" style="overflow:visible;"><circle cx="0" cy="0" r="0.8" style="stroke:none;fill:blue;fill-opacity:0.5;"><animate attributeName="opacity" from="1" to="0" dur="3s" repeatCount="indefinite" /></circle></marker></defs><path d="M32.13,21.42c1.62,0.38,4.59,0.54,6.21,0.38c9.16-0.92,21.57-2.3,34.18-3.13c2.69-0.18,3.81-0.09,5.23-0.02" class="grey" /><path d="M52.81,8.63c1.15,1.15,1.76,2.62,1.76,4.42c0,0.43-0.09,28.62-0.07,30.19" class="grey" /><path d="M34,33.37c2.39,0.62,4.73,0.4,7.13,0.05c9.07-1.31,22.36-2.96,28.71-3.46c2.21-0.17,3.85-0.08,5.03-0.02" class="grey" /><path d="M13.5,47c2.5,0.75,5.8,0.86,8.88,0.55c19.41-1.93,51.54-5.05,65.69-5.8c3.1-0.16,7.07,0,9.3,0.73" class="grey" /><path d="M36.26,54.19c1.09,1.09,1.59,2.89,1.59,3.52c0,4.92,0,20.42,0,34.56c0,2.23-0.1,4.11-0.1,6.24" class="grey" /><path d="M38.2,55.78c0.59-0.03,29.02-2.73,30.58-2.8c2.47-0.11,3.73,0.89,3.73,3.05c0,3.72,0.08,26.23,0.08,38.15c0,10.58-6.97,1.31-7.86,0.57" class="grey" /><path d="M39.2,67.61c5.93-0.23,24.72-2.4,32.25-2.4" class="grey" /><path d="M39.12,79.23c5.88-0.35,24.26-1.98,32.13-2.31" class="grey" /><path d="M32.13,21.42c1.62,0.38,4.59,0.54,6.21,0.38c9.16-0.92,21.57-2.3,34.18-3.13c2.69-0.18,3.81-0.09,5.23-0.02" class="stroke" stroke-dasharray="150"><animate attributeName="stroke-dashoffset" from="150" to="0" dur="1.8s" begin="0.0s" fill="freeze" /></path><path d="M52.81,8.63c1.15,1.15,1.76,2.62,1.76,4.42c0,0.43-0.09,28.62-0.07,30.19" class="stroke" stroke-dasharray="150"><set attributeName="opacity" to="0" dur="1.2s" /><animate attributeName="stroke-dashoffset" from="150" to="0" dur="1.8s" begin="1.2s" fill="freeze" /></path><path d="M34,33.37c2.39,0.62,4.73,0.4,7.13,0.05c9.07-1.31,22.36-2.96,28.71-3.46c2.21-0.17,3.85-0.08,5.03-0.02" class="stroke" stroke-dasharray="150"><set attributeName="opacity" to="0" dur="2.2s" /><animate attributeName="stroke-dashoffset" from="150" to="0" dur="1.8s" begin="2.2s" fill="freeze" /></path><path d="M13.5,47c2.5,0.75,5.8,0.86,8.88,0.55c19.41-1.93,51.54-5.05,65.69-5.8c3.1-0.16,7.07,0,9.3,0.73" class="stroke" stroke-dasharray="150"><set attributeName="opacity" to="0" dur="3.3000000000000003s" /><animate attributeName="stroke-dashoffset" from="150" to="0" dur="1.8s" begin="3.3000000000000003s" fill="freeze" /></path><path d="M36.26,54.19c1.09,1.09,1.59,2.89,1.59,3.52c0,4.92,0,20.42,0,34.56c0,2.23-0.1,4.11-0.1,6.24" class="stroke" stroke-dasharray="150"><set attributeName="opacity" to="0" dur="5.0s" /><animate attributeName="stroke-dashoffset" from="150" to="0" dur="1.8s" begin="5.0s" fill="freeze" /></path><path d="M38.2,55.78c0.59-0.03,29.02-2.73,30.58-2.8c2.47-0.11,3.73,0.89,3.73,3.05c0,3.72,0.08,26.23,0.08,38.15c0,10.58-6.97,1.31-7.86,0.57" class="stroke" stroke-dasharray="150"><set attributeName="opacity" to="0" dur="6.1s" /><animate attributeName="stroke-dashoffset" from="150" to="0" dur="1.8s" begin="6.1s" fill="freeze" /></path><path d="M39.2,67.61c5.93-0.23,24.72-2.4,32.25-2.4" class="stroke" stroke-dasharray="150"><set attributeName="opacity" to="0" dur="7.8s" /><animate attributeName="stroke-dashoffset" from="150" to="0" dur="1.8s" begin="7.8s" fill="freeze" /></path><path d="M39.12,79.23c5.88-0.35,24.26-1.98,32.13-2.31" class="stroke" stroke-dasharray="150"><set attributeName="opacity" to="0" dur="8.8s" /><animate attributeName="stroke-dashoffset" from="150" to="0" dur="1.8s" begin="8.8s" fill="freeze" /></path></svg>