<svg id="kvg-0975e-MdFst" class="kanjivg" viewBox="0 0 106 106" width="106" height="106" xmlns="http://www.w3.org/2000/svg" xmlns:xlink="http://www.w3.org/1999/xlink" xml:space="preserve" version="1.1" baseProfile="full"><defs><style type="text/css">path.black{fill:none;stroke:black;stroke-width:5;stroke-linecap:round;stroke-linejoin:round;}path.grey{fill:none;stroke:#ddd;stroke-width:5;stroke-linecap:round;stroke-linejoin:round;}path.stroke{fill:none;stroke:black;stroke-width:5;stroke-linecap:round;stroke-linejoin:round;}text{font-size:16px;font-family:Segoe UI Symbol,Cambria Math,DejaVu Sans,Symbola,Quivira,STIX,Code2000;-webkit-touch-callout:none;cursor:pointer;-webkit-user-select:none;-khtml-user-select:none;-moz-user-select:none;-ms-user-select:none;user-select: none;}text:hover{color:#777;}#reset{font-weight:bold;}</style><marker id="markerStart" markerWidth="8" markerHeight="8" style="overflow:visible;"><circle cx="0" cy="0" r="1.5" style="stroke:none;fill:red;fill-opacity:0.5;"/></marker><marker id="markerEnd" style="overflow:visible;"><circle cx="0" cy="0" r="0.8" style="stroke:none;fill:blue;fill-opacity:0.5;"><animate attributeName="opacity" from="1" to="0" dur="3s" repeatCount="indefinite" /></circle></marker></defs><path d="M41.62,14c1.09,0.5,1.74,2.25,1.96,3.25c0.09,0.43,0.11,14.28,0.07,30.5c-0.04,21.81-0.65,37.5-14.15,51" class="grey" /><path d="M63.87,12.75c1.09,0.5,1.74,2.25,1.96,3.25c0.22,1,0,75.75-0.22,82" class="grey" /><path d="M20.75,36c1.5,0,3.25,0.25,4.75,0s13.25-1.75,15-2.5" class="grey" /><path d="M20.25,52.25c1.5,0,3.25,0.25,4.75,0s12.5-2.25,16.5-3" class="grey" /><path d="M13.75,71.52c1.5,1.73,3.55,2.78,6.04,1.71c1.46-0.63,14.25-5.71,20.46-8.73" class="grey" /><path d="M68.75,29.75c4.5-0.38,15.62-3.12,19-3.75c1.23-0.23,0.38-0.12,2.5-0.12" class="grey" /><path d="M69.12,47c4.5-0.38,16.12-2.62,19.5-3.25c1.23-0.23,0.38-0.12,2.5-0.12" class="grey" /><path d="M69,67.88c4.5-0.38,20.12-2.62,23.5-3.25c1.23-0.23,0.38-0.12,2.5-0.12" class="grey" /><path d="M41.62,14c1.09,0.5,1.74,2.25,1.96,3.25c0.09,0.43,0.11,14.28,0.07,30.5c-0.04,21.81-0.65,37.5-14.15,51" class="stroke" stroke-dasharray="150"><animate attributeName="stroke-dashoffset" from="150" to="0" dur="1.8s" begin="0.0s" fill="freeze" /></path><path d="M63.87,12.75c1.09,0.5,1.74,2.25,1.96,3.25c0.22,1,0,75.75-0.22,82" class="stroke" stroke-dasharray="150"><set attributeName="opacity" to="0" dur="1.7s" /><animate attributeName="stroke-dashoffset" from="150" to="0" dur="1.8s" begin="1.7s" fill="freeze" /></path><path d="M20.75,36c1.5,0,3.25,0.25,4.75,0s13.25-1.75,15-2.5" class="stroke" stroke-dasharray="150"><set attributeName="opacity" to="0" dur="3.4s" /><animate attributeName="stroke-dashoffset" from="150" to="0" dur="1.8s" begin="3.4s" fill="freeze" /></path><path d="M20.25,52.25c1.5,0,3.25,0.25,4.75,0s12.5-2.25,16.5-3" class="stroke" stroke-dasharray="150"><set attributeName="opacity" to="0" dur="4.3s" /><animate attributeName="stroke-dashoffset" from="150" to="0" dur="1.8s" begin="4.3s" fill="freeze" /></path><path d="M13.75,71.52c1.5,1.73,3.55,2.78,6.04,1.71c1.46-0.63,14.25-5.71,20.46-8.73" class="stroke" stroke-dasharray="150"><set attributeName="opacity" to="0" dur="5.3s" /><animate attributeName="stroke-dashoffset" from="150" to="0" dur="1.8s" begin="5.3s" fill="freeze" /></path><path d="M68.75,29.75c4.5-0.38,15.62-3.12,19-3.75c1.23-0.23,0.38-0.12,2.5-0.12" class="stroke" stroke-dasharray="150"><set attributeName="opacity" to="0" dur="6.3s" /><animate attributeName="stroke-dashoffset" from="150" to="0" dur="1.8s" begin="6.3s" fill="freeze" /></path><path d="M69.12,47c4.5-0.38,16.12-2.62,19.5-3.25c1.23-0.23,0.38-0.12,2.5-0.12" class="stroke" stroke-dasharray="150"><set attributeName="opacity" to="0" dur="7.3s" /><animate attributeName="stroke-dashoffset" from="150" to="0" dur="1.8s" begin="7.3s" fill="freeze" /></path><path d="M69,67.88c4.5-0.38,20.12-2.62,23.5-3.25c1.23-0.23,0.38-0.12,2.5-0.12" class="stroke" stroke-dasharray="150"><set attributeName="opacity" to="0" dur="8.3s" /><animate attributeName="stroke-dashoffset" from="150" to="0" dur="1.8s" begin="8.3s" fill="freeze" /></path></svg>