<svg id="kvg-0975e" class="kanjivg" viewBox="0 0 106 106" width="106" height="106" xmlns="http://www.w3.org/2000/svg" xmlns:xlink="http://www.w3.org/1999/xlink" xml:space="preserve" version="1.1" baseProfile="full"><defs><style type="text/css">path.black{fill:none;stroke:black;stroke-width:5;stroke-linecap:round;stroke-linejoin:round;}path.grey{fill:none;stroke:#ddd;stroke-width:5;stroke-linecap:round;stroke-linejoin:round;}path.stroke{fill:none;stroke:black;stroke-width:5;stroke-linecap:round;stroke-linejoin:round;}text{font-size:16px;font-family:Segoe UI Symbol,Cambria Math,DejaVu Sans,Symbola,Quivira,STIX,Code2000;-webkit-touch-callout:none;cursor:pointer;-webkit-user-select:none;-khtml-user-select:none;-moz-user-select:none;-ms-user-select:none;user-select: none;}text:hover{color:#777;}#reset{font-weight:bold;}</style><marker id="markerStart" markerWidth="8" markerHeight="8" style="overflow:visible;"><circle cx="0" cy="0" r="1.5" style="stroke:none;fill:red;fill-opacity:0.5;"/></marker><marker id="markerEnd" style="overflow:visible;"><circle cx="0" cy="0" r="0.8" style="stroke:none;fill:blue;fill-opacity:0.5;"><animate attributeName="opacity" from="1" to="0" dur="3s" repeatCount="indefinite" /></circle></marker></defs><path d="M42.12,14.75c0.75,0.75,1.43,2.23,1.46,3.25c1.55,50.38-0.2,64.5-14.08,80.75" class="grey" /><path d="M20.75,35.75c1.75,0.38,3.23,0.36,4.75,0.25c3.38-0.25,9.25-1.25,15-2.5" class="grey" /><path d="M20.25,52.5c1.38,0.25,3.24,0.19,4.75,0c3-0.38,11.12-2.12,16-3.5" class="grey" /><path d="M14.25,72.66c0.98,0.98,2.35,1.24,3.83,0.65c4.17-1.68,17.34-6.63,21.55-8.18" class="grey" /><path d="M64.37,12.25c1,1,1.46,2.5,1.46,4c0,0.85-0.11,51.5-0.11,73.25c0,4.36-0.07,7.43-0.11,8.5" class="grey" /><path d="M69.25,30c4.5-0.38,14.5-2.25,18.25-3.25c1.21-0.32,2.75-0.38,4.25-0.12" class="grey" /><path d="M69.12,47c4.38-0.12,14.62-2.12,18-2.75c1.23-0.23,2.62-0.38,4-0.12" class="grey" /><path d="M69,67.88c4.5-0.38,18.62-2.62,22-3.25c1.23-0.23,2.62-0.38,4-0.12" class="grey" /><path d="M42.12,14.75c0.75,0.75,1.43,2.23,1.46,3.25c1.55,50.38-0.2,64.5-14.08,80.75" class="stroke" stroke-dasharray="150"><animate attributeName="stroke-dashoffset" from="150" to="0" dur="1.8s" begin="0.0s" fill="freeze" /></path><path d="M20.75,35.75c1.75,0.38,3.23,0.36,4.75,0.25c3.38-0.25,9.25-1.25,15-2.5" class="stroke" stroke-dasharray="150"><set attributeName="opacity" to="0" dur="1.7s" /><animate attributeName="stroke-dashoffset" from="150" to="0" dur="1.8s" begin="1.7s" fill="freeze" /></path><path d="M20.25,52.5c1.38,0.25,3.24,0.19,4.75,0c3-0.38,11.12-2.12,16-3.5" class="stroke" stroke-dasharray="150"><set attributeName="opacity" to="0" dur="2.6s" /><animate attributeName="stroke-dashoffset" from="150" to="0" dur="1.8s" begin="2.6s" fill="freeze" /></path><path d="M14.25,72.66c0.98,0.98,2.35,1.24,3.83,0.65c4.17-1.68,17.34-6.63,21.55-8.18" class="stroke" stroke-dasharray="150"><set attributeName="opacity" to="0" dur="3.6s" /><animate attributeName="stroke-dashoffset" from="150" to="0" dur="1.8s" begin="3.6s" fill="freeze" /></path><path d="M64.37,12.25c1,1,1.46,2.5,1.46,4c0,0.85-0.11,51.5-0.11,73.25c0,4.36-0.07,7.43-0.11,8.5" class="stroke" stroke-dasharray="150"><set attributeName="opacity" to="0" dur="4.6s" /><animate attributeName="stroke-dashoffset" from="150" to="0" dur="1.8s" begin="4.6s" fill="freeze" /></path><path d="M69.25,30c4.5-0.38,14.5-2.25,18.25-3.25c1.21-0.32,2.75-0.38,4.25-0.12" class="stroke" stroke-dasharray="150"><set attributeName="opacity" to="0" dur="6.3s" /><animate attributeName="stroke-dashoffset" from="150" to="0" dur="1.8s" begin="6.3s" fill="freeze" /></path><path d="M69.12,47c4.38-0.12,14.62-2.12,18-2.75c1.23-0.23,2.62-0.38,4-0.12" class="stroke" stroke-dasharray="150"><set attributeName="opacity" to="0" dur="7.3s" /><animate attributeName="stroke-dashoffset" from="150" to="0" dur="1.8s" begin="7.3s" fill="freeze" /></path><path d="M69,67.88c4.5-0.38,18.62-2.62,22-3.25c1.23-0.23,2.62-0.38,4-0.12" class="stroke" stroke-dasharray="150"><set attributeName="opacity" to="0" dur="8.3s" /><animate attributeName="stroke-dashoffset" from="150" to="0" dur="1.8s" begin="8.3s" fill="freeze" /></path></svg>