<svg id="kvg-09769" class="kanjivg" viewBox="0 0 106 106" width="106" height="106" xmlns="http://www.w3.org/2000/svg" xmlns:xlink="http://www.w3.org/1999/xlink" xml:space="preserve" version="1.1" baseProfile="full"><defs><style type="text/css">path.black{fill:none;stroke:black;stroke-width:5;stroke-linecap:round;stroke-linejoin:round;}path.grey{fill:none;stroke:#ddd;stroke-width:5;stroke-linecap:round;stroke-linejoin:round;}path.stroke{fill:none;stroke:black;stroke-width:5;stroke-linecap:round;stroke-linejoin:round;}text{font-size:16px;font-family:Segoe UI Symbol,Cambria Math,DejaVu Sans,Symbola,Quivira,STIX,Code2000;-webkit-touch-callout:none;cursor:pointer;-webkit-user-select:none;-khtml-user-select:none;-moz-user-select:none;-ms-user-select:none;user-select: none;}text:hover{color:#777;}#reset{font-weight:bold;}</style><marker id="markerStart" markerWidth="8" markerHeight="8" style="overflow:visible;"><circle cx="0" cy="0" r="1.5" style="stroke:none;fill:red;fill-opacity:0.5;"/></marker><marker id="markerEnd" style="overflow:visible;"><circle cx="0" cy="0" r="0.8" style="stroke:none;fill:blue;fill-opacity:0.5;"><animate attributeName="opacity" from="1" to="0" dur="3s" repeatCount="indefinite" /></circle></marker></defs><path d="M22.31,23.86c2.25,0.8,5.69,0.66,8.07,0.38c12.88-1.5,35.75-3.5,50.13-4.42c2.49-0.16,4.98,0.01,7.44,0.54" class="grey" /><path d="M38.08,12.38c1.02,1.02,1.55,2.18,1.69,2.94c0.48,2.68,1.72,9.47,2.83,17.42c0.25,1.76,0.47,3.47,0.65,5.01" class="grey" /><path d="M69.23,10.75c0.52,1.12,0.69,2.51,0.44,3.69c-1.17,5.56-1.79,9.72-3.71,17.55" class="grey" /><path d="M44.08,34.94c3.67-0.31,13.71-1.07,19.68-1.53c1.83-0.14,2.99-0.16,4.04-0.04" class="grey" /><path d="M26.5,46.85c0.89,0.89,1.38,2.08,1.49,2.7c1.01,5.57,1.38,8.32,2.61,14.68c0.3,1.56,0.44,1.98,0.69,3.73" class="grey" /><path d="M28.64,48.71c14.86-1.71,43.42-4.53,49.8-5.19c2.33-0.24,4.05,1.7,3.65,3.1c-0.84,2.88-1.96,6.63-3.92,12.65" class="grey" /><path d="M32.04,63.88c6.54-0.65,30.59-2.55,42.95-3.52c1.78-0.14,3.31-0.26,4.51-0.35" class="grey" /><path d="M16.75,78.2c3.38,0.93,6.33,0.73,9.39,0.43C38.64,77.4,69.24,74.67,86,74.1c3.03-0.1,6.02-0.2,9,0.44" class="grey" /><path d="M53.87,37.25c0.81,0.81,0.96,2.48,0.96,3.5c0,4.25-0.11,35.62-0.11,51.75c0,3.14-0.07,5.46-0.11,6.5" class="grey" /><path d="M22.31,23.86c2.25,0.8,5.69,0.66,8.07,0.38c12.88-1.5,35.75-3.5,50.13-4.42c2.49-0.16,4.98,0.01,7.44,0.54" class="stroke" stroke-dasharray="150"><animate attributeName="stroke-dashoffset" from="150" to="0" dur="1.8s" begin="0.0s" fill="freeze" /></path><path d="M38.08,12.38c1.02,1.02,1.55,2.18,1.69,2.94c0.48,2.68,1.72,9.47,2.83,17.42c0.25,1.76,0.47,3.47,0.65,5.01" class="stroke" stroke-dasharray="150"><set attributeName="opacity" to="0" dur="1.5s" /><animate attributeName="stroke-dashoffset" from="150" to="0" dur="1.8s" begin="1.5s" fill="freeze" /></path><path d="M69.23,10.75c0.52,1.12,0.69,2.51,0.44,3.69c-1.17,5.56-1.79,9.72-3.71,17.55" class="stroke" stroke-dasharray="150"><set attributeName="opacity" to="0" dur="2.5s" /><animate attributeName="stroke-dashoffset" from="150" to="0" dur="1.8s" begin="2.5s" fill="freeze" /></path><path d="M44.08,34.94c3.67-0.31,13.71-1.07,19.68-1.53c1.83-0.14,2.99-0.16,4.04-0.04" class="stroke" stroke-dasharray="150"><set attributeName="opacity" to="0" dur="3.5s" /><animate attributeName="stroke-dashoffset" from="150" to="0" dur="1.8s" begin="3.5s" fill="freeze" /></path><path d="M26.5,46.85c0.89,0.89,1.38,2.08,1.49,2.7c1.01,5.57,1.38,8.32,2.61,14.68c0.3,1.56,0.44,1.98,0.69,3.73" class="stroke" stroke-dasharray="150"><set attributeName="opacity" to="0" dur="4.5s" /><animate attributeName="stroke-dashoffset" from="150" to="0" dur="1.8s" begin="4.5s" fill="freeze" /></path><path d="M28.64,48.71c14.86-1.71,43.42-4.53,49.8-5.19c2.33-0.24,4.05,1.7,3.65,3.1c-0.84,2.88-1.96,6.63-3.92,12.65" class="stroke" stroke-dasharray="150"><set attributeName="opacity" to="0" dur="5.5s" /><animate attributeName="stroke-dashoffset" from="150" to="0" dur="1.8s" begin="5.5s" fill="freeze" /></path><path d="M32.04,63.88c6.54-0.65,30.59-2.55,42.95-3.52c1.78-0.14,3.31-0.26,4.51-0.35" class="stroke" stroke-dasharray="150"><set attributeName="opacity" to="0" dur="7.0s" /><animate attributeName="stroke-dashoffset" from="150" to="0" dur="1.8s" begin="7.0s" fill="freeze" /></path><path d="M16.75,78.2c3.38,0.93,6.33,0.73,9.39,0.43C38.64,77.4,69.24,74.67,86,74.1c3.03-0.1,6.02-0.2,9,0.44" class="stroke" stroke-dasharray="150"><set attributeName="opacity" to="0" dur="8.2s" /><animate attributeName="stroke-dashoffset" from="150" to="0" dur="1.8s" begin="8.2s" fill="freeze" /></path><path d="M53.87,37.25c0.81,0.81,0.96,2.48,0.96,3.5c0,4.25-0.11,35.62-0.11,51.75c0,3.14-0.07,5.46-0.11,6.5" class="stroke" stroke-dasharray="150"><set attributeName="opacity" to="0" dur="9.899999999999999s" /><animate attributeName="stroke-dashoffset" from="150" to="0" dur="1.8s" begin="9.899999999999999s" fill="freeze" /></path></svg>