<svg id="kvg-09801-Kaisho" class="kanjivg" viewBox="0 0 106 106" width="106" height="106" xmlns="http://www.w3.org/2000/svg" xmlns:xlink="http://www.w3.org/1999/xlink" xml:space="preserve" version="1.1" baseProfile="full"><defs><style type="text/css">path.black{fill:none;stroke:black;stroke-width:5;stroke-linecap:round;stroke-linejoin:round;}path.grey{fill:none;stroke:#ddd;stroke-width:5;stroke-linecap:round;stroke-linejoin:round;}path.stroke{fill:none;stroke:black;stroke-width:5;stroke-linecap:round;stroke-linejoin:round;}text{font-size:16px;font-family:Segoe UI Symbol,Cambria Math,DejaVu Sans,Symbola,Quivira,STIX,Code2000;-webkit-touch-callout:none;cursor:pointer;-webkit-user-select:none;-khtml-user-select:none;-moz-user-select:none;-ms-user-select:none;user-select: none;}text:hover{color:#777;}#reset{font-weight:bold;}</style><marker id="markerStart" markerWidth="8" markerHeight="8" style="overflow:visible;"><circle cx="0" cy="0" r="1.5" style="stroke:none;fill:red;fill-opacity:0.5;"/></marker><marker id="markerEnd" style="overflow:visible;"><circle cx="0" cy="0" r="0.8" style="stroke:none;fill:blue;fill-opacity:0.5;"><animate attributeName="opacity" from="1" to="0" dur="3s" repeatCount="indefinite" /></circle></marker></defs><path d="M18.88,18.48c1.52,0.54,4.31,0.7,5.82,0.54c16.8-1.77,48.55-4.02,63.11-4.73c2.53-0.12,4.05,0.26,5.31,0.53" class="grey" /><path d="M55.02,18.5c0.02,0.29,0.03,0.75-0.03,1.16c-0.39,2.44-3.15,8.31-6.24,11.59" class="grey" /><path d="M33.75,32.52c0.68,1.09,1.68,1.9,1.68,3.35c0,1.45-0.46,39.94-0.46,40.67c0,0.73,0.23,0.73,0.46,2.18" class="grey" /><path d="M36.57,34.47c3.87-0.18,35.89-4.51,39.42-4.72c2.94-0.18,3.51,1.26,3.51,3.36c0,1.74-0.87,40.79-0.87,41.88" class="grey" /><path d="M36.51,48.31c6.81-0.82,13.62-1.62,20.44-2.38c2.16-0.24,4.33-0.48,6.43-0.7" class="grey" /><path d="M36.32,62.17c6.76-0.7,13.5-1.51,20.26-2.24c2-0.22,4.01-0.43,5.99-0.63" class="grey" /><path d="M35.82,76.58c8.93-1.08,30.49-4.13,41.76-4.68" class="grey" /><path d="M43.5,82.25c0.54,1.37,0.42,2.1-0.5,3.25C40,89.25,32,95,23.75,99" class="grey" /><path d="M69.5,83.08C75.92,86.31,84,93.67,85.75,96.5" class="grey" /><path d="M18.88,18.48c1.52,0.54,4.31,0.7,5.82,0.54c16.8-1.77,48.55-4.02,63.11-4.73c2.53-0.12,4.05,0.26,5.31,0.53" class="stroke" stroke-dasharray="150"><animate attributeName="stroke-dashoffset" from="150" to="0" dur="1.8s" begin="0.0s" fill="freeze" /></path><path d="M55.02,18.5c0.02,0.29,0.03,0.75-0.03,1.16c-0.39,2.44-3.15,8.31-6.24,11.59" class="stroke" stroke-dasharray="150"><set attributeName="opacity" to="0" dur="1.7s" /><animate attributeName="stroke-dashoffset" from="150" to="0" dur="1.8s" begin="1.7s" fill="freeze" /></path><path d="M33.75,32.52c0.68,1.09,1.68,1.9,1.68,3.35c0,1.45-0.46,39.94-0.46,40.67c0,0.73,0.23,0.73,0.46,2.18" class="stroke" stroke-dasharray="150"><set attributeName="opacity" to="0" dur="2.6s" /><animate attributeName="stroke-dashoffset" from="150" to="0" dur="1.8s" begin="2.6s" fill="freeze" /></path><path d="M36.57,34.47c3.87-0.18,35.89-4.51,39.42-4.72c2.94-0.18,3.51,1.26,3.51,3.36c0,1.74-0.87,40.79-0.87,41.88" class="stroke" stroke-dasharray="150"><set attributeName="opacity" to="0" dur="3.8s" /><animate attributeName="stroke-dashoffset" from="150" to="0" dur="1.8s" begin="3.8s" fill="freeze" /></path><path d="M36.51,48.31c6.81-0.82,13.62-1.62,20.44-2.38c2.16-0.24,4.33-0.48,6.43-0.7" class="stroke" stroke-dasharray="150"><set attributeName="opacity" to="0" dur="5.5s" /><animate attributeName="stroke-dashoffset" from="150" to="0" dur="1.8s" begin="5.5s" fill="freeze" /></path><path d="M36.32,62.17c6.76-0.7,13.5-1.51,20.26-2.24c2-0.22,4.01-0.43,5.99-0.63" class="stroke" stroke-dasharray="150"><set attributeName="opacity" to="0" dur="6.5s" /><animate attributeName="stroke-dashoffset" from="150" to="0" dur="1.8s" begin="6.5s" fill="freeze" /></path><path d="M35.82,76.58c8.93-1.08,30.49-4.13,41.76-4.68" class="stroke" stroke-dasharray="150"><set attributeName="opacity" to="0" dur="7.5s" /><animate attributeName="stroke-dashoffset" from="150" to="0" dur="1.8s" begin="7.5s" fill="freeze" /></path><path d="M43.5,82.25c0.54,1.37,0.42,2.1-0.5,3.25C40,89.25,32,95,23.75,99" class="stroke" stroke-dasharray="150"><set attributeName="opacity" to="0" dur="8.6s" /><animate attributeName="stroke-dashoffset" from="150" to="0" dur="1.8s" begin="8.6s" fill="freeze" /></path><path d="M69.5,83.08C75.92,86.31,84,93.67,85.75,96.5" class="stroke" stroke-dasharray="150"><set attributeName="opacity" to="0" dur="9.6s" /><animate attributeName="stroke-dashoffset" from="150" to="0" dur="1.8s" begin="9.6s" fill="freeze" /></path></svg>