<svg id="kvg-098a8" class="kanjivg" viewBox="0 0 106 106" width="106" height="106" xmlns="http://www.w3.org/2000/svg" xmlns:xlink="http://www.w3.org/1999/xlink" xml:space="preserve" version="1.1" baseProfile="full"><defs><style type="text/css">path.black{fill:none;stroke:black;stroke-width:5;stroke-linecap:round;stroke-linejoin:round;}path.grey{fill:none;stroke:#ddd;stroke-width:5;stroke-linecap:round;stroke-linejoin:round;}path.stroke{fill:none;stroke:black;stroke-width:5;stroke-linecap:round;stroke-linejoin:round;}text{font-size:16px;font-family:Segoe UI Symbol,Cambria Math,DejaVu Sans,Symbola,Quivira,STIX,Code2000;-webkit-touch-callout:none;cursor:pointer;-webkit-user-select:none;-khtml-user-select:none;-moz-user-select:none;-ms-user-select:none;user-select: none;}text:hover{color:#777;}#reset{font-weight:bold;}</style><marker id="markerStart" markerWidth="8" markerHeight="8" style="overflow:visible;"><circle cx="0" cy="0" r="1.5" style="stroke:none;fill:red;fill-opacity:0.5;"/></marker><marker id="markerEnd" style="overflow:visible;"><circle cx="0" cy="0" r="0.8" style="stroke:none;fill:blue;fill-opacity:0.5;"><animate attributeName="opacity" from="1" to="0" dur="3s" repeatCount="indefinite" /></circle></marker></defs><path d="M24.55,22.25c0.95,1.25,1.37,3.05,1.37,5.36c0,22.76,1.59,50.26-10.66,62.39" class="grey" /><path d="M26.75,23.5c1.48-0.24,3.35-0.52,5.49-0.84C46.03,20.62,63,17.75,74,17.25c4-0.18,6.09,0.97,5.5,4.75C76.25,42.75,77.25,71.75,92,87.75c6.95,7.54,5.75,1,6-5.5" class="grey" /><path d="M63.5,24.75C63.25,26,62.62,27,61.32,27.8C57.3,30.23,48.46,34.95,35.88,38" class="grey" /><path d="M33.23,49.47c0.71,0.71,1.46,1.63,1.56,2.1c0.6,2.87,1.22,5.5,2.01,10.42c0.15,0.93,0.3,1.91,0.47,2.94" class="grey" /><path d="M35.85,50.73c11.9-1.98,23.66-3.81,29.48-4.1c2.56-0.13,3.98,0.77,3.42,3.09c-0.81,3.38-1.49,4.52-2.56,8.52" class="grey" /><path d="M38.3,62.81c5.71-0.6,17.05-2.28,26.2-3.3c1.27-0.14,2.47-0.25,3.58-0.33" class="grey" /><path d="M50.07,36.5c1.09,1.09,1.35,2.25,1.35,3.64c0,3.86-0.26,30.86-0.26,37.81" class="grey" /><path d="M32.92,82.16c1.2,0.71,2.64,0.8,3.36,0.59c6.59-1.88,24.47-7.13,30.34-8.88" class="grey" /><path d="M63.75,67.85c3.5,3.52,7.62,10.15,9.36,15.31" class="grey" /><path d="M24.55,22.25c0.95,1.25,1.37,3.05,1.37,5.36c0,22.76,1.59,50.26-10.66,62.39" class="stroke" stroke-dasharray="150"><animate attributeName="stroke-dashoffset" from="150" to="0" dur="1.8s" begin="0.0s" fill="freeze" /></path><path d="M26.75,23.5c1.48-0.24,3.35-0.52,5.49-0.84C46.03,20.62,63,17.75,74,17.25c4-0.18,6.09,0.97,5.5,4.75C76.25,42.75,77.25,71.75,92,87.75c6.95,7.54,5.75,1,6-5.5" class="stroke" stroke-dasharray="150"><set attributeName="opacity" to="0" dur="1.7s" /><animate attributeName="stroke-dashoffset" from="150" to="0" dur="1.8s" begin="1.7s" fill="freeze" /></path><path d="M63.5,24.75C63.25,26,62.62,27,61.32,27.8C57.3,30.23,48.46,34.95,35.88,38" class="stroke" stroke-dasharray="150"><set attributeName="opacity" to="0" dur="3.7s" /><animate attributeName="stroke-dashoffset" from="150" to="0" dur="1.8s" begin="3.7s" fill="freeze" /></path><path d="M33.23,49.47c0.71,0.71,1.46,1.63,1.56,2.1c0.6,2.87,1.22,5.5,2.01,10.42c0.15,0.93,0.3,1.91,0.47,2.94" class="stroke" stroke-dasharray="150"><set attributeName="opacity" to="0" dur="4.7s" /><animate attributeName="stroke-dashoffset" from="150" to="0" dur="1.8s" begin="4.7s" fill="freeze" /></path><path d="M35.85,50.73c11.9-1.98,23.66-3.81,29.48-4.1c2.56-0.13,3.98,0.77,3.42,3.09c-0.81,3.38-1.49,4.52-2.56,8.52" class="stroke" stroke-dasharray="150"><set attributeName="opacity" to="0" dur="5.6000000000000005s" /><animate attributeName="stroke-dashoffset" from="150" to="0" dur="1.8s" begin="5.6000000000000005s" fill="freeze" /></path><path d="M38.3,62.81c5.71-0.6,17.05-2.28,26.2-3.3c1.27-0.14,2.47-0.25,3.58-0.33" class="stroke" stroke-dasharray="150"><set attributeName="opacity" to="0" dur="6.700000000000001s" /><animate attributeName="stroke-dashoffset" from="150" to="0" dur="1.8s" begin="6.700000000000001s" fill="freeze" /></path><path d="M50.07,36.5c1.09,1.09,1.35,2.25,1.35,3.64c0,3.86-0.26,30.86-0.26,37.81" class="stroke" stroke-dasharray="150"><set attributeName="opacity" to="0" dur="7.700000000000001s" /><animate attributeName="stroke-dashoffset" from="150" to="0" dur="1.8s" begin="7.700000000000001s" fill="freeze" /></path><path d="M32.92,82.16c1.2,0.71,2.64,0.8,3.36,0.59c6.59-1.88,24.47-7.13,30.34-8.88" class="stroke" stroke-dasharray="150"><set attributeName="opacity" to="0" dur="8.8s" /><animate attributeName="stroke-dashoffset" from="150" to="0" dur="1.8s" begin="8.8s" fill="freeze" /></path><path d="M63.75,67.85c3.5,3.52,7.62,10.15,9.36,15.31" class="stroke" stroke-dasharray="150"><set attributeName="opacity" to="0" dur="9.8s" /><animate attributeName="stroke-dashoffset" from="150" to="0" dur="1.8s" begin="9.8s" fill="freeze" /></path></svg>