<svg id="kvg-098df-Kaisho" class="kanjivg" viewBox="0 0 106 106" width="106" height="106" xmlns="http://www.w3.org/2000/svg" xmlns:xlink="http://www.w3.org/1999/xlink" xml:space="preserve" version="1.1" baseProfile="full"><defs><style type="text/css">path.black{fill:none;stroke:black;stroke-width:5;stroke-linecap:round;stroke-linejoin:round;}path.grey{fill:none;stroke:#ddd;stroke-width:5;stroke-linecap:round;stroke-linejoin:round;}path.stroke{fill:none;stroke:black;stroke-width:5;stroke-linecap:round;stroke-linejoin:round;}text{font-size:16px;font-family:Segoe UI Symbol,Cambria Math,DejaVu Sans,Symbola,Quivira,STIX,Code2000;-webkit-touch-callout:none;cursor:pointer;-webkit-user-select:none;-khtml-user-select:none;-moz-user-select:none;-ms-user-select:none;user-select: none;}text:hover{color:#777;}#reset{font-weight:bold;}</style><marker id="markerStart" markerWidth="8" markerHeight="8" style="overflow:visible;"><circle cx="0" cy="0" r="1.5" style="stroke:none;fill:red;fill-opacity:0.5;"/></marker><marker id="markerEnd" style="overflow:visible;"><circle cx="0" cy="0" r="0.8" style="stroke:none;fill:blue;fill-opacity:0.5;"><animate attributeName="opacity" from="1" to="0" dur="3s" repeatCount="indefinite" /></circle></marker></defs><path d="M52.5,10.25c0.11,0.97,0.44,2.59-0.22,3.9C46.89,24.98,30.83,42.17,14,51.5" class="grey" /><path d="M52.75,16.25c5.53,5.21,29.35,22.22,35.46,26.03c2.07,1.29,4.73,1.85,6.79,2.22" class="grey" /><path d="M49.75,28.75c2.75,2,4.75,4.25,6,6" class="grey" /><path d="M39.69,40.41c2.2-0.1,23.41-2.54,25.42-2.66c1.67-0.1,2.74,1.16,2.61,1.78C67.46,40.77,66.5,55,66.34,62.65c-0.02,0.95-0.13,1.36-0.13,1.99" class="grey" /><path d="M40.08,51.73c4.42,0,8.92-0.7,13.31-1.12c1.48-0.14,2.97-0.28,4.39-0.41" class="grey" /><path d="M39.94,63.9c6.06-0.45,17.81-1.65,25.35-2.04" class="grey" /><path d="M37,38.5c1.25,0.5,2,2.25,2.25,3.25s0.53,47.27,0.25,49.75c-0.25,2.25-0.75,5.5,2.25,3.75s10.5-7,13-9.25" class="grey" /><path d="M73.75,64c0.25,1.25,0.5,1.5,0.5,2.75s-5.5,6-7.75,7.75" class="grey" /><path d="M52,71c7.35,2.78,27.04,19.17,31.5,25" class="grey" /><path d="M52.5,10.25c0.11,0.97,0.44,2.59-0.22,3.9C46.89,24.98,30.83,42.17,14,51.5" class="stroke" stroke-dasharray="150"><animate attributeName="stroke-dashoffset" from="150" to="0" dur="1.8s" begin="0.0s" fill="freeze" /></path><path d="M52.75,16.25c5.53,5.21,29.35,22.22,35.46,26.03c2.07,1.29,4.73,1.85,6.79,2.22" class="stroke" stroke-dasharray="150"><set attributeName="opacity" to="0" dur="1.4s" /><animate attributeName="stroke-dashoffset" from="150" to="0" dur="1.8s" begin="1.4s" fill="freeze" /></path><path d="M49.75,28.75c2.75,2,4.75,4.25,6,6" class="stroke" stroke-dasharray="150"><set attributeName="opacity" to="0" dur="2.7s" /><animate attributeName="stroke-dashoffset" from="150" to="0" dur="1.8s" begin="2.7s" fill="freeze" /></path><path d="M39.69,40.41c2.2-0.1,23.41-2.54,25.42-2.66c1.67-0.1,2.74,1.16,2.61,1.78C67.46,40.77,66.5,55,66.34,62.65c-0.02,0.95-0.13,1.36-0.13,1.99" class="stroke" stroke-dasharray="150"><set attributeName="opacity" to="0" dur="3.6s" /><animate attributeName="stroke-dashoffset" from="150" to="0" dur="1.8s" begin="3.6s" fill="freeze" /></path><path d="M40.08,51.73c4.42,0,8.92-0.7,13.31-1.12c1.48-0.14,2.97-0.28,4.39-0.41" class="stroke" stroke-dasharray="150"><set attributeName="opacity" to="0" dur="4.9s" /><animate attributeName="stroke-dashoffset" from="150" to="0" dur="1.8s" begin="4.9s" fill="freeze" /></path><path d="M39.94,63.9c6.06-0.45,17.81-1.65,25.35-2.04" class="stroke" stroke-dasharray="150"><set attributeName="opacity" to="0" dur="5.800000000000001s" /><animate attributeName="stroke-dashoffset" from="150" to="0" dur="1.8s" begin="5.800000000000001s" fill="freeze" /></path><path d="M37,38.5c1.25,0.5,2,2.25,2.25,3.25s0.53,47.27,0.25,49.75c-0.25,2.25-0.75,5.5,2.25,3.75s10.5-7,13-9.25" class="stroke" stroke-dasharray="150"><set attributeName="opacity" to="0" dur="6.800000000000001s" /><animate attributeName="stroke-dashoffset" from="150" to="0" dur="1.8s" begin="6.800000000000001s" fill="freeze" /></path><path d="M73.75,64c0.25,1.25,0.5,1.5,0.5,2.75s-5.5,6-7.75,7.75" class="stroke" stroke-dasharray="150"><set attributeName="opacity" to="0" dur="8.5s" /><animate attributeName="stroke-dashoffset" from="150" to="0" dur="1.8s" begin="8.5s" fill="freeze" /></path><path d="M52,71c7.35,2.78,27.04,19.17,31.5,25" class="stroke" stroke-dasharray="150"><set attributeName="opacity" to="0" dur="9.4s" /><animate attributeName="stroke-dashoffset" from="150" to="0" dur="1.8s" begin="9.4s" fill="freeze" /></path></svg>