<svg id="kvg-098db" class="kanjivg" viewBox="0 0 106 106" width="106" height="106" xmlns="http://www.w3.org/2000/svg" xmlns:xlink="http://www.w3.org/1999/xlink" xml:space="preserve" version="1.1" baseProfile="full"><defs><style type="text/css">path.black{fill:none;stroke:black;stroke-width:5;stroke-linecap:round;stroke-linejoin:round;}path.grey{fill:none;stroke:#ddd;stroke-width:5;stroke-linecap:round;stroke-linejoin:round;}path.stroke{fill:none;stroke:black;stroke-width:5;stroke-linecap:round;stroke-linejoin:round;}text{font-size:16px;font-family:Segoe UI Symbol,Cambria Math,DejaVu Sans,Symbola,Quivira,STIX,Code2000;-webkit-touch-callout:none;cursor:pointer;-webkit-user-select:none;-khtml-user-select:none;-moz-user-select:none;-ms-user-select:none;user-select: none;}text:hover{color:#777;}#reset{font-weight:bold;}</style><marker id="markerStart" markerWidth="8" markerHeight="8" style="overflow:visible;"><circle cx="0" cy="0" r="1.5" style="stroke:none;fill:red;fill-opacity:0.5;"/></marker><marker id="markerEnd" style="overflow:visible;"><circle cx="0" cy="0" r="0.8" style="stroke:none;fill:blue;fill-opacity:0.5;"><animate attributeName="opacity" from="1" to="0" dur="3s" repeatCount="indefinite" /></circle></marker></defs><path d="M29.75,20.75c1.75,0.38,3.47,0.54,5.18,0.32c10.79-1.38,22.63-3.15,29.59-4.61c2.03-0.42,3.9-0.07,3.48,2.54c-3.25,20.5,7.88,27.25,20.25,30.5c5.4,1.42,5.75,0.75,5.25-6.5" class="grey" /><path d="M82.53,16.64c0.02,0.2,0.04,0.51-0.04,0.79c-0.47,1.66-3.2,5.31-6.94,7.54" class="grey" /><path d="M75.89,30.33c3.32,1.44,8.59,5.9,9.42,8.13" class="grey" /><path d="M49.87,25.75c1.06,1.06,1.46,2.5,1.46,3.75c0,0.87,0.02,42.99,0.03,59.88c0,2.89,0,5.05,0,6.12" class="grey" /><path d="M38.5,30.88c0,0.8-0.39,1.6-1.06,2.57c-2.96,4.22-7.56,8.81-13.69,12.81" class="grey" /><path d="M34.02,41.89c0.73,0.86,1.25,2.17,1.18,3.8C34.5,62.38,33,77.12,22.06,90.22" class="grey" /><path d="M16.5,58.75c2.5,0.75,4.85,0.52,6.78,0.19C36.01,56.73,51,52.75,63.45,48.68c3.22-1.05,4.25,0.07,3.9,3.44c-2.73,26.63,5.85,34.96,21.9,41.38c5,2,6,0.88,5-6.5" class="grey" /><path d="M83.28,56.14c0.02,0.2,0.05,0.51-0.05,0.79c-0.56,1.66-3.78,5.3-8.18,7.54" class="grey" /><path d="M76,70.88c3.29,1.52,8.49,6.23,9.31,8.59" class="grey" /><path d="M29.75,20.75c1.75,0.38,3.47,0.54,5.18,0.32c10.79-1.38,22.63-3.15,29.59-4.61c2.03-0.42,3.9-0.07,3.48,2.54c-3.25,20.5,7.88,27.25,20.25,30.5c5.4,1.42,5.75,0.75,5.25-6.5" class="stroke" stroke-dasharray="150"><animate attributeName="stroke-dashoffset" from="150" to="0" dur="1.8s" begin="0.0s" fill="freeze" /></path><path d="M82.53,16.64c0.02,0.2,0.04,0.51-0.04,0.79c-0.47,1.66-3.2,5.31-6.94,7.54" class="stroke" stroke-dasharray="150"><set attributeName="opacity" to="0" dur="1.8s" /><animate attributeName="stroke-dashoffset" from="150" to="0" dur="1.8s" begin="1.8s" fill="freeze" /></path><path d="M75.89,30.33c3.32,1.44,8.59,5.9,9.42,8.13" class="stroke" stroke-dasharray="150"><set attributeName="opacity" to="0" dur="2.7s" /><animate attributeName="stroke-dashoffset" from="150" to="0" dur="1.8s" begin="2.7s" fill="freeze" /></path><path d="M49.87,25.75c1.06,1.06,1.46,2.5,1.46,3.75c0,0.87,0.02,42.99,0.03,59.88c0,2.89,0,5.05,0,6.12" class="stroke" stroke-dasharray="150"><set attributeName="opacity" to="0" dur="3.6s" /><animate attributeName="stroke-dashoffset" from="150" to="0" dur="1.8s" begin="3.6s" fill="freeze" /></path><path d="M38.5,30.88c0,0.8-0.39,1.6-1.06,2.57c-2.96,4.22-7.56,8.81-13.69,12.81" class="stroke" stroke-dasharray="150"><set attributeName="opacity" to="0" dur="5.3s" /><animate attributeName="stroke-dashoffset" from="150" to="0" dur="1.8s" begin="5.3s" fill="freeze" /></path><path d="M34.02,41.89c0.73,0.86,1.25,2.17,1.18,3.8C34.5,62.38,33,77.12,22.06,90.22" class="stroke" stroke-dasharray="150"><set attributeName="opacity" to="0" dur="6.3s" /><animate attributeName="stroke-dashoffset" from="150" to="0" dur="1.8s" begin="6.3s" fill="freeze" /></path><path d="M16.5,58.75c2.5,0.75,4.85,0.52,6.78,0.19C36.01,56.73,51,52.75,63.45,48.68c3.22-1.05,4.25,0.07,3.9,3.44c-2.73,26.63,5.85,34.96,21.9,41.38c5,2,6,0.88,5-6.5" class="stroke" stroke-dasharray="150"><set attributeName="opacity" to="0" dur="7.6s" /><animate attributeName="stroke-dashoffset" from="150" to="0" dur="1.8s" begin="7.6s" fill="freeze" /></path><path d="M83.28,56.14c0.02,0.2,0.05,0.51-0.05,0.79c-0.56,1.66-3.78,5.3-8.18,7.54" class="stroke" stroke-dasharray="150"><set attributeName="opacity" to="0" dur="9.6s" /><animate attributeName="stroke-dashoffset" from="150" to="0" dur="1.8s" begin="9.6s" fill="freeze" /></path><path d="M76,70.88c3.29,1.52,8.49,6.23,9.31,8.59" class="stroke" stroke-dasharray="150"><set attributeName="opacity" to="0" dur="10.5s" /><animate attributeName="stroke-dashoffset" from="150" to="0" dur="1.8s" begin="10.5s" fill="freeze" /></path></svg>