<svg id="kvg-098df" class="kanjivg" viewBox="0 0 106 106" width="106" height="106" xmlns="http://www.w3.org/2000/svg" xmlns:xlink="http://www.w3.org/1999/xlink" xml:space="preserve" version="1.1" baseProfile="full"><defs><style type="text/css">path.black{fill:none;stroke:black;stroke-width:5;stroke-linecap:round;stroke-linejoin:round;}path.grey{fill:none;stroke:#ddd;stroke-width:5;stroke-linecap:round;stroke-linejoin:round;}path.stroke{fill:none;stroke:black;stroke-width:5;stroke-linecap:round;stroke-linejoin:round;}text{font-size:16px;font-family:Segoe UI Symbol,Cambria Math,DejaVu Sans,Symbola,Quivira,STIX,Code2000;-webkit-touch-callout:none;cursor:pointer;-webkit-user-select:none;-khtml-user-select:none;-moz-user-select:none;-ms-user-select:none;user-select: none;}text:hover{color:#777;}#reset{font-weight:bold;}</style><marker id="markerStart" markerWidth="8" markerHeight="8" style="overflow:visible;"><circle cx="0" cy="0" r="1.5" style="stroke:none;fill:red;fill-opacity:0.5;"/></marker><marker id="markerEnd" style="overflow:visible;"><circle cx="0" cy="0" r="0.8" style="stroke:none;fill:blue;fill-opacity:0.5;"><animate attributeName="opacity" from="1" to="0" dur="3s" repeatCount="indefinite" /></circle></marker></defs><path d="M52.75,10.5c0.11,0.98-0.19,2.67-0.97,3.93C45,25.34,31.75,41.19,14,51.5" class="grey" /><path d="M52.75,16.25c5.09,4.8,25.71,19.61,33.7,24.9c2.68,1.78,5.37,2.79,8.55,3.35" class="grey" /><path d="M52.25,29.25c1,1,1.5,2.25,1.5,3.5c0,2,0,3,0,5.5" class="grey" /><path d="M38,40c0.83,0.47,2.19,1,3.86,0.83c9.39-0.96,21.95-2.76,23.25-2.84c1.67-0.1,3.14,0.88,3.11,2.53C68.2,41.8,67,53.25,66.34,62.4c-0.07,0.94-0.13,1.36-0.13,1.99" class="grey" /><path d="M40.83,51.73C47.25,51.25,59.5,50,66,49.75" class="grey" /><path d="M40.69,63.9c7.04-0.52,16.55-1.62,24.6-2.04" class="grey" /><path d="M38.25,40.25c1.12,1.12,1.5,2.62,1.5,4c0,9.12,0,43.62,0,47.25c0,4,1,4.88,4.12,2.88c2.93-1.87,6.75-5.25,10.88-8.38" class="grey" /><path d="M74,64c0.25,1.25,0.09,2.57-0.75,3.5c-3.5,3.88-4.5,4.88-7.25,7.5" class="grey" /><path d="M51.5,71C55.75,71,77,90,81,92.75c2.49,1.71,4.62,2.62,7.5,3.5" class="grey" /><path d="M52.75,10.5c0.11,0.98-0.19,2.67-0.97,3.93C45,25.34,31.75,41.19,14,51.5" class="stroke" stroke-dasharray="150"><animate attributeName="stroke-dashoffset" from="150" to="0" dur="1.8s" begin="0.0s" fill="freeze" /></path><path d="M52.75,16.25c5.09,4.8,25.71,19.61,33.7,24.9c2.68,1.78,5.37,2.79,8.55,3.35" class="stroke" stroke-dasharray="150"><set attributeName="opacity" to="0" dur="1.4s" /><animate attributeName="stroke-dashoffset" from="150" to="0" dur="1.8s" begin="1.4s" fill="freeze" /></path><path d="M52.25,29.25c1,1,1.5,2.25,1.5,3.5c0,2,0,3,0,5.5" class="stroke" stroke-dasharray="150"><set attributeName="opacity" to="0" dur="2.7s" /><animate attributeName="stroke-dashoffset" from="150" to="0" dur="1.8s" begin="2.7s" fill="freeze" /></path><path d="M38,40c0.83,0.47,2.19,1,3.86,0.83c9.39-0.96,21.95-2.76,23.25-2.84c1.67-0.1,3.14,0.88,3.11,2.53C68.2,41.8,67,53.25,66.34,62.4c-0.07,0.94-0.13,1.36-0.13,1.99" class="stroke" stroke-dasharray="150"><set attributeName="opacity" to="0" dur="3.6s" /><animate attributeName="stroke-dashoffset" from="150" to="0" dur="1.8s" begin="3.6s" fill="freeze" /></path><path d="M40.83,51.73C47.25,51.25,59.5,50,66,49.75" class="stroke" stroke-dasharray="150"><set attributeName="opacity" to="0" dur="5.0s" /><animate attributeName="stroke-dashoffset" from="150" to="0" dur="1.8s" begin="5.0s" fill="freeze" /></path><path d="M40.69,63.9c7.04-0.52,16.55-1.62,24.6-2.04" class="stroke" stroke-dasharray="150"><set attributeName="opacity" to="0" dur="6.0s" /><animate attributeName="stroke-dashoffset" from="150" to="0" dur="1.8s" begin="6.0s" fill="freeze" /></path><path d="M38.25,40.25c1.12,1.12,1.5,2.62,1.5,4c0,9.12,0,43.62,0,47.25c0,4,1,4.88,4.12,2.88c2.93-1.87,6.75-5.25,10.88-8.38" class="stroke" stroke-dasharray="150"><set attributeName="opacity" to="0" dur="7.0s" /><animate attributeName="stroke-dashoffset" from="150" to="0" dur="1.8s" begin="7.0s" fill="freeze" /></path><path d="M74,64c0.25,1.25,0.09,2.57-0.75,3.5c-3.5,3.88-4.5,4.88-7.25,7.5" class="stroke" stroke-dasharray="150"><set attributeName="opacity" to="0" dur="8.7s" /><animate attributeName="stroke-dashoffset" from="150" to="0" dur="1.8s" begin="8.7s" fill="freeze" /></path><path d="M51.5,71C55.75,71,77,90,81,92.75c2.49,1.71,4.62,2.62,7.5,3.5" class="stroke" stroke-dasharray="150"><set attributeName="opacity" to="0" dur="9.6s" /><animate attributeName="stroke-dashoffset" from="150" to="0" dur="1.8s" begin="9.6s" fill="freeze" /></path></svg>