<svg id="kvg-09999" class="kanjivg" viewBox="0 0 106 106" width="106" height="106" xmlns="http://www.w3.org/2000/svg" xmlns:xlink="http://www.w3.org/1999/xlink" xml:space="preserve" version="1.1" baseProfile="full"><defs><style type="text/css">path.black{fill:none;stroke:black;stroke-width:5;stroke-linecap:round;stroke-linejoin:round;}path.grey{fill:none;stroke:#ddd;stroke-width:5;stroke-linecap:round;stroke-linejoin:round;}path.stroke{fill:none;stroke:black;stroke-width:5;stroke-linecap:round;stroke-linejoin:round;}text{font-size:16px;font-family:Segoe UI Symbol,Cambria Math,DejaVu Sans,Symbola,Quivira,STIX,Code2000;-webkit-touch-callout:none;cursor:pointer;-webkit-user-select:none;-khtml-user-select:none;-moz-user-select:none;-ms-user-select:none;user-select: none;}text:hover{color:#777;}#reset{font-weight:bold;}</style><marker id="markerStart" markerWidth="8" markerHeight="8" style="overflow:visible;"><circle cx="0" cy="0" r="1.5" style="stroke:none;fill:red;fill-opacity:0.5;"/></marker><marker id="markerEnd" style="overflow:visible;"><circle cx="0" cy="0" r="0.8" style="stroke:none;fill:blue;fill-opacity:0.5;"><animate attributeName="opacity" from="1" to="0" dur="3s" repeatCount="indefinite" /></circle></marker></defs><path d="M65.23,10.73c0,0.77-0.48,1.39-1.77,2.14c-4.44,2.56-16.84,7.14-33.18,10" class="grey" /><path d="M19.83,37.05c3.03,0.92,6.11,0.55,9.19,0.16c10.11-1.27,31.35-4.46,44.5-5.83c3.46-0.36,7.03-0.45,10.46,0.18" class="grey" /><path d="M52.73,21.06c0.92,0.92,1.08,2.19,1.08,3.85c0,6.46-0.04,16.84-0.04,27.59c0,1.8-0.02,3.57-0.02,5.25" class="grey" /><path d="M47.98,35.41c0,1.09-0.95,2.31-2.09,3.67c-7.48,8.93-19.42,19.21-31.13,24.39" class="grey" /><path d="M56.04,34.96c4.46,3.79,16.83,13.67,27.53,20.13c2.94,1.78,6.56,3.54,9.68,4.52" class="grey" /><path d="M33.02,65.47c0.76,0.76,1.42,2.12,1.53,3.07c0.83,7.34,1.84,16.47,2.84,24.76c0.21,1.78,0.43,3.45,0.66,4.95" class="grey" /><path d="M35.44,67.59c8.15-1.36,24.31-3.72,36.08-4.79c3.5-0.32,6.77,0.39,6.35,4.71c-0.45,4.67-1.85,15.6-2.74,22.26c-0.3,2.22-0.54,3.97-0.68,4.85" class="grey" /><path d="M36.58,80.52c8.29-0.9,31.17-3.65,39.22-4.11" class="grey" /><path d="M38.44,94.26C46.12,93.5,63.88,92,74.29,91.4" class="grey" /><path d="M65.23,10.73c0,0.77-0.48,1.39-1.77,2.14c-4.44,2.56-16.84,7.14-33.18,10" class="stroke" stroke-dasharray="150"><animate attributeName="stroke-dashoffset" from="150" to="0" dur="1.8s" begin="0.0s" fill="freeze" /></path><path d="M19.83,37.05c3.03,0.92,6.11,0.55,9.19,0.16c10.11-1.27,31.35-4.46,44.5-5.83c3.46-0.36,7.03-0.45,10.46,0.18" class="stroke" stroke-dasharray="150"><set attributeName="opacity" to="0" dur="1.0s" /><animate attributeName="stroke-dashoffset" from="150" to="0" dur="1.8s" begin="1.0s" fill="freeze" /></path><path d="M52.73,21.06c0.92,0.92,1.08,2.19,1.08,3.85c0,6.46-0.04,16.84-0.04,27.59c0,1.8-0.02,3.57-0.02,5.25" class="stroke" stroke-dasharray="150"><set attributeName="opacity" to="0" dur="2.5s" /><animate attributeName="stroke-dashoffset" from="150" to="0" dur="1.8s" begin="2.5s" fill="freeze" /></path><path d="M47.98,35.41c0,1.09-0.95,2.31-2.09,3.67c-7.48,8.93-19.42,19.21-31.13,24.39" class="stroke" stroke-dasharray="150"><set attributeName="opacity" to="0" dur="3.5s" /><animate attributeName="stroke-dashoffset" from="150" to="0" dur="1.8s" begin="3.5s" fill="freeze" /></path><path d="M56.04,34.96c4.46,3.79,16.83,13.67,27.53,20.13c2.94,1.78,6.56,3.54,9.68,4.52" class="stroke" stroke-dasharray="150"><set attributeName="opacity" to="0" dur="4.6s" /><animate attributeName="stroke-dashoffset" from="150" to="0" dur="1.8s" begin="4.6s" fill="freeze" /></path><path d="M33.02,65.47c0.76,0.76,1.42,2.12,1.53,3.07c0.83,7.34,1.84,16.47,2.84,24.76c0.21,1.78,0.43,3.45,0.66,4.95" class="stroke" stroke-dasharray="150"><set attributeName="opacity" to="0" dur="5.699999999999999s" /><animate attributeName="stroke-dashoffset" from="150" to="0" dur="1.8s" begin="5.699999999999999s" fill="freeze" /></path><path d="M35.44,67.59c8.15-1.36,24.31-3.72,36.08-4.79c3.5-0.32,6.77,0.39,6.35,4.71c-0.45,4.67-1.85,15.6-2.74,22.26c-0.3,2.22-0.54,3.97-0.68,4.85" class="stroke" stroke-dasharray="150"><set attributeName="opacity" to="0" dur="6.699999999999999s" /><animate attributeName="stroke-dashoffset" from="150" to="0" dur="1.8s" begin="6.699999999999999s" fill="freeze" /></path><path d="M36.58,80.52c8.29-0.9,31.17-3.65,39.22-4.11" class="stroke" stroke-dasharray="150"><set attributeName="opacity" to="0" dur="8.399999999999999s" /><animate attributeName="stroke-dashoffset" from="150" to="0" dur="1.8s" begin="8.399999999999999s" fill="freeze" /></path><path d="M38.44,94.26C46.12,93.5,63.88,92,74.29,91.4" class="stroke" stroke-dasharray="150"><set attributeName="opacity" to="0" dur="9.399999999999999s" /><animate attributeName="stroke-dashoffset" from="150" to="0" dur="1.8s" begin="9.399999999999999s" fill="freeze" /></path></svg>