<svg id="kvg-09996-Kaisho" class="kanjivg" viewBox="0 0 106 106" width="106" height="106" xmlns="http://www.w3.org/2000/svg" xmlns:xlink="http://www.w3.org/1999/xlink" xml:space="preserve" version="1.1" baseProfile="full"><defs><style type="text/css">path.black{fill:none;stroke:black;stroke-width:5;stroke-linecap:round;stroke-linejoin:round;}path.grey{fill:none;stroke:#ddd;stroke-width:5;stroke-linecap:round;stroke-linejoin:round;}path.stroke{fill:none;stroke:black;stroke-width:5;stroke-linecap:round;stroke-linejoin:round;}text{font-size:16px;font-family:Segoe UI Symbol,Cambria Math,DejaVu Sans,Symbola,Quivira,STIX,Code2000;-webkit-touch-callout:none;cursor:pointer;-webkit-user-select:none;-khtml-user-select:none;-moz-user-select:none;-ms-user-select:none;user-select: none;}text:hover{color:#777;}#reset{font-weight:bold;}</style><marker id="markerStart" markerWidth="8" markerHeight="8" style="overflow:visible;"><circle cx="0" cy="0" r="1.5" style="stroke:none;fill:red;fill-opacity:0.5;"/></marker><marker id="markerEnd" style="overflow:visible;"><circle cx="0" cy="0" r="0.8" style="stroke:none;fill:blue;fill-opacity:0.5;"><animate attributeName="opacity" from="1" to="0" dur="3s" repeatCount="indefinite" /></circle></marker></defs><path d="M35.75,18c2.84,1.76,7.35,7.23,8.06,9.97" class="grey" /><path d="M70.22,13.68c0.02,0.37,0.05,0.95-0.05,1.47c-0.56,3.11-3.78,9.93-8.18,14.1" class="grey" /><path d="M15.88,36.98c1.52,0.54,4.3,0.63,5.82,0.54c15.8-0.91,42.05-6.77,66.11-7.23c2.53-0.05,4.05,0.26,5.31,0.53" class="grey" /><path d="M53.27,35.67c0.36,0.15-0.33,2.53-0.55,2.95c-1.47,2.8-2.97,6.6-6.42,10.27" class="grey" /><path d="M35.31,50.24c0.6,1.02,1.48,1.77,1.48,3.13c0,1.35-0.4,37.25-0.4,37.93c0,0.68,0.2,2.1,0.4,3.45" class="grey" /><path d="M37.8,50.66c3.41-0.17,29.38-3.34,32.48-3.54c2.59-0.17,4.63,0.95,4.41,2.2c-0.28,1.59-1.01,24.21-1,39.11c0,1.53,0,3.21-0.2,4.22" class="grey" /><path d="M37.74,63.77c6.01-0.2,12.04-1.04,18.02-1.66c1.81-0.19,3.62-0.38,5.34-0.55" class="grey" /><path d="M38.02,77.43c5.78-0.37,12.54-1.11,18.31-1.73c1.59-0.17,3.19-0.34,4.75-0.49" class="grey" /><path d="M38.34,92.13c6.77,0,24.58-2.52,33.35-2.52" class="grey" /><path d="M35.75,18c2.84,1.76,7.35,7.23,8.06,9.97" class="stroke" stroke-dasharray="150"><animate attributeName="stroke-dashoffset" from="150" to="0" dur="1.8s" begin="0.0s" fill="freeze" /></path><path d="M70.22,13.68c0.02,0.37,0.05,0.95-0.05,1.47c-0.56,3.11-3.78,9.93-8.18,14.1" class="stroke" stroke-dasharray="150"><set attributeName="opacity" to="0" dur="0.9s" /><animate attributeName="stroke-dashoffset" from="150" to="0" dur="1.8s" begin="0.9s" fill="freeze" /></path><path d="M15.88,36.98c1.52,0.54,4.3,0.63,5.82,0.54c15.8-0.91,42.05-6.77,66.11-7.23c2.53-0.05,4.05,0.26,5.31,0.53" class="stroke" stroke-dasharray="150"><set attributeName="opacity" to="0" dur="1.8s" /><animate attributeName="stroke-dashoffset" from="150" to="0" dur="1.8s" begin="1.8s" fill="freeze" /></path><path d="M53.27,35.67c0.36,0.15-0.33,2.53-0.55,2.95c-1.47,2.8-2.97,6.6-6.42,10.27" class="stroke" stroke-dasharray="150"><set attributeName="opacity" to="0" dur="3.5s" /><animate attributeName="stroke-dashoffset" from="150" to="0" dur="1.8s" begin="3.5s" fill="freeze" /></path><path d="M35.31,50.24c0.6,1.02,1.48,1.77,1.48,3.13c0,1.35-0.4,37.25-0.4,37.93c0,0.68,0.2,2.1,0.4,3.45" class="stroke" stroke-dasharray="150"><set attributeName="opacity" to="0" dur="4.4s" /><animate attributeName="stroke-dashoffset" from="150" to="0" dur="1.8s" begin="4.4s" fill="freeze" /></path><path d="M37.8,50.66c3.41-0.17,29.38-3.34,32.48-3.54c2.59-0.17,4.63,0.95,4.41,2.2c-0.28,1.59-1.01,24.21-1,39.11c0,1.53,0,3.21-0.2,4.22" class="stroke" stroke-dasharray="150"><set attributeName="opacity" to="0" dur="5.5s" /><animate attributeName="stroke-dashoffset" from="150" to="0" dur="1.8s" begin="5.5s" fill="freeze" /></path><path d="M37.74,63.77c6.01-0.2,12.04-1.04,18.02-1.66c1.81-0.19,3.62-0.38,5.34-0.55" class="stroke" stroke-dasharray="150"><set attributeName="opacity" to="0" dur="7.2s" /><animate attributeName="stroke-dashoffset" from="150" to="0" dur="1.8s" begin="7.2s" fill="freeze" /></path><path d="M38.02,77.43c5.78-0.37,12.54-1.11,18.31-1.73c1.59-0.17,3.19-0.34,4.75-0.49" class="stroke" stroke-dasharray="150"><set attributeName="opacity" to="0" dur="8.2s" /><animate attributeName="stroke-dashoffset" from="150" to="0" dur="1.8s" begin="8.2s" fill="freeze" /></path><path d="M38.34,92.13c6.77,0,24.58-2.52,33.35-2.52" class="stroke" stroke-dasharray="150"><set attributeName="opacity" to="0" dur="9.2s" /><animate attributeName="stroke-dashoffset" from="150" to="0" dur="1.8s" begin="9.2s" fill="freeze" /></path></svg>