<svg id="kvg-09999-Kaisho" class="kanjivg" viewBox="0 0 106 106" width="106" height="106" xmlns="http://www.w3.org/2000/svg" xmlns:xlink="http://www.w3.org/1999/xlink" xml:space="preserve" version="1.1" baseProfile="full"><defs><style type="text/css">path.black{fill:none;stroke:black;stroke-width:5;stroke-linecap:round;stroke-linejoin:round;}path.grey{fill:none;stroke:#ddd;stroke-width:5;stroke-linecap:round;stroke-linejoin:round;}path.stroke{fill:none;stroke:black;stroke-width:5;stroke-linecap:round;stroke-linejoin:round;}text{font-size:16px;font-family:Segoe UI Symbol,Cambria Math,DejaVu Sans,Symbola,Quivira,STIX,Code2000;-webkit-touch-callout:none;cursor:pointer;-webkit-user-select:none;-khtml-user-select:none;-moz-user-select:none;-ms-user-select:none;user-select: none;}text:hover{color:#777;}#reset{font-weight:bold;}</style><marker id="markerStart" markerWidth="8" markerHeight="8" style="overflow:visible;"><circle cx="0" cy="0" r="1.5" style="stroke:none;fill:red;fill-opacity:0.5;"/></marker><marker id="markerEnd" style="overflow:visible;"><circle cx="0" cy="0" r="0.8" style="stroke:none;fill:blue;fill-opacity:0.5;"><animate attributeName="opacity" from="1" to="0" dur="3s" repeatCount="indefinite" /></circle></marker></defs><path d="M64.98,10.73c0.1,0.29,0.21,0.74-0.19,1.15c-2.36,2.42-15.94,7.74-34.51,10.99" class="grey" /><path d="M19.83,37.55c0.66,0.2,3.32,0.74,5.09,0.6c7.96-0.6,40.59-6.16,54.22-7.04c1.76-0.11,3.48,0.24,4.59,0.44" class="grey" /><path d="M51.73,19.81c1.15,0.59,2.08,2.64,2.08,3.85c0,7.59-0.31,22.32-0.31,33.59" class="grey" /><path d="M49.23,35.16C42.29,44.6,28.5,58,15,63.97" class="grey" /><path d="M56.04,34.46c4.79,3.45,26.7,19.78,31.91,23.18c1.77,1.15,3.28,1.64,5.04,1.97" class="grey" /><path d="M33.27,65.47c0.39,0.73,1.12,2.11,1.28,3.07c1.2,7.21,2.2,21.21,3.5,29.71" class="grey" /><path d="M34.69,67.59c9.56-1.59,36.93-4.8,38.92-5.1c1.64-0.24,4.34,1.77,4.11,4.07C77,74,76,84.25,74.71,94.87" class="grey" /><path d="M36.58,80.77c6.94-1.23,14.04-1.82,21.04-2.53c2.12-0.22,4.21-0.42,6.19-0.61" class="grey" /><path d="M37.94,94.51c6.06-0.52,28.31-2.42,35.85-2.87" class="grey" /><path d="M64.98,10.73c0.1,0.29,0.21,0.74-0.19,1.15c-2.36,2.42-15.94,7.74-34.51,10.99" class="stroke" stroke-dasharray="150"><animate attributeName="stroke-dashoffset" from="150" to="0" dur="1.8s" begin="0.0s" fill="freeze" /></path><path d="M19.83,37.55c0.66,0.2,3.32,0.74,5.09,0.6c7.96-0.6,40.59-6.16,54.22-7.04c1.76-0.11,3.48,0.24,4.59,0.44" class="stroke" stroke-dasharray="150"><set attributeName="opacity" to="0" dur="1.0s" /><animate attributeName="stroke-dashoffset" from="150" to="0" dur="1.8s" begin="1.0s" fill="freeze" /></path><path d="M51.73,19.81c1.15,0.59,2.08,2.64,2.08,3.85c0,7.59-0.31,22.32-0.31,33.59" class="stroke" stroke-dasharray="150"><set attributeName="opacity" to="0" dur="2.5s" /><animate attributeName="stroke-dashoffset" from="150" to="0" dur="1.8s" begin="2.5s" fill="freeze" /></path><path d="M49.23,35.16C42.29,44.6,28.5,58,15,63.97" class="stroke" stroke-dasharray="150"><set attributeName="opacity" to="0" dur="3.5s" /><animate attributeName="stroke-dashoffset" from="150" to="0" dur="1.8s" begin="3.5s" fill="freeze" /></path><path d="M56.04,34.46c4.79,3.45,26.7,19.78,31.91,23.18c1.77,1.15,3.28,1.64,5.04,1.97" class="stroke" stroke-dasharray="150"><set attributeName="opacity" to="0" dur="4.7s" /><animate attributeName="stroke-dashoffset" from="150" to="0" dur="1.8s" begin="4.7s" fill="freeze" /></path><path d="M33.27,65.47c0.39,0.73,1.12,2.11,1.28,3.07c1.2,7.21,2.2,21.21,3.5,29.71" class="stroke" stroke-dasharray="150"><set attributeName="opacity" to="0" dur="5.800000000000001s" /><animate attributeName="stroke-dashoffset" from="150" to="0" dur="1.8s" begin="5.800000000000001s" fill="freeze" /></path><path d="M34.69,67.59c9.56-1.59,36.93-4.8,38.92-5.1c1.64-0.24,4.34,1.77,4.11,4.07C77,74,76,84.25,74.71,94.87" class="stroke" stroke-dasharray="150"><set attributeName="opacity" to="0" dur="6.800000000000001s" /><animate attributeName="stroke-dashoffset" from="150" to="0" dur="1.8s" begin="6.800000000000001s" fill="freeze" /></path><path d="M36.58,80.77c6.94-1.23,14.04-1.82,21.04-2.53c2.12-0.22,4.21-0.42,6.19-0.61" class="stroke" stroke-dasharray="150"><set attributeName="opacity" to="0" dur="8.5s" /><animate attributeName="stroke-dashoffset" from="150" to="0" dur="1.8s" begin="8.5s" fill="freeze" /></path><path d="M37.94,94.51c6.06-0.52,28.31-2.42,35.85-2.87" class="stroke" stroke-dasharray="150"><set attributeName="opacity" to="0" dur="9.5s" /><animate attributeName="stroke-dashoffset" from="150" to="0" dur="1.8s" begin="9.5s" fill="freeze" /></path></svg>