<svg id="kvg-099ac" class="kanjivg" viewBox="0 0 106 106" width="106" height="106" xmlns="http://www.w3.org/2000/svg" xmlns:xlink="http://www.w3.org/1999/xlink" xml:space="preserve" version="1.1" baseProfile="full"><defs><style type="text/css">path.black{fill:none;stroke:black;stroke-width:5;stroke-linecap:round;stroke-linejoin:round;}path.grey{fill:none;stroke:#ddd;stroke-width:5;stroke-linecap:round;stroke-linejoin:round;}path.stroke{fill:none;stroke:black;stroke-width:5;stroke-linecap:round;stroke-linejoin:round;}text{font-size:16px;font-family:Segoe UI Symbol,Cambria Math,DejaVu Sans,Symbola,Quivira,STIX,Code2000;-webkit-touch-callout:none;cursor:pointer;-webkit-user-select:none;-khtml-user-select:none;-moz-user-select:none;-ms-user-select:none;user-select: none;}text:hover{color:#777;}#reset{font-weight:bold;}</style><marker id="markerStart" markerWidth="8" markerHeight="8" style="overflow:visible;"><circle cx="0" cy="0" r="1.5" style="stroke:none;fill:red;fill-opacity:0.5;"/></marker><marker id="markerEnd" style="overflow:visible;"><circle cx="0" cy="0" r="0.8" style="stroke:none;fill:blue;fill-opacity:0.5;"><animate attributeName="opacity" from="1" to="0" dur="3s" repeatCount="indefinite" /></circle></marker></defs><path d="M28.5,17c0.75,1,1.2,2.25,1.2,3.62c0,5.72,0.04,26.84-0.13,39.38c-0.03,2-0.06,3.76-0.1,5.2" class="grey" /><path d="M31.03,19.3c11.22-1.3,37.4-4.84,42.22-5.55c1.68-0.25,4.53-0.53,5.38-0.35" class="grey" /><path d="M53.13,17.82c0.62,1.18,0.82,2.18,0.82,3.55c0,6.64-0.23,28.88-0.23,39.08" class="grey" /><path d="M30.78,33.8C42,32.5,66.44,29.71,71.25,29c1.68-0.25,4.53-0.53,5.38-0.35" class="grey" /><path d="M30.78,48.05C42,46.75,66.69,43.71,71.5,43c1.68-0.25,4.53-0.53,5.38-0.35" class="grey" /><path d="M30.73,63.53C44,62,78.04,57.88,85.9,57.01c5.12-0.57,7.34,2.58,6.82,6.53c-1.48,11.21-4.23,19.71-7.48,27.21c-4.45,10.27-6.5,5.5-11.7,0.2" class="grey" /><path d="M17.31,76.25c0.44,6-0.31,13.25-1.6,17" class="grey" /><path d="M33.75,74.25c2.55,2.65,4.98,9.93,5.62,14.05" class="grey" /><path d="M51,71c2.03,2.22,5.25,9.12,5.76,12.58" class="grey" /><path d="M68.25,67.75c2.74,2.14,7.07,8.78,7.75,12.1" class="grey" /><path d="M28.5,17c0.75,1,1.2,2.25,1.2,3.62c0,5.72,0.04,26.84-0.13,39.38c-0.03,2-0.06,3.76-0.1,5.2" class="stroke" stroke-dasharray="150"><animate attributeName="stroke-dashoffset" from="150" to="0" dur="1.8s" begin="0.0s" fill="freeze" /></path><path d="M31.03,19.3c11.22-1.3,37.4-4.84,42.22-5.55c1.68-0.25,4.53-0.53,5.38-0.35" class="stroke" stroke-dasharray="150"><set attributeName="opacity" to="0" dur="1.2s" /><animate attributeName="stroke-dashoffset" from="150" to="0" dur="1.8s" begin="1.2s" fill="freeze" /></path><path d="M53.13,17.82c0.62,1.18,0.82,2.18,0.82,3.55c0,6.64-0.23,28.88-0.23,39.08" class="stroke" stroke-dasharray="150"><set attributeName="opacity" to="0" dur="2.4s" /><animate attributeName="stroke-dashoffset" from="150" to="0" dur="1.8s" begin="2.4s" fill="freeze" /></path><path d="M30.78,33.8C42,32.5,66.44,29.71,71.25,29c1.68-0.25,4.53-0.53,5.38-0.35" class="stroke" stroke-dasharray="150"><set attributeName="opacity" to="0" dur="3.5s" /><animate attributeName="stroke-dashoffset" from="150" to="0" dur="1.8s" begin="3.5s" fill="freeze" /></path><path d="M30.78,48.05C42,46.75,66.69,43.71,71.5,43c1.68-0.25,4.53-0.53,5.38-0.35" class="stroke" stroke-dasharray="150"><set attributeName="opacity" to="0" dur="4.7s" /><animate attributeName="stroke-dashoffset" from="150" to="0" dur="1.8s" begin="4.7s" fill="freeze" /></path><path d="M30.73,63.53C44,62,78.04,57.88,85.9,57.01c5.12-0.57,7.34,2.58,6.82,6.53c-1.48,11.21-4.23,19.71-7.48,27.21c-4.45,10.27-6.5,5.5-11.7,0.2" class="stroke" stroke-dasharray="150"><set attributeName="opacity" to="0" dur="5.9s" /><animate attributeName="stroke-dashoffset" from="150" to="0" dur="1.8s" begin="5.9s" fill="freeze" /></path><path d="M17.31,76.25c0.44,6-0.31,13.25-1.6,17" class="stroke" stroke-dasharray="150"><set attributeName="opacity" to="0" dur="7.9s" /><animate attributeName="stroke-dashoffset" from="150" to="0" dur="1.8s" begin="7.9s" fill="freeze" /></path><path d="M33.75,74.25c2.55,2.65,4.98,9.93,5.62,14.05" class="stroke" stroke-dasharray="150"><set attributeName="opacity" to="0" dur="8.8s" /><animate attributeName="stroke-dashoffset" from="150" to="0" dur="1.8s" begin="8.8s" fill="freeze" /></path><path d="M51,71c2.03,2.22,5.25,9.12,5.76,12.58" class="stroke" stroke-dasharray="150"><set attributeName="opacity" to="0" dur="9.700000000000001s" /><animate attributeName="stroke-dashoffset" from="150" to="0" dur="1.8s" begin="9.700000000000001s" fill="freeze" /></path><path d="M68.25,67.75c2.74,2.14,7.07,8.78,7.75,12.1" class="stroke" stroke-dasharray="150"><set attributeName="opacity" to="0" dur="10.600000000000001s" /><animate attributeName="stroke-dashoffset" from="150" to="0" dur="1.8s" begin="10.600000000000001s" fill="freeze" /></path></svg>