<svg id="kvg-099ac-Vt6" class="kanjivg" viewBox="0 0 106 106" width="106" height="106" xmlns="http://www.w3.org/2000/svg" xmlns:xlink="http://www.w3.org/1999/xlink" xml:space="preserve" version="1.1" baseProfile="full"><defs><style type="text/css">path.black{fill:none;stroke:black;stroke-width:5;stroke-linecap:round;stroke-linejoin:round;}path.grey{fill:none;stroke:#ddd;stroke-width:5;stroke-linecap:round;stroke-linejoin:round;}path.stroke{fill:none;stroke:black;stroke-width:5;stroke-linecap:round;stroke-linejoin:round;}text{font-size:16px;font-family:Segoe UI Symbol,Cambria Math,DejaVu Sans,Symbola,Quivira,STIX,Code2000;-webkit-touch-callout:none;cursor:pointer;-webkit-user-select:none;-khtml-user-select:none;-moz-user-select:none;-ms-user-select:none;user-select: none;}text:hover{color:#777;}#reset{font-weight:bold;}</style><marker id="markerStart" markerWidth="8" markerHeight="8" style="overflow:visible;"><circle cx="0" cy="0" r="1.5" style="stroke:none;fill:red;fill-opacity:0.5;"/></marker><marker id="markerEnd" style="overflow:visible;"><circle cx="0" cy="0" r="0.8" style="stroke:none;fill:blue;fill-opacity:0.5;"><animate attributeName="opacity" from="1" to="0" dur="3s" repeatCount="indefinite" /></circle></marker></defs><path d="M28.75,16.5c0.46,0.38,0.95,2.47,0.95,3.12c0,6.64,0.05,35.13-0.23,45.58" class="grey" /><path d="M31.03,19.3c11.22-1.3,37.4-4.84,42.22-5.55c1.68-0.25,4.53-0.53,5.38-0.35" class="grey" /><path d="M30.53,34.05c11.22-1.3,35.4-3.84,40.22-4.55c1.68-0.25,4.53-0.53,5.38-0.35" class="grey" /><path d="M30.78,48.05C42,46.75,66.19,44.21,71,43.5c1.68-0.25,4.53-0.53,5.38-0.35" class="grey" /><path d="M29.48,64.28c14.19-2.37,48.3-6.4,56.17-7.27c5.12-0.57,7.34,2.58,6.82,6.53C91,74.75,88.7,83.25,84.75,90.25C79.25,100,77.5,95.5,72.3,90.2" class="grey" /><path d="M53.13,16.82c0.46,0.38,0.82,0.9,0.82,1.55c0,6.64,0.05,31.13-0.23,41.58" class="grey" /><path d="M17.31,76.25c0.44,6-0.31,13.25-1.6,17" class="grey" /><path d="M33.5,74.25c2.55,2.65,4.98,9.93,5.62,14.05" class="grey" /><path d="M51,71c2.03,2.22,5.25,9.12,5.76,12.58" class="grey" /><path d="M68.25,67.75c2.74,2.14,7.07,8.78,7.75,12.1" class="grey" /><path d="M28.75,16.5c0.46,0.38,0.95,2.47,0.95,3.12c0,6.64,0.05,35.13-0.23,45.58" class="stroke" stroke-dasharray="150"><animate attributeName="stroke-dashoffset" from="150" to="0" dur="1.8s" begin="0.0s" fill="freeze" /></path><path d="M31.03,19.3c11.22-1.3,37.4-4.84,42.22-5.55c1.68-0.25,4.53-0.53,5.38-0.35" class="stroke" stroke-dasharray="150"><set attributeName="opacity" to="0" dur="1.2s" /><animate attributeName="stroke-dashoffset" from="150" to="0" dur="1.8s" begin="1.2s" fill="freeze" /></path><path d="M30.53,34.05c11.22-1.3,35.4-3.84,40.22-4.55c1.68-0.25,4.53-0.53,5.38-0.35" class="stroke" stroke-dasharray="150"><set attributeName="opacity" to="0" dur="2.4s" /><animate attributeName="stroke-dashoffset" from="150" to="0" dur="1.8s" begin="2.4s" fill="freeze" /></path><path d="M30.78,48.05C42,46.75,66.19,44.21,71,43.5c1.68-0.25,4.53-0.53,5.38-0.35" class="stroke" stroke-dasharray="150"><set attributeName="opacity" to="0" dur="3.5999999999999996s" /><animate attributeName="stroke-dashoffset" from="150" to="0" dur="1.8s" begin="3.5999999999999996s" fill="freeze" /></path><path d="M29.48,64.28c14.19-2.37,48.3-6.4,56.17-7.27c5.12-0.57,7.34,2.58,6.82,6.53C91,74.75,88.7,83.25,84.75,90.25C79.25,100,77.5,95.5,72.3,90.2" class="stroke" stroke-dasharray="150"><set attributeName="opacity" to="0" dur="4.8s" /><animate attributeName="stroke-dashoffset" from="150" to="0" dur="1.8s" begin="4.8s" fill="freeze" /></path><path d="M53.13,16.82c0.46,0.38,0.82,0.9,0.82,1.55c0,6.64,0.05,31.13-0.23,41.58" class="stroke" stroke-dasharray="150"><set attributeName="opacity" to="0" dur="6.8s" /><animate attributeName="stroke-dashoffset" from="150" to="0" dur="1.8s" begin="6.8s" fill="freeze" /></path><path d="M17.31,76.25c0.44,6-0.31,13.25-1.6,17" class="stroke" stroke-dasharray="150"><set attributeName="opacity" to="0" dur="7.9s" /><animate attributeName="stroke-dashoffset" from="150" to="0" dur="1.8s" begin="7.9s" fill="freeze" /></path><path d="M33.5,74.25c2.55,2.65,4.98,9.93,5.62,14.05" class="stroke" stroke-dasharray="150"><set attributeName="opacity" to="0" dur="8.8s" /><animate attributeName="stroke-dashoffset" from="150" to="0" dur="1.8s" begin="8.8s" fill="freeze" /></path><path d="M51,71c2.03,2.22,5.25,9.12,5.76,12.58" class="stroke" stroke-dasharray="150"><set attributeName="opacity" to="0" dur="9.700000000000001s" /><animate attributeName="stroke-dashoffset" from="150" to="0" dur="1.8s" begin="9.700000000000001s" fill="freeze" /></path><path d="M68.25,67.75c2.74,2.14,7.07,8.78,7.75,12.1" class="stroke" stroke-dasharray="150"><set attributeName="opacity" to="0" dur="10.600000000000001s" /><animate attributeName="stroke-dashoffset" from="150" to="0" dur="1.8s" begin="10.600000000000001s" fill="freeze" /></path></svg>