<svg id="kvg-09aa8-Kaisho" class="kanjivg" viewBox="0 0 106 106" width="106" height="106" xmlns="http://www.w3.org/2000/svg" xmlns:xlink="http://www.w3.org/1999/xlink" xml:space="preserve" version="1.1" baseProfile="full"><defs><style type="text/css">path.black{fill:none;stroke:black;stroke-width:5;stroke-linecap:round;stroke-linejoin:round;}path.grey{fill:none;stroke:#ddd;stroke-width:5;stroke-linecap:round;stroke-linejoin:round;}path.stroke{fill:none;stroke:black;stroke-width:5;stroke-linecap:round;stroke-linejoin:round;}text{font-size:16px;font-family:Segoe UI Symbol,Cambria Math,DejaVu Sans,Symbola,Quivira,STIX,Code2000;-webkit-touch-callout:none;cursor:pointer;-webkit-user-select:none;-khtml-user-select:none;-moz-user-select:none;-ms-user-select:none;user-select: none;}text:hover{color:#777;}#reset{font-weight:bold;}</style><marker id="markerStart" markerWidth="8" markerHeight="8" style="overflow:visible;"><circle cx="0" cy="0" r="1.5" style="stroke:none;fill:red;fill-opacity:0.5;"/></marker><marker id="markerEnd" style="overflow:visible;"><circle cx="0" cy="0" r="0.8" style="stroke:none;fill:blue;fill-opacity:0.5;"><animate attributeName="opacity" from="1" to="0" dur="3s" repeatCount="indefinite" /></circle></marker></defs><path d="M34.77,12.62c0.47,0.58,0.88,1.88,0.93,2.65c0.3,3.97,0.69,24.41,0.69,24.8" class="grey" /><path d="M36.97,13.72c2.63-0.1,29.22-3.36,31.62-3.48c2-0.1,3.28,1.08,3.13,1.65c-0.31,1.17-0.47,14.43-0.46,23" class="grey" /><path d="M52.27,24.12c0.47,0.58,0.87,1.88,0.93,2.65c0.3,3.47,0.69,10.41,0.69,10.8" class="grey" /><path d="M53.97,25.22c2.63-0.1,14.64-2.21,17.03-2.47" class="grey" /><path d="M18.41,38.88c0,3.82-2,13.82-2.91,16.37" class="grey" /><path d="M18.74,42.74c11.76-1.49,57.74-6.03,65.45-6.4c12.05-0.59,2.55,7.16-0.45,9.28" class="grey" /><path d="M38.7,48.77c0.55,0.73,0.91,1.46,1.1,2.19c0.18,0.73,0.26,43.94,0.18,45.59" class="grey" /><path d="M40.9,49.5c2.2-0.18,22.33-2.77,23.96-2.98c2.93-0.37,4.02,2.38,3.66,3.48c-0.35,1.06-0.55,26.54-0.55,41.36c0,9.51-4.39,3.29-6.22,1.65" class="grey" /><path d="M40.9,63.09c4.57-0.67,9.17-1.14,13.76-1.6c1.24-0.12,2.47-0.24,3.67-0.35" class="grey" /><path d="M40.45,76.54c4.37-0.41,8.75-0.76,13.12-1.1c1.29-0.1,2.58-0.2,3.85-0.29" class="grey" /><path d="M34.77,12.62c0.47,0.58,0.88,1.88,0.93,2.65c0.3,3.97,0.69,24.41,0.69,24.8" class="stroke" stroke-dasharray="150"><animate attributeName="stroke-dashoffset" from="150" to="0" dur="1.8s" begin="0.0s" fill="freeze" /></path><path d="M36.97,13.72c2.63-0.1,29.22-3.36,31.62-3.48c2-0.1,3.28,1.08,3.13,1.65c-0.31,1.17-0.47,14.43-0.46,23" class="stroke" stroke-dasharray="150"><set attributeName="opacity" to="0" dur="1.0s" /><animate attributeName="stroke-dashoffset" from="150" to="0" dur="1.8s" begin="1.0s" fill="freeze" /></path><path d="M52.27,24.12c0.47,0.58,0.87,1.88,0.93,2.65c0.3,3.47,0.69,10.41,0.69,10.8" class="stroke" stroke-dasharray="150"><set attributeName="opacity" to="0" dur="2.4s" /><animate attributeName="stroke-dashoffset" from="150" to="0" dur="1.8s" begin="2.4s" fill="freeze" /></path><path d="M53.97,25.22c2.63-0.1,14.64-2.21,17.03-2.47" class="stroke" stroke-dasharray="150"><set attributeName="opacity" to="0" dur="3.3s" /><animate attributeName="stroke-dashoffset" from="150" to="0" dur="1.8s" begin="3.3s" fill="freeze" /></path><path d="M18.41,38.88c0,3.82-2,13.82-2.91,16.37" class="stroke" stroke-dasharray="150"><set attributeName="opacity" to="0" dur="4.2s" /><animate attributeName="stroke-dashoffset" from="150" to="0" dur="1.8s" begin="4.2s" fill="freeze" /></path><path d="M18.74,42.74c11.76-1.49,57.74-6.03,65.45-6.4c12.05-0.59,2.55,7.16-0.45,9.28" class="stroke" stroke-dasharray="150"><set attributeName="opacity" to="0" dur="5.1000000000000005s" /><animate attributeName="stroke-dashoffset" from="150" to="0" dur="1.8s" begin="5.1000000000000005s" fill="freeze" /></path><path d="M38.7,48.77c0.55,0.73,0.91,1.46,1.1,2.19c0.18,0.73,0.26,43.94,0.18,45.59" class="stroke" stroke-dasharray="150"><set attributeName="opacity" to="0" dur="6.800000000000001s" /><animate attributeName="stroke-dashoffset" from="150" to="0" dur="1.8s" begin="6.800000000000001s" fill="freeze" /></path><path d="M40.9,49.5c2.2-0.18,22.33-2.77,23.96-2.98c2.93-0.37,4.02,2.38,3.66,3.48c-0.35,1.06-0.55,26.54-0.55,41.36c0,9.51-4.39,3.29-6.22,1.65" class="stroke" stroke-dasharray="150"><set attributeName="opacity" to="0" dur="8.0s" /><animate attributeName="stroke-dashoffset" from="150" to="0" dur="1.8s" begin="8.0s" fill="freeze" /></path><path d="M40.9,63.09c4.57-0.67,9.17-1.14,13.76-1.6c1.24-0.12,2.47-0.24,3.67-0.35" class="stroke" stroke-dasharray="150"><set attributeName="opacity" to="0" dur="9.7s" /><animate attributeName="stroke-dashoffset" from="150" to="0" dur="1.8s" begin="9.7s" fill="freeze" /></path><path d="M40.45,76.54c4.37-0.41,8.75-0.76,13.12-1.1c1.29-0.1,2.58-0.2,3.85-0.29" class="stroke" stroke-dasharray="150"><set attributeName="opacity" to="0" dur="10.6s" /><animate attributeName="stroke-dashoffset" from="150" to="0" dur="1.8s" begin="10.6s" fill="freeze" /></path></svg>