<svg id="kvg-09ad8-Kaisho" class="kanjivg" viewBox="0 0 106 106" width="106" height="106" xmlns="http://www.w3.org/2000/svg" xmlns:xlink="http://www.w3.org/1999/xlink" xml:space="preserve" version="1.1" baseProfile="full"><defs><style type="text/css">path.black{fill:none;stroke:black;stroke-width:5;stroke-linecap:round;stroke-linejoin:round;}path.grey{fill:none;stroke:#ddd;stroke-width:5;stroke-linecap:round;stroke-linejoin:round;}path.stroke{fill:none;stroke:black;stroke-width:5;stroke-linecap:round;stroke-linejoin:round;}text{font-size:16px;font-family:Segoe UI Symbol,Cambria Math,DejaVu Sans,Symbola,Quivira,STIX,Code2000;-webkit-touch-callout:none;cursor:pointer;-webkit-user-select:none;-khtml-user-select:none;-moz-user-select:none;-ms-user-select:none;user-select: none;}text:hover{color:#777;}#reset{font-weight:bold;}</style><marker id="markerStart" markerWidth="8" markerHeight="8" style="overflow:visible;"><circle cx="0" cy="0" r="1.5" style="stroke:none;fill:red;fill-opacity:0.5;"/></marker><marker id="markerEnd" style="overflow:visible;"><circle cx="0" cy="0" r="0.8" style="stroke:none;fill:blue;fill-opacity:0.5;"><animate attributeName="opacity" from="1" to="0" dur="3s" repeatCount="indefinite" /></circle></marker></defs><path d="M49.53,11.25c2.42,1.09,6.02,5.3,6.39,7.44" class="grey" /><path d="M22.9,25.45c1.19,0.09,3.89,0.58,5.05,0.46c9.32-0.96,41.59-4.92,54.25-5.17c1.96-0.04,2.95,0.04,4.41,0.58" class="grey" /><path d="M35.75,33.75c0.54,0.32,1.1,0.59,1.34,1c1.89,3.2,2.14,12.01,3.43,17.76" class="grey" /><path d="M39.14,35.92c11.12-1.67,23.66-3.51,30.03-3.93c2.33-0.15,3.73,1.91,3.39,2.81c-1.38,3.73-1.99,6.25-4.04,11.41" class="grey" /><path d="M40.78,49.69c7.48-0.48,19.8-2.3,30.07-3.02" class="grey" /><path d="M21.25,60.75c0.72,1.25,1.73,2.75,1.96,5C23.75,71,26,88.5,26.75,96.5" class="grey" /><path d="M24.61,63.75c9.89-0.5,56.82-6.2,58.64-6.5c4.5-0.75,7.21,1,6.25,7.75c-1.32,9.28-2.42,19.48-5.5,26.75c-2.75,6.5-4.9,1.75-7.55,0" class="grey" /><path d="M41.75,71.43c0.38,0.31,0.77,0.57,0.94,0.96c1.33,3.08,2.91,11.58,3.82,17.11" class="grey" /><path d="M44.13,73.52c7.82-1.6,16.35-3.22,20.81-3.79c1.81-0.23,3.56,1.27,3.38,2.75c-0.44,3.7-2.1,6.94-3.54,11.92" class="grey" /><path d="M46.69,86.8c5.26-0.46,12.51-1.25,19.73-1.95" class="grey" /><path d="M49.53,11.25c2.42,1.09,6.02,5.3,6.39,7.44" class="stroke" stroke-dasharray="150"><animate attributeName="stroke-dashoffset" from="150" to="0" dur="1.8s" begin="0.0s" fill="freeze" /></path><path d="M22.9,25.45c1.19,0.09,3.89,0.58,5.05,0.46c9.32-0.96,41.59-4.92,54.25-5.17c1.96-0.04,2.95,0.04,4.41,0.58" class="stroke" stroke-dasharray="150"><set attributeName="opacity" to="0" dur="0.9s" /><animate attributeName="stroke-dashoffset" from="150" to="0" dur="1.8s" begin="0.9s" fill="freeze" /></path><path d="M35.75,33.75c0.54,0.32,1.1,0.59,1.34,1c1.89,3.2,2.14,12.01,3.43,17.76" class="stroke" stroke-dasharray="150"><set attributeName="opacity" to="0" dur="2.4s" /><animate attributeName="stroke-dashoffset" from="150" to="0" dur="1.8s" begin="2.4s" fill="freeze" /></path><path d="M39.14,35.92c11.12-1.67,23.66-3.51,30.03-3.93c2.33-0.15,3.73,1.91,3.39,2.81c-1.38,3.73-1.99,6.25-4.04,11.41" class="stroke" stroke-dasharray="150"><set attributeName="opacity" to="0" dur="3.3s" /><animate attributeName="stroke-dashoffset" from="150" to="0" dur="1.8s" begin="3.3s" fill="freeze" /></path><path d="M40.78,49.69c7.48-0.48,19.8-2.3,30.07-3.02" class="stroke" stroke-dasharray="150"><set attributeName="opacity" to="0" dur="4.5s" /><animate attributeName="stroke-dashoffset" from="150" to="0" dur="1.8s" begin="4.5s" fill="freeze" /></path><path d="M21.25,60.75c0.72,1.25,1.73,2.75,1.96,5C23.75,71,26,88.5,26.75,96.5" class="stroke" stroke-dasharray="150"><set attributeName="opacity" to="0" dur="5.5s" /><animate attributeName="stroke-dashoffset" from="150" to="0" dur="1.8s" begin="5.5s" fill="freeze" /></path><path d="M24.61,63.75c9.89-0.5,56.82-6.2,58.64-6.5c4.5-0.75,7.21,1,6.25,7.75c-1.32,9.28-2.42,19.48-5.5,26.75c-2.75,6.5-4.9,1.75-7.55,0" class="stroke" stroke-dasharray="150"><set attributeName="opacity" to="0" dur="6.5s" /><animate attributeName="stroke-dashoffset" from="150" to="0" dur="1.8s" begin="6.5s" fill="freeze" /></path><path d="M41.75,71.43c0.38,0.31,0.77,0.57,0.94,0.96c1.33,3.08,2.91,11.58,3.82,17.11" class="stroke" stroke-dasharray="150"><set attributeName="opacity" to="0" dur="8.4s" /><animate attributeName="stroke-dashoffset" from="150" to="0" dur="1.8s" begin="8.4s" fill="freeze" /></path><path d="M44.13,73.52c7.82-1.6,16.35-3.22,20.81-3.79c1.81-0.23,3.56,1.27,3.38,2.75c-0.44,3.7-2.1,6.94-3.54,11.92" class="stroke" stroke-dasharray="150"><set attributeName="opacity" to="0" dur="9.3s" /><animate attributeName="stroke-dashoffset" from="150" to="0" dur="1.8s" begin="9.3s" fill="freeze" /></path><path d="M46.69,86.8c5.26-0.46,12.51-1.25,19.73-1.95" class="stroke" stroke-dasharray="150"><set attributeName="opacity" to="0" dur="10.3s" /><animate attributeName="stroke-dashoffset" from="150" to="0" dur="1.8s" begin="10.3s" fill="freeze" /></path></svg>