<svg id="kvg-09adf" class="kanjivg" viewBox="0 0 106 106" width="106" height="106" xmlns="http://www.w3.org/2000/svg" xmlns:xlink="http://www.w3.org/1999/xlink" xml:space="preserve" version="1.1" baseProfile="full"><defs><style type="text/css">path.black{fill:none;stroke:black;stroke-width:5;stroke-linecap:round;stroke-linejoin:round;}path.grey{fill:none;stroke:#ddd;stroke-width:5;stroke-linecap:round;stroke-linejoin:round;}path.stroke{fill:none;stroke:black;stroke-width:5;stroke-linecap:round;stroke-linejoin:round;}text{font-size:16px;font-family:Segoe UI Symbol,Cambria Math,DejaVu Sans,Symbola,Quivira,STIX,Code2000;-webkit-touch-callout:none;cursor:pointer;-webkit-user-select:none;-khtml-user-select:none;-moz-user-select:none;-ms-user-select:none;user-select: none;}text:hover{color:#777;}#reset{font-weight:bold;}</style><marker id="markerStart" markerWidth="8" markerHeight="8" style="overflow:visible;"><circle cx="0" cy="0" r="1.5" style="stroke:none;fill:red;fill-opacity:0.5;"/></marker><marker id="markerEnd" style="overflow:visible;"><circle cx="0" cy="0" r="0.8" style="stroke:none;fill:blue;fill-opacity:0.5;"><animate attributeName="opacity" from="1" to="0" dur="3s" repeatCount="indefinite" /></circle></marker></defs><path d="M25.5,19.25C27,20.75,27,21,27,22.5s0.5,34.5,0.5,36.75" class="grey" /><path d="M27.85,21.27C33,21,44.25,18,50.96,17.89c1.56-0.03,2.5,0.18,3.29,0.37" class="grey" /><path d="M28.75,34.25c4.55-0.53,15.22-2.45,18.9-2.98c1.38-0.2,2.79-0.14,3.85,0.18" class="grey" /><path d="M28.5,46.75c4.55-0.53,15.22-2.45,18.9-2.98c1.38-0.2,2.79-0.14,3.85,0.18" class="grey" /><path d="M11.88,62.42c0.86,0.3,2.43,0.35,3.29,0.3c8.92-0.51,28.04-4.74,40.21-5.15c1.43-0.05,2.29,0.15,3,0.3" class="grey" /><path d="M32.65,63.31c0.1,0.94-0.47,2.32-0.8,2.8c-4.35,6.39-5.6,8.39-11.6,15.54c-1.5,1.79-0.74,3.69,1.84,2.96c7.4-2.1,20.9-5.85,30.01-8.82" class="grey" /><path d="M45.01,65.67c3.9,3.41,10.07,14,11.05,19.3" class="grey" /><path d="M82.68,16c0.05,0.58,0.25,1.58-0.12,2.32C79.75,24,73.5,32.25,62.25,39.66" class="grey" /><path d="M88.21,35.56c0.08,0.68,0.36,1.9-0.15,2.73C84.25,44.5,75.25,56.5,61.73,64.4" class="grey" /><path d="M90.29,58.4c0.11,0.91,0.42,2.43-0.21,3.66C85.75,70.5,72.18,86.66,51.32,97" class="grey" /><path d="M25.5,19.25C27,20.75,27,21,27,22.5s0.5,34.5,0.5,36.75" class="stroke" stroke-dasharray="150"><animate attributeName="stroke-dashoffset" from="150" to="0" dur="1.8s" begin="0.0s" fill="freeze" /></path><path d="M27.85,21.27C33,21,44.25,18,50.96,17.89c1.56-0.03,2.5,0.18,3.29,0.37" class="stroke" stroke-dasharray="150"><set attributeName="opacity" to="0" dur="1.1s" /><animate attributeName="stroke-dashoffset" from="150" to="0" dur="1.8s" begin="1.1s" fill="freeze" /></path><path d="M28.75,34.25c4.55-0.53,15.22-2.45,18.9-2.98c1.38-0.2,2.79-0.14,3.85,0.18" class="stroke" stroke-dasharray="150"><set attributeName="opacity" to="0" dur="2.1s" /><animate attributeName="stroke-dashoffset" from="150" to="0" dur="1.8s" begin="2.1s" fill="freeze" /></path><path d="M28.5,46.75c4.55-0.53,15.22-2.45,18.9-2.98c1.38-0.2,2.79-0.14,3.85,0.18" class="stroke" stroke-dasharray="150"><set attributeName="opacity" to="0" dur="3.1s" /><animate attributeName="stroke-dashoffset" from="150" to="0" dur="1.8s" begin="3.1s" fill="freeze" /></path><path d="M11.88,62.42c0.86,0.3,2.43,0.35,3.29,0.3c8.92-0.51,28.04-4.74,40.21-5.15c1.43-0.05,2.29,0.15,3,0.3" class="stroke" stroke-dasharray="150"><set attributeName="opacity" to="0" dur="4.1s" /><animate attributeName="stroke-dashoffset" from="150" to="0" dur="1.8s" begin="4.1s" fill="freeze" /></path><path d="M32.65,63.31c0.1,0.94-0.47,2.32-0.8,2.8c-4.35,6.39-5.6,8.39-11.6,15.54c-1.5,1.79-0.74,3.69,1.84,2.96c7.4-2.1,20.9-5.85,30.01-8.82" class="stroke" stroke-dasharray="150"><set attributeName="opacity" to="0" dur="5.3s" /><animate attributeName="stroke-dashoffset" from="150" to="0" dur="1.8s" begin="5.3s" fill="freeze" /></path><path d="M45.01,65.67c3.9,3.41,10.07,14,11.05,19.3" class="stroke" stroke-dasharray="150"><set attributeName="opacity" to="0" dur="6.699999999999999s" /><animate attributeName="stroke-dashoffset" from="150" to="0" dur="1.8s" begin="6.699999999999999s" fill="freeze" /></path><path d="M82.68,16c0.05,0.58,0.25,1.58-0.12,2.32C79.75,24,73.5,32.25,62.25,39.66" class="stroke" stroke-dasharray="150"><set attributeName="opacity" to="0" dur="7.699999999999999s" /><animate attributeName="stroke-dashoffset" from="150" to="0" dur="1.8s" begin="7.699999999999999s" fill="freeze" /></path><path d="M88.21,35.56c0.08,0.68,0.36,1.9-0.15,2.73C84.25,44.5,75.25,56.5,61.73,64.4" class="stroke" stroke-dasharray="150"><set attributeName="opacity" to="0" dur="8.7s" /><animate attributeName="stroke-dashoffset" from="150" to="0" dur="1.8s" begin="8.7s" fill="freeze" /></path><path d="M90.29,58.4c0.11,0.91,0.42,2.43-0.21,3.66C85.75,70.5,72.18,86.66,51.32,97" class="stroke" stroke-dasharray="150"><set attributeName="opacity" to="0" dur="9.799999999999999s" /><animate attributeName="stroke-dashoffset" from="150" to="0" dur="1.8s" begin="9.799999999999999s" fill="freeze" /></path></svg>