<svg id="kvg-09ad8" class="kanjivg" viewBox="0 0 106 106" width="106" height="106" xmlns="http://www.w3.org/2000/svg" xmlns:xlink="http://www.w3.org/1999/xlink" xml:space="preserve" version="1.1" baseProfile="full"><defs><style type="text/css">path.black{fill:none;stroke:black;stroke-width:5;stroke-linecap:round;stroke-linejoin:round;}path.grey{fill:none;stroke:#ddd;stroke-width:5;stroke-linecap:round;stroke-linejoin:round;}path.stroke{fill:none;stroke:black;stroke-width:5;stroke-linecap:round;stroke-linejoin:round;}text{font-size:16px;font-family:Segoe UI Symbol,Cambria Math,DejaVu Sans,Symbola,Quivira,STIX,Code2000;-webkit-touch-callout:none;cursor:pointer;-webkit-user-select:none;-khtml-user-select:none;-moz-user-select:none;-ms-user-select:none;user-select: none;}text:hover{color:#777;}#reset{font-weight:bold;}</style><marker id="markerStart" markerWidth="8" markerHeight="8" style="overflow:visible;"><circle cx="0" cy="0" r="1.5" style="stroke:none;fill:red;fill-opacity:0.5;"/></marker><marker id="markerEnd" style="overflow:visible;"><circle cx="0" cy="0" r="0.8" style="stroke:none;fill:blue;fill-opacity:0.5;"><animate attributeName="opacity" from="1" to="0" dur="3s" repeatCount="indefinite" /></circle></marker></defs><path d="M52.47,11.75c1.08,1.08,1.48,2.25,1.48,4.22c0,1.53-0.12,4.28-0.12,5.45" class="grey" /><path d="M22.9,25.7c2.68,0.3,4.96,0.26,7.47-0.04c14.76-1.78,35.83-4.16,49.3-5.17c2.89-0.22,4.99-0.12,6.81,0.33" class="grey" /><path d="M36.25,34.75c1,0.63,1.5,1.5,1.78,2.89c0.72,3.59,1.36,7.37,2.05,11.85c0.2,1.3,0.17,1.82,0.44,3.01" class="grey" /><path d="M39.05,36.33c9.95-1.71,23.99-3.65,29.61-4.1c2.96-0.23,3.83,1.02,3.14,3.31c-0.88,2.93-2.17,7.01-3.32,10.2" class="grey" /><path d="M41.28,49.94c6.57-0.42,16.36-1.87,25.72-2.71c1.3-0.12,2.59-0.22,3.85-0.31" class="grey" /><path d="M21,60.25c1.31,1.31,1.9,2.76,2.21,5c0.79,5.62,2.21,18.19,3.16,26.99c0.15,1.39,0.28,2.67,0.38,3.76" class="grey" /><path d="M24.06,64c16.08-1.51,58.63-6.55,60.19-6.75c3.75-0.5,6,1.5,5.25,6.25c-1.49,9.45-2.62,19.62-5.25,28.25c-2.05,6.75-5.38,2.5-7.8,0" class="grey" /><path d="M41.5,71.68c0.66,0.66,1.16,1.63,1.31,2.47c0.89,2.82,1.58,7.24,2.39,11.81c0.21,1.16,0.4,1.78,0.56,2.79" class="grey" /><path d="M44.02,73.08c6.79-1.36,17.1-2.86,20.92-3.35c1.81-0.23,3.31,1.02,3.13,2.5c-0.35,2.92-1.96,8.31-3.12,11.75" class="grey" /><path d="M46.44,87.05c4.61-0.4,11.01-1.31,17.32-1.94c0.88-0.09,1.77-0.17,2.65-0.26" class="grey" /><path d="M52.47,11.75c1.08,1.08,1.48,2.25,1.48,4.22c0,1.53-0.12,4.28-0.12,5.45" class="stroke" stroke-dasharray="150"><animate attributeName="stroke-dashoffset" from="150" to="0" dur="1.8s" begin="0.0s" fill="freeze" /></path><path d="M22.9,25.7c2.68,0.3,4.96,0.26,7.47-0.04c14.76-1.78,35.83-4.16,49.3-5.17c2.89-0.22,4.99-0.12,6.81,0.33" class="stroke" stroke-dasharray="150"><set attributeName="opacity" to="0" dur="0.9s" /><animate attributeName="stroke-dashoffset" from="150" to="0" dur="1.8s" begin="0.9s" fill="freeze" /></path><path d="M36.25,34.75c1,0.63,1.5,1.5,1.78,2.89c0.72,3.59,1.36,7.37,2.05,11.85c0.2,1.3,0.17,1.82,0.44,3.01" class="stroke" stroke-dasharray="150"><set attributeName="opacity" to="0" dur="2.4s" /><animate attributeName="stroke-dashoffset" from="150" to="0" dur="1.8s" begin="2.4s" fill="freeze" /></path><path d="M39.05,36.33c9.95-1.71,23.99-3.65,29.61-4.1c2.96-0.23,3.83,1.02,3.14,3.31c-0.88,2.93-2.17,7.01-3.32,10.2" class="stroke" stroke-dasharray="150"><set attributeName="opacity" to="0" dur="3.3s" /><animate attributeName="stroke-dashoffset" from="150" to="0" dur="1.8s" begin="3.3s" fill="freeze" /></path><path d="M41.28,49.94c6.57-0.42,16.36-1.87,25.72-2.71c1.3-0.12,2.59-0.22,3.85-0.31" class="stroke" stroke-dasharray="150"><set attributeName="opacity" to="0" dur="4.5s" /><animate attributeName="stroke-dashoffset" from="150" to="0" dur="1.8s" begin="4.5s" fill="freeze" /></path><path d="M21,60.25c1.31,1.31,1.9,2.76,2.21,5c0.79,5.62,2.21,18.19,3.16,26.99c0.15,1.39,0.28,2.67,0.38,3.76" class="stroke" stroke-dasharray="150"><set attributeName="opacity" to="0" dur="5.5s" /><animate attributeName="stroke-dashoffset" from="150" to="0" dur="1.8s" begin="5.5s" fill="freeze" /></path><path d="M24.06,64c16.08-1.51,58.63-6.55,60.19-6.75c3.75-0.5,6,1.5,5.25,6.25c-1.49,9.45-2.62,19.62-5.25,28.25c-2.05,6.75-5.38,2.5-7.8,0" class="stroke" stroke-dasharray="150"><set attributeName="opacity" to="0" dur="6.5s" /><animate attributeName="stroke-dashoffset" from="150" to="0" dur="1.8s" begin="6.5s" fill="freeze" /></path><path d="M41.5,71.68c0.66,0.66,1.16,1.63,1.31,2.47c0.89,2.82,1.58,7.24,2.39,11.81c0.21,1.16,0.4,1.78,0.56,2.79" class="stroke" stroke-dasharray="150"><set attributeName="opacity" to="0" dur="8.5s" /><animate attributeName="stroke-dashoffset" from="150" to="0" dur="1.8s" begin="8.5s" fill="freeze" /></path><path d="M44.02,73.08c6.79-1.36,17.1-2.86,20.92-3.35c1.81-0.23,3.31,1.02,3.13,2.5c-0.35,2.92-1.96,8.31-3.12,11.75" class="stroke" stroke-dasharray="150"><set attributeName="opacity" to="0" dur="9.4s" /><animate attributeName="stroke-dashoffset" from="150" to="0" dur="1.8s" begin="9.4s" fill="freeze" /></path><path d="M46.44,87.05c4.61-0.4,11.01-1.31,17.32-1.94c0.88-0.09,1.77-0.17,2.65-0.26" class="stroke" stroke-dasharray="150"><set attributeName="opacity" to="0" dur="10.4s" /><animate attributeName="stroke-dashoffset" from="150" to="0" dur="1.8s" begin="10.4s" fill="freeze" /></path></svg>