<svg id="kvg-09b2f" class="kanjivg" viewBox="0 0 106 106" width="106" height="106" xmlns="http://www.w3.org/2000/svg" xmlns:xlink="http://www.w3.org/1999/xlink" xml:space="preserve" version="1.1" baseProfile="full"><defs><style type="text/css">path.black{fill:none;stroke:black;stroke-width:5;stroke-linecap:round;stroke-linejoin:round;}path.grey{fill:none;stroke:#ddd;stroke-width:5;stroke-linecap:round;stroke-linejoin:round;}path.stroke{fill:none;stroke:black;stroke-width:5;stroke-linecap:round;stroke-linejoin:round;}text{font-size:16px;font-family:Segoe UI Symbol,Cambria Math,DejaVu Sans,Symbola,Quivira,STIX,Code2000;-webkit-touch-callout:none;cursor:pointer;-webkit-user-select:none;-khtml-user-select:none;-moz-user-select:none;-ms-user-select:none;user-select: none;}text:hover{color:#777;}#reset{font-weight:bold;}</style><marker id="markerStart" markerWidth="8" markerHeight="8" style="overflow:visible;"><circle cx="0" cy="0" r="1.5" style="stroke:none;fill:red;fill-opacity:0.5;"/></marker><marker id="markerEnd" style="overflow:visible;"><circle cx="0" cy="0" r="0.8" style="stroke:none;fill:blue;fill-opacity:0.5;"><animate attributeName="opacity" from="1" to="0" dur="3s" repeatCount="indefinite" /></circle></marker></defs><path d="M70.2,12.39c0.11,0.77,0.23,2-0.21,3.11c-2.62,6.55-17.63,20.92-38.18,29.72" class="grey" /><path d="M34.27,18.33c13.25,5.01,34.23,20.59,37.54,28.38" class="grey" /><path d="M46.77,11.08c3.54,1.74,9.16,7.17,10.04,9.88" class="grey" /><path d="M29.52,26.33c3.54,1.74,9.16,7.17,10.04,9.88" class="grey" /><path d="M68.27,27.58c3.54,1.74,9.16,7.17,10.04,9.88" class="grey" /><path d="M50.77,41.33c2.93,1.21,7.56,4.99,8.29,6.88" class="grey" /><path d="M21.96,17.55c0.65,0.39,1.74,1.83,1.74,3.67c0,0.78,1.35,28.3,1.28,30.13c-0.06,1.83,0.58,3.12,2.72,2.93c11.87-1.09,46.92-2.8,53.72-3.19" class="grey" /><path d="M82.75,11.38c1.24,0.53,2.17,1.61,2.17,3.67c0,4.13-1.42,20.7-2.92,39.2" class="grey" /><path d="M74.89,59.56c0.35,0.35,0.57,1.36-0.33,1.9c-5.85,3.46-25.91,13-44.81,16.54" class="grey" /><path d="M27,61.25c1.24,1.09,1.32,1.81,1.73,3.26c0.41,1.45-0.09,17.37-0.09,21.91c0,11.66,16.56,9.84,30.66,9.84c10.93,0,20.05-0.62,24.17-3.88s3.62-7.05,4.03-10.31" class="grey" /><path d="M70.2,12.39c0.11,0.77,0.23,2-0.21,3.11c-2.62,6.55-17.63,20.92-38.18,29.72" class="stroke" stroke-dasharray="150"><animate attributeName="stroke-dashoffset" from="150" to="0" dur="1.8s" begin="0.0s" fill="freeze" /></path><path d="M34.27,18.33c13.25,5.01,34.23,20.59,37.54,28.38" class="stroke" stroke-dasharray="150"><set attributeName="opacity" to="0" dur="1.3s" /><animate attributeName="stroke-dashoffset" from="150" to="0" dur="1.8s" begin="1.3s" fill="freeze" /></path><path d="M46.77,11.08c3.54,1.74,9.16,7.17,10.04,9.88" class="stroke" stroke-dasharray="150"><set attributeName="opacity" to="0" dur="2.5s" /><animate attributeName="stroke-dashoffset" from="150" to="0" dur="1.8s" begin="2.5s" fill="freeze" /></path><path d="M29.52,26.33c3.54,1.74,9.16,7.17,10.04,9.88" class="stroke" stroke-dasharray="150"><set attributeName="opacity" to="0" dur="3.4s" /><animate attributeName="stroke-dashoffset" from="150" to="0" dur="1.8s" begin="3.4s" fill="freeze" /></path><path d="M68.27,27.58c3.54,1.74,9.16,7.17,10.04,9.88" class="stroke" stroke-dasharray="150"><set attributeName="opacity" to="0" dur="4.3s" /><animate attributeName="stroke-dashoffset" from="150" to="0" dur="1.8s" begin="4.3s" fill="freeze" /></path><path d="M50.77,41.33c2.93,1.21,7.56,4.99,8.29,6.88" class="stroke" stroke-dasharray="150"><set attributeName="opacity" to="0" dur="5.2s" /><animate attributeName="stroke-dashoffset" from="150" to="0" dur="1.8s" begin="5.2s" fill="freeze" /></path><path d="M21.96,17.55c0.65,0.39,1.74,1.83,1.74,3.67c0,0.78,1.35,28.3,1.28,30.13c-0.06,1.83,0.58,3.12,2.72,2.93c11.87-1.09,46.92-2.8,53.72-3.19" class="stroke" stroke-dasharray="150"><set attributeName="opacity" to="0" dur="6.1000000000000005s" /><animate attributeName="stroke-dashoffset" from="150" to="0" dur="1.8s" begin="6.1000000000000005s" fill="freeze" /></path><path d="M82.75,11.38c1.24,0.53,2.17,1.61,2.17,3.67c0,4.13-1.42,20.7-2.92,39.2" class="stroke" stroke-dasharray="150"><set attributeName="opacity" to="0" dur="7.9s" /><animate attributeName="stroke-dashoffset" from="150" to="0" dur="1.8s" begin="7.9s" fill="freeze" /></path><path d="M74.89,59.56c0.35,0.35,0.57,1.36-0.33,1.9c-5.85,3.46-25.91,13-44.81,16.54" class="stroke" stroke-dasharray="150"><set attributeName="opacity" to="0" dur="9.0s" /><animate attributeName="stroke-dashoffset" from="150" to="0" dur="1.8s" begin="9.0s" fill="freeze" /></path><path d="M27,61.25c1.24,1.09,1.32,1.81,1.73,3.26c0.41,1.45-0.09,17.37-0.09,21.91c0,11.66,16.56,9.84,30.66,9.84c10.93,0,20.05-0.62,24.17-3.88s3.62-7.05,4.03-10.31" class="stroke" stroke-dasharray="150"><set attributeName="opacity" to="0" dur="10.3s" /><animate attributeName="stroke-dashoffset" from="150" to="0" dur="1.8s" begin="10.3s" fill="freeze" /></path></svg>