<svg id="kvg-09b3c" class="kanjivg" viewBox="0 0 106 106" width="106" height="106" xmlns="http://www.w3.org/2000/svg" xmlns:xlink="http://www.w3.org/1999/xlink" xml:space="preserve" version="1.1" baseProfile="full"><defs><style type="text/css">path.black{fill:none;stroke:black;stroke-width:5;stroke-linecap:round;stroke-linejoin:round;}path.grey{fill:none;stroke:#ddd;stroke-width:5;stroke-linecap:round;stroke-linejoin:round;}path.stroke{fill:none;stroke:black;stroke-width:5;stroke-linecap:round;stroke-linejoin:round;}text{font-size:16px;font-family:Segoe UI Symbol,Cambria Math,DejaVu Sans,Symbola,Quivira,STIX,Code2000;-webkit-touch-callout:none;cursor:pointer;-webkit-user-select:none;-khtml-user-select:none;-moz-user-select:none;-ms-user-select:none;user-select: none;}text:hover{color:#777;}#reset{font-weight:bold;}</style><marker id="markerStart" markerWidth="8" markerHeight="8" style="overflow:visible;"><circle cx="0" cy="0" r="1.5" style="stroke:none;fill:red;fill-opacity:0.5;"/></marker><marker id="markerEnd" style="overflow:visible;"><circle cx="0" cy="0" r="0.8" style="stroke:none;fill:blue;fill-opacity:0.5;"><animate attributeName="opacity" from="1" to="0" dur="3s" repeatCount="indefinite" /></circle></marker></defs><path d="M50.85,11.25c0.08,1.12-0.04,1.7-0.53,2.73C47.86,19.2,46,21.62,40.25,27.75" class="grey" /><path d="M25.83,30.12c0.78,0.78,1.43,2.19,1.58,3c1.22,6.88,2.46,13.28,3.36,21.33c0.22,2,0.42,3.98,0.59,5.87" class="grey" /><path d="M28.17,31.95c12.95-1.7,31.45-4.7,42.95-5.53c3.28-0.24,4.63,1.83,4.28,4.12c-0.7,4.57-2.19,11.16-5.08,19.48c-0.51,1.47-1.07,3.01-1.69,4.61" class="grey" /><path d="M49.58,30.87c0.65,0.65,1.03,1.88,1.03,3.07c0,8.31-0.05,15.87,0,19.13" class="grey" /><path d="M30.56,44.82c8.57-1.57,34.19-4.57,41.65-5.12" class="grey" /><path d="M32.23,56.89c13.52-2.14,23.52-3.64,36.49-5.12" class="grey" /><path d="M40.5,60.5c0.25,0.75,0.44,1.97,0.12,3.18c-2.74,10.2-7.99,23.07-23.12,32.07" class="grey" /><path d="M52.49,57.37c1.01,1.01,1.33,2.59,1.38,4.43c0.2,8.19,0.08,19.14,0.08,24.7c0,9.5,1.81,11.53,19.97,11.53c20.47,0,21.34-1.9,21.34-9.12" class="grey" /><path d="M69.75,60.22c0.37,0.9,0.37,1.9-0.08,3.09c-2.48,6.51-4.62,11.46-8.07,16.23c-1.09,1.51-0.29,2.53,1.25,2.01c5.39-1.8,12.89-4.8,18.13-6.69" class="grey" /><path d="M77.79,70.43c2.44,1.77,7.79,8.78,8.4,11.54" class="grey" /><path d="M50.85,11.25c0.08,1.12-0.04,1.7-0.53,2.73C47.86,19.2,46,21.62,40.25,27.75" class="stroke" stroke-dasharray="150"><animate attributeName="stroke-dashoffset" from="150" to="0" dur="1.8s" begin="0.0s" fill="freeze" /></path><path d="M25.83,30.12c0.78,0.78,1.43,2.19,1.58,3c1.22,6.88,2.46,13.28,3.36,21.33c0.22,2,0.42,3.98,0.59,5.87" class="stroke" stroke-dasharray="150"><set attributeName="opacity" to="0" dur="0.9s" /><animate attributeName="stroke-dashoffset" from="150" to="0" dur="1.8s" begin="0.9s" fill="freeze" /></path><path d="M28.17,31.95c12.95-1.7,31.45-4.7,42.95-5.53c3.28-0.24,4.63,1.83,4.28,4.12c-0.7,4.57-2.19,11.16-5.08,19.48c-0.51,1.47-1.07,3.01-1.69,4.61" class="stroke" stroke-dasharray="150"><set attributeName="opacity" to="0" dur="1.9s" /><animate attributeName="stroke-dashoffset" from="150" to="0" dur="1.8s" begin="1.9s" fill="freeze" /></path><path d="M49.58,30.87c0.65,0.65,1.03,1.88,1.03,3.07c0,8.31-0.05,15.87,0,19.13" class="stroke" stroke-dasharray="150"><set attributeName="opacity" to="0" dur="3.5999999999999996s" /><animate attributeName="stroke-dashoffset" from="150" to="0" dur="1.8s" begin="3.5999999999999996s" fill="freeze" /></path><path d="M30.56,44.82c8.57-1.57,34.19-4.57,41.65-5.12" class="stroke" stroke-dasharray="150"><set attributeName="opacity" to="0" dur="4.6s" /><animate attributeName="stroke-dashoffset" from="150" to="0" dur="1.8s" begin="4.6s" fill="freeze" /></path><path d="M32.23,56.89c13.52-2.14,23.52-3.64,36.49-5.12" class="stroke" stroke-dasharray="150"><set attributeName="opacity" to="0" dur="5.699999999999999s" /><animate attributeName="stroke-dashoffset" from="150" to="0" dur="1.8s" begin="5.699999999999999s" fill="freeze" /></path><path d="M40.5,60.5c0.25,0.75,0.44,1.97,0.12,3.18c-2.74,10.2-7.99,23.07-23.12,32.07" class="stroke" stroke-dasharray="150"><set attributeName="opacity" to="0" dur="6.699999999999999s" /><animate attributeName="stroke-dashoffset" from="150" to="0" dur="1.8s" begin="6.699999999999999s" fill="freeze" /></path><path d="M52.49,57.37c1.01,1.01,1.33,2.59,1.38,4.43c0.2,8.19,0.08,19.14,0.08,24.7c0,9.5,1.81,11.53,19.97,11.53c20.47,0,21.34-1.9,21.34-9.12" class="stroke" stroke-dasharray="150"><set attributeName="opacity" to="0" dur="7.799999999999999s" /><animate attributeName="stroke-dashoffset" from="150" to="0" dur="1.8s" begin="7.799999999999999s" fill="freeze" /></path><path d="M69.75,60.22c0.37,0.9,0.37,1.9-0.08,3.09c-2.48,6.51-4.62,11.46-8.07,16.23c-1.09,1.51-0.29,2.53,1.25,2.01c5.39-1.8,12.89-4.8,18.13-6.69" class="stroke" stroke-dasharray="150"><set attributeName="opacity" to="0" dur="9.499999999999998s" /><animate attributeName="stroke-dashoffset" from="150" to="0" dur="1.8s" begin="9.499999999999998s" fill="freeze" /></path><path d="M77.79,70.43c2.44,1.77,7.79,8.78,8.4,11.54" class="stroke" stroke-dasharray="150"><set attributeName="opacity" to="0" dur="10.599999999999998s" /><animate attributeName="stroke-dashoffset" from="150" to="0" dur="1.8s" begin="10.599999999999998s" fill="freeze" /></path></svg>