<svg id="kvg-09b3c-Kaisho" class="kanjivg" viewBox="0 0 106 106" width="106" height="106" xmlns="http://www.w3.org/2000/svg" xmlns:xlink="http://www.w3.org/1999/xlink" xml:space="preserve" version="1.1" baseProfile="full"><defs><style type="text/css">path.black{fill:none;stroke:black;stroke-width:5;stroke-linecap:round;stroke-linejoin:round;}path.grey{fill:none;stroke:#ddd;stroke-width:5;stroke-linecap:round;stroke-linejoin:round;}path.stroke{fill:none;stroke:black;stroke-width:5;stroke-linecap:round;stroke-linejoin:round;}text{font-size:16px;font-family:Segoe UI Symbol,Cambria Math,DejaVu Sans,Symbola,Quivira,STIX,Code2000;-webkit-touch-callout:none;cursor:pointer;-webkit-user-select:none;-khtml-user-select:none;-moz-user-select:none;-ms-user-select:none;user-select: none;}text:hover{color:#777;}#reset{font-weight:bold;}</style><marker id="markerStart" markerWidth="8" markerHeight="8" style="overflow:visible;"><circle cx="0" cy="0" r="1.5" style="stroke:none;fill:red;fill-opacity:0.5;"/></marker><marker id="markerEnd" style="overflow:visible;"><circle cx="0" cy="0" r="0.8" style="stroke:none;fill:blue;fill-opacity:0.5;"><animate attributeName="opacity" from="1" to="0" dur="3s" repeatCount="indefinite" /></circle></marker></defs><path d="M50.85,11c0.03,0.43,0.12,1.24-0.06,1.73C48.47,18.79,45.04,24.36,39,29.25" class="grey" /><path d="M26.33,30.12c0.34,0.54,0.35,0.91,0.53,1.57c1.51,5.5,3.36,18.24,4.25,28.38" class="grey" /><path d="M27.92,31.45c11.98-0.56,34.01-3.99,42.95-4.53c3.29-0.2,4.63,1.58,4.28,3.87c-0.83,5.38-2.4,13.21-6.53,23.84" class="grey" /><path d="M49.58,31.2c0.65,0.65,1.03,1.88,1.03,3.07c0,8.31-0.05,15.87,0,19.13" class="grey" /><path d="M30.06,44.57c9.33-0.64,18.67-2.07,27.95-3.16c1.15-0.13,2.28-0.27,3.36-0.39" class="grey" /><path d="M31.73,57.14c12.77-1.89,24.02-3.89,36.99-5.38" class="grey" /><path d="M40,59.5c0.25,0.75,0.42,2.18,0.37,3.43C40,71.25,32,87.75,17,95.75" class="grey" /><path d="M52.49,56.87c0.74,1.19,1.33,2.59,1.38,4.43c0.2,8.19,0.08,19.64,0.08,25.2c0,13,10.06,11.53,19.97,11.53c10.45,0,17.33-1.68,18.8-2.62c3.11-2,2.26-3,2.54-6.5" class="grey" /><path d="M69.25,60.22c0.25,0.42,0.07,2.3-0.08,2.84c-1.85,6.8-4.37,11.96-7.82,16.73c-1.09,1.51-1.04,2.03,0.5,1.51c5.39-1.8,13.89-4.55,19.13-6.44" class="grey" /><path d="M78.04,70.43c2.44,1.77,7.79,8.78,8.4,11.54" class="grey" /><path d="M50.85,11c0.03,0.43,0.12,1.24-0.06,1.73C48.47,18.79,45.04,24.36,39,29.25" class="stroke" stroke-dasharray="150"><animate attributeName="stroke-dashoffset" from="150" to="0" dur="1.8s" begin="0.0s" fill="freeze" /></path><path d="M26.33,30.12c0.34,0.54,0.35,0.91,0.53,1.57c1.51,5.5,3.36,18.24,4.25,28.38" class="stroke" stroke-dasharray="150"><set attributeName="opacity" to="0" dur="1.0s" /><animate attributeName="stroke-dashoffset" from="150" to="0" dur="1.8s" begin="1.0s" fill="freeze" /></path><path d="M27.92,31.45c11.98-0.56,34.01-3.99,42.95-4.53c3.29-0.2,4.63,1.58,4.28,3.87c-0.83,5.38-2.4,13.21-6.53,23.84" class="stroke" stroke-dasharray="150"><set attributeName="opacity" to="0" dur="2.0s" /><animate attributeName="stroke-dashoffset" from="150" to="0" dur="1.8s" begin="2.0s" fill="freeze" /></path><path d="M49.58,31.2c0.65,0.65,1.03,1.88,1.03,3.07c0,8.31-0.05,15.87,0,19.13" class="stroke" stroke-dasharray="150"><set attributeName="opacity" to="0" dur="3.7s" /><animate attributeName="stroke-dashoffset" from="150" to="0" dur="1.8s" begin="3.7s" fill="freeze" /></path><path d="M30.06,44.57c9.33-0.64,18.67-2.07,27.95-3.16c1.15-0.13,2.28-0.27,3.36-0.39" class="stroke" stroke-dasharray="150"><set attributeName="opacity" to="0" dur="4.7s" /><animate attributeName="stroke-dashoffset" from="150" to="0" dur="1.8s" begin="4.7s" fill="freeze" /></path><path d="M31.73,57.14c12.77-1.89,24.02-3.89,36.99-5.38" class="stroke" stroke-dasharray="150"><set attributeName="opacity" to="0" dur="5.7s" /><animate attributeName="stroke-dashoffset" from="150" to="0" dur="1.8s" begin="5.7s" fill="freeze" /></path><path d="M40,59.5c0.25,0.75,0.42,2.18,0.37,3.43C40,71.25,32,87.75,17,95.75" class="stroke" stroke-dasharray="150"><set attributeName="opacity" to="0" dur="6.7s" /><animate attributeName="stroke-dashoffset" from="150" to="0" dur="1.8s" begin="6.7s" fill="freeze" /></path><path d="M52.49,56.87c0.74,1.19,1.33,2.59,1.38,4.43c0.2,8.19,0.08,19.64,0.08,25.2c0,13,10.06,11.53,19.97,11.53c10.45,0,17.33-1.68,18.8-2.62c3.11-2,2.26-3,2.54-6.5" class="stroke" stroke-dasharray="150"><set attributeName="opacity" to="0" dur="7.9s" /><animate attributeName="stroke-dashoffset" from="150" to="0" dur="1.8s" begin="7.9s" fill="freeze" /></path><path d="M69.25,60.22c0.25,0.42,0.07,2.3-0.08,2.84c-1.85,6.8-4.37,11.96-7.82,16.73c-1.09,1.51-1.04,2.03,0.5,1.51c5.39-1.8,13.89-4.55,19.13-6.44" class="stroke" stroke-dasharray="150"><set attributeName="opacity" to="0" dur="9.6s" /><animate attributeName="stroke-dashoffset" from="150" to="0" dur="1.8s" begin="9.6s" fill="freeze" /></path><path d="M78.04,70.43c2.44,1.77,7.79,8.78,8.4,11.54" class="stroke" stroke-dasharray="150"><set attributeName="opacity" to="0" dur="10.7s" /><animate attributeName="stroke-dashoffset" from="150" to="0" dur="1.8s" begin="10.7s" fill="freeze" /></path></svg>