<svg id="kvg-09b32" class="kanjivg" viewBox="0 0 106 106" width="106" height="106" xmlns="http://www.w3.org/2000/svg" xmlns:xlink="http://www.w3.org/1999/xlink" xml:space="preserve" version="1.1" baseProfile="full"><defs><style type="text/css">path.black{fill:none;stroke:black;stroke-width:5;stroke-linecap:round;stroke-linejoin:round;}path.grey{fill:none;stroke:#ddd;stroke-width:5;stroke-linecap:round;stroke-linejoin:round;}path.stroke{fill:none;stroke:black;stroke-width:5;stroke-linecap:round;stroke-linejoin:round;}text{font-size:16px;font-family:Segoe UI Symbol,Cambria Math,DejaVu Sans,Symbola,Quivira,STIX,Code2000;-webkit-touch-callout:none;cursor:pointer;-webkit-user-select:none;-khtml-user-select:none;-moz-user-select:none;-ms-user-select:none;user-select: none;}text:hover{color:#777;}#reset{font-weight:bold;}</style><marker id="markerStart" markerWidth="8" markerHeight="8" style="overflow:visible;"><circle cx="0" cy="0" r="1.5" style="stroke:none;fill:red;fill-opacity:0.5;"/></marker><marker id="markerEnd" style="overflow:visible;"><circle cx="0" cy="0" r="0.8" style="stroke:none;fill:blue;fill-opacity:0.5;"><animate attributeName="opacity" from="1" to="0" dur="3s" repeatCount="indefinite" /></circle></marker></defs><path d="M23.5,16.2c1.08,0.41,3.06,0.52,4.14,0.41C38.75,15.5,64,12.25,76.97,12.14c1.8-0.02,2.88,0.2,3.78,0.4" class="grey" /><path d="M31,25.55c0.45,0.3,0.9,0.55,1.1,0.92c1.54,2.97,3.39,10.66,4.45,15.99" class="grey" /><path d="M33.27,27.07c10.9-1.25,31.96-3.38,37.58-3.8c2.06-0.15,3.29,1.55,3,2.45c-1.22,3.74-2.59,7.28-4.22,11.35" class="grey" /><path d="M36.98,41c6.6-0.47,27.82-2.99,36.2-3.47" class="grey" /><path d="M23.06,50.18c0.69,1.1,1.14,2.86,0.91,4.83c-0.23,1.98,0.23,39.19,0.23,42.49" class="grey" /><path d="M23.97,52.38c8.68-0.88,57.82-6.09,59.53-6.39c2.75-0.48,4.44,1.02,4.44,4.14c0,3.41-0.69,36.84-0.69,41.89c0,8.13-3.88,4.17-6.63,1.32" class="grey" /><path d="M43.52,53c0.48,1,0.55,1.09,0.42,1.7C43,59.25,39.5,65.75,30.25,70.5" class="grey" /><path d="M61.74,50.37c0.46,0.77,0.83,1.68,0.86,2.87c0.12,5.31,0.09,4.8,0.09,6.74c0,4.53,4.72,4.02,9.36,4.02c4.9,0,8.12-0.58,8.81-0.91" class="grey" /><path d="M36.5,73.11c0.43,0.14,1.57,0.38,2.71,0.43c3.14,0.14,20.37-1.93,29.74-2.78c1.36-0.12,1.7-0.17,2.55,0" class="grey" /><path d="M52.31,73.78c0.94,0.97,1.58,1.55,1.58,2.5c0,3.72-0.23,12.47-0.23,20.88" class="grey" /><path d="M23.5,16.2c1.08,0.41,3.06,0.52,4.14,0.41C38.75,15.5,64,12.25,76.97,12.14c1.8-0.02,2.88,0.2,3.78,0.4" class="stroke" stroke-dasharray="150"><animate attributeName="stroke-dashoffset" from="150" to="0" dur="1.8s" begin="0.0s" fill="freeze" /></path><path d="M31,25.55c0.45,0.3,0.9,0.55,1.1,0.92c1.54,2.97,3.39,10.66,4.45,15.99" class="stroke" stroke-dasharray="150"><set attributeName="opacity" to="0" dur="1.4s" /><animate attributeName="stroke-dashoffset" from="150" to="0" dur="1.8s" begin="1.4s" fill="freeze" /></path><path d="M33.27,27.07c10.9-1.25,31.96-3.38,37.58-3.8c2.06-0.15,3.29,1.55,3,2.45c-1.22,3.74-2.59,7.28-4.22,11.35" class="stroke" stroke-dasharray="150"><set attributeName="opacity" to="0" dur="2.3s" /><animate attributeName="stroke-dashoffset" from="150" to="0" dur="1.8s" begin="2.3s" fill="freeze" /></path><path d="M36.98,41c6.6-0.47,27.82-2.99,36.2-3.47" class="stroke" stroke-dasharray="150"><set attributeName="opacity" to="0" dur="3.5999999999999996s" /><animate attributeName="stroke-dashoffset" from="150" to="0" dur="1.8s" begin="3.5999999999999996s" fill="freeze" /></path><path d="M23.06,50.18c0.69,1.1,1.14,2.86,0.91,4.83c-0.23,1.98,0.23,39.19,0.23,42.49" class="stroke" stroke-dasharray="150"><set attributeName="opacity" to="0" dur="4.6s" /><animate attributeName="stroke-dashoffset" from="150" to="0" dur="1.8s" begin="4.6s" fill="freeze" /></path><path d="M23.97,52.38c8.68-0.88,57.82-6.09,59.53-6.39c2.75-0.48,4.44,1.02,4.44,4.14c0,3.41-0.69,36.84-0.69,41.89c0,8.13-3.88,4.17-6.63,1.32" class="stroke" stroke-dasharray="150"><set attributeName="opacity" to="0" dur="5.8s" /><animate attributeName="stroke-dashoffset" from="150" to="0" dur="1.8s" begin="5.8s" fill="freeze" /></path><path d="M43.52,53c0.48,1,0.55,1.09,0.42,1.7C43,59.25,39.5,65.75,30.25,70.5" class="stroke" stroke-dasharray="150"><set attributeName="opacity" to="0" dur="7.8s" /><animate attributeName="stroke-dashoffset" from="150" to="0" dur="1.8s" begin="7.8s" fill="freeze" /></path><path d="M61.74,50.37c0.46,0.77,0.83,1.68,0.86,2.87c0.12,5.31,0.09,4.8,0.09,6.74c0,4.53,4.72,4.02,9.36,4.02c4.9,0,8.12-0.58,8.81-0.91" class="stroke" stroke-dasharray="150"><set attributeName="opacity" to="0" dur="8.8s" /><animate attributeName="stroke-dashoffset" from="150" to="0" dur="1.8s" begin="8.8s" fill="freeze" /></path><path d="M36.5,73.11c0.43,0.14,1.57,0.38,2.71,0.43c3.14,0.14,20.37-1.93,29.74-2.78c1.36-0.12,1.7-0.17,2.55,0" class="stroke" stroke-dasharray="150"><set attributeName="opacity" to="0" dur="9.8s" /><animate attributeName="stroke-dashoffset" from="150" to="0" dur="1.8s" begin="9.8s" fill="freeze" /></path><path d="M52.31,73.78c0.94,0.97,1.58,1.55,1.58,2.5c0,3.72-0.23,12.47-0.23,20.88" class="stroke" stroke-dasharray="150"><set attributeName="opacity" to="0" dur="10.8s" /><animate attributeName="stroke-dashoffset" from="150" to="0" dur="1.8s" begin="10.8s" fill="freeze" /></path></svg>