<svg id="kvg-09b5a-Kaisho" class="kanjivg" viewBox="0 0 106 106" width="106" height="106" xmlns="http://www.w3.org/2000/svg" xmlns:xlink="http://www.w3.org/1999/xlink" xml:space="preserve" version="1.1" baseProfile="full"><defs><style type="text/css">path.black{fill:none;stroke:black;stroke-width:5;stroke-linecap:round;stroke-linejoin:round;}path.grey{fill:none;stroke:#ddd;stroke-width:5;stroke-linecap:round;stroke-linejoin:round;}path.stroke{fill:none;stroke:black;stroke-width:5;stroke-linecap:round;stroke-linejoin:round;}text{font-size:16px;font-family:Segoe UI Symbol,Cambria Math,DejaVu Sans,Symbola,Quivira,STIX,Code2000;-webkit-touch-callout:none;cursor:pointer;-webkit-user-select:none;-khtml-user-select:none;-moz-user-select:none;-ms-user-select:none;user-select: none;}text:hover{color:#777;}#reset{font-weight:bold;}</style><marker id="markerStart" markerWidth="8" markerHeight="8" style="overflow:visible;"><circle cx="0" cy="0" r="1.5" style="stroke:none;fill:red;fill-opacity:0.5;"/></marker><marker id="markerEnd" style="overflow:visible;"><circle cx="0" cy="0" r="0.8" style="stroke:none;fill:blue;fill-opacity:0.5;"><animate attributeName="opacity" from="1" to="0" dur="3s" repeatCount="indefinite" /></circle></marker></defs><path d="M48,13c0.06,0.54,0.13,1.4-0.12,2.18C46.4,19.77,37.9,29.84,26.25,36" class="grey" /><path d="M49,19.38c2.84,0,14.95-1.87,17.94-2.15C69.5,17,70.82,19.81,69.75,21c-4.5,5-9.5,10.5-14.25,17.25" class="grey" /><path d="M27.99,41.48c0.4,0.5,0.41,0.85,0.63,1.48c1.8,5.19,3.5,18.31,4.61,28" class="grey" /><path d="M29.86,42.17c13.96-1.31,37.88-3.53,48.3-4.63c3.83-0.4,5.79,1.02,5.59,2.45c-0.72,5.24-2.5,19.5-4.25,28.25" class="grey" /><path d="M55,40.75c0.5,6.75,0.25,21.5,0.25,26" class="grey" /><path d="M32.47,55.61c10.82-1.23,21.68-2.1,32.52-3.1c1.3-0.12,2.57-0.23,3.78-0.34" class="grey" /><path d="M33.95,69.54C44,68.99,65.62,66.66,79.5,65.75" class="grey" /><path d="M26.25,81c0,5.25-5.75,13-7.25,14.5" class="grey" /><path d="M42.52,79.08c3.15,2.76,6.15,10.34,6.94,14.63" class="grey" /><path d="M62.37,77.83c3.15,2.76,8.15,11.34,8.93,15.63" class="grey" /><path d="M84.27,78.58c4.16,2.63,10.75,10.8,11.79,14.88" class="grey" /><path d="M48,13c0.06,0.54,0.13,1.4-0.12,2.18C46.4,19.77,37.9,29.84,26.25,36" class="stroke" stroke-dasharray="150"><animate attributeName="stroke-dashoffset" from="150" to="0" dur="1.8s" begin="0.0s" fill="freeze" /></path><path d="M49,19.38c2.84,0,14.95-1.87,17.94-2.15C69.5,17,70.82,19.81,69.75,21c-4.5,5-9.5,10.5-14.25,17.25" class="stroke" stroke-dasharray="150"><set attributeName="opacity" to="0" dur="1.0s" /><animate attributeName="stroke-dashoffset" from="150" to="0" dur="1.8s" begin="1.0s" fill="freeze" /></path><path d="M27.99,41.48c0.4,0.5,0.41,0.85,0.63,1.48c1.8,5.19,3.5,18.31,4.61,28" class="stroke" stroke-dasharray="150"><set attributeName="opacity" to="0" dur="2.2s" /><animate attributeName="stroke-dashoffset" from="150" to="0" dur="1.8s" begin="2.2s" fill="freeze" /></path><path d="M29.86,42.17c13.96-1.31,37.88-3.53,48.3-4.63c3.83-0.4,5.79,1.02,5.59,2.45c-0.72,5.24-2.5,19.5-4.25,28.25" class="stroke" stroke-dasharray="150"><set attributeName="opacity" to="0" dur="3.2s" /><animate attributeName="stroke-dashoffset" from="150" to="0" dur="1.8s" begin="3.2s" fill="freeze" /></path><path d="M55,40.75c0.5,6.75,0.25,21.5,0.25,26" class="stroke" stroke-dasharray="150"><set attributeName="opacity" to="0" dur="4.9s" /><animate attributeName="stroke-dashoffset" from="150" to="0" dur="1.8s" begin="4.9s" fill="freeze" /></path><path d="M32.47,55.61c10.82-1.23,21.68-2.1,32.52-3.1c1.3-0.12,2.57-0.23,3.78-0.34" class="stroke" stroke-dasharray="150"><set attributeName="opacity" to="0" dur="5.9s" /><animate attributeName="stroke-dashoffset" from="150" to="0" dur="1.8s" begin="5.9s" fill="freeze" /></path><path d="M33.95,69.54C44,68.99,65.62,66.66,79.5,65.75" class="stroke" stroke-dasharray="150"><set attributeName="opacity" to="0" dur="6.9s" /><animate attributeName="stroke-dashoffset" from="150" to="0" dur="1.8s" begin="6.9s" fill="freeze" /></path><path d="M26.25,81c0,5.25-5.75,13-7.25,14.5" class="stroke" stroke-dasharray="150"><set attributeName="opacity" to="0" dur="8.1s" /><animate attributeName="stroke-dashoffset" from="150" to="0" dur="1.8s" begin="8.1s" fill="freeze" /></path><path d="M42.52,79.08c3.15,2.76,6.15,10.34,6.94,14.63" class="stroke" stroke-dasharray="150"><set attributeName="opacity" to="0" dur="9.0s" /><animate attributeName="stroke-dashoffset" from="150" to="0" dur="1.8s" begin="9.0s" fill="freeze" /></path><path d="M62.37,77.83c3.15,2.76,8.15,11.34,8.93,15.63" class="stroke" stroke-dasharray="150"><set attributeName="opacity" to="0" dur="9.9s" /><animate attributeName="stroke-dashoffset" from="150" to="0" dur="1.8s" begin="9.9s" fill="freeze" /></path><path d="M84.27,78.58c4.16,2.63,10.75,10.8,11.79,14.88" class="stroke" stroke-dasharray="150"><set attributeName="opacity" to="0" dur="10.8s" /><animate attributeName="stroke-dashoffset" from="150" to="0" dur="1.8s" begin="10.8s" fill="freeze" /></path></svg>