<svg id="kvg-09ce5-Kaisho" class="kanjivg" viewBox="0 0 106 106" width="106" height="106" xmlns="http://www.w3.org/2000/svg" xmlns:xlink="http://www.w3.org/1999/xlink" xml:space="preserve" version="1.1" baseProfile="full"><defs><style type="text/css">path.black{fill:none;stroke:black;stroke-width:5;stroke-linecap:round;stroke-linejoin:round;}path.grey{fill:none;stroke:#ddd;stroke-width:5;stroke-linecap:round;stroke-linejoin:round;}path.stroke{fill:none;stroke:black;stroke-width:5;stroke-linecap:round;stroke-linejoin:round;}text{font-size:16px;font-family:Segoe UI Symbol,Cambria Math,DejaVu Sans,Symbola,Quivira,STIX,Code2000;-webkit-touch-callout:none;cursor:pointer;-webkit-user-select:none;-khtml-user-select:none;-moz-user-select:none;-ms-user-select:none;user-select: none;}text:hover{color:#777;}#reset{font-weight:bold;}</style><marker id="markerStart" markerWidth="8" markerHeight="8" style="overflow:visible;"><circle cx="0" cy="0" r="1.5" style="stroke:none;fill:red;fill-opacity:0.5;"/></marker><marker id="markerEnd" style="overflow:visible;"><circle cx="0" cy="0" r="0.8" style="stroke:none;fill:blue;fill-opacity:0.5;"><animate attributeName="opacity" from="1" to="0" dur="3s" repeatCount="indefinite" /></circle></marker></defs><path d="M49.72,10.68c0.03,0.26,0.06,0.67-0.06,1.05c-0.7,2.21-4.69,7.06-10.16,10.03" class="grey" /><path d="M33.63,24.07c0.46,0.38,0.82,0.9,0.82,1.55c0,6.64,0.05,32.13-0.23,42.58" class="grey" /><path d="M35.02,25.22c2.13-0.1,28.09-4.23,30.17-4.23c3.07,0,4.57,1.76,4.29,3.49c-0.17,1.06-2.25,10.38-4.23,18.52" class="grey" /><path d="M35.36,34.69c5.21,0,10.67-1.25,15.81-1.94c1.82-0.24,3.64-0.48,5.37-0.71" class="grey" /><path d="M35.24,45.28c5.31-0.38,23.37-3.38,29.98-3.7" class="grey" /><path d="M35.53,56.05c11.22-1.3,37.4-4.84,42.22-5.55c1.68-0.25,4.53-0.53,5.38-0.35" class="grey" /><path d="M34.23,68.4c12.48-2.09,43.35-5.64,50.27-6.4c4.5-0.5,6.81,2.33,6,5.75c-2.25,9.5-5.82,18.96-9.5,25C77.5,98.5,74.75,96,71,93" class="grey" /><path d="M21.06,80.25c0.44,6-0.31,13.25-1.6,17" class="grey" /><path d="M34,78.5c3.14,2.04,6.13,7.63,6.91,10.8" class="grey" /><path d="M49.5,75.75c2.03,1.41,5.24,5.8,5.75,8" class="grey" /><path d="M63.25,72.75c2.47,1.54,6.38,6.35,7,8.75" class="grey" /><path d="M49.72,10.68c0.03,0.26,0.06,0.67-0.06,1.05c-0.7,2.21-4.69,7.06-10.16,10.03" class="stroke" stroke-dasharray="150"><animate attributeName="stroke-dashoffset" from="150" to="0" dur="1.8s" begin="0.0s" fill="freeze" /></path><path d="M33.63,24.07c0.46,0.38,0.82,0.9,0.82,1.55c0,6.64,0.05,32.13-0.23,42.58" class="stroke" stroke-dasharray="150"><set attributeName="opacity" to="0" dur="0.9s" /><animate attributeName="stroke-dashoffset" from="150" to="0" dur="1.8s" begin="0.9s" fill="freeze" /></path><path d="M35.02,25.22c2.13-0.1,28.09-4.23,30.17-4.23c3.07,0,4.57,1.76,4.29,3.49c-0.17,1.06-2.25,10.38-4.23,18.52" class="stroke" stroke-dasharray="150"><set attributeName="opacity" to="0" dur="2.0s" /><animate attributeName="stroke-dashoffset" from="150" to="0" dur="1.8s" begin="2.0s" fill="freeze" /></path><path d="M35.36,34.69c5.21,0,10.67-1.25,15.81-1.94c1.82-0.24,3.64-0.48,5.37-0.71" class="stroke" stroke-dasharray="150"><set attributeName="opacity" to="0" dur="3.4s" /><animate attributeName="stroke-dashoffset" from="150" to="0" dur="1.8s" begin="3.4s" fill="freeze" /></path><path d="M35.24,45.28c5.31-0.38,23.37-3.38,29.98-3.7" class="stroke" stroke-dasharray="150"><set attributeName="opacity" to="0" dur="4.4s" /><animate attributeName="stroke-dashoffset" from="150" to="0" dur="1.8s" begin="4.4s" fill="freeze" /></path><path d="M35.53,56.05c11.22-1.3,37.4-4.84,42.22-5.55c1.68-0.25,4.53-0.53,5.38-0.35" class="stroke" stroke-dasharray="150"><set attributeName="opacity" to="0" dur="5.4s" /><animate attributeName="stroke-dashoffset" from="150" to="0" dur="1.8s" begin="5.4s" fill="freeze" /></path><path d="M34.23,68.4c12.48-2.09,43.35-5.64,50.27-6.4c4.5-0.5,6.81,2.33,6,5.75c-2.25,9.5-5.82,18.96-9.5,25C77.5,98.5,74.75,96,71,93" class="stroke" stroke-dasharray="150"><set attributeName="opacity" to="0" dur="6.6000000000000005s" /><animate attributeName="stroke-dashoffset" from="150" to="0" dur="1.8s" begin="6.6000000000000005s" fill="freeze" /></path><path d="M21.06,80.25c0.44,6-0.31,13.25-1.6,17" class="stroke" stroke-dasharray="150"><set attributeName="opacity" to="0" dur="8.4s" /><animate attributeName="stroke-dashoffset" from="150" to="0" dur="1.8s" begin="8.4s" fill="freeze" /></path><path d="M34,78.5c3.14,2.04,6.13,7.63,6.91,10.8" class="stroke" stroke-dasharray="150"><set attributeName="opacity" to="0" dur="9.3s" /><animate attributeName="stroke-dashoffset" from="150" to="0" dur="1.8s" begin="9.3s" fill="freeze" /></path><path d="M49.5,75.75c2.03,1.41,5.24,5.8,5.75,8" class="stroke" stroke-dasharray="150"><set attributeName="opacity" to="0" dur="10.200000000000001s" /><animate attributeName="stroke-dashoffset" from="150" to="0" dur="1.8s" begin="10.200000000000001s" fill="freeze" /></path><path d="M63.25,72.75c2.47,1.54,6.38,6.35,7,8.75" class="stroke" stroke-dasharray="150"><set attributeName="opacity" to="0" dur="11.100000000000001s" /><animate attributeName="stroke-dashoffset" from="150" to="0" dur="1.8s" begin="11.100000000000001s" fill="freeze" /></path></svg>