<svg id="kvg-09e7f-Kaisho" class="kanjivg" viewBox="0 0 106 106" width="106" height="106" xmlns="http://www.w3.org/2000/svg" xmlns:xlink="http://www.w3.org/1999/xlink" xml:space="preserve" version="1.1" baseProfile="full"><defs><style type="text/css">path.black{fill:none;stroke:black;stroke-width:5;stroke-linecap:round;stroke-linejoin:round;}path.grey{fill:none;stroke:#ddd;stroke-width:5;stroke-linecap:round;stroke-linejoin:round;}path.stroke{fill:none;stroke:black;stroke-width:5;stroke-linecap:round;stroke-linejoin:round;}text{font-size:16px;font-family:Segoe UI Symbol,Cambria Math,DejaVu Sans,Symbola,Quivira,STIX,Code2000;-webkit-touch-callout:none;cursor:pointer;-webkit-user-select:none;-khtml-user-select:none;-moz-user-select:none;-ms-user-select:none;user-select: none;}text:hover{color:#777;}#reset{font-weight:bold;}</style><marker id="markerStart" markerWidth="8" markerHeight="8" style="overflow:visible;"><circle cx="0" cy="0" r="1.5" style="stroke:none;fill:red;fill-opacity:0.5;"/></marker><marker id="markerEnd" style="overflow:visible;"><circle cx="0" cy="0" r="0.8" style="stroke:none;fill:blue;fill-opacity:0.5;"><animate attributeName="opacity" from="1" to="0" dur="3s" repeatCount="indefinite" /></circle></marker></defs><path d="M49.08,10.56c2.18,0.77,6.79,5.77,7.22,7.3" class="grey" /><path d="M21.38,24.98c1.52,0.54,4.3,0.63,5.82,0.54c15.8-0.91,34.3-4.02,54.11-4.23c2.53-0.03,4.05,0.26,5.31,0.53" class="grey" /><path d="M25.74,26.25c0.04,1.59,0.09,4.1-0.09,6.38c-1.08,13.46-3.5,46.09-15.1,60.59" class="grey" /><path d="M31.75,41.37c2,0.63,3.7,1.05,5.78,0.8c14.32-1.74,37.47-4.21,41.49-4.48c3-0.2,4.07,1.69,3.53,3.94c-1.01,4.15-1.79,7.38-3.15,11.83" class="grey" /><path d="M45.49,31.12c0.88,0.41,1.41,1.87,1.58,2.7c0.18,0.83,0.67,16.68,1.17,22.43" class="grey" /><path d="M65.64,25.84c0.88,0.42,1.63,1.85,1.58,2.7C67,32.25,65.5,48.75,64.75,54.5" class="grey" /><path d="M32,58.14c0.94,0.38,2.66,0.49,3.6,0.38C41.58,57.86,72,54,78.71,54.14c1.56,0.03,2.5,0.18,3.29,0.37" class="grey" /><path d="M39.11,78.04c4.97-0.29,7.97-1.33,12.3-1.82c1.27-0.14,2.08-0.14,2.73-0.06" class="grey" /><path d="M34.75,66.45c0.89,0.53,1.67,2.08,1.67,2.8c0,1.95,0.66,23.18-0.28,25.32c-1.11,2.5-0.28,2.94,3.6,1.47c5.54-2.1,6.02-2.54,11.35-4.09" class="grey" /><path d="M65.36,76.02c7.45-0.44,11.95-1.99,18.44-2.72c1.91-0.21,3.12-0.21,4.09-0.08" class="grey" /><path d="M63.83,62.25c1.08,0.56,1.48,1.75,1.48,3.17c0,1.87-0.08,20.65-0.12,22.85c-0.13,7.99,1.98,8.82,14.78,8.82c8.31,0,11.88-0.4,13.28-2.95" class="grey" /><path d="M49.08,10.56c2.18,0.77,6.79,5.77,7.22,7.3" class="stroke" stroke-dasharray="150"><animate attributeName="stroke-dashoffset" from="150" to="0" dur="1.8s" begin="0.0s" fill="freeze" /></path><path d="M21.38,24.98c1.52,0.54,4.3,0.63,5.82,0.54c15.8-0.91,34.3-4.02,54.11-4.23c2.53-0.03,4.05,0.26,5.31,0.53" class="stroke" stroke-dasharray="150"><set attributeName="opacity" to="0" dur="0.9s" /><animate attributeName="stroke-dashoffset" from="150" to="0" dur="1.8s" begin="0.9s" fill="freeze" /></path><path d="M25.74,26.25c0.04,1.59,0.09,4.1-0.09,6.38c-1.08,13.46-3.5,46.09-15.1,60.59" class="stroke" stroke-dasharray="150"><set attributeName="opacity" to="0" dur="2.4s" /><animate attributeName="stroke-dashoffset" from="150" to="0" dur="1.8s" begin="2.4s" fill="freeze" /></path><path d="M31.75,41.37c2,0.63,3.7,1.05,5.78,0.8c14.32-1.74,37.47-4.21,41.49-4.48c3-0.2,4.07,1.69,3.53,3.94c-1.01,4.15-1.79,7.38-3.15,11.83" class="stroke" stroke-dasharray="150"><set attributeName="opacity" to="0" dur="3.9s" /><animate attributeName="stroke-dashoffset" from="150" to="0" dur="1.8s" begin="3.9s" fill="freeze" /></path><path d="M45.49,31.12c0.88,0.41,1.41,1.87,1.58,2.7c0.18,0.83,0.67,16.68,1.17,22.43" class="stroke" stroke-dasharray="150"><set attributeName="opacity" to="0" dur="5.4s" /><animate attributeName="stroke-dashoffset" from="150" to="0" dur="1.8s" begin="5.4s" fill="freeze" /></path><path d="M65.64,25.84c0.88,0.42,1.63,1.85,1.58,2.7C67,32.25,65.5,48.75,64.75,54.5" class="stroke" stroke-dasharray="150"><set attributeName="opacity" to="0" dur="6.4s" /><animate attributeName="stroke-dashoffset" from="150" to="0" dur="1.8s" begin="6.4s" fill="freeze" /></path><path d="M32,58.14c0.94,0.38,2.66,0.49,3.6,0.38C41.58,57.86,72,54,78.71,54.14c1.56,0.03,2.5,0.18,3.29,0.37" class="stroke" stroke-dasharray="150"><set attributeName="opacity" to="0" dur="7.4s" /><animate attributeName="stroke-dashoffset" from="150" to="0" dur="1.8s" begin="7.4s" fill="freeze" /></path><path d="M39.11,78.04c4.97-0.29,7.97-1.33,12.3-1.82c1.27-0.14,2.08-0.14,2.73-0.06" class="stroke" stroke-dasharray="150"><set attributeName="opacity" to="0" dur="8.700000000000001s" /><animate attributeName="stroke-dashoffset" from="150" to="0" dur="1.8s" begin="8.700000000000001s" fill="freeze" /></path><path d="M34.75,66.45c0.89,0.53,1.67,2.08,1.67,2.8c0,1.95,0.66,23.18-0.28,25.32c-1.11,2.5-0.28,2.94,3.6,1.47c5.54-2.1,6.02-2.54,11.35-4.09" class="stroke" stroke-dasharray="150"><set attributeName="opacity" to="0" dur="9.600000000000001s" /><animate attributeName="stroke-dashoffset" from="150" to="0" dur="1.8s" begin="9.600000000000001s" fill="freeze" /></path><path d="M65.36,76.02c7.45-0.44,11.95-1.99,18.44-2.72c1.91-0.21,3.12-0.21,4.09-0.08" class="stroke" stroke-dasharray="150"><set attributeName="opacity" to="0" dur="10.8s" /><animate attributeName="stroke-dashoffset" from="150" to="0" dur="1.8s" begin="10.8s" fill="freeze" /></path><path d="M63.83,62.25c1.08,0.56,1.48,1.75,1.48,3.17c0,1.87-0.08,20.65-0.12,22.85c-0.13,7.99,1.98,8.82,14.78,8.82c8.31,0,11.88-0.4,13.28-2.95" class="stroke" stroke-dasharray="150"><set attributeName="opacity" to="0" dur="11.8s" /><animate attributeName="stroke-dashoffset" from="150" to="0" dur="1.8s" begin="11.8s" fill="freeze" /></path></svg>