<svg id="kvg-09e75" class="kanjivg" viewBox="0 0 106 106" width="106" height="106" xmlns="http://www.w3.org/2000/svg" xmlns:xlink="http://www.w3.org/1999/xlink" xml:space="preserve" version="1.1" baseProfile="full"><defs><style type="text/css">path.black{fill:none;stroke:black;stroke-width:5;stroke-linecap:round;stroke-linejoin:round;}path.grey{fill:none;stroke:#ddd;stroke-width:5;stroke-linecap:round;stroke-linejoin:round;}path.stroke{fill:none;stroke:black;stroke-width:5;stroke-linecap:round;stroke-linejoin:round;}text{font-size:16px;font-family:Segoe UI Symbol,Cambria Math,DejaVu Sans,Symbola,Quivira,STIX,Code2000;-webkit-touch-callout:none;cursor:pointer;-webkit-user-select:none;-khtml-user-select:none;-moz-user-select:none;-ms-user-select:none;user-select: none;}text:hover{color:#777;}#reset{font-weight:bold;}</style><marker id="markerStart" markerWidth="8" markerHeight="8" style="overflow:visible;"><circle cx="0" cy="0" r="1.5" style="stroke:none;fill:red;fill-opacity:0.5;"/></marker><marker id="markerEnd" style="overflow:visible;"><circle cx="0" cy="0" r="0.8" style="stroke:none;fill:blue;fill-opacity:0.5;"><animate attributeName="opacity" from="1" to="0" dur="3s" repeatCount="indefinite" /></circle></marker></defs><path d="M51.45,9.38c0.67,0.43,2.1,3.24,2.24,4.1c0.14,0.87,0.41,16.74,0.28,22.15" class="grey" /><path d="M54.25,23.75c3.68-0.25,27.5-3.5,31.4-4c1.99-0.26,4.71,0,6.35,0.25" class="grey" /><path d="M22.95,35.99c0.68,1.3,1.67,2.28,1.69,4.01c0.13,12.99,0.13,33.2-0.28,58" class="grey" /><path d="M26.11,38.11c18.64-1.36,53.89-4.36,56.76-4.36c3.13,0,4.23,2.27,4.18,5c-0.23,14.33-0.91,36.72-0.46,56.97" class="grey" /><path d="M69.94,39.34c0.63,1.2,1.01,2.79-0.19,4.75C58,63.25,47.5,76.25,30.97,88.23" class="grey" /><path d="M35.73,49.13c15.22,7.92,31.96,22.97,40.01,34.92" class="grey" /><path d="M48.98,42.63c3.43,2.19,7.2,6.36,9.01,9.67" class="grey" /><path d="M31.48,59.88c3.43,2.36,7.2,6.86,9.01,10.42" class="grey" /><path d="M69.98,57.88c4.09,2.93,8.6,8.5,10.76,12.92" class="grey" /><path d="M52.48,78.13c3.81,2.42,8,7.02,10.01,10.67" class="grey" /><path d="M25.22,95.28c11.89,0,44.96-1.91,61.38-2.29" class="grey" /><path d="M51.45,9.38c0.67,0.43,2.1,3.24,2.24,4.1c0.14,0.87,0.41,16.74,0.28,22.15" class="stroke" stroke-dasharray="150"><animate attributeName="stroke-dashoffset" from="150" to="0" dur="1.8s" begin="0.0s" fill="freeze" /></path><path d="M54.25,23.75c3.68-0.25,27.5-3.5,31.4-4c1.99-0.26,4.71,0,6.35,0.25" class="stroke" stroke-dasharray="150"><set attributeName="opacity" to="0" dur="1.0s" /><animate attributeName="stroke-dashoffset" from="150" to="0" dur="1.8s" begin="1.0s" fill="freeze" /></path><path d="M22.95,35.99c0.68,1.3,1.67,2.28,1.69,4.01c0.13,12.99,0.13,33.2-0.28,58" class="stroke" stroke-dasharray="150"><set attributeName="opacity" to="0" dur="2.0s" /><animate attributeName="stroke-dashoffset" from="150" to="0" dur="1.8s" begin="2.0s" fill="freeze" /></path><path d="M26.11,38.11c18.64-1.36,53.89-4.36,56.76-4.36c3.13,0,4.23,2.27,4.18,5c-0.23,14.33-0.91,36.72-0.46,56.97" class="stroke" stroke-dasharray="150"><set attributeName="opacity" to="0" dur="3.5s" /><animate attributeName="stroke-dashoffset" from="150" to="0" dur="1.8s" begin="3.5s" fill="freeze" /></path><path d="M69.94,39.34c0.63,1.2,1.01,2.79-0.19,4.75C58,63.25,47.5,76.25,30.97,88.23" class="stroke" stroke-dasharray="150"><set attributeName="opacity" to="0" dur="5.5s" /><animate attributeName="stroke-dashoffset" from="150" to="0" dur="1.8s" begin="5.5s" fill="freeze" /></path><path d="M35.73,49.13c15.22,7.92,31.96,22.97,40.01,34.92" class="stroke" stroke-dasharray="150"><set attributeName="opacity" to="0" dur="7.0s" /><animate attributeName="stroke-dashoffset" from="150" to="0" dur="1.8s" begin="7.0s" fill="freeze" /></path><path d="M48.98,42.63c3.43,2.19,7.2,6.36,9.01,9.67" class="stroke" stroke-dasharray="150"><set attributeName="opacity" to="0" dur="8.3s" /><animate attributeName="stroke-dashoffset" from="150" to="0" dur="1.8s" begin="8.3s" fill="freeze" /></path><path d="M31.48,59.88c3.43,2.36,7.2,6.86,9.01,10.42" class="stroke" stroke-dasharray="150"><set attributeName="opacity" to="0" dur="9.200000000000001s" /><animate attributeName="stroke-dashoffset" from="150" to="0" dur="1.8s" begin="9.200000000000001s" fill="freeze" /></path><path d="M69.98,57.88c4.09,2.93,8.6,8.5,10.76,12.92" class="stroke" stroke-dasharray="150"><set attributeName="opacity" to="0" dur="10.100000000000001s" /><animate attributeName="stroke-dashoffset" from="150" to="0" dur="1.8s" begin="10.100000000000001s" fill="freeze" /></path><path d="M52.48,78.13c3.81,2.42,8,7.02,10.01,10.67" class="stroke" stroke-dasharray="150"><set attributeName="opacity" to="0" dur="11.000000000000002s" /><animate attributeName="stroke-dashoffset" from="150" to="0" dur="1.8s" begin="11.000000000000002s" fill="freeze" /></path><path d="M25.22,95.28c11.89,0,44.96-1.91,61.38-2.29" class="stroke" stroke-dasharray="150"><set attributeName="opacity" to="0" dur="11.900000000000002s" /><animate attributeName="stroke-dashoffset" from="150" to="0" dur="1.8s" begin="11.900000000000002s" fill="freeze" /></path></svg>