<svg id="kvg-09ebb-Kaisho" class="kanjivg" viewBox="0 0 106 106" width="106" height="106" xmlns="http://www.w3.org/2000/svg" xmlns:xlink="http://www.w3.org/1999/xlink" xml:space="preserve" version="1.1" baseProfile="full"><defs><style type="text/css">path.black{fill:none;stroke:black;stroke-width:5;stroke-linecap:round;stroke-linejoin:round;}path.grey{fill:none;stroke:#ddd;stroke-width:5;stroke-linecap:round;stroke-linejoin:round;}path.stroke{fill:none;stroke:black;stroke-width:5;stroke-linecap:round;stroke-linejoin:round;}text{font-size:16px;font-family:Segoe UI Symbol,Cambria Math,DejaVu Sans,Symbola,Quivira,STIX,Code2000;-webkit-touch-callout:none;cursor:pointer;-webkit-user-select:none;-khtml-user-select:none;-moz-user-select:none;-ms-user-select:none;user-select: none;}text:hover{color:#777;}#reset{font-weight:bold;}</style><marker id="markerStart" markerWidth="8" markerHeight="8" style="overflow:visible;"><circle cx="0" cy="0" r="1.5" style="stroke:none;fill:red;fill-opacity:0.5;"/></marker><marker id="markerEnd" style="overflow:visible;"><circle cx="0" cy="0" r="0.8" style="stroke:none;fill:blue;fill-opacity:0.5;"><animate attributeName="opacity" from="1" to="0" dur="3s" repeatCount="indefinite" /></circle></marker></defs><path d="M49.3,10.63c2.27,0.9,7.08,6.75,7.53,8.55" class="grey" /><path d="M20.13,26.73c1.52,0.54,4.3,0.63,5.82,0.54c15.8-0.91,34.8-4.52,54.61-4.73c2.53-0.03,4.05,0.26,5.31,0.53" class="grey" /><path d="M24.99,29.5c0.04,1.49,0.09,3.86-0.09,6c-1.06,12.65-3.44,43.34-14.85,56.97" class="grey" /><path d="M29.39,52.62c0.51,0.21,2.03,0.18,3.38,0c4.73-0.63,12.14-2.18,17.2-2.61c1.35-0.11,2.36-0.13,3.21,0.08" class="grey" /><path d="M39.97,36.43c1.05,0.42,1.68,1.89,1.89,2.74c0.21,0.84-0.21,53.24-0.21,53.58c0,10.5-5.28,2.88-6.65,1.5" class="grey" /><path d="M41.02,54.17C37.5,64.53,27,81.91,19.68,87.78" class="grey" /><path d="M45.14,60.68c3.42,1.95,7.08,5.84,9.04,9.25" class="grey" /><path d="M58.52,49.17c0.51,0.21,1.62,0.33,2.98,0.21c4.81-0.42,12.69-2.39,22.09-3.45c1.36-0.15,2.55-0.21,3.4,0" class="grey" /><path d="M70.49,32.25c1.05,0.42,1.69,1.89,1.9,2.74c0.21,0.84-0.21,52.07-0.21,57.34c0,11.17-4.43,3.17-5.43,2.17" class="grey" /><path d="M72.58,48.15c-3.14,13.1-12.92,31.32-20.2,38.04" class="grey" /><path d="M73.02,50.17c5.81,11.16,15.11,25.47,19.83,29.88c1.34,1.25,2.1,2.12,3.22,2.54" class="grey" /><path d="M49.3,10.63c2.27,0.9,7.08,6.75,7.53,8.55" class="stroke" stroke-dasharray="150"><animate attributeName="stroke-dashoffset" from="150" to="0" dur="1.8s" begin="0.0s" fill="freeze" /></path><path d="M20.13,26.73c1.52,0.54,4.3,0.63,5.82,0.54c15.8-0.91,34.8-4.52,54.61-4.73c2.53-0.03,4.05,0.26,5.31,0.53" class="stroke" stroke-dasharray="150"><set attributeName="opacity" to="0" dur="0.9s" /><animate attributeName="stroke-dashoffset" from="150" to="0" dur="1.8s" begin="0.9s" fill="freeze" /></path><path d="M24.99,29.5c0.04,1.49,0.09,3.86-0.09,6c-1.06,12.65-3.44,43.34-14.85,56.97" class="stroke" stroke-dasharray="150"><set attributeName="opacity" to="0" dur="2.4s" /><animate attributeName="stroke-dashoffset" from="150" to="0" dur="1.8s" begin="2.4s" fill="freeze" /></path><path d="M29.39,52.62c0.51,0.21,2.03,0.18,3.38,0c4.73-0.63,12.14-2.18,17.2-2.61c1.35-0.11,2.36-0.13,3.21,0.08" class="stroke" stroke-dasharray="150"><set attributeName="opacity" to="0" dur="3.9s" /><animate attributeName="stroke-dashoffset" from="150" to="0" dur="1.8s" begin="3.9s" fill="freeze" /></path><path d="M39.97,36.43c1.05,0.42,1.68,1.89,1.89,2.74c0.21,0.84-0.21,53.24-0.21,53.58c0,10.5-5.28,2.88-6.65,1.5" class="stroke" stroke-dasharray="150"><set attributeName="opacity" to="0" dur="4.9s" /><animate attributeName="stroke-dashoffset" from="150" to="0" dur="1.8s" begin="4.9s" fill="freeze" /></path><path d="M41.02,54.17C37.5,64.53,27,81.91,19.68,87.78" class="stroke" stroke-dasharray="150"><set attributeName="opacity" to="0" dur="6.4s" /><animate attributeName="stroke-dashoffset" from="150" to="0" dur="1.8s" begin="6.4s" fill="freeze" /></path><path d="M45.14,60.68c3.42,1.95,7.08,5.84,9.04,9.25" class="stroke" stroke-dasharray="150"><set attributeName="opacity" to="0" dur="7.5s" /><animate attributeName="stroke-dashoffset" from="150" to="0" dur="1.8s" begin="7.5s" fill="freeze" /></path><path d="M58.52,49.17c0.51,0.21,1.62,0.33,2.98,0.21c4.81-0.42,12.69-2.39,22.09-3.45c1.36-0.15,2.55-0.21,3.4,0" class="stroke" stroke-dasharray="150"><set attributeName="opacity" to="0" dur="8.4s" /><animate attributeName="stroke-dashoffset" from="150" to="0" dur="1.8s" begin="8.4s" fill="freeze" /></path><path d="M70.49,32.25c1.05,0.42,1.69,1.89,1.9,2.74c0.21,0.84-0.21,52.07-0.21,57.34c0,11.17-4.43,3.17-5.43,2.17" class="stroke" stroke-dasharray="150"><set attributeName="opacity" to="0" dur="9.4s" /><animate attributeName="stroke-dashoffset" from="150" to="0" dur="1.8s" begin="9.4s" fill="freeze" /></path><path d="M72.58,48.15c-3.14,13.1-12.92,31.32-20.2,38.04" class="stroke" stroke-dasharray="150"><set attributeName="opacity" to="0" dur="11.1s" /><animate attributeName="stroke-dashoffset" from="150" to="0" dur="1.8s" begin="11.1s" fill="freeze" /></path><path d="M73.02,50.17c5.81,11.16,15.11,25.47,19.83,29.88c1.34,1.25,2.1,2.12,3.22,2.54" class="stroke" stroke-dasharray="150"><set attributeName="opacity" to="0" dur="12.2s" /><animate attributeName="stroke-dashoffset" from="150" to="0" dur="1.8s" begin="12.2s" fill="freeze" /></path></svg>