<svg id="kvg-09ebb" class="kanjivg" viewBox="0 0 106 106" width="106" height="106" xmlns="http://www.w3.org/2000/svg" xmlns:xlink="http://www.w3.org/1999/xlink" xml:space="preserve" version="1.1" baseProfile="full"><defs><style type="text/css">path.black{fill:none;stroke:black;stroke-width:5;stroke-linecap:round;stroke-linejoin:round;}path.grey{fill:none;stroke:#ddd;stroke-width:5;stroke-linecap:round;stroke-linejoin:round;}path.stroke{fill:none;stroke:black;stroke-width:5;stroke-linecap:round;stroke-linejoin:round;}text{font-size:16px;font-family:Segoe UI Symbol,Cambria Math,DejaVu Sans,Symbola,Quivira,STIX,Code2000;-webkit-touch-callout:none;cursor:pointer;-webkit-user-select:none;-khtml-user-select:none;-moz-user-select:none;-ms-user-select:none;user-select: none;}text:hover{color:#777;}#reset{font-weight:bold;}</style><marker id="markerStart" markerWidth="8" markerHeight="8" style="overflow:visible;"><circle cx="0" cy="0" r="1.5" style="stroke:none;fill:red;fill-opacity:0.5;"/></marker><marker id="markerEnd" style="overflow:visible;"><circle cx="0" cy="0" r="0.8" style="stroke:none;fill:blue;fill-opacity:0.5;"><animate attributeName="opacity" from="1" to="0" dur="3s" repeatCount="indefinite" /></circle></marker></defs><path d="M52.31,10.88c1.09,1.09,1.26,2.62,1.26,4.15c0,2.59-0.07,3.59-0.07,8.46" class="grey" /><path d="M20.13,26.73c2.55,0.91,5.74,0.67,8.39,0.37c15.46-1.75,30.61-3.35,48.98-4.76c2.78-0.21,5.65-0.11,8.38,0.48" class="grey" /><path d="M23.74,28.25c1.06,1.07,1.27,2.6,1.16,4.75c-1.16,24-3.66,43.87-14.85,59.22" class="grey" /><path d="M29.89,52.37c1.62,0.68,3.8,0.71,5.52,0.43c4.63-0.73,11.1-2.43,14.56-3.04c1.33-0.24,2.36-0.38,3.21-0.17" class="grey" /><path d="M40.97,36.68c0.86,0.86,1.14,1.94,1.14,3.24c0,0.71-0.1,34.7-0.1,51.08c0,3.37,0.03,5.56-0.01,6.5" class="grey" /><path d="M41.02,53.42c0,1.2-0.77,2.88-1.25,4.04c-4.33,10.42-12.64,22.79-20.09,30.32" class="grey" /><path d="M44.89,60.68c3.42,1.95,7.08,5.84,9.04,9.25" class="grey" /><path d="M59.02,48.92c1.46,0.6,4.04,0.37,5.6,0.14c4.83-0.72,11.12-2.25,18.97-3.13c1.36-0.15,2.55-0.21,3.4,0" class="grey" /><path d="M70.99,32.25c1,1,1.4,2.25,1.4,3.49c0,3.49,0.03,39.87,0.04,55.14c0,3.39,0,5.74,0,6.46" class="grey" /><path d="M71.83,48.9c0,1.48-0.62,4.66-1.81,7.46C65.5,67,59.62,77.25,52.39,86.18" class="grey" /><path d="M73.02,50.17c4.9,9.41,12.28,21.06,17.3,27.13c1.52,1.83,3.23,3.7,5,5.29" class="grey" /><path d="M52.31,10.88c1.09,1.09,1.26,2.62,1.26,4.15c0,2.59-0.07,3.59-0.07,8.46" class="stroke" stroke-dasharray="150"><animate attributeName="stroke-dashoffset" from="150" to="0" dur="1.8s" begin="0.0s" fill="freeze" /></path><path d="M20.13,26.73c2.55,0.91,5.74,0.67,8.39,0.37c15.46-1.75,30.61-3.35,48.98-4.76c2.78-0.21,5.65-0.11,8.38,0.48" class="stroke" stroke-dasharray="150"><set attributeName="opacity" to="0" dur="0.9s" /><animate attributeName="stroke-dashoffset" from="150" to="0" dur="1.8s" begin="0.9s" fill="freeze" /></path><path d="M23.74,28.25c1.06,1.07,1.27,2.6,1.16,4.75c-1.16,24-3.66,43.87-14.85,59.22" class="stroke" stroke-dasharray="150"><set attributeName="opacity" to="0" dur="2.4s" /><animate attributeName="stroke-dashoffset" from="150" to="0" dur="1.8s" begin="2.4s" fill="freeze" /></path><path d="M29.89,52.37c1.62,0.68,3.8,0.71,5.52,0.43c4.63-0.73,11.1-2.43,14.56-3.04c1.33-0.24,2.36-0.38,3.21-0.17" class="stroke" stroke-dasharray="150"><set attributeName="opacity" to="0" dur="3.9s" /><animate attributeName="stroke-dashoffset" from="150" to="0" dur="1.8s" begin="3.9s" fill="freeze" /></path><path d="M40.97,36.68c0.86,0.86,1.14,1.94,1.14,3.24c0,0.71-0.1,34.7-0.1,51.08c0,3.37,0.03,5.56-0.01,6.5" class="stroke" stroke-dasharray="150"><set attributeName="opacity" to="0" dur="4.9s" /><animate attributeName="stroke-dashoffset" from="150" to="0" dur="1.8s" begin="4.9s" fill="freeze" /></path><path d="M41.02,53.42c0,1.2-0.77,2.88-1.25,4.04c-4.33,10.42-12.64,22.79-20.09,30.32" class="stroke" stroke-dasharray="150"><set attributeName="opacity" to="0" dur="6.4s" /><animate attributeName="stroke-dashoffset" from="150" to="0" dur="1.8s" begin="6.4s" fill="freeze" /></path><path d="M44.89,60.68c3.42,1.95,7.08,5.84,9.04,9.25" class="stroke" stroke-dasharray="150"><set attributeName="opacity" to="0" dur="7.5s" /><animate attributeName="stroke-dashoffset" from="150" to="0" dur="1.8s" begin="7.5s" fill="freeze" /></path><path d="M59.02,48.92c1.46,0.6,4.04,0.37,5.6,0.14c4.83-0.72,11.12-2.25,18.97-3.13c1.36-0.15,2.55-0.21,3.4,0" class="stroke" stroke-dasharray="150"><set attributeName="opacity" to="0" dur="8.4s" /><animate attributeName="stroke-dashoffset" from="150" to="0" dur="1.8s" begin="8.4s" fill="freeze" /></path><path d="M70.99,32.25c1,1,1.4,2.25,1.4,3.49c0,3.49,0.03,39.87,0.04,55.14c0,3.39,0,5.74,0,6.46" class="stroke" stroke-dasharray="150"><set attributeName="opacity" to="0" dur="9.4s" /><animate attributeName="stroke-dashoffset" from="150" to="0" dur="1.8s" begin="9.4s" fill="freeze" /></path><path d="M71.83,48.9c0,1.48-0.62,4.66-1.81,7.46C65.5,67,59.62,77.25,52.39,86.18" class="stroke" stroke-dasharray="150"><set attributeName="opacity" to="0" dur="10.9s" /><animate attributeName="stroke-dashoffset" from="150" to="0" dur="1.8s" begin="10.9s" fill="freeze" /></path><path d="M73.02,50.17c4.9,9.41,12.28,21.06,17.3,27.13c1.52,1.83,3.23,3.7,5,5.29" class="stroke" stroke-dasharray="150"><set attributeName="opacity" to="0" dur="12.0s" /><animate attributeName="stroke-dashoffset" from="150" to="0" dur="1.8s" begin="12.0s" fill="freeze" /></path></svg>