<svg id="kvg-09ecd" class="kanjivg" viewBox="0 0 106 106" width="106" height="106" xmlns="http://www.w3.org/2000/svg" xmlns:xlink="http://www.w3.org/1999/xlink" xml:space="preserve" version="1.1" baseProfile="full"><defs><style type="text/css">path.black{fill:none;stroke:black;stroke-width:5;stroke-linecap:round;stroke-linejoin:round;}path.grey{fill:none;stroke:#ddd;stroke-width:5;stroke-linecap:round;stroke-linejoin:round;}path.stroke{fill:none;stroke:black;stroke-width:5;stroke-linecap:round;stroke-linejoin:round;}text{font-size:16px;font-family:Segoe UI Symbol,Cambria Math,DejaVu Sans,Symbola,Quivira,STIX,Code2000;-webkit-touch-callout:none;cursor:pointer;-webkit-user-select:none;-khtml-user-select:none;-moz-user-select:none;-ms-user-select:none;user-select: none;}text:hover{color:#777;}#reset{font-weight:bold;}</style><marker id="markerStart" markerWidth="8" markerHeight="8" style="overflow:visible;"><circle cx="0" cy="0" r="1.5" style="stroke:none;fill:red;fill-opacity:0.5;"/></marker><marker id="markerEnd" style="overflow:visible;"><circle cx="0" cy="0" r="0.8" style="stroke:none;fill:blue;fill-opacity:0.5;"><animate attributeName="opacity" from="1" to="0" dur="3s" repeatCount="indefinite" /></circle></marker></defs><path d="M71.29,10c-0.37,1.01-1.06,1.73-2.07,2.15C63.3,15.83,48.88,20.58,30.01,23" class="grey" /><path d="M21.6,30.5c3.57,0.85,7.1,0.54,10.77,0.2c12.88-1.2,32.51-2.95,45.88-3.52c3.58-0.15,7.33-0.16,10.86,0.44" class="grey" /><path d="M53.77,21.5c0.86,0.86,1.19,1.75,1.19,2.97c0,2.41-0.09,16.16-0.09,22.53" class="grey" /><path d="M52.15,29.09c-0.4,1.28-1.86,2.72-3.2,3.75c-8.82,6.78-17.82,13.28-32.2,17.82" class="grey" /><path d="M58.12,30.25c7.62,5.75,13.12,8.88,21.79,13.4c3.62,1.89,7.39,3.34,11.34,4.35" class="grey" /><path d="M53.5,47.5c-0.29,1.31-0.93,2.39-1.9,3.23c-5.58,5.54-17.11,14.31-38.1,21.02" class="grey" /><path d="M56.62,49.5C65,55.38,73.16,60.26,81.47,64.81c3.36,2.09,6.95,3.64,10.78,4.67" class="grey" /><path d="M54.75,59.25c0.73,0.73,0.99,1.92,0.99,3.61c0,14.34-0.11,25.75-0.11,29.66c0,8.32-5.7,1.19-6.88,0.2" class="grey" /><path d="M36,67.75c3.18,1.5,8.21,6.17,9,8.5" class="grey" /><path d="M28,91.86c1.62,0.77,2.77,0.7,4.61-0.45c4.26-2.66,9.38-6.26,13.89-9.66" class="grey" /><path d="M72.52,65.64c-0.04,0.79-0.49,1.53-1,2.09c-2.4,2.64-4.65,4.52-8.72,7.23" class="grey" /><path d="M61.75,79.75c4.96,1.67,17.38,8.88,22.57,15.53" class="grey" /><path d="M71.29,10c-0.37,1.01-1.06,1.73-2.07,2.15C63.3,15.83,48.88,20.58,30.01,23" class="stroke" stroke-dasharray="150"><animate attributeName="stroke-dashoffset" from="150" to="0" dur="1.8s" begin="0.0s" fill="freeze" /></path><path d="M21.6,30.5c3.57,0.85,7.1,0.54,10.77,0.2c12.88-1.2,32.51-2.95,45.88-3.52c3.58-0.15,7.33-0.16,10.86,0.44" class="stroke" stroke-dasharray="150"><set attributeName="opacity" to="0" dur="1.1s" /><animate attributeName="stroke-dashoffset" from="150" to="0" dur="1.8s" begin="1.1s" fill="freeze" /></path><path d="M53.77,21.5c0.86,0.86,1.19,1.75,1.19,2.97c0,2.41-0.09,16.16-0.09,22.53" class="stroke" stroke-dasharray="150"><set attributeName="opacity" to="0" dur="2.6s" /><animate attributeName="stroke-dashoffset" from="150" to="0" dur="1.8s" begin="2.6s" fill="freeze" /></path><path d="M52.15,29.09c-0.4,1.28-1.86,2.72-3.2,3.75c-8.82,6.78-17.82,13.28-32.2,17.82" class="stroke" stroke-dasharray="150"><set attributeName="opacity" to="0" dur="3.6s" /><animate attributeName="stroke-dashoffset" from="150" to="0" dur="1.8s" begin="3.6s" fill="freeze" /></path><path d="M58.12,30.25c7.62,5.75,13.12,8.88,21.79,13.4c3.62,1.89,7.39,3.34,11.34,4.35" class="stroke" stroke-dasharray="150"><set attributeName="opacity" to="0" dur="4.7s" /><animate attributeName="stroke-dashoffset" from="150" to="0" dur="1.8s" begin="4.7s" fill="freeze" /></path><path d="M53.5,47.5c-0.29,1.31-0.93,2.39-1.9,3.23c-5.58,5.54-17.11,14.31-38.1,21.02" class="stroke" stroke-dasharray="150"><set attributeName="opacity" to="0" dur="5.7s" /><animate attributeName="stroke-dashoffset" from="150" to="0" dur="1.8s" begin="5.7s" fill="freeze" /></path><path d="M56.62,49.5C65,55.38,73.16,60.26,81.47,64.81c3.36,2.09,6.95,3.64,10.78,4.67" class="stroke" stroke-dasharray="150"><set attributeName="opacity" to="0" dur="6.9s" /><animate attributeName="stroke-dashoffset" from="150" to="0" dur="1.8s" begin="6.9s" fill="freeze" /></path><path d="M54.75,59.25c0.73,0.73,0.99,1.92,0.99,3.61c0,14.34-0.11,25.75-0.11,29.66c0,8.32-5.7,1.19-6.88,0.2" class="stroke" stroke-dasharray="150"><set attributeName="opacity" to="0" dur="8.0s" /><animate attributeName="stroke-dashoffset" from="150" to="0" dur="1.8s" begin="8.0s" fill="freeze" /></path><path d="M36,67.75c3.18,1.5,8.21,6.17,9,8.5" class="stroke" stroke-dasharray="150"><set attributeName="opacity" to="0" dur="9.1s" /><animate attributeName="stroke-dashoffset" from="150" to="0" dur="1.8s" begin="9.1s" fill="freeze" /></path><path d="M28,91.86c1.62,0.77,2.77,0.7,4.61-0.45c4.26-2.66,9.38-6.26,13.89-9.66" class="stroke" stroke-dasharray="150"><set attributeName="opacity" to="0" dur="10.0s" /><animate attributeName="stroke-dashoffset" from="150" to="0" dur="1.8s" begin="10.0s" fill="freeze" /></path><path d="M72.52,65.64c-0.04,0.79-0.49,1.53-1,2.09c-2.4,2.64-4.65,4.52-8.72,7.23" class="stroke" stroke-dasharray="150"><set attributeName="opacity" to="0" dur="11.0s" /><animate attributeName="stroke-dashoffset" from="150" to="0" dur="1.8s" begin="11.0s" fill="freeze" /></path><path d="M61.75,79.75c4.96,1.67,17.38,8.88,22.57,15.53" class="stroke" stroke-dasharray="150"><set attributeName="opacity" to="0" dur="11.9s" /><animate attributeName="stroke-dashoffset" from="150" to="0" dur="1.8s" begin="11.9s" fill="freeze" /></path></svg>