<svg id="kvg-09ec4" class="kanjivg" viewBox="0 0 106 106" width="106" height="106" xmlns="http://www.w3.org/2000/svg" xmlns:xlink="http://www.w3.org/1999/xlink" xml:space="preserve" version="1.1" baseProfile="full"><defs><style type="text/css">path.black{fill:none;stroke:black;stroke-width:5;stroke-linecap:round;stroke-linejoin:round;}path.grey{fill:none;stroke:#ddd;stroke-width:5;stroke-linecap:round;stroke-linejoin:round;}path.stroke{fill:none;stroke:black;stroke-width:5;stroke-linecap:round;stroke-linejoin:round;}text{font-size:16px;font-family:Segoe UI Symbol,Cambria Math,DejaVu Sans,Symbola,Quivira,STIX,Code2000;-webkit-touch-callout:none;cursor:pointer;-webkit-user-select:none;-khtml-user-select:none;-moz-user-select:none;-ms-user-select:none;user-select: none;}text:hover{color:#777;}#reset{font-weight:bold;}</style><marker id="markerStart" markerWidth="8" markerHeight="8" style="overflow:visible;"><circle cx="0" cy="0" r="1.5" style="stroke:none;fill:red;fill-opacity:0.5;"/></marker><marker id="markerEnd" style="overflow:visible;"><circle cx="0" cy="0" r="0.8" style="stroke:none;fill:blue;fill-opacity:0.5;"><animate attributeName="opacity" from="1" to="0" dur="3s" repeatCount="indefinite" /></circle></marker></defs><path d="M28.38,27.18c1.64,0.37,4.65,0.54,6.28,0.37c12.34-1.3,29.84-3.43,41.36-4.26c2.72-0.2,4.37,0.18,5.73,0.36" class="grey" /><path d="M39.54,12.38c0.85,0.41,2.46,1.87,2.7,3.84c0.68,5.49,1.6,15.39,2.5,25.03" class="grey" /><path d="M65.06,10.13c0.76,0.45,1.69,2.37,1.51,4.25c-0.52,5.53-2,14.75-3.25,25" class="grey" /><path d="M14.88,43.73c2.22,0.54,6.3,0.75,8.5,0.54c18.5-1.77,45.62-4.89,63.62-5.23c3.69-0.07,5.91,0.26,7.76,0.53" class="grey" /><path d="M30.22,53.37c1.2,1.2,1.78,2.25,2.13,3.65c0.91,3.61,2.1,10.5,3.13,17.76c0.27,1.91,0.51,3.83,0.7,5.71" class="grey" /><path d="M32.76,54.61c14.11-1.74,35.96-3.77,42.16-3.87c3.29-0.06,5.08,1.51,4.52,4.31c-0.72,3.62-1.94,9.95-3.99,17.62c-0.55,2.08-1.08,3.83-1.72,5.57" class="grey" /><path d="M52.72,44.59c0.91,0.91,1.5,2.16,1.5,3.91c0,5.86,0.08,20.74,0.13,27.25" class="grey" /><path d="M35.63,66.57c3.9-0.24,37.81-3.69,41.03-3.69" class="grey" /><path d="M37.55,78.72c11.07-1.22,22.49-2.4,35.78-3" class="grey" /><path d="M42.63,84.62c0.18,1.03,0.18,1.8-1.56,3.47c-3.09,2.96-8.72,6.42-20.56,10.41" class="grey" /><path d="M65.25,84.25c6.53,2.56,15.75,9.25,19,14.5" class="grey" /><path d="M28.38,27.18c1.64,0.37,4.65,0.54,6.28,0.37c12.34-1.3,29.84-3.43,41.36-4.26c2.72-0.2,4.37,0.18,5.73,0.36" class="stroke" stroke-dasharray="150"><animate attributeName="stroke-dashoffset" from="150" to="0" dur="1.8s" begin="0.0s" fill="freeze" /></path><path d="M39.54,12.38c0.85,0.41,2.46,1.87,2.7,3.84c0.68,5.49,1.6,15.39,2.5,25.03" class="stroke" stroke-dasharray="150"><set attributeName="opacity" to="0" dur="1.3s" /><animate attributeName="stroke-dashoffset" from="150" to="0" dur="1.8s" begin="1.3s" fill="freeze" /></path><path d="M65.06,10.13c0.76,0.45,1.69,2.37,1.51,4.25c-0.52,5.53-2,14.75-3.25,25" class="stroke" stroke-dasharray="150"><set attributeName="opacity" to="0" dur="2.3s" /><animate attributeName="stroke-dashoffset" from="150" to="0" dur="1.8s" begin="2.3s" fill="freeze" /></path><path d="M14.88,43.73c2.22,0.54,6.3,0.75,8.5,0.54c18.5-1.77,45.62-4.89,63.62-5.23c3.69-0.07,5.91,0.26,7.76,0.53" class="stroke" stroke-dasharray="150"><set attributeName="opacity" to="0" dur="3.3s" /><animate attributeName="stroke-dashoffset" from="150" to="0" dur="1.8s" begin="3.3s" fill="freeze" /></path><path d="M30.22,53.37c1.2,1.2,1.78,2.25,2.13,3.65c0.91,3.61,2.1,10.5,3.13,17.76c0.27,1.91,0.51,3.83,0.7,5.71" class="stroke" stroke-dasharray="150"><set attributeName="opacity" to="0" dur="5.0s" /><animate attributeName="stroke-dashoffset" from="150" to="0" dur="1.8s" begin="5.0s" fill="freeze" /></path><path d="M32.76,54.61c14.11-1.74,35.96-3.77,42.16-3.87c3.29-0.06,5.08,1.51,4.52,4.31c-0.72,3.62-1.94,9.95-3.99,17.62c-0.55,2.08-1.08,3.83-1.72,5.57" class="stroke" stroke-dasharray="150"><set attributeName="opacity" to="0" dur="6.0s" /><animate attributeName="stroke-dashoffset" from="150" to="0" dur="1.8s" begin="6.0s" fill="freeze" /></path><path d="M52.72,44.59c0.91,0.91,1.5,2.16,1.5,3.91c0,5.86,0.08,20.74,0.13,27.25" class="stroke" stroke-dasharray="150"><set attributeName="opacity" to="0" dur="7.7s" /><animate attributeName="stroke-dashoffset" from="150" to="0" dur="1.8s" begin="7.7s" fill="freeze" /></path><path d="M35.63,66.57c3.9-0.24,37.81-3.69,41.03-3.69" class="stroke" stroke-dasharray="150"><set attributeName="opacity" to="0" dur="8.7s" /><animate attributeName="stroke-dashoffset" from="150" to="0" dur="1.8s" begin="8.7s" fill="freeze" /></path><path d="M37.55,78.72c11.07-1.22,22.49-2.4,35.78-3" class="stroke" stroke-dasharray="150"><set attributeName="opacity" to="0" dur="9.799999999999999s" /><animate attributeName="stroke-dashoffset" from="150" to="0" dur="1.8s" begin="9.799999999999999s" fill="freeze" /></path><path d="M42.63,84.62c0.18,1.03,0.18,1.8-1.56,3.47c-3.09,2.96-8.72,6.42-20.56,10.41" class="stroke" stroke-dasharray="150"><set attributeName="opacity" to="0" dur="10.799999999999999s" /><animate attributeName="stroke-dashoffset" from="150" to="0" dur="1.8s" begin="10.799999999999999s" fill="freeze" /></path><path d="M65.25,84.25c6.53,2.56,15.75,9.25,19,14.5" class="stroke" stroke-dasharray="150"><set attributeName="opacity" to="0" dur="11.799999999999999s" /><animate attributeName="stroke-dashoffset" from="150" to="0" dur="1.8s" begin="11.799999999999999s" fill="freeze" /></path></svg>