<svg id="kvg-09ec4-VtLst" class="kanjivg" viewBox="0 0 106 106" width="106" height="106" xmlns="http://www.w3.org/2000/svg" xmlns:xlink="http://www.w3.org/1999/xlink" xml:space="preserve" version="1.1" baseProfile="full"><defs><style type="text/css">path.black{fill:none;stroke:black;stroke-width:5;stroke-linecap:round;stroke-linejoin:round;}path.grey{fill:none;stroke:#ddd;stroke-width:5;stroke-linecap:round;stroke-linejoin:round;}path.stroke{fill:none;stroke:black;stroke-width:5;stroke-linecap:round;stroke-linejoin:round;}text{font-size:16px;font-family:Segoe UI Symbol,Cambria Math,DejaVu Sans,Symbola,Quivira,STIX,Code2000;-webkit-touch-callout:none;cursor:pointer;-webkit-user-select:none;-khtml-user-select:none;-moz-user-select:none;-ms-user-select:none;user-select: none;}text:hover{color:#777;}#reset{font-weight:bold;}</style><marker id="markerStart" markerWidth="8" markerHeight="8" style="overflow:visible;"><circle cx="0" cy="0" r="1.5" style="stroke:none;fill:red;fill-opacity:0.5;"/></marker><marker id="markerEnd" style="overflow:visible;"><circle cx="0" cy="0" r="0.8" style="stroke:none;fill:blue;fill-opacity:0.5;"><animate attributeName="opacity" from="1" to="0" dur="3s" repeatCount="indefinite" /></circle></marker></defs><path d="M28.13,27.68c1.02,0.37,2.9,0.55,3.9,0.37c4.12-0.72,27.52-4.16,47.03-4.26c1.7-0.01,2.72,0.18,3.57,0.36" class="grey" /><path d="M39.54,12.88c0.85,0.41,2.66,3.01,2.7,3.84c0.25,5.53,1.6,14.89,2.5,24.53" class="grey" /><path d="M64.56,10.63c0.76,0.45,1.64,3.35,1.51,4.25c-0.75,5.5-1.5,14.75-2.75,25" class="grey" /><path d="M14.88,43.98c1.52,0.54,4.32,0.8,5.82,0.54c6.15-1.05,39.03-5.08,68.11-5.23c2.53-0.01,4.05,0.26,5.31,0.53" class="grey" /><path d="M30.72,53.37c0.77,0.46,1.82,1.8,1.88,2.4c0.49,4.67,2.19,15.68,3.07,24.72" class="grey" /><path d="M33.67,54.12c11.66-0.87,32.79-2.99,40.75-3.13c3.29-0.06,4.95,1.24,4.77,2.56c-0.66,4.82-2.72,14.52-4.71,22.69" class="grey" /><path d="M35.13,67.07c3.9-0.24,37.31-4.19,40.53-4.19" class="grey" /><path d="M36.3,79.22c11.29-1.67,24.99-3.15,38.28-3.75" class="grey" /><path d="M51.97,44.34c0.78,0.41,2,1.9,2,2.41c0.02,8.39,0.17,27.08,0.17,29.33" class="grey" /><path d="M42.81,85.25c0.06,0.34,0.14,0.88-0.13,1.37c-1.57,2.89-10.59,8.24-22.93,12.13" class="grey" /><path d="M65.75,84.25c6.53,2.56,16.87,10.52,18.5,14.5" class="grey" /><path d="M28.13,27.68c1.02,0.37,2.9,0.55,3.9,0.37c4.12-0.72,27.52-4.16,47.03-4.26c1.7-0.01,2.72,0.18,3.57,0.36" class="stroke" stroke-dasharray="150"><animate attributeName="stroke-dashoffset" from="150" to="0" dur="1.8s" begin="0.0s" fill="freeze" /></path><path d="M39.54,12.88c0.85,0.41,2.66,3.01,2.7,3.84c0.25,5.53,1.6,14.89,2.5,24.53" class="stroke" stroke-dasharray="150"><set attributeName="opacity" to="0" dur="1.3s" /><animate attributeName="stroke-dashoffset" from="150" to="0" dur="1.8s" begin="1.3s" fill="freeze" /></path><path d="M64.56,10.63c0.76,0.45,1.64,3.35,1.51,4.25c-0.75,5.5-1.5,14.75-2.75,25" class="stroke" stroke-dasharray="150"><set attributeName="opacity" to="0" dur="2.3s" /><animate attributeName="stroke-dashoffset" from="150" to="0" dur="1.8s" begin="2.3s" fill="freeze" /></path><path d="M14.88,43.98c1.52,0.54,4.32,0.8,5.82,0.54c6.15-1.05,39.03-5.08,68.11-5.23c2.53-0.01,4.05,0.26,5.31,0.53" class="stroke" stroke-dasharray="150"><set attributeName="opacity" to="0" dur="3.3s" /><animate attributeName="stroke-dashoffset" from="150" to="0" dur="1.8s" begin="3.3s" fill="freeze" /></path><path d="M30.72,53.37c0.77,0.46,1.82,1.8,1.88,2.4c0.49,4.67,2.19,15.68,3.07,24.72" class="stroke" stroke-dasharray="150"><set attributeName="opacity" to="0" dur="5.0s" /><animate attributeName="stroke-dashoffset" from="150" to="0" dur="1.8s" begin="5.0s" fill="freeze" /></path><path d="M33.67,54.12c11.66-0.87,32.79-2.99,40.75-3.13c3.29-0.06,4.95,1.24,4.77,2.56c-0.66,4.82-2.72,14.52-4.71,22.69" class="stroke" stroke-dasharray="150"><set attributeName="opacity" to="0" dur="6.0s" /><animate attributeName="stroke-dashoffset" from="150" to="0" dur="1.8s" begin="6.0s" fill="freeze" /></path><path d="M35.13,67.07c3.9-0.24,37.31-4.19,40.53-4.19" class="stroke" stroke-dasharray="150"><set attributeName="opacity" to="0" dur="7.7s" /><animate attributeName="stroke-dashoffset" from="150" to="0" dur="1.8s" begin="7.7s" fill="freeze" /></path><path d="M36.3,79.22c11.29-1.67,24.99-3.15,38.28-3.75" class="stroke" stroke-dasharray="150"><set attributeName="opacity" to="0" dur="8.8s" /><animate attributeName="stroke-dashoffset" from="150" to="0" dur="1.8s" begin="8.8s" fill="freeze" /></path><path d="M51.97,44.34c0.78,0.41,2,1.9,2,2.41c0.02,8.39,0.17,27.08,0.17,29.33" class="stroke" stroke-dasharray="150"><set attributeName="opacity" to="0" dur="9.8s" /><animate attributeName="stroke-dashoffset" from="150" to="0" dur="1.8s" begin="9.8s" fill="freeze" /></path><path d="M42.81,85.25c0.06,0.34,0.14,0.88-0.13,1.37c-1.57,2.89-10.59,8.24-22.93,12.13" class="stroke" stroke-dasharray="150"><set attributeName="opacity" to="0" dur="10.8s" /><animate attributeName="stroke-dashoffset" from="150" to="0" dur="1.8s" begin="10.8s" fill="freeze" /></path><path d="M65.75,84.25c6.53,2.56,16.87,10.52,18.5,14.5" class="stroke" stroke-dasharray="150"><set attributeName="opacity" to="0" dur="11.8s" /><animate attributeName="stroke-dashoffset" from="150" to="0" dur="1.8s" begin="11.8s" fill="freeze" /></path></svg>