<svg id="kvg-09ed2-KaishoVtLst" class="kanjivg" viewBox="0 0 106 106" width="106" height="106" xmlns="http://www.w3.org/2000/svg" xmlns:xlink="http://www.w3.org/1999/xlink" xml:space="preserve" version="1.1" baseProfile="full"><defs><style type="text/css">path.black{fill:none;stroke:black;stroke-width:5;stroke-linecap:round;stroke-linejoin:round;}path.grey{fill:none;stroke:#ddd;stroke-width:5;stroke-linecap:round;stroke-linejoin:round;}path.stroke{fill:none;stroke:black;stroke-width:5;stroke-linecap:round;stroke-linejoin:round;}text{font-size:16px;font-family:Segoe UI Symbol,Cambria Math,DejaVu Sans,Symbola,Quivira,STIX,Code2000;-webkit-touch-callout:none;cursor:pointer;-webkit-user-select:none;-khtml-user-select:none;-moz-user-select:none;-ms-user-select:none;user-select: none;}text:hover{color:#777;}#reset{font-weight:bold;}</style><marker id="markerStart" markerWidth="8" markerHeight="8" style="overflow:visible;"><circle cx="0" cy="0" r="1.5" style="stroke:none;fill:red;fill-opacity:0.5;"/></marker><marker id="markerEnd" style="overflow:visible;"><circle cx="0" cy="0" r="0.8" style="stroke:none;fill:blue;fill-opacity:0.5;"><animate attributeName="opacity" from="1" to="0" dur="3s" repeatCount="indefinite" /></circle></marker></defs><path d="M28.86,18.41c0.41,0.45,1.02,1.74,1.15,2.33c1.49,7.13,3.09,17.77,4.24,26.51" class="grey" /><path d="M31.12,19.98c14.88-1.61,36.4-3.64,46.2-4.54c4.01,0.28,5.73,1.68,5.15,4.17c-0.68,5.04-3.39,17.11-5.89,24.23" class="grey" /><path d="M33.32,32.24c10.19-1.01,20.41-1.97,30.61-2.79c1.22-0.1,2.42-0.19,3.56-0.28" class="grey" /><path d="M34.72,43.91c9.46-0.46,28.31-3.11,41.37-3.86" class="grey" /><path d="M34.63,57.14c2.2,0.35,4.41,0.38,6.62,0.07C51,56.25,62,55.12,70.63,54.25c1.94-0.2,3.89-0.06,5.82,0.23" class="grey" /><path d="M21.13,70.97c2.83,0.44,5.67,0.48,8.51,0.22c14.11-1.31,33.36-2.9,50.74-3.87c2.76-0.14,5.51-0.02,8.25,0.35" class="grey" /><path d="M54.02,19.81c0.73,0.69,1.1,2.09,1.1,2.93c0,8.27-0.11,39.88-0.11,45" class="grey" /><path d="M24.69,81.5c-1.29,6.41-7.51,13.9-9.19,15.5" class="grey" /><path d="M42,79.5c1.71,2.87,4.25,10.5,3.76,15.25" class="grey" /><path d="M62.25,77.5c2.65,2.69,6.5,10.5,6.5,15.25" class="grey" /><path d="M83.71,79.08c4.27,2.63,11.03,10.8,12.1,14.88" class="grey" /><path d="M28.86,18.41c0.41,0.45,1.02,1.74,1.15,2.33c1.49,7.13,3.09,17.77,4.24,26.51" class="stroke" stroke-dasharray="150"><animate attributeName="stroke-dashoffset" from="150" to="0" dur="1.8s" begin="0.0s" fill="freeze" /></path><path d="M31.12,19.98c14.88-1.61,36.4-3.64,46.2-4.54c4.01,0.28,5.73,1.68,5.15,4.17c-0.68,5.04-3.39,17.11-5.89,24.23" class="stroke" stroke-dasharray="150"><set attributeName="opacity" to="0" dur="1.0s" /><animate attributeName="stroke-dashoffset" from="150" to="0" dur="1.8s" begin="1.0s" fill="freeze" /></path><path d="M33.32,32.24c10.19-1.01,20.41-1.97,30.61-2.79c1.22-0.1,2.42-0.19,3.56-0.28" class="stroke" stroke-dasharray="150"><set attributeName="opacity" to="0" dur="2.7s" /><animate attributeName="stroke-dashoffset" from="150" to="0" dur="1.8s" begin="2.7s" fill="freeze" /></path><path d="M34.72,43.91c9.46-0.46,28.31-3.11,41.37-3.86" class="stroke" stroke-dasharray="150"><set attributeName="opacity" to="0" dur="3.7s" /><animate attributeName="stroke-dashoffset" from="150" to="0" dur="1.8s" begin="3.7s" fill="freeze" /></path><path d="M34.63,57.14c2.2,0.35,4.41,0.38,6.62,0.07C51,56.25,62,55.12,70.63,54.25c1.94-0.2,3.89-0.06,5.82,0.23" class="stroke" stroke-dasharray="150"><set attributeName="opacity" to="0" dur="4.800000000000001s" /><animate attributeName="stroke-dashoffset" from="150" to="0" dur="1.8s" begin="4.800000000000001s" fill="freeze" /></path><path d="M21.13,70.97c2.83,0.44,5.67,0.48,8.51,0.22c14.11-1.31,33.36-2.9,50.74-3.87c2.76-0.14,5.51-0.02,8.25,0.35" class="stroke" stroke-dasharray="150"><set attributeName="opacity" to="0" dur="5.9s" /><animate attributeName="stroke-dashoffset" from="150" to="0" dur="1.8s" begin="5.9s" fill="freeze" /></path><path d="M54.02,19.81c0.73,0.69,1.1,2.09,1.1,2.93c0,8.27-0.11,39.88-0.11,45" class="stroke" stroke-dasharray="150"><set attributeName="opacity" to="0" dur="7.4s" /><animate attributeName="stroke-dashoffset" from="150" to="0" dur="1.8s" begin="7.4s" fill="freeze" /></path><path d="M24.69,81.5c-1.29,6.41-7.51,13.9-9.19,15.5" class="stroke" stroke-dasharray="150"><set attributeName="opacity" to="0" dur="8.6s" /><animate attributeName="stroke-dashoffset" from="150" to="0" dur="1.8s" begin="8.6s" fill="freeze" /></path><path d="M42,79.5c1.71,2.87,4.25,10.5,3.76,15.25" class="stroke" stroke-dasharray="150"><set attributeName="opacity" to="0" dur="9.5s" /><animate attributeName="stroke-dashoffset" from="150" to="0" dur="1.8s" begin="9.5s" fill="freeze" /></path><path d="M62.25,77.5c2.65,2.69,6.5,10.5,6.5,15.25" class="stroke" stroke-dasharray="150"><set attributeName="opacity" to="0" dur="10.4s" /><animate attributeName="stroke-dashoffset" from="150" to="0" dur="1.8s" begin="10.4s" fill="freeze" /></path><path d="M83.71,79.08c4.27,2.63,11.03,10.8,12.1,14.88" class="stroke" stroke-dasharray="150"><set attributeName="opacity" to="0" dur="11.3s" /><animate attributeName="stroke-dashoffset" from="150" to="0" dur="1.8s" begin="11.3s" fill="freeze" /></path></svg>