<svg id="kvg-09ed2-Kaisho" class="kanjivg" viewBox="0 0 106 106" width="106" height="106" xmlns="http://www.w3.org/2000/svg" xmlns:xlink="http://www.w3.org/1999/xlink" xml:space="preserve" version="1.1" baseProfile="full"><defs><style type="text/css">path.black{fill:none;stroke:black;stroke-width:5;stroke-linecap:round;stroke-linejoin:round;}path.grey{fill:none;stroke:#ddd;stroke-width:5;stroke-linecap:round;stroke-linejoin:round;}path.stroke{fill:none;stroke:black;stroke-width:5;stroke-linecap:round;stroke-linejoin:round;}text{font-size:16px;font-family:Segoe UI Symbol,Cambria Math,DejaVu Sans,Symbola,Quivira,STIX,Code2000;-webkit-touch-callout:none;cursor:pointer;-webkit-user-select:none;-khtml-user-select:none;-moz-user-select:none;-ms-user-select:none;user-select: none;}text:hover{color:#777;}#reset{font-weight:bold;}</style><marker id="markerStart" markerWidth="8" markerHeight="8" style="overflow:visible;"><circle cx="0" cy="0" r="1.5" style="stroke:none;fill:red;fill-opacity:0.5;"/></marker><marker id="markerEnd" style="overflow:visible;"><circle cx="0" cy="0" r="0.8" style="stroke:none;fill:blue;fill-opacity:0.5;"><animate attributeName="opacity" from="1" to="0" dur="3s" repeatCount="indefinite" /></circle></marker></defs><path d="M28.61,18.41c0.41,0.45,0.92,1.77,1.15,2.33c1.85,4.69,3.59,17.02,4.74,25.76" class="grey" /><path d="M30.87,19.98c13.13-1.07,36.65-3.39,46.45-4.29c3.6-0.33,5.43,1.31,5.26,3.01c-0.43,4.32-3.33,17.55-6,25.15" class="grey" /><path d="M33.32,32.49c10.19-1.01,20.41-1.72,30.61-2.54c1.22-0.1,2.42-0.19,3.56-0.28" class="grey" /><path d="M34.72,43.91c9.46-0.46,29.81-3.36,42.87-4.11" class="grey" /><path d="M53.52,19.31c0.73,0.69,1.07,1.09,1.1,1.93c0.34,9.62,0.14,43.11,0.14,46.5" class="grey" /><path d="M34.38,57.39c0.84,0.28,2.37,0.31,3.21,0.28c8.71-0.32,19.63-3.14,35.67-3.22c1.4,0,2.23,0.13,2.93,0.27" class="grey" /><path d="M20.63,70.97c1.35,0.4,3.84,0.46,5.19,0.4c14.09-0.67,38.89-4.34,58.57-4.34c2.26,0,3.61,0.19,4.74,0.39" class="grey" /><path d="M24.19,81.5c-1.19,6-6.9,13-8.44,14.5" class="grey" /><path d="M42,79.5c1.71,2.87,4.25,10.5,3.76,15.25" class="grey" /><path d="M62.25,77.5c2.65,2.69,6.5,10.5,6.5,15.25" class="grey" /><path d="M83.71,79.08c4.27,2.63,11.03,10.8,12.1,14.88" class="grey" /><path d="M28.61,18.41c0.41,0.45,0.92,1.77,1.15,2.33c1.85,4.69,3.59,17.02,4.74,25.76" class="stroke" stroke-dasharray="150"><animate attributeName="stroke-dashoffset" from="150" to="0" dur="1.8s" begin="0.0s" fill="freeze" /></path><path d="M30.87,19.98c13.13-1.07,36.65-3.39,46.45-4.29c3.6-0.33,5.43,1.31,5.26,3.01c-0.43,4.32-3.33,17.55-6,25.15" class="stroke" stroke-dasharray="150"><set attributeName="opacity" to="0" dur="1.0s" /><animate attributeName="stroke-dashoffset" from="150" to="0" dur="1.8s" begin="1.0s" fill="freeze" /></path><path d="M33.32,32.49c10.19-1.01,20.41-1.72,30.61-2.54c1.22-0.1,2.42-0.19,3.56-0.28" class="stroke" stroke-dasharray="150"><set attributeName="opacity" to="0" dur="2.7s" /><animate attributeName="stroke-dashoffset" from="150" to="0" dur="1.8s" begin="2.7s" fill="freeze" /></path><path d="M34.72,43.91c9.46-0.46,29.81-3.36,42.87-4.11" class="stroke" stroke-dasharray="150"><set attributeName="opacity" to="0" dur="3.7s" /><animate attributeName="stroke-dashoffset" from="150" to="0" dur="1.8s" begin="3.7s" fill="freeze" /></path><path d="M53.52,19.31c0.73,0.69,1.07,1.09,1.1,1.93c0.34,9.62,0.14,43.11,0.14,46.5" class="stroke" stroke-dasharray="150"><set attributeName="opacity" to="0" dur="4.800000000000001s" /><animate attributeName="stroke-dashoffset" from="150" to="0" dur="1.8s" begin="4.800000000000001s" fill="freeze" /></path><path d="M34.38,57.39c0.84,0.28,2.37,0.31,3.21,0.28c8.71-0.32,19.63-3.14,35.67-3.22c1.4,0,2.23,0.13,2.93,0.27" class="stroke" stroke-dasharray="150"><set attributeName="opacity" to="0" dur="6.000000000000001s" /><animate attributeName="stroke-dashoffset" from="150" to="0" dur="1.8s" begin="6.000000000000001s" fill="freeze" /></path><path d="M20.63,70.97c1.35,0.4,3.84,0.46,5.19,0.4c14.09-0.67,38.89-4.34,58.57-4.34c2.26,0,3.61,0.19,4.74,0.39" class="stroke" stroke-dasharray="150"><set attributeName="opacity" to="0" dur="7.100000000000001s" /><animate attributeName="stroke-dashoffset" from="150" to="0" dur="1.8s" begin="7.100000000000001s" fill="freeze" /></path><path d="M24.19,81.5c-1.19,6-6.9,13-8.44,14.5" class="stroke" stroke-dasharray="150"><set attributeName="opacity" to="0" dur="8.600000000000001s" /><animate attributeName="stroke-dashoffset" from="150" to="0" dur="1.8s" begin="8.600000000000001s" fill="freeze" /></path><path d="M42,79.5c1.71,2.87,4.25,10.5,3.76,15.25" class="stroke" stroke-dasharray="150"><set attributeName="opacity" to="0" dur="9.500000000000002s" /><animate attributeName="stroke-dashoffset" from="150" to="0" dur="1.8s" begin="9.500000000000002s" fill="freeze" /></path><path d="M62.25,77.5c2.65,2.69,6.5,10.5,6.5,15.25" class="stroke" stroke-dasharray="150"><set attributeName="opacity" to="0" dur="10.400000000000002s" /><animate attributeName="stroke-dashoffset" from="150" to="0" dur="1.8s" begin="10.400000000000002s" fill="freeze" /></path><path d="M83.71,79.08c4.27,2.63,11.03,10.8,12.1,14.88" class="stroke" stroke-dasharray="150"><set attributeName="opacity" to="0" dur="11.300000000000002s" /><animate attributeName="stroke-dashoffset" from="150" to="0" dur="1.8s" begin="11.300000000000002s" fill="freeze" /></path></svg>