<svg id="kvg-09ed2" class="kanjivg" viewBox="0 0 106 106" width="106" height="106" xmlns="http://www.w3.org/2000/svg" xmlns:xlink="http://www.w3.org/1999/xlink" xml:space="preserve" version="1.1" baseProfile="full"><defs><style type="text/css">path.black{fill:none;stroke:black;stroke-width:5;stroke-linecap:round;stroke-linejoin:round;}path.grey{fill:none;stroke:#ddd;stroke-width:5;stroke-linecap:round;stroke-linejoin:round;}path.stroke{fill:none;stroke:black;stroke-width:5;stroke-linecap:round;stroke-linejoin:round;}text{font-size:16px;font-family:Segoe UI Symbol,Cambria Math,DejaVu Sans,Symbola,Quivira,STIX,Code2000;-webkit-touch-callout:none;cursor:pointer;-webkit-user-select:none;-khtml-user-select:none;-moz-user-select:none;-ms-user-select:none;user-select: none;}text:hover{color:#777;}#reset{font-weight:bold;}</style><marker id="markerStart" markerWidth="8" markerHeight="8" style="overflow:visible;"><circle cx="0" cy="0" r="1.5" style="stroke:none;fill:red;fill-opacity:0.5;"/></marker><marker id="markerEnd" style="overflow:visible;"><circle cx="0" cy="0" r="0.8" style="stroke:none;fill:blue;fill-opacity:0.5;"><animate attributeName="opacity" from="1" to="0" dur="3s" repeatCount="indefinite" /></circle></marker></defs><path d="M29.11,18.41c0.8,0.8,1.14,1.84,1.4,3.33c1.05,6.1,2.44,15.14,3.45,22.03c0.2,1.34,0.38,2.59,0.54,3.73" class="grey" /><path d="M31.26,20.14c14.95-1.85,32.51-3.41,46.55-4.69c3.6-0.33,4.93,2.06,4.76,3.76c-0.35,3.51-2.57,13.12-4.73,20.58c-0.5,1.74-0.77,2.63-1.27,4.07" class="grey" /><path d="M33.82,32.24c6.81-0.74,37.68-3.74,45.65-3.91" class="grey" /><path d="M35.47,43.91c11.53-1.16,28.06-3.11,41.12-3.86" class="grey" /><path d="M53.29,19.56c0.98,0.93,1.45,1.98,1.49,3.11C55.14,32.86,55.05,57.6,55,67.75" class="grey" /><path d="M33.88,57.14c1.48,0.28,4.2,0.38,5.68,0.28c9.66-0.67,21.01-2.54,32.19-3.22c2.46-0.15,3.95,0.13,5.19,0.27" class="grey" /><path d="M20.63,70.47c2.16,0.4,6.14,0.56,8.29,0.4c18.27-1.37,34.62-3,52.13-3.34c3.6-0.07,5.77,0.19,7.57,0.39" class="grey" /><path d="M24.75,81.88c-1.27,6.05-7.36,13.11-9,14.62" class="grey" /><path d="M42,79.5c1.71,2.87,4.25,10.5,3.76,15.25" class="grey" /><path d="M62.75,78.5c2.65,2.69,6.5,10.5,6.5,15.25" class="grey" /><path d="M83.71,79.08c4.27,2.63,11.03,10.8,12.1,14.88" class="grey" /><path d="M29.11,18.41c0.8,0.8,1.14,1.84,1.4,3.33c1.05,6.1,2.44,15.14,3.45,22.03c0.2,1.34,0.38,2.59,0.54,3.73" class="stroke" stroke-dasharray="150"><animate attributeName="stroke-dashoffset" from="150" to="0" dur="1.8s" begin="0.0s" fill="freeze" /></path><path d="M31.26,20.14c14.95-1.85,32.51-3.41,46.55-4.69c3.6-0.33,4.93,2.06,4.76,3.76c-0.35,3.51-2.57,13.12-4.73,20.58c-0.5,1.74-0.77,2.63-1.27,4.07" class="stroke" stroke-dasharray="150"><set attributeName="opacity" to="0" dur="1.0s" /><animate attributeName="stroke-dashoffset" from="150" to="0" dur="1.8s" begin="1.0s" fill="freeze" /></path><path d="M33.82,32.24c6.81-0.74,37.68-3.74,45.65-3.91" class="stroke" stroke-dasharray="150"><set attributeName="opacity" to="0" dur="2.7s" /><animate attributeName="stroke-dashoffset" from="150" to="0" dur="1.8s" begin="2.7s" fill="freeze" /></path><path d="M35.47,43.91c11.53-1.16,28.06-3.11,41.12-3.86" class="stroke" stroke-dasharray="150"><set attributeName="opacity" to="0" dur="3.9000000000000004s" /><animate attributeName="stroke-dashoffset" from="150" to="0" dur="1.8s" begin="3.9000000000000004s" fill="freeze" /></path><path d="M53.29,19.56c0.98,0.93,1.45,1.98,1.49,3.11C55.14,32.86,55.05,57.6,55,67.75" class="stroke" stroke-dasharray="150"><set attributeName="opacity" to="0" dur="5.0s" /><animate attributeName="stroke-dashoffset" from="150" to="0" dur="1.8s" begin="5.0s" fill="freeze" /></path><path d="M33.88,57.14c1.48,0.28,4.2,0.38,5.68,0.28c9.66-0.67,21.01-2.54,32.19-3.22c2.46-0.15,3.95,0.13,5.19,0.27" class="stroke" stroke-dasharray="150"><set attributeName="opacity" to="0" dur="6.2s" /><animate attributeName="stroke-dashoffset" from="150" to="0" dur="1.8s" begin="6.2s" fill="freeze" /></path><path d="M20.63,70.47c2.16,0.4,6.14,0.56,8.29,0.4c18.27-1.37,34.62-3,52.13-3.34c3.6-0.07,5.77,0.19,7.57,0.39" class="stroke" stroke-dasharray="150"><set attributeName="opacity" to="0" dur="7.300000000000001s" /><animate attributeName="stroke-dashoffset" from="150" to="0" dur="1.8s" begin="7.300000000000001s" fill="freeze" /></path><path d="M24.75,81.88c-1.27,6.05-7.36,13.11-9,14.62" class="stroke" stroke-dasharray="150"><set attributeName="opacity" to="0" dur="8.8s" /><animate attributeName="stroke-dashoffset" from="150" to="0" dur="1.8s" begin="8.8s" fill="freeze" /></path><path d="M42,79.5c1.71,2.87,4.25,10.5,3.76,15.25" class="stroke" stroke-dasharray="150"><set attributeName="opacity" to="0" dur="9.700000000000001s" /><animate attributeName="stroke-dashoffset" from="150" to="0" dur="1.8s" begin="9.700000000000001s" fill="freeze" /></path><path d="M62.75,78.5c2.65,2.69,6.5,10.5,6.5,15.25" class="stroke" stroke-dasharray="150"><set attributeName="opacity" to="0" dur="10.600000000000001s" /><animate attributeName="stroke-dashoffset" from="150" to="0" dur="1.8s" begin="10.600000000000001s" fill="freeze" /></path><path d="M83.71,79.08c4.27,2.63,11.03,10.8,12.1,14.88" class="stroke" stroke-dasharray="150"><set attributeName="opacity" to="0" dur="11.500000000000002s" /><animate attributeName="stroke-dashoffset" from="150" to="0" dur="1.8s" begin="11.500000000000002s" fill="freeze" /></path></svg>