<svg id="kvg-09efd" class="kanjivg" viewBox="0 0 106 106" width="106" height="106" xmlns="http://www.w3.org/2000/svg" xmlns:xlink="http://www.w3.org/1999/xlink" xml:space="preserve" version="1.1" baseProfile="full"><defs><style type="text/css">path.black{fill:none;stroke:black;stroke-width:5;stroke-linecap:round;stroke-linejoin:round;}path.grey{fill:none;stroke:#ddd;stroke-width:5;stroke-linecap:round;stroke-linejoin:round;}path.stroke{fill:none;stroke:black;stroke-width:5;stroke-linecap:round;stroke-linejoin:round;}text{font-size:16px;font-family:Segoe UI Symbol,Cambria Math,DejaVu Sans,Symbola,Quivira,STIX,Code2000;-webkit-touch-callout:none;cursor:pointer;-webkit-user-select:none;-khtml-user-select:none;-moz-user-select:none;-ms-user-select:none;user-select: none;}text:hover{color:#777;}#reset{font-weight:bold;}</style><marker id="markerStart" markerWidth="8" markerHeight="8" style="overflow:visible;"><circle cx="0" cy="0" r="1.5" style="stroke:none;fill:red;fill-opacity:0.5;"/></marker><marker id="markerEnd" style="overflow:visible;"><circle cx="0" cy="0" r="0.8" style="stroke:none;fill:blue;fill-opacity:0.5;"><animate attributeName="opacity" from="1" to="0" dur="3s" repeatCount="indefinite" /></circle></marker></defs><path d="M22.22,18.58c0.66,0.7,0.76,1.15,1.05,2.06c0.98,3.12,2.23,9.37,3.19,13.47" class="grey" /><path d="M23.54,20.19c9.21-1.44,52.24-5.09,58.08-6.04c2.15-0.35,3.44,0.93,3.13,2.14c-1.26,4.97-2.01,7.22-2.88,10.7" class="grey" /><path d="M26.75,32c2.75,0,17-1.75,19.25-1.75" class="grey" /><path d="M61.5,28.5c5-0.5,19.75-1.25,22.75-1.25" class="grey" /><path d="M59.37,18.25c1.09,0.5,1.74,2.25,1.96,3.25c0.22,1,0,61.25-0.22,67.5" class="grey" /><path d="M45.49,20.37c0.74,1.19,1.38,2.59,1.38,4.43c0,12.45-0.03,51.14-0.03,56.7c0,13,2.92,13.53,24.17,13.53c22.25,0,23.89-1.78,23.89-11.12" class="grey" /><path d="M22.25,51c2.75,0,22-2.75,24.25-2.75" class="grey" /><path d="M20.37,48.75c1.09,0.5,1.74,2.25,1.96,3.25c0.67,3,2.42,24.75,3.42,34" class="grey" /><path d="M24.25,64.5c2.75,0,20.5-2.75,22.75-2.75" class="grey" /><path d="M26,80.75c2.75,0,18.5-2.75,20.75-2.75" class="grey" /><path d="M61.54,47.19c9.21-1.44,14.24-1.59,20.08-2.54c2.15-0.35,3.28,0.9,3.13,2.14c-0.76,6.72-2.51,24.97-3.38,31.7" class="grey" /><path d="M61.75,61.75c2.75,0,19.5-1.75,21.75-1.75" class="grey" /><path d="M62,77c2.75,0,17-1.75,19.25-1.75" class="grey" /><path d="M22.22,18.58c0.66,0.7,0.76,1.15,1.05,2.06c0.98,3.12,2.23,9.37,3.19,13.47" class="stroke" stroke-dasharray="150"><animate attributeName="stroke-dashoffset" from="150" to="0" dur="1.8s" begin="0.0s" fill="freeze" /></path><path d="M23.54,20.19c9.21-1.44,52.24-5.09,58.08-6.04c2.15-0.35,3.44,0.93,3.13,2.14c-1.26,4.97-2.01,7.22-2.88,10.7" class="stroke" stroke-dasharray="150"><set attributeName="opacity" to="0" dur="0.9s" /><animate attributeName="stroke-dashoffset" from="150" to="0" dur="1.8s" begin="0.9s" fill="freeze" /></path><path d="M26.75,32c2.75,0,17-1.75,19.25-1.75" class="stroke" stroke-dasharray="150"><set attributeName="opacity" to="0" dur="2.6s" /><animate attributeName="stroke-dashoffset" from="150" to="0" dur="1.8s" begin="2.6s" fill="freeze" /></path><path d="M61.5,28.5c5-0.5,19.75-1.25,22.75-1.25" class="stroke" stroke-dasharray="150"><set attributeName="opacity" to="0" dur="3.5s" /><animate attributeName="stroke-dashoffset" from="150" to="0" dur="1.8s" begin="3.5s" fill="freeze" /></path><path d="M59.37,18.25c1.09,0.5,1.74,2.25,1.96,3.25c0.22,1,0,61.25-0.22,67.5" class="stroke" stroke-dasharray="150"><set attributeName="opacity" to="0" dur="4.5s" /><animate attributeName="stroke-dashoffset" from="150" to="0" dur="1.8s" begin="4.5s" fill="freeze" /></path><path d="M45.49,20.37c0.74,1.19,1.38,2.59,1.38,4.43c0,12.45-0.03,51.14-0.03,56.7c0,13,2.92,13.53,24.17,13.53c22.25,0,23.89-1.78,23.89-11.12" class="stroke" stroke-dasharray="150"><set attributeName="opacity" to="0" dur="6.2s" /><animate attributeName="stroke-dashoffset" from="150" to="0" dur="1.8s" begin="6.2s" fill="freeze" /></path><path d="M22.25,51c2.75,0,22-2.75,24.25-2.75" class="stroke" stroke-dasharray="150"><set attributeName="opacity" to="0" dur="8.2s" /><animate attributeName="stroke-dashoffset" from="150" to="0" dur="1.8s" begin="8.2s" fill="freeze" /></path><path d="M20.37,48.75c1.09,0.5,1.74,2.25,1.96,3.25c0.67,3,2.42,24.75,3.42,34" class="stroke" stroke-dasharray="150"><set attributeName="opacity" to="0" dur="9.2s" /><animate attributeName="stroke-dashoffset" from="150" to="0" dur="1.8s" begin="9.2s" fill="freeze" /></path><path d="M24.25,64.5c2.75,0,20.5-2.75,22.75-2.75" class="stroke" stroke-dasharray="150"><set attributeName="opacity" to="0" dur="10.2s" /><animate attributeName="stroke-dashoffset" from="150" to="0" dur="1.8s" begin="10.2s" fill="freeze" /></path><path d="M26,80.75c2.75,0,18.5-2.75,20.75-2.75" class="stroke" stroke-dasharray="150"><set attributeName="opacity" to="0" dur="11.2s" /><animate attributeName="stroke-dashoffset" from="150" to="0" dur="1.8s" begin="11.2s" fill="freeze" /></path><path d="M61.54,47.19c9.21-1.44,14.24-1.59,20.08-2.54c2.15-0.35,3.28,0.9,3.13,2.14c-0.76,6.72-2.51,24.97-3.38,31.7" class="stroke" stroke-dasharray="150"><set attributeName="opacity" to="0" dur="12.2s" /><animate attributeName="stroke-dashoffset" from="150" to="0" dur="1.8s" begin="12.2s" fill="freeze" /></path><path d="M61.75,61.75c2.75,0,19.5-1.75,21.75-1.75" class="stroke" stroke-dasharray="150"><set attributeName="opacity" to="0" dur="13.6s" /><animate attributeName="stroke-dashoffset" from="150" to="0" dur="1.8s" begin="13.6s" fill="freeze" /></path><path d="M62,77c2.75,0,17-1.75,19.25-1.75" class="stroke" stroke-dasharray="150"><set attributeName="opacity" to="0" dur="14.6s" /><animate attributeName="stroke-dashoffset" from="150" to="0" dur="1.8s" begin="14.6s" fill="freeze" /></path></svg>