<svg id="kvg-09ef9" class="kanjivg" viewBox="0 0 106 106" width="106" height="106" xmlns="http://www.w3.org/2000/svg" xmlns:xlink="http://www.w3.org/1999/xlink" xml:space="preserve" version="1.1" baseProfile="full"><defs><style type="text/css">path.black{fill:none;stroke:black;stroke-width:5;stroke-linecap:round;stroke-linejoin:round;}path.grey{fill:none;stroke:#ddd;stroke-width:5;stroke-linecap:round;stroke-linejoin:round;}path.stroke{fill:none;stroke:black;stroke-width:5;stroke-linecap:round;stroke-linejoin:round;}text{font-size:16px;font-family:Segoe UI Symbol,Cambria Math,DejaVu Sans,Symbola,Quivira,STIX,Code2000;-webkit-touch-callout:none;cursor:pointer;-webkit-user-select:none;-khtml-user-select:none;-moz-user-select:none;-ms-user-select:none;user-select: none;}text:hover{color:#777;}#reset{font-weight:bold;}</style><marker id="markerStart" markerWidth="8" markerHeight="8" style="overflow:visible;"><circle cx="0" cy="0" r="1.5" style="stroke:none;fill:red;fill-opacity:0.5;"/></marker><marker id="markerEnd" style="overflow:visible;"><circle cx="0" cy="0" r="0.8" style="stroke:none;fill:blue;fill-opacity:0.5;"><animate attributeName="opacity" from="1" to="0" dur="3s" repeatCount="indefinite" /></circle></marker></defs><path d="M44.87,13.32c1.09,0.5,1.74,2.25,1.96,3.25c0.22,1-0.08,9-0.08,15.5" class="grey" /><path d="M60.12,11.57c1.09,0.5,1.74,2.25,1.96,3.25c0.22,1-0.08,7.75-0.08,15.5" class="grey" /><path d="M28.02,20.9c2.57,1.74,6.65,7.17,7.29,9.88" class="grey" /><path d="M80.71,16.21c0.02,0.26,0.03,0.67-0.03,1.05c-0.4,2.21-2.68,7.06-5.8,10.03" class="grey" /><path d="M13.25,34.71c1.54,0.59,4.36,0.73,5.89,0.59c17.11-1.48,52.86-4.98,70.48-5.21c2.56-0.03,4.1,0.28,5.38,0.58" class="grey" /><path d="M38.5,38.96c0.06,0.4,0.12,1.02-0.12,1.59c-1.43,3.36-9.61,10.72-20.82,15.23" class="grey" /><path d="M70.02,36.65c6.99,1.88,18.05,7.71,19.79,10.63" class="grey" /><path d="M27.75,53.82c0.75,1.25,1,3.24,1,5.5c0,3.75,0.25,35.5,0.25,39.25" class="grey" /><path d="M28.75,55.82c9.5-1,45.6-6.5,47.5-6.5c2.5,0,5,1.25,5,4c0,4-0.25,31.75-0.25,37.5c0,9.25-3.25,5.25-6.25,2" class="grey" /><path d="M53.5,35.32c0.75,1.25,1,3.24,1,5.5c0,3.75-0.25,53-0.25,56.75" class="grey" /><path d="M42.2,63.71c0.02,0.64-0.03,1.64-0.03,2.56c0,6.29-0.91,16.29-6.26,24.51" class="grey" /><path d="M67.54,60.82c0.4,0.67,0.54,1.74,0.54,2.95c0,2.01,0.13,19.04,0.13,21.05" class="grey" /><path d="M44.87,13.32c1.09,0.5,1.74,2.25,1.96,3.25c0.22,1-0.08,9-0.08,15.5" class="stroke" stroke-dasharray="150"><animate attributeName="stroke-dashoffset" from="150" to="0" dur="1.8s" begin="0.0s" fill="freeze" /></path><path d="M60.12,11.57c1.09,0.5,1.74,2.25,1.96,3.25c0.22,1-0.08,7.75-0.08,15.5" class="stroke" stroke-dasharray="150"><set attributeName="opacity" to="0" dur="0.9s" /><animate attributeName="stroke-dashoffset" from="150" to="0" dur="1.8s" begin="0.9s" fill="freeze" /></path><path d="M28.02,20.9c2.57,1.74,6.65,7.17,7.29,9.88" class="stroke" stroke-dasharray="150"><set attributeName="opacity" to="0" dur="1.8s" /><animate attributeName="stroke-dashoffset" from="150" to="0" dur="1.8s" begin="1.8s" fill="freeze" /></path><path d="M80.71,16.21c0.02,0.26,0.03,0.67-0.03,1.05c-0.4,2.21-2.68,7.06-5.8,10.03" class="stroke" stroke-dasharray="150"><set attributeName="opacity" to="0" dur="2.7s" /><animate attributeName="stroke-dashoffset" from="150" to="0" dur="1.8s" begin="2.7s" fill="freeze" /></path><path d="M13.25,34.71c1.54,0.59,4.36,0.73,5.89,0.59c17.11-1.48,52.86-4.98,70.48-5.21c2.56-0.03,4.1,0.28,5.38,0.58" class="stroke" stroke-dasharray="150"><set attributeName="opacity" to="0" dur="3.6s" /><animate attributeName="stroke-dashoffset" from="150" to="0" dur="1.8s" begin="3.6s" fill="freeze" /></path><path d="M38.5,38.96c0.06,0.4,0.12,1.02-0.12,1.59c-1.43,3.36-9.61,10.72-20.82,15.23" class="stroke" stroke-dasharray="150"><set attributeName="opacity" to="0" dur="5.3s" /><animate attributeName="stroke-dashoffset" from="150" to="0" dur="1.8s" begin="5.3s" fill="freeze" /></path><path d="M70.02,36.65c6.99,1.88,18.05,7.71,19.79,10.63" class="stroke" stroke-dasharray="150"><set attributeName="opacity" to="0" dur="6.3s" /><animate attributeName="stroke-dashoffset" from="150" to="0" dur="1.8s" begin="6.3s" fill="freeze" /></path><path d="M27.75,53.82c0.75,1.25,1,3.24,1,5.5c0,3.75,0.25,35.5,0.25,39.25" class="stroke" stroke-dasharray="150"><set attributeName="opacity" to="0" dur="7.3s" /><animate attributeName="stroke-dashoffset" from="150" to="0" dur="1.8s" begin="7.3s" fill="freeze" /></path><path d="M28.75,55.82c9.5-1,45.6-6.5,47.5-6.5c2.5,0,5,1.25,5,4c0,4-0.25,31.75-0.25,37.5c0,9.25-3.25,5.25-6.25,2" class="stroke" stroke-dasharray="150"><set attributeName="opacity" to="0" dur="8.4s" /><animate attributeName="stroke-dashoffset" from="150" to="0" dur="1.8s" begin="8.4s" fill="freeze" /></path><path d="M53.5,35.32c0.75,1.25,1,3.24,1,5.5c0,3.75-0.25,53-0.25,56.75" class="stroke" stroke-dasharray="150"><set attributeName="opacity" to="0" dur="10.3s" /><animate attributeName="stroke-dashoffset" from="150" to="0" dur="1.8s" begin="10.3s" fill="freeze" /></path><path d="M42.2,63.71c0.02,0.64-0.03,1.64-0.03,2.56c0,6.29-0.91,16.29-6.26,24.51" class="stroke" stroke-dasharray="150"><set attributeName="opacity" to="0" dur="11.8s" /><animate attributeName="stroke-dashoffset" from="150" to="0" dur="1.8s" begin="11.8s" fill="freeze" /></path><path d="M67.54,60.82c0.4,0.67,0.54,1.74,0.54,2.95c0,2.01,0.13,19.04,0.13,21.05" class="stroke" stroke-dasharray="150"><set attributeName="opacity" to="0" dur="12.8s" /><animate attributeName="stroke-dashoffset" from="150" to="0" dur="1.8s" begin="12.8s" fill="freeze" /></path></svg>