<svg id="kvg-09f0e" class="kanjivg" viewBox="0 0 106 106" width="106" height="106" xmlns="http://www.w3.org/2000/svg" xmlns:xlink="http://www.w3.org/1999/xlink" xml:space="preserve" version="1.1" baseProfile="full"><defs><style type="text/css">path.black{fill:none;stroke:black;stroke-width:5;stroke-linecap:round;stroke-linejoin:round;}path.grey{fill:none;stroke:#ddd;stroke-width:5;stroke-linecap:round;stroke-linejoin:round;}path.stroke{fill:none;stroke:black;stroke-width:5;stroke-linecap:round;stroke-linejoin:round;}text{font-size:16px;font-family:Segoe UI Symbol,Cambria Math,DejaVu Sans,Symbola,Quivira,STIX,Code2000;-webkit-touch-callout:none;cursor:pointer;-webkit-user-select:none;-khtml-user-select:none;-moz-user-select:none;-ms-user-select:none;user-select: none;}text:hover{color:#777;}#reset{font-weight:bold;}</style><marker id="markerStart" markerWidth="8" markerHeight="8" style="overflow:visible;"><circle cx="0" cy="0" r="1.5" style="stroke:none;fill:red;fill-opacity:0.5;"/></marker><marker id="markerEnd" style="overflow:visible;"><circle cx="0" cy="0" r="0.8" style="stroke:none;fill:blue;fill-opacity:0.5;"><animate attributeName="opacity" from="1" to="0" dur="3s" repeatCount="indefinite" /></circle></marker></defs><path d="M41.2,13.02c0.38,0.69,0.94,1.2,0.94,2.12s-0.26,27.26-0.26,27.72" class="grey" /><path d="M42.02,13.91c2.17-0.11,19.5-1.79,21.48-1.92c1.65-0.11,2.95,0.64,2.81,1.49c-0.18,1.08-0.39,16.4-0.39,26.5c0,1.04,0,3.55-1.01,2.44" class="grey" /><path d="M42.74,22.59c4.29-0.16,19.44-1.46,22.92-1.46" class="grey" /><path d="M42.92,31.84c5.76-0.39,16.9-1.38,22.49-1.38" class="grey" /><path d="M42.34,41.8c4.95-0.2,15.99-1.03,21.58-1.03" class="grey" /><path d="M23.37,25.75c1.09,0.5,1.74,2.25,1.96,3.25c0.22,1,0.13,17.26-0.22,23.5C25,54.5,25.5,55,27,54.75s16.25-1.75,17.75-2s3,1,3,2.75s0,41.25,0,43.25" class="grey" /><path d="M15.25,66.89c0.94,0.38,2.66,0.45,3.6,0.38c5.37-0.38,20.9-2.02,28.61-1.88" class="grey" /><path d="M29.52,69.14c0.04,0.58,0.02,1.49-0.07,2.33c-0.7,6.28-3.7,15.53-12.64,22.25" class="grey" /><path d="M83.87,21c1.09,0.5,1.74,2.25,1.96,3.25c0.22,1,0,19.75-0.22,26" class="grey" /><path d="M61.85,52.77c5.98-0.66,16.9-1.88,22.11-1.88c1.57,0,2.54,0.11,4.29,0.37" class="grey" /><path d="M59.87,51.5c1.09,0.5,1.74,2.25,1.96,3.25c0.22,1,0,36.75-0.22,43" class="grey" /><path d="M62.35,64.77c6.9-0.27,24.4-2.02,31.11-2.38c1.56-0.08,2.5,0.18,3.29,0.37" class="grey" /><path d="M81.12,65.5c1.09,0.5,1.74,2.25,1.96,3.25c0.22,1,0,23.25-0.22,29.5" class="grey" /><path d="M41.2,13.02c0.38,0.69,0.94,1.2,0.94,2.12s-0.26,27.26-0.26,27.72" class="stroke" stroke-dasharray="150"><animate attributeName="stroke-dashoffset" from="150" to="0" dur="1.8s" begin="0.0s" fill="freeze" /></path><path d="M42.02,13.91c2.17-0.11,19.5-1.79,21.48-1.92c1.65-0.11,2.95,0.64,2.81,1.49c-0.18,1.08-0.39,16.4-0.39,26.5c0,1.04,0,3.55-1.01,2.44" class="stroke" stroke-dasharray="150"><set attributeName="opacity" to="0" dur="1.0s" /><animate attributeName="stroke-dashoffset" from="150" to="0" dur="1.8s" begin="1.0s" fill="freeze" /></path><path d="M42.74,22.59c4.29-0.16,19.44-1.46,22.92-1.46" class="stroke" stroke-dasharray="150"><set attributeName="opacity" to="0" dur="2.4s" /><animate attributeName="stroke-dashoffset" from="150" to="0" dur="1.8s" begin="2.4s" fill="freeze" /></path><path d="M42.92,31.84c5.76-0.39,16.9-1.38,22.49-1.38" class="stroke" stroke-dasharray="150"><set attributeName="opacity" to="0" dur="3.4s" /><animate attributeName="stroke-dashoffset" from="150" to="0" dur="1.8s" begin="3.4s" fill="freeze" /></path><path d="M42.34,41.8c4.95-0.2,15.99-1.03,21.58-1.03" class="stroke" stroke-dasharray="150"><set attributeName="opacity" to="0" dur="4.4s" /><animate attributeName="stroke-dashoffset" from="150" to="0" dur="1.8s" begin="4.4s" fill="freeze" /></path><path d="M23.37,25.75c1.09,0.5,1.74,2.25,1.96,3.25c0.22,1,0.13,17.26-0.22,23.5C25,54.5,25.5,55,27,54.75s16.25-1.75,17.75-2s3,1,3,2.75s0,41.25,0,43.25" class="stroke" stroke-dasharray="150"><set attributeName="opacity" to="0" dur="5.4s" /><animate attributeName="stroke-dashoffset" from="150" to="0" dur="1.8s" begin="5.4s" fill="freeze" /></path><path d="M15.25,66.89c0.94,0.38,2.66,0.45,3.6,0.38c5.37-0.38,20.9-2.02,28.61-1.88" class="stroke" stroke-dasharray="150"><set attributeName="opacity" to="0" dur="7.2s" /><animate attributeName="stroke-dashoffset" from="150" to="0" dur="1.8s" begin="7.2s" fill="freeze" /></path><path d="M29.52,69.14c0.04,0.58,0.02,1.49-0.07,2.33c-0.7,6.28-3.7,15.53-12.64,22.25" class="stroke" stroke-dasharray="150"><set attributeName="opacity" to="0" dur="8.2s" /><animate attributeName="stroke-dashoffset" from="150" to="0" dur="1.8s" begin="8.2s" fill="freeze" /></path><path d="M83.87,21c1.09,0.5,1.74,2.25,1.96,3.25c0.22,1,0,19.75-0.22,26" class="stroke" stroke-dasharray="150"><set attributeName="opacity" to="0" dur="9.2s" /><animate attributeName="stroke-dashoffset" from="150" to="0" dur="1.8s" begin="9.2s" fill="freeze" /></path><path d="M61.85,52.77c5.98-0.66,16.9-1.88,22.11-1.88c1.57,0,2.54,0.11,4.29,0.37" class="stroke" stroke-dasharray="150"><set attributeName="opacity" to="0" dur="10.2s" /><animate attributeName="stroke-dashoffset" from="150" to="0" dur="1.8s" begin="10.2s" fill="freeze" /></path><path d="M59.87,51.5c1.09,0.5,1.74,2.25,1.96,3.25c0.22,1,0,36.75-0.22,43" class="stroke" stroke-dasharray="150"><set attributeName="opacity" to="0" dur="11.2s" /><animate attributeName="stroke-dashoffset" from="150" to="0" dur="1.8s" begin="11.2s" fill="freeze" /></path><path d="M62.35,64.77c6.9-0.27,24.4-2.02,31.11-2.38c1.56-0.08,2.5,0.18,3.29,0.37" class="stroke" stroke-dasharray="150"><set attributeName="opacity" to="0" dur="12.399999999999999s" /><animate attributeName="stroke-dashoffset" from="150" to="0" dur="1.8s" begin="12.399999999999999s" fill="freeze" /></path><path d="M81.12,65.5c1.09,0.5,1.74,2.25,1.96,3.25c0.22,1,0,23.25-0.22,29.5" class="stroke" stroke-dasharray="150"><set attributeName="opacity" to="0" dur="13.399999999999999s" /><animate attributeName="stroke-dashoffset" from="150" to="0" dur="1.8s" begin="13.399999999999999s" fill="freeze" /></path></svg>