<svg id="kvg-09f20" class="kanjivg" viewBox="0 0 106 106" width="106" height="106" xmlns="http://www.w3.org/2000/svg" xmlns:xlink="http://www.w3.org/1999/xlink" xml:space="preserve" version="1.1" baseProfile="full"><defs><style type="text/css">path.black{fill:none;stroke:black;stroke-width:5;stroke-linecap:round;stroke-linejoin:round;}path.grey{fill:none;stroke:#ddd;stroke-width:5;stroke-linecap:round;stroke-linejoin:round;}path.stroke{fill:none;stroke:black;stroke-width:5;stroke-linecap:round;stroke-linejoin:round;}text{font-size:16px;font-family:Segoe UI Symbol,Cambria Math,DejaVu Sans,Symbola,Quivira,STIX,Code2000;-webkit-touch-callout:none;cursor:pointer;-webkit-user-select:none;-khtml-user-select:none;-moz-user-select:none;-ms-user-select:none;user-select: none;}text:hover{color:#777;}#reset{font-weight:bold;}</style><marker id="markerStart" markerWidth="8" markerHeight="8" style="overflow:visible;"><circle cx="0" cy="0" r="1.5" style="stroke:none;fill:red;fill-opacity:0.5;"/></marker><marker id="markerEnd" style="overflow:visible;"><circle cx="0" cy="0" r="0.8" style="stroke:none;fill:blue;fill-opacity:0.5;"><animate attributeName="opacity" from="1" to="0" dur="3s" repeatCount="indefinite" /></circle></marker></defs><path d="M44.34,13.21c-0.22,0.91-0.66,1.5-1.26,2c-4.45,3.67-8.2,6.04-14.95,9.17" class="grey" /><path d="M24.87,23.75c0.69,0.69,1.12,1.61,1.31,2.63c0.72,3.73,3.49,15.57,4.21,20.61" class="grey" /><path d="M57.9,18.95c1.7,0.42,3.41,0.7,5.11,0.35c3.76-0.5,11.13-2.03,14.11-2.56c2.33-0.41,3.79,1.54,3.44,3.75C79.5,27.4,78.19,37.9,77.18,42.8" class="grey" /><path d="M29.02,33.63c4.85-1.01,8.1-1.63,11.99-2.36c1.56-0.29,3.14-0.47,4.73-0.53" class="grey" /><path d="M57.78,29.54c2.16,0.44,4.29,0.33,6.48,0.04c5.49-0.71,13.19-1.39,14.29-1.47" class="grey" /><path d="M31.08,44.57c16.05-2.2,28.8-3.7,46.16-4.84" class="grey" /><path d="M26.87,52.76c0.81,0.81,1.03,2.24,1.03,3.49c0,0.85-0.02,27.5-0.02,35.62c0,2.15,0.81,2.76,3.24,0.89c4.39-3.39,9.51-7.39,15.39-11.51" class="grey" /><path d="M35.75,52.25c2.56,1.01,6.61,4.17,7.25,5.75" class="grey" /><path d="M36.75,68.75c2.56,1.01,6.36,4.42,7,6" class="grey" /><path d="M51.37,48.01c0.94,0.94,1.03,2.24,1.03,3.24c0,0.85-0.02,32.25-0.02,40.62c0,2.96,1.01,3.25,3.53,1.16c4.72-3.91,11.76-9.82,15.1-11.79" class="grey" /><path d="M59.25,51.75c2.56,1.01,6.61,4.17,7.25,5.75" class="grey" /><path d="M59.5,67c2.82,1.32,7.04,5.69,7.75,7.75" class="grey" /><path d="M73,46.75c0.88,0.88,1.63,2.52,1.75,4.67c0.81,14.84,6.36,34.5,17.98,42.56c5.78,4.01,5.53,1.01,4.59-9" class="grey" /><path d="M44.34,13.21c-0.22,0.91-0.66,1.5-1.26,2c-4.45,3.67-8.2,6.04-14.95,9.17" class="stroke" stroke-dasharray="150"><animate attributeName="stroke-dashoffset" from="150" to="0" dur="1.8s" begin="0.0s" fill="freeze" /></path><path d="M24.87,23.75c0.69,0.69,1.12,1.61,1.31,2.63c0.72,3.73,3.49,15.57,4.21,20.61" class="stroke" stroke-dasharray="150"><set attributeName="opacity" to="0" dur="1.0s" /><animate attributeName="stroke-dashoffset" from="150" to="0" dur="1.8s" begin="1.0s" fill="freeze" /></path><path d="M57.9,18.95c1.7,0.42,3.41,0.7,5.11,0.35c3.76-0.5,11.13-2.03,14.11-2.56c2.33-0.41,3.79,1.54,3.44,3.75C79.5,27.4,78.19,37.9,77.18,42.8" class="stroke" stroke-dasharray="150"><set attributeName="opacity" to="0" dur="2.0s" /><animate attributeName="stroke-dashoffset" from="150" to="0" dur="1.8s" begin="2.0s" fill="freeze" /></path><path d="M29.02,33.63c4.85-1.01,8.1-1.63,11.99-2.36c1.56-0.29,3.14-0.47,4.73-0.53" class="stroke" stroke-dasharray="150"><set attributeName="opacity" to="0" dur="3.2s" /><animate attributeName="stroke-dashoffset" from="150" to="0" dur="1.8s" begin="3.2s" fill="freeze" /></path><path d="M57.78,29.54c2.16,0.44,4.29,0.33,6.48,0.04c5.49-0.71,13.19-1.39,14.29-1.47" class="stroke" stroke-dasharray="150"><set attributeName="opacity" to="0" dur="4.1000000000000005s" /><animate attributeName="stroke-dashoffset" from="150" to="0" dur="1.8s" begin="4.1000000000000005s" fill="freeze" /></path><path d="M31.08,44.57c16.05-2.2,28.8-3.7,46.16-4.84" class="stroke" stroke-dasharray="150"><set attributeName="opacity" to="0" dur="5.1000000000000005s" /><animate attributeName="stroke-dashoffset" from="150" to="0" dur="1.8s" begin="5.1000000000000005s" fill="freeze" /></path><path d="M26.87,52.76c0.81,0.81,1.03,2.24,1.03,3.49c0,0.85-0.02,27.5-0.02,35.62c0,2.15,0.81,2.76,3.24,0.89c4.39-3.39,9.51-7.39,15.39-11.51" class="stroke" stroke-dasharray="150"><set attributeName="opacity" to="0" dur="6.300000000000001s" /><animate attributeName="stroke-dashoffset" from="150" to="0" dur="1.8s" begin="6.300000000000001s" fill="freeze" /></path><path d="M35.75,52.25c2.56,1.01,6.61,4.17,7.25,5.75" class="stroke" stroke-dasharray="150"><set attributeName="opacity" to="0" dur="7.800000000000001s" /><animate attributeName="stroke-dashoffset" from="150" to="0" dur="1.8s" begin="7.800000000000001s" fill="freeze" /></path><path d="M36.75,68.75c2.56,1.01,6.36,4.42,7,6" class="stroke" stroke-dasharray="150"><set attributeName="opacity" to="0" dur="8.700000000000001s" /><animate attributeName="stroke-dashoffset" from="150" to="0" dur="1.8s" begin="8.700000000000001s" fill="freeze" /></path><path d="M51.37,48.01c0.94,0.94,1.03,2.24,1.03,3.24c0,0.85-0.02,32.25-0.02,40.62c0,2.96,1.01,3.25,3.53,1.16c4.72-3.91,11.76-9.82,15.1-11.79" class="stroke" stroke-dasharray="150"><set attributeName="opacity" to="0" dur="9.600000000000001s" /><animate attributeName="stroke-dashoffset" from="150" to="0" dur="1.8s" begin="9.600000000000001s" fill="freeze" /></path><path d="M59.25,51.75c2.56,1.01,6.61,4.17,7.25,5.75" class="stroke" stroke-dasharray="150"><set attributeName="opacity" to="0" dur="11.100000000000001s" /><animate attributeName="stroke-dashoffset" from="150" to="0" dur="1.8s" begin="11.100000000000001s" fill="freeze" /></path><path d="M59.5,67c2.82,1.32,7.04,5.69,7.75,7.75" class="stroke" stroke-dasharray="150"><set attributeName="opacity" to="0" dur="12.000000000000002s" /><animate attributeName="stroke-dashoffset" from="150" to="0" dur="1.8s" begin="12.000000000000002s" fill="freeze" /></path><path d="M73,46.75c0.88,0.88,1.63,2.52,1.75,4.67c0.81,14.84,6.36,34.5,17.98,42.56c5.78,4.01,5.53,1.01,4.59-9" class="stroke" stroke-dasharray="150"><set attributeName="opacity" to="0" dur="12.900000000000002s" /><animate attributeName="stroke-dashoffset" from="150" to="0" dur="1.8s" begin="12.900000000000002s" fill="freeze" /></path></svg>