<svg id="kvg-09f3b-Kaisho" class="kanjivg" viewBox="0 0 106 106" width="106" height="106" xmlns="http://www.w3.org/2000/svg" xmlns:xlink="http://www.w3.org/1999/xlink" xml:space="preserve" version="1.1" baseProfile="full"><defs><style type="text/css">path.black{fill:none;stroke:black;stroke-width:5;stroke-linecap:round;stroke-linejoin:round;}path.grey{fill:none;stroke:#ddd;stroke-width:5;stroke-linecap:round;stroke-linejoin:round;}path.stroke{fill:none;stroke:black;stroke-width:5;stroke-linecap:round;stroke-linejoin:round;}text{font-size:16px;font-family:Segoe UI Symbol,Cambria Math,DejaVu Sans,Symbola,Quivira,STIX,Code2000;-webkit-touch-callout:none;cursor:pointer;-webkit-user-select:none;-khtml-user-select:none;-moz-user-select:none;-ms-user-select:none;user-select: none;}text:hover{color:#777;}#reset{font-weight:bold;}</style><marker id="markerStart" markerWidth="8" markerHeight="8" style="overflow:visible;"><circle cx="0" cy="0" r="1.5" style="stroke:none;fill:red;fill-opacity:0.5;"/></marker><marker id="markerEnd" style="overflow:visible;"><circle cx="0" cy="0" r="0.8" style="stroke:none;fill:blue;fill-opacity:0.5;"><animate attributeName="opacity" from="1" to="0" dur="3s" repeatCount="indefinite" /></circle></marker></defs><path d="M52.98,8.92c0.26,0.08,0.76,2.44,0.59,2.68c-1.08,1.59-2.18,4.26-4.73,6.35" class="grey" /><path d="M39.25,19.65c0.44,0.58,1.09,1.01,1.09,1.78c0,0.77,1.2,20.72,1.2,21.1c0,0.39,0.15,1.2,0.3,1.97" class="grey" /><path d="M41.08,19.89c2.51-0.1,24.14-2.33,26.43-2.45c1.91-0.1,3.24,1.31,3.25,3.25c0,0.93-1.26,12.3-2.24,22.78" class="grey" /><path d="M42.54,27.35c4.43-0.12,8.86-0.57,13.27-0.91c1.33-0.1,2.66-0.21,3.94-0.3" class="grey" /><path d="M42.74,35.13c4.26-0.21,8.5-0.61,12.75-0.95c1.17-0.09,2.35-0.18,3.5-0.27" class="grey" /><path d="M42.98,43.01c4.99,0,18.11-0.86,24.57-0.86" class="grey" /><path d="M31.99,51.65c0.34,0.3,0.34,0.51,0.53,0.89c1.5,3.13,2.87,11.03,3.76,16.86" class="grey" /><path d="M33.58,52.08c11.88-0.77,31.75-2.09,40.62-2.74c3.26-0.24,4.55,1.41,4.05,4.41c-0.53,3.17-2,8.5-3.27,13.5" class="grey" /><path d="M54.4,51.14c-0.16,1.86-0.3,14.19-0.29,15.74" class="grey" /><path d="M35.72,60.16c9.1-0.73,18.23-1.25,27.35-1.83c1.09-0.07,2.16-0.14,3.17-0.2" class="grey" /><path d="M36.9,68.55c8.55-0.33,26.37-1.77,38.17-2.31" class="grey" /><path d="M15.88,81.98c1.52,0.54,4.3,0.63,5.82,0.54c15.8-0.91,47.05-4.27,67.11-4.73c2.53-0.06,4.05,0.26,5.31,0.53" class="grey" /><path d="M44.75,70.75c0.75,1,0.72,1.91,0.72,2.92C45.47,85,42.5,94.75,31,100" class="grey" /><path d="M65.13,68.91c0.82,0.38,1.31,1.69,1.47,2.44c0.16,0.75,0,23.47-0.16,28.16" class="grey" /><path d="M52.98,8.92c0.26,0.08,0.76,2.44,0.59,2.68c-1.08,1.59-2.18,4.26-4.73,6.35" class="stroke" stroke-dasharray="150"><animate attributeName="stroke-dashoffset" from="150" to="0" dur="1.8s" begin="0.0s" fill="freeze" /></path><path d="M39.25,19.65c0.44,0.58,1.09,1.01,1.09,1.78c0,0.77,1.2,20.72,1.2,21.1c0,0.39,0.15,1.2,0.3,1.97" class="stroke" stroke-dasharray="150"><set attributeName="opacity" to="0" dur="0.9s" /><animate attributeName="stroke-dashoffset" from="150" to="0" dur="1.8s" begin="0.9s" fill="freeze" /></path><path d="M41.08,19.89c2.51-0.1,24.14-2.33,26.43-2.45c1.91-0.1,3.24,1.31,3.25,3.25c0,0.93-1.26,12.3-2.24,22.78" class="stroke" stroke-dasharray="150"><set attributeName="opacity" to="0" dur="1.9s" /><animate attributeName="stroke-dashoffset" from="150" to="0" dur="1.8s" begin="1.9s" fill="freeze" /></path><path d="M42.54,27.35c4.43-0.12,8.86-0.57,13.27-0.91c1.33-0.1,2.66-0.21,3.94-0.3" class="stroke" stroke-dasharray="150"><set attributeName="opacity" to="0" dur="3.2s" /><animate attributeName="stroke-dashoffset" from="150" to="0" dur="1.8s" begin="3.2s" fill="freeze" /></path><path d="M42.74,35.13c4.26-0.21,8.5-0.61,12.75-0.95c1.17-0.09,2.35-0.18,3.5-0.27" class="stroke" stroke-dasharray="150"><set attributeName="opacity" to="0" dur="4.1000000000000005s" /><animate attributeName="stroke-dashoffset" from="150" to="0" dur="1.8s" begin="4.1000000000000005s" fill="freeze" /></path><path d="M42.98,43.01c4.99,0,18.11-0.86,24.57-0.86" class="stroke" stroke-dasharray="150"><set attributeName="opacity" to="0" dur="5.000000000000001s" /><animate attributeName="stroke-dashoffset" from="150" to="0" dur="1.8s" begin="5.000000000000001s" fill="freeze" /></path><path d="M31.99,51.65c0.34,0.3,0.34,0.51,0.53,0.89c1.5,3.13,2.87,11.03,3.76,16.86" class="stroke" stroke-dasharray="150"><set attributeName="opacity" to="0" dur="6.000000000000001s" /><animate attributeName="stroke-dashoffset" from="150" to="0" dur="1.8s" begin="6.000000000000001s" fill="freeze" /></path><path d="M33.58,52.08c11.88-0.77,31.75-2.09,40.62-2.74c3.26-0.24,4.55,1.41,4.05,4.41c-0.53,3.17-2,8.5-3.27,13.5" class="stroke" stroke-dasharray="150"><set attributeName="opacity" to="0" dur="6.900000000000001s" /><animate attributeName="stroke-dashoffset" from="150" to="0" dur="1.8s" begin="6.900000000000001s" fill="freeze" /></path><path d="M54.4,51.14c-0.16,1.86-0.3,14.19-0.29,15.74" class="stroke" stroke-dasharray="150"><set attributeName="opacity" to="0" dur="8.400000000000002s" /><animate attributeName="stroke-dashoffset" from="150" to="0" dur="1.8s" begin="8.400000000000002s" fill="freeze" /></path><path d="M35.72,60.16c9.1-0.73,18.23-1.25,27.35-1.83c1.09-0.07,2.16-0.14,3.17-0.2" class="stroke" stroke-dasharray="150"><set attributeName="opacity" to="0" dur="9.300000000000002s" /><animate attributeName="stroke-dashoffset" from="150" to="0" dur="1.8s" begin="9.300000000000002s" fill="freeze" /></path><path d="M36.9,68.55c8.55-0.33,26.37-1.77,38.17-2.31" class="stroke" stroke-dasharray="150"><set attributeName="opacity" to="0" dur="10.300000000000002s" /><animate attributeName="stroke-dashoffset" from="150" to="0" dur="1.8s" begin="10.300000000000002s" fill="freeze" /></path><path d="M15.88,81.98c1.52,0.54,4.3,0.63,5.82,0.54c15.8-0.91,47.05-4.27,67.11-4.73c2.53-0.06,4.05,0.26,5.31,0.53" class="stroke" stroke-dasharray="150"><set attributeName="opacity" to="0" dur="11.300000000000002s" /><animate attributeName="stroke-dashoffset" from="150" to="0" dur="1.8s" begin="11.300000000000002s" fill="freeze" /></path><path d="M44.75,70.75c0.75,1,0.72,1.91,0.72,2.92C45.47,85,42.5,94.75,31,100" class="stroke" stroke-dasharray="150"><set attributeName="opacity" to="0" dur="13.000000000000002s" /><animate attributeName="stroke-dashoffset" from="150" to="0" dur="1.8s" begin="13.000000000000002s" fill="freeze" /></path><path d="M65.13,68.91c0.82,0.38,1.31,1.69,1.47,2.44c0.16,0.75,0,23.47-0.16,28.16" class="stroke" stroke-dasharray="150"><set attributeName="opacity" to="0" dur="14.000000000000002s" /><animate attributeName="stroke-dashoffset" from="150" to="0" dur="1.8s" begin="14.000000000000002s" fill="freeze" /></path></svg>