<svg id="kvg-09f4a-KaishoVt12" class="kanjivg" viewBox="0 0 106 106" width="106" height="106" xmlns="http://www.w3.org/2000/svg" xmlns:xlink="http://www.w3.org/1999/xlink" xml:space="preserve" version="1.1" baseProfile="full"><defs><style type="text/css">path.black{fill:none;stroke:black;stroke-width:5;stroke-linecap:round;stroke-linejoin:round;}path.grey{fill:none;stroke:#ddd;stroke-width:5;stroke-linecap:round;stroke-linejoin:round;}path.stroke{fill:none;stroke:black;stroke-width:5;stroke-linecap:round;stroke-linejoin:round;}text{font-size:16px;font-family:Segoe UI Symbol,Cambria Math,DejaVu Sans,Symbola,Quivira,STIX,Code2000;-webkit-touch-callout:none;cursor:pointer;-webkit-user-select:none;-khtml-user-select:none;-moz-user-select:none;-ms-user-select:none;user-select: none;}text:hover{color:#777;}#reset{font-weight:bold;}</style><marker id="markerStart" markerWidth="8" markerHeight="8" style="overflow:visible;"><circle cx="0" cy="0" r="1.5" style="stroke:none;fill:red;fill-opacity:0.5;"/></marker><marker id="markerEnd" style="overflow:visible;"><circle cx="0" cy="0" r="0.8" style="stroke:none;fill:blue;fill-opacity:0.5;"><animate attributeName="opacity" from="1" to="0" dur="3s" repeatCount="indefinite" /></circle></marker></defs><path d="M48.86,10.25c2.62,0.95,6.64,4.64,6.93,6.53" class="grey" /><path d="M19.33,22.69c1.73,0.34,3.25,0.59,5.25,0.48c12.16-0.67,49.16-3.68,62.99-4.38c2.03-0.1,3.07,0.04,4.59,0.61" class="grey" /><path d="M44.27,25.08c1.96,1.26,5.05,5.18,5.54,7.13" class="grey" /><path d="M62.78,23.64c0.02,0.3,0.04,0.76-0.04,1.19c-0.51,2.51-3.43,8.01-7.43,11.38" class="grey" /><path d="M52.81,36.33c0.42,0.4,0.72,0.86,0.76,2.17c0.17,6.28-0.01,14.11-0.01,16.25" class="grey" /><path d="M17.35,34.19c0.6,0.24,1.9,0.21,2.43,0.13c4.31-0.68,19.02-2.49,21.41-2.74c1.56-0.16,2.06,0.74,1.9,1.87c-0.9,6.3-2.76,12.55-5.49,17.34c-1.43,2.51-3.1,1.71-4.15-0.24" class="grey" /><path d="M27.97,36.02c0.03,0.42,0.08,1.08-0.07,1.68c-1.13,4.43-5.91,10.68-12.01,16.06" class="grey" /><path d="M80.96,23.39c0.04,0.22,0.08,0.56-0.07,0.87c-0.88,1.84-6.72,6.35-13.61,8.83" class="grey" /><path d="M65.75,31.77c0.41,0.61,0.71,1.43,0.71,2.34c0,0.92-0.1,13.82-0.1,15.25c0,1.43,0.1,1.83,1.42,0.81c1.32-1.02,8.29-5.56,9.1-6.17" class="grey" /><path d="M75.12,30.36c2.38,4.89,6.63,11.89,12.31,17.08c1.37,1.25,3.27,2.07,5.06,2.81" class="grey" /><path d="M30.18,55.82c0.79,0.56,1.07,1.98,1.07,2.59c0,3.29-0.15,13.84-0.24,15.11c-0.52,7.23-2.52,17.06-10.29,23.19" class="grey" /><path d="M75.22,52.51c0.69,0.56,1.83,2.71,1.83,3.83c0,4.4-0.02,39.65-0.09,42.8" class="grey" /><path d="M40.42,64.59c1.04-0.08,2.15-0.16,3.29-0.25c7.35-0.54,14.71-1.07,22.06-1.58c1.11-0.08,2.18-0.15,3.17-0.22" class="grey" /><path d="M39.01,76.2c1.01-0.06,2.09-0.12,3.21-0.19c7.37-0.43,14.73-0.88,22.1-1.3c1.16-0.07,2.27-0.13,3.33-0.19" class="grey" /><path d="M48.86,10.25c2.62,0.95,6.64,4.64,6.93,6.53" class="stroke" stroke-dasharray="150"><animate attributeName="stroke-dashoffset" from="150" to="0" dur="1.8s" begin="0.0s" fill="freeze" /></path><path d="M19.33,22.69c1.73,0.34,3.25,0.59,5.25,0.48c12.16-0.67,49.16-3.68,62.99-4.38c2.03-0.1,3.07,0.04,4.59,0.61" class="stroke" stroke-dasharray="150"><set attributeName="opacity" to="0" dur="0.9s" /><animate attributeName="stroke-dashoffset" from="150" to="0" dur="1.8s" begin="0.9s" fill="freeze" /></path><path d="M44.27,25.08c1.96,1.26,5.05,5.18,5.54,7.13" class="stroke" stroke-dasharray="150"><set attributeName="opacity" to="0" dur="2.6s" /><animate attributeName="stroke-dashoffset" from="150" to="0" dur="1.8s" begin="2.6s" fill="freeze" /></path><path d="M62.78,23.64c0.02,0.3,0.04,0.76-0.04,1.19c-0.51,2.51-3.43,8.01-7.43,11.38" class="stroke" stroke-dasharray="150"><set attributeName="opacity" to="0" dur="3.5s" /><animate attributeName="stroke-dashoffset" from="150" to="0" dur="1.8s" begin="3.5s" fill="freeze" /></path><path d="M52.81,36.33c0.42,0.4,0.72,0.86,0.76,2.17c0.17,6.28-0.01,14.11-0.01,16.25" class="stroke" stroke-dasharray="150"><set attributeName="opacity" to="0" dur="4.4s" /><animate attributeName="stroke-dashoffset" from="150" to="0" dur="1.8s" begin="4.4s" fill="freeze" /></path><path d="M17.35,34.19c0.6,0.24,1.9,0.21,2.43,0.13c4.31-0.68,19.02-2.49,21.41-2.74c1.56-0.16,2.06,0.74,1.9,1.87c-0.9,6.3-2.76,12.55-5.49,17.34c-1.43,2.51-3.1,1.71-4.15-0.24" class="stroke" stroke-dasharray="150"><set attributeName="opacity" to="0" dur="5.300000000000001s" /><animate attributeName="stroke-dashoffset" from="150" to="0" dur="1.8s" begin="5.300000000000001s" fill="freeze" /></path><path d="M27.97,36.02c0.03,0.42,0.08,1.08-0.07,1.68c-1.13,4.43-5.91,10.68-12.01,16.06" class="stroke" stroke-dasharray="150"><set attributeName="opacity" to="0" dur="6.6000000000000005s" /><animate attributeName="stroke-dashoffset" from="150" to="0" dur="1.8s" begin="6.6000000000000005s" fill="freeze" /></path><path d="M80.96,23.39c0.04,0.22,0.08,0.56-0.07,0.87c-0.88,1.84-6.72,6.35-13.61,8.83" class="stroke" stroke-dasharray="150"><set attributeName="opacity" to="0" dur="7.6000000000000005s" /><animate attributeName="stroke-dashoffset" from="150" to="0" dur="1.8s" begin="7.6000000000000005s" fill="freeze" /></path><path d="M65.75,31.77c0.41,0.61,0.71,1.43,0.71,2.34c0,0.92-0.1,13.82-0.1,15.25c0,1.43,0.1,1.83,1.42,0.81c1.32-1.02,8.29-5.56,9.1-6.17" class="stroke" stroke-dasharray="150"><set attributeName="opacity" to="0" dur="8.5s" /><animate attributeName="stroke-dashoffset" from="150" to="0" dur="1.8s" begin="8.5s" fill="freeze" /></path><path d="M75.12,30.36c2.38,4.89,6.63,11.89,12.31,17.08c1.37,1.25,3.27,2.07,5.06,2.81" class="stroke" stroke-dasharray="150"><set attributeName="opacity" to="0" dur="9.5s" /><animate attributeName="stroke-dashoffset" from="150" to="0" dur="1.8s" begin="9.5s" fill="freeze" /></path><path d="M30.18,55.82c0.79,0.56,1.07,1.98,1.07,2.59c0,3.29-0.15,13.84-0.24,15.11c-0.52,7.23-2.52,17.06-10.29,23.19" class="stroke" stroke-dasharray="150"><set attributeName="opacity" to="0" dur="10.5s" /><animate attributeName="stroke-dashoffset" from="150" to="0" dur="1.8s" begin="10.5s" fill="freeze" /></path><path d="M75.22,52.51c0.69,0.56,1.83,2.71,1.83,3.83c0,4.4-0.02,39.65-0.09,42.8" class="stroke" stroke-dasharray="150"><set attributeName="opacity" to="0" dur="11.6s" /><animate attributeName="stroke-dashoffset" from="150" to="0" dur="1.8s" begin="11.6s" fill="freeze" /></path><path d="M40.42,64.59c1.04-0.08,2.15-0.16,3.29-0.25c7.35-0.54,14.71-1.07,22.06-1.58c1.11-0.08,2.18-0.15,3.17-0.22" class="stroke" stroke-dasharray="150"><set attributeName="opacity" to="0" dur="12.799999999999999s" /><animate attributeName="stroke-dashoffset" from="150" to="0" dur="1.8s" begin="12.799999999999999s" fill="freeze" /></path><path d="M39.01,76.2c1.01-0.06,2.09-0.12,3.21-0.19c7.37-0.43,14.73-0.88,22.1-1.3c1.16-0.07,2.27-0.13,3.33-0.19" class="stroke" stroke-dasharray="150"><set attributeName="opacity" to="0" dur="13.799999999999999s" /><animate attributeName="stroke-dashoffset" from="150" to="0" dur="1.8s" begin="13.799999999999999s" fill="freeze" /></path></svg>