<svg id="kvg-09f52-HzFst" class="kanjivg" viewBox="0 0 106 106" width="106" height="106" xmlns="http://www.w3.org/2000/svg" xmlns:xlink="http://www.w3.org/1999/xlink" xml:space="preserve" version="1.1" baseProfile="full"><defs><style type="text/css">path.black{fill:none;stroke:black;stroke-width:5;stroke-linecap:round;stroke-linejoin:round;}path.grey{fill:none;stroke:#ddd;stroke-width:5;stroke-linecap:round;stroke-linejoin:round;}path.stroke{fill:none;stroke:black;stroke-width:5;stroke-linecap:round;stroke-linejoin:round;}text{font-size:16px;font-family:Segoe UI Symbol,Cambria Math,DejaVu Sans,Symbola,Quivira,STIX,Code2000;-webkit-touch-callout:none;cursor:pointer;-webkit-user-select:none;-khtml-user-select:none;-moz-user-select:none;-ms-user-select:none;user-select: none;}text:hover{color:#777;}#reset{font-weight:bold;}</style><marker id="markerStart" markerWidth="8" markerHeight="8" style="overflow:visible;"><circle cx="0" cy="0" r="1.5" style="stroke:none;fill:red;fill-opacity:0.5;"/></marker><marker id="markerEnd" style="overflow:visible;"><circle cx="0" cy="0" r="0.8" style="stroke:none;fill:blue;fill-opacity:0.5;"><animate attributeName="opacity" from="1" to="0" dur="3s" repeatCount="indefinite" /></circle></marker></defs><path d="M54.74,22.75c7.05-0.75,14.7-2,22.11-2.5c1.72-0.12,2.16-0.25,3.23,0" class="grey" /><path d="M51.75,11c1.08,0.5,1.94,2.23,1.94,3.25c0,5.25,0.28,14.25,0.28,19.25" class="grey" /><path d="M32.45,18c1.08,0.5,1.72,2.25,1.94,3.25c0.21,1,0,7.75-0.22,14" class="grey" /><path d="M16.25,35.75c0.81,0.25,2.99,0.84,5.15,0.75C33.09,36,72,32,83.07,32c2.17,0,5.94,0.5,7.18,0.75" class="grey" /><path d="M44.88,38.24c0.21,0.21-0.11,2.08-0.27,2.53c-1.77,4.92-6.36,12.97-12.89,17.6" class="grey" /><path d="M42.89,48.21c3.39,1.42,7.71,5.2,9.36,8.79" class="grey" /><path d="M68.39,37.74c0.18,0.19-0.09,1.93-0.22,2.35c-1.47,4.55-5.27,12.01-10.69,16.29" class="grey" /><path d="M66.39,47.71c3.39,1.42,7.71,5.2,9.36,8.79" class="grey" /><path d="M26.5,64c3.5,0,52.5-3.25,55.75-3.25" class="grey" /><path d="M44.88,68.24c0.21,0.21-0.11,2.08-0.27,2.54c-1.77,4.92-6.36,12.97-12.89,17.6" class="grey" /><path d="M42.89,77.71c3.02,1.22,6.89,4.46,8.36,7.54" class="grey" /><path d="M66.89,66.24c0.18,0.21-0.09,2.11-0.23,2.57c-1.5,4.98-5.39,13.13-10.94,17.82" class="grey" /><path d="M65.64,75.96c3.66,1.62,8.33,5.94,10.11,10.04" class="grey" /><path d="M23.81,42.88c0.76,0.45,2.19,1.87,2.01,4.25c-0.07,0.91-0.43,43.63-0.5,45s0.65,2.51,2.15,2.39c16.27-1.27,39.52-2.27,54.77-2.77" class="grey" /><path d="M81.79,38.38c0.47,0.45,1.48,3.35,1.57,4.25c0.09,0.9-0.2,31.87-0.16,52.75" class="grey" /><path d="M54.74,22.75c7.05-0.75,14.7-2,22.11-2.5c1.72-0.12,2.16-0.25,3.23,0" class="stroke" stroke-dasharray="150"><animate attributeName="stroke-dashoffset" from="150" to="0" dur="1.8s" begin="0.0s" fill="freeze" /></path><path d="M51.75,11c1.08,0.5,1.94,2.23,1.94,3.25c0,5.25,0.28,14.25,0.28,19.25" class="stroke" stroke-dasharray="150"><set attributeName="opacity" to="0" dur="1.0s" /><animate attributeName="stroke-dashoffset" from="150" to="0" dur="1.8s" begin="1.0s" fill="freeze" /></path><path d="M32.45,18c1.08,0.5,1.72,2.25,1.94,3.25c0.21,1,0,7.75-0.22,14" class="stroke" stroke-dasharray="150"><set attributeName="opacity" to="0" dur="2.0s" /><animate attributeName="stroke-dashoffset" from="150" to="0" dur="1.8s" begin="2.0s" fill="freeze" /></path><path d="M16.25,35.75c0.81,0.25,2.99,0.84,5.15,0.75C33.09,36,72,32,83.07,32c2.17,0,5.94,0.5,7.18,0.75" class="stroke" stroke-dasharray="150"><set attributeName="opacity" to="0" dur="2.9s" /><animate attributeName="stroke-dashoffset" from="150" to="0" dur="1.8s" begin="2.9s" fill="freeze" /></path><path d="M44.88,38.24c0.21,0.21-0.11,2.08-0.27,2.53c-1.77,4.92-6.36,12.97-12.89,17.6" class="stroke" stroke-dasharray="150"><set attributeName="opacity" to="0" dur="4.6s" /><animate attributeName="stroke-dashoffset" from="150" to="0" dur="1.8s" begin="4.6s" fill="freeze" /></path><path d="M42.89,48.21c3.39,1.42,7.71,5.2,9.36,8.79" class="stroke" stroke-dasharray="150"><set attributeName="opacity" to="0" dur="5.6s" /><animate attributeName="stroke-dashoffset" from="150" to="0" dur="1.8s" begin="5.6s" fill="freeze" /></path><path d="M68.39,37.74c0.18,0.19-0.09,1.93-0.22,2.35c-1.47,4.55-5.27,12.01-10.69,16.29" class="stroke" stroke-dasharray="150"><set attributeName="opacity" to="0" dur="6.5s" /><animate attributeName="stroke-dashoffset" from="150" to="0" dur="1.8s" begin="6.5s" fill="freeze" /></path><path d="M66.39,47.71c3.39,1.42,7.71,5.2,9.36,8.79" class="stroke" stroke-dasharray="150"><set attributeName="opacity" to="0" dur="7.5s" /><animate attributeName="stroke-dashoffset" from="150" to="0" dur="1.8s" begin="7.5s" fill="freeze" /></path><path d="M26.5,64c3.5,0,52.5-3.25,55.75-3.25" class="stroke" stroke-dasharray="150"><set attributeName="opacity" to="0" dur="8.4s" /><animate attributeName="stroke-dashoffset" from="150" to="0" dur="1.8s" begin="8.4s" fill="freeze" /></path><path d="M44.88,68.24c0.21,0.21-0.11,2.08-0.27,2.54c-1.77,4.92-6.36,12.97-12.89,17.6" class="stroke" stroke-dasharray="150"><set attributeName="opacity" to="0" dur="9.8s" /><animate attributeName="stroke-dashoffset" from="150" to="0" dur="1.8s" begin="9.8s" fill="freeze" /></path><path d="M42.89,77.71c3.02,1.22,6.89,4.46,8.36,7.54" class="stroke" stroke-dasharray="150"><set attributeName="opacity" to="0" dur="10.8s" /><animate attributeName="stroke-dashoffset" from="150" to="0" dur="1.8s" begin="10.8s" fill="freeze" /></path><path d="M66.89,66.24c0.18,0.21-0.09,2.11-0.23,2.57c-1.5,4.98-5.39,13.13-10.94,17.82" class="stroke" stroke-dasharray="150"><set attributeName="opacity" to="0" dur="11.700000000000001s" /><animate attributeName="stroke-dashoffset" from="150" to="0" dur="1.8s" begin="11.700000000000001s" fill="freeze" /></path><path d="M65.64,75.96c3.66,1.62,8.33,5.94,10.11,10.04" class="stroke" stroke-dasharray="150"><set attributeName="opacity" to="0" dur="12.700000000000001s" /><animate attributeName="stroke-dashoffset" from="150" to="0" dur="1.8s" begin="12.700000000000001s" fill="freeze" /></path><path d="M23.81,42.88c0.76,0.45,2.19,1.87,2.01,4.25c-0.07,0.91-0.43,43.63-0.5,45s0.65,2.51,2.15,2.39c16.27-1.27,39.52-2.27,54.77-2.77" class="stroke" stroke-dasharray="150"><set attributeName="opacity" to="0" dur="13.600000000000001s" /><animate attributeName="stroke-dashoffset" from="150" to="0" dur="1.8s" begin="13.600000000000001s" fill="freeze" /></path><path d="M81.79,38.38c0.47,0.45,1.48,3.35,1.57,4.25c0.09,0.9-0.2,31.87-0.16,52.75" class="stroke" stroke-dasharray="150"><set attributeName="opacity" to="0" dur="15.500000000000002s" /><animate attributeName="stroke-dashoffset" from="150" to="0" dur="1.8s" begin="15.500000000000002s" fill="freeze" /></path></svg>