<svg id="kvg-09f8d-Kaisho" class="kanjivg" viewBox="0 0 106 106" width="106" height="106" xmlns="http://www.w3.org/2000/svg" xmlns:xlink="http://www.w3.org/1999/xlink" xml:space="preserve" version="1.1" baseProfile="full"><defs><style type="text/css">path.black{fill:none;stroke:black;stroke-width:5;stroke-linecap:round;stroke-linejoin:round;}path.grey{fill:none;stroke:#ddd;stroke-width:5;stroke-linecap:round;stroke-linejoin:round;}path.stroke{fill:none;stroke:black;stroke-width:5;stroke-linecap:round;stroke-linejoin:round;}text{font-size:16px;font-family:Segoe UI Symbol,Cambria Math,DejaVu Sans,Symbola,Quivira,STIX,Code2000;-webkit-touch-callout:none;cursor:pointer;-webkit-user-select:none;-khtml-user-select:none;-moz-user-select:none;-ms-user-select:none;user-select: none;}text:hover{color:#777;}#reset{font-weight:bold;}</style><marker id="markerStart" markerWidth="8" markerHeight="8" style="overflow:visible;"><circle cx="0" cy="0" r="1.5" style="stroke:none;fill:red;fill-opacity:0.5;"/></marker><marker id="markerEnd" style="overflow:visible;"><circle cx="0" cy="0" r="0.8" style="stroke:none;fill:blue;fill-opacity:0.5;"><animate attributeName="opacity" from="1" to="0" dur="3s" repeatCount="indefinite" /></circle></marker></defs><path d="M27.98,11.75c2.11,1.23,4.27,3.25,5.27,6.16" class="grey" /><path d="M14.6,24.83c0.66,0.3,2.94,0.35,3.6,0.3c3.74-0.26,25-3.69,30.65-3.91c1.1-0.04,1.77,0.14,2.32,0.3" class="grey" /><path d="M22.32,28.77c2.25,3.98,3.28,8.05,3.48,10.67" class="grey" /><path d="M42.57,25.18c0.53,0.45,0.59,1.67,0.53,2.04c-0.42,2.53-4.81,10.05-5.86,11.98" class="grey" /><path d="M10.75,42.71c0.8,0.42,1.72,0.47,2.52,0.42c9.48-0.63,28.09-3.94,38.15-4.81c1.33-0.11,2.13,0.2,2.79,0.41" class="grey" /><path d="M20.17,51.99c0.47,0.63,0.78,1.26,0.93,1.88c0.16,0.63,0.22,41.54,0.16,42.95" class="grey" /><path d="M22.03,52.61c1.87-0.16,19-2.81,20.39-2.98c2.49-0.31,3.42,2.04,3.11,2.98c-0.3,0.91-0.47,23.41-0.47,36.12c0,11.27-3.38,6.33-6.79,2.91" class="grey" /><path d="M22.03,64.19c3.82-0.57,7.66-0.96,11.5-1.34c1.03-0.1,2.05-0.2,3.04-0.29" class="grey" /><path d="M22.5,75.59c3.51-0.34,7.02-0.77,10.53-1.16c1.02-0.11,2.04-0.22,3.05-0.33" class="grey" /><path d="M66.25,23.25c4.76-0.52,14.5-2.5,19.89-3.47c1.23-0.22,1.99,0.14,2.61,0.3" class="grey" /><path d="M63.14,12.49c1.39,1.06,1.79,3.65,1.81,5.13c0.05,3.13-0.2,12.88-0.34,17.21c-0.03,0.93,0.28,2.08,2.81,1.64c5.58-0.97,13.71-2.21,19.85-3.49c3.48-0.72,3.58,0.81,3.03,2.42c-1.05,3.1-1.72,8.43-2.8,13.85" class="grey" /><path d="M64.75,51.75c4.76-0.53,14.75-2.5,21.39-2.97" class="grey" /><path d="M62.99,49.37c0.74,1.19,1.33,2.59,1.38,4.43c0.2,8.19-0.53,24.64-0.53,30.2c0,13,8.9,11.53,17.67,11.53c14,0,14.89-2.78,14.89-9.12" class="grey" /><path d="M65,61.54c4.76-0.53,15.5-2,20.89-2.97c1.23-0.22,1.99,0.14,2.61,0.3" class="grey" /><path d="M64.75,71c4.76-0.53,17-1.5,22.39-2.47c1.23-0.22,1.99,0.14,2.61,0.3" class="grey" /><path d="M64.25,81c4.76-0.53,18.5-2,23.89-2.97c1.23-0.22,1.99,0.14,2.61,0.3" class="grey" /><path d="M27.98,11.75c2.11,1.23,4.27,3.25,5.27,6.16" class="stroke" stroke-dasharray="150"><animate attributeName="stroke-dashoffset" from="150" to="0" dur="1.8s" begin="0.0s" fill="freeze" /></path><path d="M14.6,24.83c0.66,0.3,2.94,0.35,3.6,0.3c3.74-0.26,25-3.69,30.65-3.91c1.1-0.04,1.77,0.14,2.32,0.3" class="stroke" stroke-dasharray="150"><set attributeName="opacity" to="0" dur="0.9s" /><animate attributeName="stroke-dashoffset" from="150" to="0" dur="1.8s" begin="0.9s" fill="freeze" /></path><path d="M22.32,28.77c2.25,3.98,3.28,8.05,3.48,10.67" class="stroke" stroke-dasharray="150"><set attributeName="opacity" to="0" dur="1.9s" /><animate attributeName="stroke-dashoffset" from="150" to="0" dur="1.8s" begin="1.9s" fill="freeze" /></path><path d="M42.57,25.18c0.53,0.45,0.59,1.67,0.53,2.04c-0.42,2.53-4.81,10.05-5.86,11.98" class="stroke" stroke-dasharray="150"><set attributeName="opacity" to="0" dur="2.8s" /><animate attributeName="stroke-dashoffset" from="150" to="0" dur="1.8s" begin="2.8s" fill="freeze" /></path><path d="M10.75,42.71c0.8,0.42,1.72,0.47,2.52,0.42c9.48-0.63,28.09-3.94,38.15-4.81c1.33-0.11,2.13,0.2,2.79,0.41" class="stroke" stroke-dasharray="150"><set attributeName="opacity" to="0" dur="3.6999999999999997s" /><animate attributeName="stroke-dashoffset" from="150" to="0" dur="1.8s" begin="3.6999999999999997s" fill="freeze" /></path><path d="M20.17,51.99c0.47,0.63,0.78,1.26,0.93,1.88c0.16,0.63,0.22,41.54,0.16,42.95" class="stroke" stroke-dasharray="150"><set attributeName="opacity" to="0" dur="4.8s" /><animate attributeName="stroke-dashoffset" from="150" to="0" dur="1.8s" begin="4.8s" fill="freeze" /></path><path d="M22.03,52.61c1.87-0.16,19-2.81,20.39-2.98c2.49-0.31,3.42,2.04,3.11,2.98c-0.3,0.91-0.47,23.41-0.47,36.12c0,11.27-3.38,6.33-6.79,2.91" class="stroke" stroke-dasharray="150"><set attributeName="opacity" to="0" dur="6.0s" /><animate attributeName="stroke-dashoffset" from="150" to="0" dur="1.8s" begin="6.0s" fill="freeze" /></path><path d="M22.03,64.19c3.82-0.57,7.66-0.96,11.5-1.34c1.03-0.1,2.05-0.2,3.04-0.29" class="stroke" stroke-dasharray="150"><set attributeName="opacity" to="0" dur="7.7s" /><animate attributeName="stroke-dashoffset" from="150" to="0" dur="1.8s" begin="7.7s" fill="freeze" /></path><path d="M22.5,75.59c3.51-0.34,7.02-0.77,10.53-1.16c1.02-0.11,2.04-0.22,3.05-0.33" class="stroke" stroke-dasharray="150"><set attributeName="opacity" to="0" dur="8.6s" /><animate attributeName="stroke-dashoffset" from="150" to="0" dur="1.8s" begin="8.6s" fill="freeze" /></path><path d="M66.25,23.25c4.76-0.52,14.5-2.5,19.89-3.47c1.23-0.22,1.99,0.14,2.61,0.3" class="stroke" stroke-dasharray="150"><set attributeName="opacity" to="0" dur="9.5s" /><animate attributeName="stroke-dashoffset" from="150" to="0" dur="1.8s" begin="9.5s" fill="freeze" /></path><path d="M63.14,12.49c1.39,1.06,1.79,3.65,1.81,5.13c0.05,3.13-0.2,12.88-0.34,17.21c-0.03,0.93,0.28,2.08,2.81,1.64c5.58-0.97,13.71-2.21,19.85-3.49c3.48-0.72,3.58,0.81,3.03,2.42c-1.05,3.1-1.72,8.43-2.8,13.85" class="stroke" stroke-dasharray="150"><set attributeName="opacity" to="0" dur="10.5s" /><animate attributeName="stroke-dashoffset" from="150" to="0" dur="1.8s" begin="10.5s" fill="freeze" /></path><path d="M64.75,51.75c4.76-0.53,14.75-2.5,21.39-2.97" class="stroke" stroke-dasharray="150"><set attributeName="opacity" to="0" dur="12.0s" /><animate attributeName="stroke-dashoffset" from="150" to="0" dur="1.8s" begin="12.0s" fill="freeze" /></path><path d="M62.99,49.37c0.74,1.19,1.33,2.59,1.38,4.43c0.2,8.19-0.53,24.64-0.53,30.2c0,13,8.9,11.53,17.67,11.53c14,0,14.89-2.78,14.89-9.12" class="stroke" stroke-dasharray="150"><set attributeName="opacity" to="0" dur="13.0s" /><animate attributeName="stroke-dashoffset" from="150" to="0" dur="1.8s" begin="13.0s" fill="freeze" /></path><path d="M65,61.54c4.76-0.53,15.5-2,20.89-2.97c1.23-0.22,1.99,0.14,2.61,0.3" class="stroke" stroke-dasharray="150"><set attributeName="opacity" to="0" dur="14.7s" /><animate attributeName="stroke-dashoffset" from="150" to="0" dur="1.8s" begin="14.7s" fill="freeze" /></path><path d="M64.75,71c4.76-0.53,17-1.5,22.39-2.47c1.23-0.22,1.99,0.14,2.61,0.3" class="stroke" stroke-dasharray="150"><set attributeName="opacity" to="0" dur="15.7s" /><animate attributeName="stroke-dashoffset" from="150" to="0" dur="1.8s" begin="15.7s" fill="freeze" /></path><path d="M64.25,81c4.76-0.53,18.5-2,23.89-2.97c1.23-0.22,1.99,0.14,2.61,0.3" class="stroke" stroke-dasharray="150"><set attributeName="opacity" to="0" dur="16.7s" /><animate attributeName="stroke-dashoffset" from="150" to="0" dur="1.8s" begin="16.7s" fill="freeze" /></path></svg>