<svg version="1.1" xml:space="preserve" xmlns:xlink="http://www.w3.org/1999/xlink" xmlns="http://www.w3.org/2000/svg" height="106" width="106" viewBox="0 0 106 106" id="bent-line" class="kanjivg">
  <defs>
    <style type="text/css">
      path.black{fill:none;stroke:black;stroke-width:5;stroke-linecap:round;stroke-linejoin:round;}path.grey{fill:none;stroke:#ddd;stroke-width:5;stroke-linecap:round;stroke-linejoin:round;}path.stroke{fill:none;stroke:black;stroke-width:5;stroke-linecap:round;stroke-linejoin:round;}text{font-size:16px;font-family:Segoe UI Symbol,Cambria Math,DejaVu Sans,Symbola,Quivira,STIX,Code2000;-webkit-touch-callout:none;cursor:pointer;-webkit-user-select:none;-khtml-user-select:none;-moz-user-select:none;-ms-user-select:none;user-select: none;}text:hover{color:#777;}#reset{font-weight:bold;}
    </style>
    <marker style="overflow:visible" markerHeight="8" markerWidth="8" id="markerStart">
      <circle style="stroke:none;fill:red;fill-opacity:0.5" r="1.5" cy="0" cx="0"></circle>
    </marker>
    <marker style="overflow:visible" id="markerEnd">
      <circle style="stroke:none;fill:blue;fill-opacity:0.5" r="0.8" cy="0" cx="0">
        
      </circle>
    </marker>
  </defs>
  <path d="M33.48,26c0.8-0.05,37.67-3.01,40.77-3.25c3.19-0.25,5,1.75,5,4.25c0,4-0.22,40.84-0.23,56c0,3.48,0,5.72,0,6" class="grey"></path>
  <path stroke-dasharray="150" d="M33.48,26c0.8-0.05,37.67-3.01,40.77-3.25c3.19-0.25,5,1.75,5,4.25c0,4-0.22,40.84-0.23,56c0,3.48,0,5.72,0,6" class="stroke">
    
    
  </path>
</svg>
