<svg version="1.1" xml:space="preserve" xmlns:xlink="http://www.w3.org/1999/xlink" xmlns="http://www.w3.org/2000/svg" height="106" width="106" viewBox="0 0 106 106" id="curve-upward" class="kanjivg">
  <defs>
    <style type="text/css">
      path.black{fill:none;stroke:black;stroke-width:5;stroke-linecap:round;stroke-linejoin:round;}path.grey{fill:none;stroke:#ddd;stroke-width:5;stroke-linecap:round;stroke-linejoin:round;}path.stroke{fill:none;stroke:black;stroke-width:5;stroke-linecap:round;stroke-linejoin:round;}text{font-size:16px;font-family:Segoe UI Symbol,Cambria Math,DejaVu Sans,Symbola,Quivira,STIX,Code2000;-webkit-touch-callout:none;cursor:pointer;-webkit-user-select:none;-khtml-user-select:none;-moz-user-select:none;-ms-user-select:none;user-select: none;}text:hover{color:#777;}#reset{font-weight:bold;}
    </style>
    <marker style="overflow:visible" markerHeight="8" markerWidth="8" id="markerStart">
      <circle style="stroke:none;fill:red;fill-opacity:0.5" r="1.5" cy="0" cx="0"></circle>
    </marker>
    <marker style="overflow:visible" id="markerEnd">
      <circle style="stroke:none;fill:blue;fill-opacity:0.5" r="0.8" cy="0" cx="0">
        
      </circle>
    </marker>
  </defs>
  <path d="M43,20c1.38,1.38,2.15,3.25,2.15,5.26C45.15,29.5,45,71.84,45,76c0,10.5,2.25,12.25,20.25,12.25c18.75,0,20-3.75,20-12.31" class="grey"></path>
  <path stroke-dasharray="150" d="M43,20c1.38,1.38,2.15,3.25,2.15,5.26C45.15,29.5,45,71.84,45,76c0,10.5,2.25,12.25,20.25,12.25c18.75,0,20-3.75,20-12.31" class="stroke">
    
    
  </path>
</svg>
