<svg id="kvg-04e09" class="kanjivg" viewBox="0 0 106 126" width="106" height="126" xmlns="http://www.w3.org/2000/svg" xmlns:xlink="http://www.w3.org/1999/xlink" xml:space="preserve" version="1.1" baseProfile="full"><defs><style type="text/css">path.black{fill:none;stroke:black;stroke-width:5;stroke-linecap:round;stroke-linejoin:round;}path.grey{fill:none;stroke:#ddd;stroke-width:5;stroke-linecap:round;stroke-linejoin:round;}path.stroke{fill:none;stroke:black;stroke-width:5;stroke-linecap:round;stroke-linejoin:round;}text{font-size:16px;font-family:Segoe UI Symbol,Cambria Math,DejaVu Sans,Symbola,Quivira,STIX,Code2000;-webkit-touch-callout:none;cursor:pointer;-webkit-user-select:none;-khtml-user-select:none;-moz-user-select:none;-ms-user-select:none;user-select: none;}text:hover{color:#777;}#reset{font-weight:bold;}</style><marker id="markerStart" markerWidth="8" markerHeight="8" style="overflow:visible;"><circle cx="0" cy="0" r="1.5" style="stroke:none;fill:red;fill-opacity:0.5;"/></marker><marker id="markerEnd" style="overflow:visible;"><circle cx="0" cy="0" r="0.8" style="stroke:none;fill:blue;fill-opacity:0.5;"><animate attributeName="opacity" from="1" to="0" dur="3s" repeatCount="indefinite" /></circle></marker></defs><path d="M27.5,23.65c3.09,0.73,6.29,0.36,9.4,0.06c10.2-1,27-2.94,38.97-3.57c3.06-0.16,6.09-0.2,9.14,0.23" class="grey" /><path d="M28.75,55.14c3.13,0.76,6.46,0.43,9.64,0.2c10.03-0.72,23.97-2.63,34.73-3.12c2.7-0.12,5.45-0.16,8.13,0.3" class="grey" /><path d="M13,87.83c3.94,1.01,7.72,0.96,11.75,0.72c18.41-1.07,41.27-3.39,61.12-4.07c3.63-0.13,7.2-0.1,10.75,0.78" class="grey" /><path d="M27.5,23.65c3.09,0.73,6.29,0.36,9.4,0.06c10.2-1,27-2.94,38.97-3.57c3.06-0.16,6.09-0.2,9.14,0.23" class="stroke" stroke-dasharray="150"><animate attributeName="stroke-dashoffset" from="150" to="0" dur="1.8s" begin="0.0s" fill="freeze" /></path><path d="M28.75,55.14c3.13,0.76,6.46,0.43,9.64,0.2c10.03-0.72,23.97-2.63,34.73-3.12c2.7-0.12,5.45-0.16,8.13,0.3" class="stroke" stroke-dasharray="150"><set attributeName="opacity" to="0" dur="1.4s" /><animate attributeName="stroke-dashoffset" from="150" to="0" dur="1.8s" begin="1.4s" fill="freeze" /></path><path d="M13,87.83c3.94,1.01,7.72,0.96,11.75,0.72c18.41-1.07,41.27-3.39,61.12-4.07c3.63-0.13,7.2-0.1,10.75,0.78" class="stroke" stroke-dasharray="150"><set attributeName="opacity" to="0" dur="2.7s" /><animate attributeName="stroke-dashoffset" from="150" to="0" dur="1.8s" begin="2.7s" fill="freeze" /></path></svg>