<svg id="kvg-04e0b" class="kanjivg" viewBox="0 0 106 126" width="106" height="126" xmlns="http://www.w3.org/2000/svg" xmlns:xlink="http://www.w3.org/1999/xlink" xml:space="preserve" version="1.1" baseProfile="full"><defs><style type="text/css">path.black{fill:none;stroke:black;stroke-width:5;stroke-linecap:round;stroke-linejoin:round;}path.grey{fill:none;stroke:#ddd;stroke-width:5;stroke-linecap:round;stroke-linejoin:round;}path.stroke{fill:none;stroke:black;stroke-width:5;stroke-linecap:round;stroke-linejoin:round;}text{font-size:16px;font-family:Segoe UI Symbol,Cambria Math,DejaVu Sans,Symbola,Quivira,STIX,Code2000;-webkit-touch-callout:none;cursor:pointer;-webkit-user-select:none;-khtml-user-select:none;-moz-user-select:none;-ms-user-select:none;user-select: none;}text:hover{color:#777;}#reset{font-weight:bold;}</style><marker id="markerStart" markerWidth="8" markerHeight="8" style="overflow:visible;"><circle cx="0" cy="0" r="1.5" style="stroke:none;fill:red;fill-opacity:0.5;"/></marker><marker id="markerEnd" style="overflow:visible;"><circle cx="0" cy="0" r="0.8" style="stroke:none;fill:blue;fill-opacity:0.5;"><animate attributeName="opacity" from="1" to="0" dur="3s" repeatCount="indefinite" /></circle></marker></defs><path d="M13.25,22.5c0.94,0.23,5.18,0.96,7.74,0.75c17.87-1.5,46.54-4.75,66.38-4.75c2.92,0,6.42,0.75,7.88,1.25" class="grey" /><path d="M52.97,23.25c0.93,1.07,1.56,2.75,1.56,5.3c0,8.65-0.2,39.42-0.27,57.2c-0.02,3.86-0.02,5.89-0.02,8.25" class="grey" /><path d="M67.83,37.17C72.75,39.5,79.88,47.62,82,52.12" class="grey" /><path d="M13.25,22.5c0.94,0.23,5.18,0.96,7.74,0.75c17.87-1.5,46.54-4.75,66.38-4.75c2.92,0,6.42,0.75,7.88,1.25" class="stroke" stroke-dasharray="150"><animate attributeName="stroke-dashoffset" from="150" to="0" dur="1.8s" begin="0.0s" fill="freeze" /></path><path d="M52.97,23.25c0.93,1.07,1.56,2.75,1.56,5.3c0,8.65-0.2,39.42-0.27,57.2c-0.02,3.86-0.02,5.89-0.02,8.25" class="stroke" stroke-dasharray="150"><set attributeName="opacity" to="0" dur="1.7s" /><animate attributeName="stroke-dashoffset" from="150" to="0" dur="1.8s" begin="1.7s" fill="freeze" /></path><path d="M67.83,37.17C72.75,39.5,79.88,47.62,82,52.12" class="stroke" stroke-dasharray="150"><set attributeName="opacity" to="0" dur="3.4s" /><animate attributeName="stroke-dashoffset" from="150" to="0" dur="1.8s" begin="3.4s" fill="freeze" /></path></svg>