<svg id="kvg-04e2d" class="kanjivg" viewBox="0 0 106 126" width="106" height="126" xmlns="http://www.w3.org/2000/svg" xmlns:xlink="http://www.w3.org/1999/xlink" xml:space="preserve" version="1.1" baseProfile="full"><defs><style type="text/css">path.black{fill:none;stroke:black;stroke-width:5;stroke-linecap:round;stroke-linejoin:round;}path.grey{fill:none;stroke:#ddd;stroke-width:5;stroke-linecap:round;stroke-linejoin:round;}path.stroke{fill:none;stroke:black;stroke-width:5;stroke-linecap:round;stroke-linejoin:round;}text{font-size:16px;font-family:Segoe UI Symbol,Cambria Math,DejaVu Sans,Symbola,Quivira,STIX,Code2000;-webkit-touch-callout:none;cursor:pointer;-webkit-user-select:none;-khtml-user-select:none;-moz-user-select:none;-ms-user-select:none;user-select: none;}text:hover{color:#777;}#reset{font-weight:bold;}</style><marker id="markerStart" markerWidth="8" markerHeight="8" style="overflow:visible;"><circle cx="0" cy="0" r="1.5" style="stroke:none;fill:red;fill-opacity:0.5;"/></marker><marker id="markerEnd" style="overflow:visible;"><circle cx="0" cy="0" r="0.8" style="stroke:none;fill:blue;fill-opacity:0.5;"><animate attributeName="opacity" from="1" to="0" dur="3s" repeatCount="indefinite" /></circle></marker></defs><path d="M19.89,36.87c1,1,1.74,2.25,2.01,3.65c1.13,5.71,2.58,13.06,4.17,22.97c0.27,1.68,0.55,4.43,0.83,6.26" class="grey" /><path d="M23.33,39.51C37.12,37.62,70.88,34,84,33.24c4.38-0.25,6,1.14,5.12,4.42c-1.53,5.7-5.61,20.18-6.12,22.09" class="grey" /><path d="M27.74,64.84C40.12,63.62,61.86,62.2,79,60.77c2.36-0.2,5.75-0.27,7.25-0.27" class="grey" /><path d="M52.5,11.5c1.44,1.44,2.25,3.5,2.25,5.06c0,0.9,0.06,56.6-0.15,76.69c-0.03,3.3-0.07,5.6-0.1,6.5" class="grey" /><path d="M19.89,36.87c1,1,1.74,2.25,2.01,3.65c1.13,5.71,2.58,13.06,4.17,22.97c0.27,1.68,0.55,4.43,0.83,6.26" class="stroke" stroke-dasharray="150"><animate attributeName="stroke-dashoffset" from="150" to="0" dur="1.8s" begin="0.0s" fill="freeze" /></path><path d="M23.33,39.51C37.12,37.62,70.88,34,84,33.24c4.38-0.25,6,1.14,5.12,4.42c-1.53,5.7-5.61,20.18-6.12,22.09" class="stroke" stroke-dasharray="150"><set attributeName="opacity" to="0" dur="1.0s" /><animate attributeName="stroke-dashoffset" from="150" to="0" dur="1.8s" begin="1.0s" fill="freeze" /></path><path d="M27.74,64.84C40.12,63.62,61.86,62.2,79,60.77c2.36-0.2,5.75-0.27,7.25-0.27" class="stroke" stroke-dasharray="150"><set attributeName="opacity" to="0" dur="2.8s" /><animate attributeName="stroke-dashoffset" from="150" to="0" dur="1.8s" begin="2.8s" fill="freeze" /></path><path d="M52.5,11.5c1.44,1.44,2.25,3.5,2.25,5.06c0,0.9,0.06,56.6-0.15,76.69c-0.03,3.3-0.07,5.6-0.1,6.5" class="stroke" stroke-dasharray="150"><set attributeName="opacity" to="0" dur="4.199999999999999s" /><animate attributeName="stroke-dashoffset" from="150" to="0" dur="1.8s" begin="4.199999999999999s" fill="freeze" /></path></svg>