<svg id="kvg-05186" class="kanjivg" viewBox="0 0 106 126" width="106" height="106" xmlns="http://www.w3.org/2000/svg" xmlns:xlink="http://www.w3.org/1999/xlink" xml:space="preserve" version="1.1" baseProfile="full"><defs><style type="text/css">path.black{fill:none;stroke:black;stroke-width:5;stroke-linecap:round;stroke-linejoin:round;}path.grey{fill:none;stroke:#ddd;stroke-width:5;stroke-linecap:round;stroke-linejoin:round;}path.stroke{fill:none;stroke:black;stroke-width:5;stroke-linecap:round;stroke-linejoin:round;}text{font-size:16px;font-family:Segoe UI Symbol,Cambria Math,DejaVu Sans,Symbola,Quivira,STIX,Code2000;-webkit-touch-callout:none;cursor:pointer;-webkit-user-select:none;-khtml-user-select:none;-moz-user-select:none;-ms-user-select:none;user-select: none;}text:hover{color:#777;}#reset{font-weight:bold;}</style><marker id="markerStart" markerWidth="8" markerHeight="8" style="overflow:visible;"><circle cx="0" cy="0" r="1.5" style="stroke:none;fill:red;fill-opacity:0.5;"/></marker><marker id="markerEnd" style="overflow:visible;"><circle cx="0" cy="0" r="0.8" style="stroke:none;fill:blue;fill-opacity:0.5;"><animate attributeName="opacity" from="1" to="0" dur="3s" repeatCount="indefinite" /></circle></marker></defs><path d="M21.75,19.8c0.91,0.91,1.47,3.23,1.5,5.45c0.2,13.9,0.03,47.69,0.03,62.5c0,2-0.03,4.99-0.03,6" class="grey" /><path d="M24.06,21.56c15.07-1.68,49.46-5.58,57.92-6.31c2.9-0.25,4.78,1.88,4.78,4.27c0,13.48,0,53.21,0,67.48c0,9.75-4.25,6.5-8.5,1.5" class="grey" /><path d="M52.25,20.75c0.88,0.88,1.5,2,1.5,3.71c0,6.76,0,27.54,0,31.04" class="grey" /><path d="M24.75,59.75c14.62-1.75,43-4.25,60.5-5.25" class="grey" /><path d="M21.75,19.8c0.91,0.91,1.47,3.23,1.5,5.45c0.2,13.9,0.03,47.69,0.03,62.5c0,2-0.03,4.99-0.03,6" class="stroke" stroke-dasharray="150"><animate attributeName="stroke-dashoffset" from="150" to="0" dur="1.8s" begin="0.0s" fill="freeze" /></path><path d="M24.06,21.56c15.07-1.68,49.46-5.58,57.92-6.31c2.9-0.25,4.78,1.88,4.78,4.27c0,13.48,0,53.21,0,67.48c0,9.75-4.25,6.5-8.5,1.5" class="stroke" stroke-dasharray="150"><set attributeName="opacity" to="0" dur="1.7s" /><animate attributeName="stroke-dashoffset" from="150" to="0" dur="1.8s" begin="1.7s" fill="freeze" /></path><path d="M52.25,20.75c0.88,0.88,1.5,2,1.5,3.71c0,6.76,0,27.54,0,31.04" class="stroke" stroke-dasharray="150"><set attributeName="opacity" to="0" dur="3.7s" /><animate attributeName="stroke-dashoffset" from="150" to="0" dur="1.8s" begin="3.7s" fill="freeze" /></path><path d="M24.75,59.75c14.62-1.75,43-4.25,60.5-5.25" class="stroke" stroke-dasharray="150"><set attributeName="opacity" to="0" dur="4.7s" /><animate attributeName="stroke-dashoffset" from="150" to="0" dur="1.8s" begin="4.7s" fill="freeze" /></path></svg>