<svg id="kvg-0529b" class="kanjivg" viewBox="0 0 106 126" width="106" height="126" xmlns="http://www.w3.org/2000/svg" xmlns:xlink="http://www.w3.org/1999/xlink" xml:space="preserve" version="1.1" baseProfile="full"><defs><style type="text/css">path.black{fill:none;stroke:black;stroke-width:5;stroke-linecap:round;stroke-linejoin:round;}path.grey{fill:none;stroke:#ddd;stroke-width:5;stroke-linecap:round;stroke-linejoin:round;}path.stroke{fill:none;stroke:black;stroke-width:5;stroke-linecap:round;stroke-linejoin:round;}text{font-size:16px;font-family:Segoe UI Symbol,Cambria Math,DejaVu Sans,Symbola,Quivira,STIX,Code2000;-webkit-touch-callout:none;cursor:pointer;-webkit-user-select:none;-khtml-user-select:none;-moz-user-select:none;-ms-user-select:none;user-select: none;}text:hover{color:#777;}#reset{font-weight:bold;}</style><marker id="markerStart" markerWidth="8" markerHeight="8" style="overflow:visible;"><circle cx="0" cy="0" r="1.5" style="stroke:none;fill:red;fill-opacity:0.5;"/></marker><marker id="markerEnd" style="overflow:visible;"><circle cx="0" cy="0" r="0.8" style="stroke:none;fill:blue;fill-opacity:0.5;"><animate attributeName="opacity" from="1" to="0" dur="3s" repeatCount="indefinite" /></circle></marker></defs><path d="M21.5,38.25c2.71,1.16,5.48,1.13,8.27,0.71c14.44-2.14,39.36-6.21,53.23-8.21c4.48-0.65,6.25,1.38,5.5,5.75c-2.81,16.37-9,38.75-20,53.25c-6.14,8.09-9.5,3-12.5-0.75" class="grey" /><path d="M56.88,13.68c0.62,2.57,0.56,4.63,0,7.19c-4.11,18.97-16.53,49.27-43.49,68.79" class="grey" /><path d="M21.5,38.25c2.71,1.16,5.48,1.13,8.27,0.71c14.44-2.14,39.36-6.21,53.23-8.21c4.48-0.65,6.25,1.38,5.5,5.75c-2.81,16.37-9,38.75-20,53.25c-6.14,8.09-9.5,3-12.5-0.75" class="stroke" stroke-dasharray="150"><animate attributeName="stroke-dashoffset" from="150" to="0" dur="1.8s" begin="0.0s" fill="freeze" /></path><path d="M56.88,13.68c0.62,2.57,0.56,4.63,0,7.19c-4.11,18.97-16.53,49.27-43.49,68.79" class="stroke" stroke-dasharray="150"><set attributeName="opacity" to="0" dur="2.0s" /><animate attributeName="stroke-dashoffset" from="150" to="0" dur="1.8s" begin="2.0s" fill="freeze" /></path></svg>