<svg id="kvg-05343" class="kanjivg" viewBox="0 0 106 126" width="106" height="126" xmlns="http://www.w3.org/2000/svg" xmlns:xlink="http://www.w3.org/1999/xlink" xml:space="preserve" version="1.1" baseProfile="full"><defs><style type="text/css">path.black{fill:none;stroke:black;stroke-width:5;stroke-linecap:round;stroke-linejoin:round;}path.grey{fill:none;stroke:#ddd;stroke-width:5;stroke-linecap:round;stroke-linejoin:round;}path.stroke{fill:none;stroke:black;stroke-width:5;stroke-linecap:round;stroke-linejoin:round;}text{font-size:16px;font-family:Segoe UI Symbol,Cambria Math,DejaVu Sans,Symbola,Quivira,STIX,Code2000;-webkit-touch-callout:none;cursor:pointer;-webkit-user-select:none;-khtml-user-select:none;-moz-user-select:none;-ms-user-select:none;user-select: none;}text:hover{color:#777;}#reset{font-weight:bold;}</style><marker id="markerStart" markerWidth="8" markerHeight="8" style="overflow:visible;"><circle cx="0" cy="0" r="1.5" style="stroke:none;fill:red;fill-opacity:0.5;"/></marker><marker id="markerEnd" style="overflow:visible;"><circle cx="0" cy="0" r="0.8" style="stroke:none;fill:blue;fill-opacity:0.5;"><animate attributeName="opacity" from="1" to="0" dur="3s" repeatCount="indefinite" /></circle></marker></defs><path d="M70.38,10.17c-0.13,1.58-0.83,2.64-2.17,3.67c-5.71,4.41-21.46,11.91-41.57,16.82" class="grey" /><path d="M12.13,50.83c3.36,0.94,7.21,0.75,10.63,0.49c17.76-1.34,37.63-4.16,66.24-4.94c3.08-0.08,6.08-0.14,9.13,0.38" class="grey" /><path d="M54.56,25.25c1.03,1.03,2.01,3,2.01,5.18c0,0.9-0.07,46.38-0.19,63.58c-0.02,2.93-0.04,5.04-0.06,5.99" class="grey" /><path d="M70.38,10.17c-0.13,1.58-0.83,2.64-2.17,3.67c-5.71,4.41-21.46,11.91-41.57,16.82" class="stroke" stroke-dasharray="150"><animate attributeName="stroke-dashoffset" from="150" to="0" dur="1.8s" begin="0.0s" fill="freeze" /></path><path d="M12.13,50.83c3.36,0.94,7.21,0.75,10.63,0.49c17.76-1.34,37.63-4.16,66.24-4.94c3.08-0.08,6.08-0.14,9.13,0.38" class="stroke" stroke-dasharray="150"><set attributeName="opacity" to="0" dur="1.2s" /><animate attributeName="stroke-dashoffset" from="150" to="0" dur="1.8s" begin="1.2s" fill="freeze" /></path><path d="M54.56,25.25c1.03,1.03,2.01,3,2.01,5.18c0,0.9-0.07,46.38-0.19,63.58c-0.02,2.93-0.04,5.04-0.06,5.99" class="stroke" stroke-dasharray="150"><set attributeName="opacity" to="0" dur="2.9s" /><animate attributeName="stroke-dashoffset" from="150" to="0" dur="1.8s" begin="2.9s" fill="freeze" /></path></svg>