<svg id="kvg-053e3" class="kanjivg" viewBox="0 0 106 126" width="106" height="126" xmlns="http://www.w3.org/2000/svg" xmlns:xlink="http://www.w3.org/1999/xlink" xml:space="preserve" version="1.1" baseProfile="full"><defs><style type="text/css">path.black{fill:none;stroke:black;stroke-width:5;stroke-linecap:round;stroke-linejoin:round;}path.grey{fill:none;stroke:#ddd;stroke-width:5;stroke-linecap:round;stroke-linejoin:round;}path.stroke{fill:none;stroke:black;stroke-width:5;stroke-linecap:round;stroke-linejoin:round;}text{font-size:16px;font-family:Segoe UI Symbol,Cambria Math,DejaVu Sans,Symbola,Quivira,STIX,Code2000;-webkit-touch-callout:none;cursor:pointer;-webkit-user-select:none;-khtml-user-select:none;-moz-user-select:none;-ms-user-select:none;user-select: none;}text:hover{color:#777;}#reset{font-weight:bold;}</style><marker id="markerStart" markerWidth="8" markerHeight="8" style="overflow:visible;"><circle cx="0" cy="0" r="1.5" style="stroke:none;fill:red;fill-opacity:0.5;"/></marker><marker id="markerEnd" style="overflow:visible;"><circle cx="0" cy="0" r="0.8" style="stroke:none;fill:blue;fill-opacity:0.5;"><animate attributeName="opacity" from="1" to="0" dur="3s" repeatCount="indefinite" /></circle></marker></defs><path d="M22.25,33.25c1.25,1.25,2,2.88,2.26,4.43c1.16,7.03,3.15,23.61,4.68,37.85C29.46,78.09,29.73,80.6,30,83" class="grey" /><path d="M25.29,35.67c17.46-2.17,41.59-5.04,55.49-5.93c3.94-0.25,6.33,2.72,5.72,5.14c-2.25,8.87-6.62,26.5-9,38.87" class="grey" /><path d="M30.25,77.75c10.5-0.5,30.53-2.3,44.99-3.04c2.05-0.11,3.99-0.18,5.76-0.21" class="grey" /><path d="M22.25,33.25c1.25,1.25,2,2.88,2.26,4.43c1.16,7.03,3.15,23.61,4.68,37.85C29.46,78.09,29.73,80.6,30,83" class="stroke" stroke-dasharray="150"><animate attributeName="stroke-dashoffset" from="150" to="0" dur="1.8s" begin="0.0s" fill="freeze" /></path><path d="M25.29,35.67c17.46-2.17,41.59-5.04,55.49-5.93c3.94-0.25,6.33,2.72,5.72,5.14c-2.25,8.87-6.62,26.5-9,38.87" class="stroke" stroke-dasharray="150"><set attributeName="opacity" to="0" dur="1.3s" /><animate attributeName="stroke-dashoffset" from="150" to="0" dur="1.8s" begin="1.3s" fill="freeze" /></path><path d="M30.25,77.75c10.5-0.5,30.53-2.3,44.99-3.04c2.05-0.11,3.99-0.18,5.76-0.21" class="stroke" stroke-dasharray="150"><set attributeName="opacity" to="0" dur="3.2s" /><animate attributeName="stroke-dashoffset" from="150" to="0" dur="1.8s" begin="3.2s" fill="freeze" /></path></svg>