<svg id="kvg-053f3" class="kanjivg" viewBox="0 0 106 126" width="106" height="126" xmlns="http://www.w3.org/2000/svg" xmlns:xlink="http://www.w3.org/1999/xlink" xml:space="preserve" version="1.1" baseProfile="full"><defs><style type="text/css">path.black{fill:none;stroke:black;stroke-width:5;stroke-linecap:round;stroke-linejoin:round;}path.grey{fill:none;stroke:#ddd;stroke-width:5;stroke-linecap:round;stroke-linejoin:round;}path.stroke{fill:none;stroke:black;stroke-width:5;stroke-linecap:round;stroke-linejoin:round;}text{font-size:16px;font-family:Segoe UI Symbol,Cambria Math,DejaVu Sans,Symbola,Quivira,STIX,Code2000;-webkit-touch-callout:none;cursor:pointer;-webkit-user-select:none;-khtml-user-select:none;-moz-user-select:none;-ms-user-select:none;user-select: none;}text:hover{color:#777;}#reset{font-weight:bold;}</style><marker id="markerStart" markerWidth="8" markerHeight="8" style="overflow:visible;"><circle cx="0" cy="0" r="1.5" style="stroke:none;fill:red;fill-opacity:0.5;"/></marker><marker id="markerEnd" style="overflow:visible;"><circle cx="0" cy="0" r="0.8" style="stroke:none;fill:blue;fill-opacity:0.5;"><animate attributeName="opacity" from="1" to="0" dur="3s" repeatCount="indefinite" /></circle></marker></defs><path d="M53.5,21.5c0.62,1.12,0.69,2.23,0.25,4C49.62,42,39.5,61,25.25,74.25" class="grey" /><path d="M13,42.15c1.9,0.56,5.9,0.52,7.79,0.34c23.41-2.24,49.76-5.74,67.67-6.3c3.24-0.1,6.45,0.31,9.17,0.81" class="grey" /><path d="M41.75,66.5c0.75,0.75,1.35,1.93,1.54,2.95c0.94,5,2.38,16.66,3.07,22.76c0.24,2.15,0.39,2.8,0.39,3.54" class="grey" /><path d="M43.25,68c5.25-0.5,29.75-3.25,37-3.75c1.75-0.12,3.24,1.52,3,2.75c-1,5.12-3.38,18-4.5,23.25" class="grey" /><path d="M47,93.25c5.79-0.2,19.51-1.58,28.25-2.23c2.21-0.17,4.18-0.27,5.75-0.27" class="grey" /><path d="M53.5,21.5c0.62,1.12,0.69,2.23,0.25,4C49.62,42,39.5,61,25.25,74.25" class="stroke" stroke-dasharray="150"><animate attributeName="stroke-dashoffset" from="150" to="0" dur="1.8s" begin="0.0s" fill="freeze" /></path><path d="M13,42.15c1.9,0.56,5.9,0.52,7.79,0.34c23.41-2.24,49.76-5.74,67.67-6.3c3.24-0.1,6.45,0.31,9.17,0.81" class="stroke" stroke-dasharray="150"><set attributeName="opacity" to="0" dur="1.5s" /><animate attributeName="stroke-dashoffset" from="150" to="0" dur="1.8s" begin="1.5s" fill="freeze" /></path><path d="M41.75,66.5c0.75,0.75,1.35,1.93,1.54,2.95c0.94,5,2.38,16.66,3.07,22.76c0.24,2.15,0.39,2.8,0.39,3.54" class="stroke" stroke-dasharray="150"><set attributeName="opacity" to="0" dur="3.2s" /><animate attributeName="stroke-dashoffset" from="150" to="0" dur="1.8s" begin="3.2s" fill="freeze" /></path><path d="M43.25,68c5.25-0.5,29.75-3.25,37-3.75c1.75-0.12,3.24,1.52,3,2.75c-1,5.12-3.38,18-4.5,23.25" class="stroke" stroke-dasharray="150"><set attributeName="opacity" to="0" dur="4.2s" /><animate attributeName="stroke-dashoffset" from="150" to="0" dur="1.8s" begin="4.2s" fill="freeze" /></path><path d="M47,93.25c5.79-0.2,19.51-1.58,28.25-2.23c2.21-0.17,4.18-0.27,5.75-0.27" class="stroke" stroke-dasharray="150"><set attributeName="opacity" to="0" dur="5.7s" /><animate attributeName="stroke-dashoffset" from="150" to="0" dur="1.8s" begin="5.7s" fill="freeze" /></path></svg>