<svg id="kvg-0540d" class="kanjivg" viewBox="0 0 106 126" width="106" height="126" xmlns="http://www.w3.org/2000/svg" xmlns:xlink="http://www.w3.org/1999/xlink" xml:space="preserve" version="1.1" baseProfile="full"><defs><style type="text/css">path.black{fill:none;stroke:black;stroke-width:5;stroke-linecap:round;stroke-linejoin:round;}path.grey{fill:none;stroke:#ddd;stroke-width:5;stroke-linecap:round;stroke-linejoin:round;}path.stroke{fill:none;stroke:black;stroke-width:5;stroke-linecap:round;stroke-linejoin:round;}text{font-size:16px;font-family:Segoe UI Symbol,Cambria Math,DejaVu Sans,Symbola,Quivira,STIX,Code2000;-webkit-touch-callout:none;cursor:pointer;-webkit-user-select:none;-khtml-user-select:none;-moz-user-select:none;-ms-user-select:none;user-select: none;}text:hover{color:#777;}#reset{font-weight:bold;}</style><marker id="markerStart" markerWidth="8" markerHeight="8" style="overflow:visible;"><circle cx="0" cy="0" r="1.5" style="stroke:none;fill:red;fill-opacity:0.5;"/></marker><marker id="markerEnd" style="overflow:visible;"><circle cx="0" cy="0" r="0.8" style="stroke:none;fill:blue;fill-opacity:0.5;"><animate attributeName="opacity" from="1" to="0" dur="3s" repeatCount="indefinite" /></circle></marker></defs><path d="M54.2,12.64c0.3,1.61-0.07,2.99-0.69,4.24c-3.49,7.13-13.28,19.29-25.96,27.54" class="grey" /><path d="M53.25,24.16c0.88,0.47,1.95,0.5,3.28,0.37c4.37-0.43,11.99-2.47,17.81-4.1c4.18-1.17,5.46,1.02,4.41,3.51C72.25,39.38,43.88,69.62,16,77.5" class="grey" /><path d="M43.62,40.88c3.62,2,8,6,9.68,9.58" class="grey" /><path d="M42,67.81c0.91,0.91,1.62,2.19,1.83,3.33c0.5,2.82,2.15,14.38,3.05,20.86c0.3,2.12,0.52,3.7,0.59,4.25" class="grey" /><path d="M44.53,69.52c10.82-1.38,32.39-4.4,38.01-4.53c2.76-0.06,4.08,1.63,3.25,4.64c-1.13,4.06-3.52,14.04-4.64,20.36" class="grey" /><path d="M47.99,93.99c7.26-0.61,19.65-1.61,29.54-2.37c2.19-0.17,4.24-0.28,6.04-0.31" class="grey" /><path d="M54.2,12.64c0.3,1.61-0.07,2.99-0.69,4.24c-3.49,7.13-13.28,19.29-25.96,27.54" class="stroke" stroke-dasharray="150"><animate attributeName="stroke-dashoffset" from="150" to="0" dur="1.8s" begin="0.0s" fill="freeze" /></path><path d="M53.25,24.16c0.88,0.47,1.95,0.5,3.28,0.37c4.37-0.43,11.99-2.47,17.81-4.1c4.18-1.17,5.46,1.02,4.41,3.51C72.25,39.38,43.88,69.62,16,77.5" class="stroke" stroke-dasharray="150"><set attributeName="opacity" to="0" dur="1.1s" /><animate attributeName="stroke-dashoffset" from="150" to="0" dur="1.8s" begin="1.1s" fill="freeze" /></path><path d="M43.62,40.88c3.62,2,8,6,9.68,9.58" class="stroke" stroke-dasharray="150"><set attributeName="opacity" to="0" dur="3.1s" /><animate attributeName="stroke-dashoffset" from="150" to="0" dur="1.8s" begin="3.1s" fill="freeze" /></path><path d="M42,67.81c0.91,0.91,1.62,2.19,1.83,3.33c0.5,2.82,2.15,14.38,3.05,20.86c0.3,2.12,0.52,3.7,0.59,4.25" class="stroke" stroke-dasharray="150"><set attributeName="opacity" to="0" dur="4.0s" /><animate attributeName="stroke-dashoffset" from="150" to="0" dur="1.8s" begin="4.0s" fill="freeze" /></path><path d="M44.53,69.52c10.82-1.38,32.39-4.4,38.01-4.53c2.76-0.06,4.08,1.63,3.25,4.64c-1.13,4.06-3.52,14.04-4.64,20.36" class="stroke" stroke-dasharray="150"><set attributeName="opacity" to="0" dur="5.0s" /><animate attributeName="stroke-dashoffset" from="150" to="0" dur="1.8s" begin="5.0s" fill="freeze" /></path><path d="M47.99,93.99c7.26-0.61,19.65-1.61,29.54-2.37c2.19-0.17,4.24-0.28,6.04-0.31" class="stroke" stroke-dasharray="150"><set attributeName="opacity" to="0" dur="6.5s" /><animate attributeName="stroke-dashoffset" from="150" to="0" dur="1.8s" begin="6.5s" fill="freeze" /></path></svg>