<svg id="kvg-05915" class="kanjivg" viewBox="0 0 106 126" width="106" height="106" xmlns="http://www.w3.org/2000/svg" xmlns:xlink="http://www.w3.org/1999/xlink" xml:space="preserve" version="1.1" baseProfile="full"><defs><style type="text/css">path.black{fill:none;stroke:black;stroke-width:5;stroke-linecap:round;stroke-linejoin:round;}path.grey{fill:none;stroke:#ddd;stroke-width:5;stroke-linecap:round;stroke-linejoin:round;}path.stroke{fill:none;stroke:black;stroke-width:5;stroke-linecap:round;stroke-linejoin:round;}text{font-size:16px;font-family:Segoe UI Symbol,Cambria Math,DejaVu Sans,Symbola,Quivira,STIX,Code2000;-webkit-touch-callout:none;cursor:pointer;-webkit-user-select:none;-khtml-user-select:none;-moz-user-select:none;-ms-user-select:none;user-select: none;}text:hover{color:#777;}#reset{font-weight:bold;}</style><marker id="markerStart" markerWidth="8" markerHeight="8" style="overflow:visible;"><circle cx="0" cy="0" r="1.5" style="stroke:none;fill:red;fill-opacity:0.5;"/></marker><marker id="markerEnd" style="overflow:visible;"><circle cx="0" cy="0" r="0.8" style="stroke:none;fill:blue;fill-opacity:0.5;"><animate attributeName="opacity" from="1" to="0" dur="3s" repeatCount="indefinite" /></circle></marker></defs><path d="M52.99,13.14c0.26,1.61,0,3.47-0.49,4.61C49,26,41.38,39.25,27.56,48.97" class="grey" /><path d="M54,23.5c1.75,0.5,3.47,0.6,4.78,0.33c5.22-1.08,10.97-2.58,17.56-4.58c4.26-1.29,6.14,0.55,4.41,4.53C70,48.5,48.62,78.38,17.75,93" class="grey" /><path d="M45.25,42.62c4.84,2.36,12.04,9.2,13.25,12.88" class="grey" /><path d="M52.99,13.14c0.26,1.61,0,3.47-0.49,4.61C49,26,41.38,39.25,27.56,48.97" class="stroke" stroke-dasharray="150"><animate attributeName="stroke-dashoffset" from="150" to="0" dur="1.8s" begin="0.0s" fill="freeze" /></path><path d="M54,23.5c1.75,0.5,3.47,0.6,4.78,0.33c5.22-1.08,10.97-2.58,17.56-4.58c4.26-1.29,6.14,0.55,4.41,4.53C70,48.5,48.62,78.38,17.75,93" class="stroke" stroke-dasharray="150"><set attributeName="opacity" to="0" dur="1.2s" /><animate attributeName="stroke-dashoffset" from="150" to="0" dur="1.8s" begin="1.2s" fill="freeze" /></path><path d="M45.25,42.62c4.84,2.36,12.04,9.2,13.25,12.88" class="stroke" stroke-dasharray="150"><set attributeName="opacity" to="0" dur="3.2s" /><animate attributeName="stroke-dashoffset" from="150" to="0" dur="1.8s" begin="3.2s" fill="freeze" /></path></svg>