<svg id="kvg-05929" class="kanjivg" viewBox="0 0 106 126" width="106" height="126" xmlns="http://www.w3.org/2000/svg" xmlns:xlink="http://www.w3.org/1999/xlink" xml:space="preserve" version="1.1" baseProfile="full"><defs><style type="text/css">path.black{fill:none;stroke:black;stroke-width:5;stroke-linecap:round;stroke-linejoin:round;}path.grey{fill:none;stroke:#ddd;stroke-width:5;stroke-linecap:round;stroke-linejoin:round;}path.stroke{fill:none;stroke:black;stroke-width:5;stroke-linecap:round;stroke-linejoin:round;}text{font-size:16px;font-family:Segoe UI Symbol,Cambria Math,DejaVu Sans,Symbola,Quivira,STIX,Code2000;-webkit-touch-callout:none;cursor:pointer;-webkit-user-select:none;-khtml-user-select:none;-moz-user-select:none;-ms-user-select:none;user-select: none;}text:hover{color:#777;}#reset{font-weight:bold;}</style><marker id="markerStart" markerWidth="8" markerHeight="8" style="overflow:visible;"><circle cx="0" cy="0" r="1.5" style="stroke:none;fill:red;fill-opacity:0.5;"/></marker><marker id="markerEnd" style="overflow:visible;"><circle cx="0" cy="0" r="0.8" style="stroke:none;fill:blue;fill-opacity:0.5;"><animate attributeName="opacity" from="1" to="0" dur="3s" repeatCount="indefinite" /></circle></marker></defs><path d="M21.63,24.83c1.81,0.46,5.14,0.4,6.94,0.21c14.55-1.53,35.18-4.16,50.1-5.25c3.01-0.22,4.83,0.22,6.34,0.45" class="grey" /><path d="M25.31,51.64c2.09,0.31,3.47,0.4,5.94,0.11c10.62-1.25,35.88-4.38,45.96-4.93c1.74-0.1,3.62,0.03,5.99,0.45" class="grey" /><path d="M50.32,26c0.68,1,1.3,3.43,1.29,5.37c-0.24,30.51-14.86,50.88-33.86,60.25" class="grey" /><path d="M50.1,51.39C58.71,60,75.07,78.48,86.59,87.05c2.33,1.73,4.41,3.08,7.91,4.2" class="grey" /><path d="M21.63,24.83c1.81,0.46,5.14,0.4,6.94,0.21c14.55-1.53,35.18-4.16,50.1-5.25c3.01-0.22,4.83,0.22,6.34,0.45" class="stroke" stroke-dasharray="150"><animate attributeName="stroke-dashoffset" from="150" to="0" dur="1.8s" begin="0.0s" fill="freeze" /></path><path d="M25.31,51.64c2.09,0.31,3.47,0.4,5.94,0.11c10.62-1.25,35.88-4.38,45.96-4.93c1.74-0.1,3.62,0.03,5.99,0.45" class="stroke" stroke-dasharray="150"><set attributeName="opacity" to="0" dur="1.5s" /><animate attributeName="stroke-dashoffset" from="150" to="0" dur="1.8s" begin="1.5s" fill="freeze" /></path><path d="M50.32,26c0.68,1,1.3,3.43,1.29,5.37c-0.24,30.51-14.86,50.88-33.86,60.25" class="stroke" stroke-dasharray="150"><set attributeName="opacity" to="0" dur="2.9s" /><animate attributeName="stroke-dashoffset" from="150" to="0" dur="1.8s" begin="2.9s" fill="freeze" /></path><path d="M50.1,51.39C58.71,60,75.07,78.48,86.59,87.05c2.33,1.73,4.41,3.08,7.91,4.2" class="stroke" stroke-dasharray="150"><set attributeName="opacity" to="0" dur="4.6s" /><animate attributeName="stroke-dashoffset" from="150" to="0" dur="1.8s" begin="4.6s" fill="freeze" /></path></svg>