<svg id="kvg-05b50" class="kanjivg" viewBox="0 0 106 126" width="106" height="126" xmlns="http://www.w3.org/2000/svg" xmlns:xlink="http://www.w3.org/1999/xlink" xml:space="preserve" version="1.1" baseProfile="full"><defs><style type="text/css">path.black{fill:none;stroke:black;stroke-width:5;stroke-linecap:round;stroke-linejoin:round;}path.grey{fill:none;stroke:#ddd;stroke-width:5;stroke-linecap:round;stroke-linejoin:round;}path.stroke{fill:none;stroke:black;stroke-width:5;stroke-linecap:round;stroke-linejoin:round;}text{font-size:16px;font-family:Segoe UI Symbol,Cambria Math,DejaVu Sans,Symbola,Quivira,STIX,Code2000;-webkit-touch-callout:none;cursor:pointer;-webkit-user-select:none;-khtml-user-select:none;-moz-user-select:none;-ms-user-select:none;user-select: none;}text:hover{color:#777;}#reset{font-weight:bold;}</style><marker id="markerStart" markerWidth="8" markerHeight="8" style="overflow:visible;"><circle cx="0" cy="0" r="1.5" style="stroke:none;fill:red;fill-opacity:0.5;"/></marker><marker id="markerEnd" style="overflow:visible;"><circle cx="0" cy="0" r="0.8" style="stroke:none;fill:blue;fill-opacity:0.5;"><animate attributeName="opacity" from="1" to="0" dur="3s" repeatCount="indefinite" /></circle></marker></defs><path d="M33.28,19.04c1.84,0.71,3.7,0.86,5.4,0.63c4.95-0.67,27.95-4.58,29.86-4.92c3.46-0.62,4.06,1.36,2.11,3.58c-1.95,2.22-11.41,13.17-16.35,17.19" class="grey" /><path d="M52.48,37.74c6.42,2.97,11.75,30.73,5.24,52.57c-2.8,9.38-8.09,2.96-10.47,0.99" class="grey" /><path d="M12.25,51.48c3.75,1.14,8.79,1.03,12.48,0.49c16.77-2.47,42.86-5.84,58.53-6.75c4.26-0.25,9.11-0.34,13.11,0.57" class="grey" /><path d="M33.28,19.04c1.84,0.71,3.7,0.86,5.4,0.63c4.95-0.67,27.95-4.58,29.86-4.92c3.46-0.62,4.06,1.36,2.11,3.58c-1.95,2.22-11.41,13.17-16.35,17.19" class="stroke" stroke-dasharray="150"><animate attributeName="stroke-dashoffset" from="150" to="0" dur="1.8s" begin="0.0s" fill="freeze" /></path><path d="M52.48,37.74c6.42,2.97,11.75,30.73,5.24,52.57c-2.8,9.38-8.09,2.96-10.47,0.99" class="stroke" stroke-dasharray="150"><set attributeName="opacity" to="0" dur="1.5s" /><animate attributeName="stroke-dashoffset" from="150" to="0" dur="1.8s" begin="1.5s" fill="freeze" /></path><path d="M12.25,51.48c3.75,1.14,8.79,1.03,12.48,0.49c16.77-2.47,42.86-5.84,58.53-6.75c4.26-0.25,9.11-0.34,13.11,0.57" class="stroke" stroke-dasharray="150"><set attributeName="opacity" to="0" dur="3.0s" /><animate attributeName="stroke-dashoffset" from="150" to="0" dur="1.8s" begin="3.0s" fill="freeze" /></path></svg>