<svg id="kvg-05b57-Kaisho" class="kanjivg" viewBox="0 0 106 126" width="106" height="106" xmlns="http://www.w3.org/2000/svg" xmlns:xlink="http://www.w3.org/1999/xlink" xml:space="preserve" version="1.1" baseProfile="full"><defs><style type="text/css">path.black{fill:none;stroke:black;stroke-width:5;stroke-linecap:round;stroke-linejoin:round;}path.grey{fill:none;stroke:#ddd;stroke-width:5;stroke-linecap:round;stroke-linejoin:round;}path.stroke{fill:none;stroke:black;stroke-width:5;stroke-linecap:round;stroke-linejoin:round;}text{font-size:16px;font-family:Segoe UI Symbol,Cambria Math,DejaVu Sans,Symbola,Quivira,STIX,Code2000;-webkit-touch-callout:none;cursor:pointer;-webkit-user-select:none;-khtml-user-select:none;-moz-user-select:none;-ms-user-select:none;user-select: none;}text:hover{color:#777;}#reset{font-weight:bold;}</style><marker id="markerStart" markerWidth="8" markerHeight="8" style="overflow:visible;"><circle cx="0" cy="0" r="1.5" style="stroke:none;fill:red;fill-opacity:0.5;"/></marker><marker id="markerEnd" style="overflow:visible;"><circle cx="0" cy="0" r="0.8" style="stroke:none;fill:blue;fill-opacity:0.5;"><animate attributeName="opacity" from="1" to="0" dur="3s" repeatCount="indefinite" /></circle></marker></defs><path d="M48.98,9.25c3.03,1.93,8.15,6.23,9,9.02" class="grey" /><path d="M22.18,24.08c0,3.72-3.73,13.94-5.43,16.42" class="grey" /><path d="M24.07,26.66c1.19,0.08,3.35-0.13,6.01-0.53c15.95-2.36,49.67-5.25,56.99-5.25c7.32,0,5.49,2.63,5.23,4.2c-0.26,1.58-2.88,3.41-4.71,4.2" class="grey" /><path d="M34.91,35.69c1.11,0.3,5.18,2.12,6.87,2.01c2.98-0.2,24.25-4.49,26.18-4.49c1.94,0,3.65,1.06,2.1,3.2C68,39.25,61.25,45,55.31,50.13" class="grey" /><path d="M52.71,51.03c5.29,4.22,8.63,25.06,2.92,43.18c-2.37,7.53-8.59,1.62-9.83,0.81" class="grey" /><path d="M16,64.01c1.38,0.9,4.97,1.21,7.46,0.99c8.71-0.78,53.54-6.25,67.18-6.48c2.5-0.04,4.7,0.3,6.36,1.2" class="grey" /><path d="M48.98,9.25c3.03,1.93,8.15,6.23,9,9.02" class="stroke" stroke-dasharray="150"><animate attributeName="stroke-dashoffset" from="150" to="0" dur="1.8s" begin="0.0s" fill="freeze" /></path><path d="M22.18,24.08c0,3.72-3.73,13.94-5.43,16.42" class="stroke" stroke-dasharray="150"><set attributeName="opacity" to="0" dur="0.9s" /><animate attributeName="stroke-dashoffset" from="150" to="0" dur="1.8s" begin="0.9s" fill="freeze" /></path><path d="M24.07,26.66c1.19,0.08,3.35-0.13,6.01-0.53c15.95-2.36,49.67-5.25,56.99-5.25c7.32,0,5.49,2.63,5.23,4.2c-0.26,1.58-2.88,3.41-4.71,4.2" class="stroke" stroke-dasharray="150"><set attributeName="opacity" to="0" dur="1.8s" /><animate attributeName="stroke-dashoffset" from="150" to="0" dur="1.8s" begin="1.8s" fill="freeze" /></path><path d="M34.91,35.69c1.11,0.3,5.18,2.12,6.87,2.01c2.98-0.2,24.25-4.49,26.18-4.49c1.94,0,3.65,1.06,2.1,3.2C68,39.25,61.25,45,55.31,50.13" class="stroke" stroke-dasharray="150"><set attributeName="opacity" to="0" dur="3.5s" /><animate attributeName="stroke-dashoffset" from="150" to="0" dur="1.8s" begin="3.5s" fill="freeze" /></path><path d="M52.71,51.03c5.29,4.22,8.63,25.06,2.92,43.18c-2.37,7.53-8.59,1.62-9.83,0.81" class="stroke" stroke-dasharray="150"><set attributeName="opacity" to="0" dur="4.9s" /><animate attributeName="stroke-dashoffset" from="150" to="0" dur="1.8s" begin="4.9s" fill="freeze" /></path><path d="M16,64.01c1.38,0.9,4.97,1.21,7.46,0.99c8.71-0.78,53.54-6.25,67.18-6.48c2.5-0.04,4.7,0.3,6.36,1.2" class="stroke" stroke-dasharray="150"><set attributeName="opacity" to="0" dur="6.300000000000001s" /><animate attributeName="stroke-dashoffset" from="150" to="0" dur="1.8s" begin="6.300000000000001s" fill="freeze" /></path></svg>