<svg id="kvg-05c71" class="kanjivg" viewBox="0 0 106 126" width="106" height="126" xmlns="http://www.w3.org/2000/svg" xmlns:xlink="http://www.w3.org/1999/xlink" xml:space="preserve" version="1.1" baseProfile="full"><defs><style type="text/css">path.black{fill:none;stroke:black;stroke-width:5;stroke-linecap:round;stroke-linejoin:round;}path.grey{fill:none;stroke:#ddd;stroke-width:5;stroke-linecap:round;stroke-linejoin:round;}path.stroke{fill:none;stroke:black;stroke-width:5;stroke-linecap:round;stroke-linejoin:round;}text{font-size:16px;font-family:Segoe UI Symbol,Cambria Math,DejaVu Sans,Symbola,Quivira,STIX,Code2000;-webkit-touch-callout:none;cursor:pointer;-webkit-user-select:none;-khtml-user-select:none;-moz-user-select:none;-ms-user-select:none;user-select: none;}text:hover{color:#777;}#reset{font-weight:bold;}</style><marker id="markerStart" markerWidth="8" markerHeight="8" style="overflow:visible;"><circle cx="0" cy="0" r="1.5" style="stroke:none;fill:red;fill-opacity:0.5;"/></marker><marker id="markerEnd" style="overflow:visible;"><circle cx="0" cy="0" r="0.8" style="stroke:none;fill:blue;fill-opacity:0.5;"><animate attributeName="opacity" from="1" to="0" dur="3s" repeatCount="indefinite" /></circle></marker></defs><path d="M52.49,15.5c1.38,1.38,2.26,3.5,2.26,5.75c0,0.75-0.22,58.3-0.25,59.25" class="grey" /><path d="M21.49,54.5c0.88,0.88,1.39,2.25,1.26,3.75c-0.58,6.99-1,16-2.5,23c-0.7,3.26,0.11,4,2,3.75c17-2.25,47.12-5.12,65.5-6" class="grey" /><path d="M89.24,49c0.94,0.94,1.64,2.38,1.51,4.25c-0.25,3.68-1.83,20.3-2.55,28.77c-0.22,2.64-0.39,4.51-0.45,4.98" class="grey" /><path d="M52.49,15.5c1.38,1.38,2.26,3.5,2.26,5.75c0,0.75-0.22,58.3-0.25,59.25" class="stroke" stroke-dasharray="150"><animate attributeName="stroke-dashoffset" from="150" to="0" dur="1.8s" begin="0.0s" fill="freeze" /></path><path d="M21.49,54.5c0.88,0.88,1.39,2.25,1.26,3.75c-0.58,6.99-1,16-2.5,23c-0.7,3.26,0.11,4,2,3.75c17-2.25,47.12-5.12,65.5-6" class="stroke" stroke-dasharray="150"><set attributeName="opacity" to="0" dur="1.5s" /><animate attributeName="stroke-dashoffset" from="150" to="0" dur="1.8s" begin="1.5s" fill="freeze" /></path><path d="M89.24,49c0.94,0.94,1.64,2.38,1.51,4.25c-0.25,3.68-1.83,20.3-2.55,28.77c-0.22,2.64-0.39,4.51-0.45,4.98" class="stroke" stroke-dasharray="150"><set attributeName="opacity" to="0" dur="3.3s" /><animate attributeName="stroke-dashoffset" from="150" to="0" dur="1.8s" begin="3.3s" fill="freeze" /></path></svg>