<svg id="kvg-05de6" class="kanjivg" viewBox="0 0 106 126" width="106" height="126" xmlns="http://www.w3.org/2000/svg" xmlns:xlink="http://www.w3.org/1999/xlink" xml:space="preserve" version="1.1" baseProfile="full"><defs><style type="text/css">path.black{fill:none;stroke:black;stroke-width:5;stroke-linecap:round;stroke-linejoin:round;}path.grey{fill:none;stroke:#ddd;stroke-width:5;stroke-linecap:round;stroke-linejoin:round;}path.stroke{fill:none;stroke:black;stroke-width:5;stroke-linecap:round;stroke-linejoin:round;}text{font-size:16px;font-family:Segoe UI Symbol,Cambria Math,DejaVu Sans,Symbola,Quivira,STIX,Code2000;-webkit-touch-callout:none;cursor:pointer;-webkit-user-select:none;-khtml-user-select:none;-moz-user-select:none;-ms-user-select:none;user-select: none;}text:hover{color:#777;}#reset{font-weight:bold;}</style><marker id="markerStart" markerWidth="8" markerHeight="8" style="overflow:visible;"><circle cx="0" cy="0" r="1.5" style="stroke:none;fill:red;fill-opacity:0.5;"/></marker><marker id="markerEnd" style="overflow:visible;"><circle cx="0" cy="0" r="0.8" style="stroke:none;fill:blue;fill-opacity:0.5;"><animate attributeName="opacity" from="1" to="0" dur="3s" repeatCount="indefinite" /></circle></marker></defs><path d="M20.75,40.17c2.95,0.49,5.68,0.29,8.64-0.05c14.5-1.68,29.75-4.47,47.22-5.96c2.83-0.24,5.87-0.58,8.64,0.26" class="grey" /><path d="M55.48,12.5c0.27,1.57,0.21,4.18-0.29,5.93C46.59,48.64,32.07,74.14,11.25,91" class="grey" /><path d="M43.25,64.59c1.25,0.29,2.38,0.29,3.86,0.17c4.86-0.37,17.91-2.17,26.92-3.77c1.88-0.33,3.97-0.5,5.97-0.11" class="grey" /><path d="M58.54,66.75c1.04,1.04,1.91,2.62,1.91,4.03c0,6.84,0.04,13.22,0.04,18.72" class="grey" /><path d="M28.5,92.25c2.76,0.84,5.92,0.51,8.75,0.34c14.54-0.9,32.08-2.65,48.13-3.26c3.25-0.12,6.38-0.17,9.49,0.93" class="grey" /><path d="M20.75,40.17c2.95,0.49,5.68,0.29,8.64-0.05c14.5-1.68,29.75-4.47,47.22-5.96c2.83-0.24,5.87-0.58,8.64,0.26" class="stroke" stroke-dasharray="150"><animate attributeName="stroke-dashoffset" from="150" to="0" dur="1.8s" begin="0.0s" fill="freeze" /></path><path d="M55.48,12.5c0.27,1.57,0.21,4.18-0.29,5.93C46.59,48.64,32.07,74.14,11.25,91" class="stroke" stroke-dasharray="150"><set attributeName="opacity" to="0" dur="1.5s" /><animate attributeName="stroke-dashoffset" from="150" to="0" dur="1.8s" begin="1.5s" fill="freeze" /></path><path d="M43.25,64.59c1.25,0.29,2.38,0.29,3.86,0.17c4.86-0.37,17.91-2.17,26.92-3.77c1.88-0.33,3.97-0.5,5.97-0.11" class="stroke" stroke-dasharray="150"><set attributeName="opacity" to="0" dur="3.3s" /><animate attributeName="stroke-dashoffset" from="150" to="0" dur="1.8s" begin="3.3s" fill="freeze" /></path><path d="M58.54,66.75c1.04,1.04,1.91,2.62,1.91,4.03c0,6.84,0.04,13.22,0.04,18.72" class="stroke" stroke-dasharray="150"><set attributeName="opacity" to="0" dur="4.3s" /><animate attributeName="stroke-dashoffset" from="150" to="0" dur="1.8s" begin="4.3s" fill="freeze" /></path><path d="M28.5,92.25c2.76,0.84,5.92,0.51,8.75,0.34c14.54-0.9,32.08-2.65,48.13-3.26c3.25-0.12,6.38-0.17,9.49,0.93" class="stroke" stroke-dasharray="150"><set attributeName="opacity" to="0" dur="5.3s" /><animate attributeName="stroke-dashoffset" from="150" to="0" dur="1.8s" begin="5.3s" fill="freeze" /></path></svg>