<svg id="kvg-06587-Kaisho" class="kanjivg" viewBox="0 0 106 126" width="106" height="126" xmlns="http://www.w3.org/2000/svg" xmlns:xlink="http://www.w3.org/1999/xlink" xml:space="preserve" version="1.1" baseProfile="full"><defs><style type="text/css">path.black{fill:none;stroke:black;stroke-width:5;stroke-linecap:round;stroke-linejoin:round;}path.grey{fill:none;stroke:#ddd;stroke-width:5;stroke-linecap:round;stroke-linejoin:round;}path.stroke{fill:none;stroke:black;stroke-width:5;stroke-linecap:round;stroke-linejoin:round;}text{font-size:16px;font-family:Segoe UI Symbol,Cambria Math,DejaVu Sans,Symbola,Quivira,STIX,Code2000;-webkit-touch-callout:none;cursor:pointer;-webkit-user-select:none;-khtml-user-select:none;-moz-user-select:none;-ms-user-select:none;user-select: none;}text:hover{color:#777;}#reset{font-weight:bold;}</style><marker id="markerStart" markerWidth="8" markerHeight="8" style="overflow:visible;"><circle cx="0" cy="0" r="1.5" style="stroke:none;fill:red;fill-opacity:0.5;"/></marker><marker id="markerEnd" style="overflow:visible;"><circle cx="0" cy="0" r="0.8" style="stroke:none;fill:blue;fill-opacity:0.5;"><animate attributeName="opacity" from="1" to="0" dur="3s" repeatCount="indefinite" /></circle></marker></defs><path d="M45.78,12.5c4.52,1.76,11.07,8.59,11.93,12.02" class="grey" /><path d="M17.5,32.97c1.27,0.1,3.66,0.6,4.9,0.54c10.35-0.51,49.98-6.31,63.53-6.6c2.09-0.04,3.16,0.05,4.72,0.69" class="grey" /><path d="M69.89,33.25c0.65,1.34,1.23,2.29,0.32,4.77c-8.31,22.6-29.18,46.01-51.46,55.73" class="grey" /><path d="M33.5,44.5c14.3,11.21,34.74,32.34,51.7,44.04c3.19,2.2,5.54,2.16,8.3,2.36" class="grey" /><path d="M45.78,12.5c4.52,1.76,11.07,8.59,11.93,12.02" class="stroke" stroke-dasharray="150"><animate attributeName="stroke-dashoffset" from="150" to="0" dur="1.8s" begin="0.0s" fill="freeze" /></path><path d="M17.5,32.97c1.27,0.1,3.66,0.6,4.9,0.54c10.35-0.51,49.98-6.31,63.53-6.6c2.09-0.04,3.16,0.05,4.72,0.69" class="stroke" stroke-dasharray="150"><set attributeName="opacity" to="0" dur="0.9s" /><animate attributeName="stroke-dashoffset" from="150" to="0" dur="1.8s" begin="0.9s" fill="freeze" /></path><path d="M69.89,33.25c0.65,1.34,1.23,2.29,0.32,4.77c-8.31,22.6-29.18,46.01-51.46,55.73" class="stroke" stroke-dasharray="150"><set attributeName="opacity" to="0" dur="2.6s" /><animate attributeName="stroke-dashoffset" from="150" to="0" dur="1.8s" begin="2.6s" fill="freeze" /></path><path d="M33.5,44.5c14.3,11.21,34.74,32.34,51.7,44.04c3.19,2.2,5.54,2.16,8.3,2.36" class="stroke" stroke-dasharray="150"><set attributeName="opacity" to="0" dur="4.3s" /><animate attributeName="stroke-dashoffset" from="150" to="0" dur="1.8s" begin="4.3s" fill="freeze" /></path></svg>