<svg id="kvg-06587" class="kanjivg" viewBox="0 0 106 126" width="106" height="106" xmlns="http://www.w3.org/2000/svg" xmlns:xlink="http://www.w3.org/1999/xlink" xml:space="preserve" version="1.1" baseProfile="full"><defs><style type="text/css">path.black{fill:none;stroke:black;stroke-width:5;stroke-linecap:round;stroke-linejoin:round;}path.grey{fill:none;stroke:#ddd;stroke-width:5;stroke-linecap:round;stroke-linejoin:round;}path.stroke{fill:none;stroke:black;stroke-width:5;stroke-linecap:round;stroke-linejoin:round;}text{font-size:16px;font-family:Segoe UI Symbol,Cambria Math,DejaVu Sans,Symbola,Quivira,STIX,Code2000;-webkit-touch-callout:none;cursor:pointer;-webkit-user-select:none;-khtml-user-select:none;-moz-user-select:none;-ms-user-select:none;user-select: none;}text:hover{color:#777;}#reset{font-weight:bold;}</style><marker id="markerStart" markerWidth="8" markerHeight="8" style="overflow:visible;"><circle cx="0" cy="0" r="1.5" style="stroke:none;fill:red;fill-opacity:0.5;"/></marker><marker id="markerEnd" style="overflow:visible;"><circle cx="0" cy="0" r="0.8" style="stroke:none;fill:blue;fill-opacity:0.5;"><animate attributeName="opacity" from="1" to="0" dur="3s" repeatCount="indefinite" /></circle></marker></defs><path d="M51.62,12.75c1.06,1.06,1.73,2.5,1.73,4.01c0,4.32-0.11,7.61-0.11,12.15" class="grey" /><path d="M16.88,32.72c2.7,0.66,5.71,0.86,8.6,0.54c15.77-1.76,40.15-5.01,56.42-6.1c3.67-0.25,6.15,0.05,8.88,0.69" class="grey" /><path d="M69.89,32.5c0.36,2.12,0.06,3.82-0.93,6.27C61.62,57,43.75,80.25,18.75,93.75" class="grey" /><path d="M31,43.75c6,0,27.27,26.79,49.26,42.1c4.13,2.87,7.49,4.77,11.49,6.04" class="grey" /><path d="M51.62,12.75c1.06,1.06,1.73,2.5,1.73,4.01c0,4.32-0.11,7.61-0.11,12.15" class="stroke" stroke-dasharray="150"><animate attributeName="stroke-dashoffset" from="150" to="0" dur="1.8s" begin="0.0s" fill="freeze" /></path><path d="M16.88,32.72c2.7,0.66,5.71,0.86,8.6,0.54c15.77-1.76,40.15-5.01,56.42-6.1c3.67-0.25,6.15,0.05,8.88,0.69" class="stroke" stroke-dasharray="150"><set attributeName="opacity" to="0" dur="0.9s" /><animate attributeName="stroke-dashoffset" from="150" to="0" dur="1.8s" begin="0.9s" fill="freeze" /></path><path d="M69.89,32.5c0.36,2.12,0.06,3.82-0.93,6.27C61.62,57,43.75,80.25,18.75,93.75" class="stroke" stroke-dasharray="150"><set attributeName="opacity" to="0" dur="2.6s" /><animate attributeName="stroke-dashoffset" from="150" to="0" dur="1.8s" begin="2.6s" fill="freeze" /></path><path d="M31,43.75c6,0,27.27,26.79,49.26,42.1c4.13,2.87,7.49,4.77,11.49,6.04" class="stroke" stroke-dasharray="150"><set attributeName="opacity" to="0" dur="4.3s" /><animate attributeName="stroke-dashoffset" from="150" to="0" dur="1.8s" begin="4.3s" fill="freeze" /></path></svg>