<svg id="kvg-065e9" class="kanjivg" viewBox="0 0 106 126" width="106" height="126" xmlns="http://www.w3.org/2000/svg" xmlns:xlink="http://www.w3.org/1999/xlink" xml:space="preserve" version="1.1" baseProfile="full"><defs><style type="text/css">path.black{fill:none;stroke:black;stroke-width:5;stroke-linecap:round;stroke-linejoin:round;}path.grey{fill:none;stroke:#ddd;stroke-width:5;stroke-linecap:round;stroke-linejoin:round;}path.stroke{fill:none;stroke:black;stroke-width:5;stroke-linecap:round;stroke-linejoin:round;}text{font-size:16px;font-family:Segoe UI Symbol,Cambria Math,DejaVu Sans,Symbola,Quivira,STIX,Code2000;-webkit-touch-callout:none;cursor:pointer;-webkit-user-select:none;-khtml-user-select:none;-moz-user-select:none;-ms-user-select:none;user-select: none;}text:hover{color:#777;}#reset{font-weight:bold;}</style><marker id="markerStart" markerWidth="8" markerHeight="8" style="overflow:visible;"><circle cx="0" cy="0" r="1.5" style="stroke:none;fill:red;fill-opacity:0.5;"/></marker><marker id="markerEnd" style="overflow:visible;"><circle cx="0" cy="0" r="0.8" style="stroke:none;fill:blue;fill-opacity:0.5;"><animate attributeName="opacity" from="1" to="0" dur="3s" repeatCount="indefinite" /></circle></marker></defs><path d="M28,16c1.25,1.25,1.82,2.05,2.25,4c1,4.5,2.75,16.75,4.13,24.98c0.32,1.91,0.49,2.52,0.96,4.27" class="grey" /><path d="M30.51,17.25c0.94-0.05,42.78-4.51,46.27-4c1.72,0.25,3.37,2.22,2.71,4.75c-1.01,3.87-2.86,13.89-4.73,22.06c-0.42,1.86-0.89,3.07-1.51,5.44" class="grey" /><path d="M33.61,31.75c9.14-1,34.52-3.12,42.21-3.5" class="grey" /><path d="M36.01,46.5C47.88,45.5,67,44,73,44" class="grey" /><path d="M14.13,66.16c1.94,0.48,5.52,0.61,7.46,0.48c16.82-1.13,52.04-3.88,67.86-3.84c3.24,0.01,5.19,0.23,6.81,0.47" class="grey" /><path d="M53.23,47.75c1.13,1.13,1.47,2.88,1.47,4.49c0,0.91-0.01,26.62-0.09,39.51c-0.02,2.81-0.04,5.02-0.05,6.25" class="grey" /><path d="M28,16c1.25,1.25,1.82,2.05,2.25,4c1,4.5,2.75,16.75,4.13,24.98c0.32,1.91,0.49,2.52,0.96,4.27" class="stroke" stroke-dasharray="150"><animate attributeName="stroke-dashoffset" from="150" to="0" dur="1.8s" begin="0.0s" fill="freeze" /></path><path d="M30.51,17.25c0.94-0.05,42.78-4.51,46.27-4c1.72,0.25,3.37,2.22,2.71,4.75c-1.01,3.87-2.86,13.89-4.73,22.06c-0.42,1.86-0.89,3.07-1.51,5.44" class="stroke" stroke-dasharray="150"><set attributeName="opacity" to="0" dur="1.0s" /><animate attributeName="stroke-dashoffset" from="150" to="0" dur="1.8s" begin="1.0s" fill="freeze" /></path><path d="M33.61,31.75c9.14-1,34.52-3.12,42.21-3.5" class="stroke" stroke-dasharray="150"><set attributeName="opacity" to="0" dur="2.7s" /><animate attributeName="stroke-dashoffset" from="150" to="0" dur="1.8s" begin="2.7s" fill="freeze" /></path><path d="M36.01,46.5C47.88,45.5,67,44,73,44" class="stroke" stroke-dasharray="150"><set attributeName="opacity" to="0" dur="3.8000000000000003s" /><animate attributeName="stroke-dashoffset" from="150" to="0" dur="1.8s" begin="3.8000000000000003s" fill="freeze" /></path><path d="M14.13,66.16c1.94,0.48,5.52,0.61,7.46,0.48c16.82-1.13,52.04-3.88,67.86-3.84c3.24,0.01,5.19,0.23,6.81,0.47" class="stroke" stroke-dasharray="150"><set attributeName="opacity" to="0" dur="4.800000000000001s" /><animate attributeName="stroke-dashoffset" from="150" to="0" dur="1.8s" begin="4.800000000000001s" fill="freeze" /></path><path d="M53.23,47.75c1.13,1.13,1.47,2.88,1.47,4.49c0,0.91-0.01,26.62-0.09,39.51c-0.02,2.81-0.04,5.02-0.05,6.25" class="stroke" stroke-dasharray="150"><set attributeName="opacity" to="0" dur="6.500000000000001s" /><animate attributeName="stroke-dashoffset" from="150" to="0" dur="1.8s" begin="6.500000000000001s" fill="freeze" /></path></svg>