<svg id="kvg-065e5" class="kanjivg" viewBox="0 0 106 126" width="106" height="126" xmlns="http://www.w3.org/2000/svg" xmlns:xlink="http://www.w3.org/1999/xlink" xml:space="preserve" version="1.1" baseProfile="full"><defs><style type="text/css">path.black{fill:none;stroke:black;stroke-width:5;stroke-linecap:round;stroke-linejoin:round;}path.grey{fill:none;stroke:#ddd;stroke-width:5;stroke-linecap:round;stroke-linejoin:round;}path.stroke{fill:none;stroke:black;stroke-width:5;stroke-linecap:round;stroke-linejoin:round;}text{font-size:16px;font-family:Segoe UI Symbol,Cambria Math,DejaVu Sans,Symbola,Quivira,STIX,Code2000;-webkit-touch-callout:none;cursor:pointer;-webkit-user-select:none;-khtml-user-select:none;-moz-user-select:none;-ms-user-select:none;user-select: none;}text:hover{color:#777;}#reset{font-weight:bold;}</style><marker id="markerStart" markerWidth="8" markerHeight="8" style="overflow:visible;"><circle cx="0" cy="0" r="1.5" style="stroke:none;fill:red;fill-opacity:0.5;"/></marker><marker id="markerEnd" style="overflow:visible;"><circle cx="0" cy="0" r="0.8" style="stroke:none;fill:blue;fill-opacity:0.5;"><animate attributeName="opacity" from="1" to="0" dur="3s" repeatCount="indefinite" /></circle></marker></defs><path d="M31.5,24.5c1.12,1.12,1.74,2.75,1.74,4.75c0,1.6-0.16,38.11-0.09,53.5c0.02,3.82,0.05,6.35,0.09,6.75" class="grey" /><path d="M33.48,26c0.8-0.05,37.67-3.01,40.77-3.25c3.19-0.25,5,1.75,5,4.25c0,4-0.22,40.84-0.23,56c0,3.48,0,5.72,0,6" class="grey" /><path d="M34.22,55.25c7.78-0.5,35.9-2.5,44.06-2.75" class="grey" /><path d="M34.23,86.5c10.52-0.75,34.15-2.12,43.81-2.25" class="grey" /><path d="M31.5,24.5c1.12,1.12,1.74,2.75,1.74,4.75c0,1.6-0.16,38.11-0.09,53.5c0.02,3.82,0.05,6.35,0.09,6.75" class="stroke" stroke-dasharray="150"><animate attributeName="stroke-dashoffset" from="150" to="0" dur="1.8s" begin="0.0s" fill="freeze" /></path><path d="M33.48,26c0.8-0.05,37.67-3.01,40.77-3.25c3.19-0.25,5,1.75,5,4.25c0,4-0.22,40.84-0.23,56c0,3.48,0,5.72,0,6" class="stroke" stroke-dasharray="150"><set attributeName="opacity" to="0" dur="1.5s" /><animate attributeName="stroke-dashoffset" from="150" to="0" dur="1.8s" begin="1.5s" fill="freeze" /></path><path d="M34.22,55.25c7.78-0.5,35.9-2.5,44.06-2.75" class="stroke" stroke-dasharray="150"><set attributeName="opacity" to="0" dur="3.5s" /><animate attributeName="stroke-dashoffset" from="150" to="0" dur="1.8s" begin="3.5s" fill="freeze" /></path><path d="M34.23,86.5c10.52-0.75,34.15-2.12,43.81-2.25" class="stroke" stroke-dasharray="150"><set attributeName="opacity" to="0" dur="4.6s" /><animate attributeName="stroke-dashoffset" from="150" to="0" dur="1.8s" begin="4.6s" fill="freeze" /></path></svg>