<svg id="kvg-06728-Kaisho" class="kanjivg" viewBox="0 0 106 126" width="106" height="126" xmlns="http://www.w3.org/2000/svg" xmlns:xlink="http://www.w3.org/1999/xlink" xml:space="preserve" version="1.1" baseProfile="full"><defs><style type="text/css">path.black{fill:none;stroke:black;stroke-width:5;stroke-linecap:round;stroke-linejoin:round;}path.grey{fill:none;stroke:#ddd;stroke-width:5;stroke-linecap:round;stroke-linejoin:round;}path.stroke{fill:none;stroke:black;stroke-width:5;stroke-linecap:round;stroke-linejoin:round;}text{font-size:16px;font-family:Segoe UI Symbol,Cambria Math,DejaVu Sans,Symbola,Quivira,STIX,Code2000;-webkit-touch-callout:none;cursor:pointer;-webkit-user-select:none;-khtml-user-select:none;-moz-user-select:none;-ms-user-select:none;user-select: none;}text:hover{color:#777;}#reset{font-weight:bold;}</style><marker id="markerStart" markerWidth="8" markerHeight="8" style="overflow:visible;"><circle cx="0" cy="0" r="1.5" style="stroke:none;fill:red;fill-opacity:0.5;"/></marker><marker id="markerEnd" style="overflow:visible;"><circle cx="0" cy="0" r="0.8" style="stroke:none;fill:blue;fill-opacity:0.5;"><animate attributeName="opacity" from="1" to="0" dur="3s" repeatCount="indefinite" /></circle></marker></defs><path d="M19.75,40.11c2.45,0.61,4.91,0.75,7.36,0.42c10.61-0.99,35.11-3.44,50.38-4.87c3.13-0.29,7.01,0.33,9.26,1.23" class="grey" /><path d="M51.25,10.75c1.81,1.29,2.25,3.62,2.25,5.87c0,14.03,0.25,69.89,0.25,75.88c0,13.75-6.12,2.38-7.5,1" class="grey" /><path d="M51.75,39.25c-1.07,2.28-2.46,4.76-4.08,7.35c-7.82,12.48-21.15,27.44-31.92,33.65" class="grey" /><path d="M54.5,39c4.35,4.81,23.45,27.3,30.6,35.02c1.76,2.15,3.97,3.73,6.65,4.73" class="grey" /><path d="M19.75,40.11c2.45,0.61,4.91,0.75,7.36,0.42c10.61-0.99,35.11-3.44,50.38-4.87c3.13-0.29,7.01,0.33,9.26,1.23" class="stroke" stroke-dasharray="150"><animate attributeName="stroke-dashoffset" from="150" to="0" dur="1.8s" begin="0.0s" fill="freeze" /></path><path d="M51.25,10.75c1.81,1.29,2.25,3.62,2.25,5.87c0,14.03,0.25,69.89,0.25,75.88c0,13.75-6.12,2.38-7.5,1" class="stroke" stroke-dasharray="150"><set attributeName="opacity" to="0" dur="1.5s" /><animate attributeName="stroke-dashoffset" from="150" to="0" dur="1.8s" begin="1.5s" fill="freeze" /></path><path d="M51.75,39.25c-1.07,2.28-2.46,4.76-4.08,7.35c-7.82,12.48-21.15,27.44-31.92,33.65" class="stroke" stroke-dasharray="150"><set attributeName="opacity" to="0" dur="3.3s" /><animate attributeName="stroke-dashoffset" from="150" to="0" dur="1.8s" begin="3.3s" fill="freeze" /></path><path d="M54.5,39c4.35,4.81,23.45,27.3,30.6,35.02c1.76,2.15,3.97,3.73,6.65,4.73" class="stroke" stroke-dasharray="150"><set attributeName="opacity" to="0" dur="4.699999999999999s" /><animate attributeName="stroke-dashoffset" from="150" to="0" dur="1.8s" begin="4.699999999999999s" fill="freeze" /></path></svg>