<svg id="kvg-06797-Kaisho" class="kanjivg" viewBox="0 0 106 126" width="106" height="106" xmlns="http://www.w3.org/2000/svg" xmlns:xlink="http://www.w3.org/1999/xlink" xml:space="preserve" version="1.1" baseProfile="full"><defs><style type="text/css">path.black{fill:none;stroke:black;stroke-width:5;stroke-linecap:round;stroke-linejoin:round;}path.grey{fill:none;stroke:#ddd;stroke-width:5;stroke-linecap:round;stroke-linejoin:round;}path.stroke{fill:none;stroke:black;stroke-width:5;stroke-linecap:round;stroke-linejoin:round;}text{font-size:16px;font-family:Segoe UI Symbol,Cambria Math,DejaVu Sans,Symbola,Quivira,STIX,Code2000;-webkit-touch-callout:none;cursor:pointer;-webkit-user-select:none;-khtml-user-select:none;-moz-user-select:none;-ms-user-select:none;user-select: none;}text:hover{color:#777;}#reset{font-weight:bold;}</style><marker id="markerStart" markerWidth="8" markerHeight="8" style="overflow:visible;"><circle cx="0" cy="0" r="1.5" style="stroke:none;fill:red;fill-opacity:0.5;"/></marker><marker id="markerEnd" style="overflow:visible;"><circle cx="0" cy="0" r="0.8" style="stroke:none;fill:blue;fill-opacity:0.5;"><animate attributeName="opacity" from="1" to="0" dur="3s" repeatCount="indefinite" /></circle></marker></defs><path d="M11.5,41.25c0.75,0.25,3.01,0.21,5,0c7-0.75,15.75-2,23.25-2.5c2-0.13,3.5-0.75,4.75-0.5" class="grey" /><path d="M30,15.5c1.25,0.5,2,2.25,2.25,3.25S32,87.98,32,89.25c0,11.75-5.38,1.88-6.5,0.75" class="grey" /><path d="M31.25,42.5c-3.3,9.56-13.13,25.59-20,31" class="grey" /><path d="M35.25,48.75c3.5,2,7.25,6,9.25,9.5" class="grey" /><path d="M50.25,37.75c0.61,0.25,1.93,0.39,3.54,0.25c5.71-0.5,21.01-2.25,32.17-3.5c1.62-0.18,3.03-0.25,4.04,0" class="grey" /><path d="M66.25,13.5c1.25,0.5,2,2.25,2.25,3.25S68.25,83,68.25,89.25c0,12.75-4.62,3.88-6,2.5" class="grey" /><path d="M67.25,39.5c-3.5,13-14.39,31.09-22.5,37.75" class="grey" /><path d="M69.25,37.75C76.75,51,88.75,68,94.84,73.23c1.73,1.49,2.71,2.52,4.16,3.02" class="grey" /><path d="M11.5,41.25c0.75,0.25,3.01,0.21,5,0c7-0.75,15.75-2,23.25-2.5c2-0.13,3.5-0.75,4.75-0.5" class="stroke" stroke-dasharray="150"><animate attributeName="stroke-dashoffset" from="150" to="0" dur="1.8s" begin="0.0s" fill="freeze" /></path><path d="M30,15.5c1.25,0.5,2,2.25,2.25,3.25S32,87.98,32,89.25c0,11.75-5.38,1.88-6.5,0.75" class="stroke" stroke-dasharray="150"><set attributeName="opacity" to="0" dur="1.0s" /><animate attributeName="stroke-dashoffset" from="150" to="0" dur="1.8s" begin="1.0s" fill="freeze" /></path><path d="M31.25,42.5c-3.3,9.56-13.13,25.59-20,31" class="stroke" stroke-dasharray="150"><set attributeName="opacity" to="0" dur="2.7s" /><animate attributeName="stroke-dashoffset" from="150" to="0" dur="1.8s" begin="2.7s" fill="freeze" /></path><path d="M35.25,48.75c3.5,2,7.25,6,9.25,9.5" class="stroke" stroke-dasharray="150"><set attributeName="opacity" to="0" dur="3.7s" /><animate attributeName="stroke-dashoffset" from="150" to="0" dur="1.8s" begin="3.7s" fill="freeze" /></path><path d="M50.25,37.75c0.61,0.25,1.93,0.39,3.54,0.25c5.71-0.5,21.01-2.25,32.17-3.5c1.62-0.18,3.03-0.25,4.04,0" class="stroke" stroke-dasharray="150"><set attributeName="opacity" to="0" dur="4.6000000000000005s" /><animate attributeName="stroke-dashoffset" from="150" to="0" dur="1.8s" begin="4.6000000000000005s" fill="freeze" /></path><path d="M66.25,13.5c1.25,0.5,2,2.25,2.25,3.25S68.25,83,68.25,89.25c0,12.75-4.62,3.88-6,2.5" class="stroke" stroke-dasharray="150"><set attributeName="opacity" to="0" dur="5.6000000000000005s" /><animate attributeName="stroke-dashoffset" from="150" to="0" dur="1.8s" begin="5.6000000000000005s" fill="freeze" /></path><path d="M67.25,39.5c-3.5,13-14.39,31.09-22.5,37.75" class="stroke" stroke-dasharray="150"><set attributeName="opacity" to="0" dur="7.4s" /><animate attributeName="stroke-dashoffset" from="150" to="0" dur="1.8s" begin="7.4s" fill="freeze" /></path><path d="M69.25,37.75C76.75,51,88.75,68,94.84,73.23c1.73,1.49,2.71,2.52,4.16,3.02" class="stroke" stroke-dasharray="150"><set attributeName="opacity" to="0" dur="8.5s" /><animate attributeName="stroke-dashoffset" from="150" to="0" dur="1.8s" begin="8.5s" fill="freeze" /></path></svg>