<svg id="kvg-06797" class="kanjivg" viewBox="0 0 106 126" width="106" height="106" xmlns="http://www.w3.org/2000/svg" xmlns:xlink="http://www.w3.org/1999/xlink" xml:space="preserve" version="1.1" baseProfile="full"><defs><style type="text/css">path.black{fill:none;stroke:black;stroke-width:5;stroke-linecap:round;stroke-linejoin:round;}path.grey{fill:none;stroke:#ddd;stroke-width:5;stroke-linecap:round;stroke-linejoin:round;}path.stroke{fill:none;stroke:black;stroke-width:5;stroke-linecap:round;stroke-linejoin:round;}text{font-size:16px;font-family:Segoe UI Symbol,Cambria Math,DejaVu Sans,Symbola,Quivira,STIX,Code2000;-webkit-touch-callout:none;cursor:pointer;-webkit-user-select:none;-khtml-user-select:none;-moz-user-select:none;-ms-user-select:none;user-select: none;}text:hover{color:#777;}#reset{font-weight:bold;}</style><marker id="markerStart" markerWidth="8" markerHeight="8" style="overflow:visible;"><circle cx="0" cy="0" r="1.5" style="stroke:none;fill:red;fill-opacity:0.5;"/></marker><marker id="markerEnd" style="overflow:visible;"><circle cx="0" cy="0" r="0.8" style="stroke:none;fill:blue;fill-opacity:0.5;"><animate attributeName="opacity" from="1" to="0" dur="3s" repeatCount="indefinite" /></circle></marker></defs><path d="M11,40.75c0.75,0.25,3.01,0.42,5,0.25c5.88-0.5,15.5-1.38,24-2.5c1.98-0.26,3.25-0.25,4.5,0" class="grey" /><path d="M30.75,15.75c1.12,1.12,1.75,2.75,1.75,4.75c0,5,0.07,45.73-0.12,65.5c-0.04,4.18-0.08,7.16-0.13,8.25" class="grey" /><path d="M31.25,40.5c0,1.62-0.55,3.41-1.05,4.59C26.09,54.68,18.62,67,11.25,73.5" class="grey" /><path d="M35.25,48.75c3.5,2,7.25,6,9.25,9.5" class="grey" /><path d="M50.62,37.39c0.94,0.34,2.96,0.59,5.44,0.34c8.2-0.84,18.68-2.6,27.97-3.04c2.49-0.12,4.65-0.34,6.21,0" class="grey" /><path d="M67,13.5c1.25,1.25,1.75,3,1.75,4.5c0,0.85,0.07,47.55-0.12,67.75c-0.04,4.32-0.08,7.4-0.13,8.5" class="grey" /><path d="M68,38.25c0,1-0.64,2.87-1.39,4.58C61.25,55,55.38,66.38,45.5,77" class="grey" /><path d="M69.5,37.75c6.62,12.62,15.94,25.68,22.32,32.52c1.78,1.91,4.12,4.6,6.68,5.48" class="grey" /><path d="M11,40.75c0.75,0.25,3.01,0.42,5,0.25c5.88-0.5,15.5-1.38,24-2.5c1.98-0.26,3.25-0.25,4.5,0" class="stroke" stroke-dasharray="150"><animate attributeName="stroke-dashoffset" from="150" to="0" dur="1.8s" begin="0.0s" fill="freeze" /></path><path d="M30.75,15.75c1.12,1.12,1.75,2.75,1.75,4.75c0,5,0.07,45.73-0.12,65.5c-0.04,4.18-0.08,7.16-0.13,8.25" class="stroke" stroke-dasharray="150"><set attributeName="opacity" to="0" dur="1.0s" /><animate attributeName="stroke-dashoffset" from="150" to="0" dur="1.8s" begin="1.0s" fill="freeze" /></path><path d="M31.25,40.5c0,1.62-0.55,3.41-1.05,4.59C26.09,54.68,18.62,67,11.25,73.5" class="stroke" stroke-dasharray="150"><set attributeName="opacity" to="0" dur="2.7s" /><animate attributeName="stroke-dashoffset" from="150" to="0" dur="1.8s" begin="2.7s" fill="freeze" /></path><path d="M35.25,48.75c3.5,2,7.25,6,9.25,9.5" class="stroke" stroke-dasharray="150"><set attributeName="opacity" to="0" dur="3.7s" /><animate attributeName="stroke-dashoffset" from="150" to="0" dur="1.8s" begin="3.7s" fill="freeze" /></path><path d="M50.62,37.39c0.94,0.34,2.96,0.59,5.44,0.34c8.2-0.84,18.68-2.6,27.97-3.04c2.49-0.12,4.65-0.34,6.21,0" class="stroke" stroke-dasharray="150"><set attributeName="opacity" to="0" dur="4.6000000000000005s" /><animate attributeName="stroke-dashoffset" from="150" to="0" dur="1.8s" begin="4.6000000000000005s" fill="freeze" /></path><path d="M67,13.5c1.25,1.25,1.75,3,1.75,4.5c0,0.85,0.07,47.55-0.12,67.75c-0.04,4.32-0.08,7.4-0.13,8.5" class="stroke" stroke-dasharray="150"><set attributeName="opacity" to="0" dur="5.6000000000000005s" /><animate attributeName="stroke-dashoffset" from="150" to="0" dur="1.8s" begin="5.6000000000000005s" fill="freeze" /></path><path d="M68,38.25c0,1-0.64,2.87-1.39,4.58C61.25,55,55.38,66.38,45.5,77" class="stroke" stroke-dasharray="150"><set attributeName="opacity" to="0" dur="7.300000000000001s" /><animate attributeName="stroke-dashoffset" from="150" to="0" dur="1.8s" begin="7.300000000000001s" fill="freeze" /></path><path d="M69.5,37.75c6.62,12.62,15.94,25.68,22.32,32.52c1.78,1.91,4.12,4.6,6.68,5.48" class="stroke" stroke-dasharray="150"><set attributeName="opacity" to="0" dur="8.5s" /><animate attributeName="stroke-dashoffset" from="150" to="0" dur="1.8s" begin="8.5s" fill="freeze" /></path></svg>