<svg id="kvg-06821-Kaisho" class="kanjivg" viewBox="0 0 106 126" width="106" height="106" xmlns="http://www.w3.org/2000/svg" xmlns:xlink="http://www.w3.org/1999/xlink" xml:space="preserve" version="1.1" baseProfile="full"><defs><style type="text/css">path.black{fill:none;stroke:black;stroke-width:5;stroke-linecap:round;stroke-linejoin:round;}path.grey{fill:none;stroke:#ddd;stroke-width:5;stroke-linecap:round;stroke-linejoin:round;}path.stroke{fill:none;stroke:black;stroke-width:5;stroke-linecap:round;stroke-linejoin:round;}text{font-size:16px;font-family:Segoe UI Symbol,Cambria Math,DejaVu Sans,Symbola,Quivira,STIX,Code2000;-webkit-touch-callout:none;cursor:pointer;-webkit-user-select:none;-khtml-user-select:none;-moz-user-select:none;-ms-user-select:none;user-select: none;}text:hover{color:#777;}#reset{font-weight:bold;}</style><marker id="markerStart" markerWidth="8" markerHeight="8" style="overflow:visible;"><circle cx="0" cy="0" r="1.5" style="stroke:none;fill:red;fill-opacity:0.5;"/></marker><marker id="markerEnd" style="overflow:visible;"><circle cx="0" cy="0" r="0.8" style="stroke:none;fill:blue;fill-opacity:0.5;"><animate attributeName="opacity" from="1" to="0" dur="3s" repeatCount="indefinite" /></circle></marker></defs><path d="M13.28,41.18c0.34,0.25,2.33,0.42,3.22,0.32c3.84-0.42,17.66-3.3,23.83-4.54c0.89-0.18,1.12-0.25,1.68,0" class="grey" /><path d="M28.24,16.5c0.76,0.45,2.51,3,2.51,5.25c0,0.91-0.25,62.15-0.25,67.75c0,9.75-5.12,2.12-6.5,0.75" class="grey" /><path d="M29.75,43C25,54.75,21.75,60,15,70" class="grey" /><path d="M33.5,51c1.5,1.75,5.25,4.75,6.75,6.25" class="grey" /><path d="M62.93,15c2.91,1.46,6.95,7.12,7.68,10" class="grey" /><path d="M49.25,32.21c0.78,0.08,2.55,0.56,3.31,0.45c6.11-0.94,27.25-4.79,35.55-5.03c1.28-0.04,1.94,0.04,2.89,0.57" class="grey" /><path d="M59.49,39.68c0.2,0.53,0.56,1.77,0.1,2.64c-1.84,3.43-4.59,6.18-8.34,9.18" class="grey" /><path d="M82.4,41.5c3.49,2.63,5.53,5.46,7.27,8.66" class="grey" /><path d="M79.15,49.43c0.42,0.9,0.92,1.62,0.21,3.18C73,66.5,57.25,83.5,44.5,90.75" class="grey" /><path d="M58.7,57.13c8.6,7.82,21.76,24.47,32.3,31.88c1.98,1.39,3.33,1.51,5,1.65" class="grey" /><path d="M13.28,41.18c0.34,0.25,2.33,0.42,3.22,0.32c3.84-0.42,17.66-3.3,23.83-4.54c0.89-0.18,1.12-0.25,1.68,0" class="stroke" stroke-dasharray="150"><animate attributeName="stroke-dashoffset" from="150" to="0" dur="1.8s" begin="0.0s" fill="freeze" /></path><path d="M28.24,16.5c0.76,0.45,2.51,3,2.51,5.25c0,0.91-0.25,62.15-0.25,67.75c0,9.75-5.12,2.12-6.5,0.75" class="stroke" stroke-dasharray="150"><set attributeName="opacity" to="0" dur="1.0s" /><animate attributeName="stroke-dashoffset" from="150" to="0" dur="1.8s" begin="1.0s" fill="freeze" /></path><path d="M29.75,43C25,54.75,21.75,60,15,70" class="stroke" stroke-dasharray="150"><set attributeName="opacity" to="0" dur="2.7s" /><animate attributeName="stroke-dashoffset" from="150" to="0" dur="1.8s" begin="2.7s" fill="freeze" /></path><path d="M33.5,51c1.5,1.75,5.25,4.75,6.75,6.25" class="stroke" stroke-dasharray="150"><set attributeName="opacity" to="0" dur="3.7s" /><animate attributeName="stroke-dashoffset" from="150" to="0" dur="1.8s" begin="3.7s" fill="freeze" /></path><path d="M62.93,15c2.91,1.46,6.95,7.12,7.68,10" class="stroke" stroke-dasharray="150"><set attributeName="opacity" to="0" dur="4.6000000000000005s" /><animate attributeName="stroke-dashoffset" from="150" to="0" dur="1.8s" begin="4.6000000000000005s" fill="freeze" /></path><path d="M49.25,32.21c0.78,0.08,2.55,0.56,3.31,0.45c6.11-0.94,27.25-4.79,35.55-5.03c1.28-0.04,1.94,0.04,2.89,0.57" class="stroke" stroke-dasharray="150"><set attributeName="opacity" to="0" dur="5.500000000000001s" /><animate attributeName="stroke-dashoffset" from="150" to="0" dur="1.8s" begin="5.500000000000001s" fill="freeze" /></path><path d="M59.49,39.68c0.2,0.53,0.56,1.77,0.1,2.64c-1.84,3.43-4.59,6.18-8.34,9.18" class="stroke" stroke-dasharray="150"><set attributeName="opacity" to="0" dur="6.600000000000001s" /><animate attributeName="stroke-dashoffset" from="150" to="0" dur="1.8s" begin="6.600000000000001s" fill="freeze" /></path><path d="M82.4,41.5c3.49,2.63,5.53,5.46,7.27,8.66" class="stroke" stroke-dasharray="150"><set attributeName="opacity" to="0" dur="7.500000000000002s" /><animate attributeName="stroke-dashoffset" from="150" to="0" dur="1.8s" begin="7.500000000000002s" fill="freeze" /></path><path d="M79.15,49.43c0.42,0.9,0.92,1.62,0.21,3.18C73,66.5,57.25,83.5,44.5,90.75" class="stroke" stroke-dasharray="150"><set attributeName="opacity" to="0" dur="8.400000000000002s" /><animate attributeName="stroke-dashoffset" from="150" to="0" dur="1.8s" begin="8.400000000000002s" fill="freeze" /></path><path d="M58.7,57.13c8.6,7.82,21.76,24.47,32.3,31.88c1.98,1.39,3.33,1.51,5,1.65" class="stroke" stroke-dasharray="150"><set attributeName="opacity" to="0" dur="9.800000000000002s" /><animate attributeName="stroke-dashoffset" from="150" to="0" dur="1.8s" begin="9.800000000000002s" fill="freeze" /></path></svg>