<svg id="kvg-06c17" class="kanjivg" viewBox="0 0 106 126" width="106" height="106" xmlns="http://www.w3.org/2000/svg" xmlns:xlink="http://www.w3.org/1999/xlink" xml:space="preserve" version="1.1" baseProfile="full"><defs><style type="text/css">path.black{fill:none;stroke:black;stroke-width:5;stroke-linecap:round;stroke-linejoin:round;}path.grey{fill:none;stroke:#ddd;stroke-width:5;stroke-linecap:round;stroke-linejoin:round;}path.stroke{fill:none;stroke:black;stroke-width:5;stroke-linecap:round;stroke-linejoin:round;}text{font-size:16px;font-family:Segoe UI Symbol,Cambria Math,DejaVu Sans,Symbola,Quivira,STIX,Code2000;-webkit-touch-callout:none;cursor:pointer;-webkit-user-select:none;-khtml-user-select:none;-moz-user-select:none;-ms-user-select:none;user-select: none;}text:hover{color:#777;}#reset{font-weight:bold;}</style><marker id="markerStart" markerWidth="8" markerHeight="8" style="overflow:visible;"><circle cx="0" cy="0" r="1.5" style="stroke:none;fill:red;fill-opacity:0.5;"/></marker><marker id="markerEnd" style="overflow:visible;"><circle cx="0" cy="0" r="0.8" style="stroke:none;fill:blue;fill-opacity:0.5;"><animate attributeName="opacity" from="1" to="0" dur="3s" repeatCount="indefinite" /></circle></marker></defs><path d="M37.75,9.25c0.25,1.62-0.25,2.75-1,4.25C35.63,15.74,28,25.25,24,29" class="grey" /><path d="M36.5,21.25c1.33-0.03,3.29-0.05,4.8-0.32c9.2-1.68,18.17-3.46,26.98-5.27c1.63-0.33,3.71-0.64,5.21-0.91" class="grey" /><path d="M31.25,32.75c1.5,0.38,3.3,0.26,4.96,0.08c7.67-0.83,19.54-2.58,29.14-4.39c1.94-0.37,3.64-0.41,4.91-0.45" class="grey" /><path d="M18.5,47c1.88,0.75,4,0.88,6.25,0.5c15.08-2.51,35-5.62,48.25-8c4.73-0.85,5.6,0.47,4.5,6.25c-4,21,0.71,40.32,11.5,50c7.25,6.5,6.5,0.75,6-5.25" class="grey" /><path d="M57,51.75c0.12,1.62-0.17,3.03-1,4.75C49.5,70,40.25,82.75,25.75,93.25" class="grey" /><path d="M30,63.75C41.5,68,54.5,78,62.25,90.5" class="grey" /><path d="M37.75,9.25c0.25,1.62-0.25,2.75-1,4.25C35.63,15.74,28,25.25,24,29" class="stroke" stroke-dasharray="150"><animate attributeName="stroke-dashoffset" from="150" to="0" dur="1.8s" begin="0.0s" fill="freeze" /></path><path d="M36.5,21.25c1.33-0.03,3.29-0.05,4.8-0.32c9.2-1.68,18.17-3.46,26.98-5.27c1.63-0.33,3.71-0.64,5.21-0.91" class="stroke" stroke-dasharray="150"><set attributeName="opacity" to="0" dur="1.0s" /><animate attributeName="stroke-dashoffset" from="150" to="0" dur="1.8s" begin="1.0s" fill="freeze" /></path><path d="M31.25,32.75c1.5,0.38,3.3,0.26,4.96,0.08c7.67-0.83,19.54-2.58,29.14-4.39c1.94-0.37,3.64-0.41,4.91-0.45" class="stroke" stroke-dasharray="150"><set attributeName="opacity" to="0" dur="2.0s" /><animate attributeName="stroke-dashoffset" from="150" to="0" dur="1.8s" begin="2.0s" fill="freeze" /></path><path d="M18.5,47c1.88,0.75,4,0.88,6.25,0.5c15.08-2.51,35-5.62,48.25-8c4.73-0.85,5.6,0.47,4.5,6.25c-4,21,0.71,40.32,11.5,50c7.25,6.5,6.5,0.75,6-5.25" class="stroke" stroke-dasharray="150"><set attributeName="opacity" to="0" dur="3.0s" /><animate attributeName="stroke-dashoffset" from="150" to="0" dur="1.8s" begin="3.0s" fill="freeze" /></path><path d="M57,51.75c0.12,1.62-0.17,3.03-1,4.75C49.5,70,40.25,82.75,25.75,93.25" class="stroke" stroke-dasharray="150"><set attributeName="opacity" to="0" dur="5.0s" /><animate attributeName="stroke-dashoffset" from="150" to="0" dur="1.8s" begin="5.0s" fill="freeze" /></path><path d="M30,63.75C41.5,68,54.5,78,62.25,90.5" class="stroke" stroke-dasharray="150"><set attributeName="opacity" to="0" dur="6.3s" /><animate attributeName="stroke-dashoffset" from="150" to="0" dur="1.8s" begin="6.3s" fill="freeze" /></path></svg>