<svg id="kvg-06c34" class="kanjivg" viewBox="0 0 106 126" width="106" height="126" xmlns="http://www.w3.org/2000/svg" xmlns:xlink="http://www.w3.org/1999/xlink" xml:space="preserve" version="1.1" baseProfile="full"><defs><style type="text/css">path.black{fill:none;stroke:black;stroke-width:5;stroke-linecap:round;stroke-linejoin:round;}path.grey{fill:none;stroke:#ddd;stroke-width:5;stroke-linecap:round;stroke-linejoin:round;}path.stroke{fill:none;stroke:black;stroke-width:5;stroke-linecap:round;stroke-linejoin:round;}text{font-size:16px;font-family:Segoe UI Symbol,Cambria Math,DejaVu Sans,Symbola,Quivira,STIX,Code2000;-webkit-touch-callout:none;cursor:pointer;-webkit-user-select:none;-khtml-user-select:none;-moz-user-select:none;-ms-user-select:none;user-select: none;}text:hover{color:#777;}#reset{font-weight:bold;}</style><marker id="markerStart" markerWidth="8" markerHeight="8" style="overflow:visible;"><circle cx="0" cy="0" r="1.5" style="stroke:none;fill:red;fill-opacity:0.5;"/></marker><marker id="markerEnd" style="overflow:visible;"><circle cx="0" cy="0" r="0.8" style="stroke:none;fill:blue;fill-opacity:0.5;"><animate attributeName="opacity" from="1" to="0" dur="3s" repeatCount="indefinite" /></circle></marker></defs><path d="M52.77,15.08c1.08,1.08,1.67,2.49,1.76,5.52c0.4,14.55-0.26,62.16-0.26,67.12c0,9.78-7.52,0.03-9.02-1.22" class="grey" /><path d="M17.5,45.75c1.75,0.62,3.73,0.43,5.25,0C25.88,44.88,36.09,41,38.59,40s4.47,1.24,3.75,3.5C39,54,28.25,69,19,74.75" class="grey" /><path d="M81.22,27.5c-0.22,1.25-0.72,2.25-1.52,2.97c-5.64,5.1-12.45,9.78-22.45,13.78" class="grey" /><path d="M57,46c8.82,10.73,19.23,21.46,28.42,27.42c2.16,1.4,4.52,3,7.08,3.58" class="grey" /><path d="M52.77,15.08c1.08,1.08,1.67,2.49,1.76,5.52c0.4,14.55-0.26,62.16-0.26,67.12c0,9.78-7.52,0.03-9.02-1.22" class="stroke" stroke-dasharray="150"><animate attributeName="stroke-dashoffset" from="150" to="0" dur="1.8s" begin="0.0s" fill="freeze" /></path><path d="M17.5,45.75c1.75,0.62,3.73,0.43,5.25,0C25.88,44.88,36.09,41,38.59,40s4.47,1.24,3.75,3.5C39,54,28.25,69,19,74.75" class="stroke" stroke-dasharray="150"><set attributeName="opacity" to="0" dur="1.7s" /><animate attributeName="stroke-dashoffset" from="150" to="0" dur="1.8s" begin="1.7s" fill="freeze" /></path><path d="M81.22,27.5c-0.22,1.25-0.72,2.25-1.52,2.97c-5.64,5.1-12.45,9.78-22.45,13.78" class="stroke" stroke-dasharray="150"><set attributeName="opacity" to="0" dur="3.2s" /><animate attributeName="stroke-dashoffset" from="150" to="0" dur="1.8s" begin="3.2s" fill="freeze" /></path><path d="M57,46c8.82,10.73,19.23,21.46,28.42,27.42c2.16,1.4,4.52,3,7.08,3.58" class="stroke" stroke-dasharray="150"><set attributeName="opacity" to="0" dur="4.2s" /><animate attributeName="stroke-dashoffset" from="150" to="0" dur="1.8s" begin="4.2s" fill="freeze" /></path></svg>