<svg id="kvg-0738b" class="kanjivg" viewBox="0 0 106 126" width="106" height="126" xmlns="http://www.w3.org/2000/svg" xmlns:xlink="http://www.w3.org/1999/xlink" xml:space="preserve" version="1.1" baseProfile="full"><defs><style type="text/css">path.black{fill:none;stroke:black;stroke-width:5;stroke-linecap:round;stroke-linejoin:round;}path.grey{fill:none;stroke:#ddd;stroke-width:5;stroke-linecap:round;stroke-linejoin:round;}path.stroke{fill:none;stroke:black;stroke-width:5;stroke-linecap:round;stroke-linejoin:round;}text{font-size:16px;font-family:Segoe UI Symbol,Cambria Math,DejaVu Sans,Symbola,Quivira,STIX,Code2000;-webkit-touch-callout:none;cursor:pointer;-webkit-user-select:none;-khtml-user-select:none;-moz-user-select:none;-ms-user-select:none;user-select: none;}text:hover{color:#777;}#reset{font-weight:bold;}</style><marker id="markerStart" markerWidth="8" markerHeight="8" style="overflow:visible;"><circle cx="0" cy="0" r="1.5" style="stroke:none;fill:red;fill-opacity:0.5;"/></marker><marker id="markerEnd" style="overflow:visible;"><circle cx="0" cy="0" r="0.8" style="stroke:none;fill:blue;fill-opacity:0.5;"><animate attributeName="opacity" from="1" to="0" dur="3s" repeatCount="indefinite" /></circle></marker></defs><path d="M29.5,21.22c2.7,0.62,5.55,0.08,8.24-0.28c10.59-1.42,22.63-2.81,33.26-3.79c3.01-0.27,6.3-0.55,9.25,0.35" class="grey" /><path d="M52.4,22c1.92,2.4,1.92,3.83,1.92,5.75c0,12.13-0.02,57.7-0.02,59.75" class="grey" /><path d="M29.25,55c2.62,0.49,5.24,0.3,7.87,0.08c10.32-0.87,22.57-2.65,34.75-3.65c2.95-0.24,5.81-0.27,8.76,0.07" class="grey" /><path d="M13.75,90.99c4.12,0.7,8.14,0.15,12.25-0.29c17.42-1.86,39.2-3.8,59.5-4.61c3.47-0.14,6.86-0.25,10.25,0.65" class="grey" /><path d="M29.5,21.22c2.7,0.62,5.55,0.08,8.24-0.28c10.59-1.42,22.63-2.81,33.26-3.79c3.01-0.27,6.3-0.55,9.25,0.35" class="stroke" stroke-dasharray="150"><animate attributeName="stroke-dashoffset" from="150" to="0" dur="1.8s" begin="0.0s" fill="freeze" /></path><path d="M52.4,22c1.92,2.4,1.92,3.83,1.92,5.75c0,12.13-0.02,57.7-0.02,59.75" class="stroke" stroke-dasharray="150"><set attributeName="opacity" to="0" dur="1.3s" /><animate attributeName="stroke-dashoffset" from="150" to="0" dur="1.8s" begin="1.3s" fill="freeze" /></path><path d="M29.25,55c2.62,0.49,5.24,0.3,7.87,0.08c10.32-0.87,22.57-2.65,34.75-3.65c2.95-0.24,5.81-0.27,8.76,0.07" class="stroke" stroke-dasharray="150"><set attributeName="opacity" to="0" dur="2.8s" /><animate attributeName="stroke-dashoffset" from="150" to="0" dur="1.8s" begin="2.8s" fill="freeze" /></path><path d="M13.75,90.99c4.12,0.7,8.14,0.15,12.25-0.29c17.42-1.86,39.2-3.8,59.5-4.61c3.47-0.14,6.86-0.25,10.25,0.65" class="stroke" stroke-dasharray="150"><set attributeName="opacity" to="0" dur="4.1s" /><animate attributeName="stroke-dashoffset" from="150" to="0" dur="1.8s" begin="4.1s" fill="freeze" /></path></svg>