<svg id="kvg-07389" class="kanjivg" viewBox="0 0 106 126" width="106" height="106" xmlns="http://www.w3.org/2000/svg" xmlns:xlink="http://www.w3.org/1999/xlink" xml:space="preserve" version="1.1" baseProfile="full"><defs><style type="text/css">path.black{fill:none;stroke:black;stroke-width:5;stroke-linecap:round;stroke-linejoin:round;}path.grey{fill:none;stroke:#ddd;stroke-width:5;stroke-linecap:round;stroke-linejoin:round;}path.stroke{fill:none;stroke:black;stroke-width:5;stroke-linecap:round;stroke-linejoin:round;}text{font-size:16px;font-family:Segoe UI Symbol,Cambria Math,DejaVu Sans,Symbola,Quivira,STIX,Code2000;-webkit-touch-callout:none;cursor:pointer;-webkit-user-select:none;-khtml-user-select:none;-moz-user-select:none;-ms-user-select:none;user-select: none;}text:hover{color:#777;}#reset{font-weight:bold;}</style><marker id="markerStart" markerWidth="8" markerHeight="8" style="overflow:visible;"><circle cx="0" cy="0" r="1.5" style="stroke:none;fill:red;fill-opacity:0.5;"/></marker><marker id="markerEnd" style="overflow:visible;"><circle cx="0" cy="0" r="0.8" style="stroke:none;fill:blue;fill-opacity:0.5;"><animate attributeName="opacity" from="1" to="0" dur="3s" repeatCount="indefinite" /></circle></marker></defs><path d="M28.5,23.09c2.95,0.98,5.91,0.53,8.9,0.08c10.77-1.63,21.21-3.33,34.11-4.7c2.78-0.3,5.28-0.62,7.99,0.27" class="grey" /><path d="M52,24.6c1,1.21,2,2.4,2,4.41c0,5.38,0.25,50.24,0.25,57.94" class="grey" /><path d="M28.25,56.12c2.87,0.9,5.86,0.52,8.78,0.16c9.8-1.18,23.9-3.6,33.1-4.57c2.62-0.28,5.52-0.7,8.11,0.01" class="grey" /><path d="M16,90.01c3.95,1.17,7.96,0.72,11.99,0.37c21.05-1.84,37.97-4.1,56.63-4.43c3.9-0.07,8.1-0.22,11.88,0.96" class="grey" /><path d="M72,64c5.43,2.74,10.09,8.57,11.25,12" class="grey" /><path d="M28.5,23.09c2.95,0.98,5.91,0.53,8.9,0.08c10.77-1.63,21.21-3.33,34.11-4.7c2.78-0.3,5.28-0.62,7.99,0.27" class="stroke" stroke-dasharray="150"><animate attributeName="stroke-dashoffset" from="150" to="0" dur="1.8s" begin="0.0s" fill="freeze" /></path><path d="M52,24.6c1,1.21,2,2.4,2,4.41c0,5.38,0.25,50.24,0.25,57.94" class="stroke" stroke-dasharray="150"><set attributeName="opacity" to="0" dur="1.3s" /><animate attributeName="stroke-dashoffset" from="150" to="0" dur="1.8s" begin="1.3s" fill="freeze" /></path><path d="M28.25,56.12c2.87,0.9,5.86,0.52,8.78,0.16c9.8-1.18,23.9-3.6,33.1-4.57c2.62-0.28,5.52-0.7,8.11,0.01" class="stroke" stroke-dasharray="150"><set attributeName="opacity" to="0" dur="2.8s" /><animate attributeName="stroke-dashoffset" from="150" to="0" dur="1.8s" begin="2.8s" fill="freeze" /></path><path d="M16,90.01c3.95,1.17,7.96,0.72,11.99,0.37c21.05-1.84,37.97-4.1,56.63-4.43c3.9-0.07,8.1-0.22,11.88,0.96" class="stroke" stroke-dasharray="150"><set attributeName="opacity" to="0" dur="4.1s" /><animate attributeName="stroke-dashoffset" from="150" to="0" dur="1.8s" begin="4.1s" fill="freeze" /></path><path d="M72,64c5.43,2.74,10.09,8.57,11.25,12" class="stroke" stroke-dasharray="150"><set attributeName="opacity" to="0" dur="5.8s" /><animate attributeName="stroke-dashoffset" from="150" to="0" dur="1.8s" begin="5.8s" fill="freeze" /></path></svg>