<svg id="kvg-0738b-VtLst" class="kanjivg" viewBox="0 0 106 126" width="106" height="126" xmlns="http://www.w3.org/2000/svg" xmlns:xlink="http://www.w3.org/1999/xlink" xml:space="preserve" version="1.1" baseProfile="full"><defs><style type="text/css">path.black{fill:none;stroke:black;stroke-width:5;stroke-linecap:round;stroke-linejoin:round;}path.grey{fill:none;stroke:#ddd;stroke-width:5;stroke-linecap:round;stroke-linejoin:round;}path.stroke{fill:none;stroke:black;stroke-width:5;stroke-linecap:round;stroke-linejoin:round;}text{font-size:16px;font-family:Segoe UI Symbol,Cambria Math,DejaVu Sans,Symbola,Quivira,STIX,Code2000;-webkit-touch-callout:none;cursor:pointer;-webkit-user-select:none;-khtml-user-select:none;-moz-user-select:none;-ms-user-select:none;user-select: none;}text:hover{color:#777;}#reset{font-weight:bold;}</style><marker id="markerStart" markerWidth="8" markerHeight="8" style="overflow:visible;"><circle cx="0" cy="0" r="1.5" style="stroke:none;fill:red;fill-opacity:0.5;"/></marker><marker id="markerEnd" style="overflow:visible;"><circle cx="0" cy="0" r="0.8" style="stroke:none;fill:blue;fill-opacity:0.5;"><animate attributeName="opacity" from="1" to="0" dur="3s" repeatCount="indefinite" /></circle></marker></defs><path d="M29.5,21.22c0.95,0.52,4.04,0.15,5,0.03C45,20,65.25,17.5,76,16.96c1.46-0.07,2.79,0.1,4,0.54" class="grey" /><path d="M29.25,55c0.94,0.57,4.04,0.35,5,0.25c10-1,27.75-3,39.5-4.02c1.17-0.1,3.75-0.23,5.5,0.27" class="grey" /><path d="M13.75,91.49c0.92,0.32,5.7,0.17,7.25,0.01c21.75-2.25,44.5-5,67.75-5.78c2.5-0.08,5.5,0.53,6.75,1.03" class="grey" /><path d="M52.4,22c1.92,2.4,1.92,3.83,1.92,5.75c0,13.41-0.02,38.75-0.02,60.25" class="grey" /><path d="M29.5,21.22c0.95,0.52,4.04,0.15,5,0.03C45,20,65.25,17.5,76,16.96c1.46-0.07,2.79,0.1,4,0.54" class="stroke" stroke-dasharray="150"><animate attributeName="stroke-dashoffset" from="150" to="0" dur="1.8s" begin="0.0s" fill="freeze" /></path><path d="M29.25,55c0.94,0.57,4.04,0.35,5,0.25c10-1,27.75-3,39.5-4.02c1.17-0.1,3.75-0.23,5.5,0.27" class="stroke" stroke-dasharray="150"><set attributeName="opacity" to="0" dur="1.3s" /><animate attributeName="stroke-dashoffset" from="150" to="0" dur="1.8s" begin="1.3s" fill="freeze" /></path><path d="M13.75,91.49c0.92,0.32,5.7,0.17,7.25,0.01c21.75-2.25,44.5-5,67.75-5.78c2.5-0.08,5.5,0.53,6.75,1.03" class="stroke" stroke-dasharray="150"><set attributeName="opacity" to="0" dur="2.6s" /><animate attributeName="stroke-dashoffset" from="150" to="0" dur="1.8s" begin="2.6s" fill="freeze" /></path><path d="M52.4,22c1.92,2.4,1.92,3.83,1.92,5.75c0,13.41-0.02,38.75-0.02,60.25" class="stroke" stroke-dasharray="150"><set attributeName="opacity" to="0" dur="4.3s" /><animate attributeName="stroke-dashoffset" from="150" to="0" dur="1.8s" begin="4.3s" fill="freeze" /></path></svg>