<svg id="kvg-07537" class="kanjivg" viewBox="0 0 106 126" width="106" height="126" xmlns="http://www.w3.org/2000/svg" xmlns:xlink="http://www.w3.org/1999/xlink" xml:space="preserve" version="1.1" baseProfile="full"><defs><style type="text/css">path.black{fill:none;stroke:black;stroke-width:5;stroke-linecap:round;stroke-linejoin:round;}path.grey{fill:none;stroke:#ddd;stroke-width:5;stroke-linecap:round;stroke-linejoin:round;}path.stroke{fill:none;stroke:black;stroke-width:5;stroke-linecap:round;stroke-linejoin:round;}text{font-size:16px;font-family:Segoe UI Symbol,Cambria Math,DejaVu Sans,Symbola,Quivira,STIX,Code2000;-webkit-touch-callout:none;cursor:pointer;-webkit-user-select:none;-khtml-user-select:none;-moz-user-select:none;-ms-user-select:none;user-select: none;}text:hover{color:#777;}#reset{font-weight:bold;}</style><marker id="markerStart" markerWidth="8" markerHeight="8" style="overflow:visible;"><circle cx="0" cy="0" r="1.5" style="stroke:none;fill:red;fill-opacity:0.5;"/></marker><marker id="markerEnd" style="overflow:visible;"><circle cx="0" cy="0" r="0.8" style="stroke:none;fill:blue;fill-opacity:0.5;"><animate attributeName="opacity" from="1" to="0" dur="3s" repeatCount="indefinite" /></circle></marker></defs><path d="M26.5,14.25c0.88,0.88,1.56,1.99,1.73,2.98c0.84,4.77,2.47,16.75,3.34,26.04c0.18,1.95,0.37,2.37,0.55,4.23" class="grey" /><path d="M29,15.95c11.38-1.45,41.21-4.57,49.56-4.71c3.9-0.07,5.44,1.51,4.91,5.29c-0.45,3.21-3.15,15.19-4.94,22.23c-0.41,1.62-0.79,2.99-1.4,4.19" class="grey" /><path d="M54,15.97c0.77,0.77,1,1.91,1,2.79c0.02,6.32,0.2,22,0.2,22.75" class="grey" /><path d="M30.98,30.82C45,29.12,57.12,28,80.53,26.34" class="grey" /><path d="M32.87,44.74c11.38-1.24,28.38-2.99,44.14-3.7" class="grey" /><path d="M19.98,60.98c2.15,0.67,4.58,0.78,6.77,0.53c13.46-1.53,42.24-5.66,51.88-6.86c5.26-0.66,6.86,1.04,5.72,6.27c-1.92,8.83-9,27.39-15.66,33.19c-5.11,4.45-7.44,2.14-9.69-0.86" class="grey" /><path d="M53.22,46.43c0.28,1.32,0.29,3.04-0.2,4.57C49.12,63.12,38,81.25,17.14,92.06" class="grey" /><path d="M26.5,14.25c0.88,0.88,1.56,1.99,1.73,2.98c0.84,4.77,2.47,16.75,3.34,26.04c0.18,1.95,0.37,2.37,0.55,4.23" class="stroke" stroke-dasharray="150"><animate attributeName="stroke-dashoffset" from="150" to="0" dur="1.8s" begin="0.0s" fill="freeze" /></path><path d="M29,15.95c11.38-1.45,41.21-4.57,49.56-4.71c3.9-0.07,5.44,1.51,4.91,5.29c-0.45,3.21-3.15,15.19-4.94,22.23c-0.41,1.62-0.79,2.99-1.4,4.19" class="stroke" stroke-dasharray="150"><set attributeName="opacity" to="0" dur="1.0s" /><animate attributeName="stroke-dashoffset" from="150" to="0" dur="1.8s" begin="1.0s" fill="freeze" /></path><path d="M54,15.97c0.77,0.77,1,1.91,1,2.79c0.02,6.32,0.2,22,0.2,22.75" class="stroke" stroke-dasharray="150"><set attributeName="opacity" to="0" dur="2.7s" /><animate attributeName="stroke-dashoffset" from="150" to="0" dur="1.8s" begin="2.7s" fill="freeze" /></path><path d="M30.98,30.82C45,29.12,57.12,28,80.53,26.34" class="stroke" stroke-dasharray="150"><set attributeName="opacity" to="0" dur="3.7s" /><animate attributeName="stroke-dashoffset" from="150" to="0" dur="1.8s" begin="3.7s" fill="freeze" /></path><path d="M32.87,44.74c11.38-1.24,28.38-2.99,44.14-3.7" class="stroke" stroke-dasharray="150"><set attributeName="opacity" to="0" dur="4.9s" /><animate attributeName="stroke-dashoffset" from="150" to="0" dur="1.8s" begin="4.9s" fill="freeze" /></path><path d="M19.98,60.98c2.15,0.67,4.58,0.78,6.77,0.53c13.46-1.53,42.24-5.66,51.88-6.86c5.26-0.66,6.86,1.04,5.72,6.27c-1.92,8.83-9,27.39-15.66,33.19c-5.11,4.45-7.44,2.14-9.69-0.86" class="stroke" stroke-dasharray="150"><set attributeName="opacity" to="0" dur="6.0s" /><animate attributeName="stroke-dashoffset" from="150" to="0" dur="1.8s" begin="6.0s" fill="freeze" /></path><path d="M53.22,46.43c0.28,1.32,0.29,3.04-0.2,4.57C49.12,63.12,38,81.25,17.14,92.06" class="stroke" stroke-dasharray="150"><set attributeName="opacity" to="0" dur="8.0s" /><animate attributeName="stroke-dashoffset" from="150" to="0" dur="1.8s" begin="8.0s" fill="freeze" /></path></svg>