<svg id="kvg-07537-Kaisho" class="kanjivg" viewBox="0 0 106 126" width="106" height="126" xmlns="http://www.w3.org/2000/svg" xmlns:xlink="http://www.w3.org/1999/xlink" xml:space="preserve" version="1.1" baseProfile="full"><defs><style type="text/css">path.black{fill:none;stroke:black;stroke-width:5;stroke-linecap:round;stroke-linejoin:round;}path.grey{fill:none;stroke:#ddd;stroke-width:5;stroke-linecap:round;stroke-linejoin:round;}path.stroke{fill:none;stroke:black;stroke-width:5;stroke-linecap:round;stroke-linejoin:round;}text{font-size:16px;font-family:Segoe UI Symbol,Cambria Math,DejaVu Sans,Symbola,Quivira,STIX,Code2000;-webkit-touch-callout:none;cursor:pointer;-webkit-user-select:none;-khtml-user-select:none;-moz-user-select:none;-ms-user-select:none;user-select: none;}text:hover{color:#777;}#reset{font-weight:bold;}</style><marker id="markerStart" markerWidth="8" markerHeight="8" style="overflow:visible;"><circle cx="0" cy="0" r="1.5" style="stroke:none;fill:red;fill-opacity:0.5;"/></marker><marker id="markerEnd" style="overflow:visible;"><circle cx="0" cy="0" r="0.8" style="stroke:none;fill:blue;fill-opacity:0.5;"><animate attributeName="opacity" from="1" to="0" dur="3s" repeatCount="indefinite" /></circle></marker></defs><path d="M27.25,14c0.75,1,1.06,2.24,1.23,3.23c1.02,5.77,2.09,18.79,3.14,29.52" class="grey" /><path d="M29.25,15.45c13.82-1.04,38.88-3.55,48.31-3.71c3.9-0.07,5.87,1.48,5.66,3.04C82.44,20.49,80,32,77.63,41.7" class="grey" /><path d="M53.5,15.72c0.5,0.78,1,1.66,1,2.54c0.03,8.9,0.2,20.68,0.2,23.25" class="grey" /><path d="M30.98,30.82c10.81-0.68,21.62-2.31,32.39-3.48c1.29-0.14,2.55-0.27,3.76-0.4" class="grey" /><path d="M32.37,45.24C45.75,43.25,62,41.5,77.76,40.78" class="grey" /><path d="M20.48,61.48c1.44,0.45,3.24,0.35,4.5,0.24c12.02-0.98,49.84-6.59,55.52-7.05c3.69-0.3,4.72,1.35,4.51,3.45c-0.54,5.55-11.82,31.28-16.82,35.98c-4.94,4.64-6.44,2.64-8.69-0.36" class="grey" /><path d="M53.47,46.43c0.1,1.07,0.25,2.78-0.2,4.32C49.9,62.13,39.5,80.33,17.39,92.06" class="grey" /><path d="M27.25,14c0.75,1,1.06,2.24,1.23,3.23c1.02,5.77,2.09,18.79,3.14,29.52" class="stroke" stroke-dasharray="150"><animate attributeName="stroke-dashoffset" from="150" to="0" dur="1.8s" begin="0.0s" fill="freeze" /></path><path d="M29.25,15.45c13.82-1.04,38.88-3.55,48.31-3.71c3.9-0.07,5.87,1.48,5.66,3.04C82.44,20.49,80,32,77.63,41.7" class="stroke" stroke-dasharray="150"><set attributeName="opacity" to="0" dur="1.0s" /><animate attributeName="stroke-dashoffset" from="150" to="0" dur="1.8s" begin="1.0s" fill="freeze" /></path><path d="M53.5,15.72c0.5,0.78,1,1.66,1,2.54c0.03,8.9,0.2,20.68,0.2,23.25" class="stroke" stroke-dasharray="150"><set attributeName="opacity" to="0" dur="2.7s" /><animate attributeName="stroke-dashoffset" from="150" to="0" dur="1.8s" begin="2.7s" fill="freeze" /></path><path d="M30.98,30.82c10.81-0.68,21.62-2.31,32.39-3.48c1.29-0.14,2.55-0.27,3.76-0.4" class="stroke" stroke-dasharray="150"><set attributeName="opacity" to="0" dur="3.7s" /><animate attributeName="stroke-dashoffset" from="150" to="0" dur="1.8s" begin="3.7s" fill="freeze" /></path><path d="M32.37,45.24C45.75,43.25,62,41.5,77.76,40.78" class="stroke" stroke-dasharray="150"><set attributeName="opacity" to="0" dur="4.7s" /><animate attributeName="stroke-dashoffset" from="150" to="0" dur="1.8s" begin="4.7s" fill="freeze" /></path><path d="M20.48,61.48c1.44,0.45,3.24,0.35,4.5,0.24c12.02-0.98,49.84-6.59,55.52-7.05c3.69-0.3,4.72,1.35,4.51,3.45c-0.54,5.55-11.82,31.28-16.82,35.98c-4.94,4.64-6.44,2.64-8.69-0.36" class="stroke" stroke-dasharray="150"><set attributeName="opacity" to="0" dur="5.9s" /><animate attributeName="stroke-dashoffset" from="150" to="0" dur="1.8s" begin="5.9s" fill="freeze" /></path><path d="M53.47,46.43c0.1,1.07,0.25,2.78-0.2,4.32C49.9,62.13,39.5,80.33,17.39,92.06" class="stroke" stroke-dasharray="150"><set attributeName="opacity" to="0" dur="7.9s" /><animate attributeName="stroke-dashoffset" from="150" to="0" dur="1.8s" begin="7.9s" fill="freeze" /></path></svg>