<svg id="kvg-0767e" class="kanjivg" viewBox="0 0 106 126" width="106" height="106" xmlns="http://www.w3.org/2000/svg" xmlns:xlink="http://www.w3.org/1999/xlink" xml:space="preserve" version="1.1" baseProfile="full"><defs><style type="text/css">path.black{fill:none;stroke:black;stroke-width:5;stroke-linecap:round;stroke-linejoin:round;}path.grey{fill:none;stroke:#ddd;stroke-width:5;stroke-linecap:round;stroke-linejoin:round;}path.stroke{fill:none;stroke:black;stroke-width:5;stroke-linecap:round;stroke-linejoin:round;}text{font-size:16px;font-family:Segoe UI Symbol,Cambria Math,DejaVu Sans,Symbola,Quivira,STIX,Code2000;-webkit-touch-callout:none;cursor:pointer;-webkit-user-select:none;-khtml-user-select:none;-moz-user-select:none;-ms-user-select:none;user-select: none;}text:hover{color:#777;}#reset{font-weight:bold;}</style><marker id="markerStart" markerWidth="8" markerHeight="8" style="overflow:visible;"><circle cx="0" cy="0" r="1.5" style="stroke:none;fill:red;fill-opacity:0.5;"/></marker><marker id="markerEnd" style="overflow:visible;"><circle cx="0" cy="0" r="0.8" style="stroke:none;fill:blue;fill-opacity:0.5;"><animate attributeName="opacity" from="1" to="0" dur="3s" repeatCount="indefinite" /></circle></marker></defs><path d="M16.13,20.23c2.22,0.54,6.29,0.75,8.51,0.54c21.49-2.02,41.86-4.39,59.22-4.98c3.7-0.12,5.92,0.26,7.77,0.53" class="grey" /><path d="M52.31,21.75c0.19,1.38,0.19,2.5-0.38,3.93c-1.65,4.19-4.81,9.19-8.66,14.68" class="grey" /><path d="M30.75,42.82c0.96,0.96,1.64,2.45,1.72,4.19c0.41,8.74,0.96,32.92,1.18,43.74c0.05,2.48,0.08,4.12,0.1,4.5" class="grey" /><path d="M33.55,44.8c10.35-1.37,35.73-4.38,38.78-4.59c3.15-0.22,4.92,1.17,4.92,4.24c0,4.48-0.68,32-0.92,44.06c-0.06,3.02-0.1,5.05-0.11,5.48" class="grey" /><path d="M34.14,66.95c10.24-1.08,32.11-3.2,41.44-3.57" class="grey" /><path d="M34.97,92.87c8.78-0.87,30.53-2.12,40.06-2.39" class="grey" /><path d="M16.13,20.23c2.22,0.54,6.29,0.75,8.51,0.54c21.49-2.02,41.86-4.39,59.22-4.98c3.7-0.12,5.92,0.26,7.77,0.53" class="stroke" stroke-dasharray="150"><animate attributeName="stroke-dashoffset" from="150" to="0" dur="1.8s" begin="0.0s" fill="freeze" /></path><path d="M52.31,21.75c0.19,1.38,0.19,2.5-0.38,3.93c-1.65,4.19-4.81,9.19-8.66,14.68" class="stroke" stroke-dasharray="150"><set attributeName="opacity" to="0" dur="1.7s" /><animate attributeName="stroke-dashoffset" from="150" to="0" dur="1.8s" begin="1.7s" fill="freeze" /></path><path d="M30.75,42.82c0.96,0.96,1.64,2.45,1.72,4.19c0.41,8.74,0.96,32.92,1.18,43.74c0.05,2.48,0.08,4.12,0.1,4.5" class="stroke" stroke-dasharray="150"><set attributeName="opacity" to="0" dur="2.7s" /><animate attributeName="stroke-dashoffset" from="150" to="0" dur="1.8s" begin="2.7s" fill="freeze" /></path><path d="M33.55,44.8c10.35-1.37,35.73-4.38,38.78-4.59c3.15-0.22,4.92,1.17,4.92,4.24c0,4.48-0.68,32-0.92,44.06c-0.06,3.02-0.1,5.05-0.11,5.48" class="stroke" stroke-dasharray="150"><set attributeName="opacity" to="0" dur="4.0s" /><animate attributeName="stroke-dashoffset" from="150" to="0" dur="1.8s" begin="4.0s" fill="freeze" /></path><path d="M34.14,66.95c10.24-1.08,32.11-3.2,41.44-3.57" class="stroke" stroke-dasharray="150"><set attributeName="opacity" to="0" dur="5.8s" /><animate attributeName="stroke-dashoffset" from="150" to="0" dur="1.8s" begin="5.8s" fill="freeze" /></path><path d="M34.97,92.87c8.78-0.87,30.53-2.12,40.06-2.39" class="stroke" stroke-dasharray="150"><set attributeName="opacity" to="0" dur="6.9s" /><animate attributeName="stroke-dashoffset" from="150" to="0" dur="1.8s" begin="6.9s" fill="freeze" /></path></svg>