<svg id="kvg-0767d" class="kanjivg" viewBox="0 0 106 126" width="106" height="126" xmlns="http://www.w3.org/2000/svg" xmlns:xlink="http://www.w3.org/1999/xlink" xml:space="preserve" version="1.1" baseProfile="full"><defs><style type="text/css">path.black{fill:none;stroke:black;stroke-width:5;stroke-linecap:round;stroke-linejoin:round;}path.grey{fill:none;stroke:#ddd;stroke-width:5;stroke-linecap:round;stroke-linejoin:round;}path.stroke{fill:none;stroke:black;stroke-width:5;stroke-linecap:round;stroke-linejoin:round;}text{font-size:16px;font-family:Segoe UI Symbol,Cambria Math,DejaVu Sans,Symbola,Quivira,STIX,Code2000;-webkit-touch-callout:none;cursor:pointer;-webkit-user-select:none;-khtml-user-select:none;-moz-user-select:none;-ms-user-select:none;user-select: none;}text:hover{color:#777;}#reset{font-weight:bold;}</style><marker id="markerStart" markerWidth="8" markerHeight="8" style="overflow:visible;"><circle cx="0" cy="0" r="1.5" style="stroke:none;fill:red;fill-opacity:0.5;"/></marker><marker id="markerEnd" style="overflow:visible;"><circle cx="0" cy="0" r="0.8" style="stroke:none;fill:blue;fill-opacity:0.5;"><animate attributeName="opacity" from="1" to="0" dur="3s" repeatCount="indefinite" /></circle></marker></defs><path d="M55,13c0.38,1.5,0,3.25-0.57,4.29C51.32,22.93,46,31.12,36.81,40.22" class="grey" /><path d="M25.5,40.47c1.14,1.14,1.63,2.81,1.63,4.63c0,1.55,0.95,32.47,1.32,47.14c0.06,2.58,0.13,4.66,0.18,6" class="grey" /><path d="M28.27,43.98c13.98-1.73,39.08-4.47,49.67-5.48c5.19-0.5,7.37,0.76,7.06,5.38c-0.62,9.12-2.09,30.3-3.29,46.88c-0.17,2.42-0.33,4.65-0.46,6.57" class="grey" /><path d="M29.13,67.44C42.25,66,72.38,63.62,82.57,63.4" class="grey" /><path d="M29.69,94.49C43,93.75,66.62,92,80.19,91.41" class="grey" /><path d="M55,13c0.38,1.5,0,3.25-0.57,4.29C51.32,22.93,46,31.12,36.81,40.22" class="stroke" stroke-dasharray="150"><animate attributeName="stroke-dashoffset" from="150" to="0" dur="1.8s" begin="0.0s" fill="freeze" /></path><path d="M25.5,40.47c1.14,1.14,1.63,2.81,1.63,4.63c0,1.55,0.95,32.47,1.32,47.14c0.06,2.58,0.13,4.66,0.18,6" class="stroke" stroke-dasharray="150"><set attributeName="opacity" to="0" dur="1.0s" /><animate attributeName="stroke-dashoffset" from="150" to="0" dur="1.8s" begin="1.0s" fill="freeze" /></path><path d="M28.27,43.98c13.98-1.73,39.08-4.47,49.67-5.48c5.19-0.5,7.37,0.76,7.06,5.38c-0.62,9.12-2.09,30.3-3.29,46.88c-0.17,2.42-0.33,4.65-0.46,6.57" class="stroke" stroke-dasharray="150"><set attributeName="opacity" to="0" dur="2.4s" /><animate attributeName="stroke-dashoffset" from="150" to="0" dur="1.8s" begin="2.4s" fill="freeze" /></path><path d="M29.13,67.44C42.25,66,72.38,63.62,82.57,63.4" class="stroke" stroke-dasharray="150"><set attributeName="opacity" to="0" dur="4.4s" /><animate attributeName="stroke-dashoffset" from="150" to="0" dur="1.8s" begin="4.4s" fill="freeze" /></path><path d="M29.69,94.49C43,93.75,66.62,92,80.19,91.41" class="stroke" stroke-dasharray="150"><set attributeName="opacity" to="0" dur="5.7s" /><animate attributeName="stroke-dashoffset" from="150" to="0" dur="1.8s" begin="5.7s" fill="freeze" /></path></svg>