<svg id="kvg-0767e-Kaisho" class="kanjivg" viewBox="0 0 106 126" width="106" height="126" xmlns="http://www.w3.org/2000/svg" xmlns:xlink="http://www.w3.org/1999/xlink" xml:space="preserve" version="1.1" baseProfile="full"><defs><style type="text/css">path.black{fill:none;stroke:black;stroke-width:5;stroke-linecap:round;stroke-linejoin:round;}path.grey{fill:none;stroke:#ddd;stroke-width:5;stroke-linecap:round;stroke-linejoin:round;}path.stroke{fill:none;stroke:black;stroke-width:5;stroke-linecap:round;stroke-linejoin:round;}text{font-size:16px;font-family:Segoe UI Symbol,Cambria Math,DejaVu Sans,Symbola,Quivira,STIX,Code2000;-webkit-touch-callout:none;cursor:pointer;-webkit-user-select:none;-khtml-user-select:none;-moz-user-select:none;-ms-user-select:none;user-select: none;}text:hover{color:#777;}#reset{font-weight:bold;}</style><marker id="markerStart" markerWidth="8" markerHeight="8" style="overflow:visible;"><circle cx="0" cy="0" r="1.5" style="stroke:none;fill:red;fill-opacity:0.5;"/></marker><marker id="markerEnd" style="overflow:visible;"><circle cx="0" cy="0" r="0.8" style="stroke:none;fill:blue;fill-opacity:0.5;"><animate attributeName="opacity" from="1" to="0" dur="3s" repeatCount="indefinite" /></circle></marker></defs><path d="M16.63,20.73c1.39,0.54,3.93,0.69,5.32,0.54c16.3-1.77,44.8-4.77,64.07-5.23c2.31-0.06,3.7,0.26,4.86,0.53" class="grey" /><path d="M52.06,21.25c0.4,0.7,0.47,1.57,0.37,2.18c-0.57,3.63-5.46,12.31-9.91,17.18" class="grey" /><path d="M30.25,42.32c0.73,1.3,1.26,1.96,1.47,3.69C33,56.5,33.2,86.7,33.5,95.25" class="grey" /><path d="M32.16,45.39c4.14-0.22,36.64-5.68,40.42-5.94c3.15-0.22,5.17,1.45,4.92,2.74c-0.49,2.6-1.14,37.44-1.53,51.29" class="grey" /><path d="M33.89,66.7c6.7,0,13.56-0.76,20.19-1.54c2.18-0.25,4.38-0.51,6.48-0.75" class="grey" /><path d="M34.72,92.87c8.28,0,28.34-2.64,39.06-2.64" class="grey" /><path d="M16.63,20.73c1.39,0.54,3.93,0.69,5.32,0.54c16.3-1.77,44.8-4.77,64.07-5.23c2.31-0.06,3.7,0.26,4.86,0.53" class="stroke" stroke-dasharray="150"><animate attributeName="stroke-dashoffset" from="150" to="0" dur="1.8s" begin="0.0s" fill="freeze" /></path><path d="M52.06,21.25c0.4,0.7,0.47,1.57,0.37,2.18c-0.57,3.63-5.46,12.31-9.91,17.18" class="stroke" stroke-dasharray="150"><set attributeName="opacity" to="0" dur="1.7s" /><animate attributeName="stroke-dashoffset" from="150" to="0" dur="1.8s" begin="1.7s" fill="freeze" /></path><path d="M30.25,42.32c0.73,1.3,1.26,1.96,1.47,3.69C33,56.5,33.2,86.7,33.5,95.25" class="stroke" stroke-dasharray="150"><set attributeName="opacity" to="0" dur="2.7s" /><animate attributeName="stroke-dashoffset" from="150" to="0" dur="1.8s" begin="2.7s" fill="freeze" /></path><path d="M32.16,45.39c4.14-0.22,36.64-5.68,40.42-5.94c3.15-0.22,5.17,1.45,4.92,2.74c-0.49,2.6-1.14,37.44-1.53,51.29" class="stroke" stroke-dasharray="150"><set attributeName="opacity" to="0" dur="4.0s" /><animate attributeName="stroke-dashoffset" from="150" to="0" dur="1.8s" begin="4.0s" fill="freeze" /></path><path d="M33.89,66.7c6.7,0,13.56-0.76,20.19-1.54c2.18-0.25,4.38-0.51,6.48-0.75" class="stroke" stroke-dasharray="150"><set attributeName="opacity" to="0" dur="5.8s" /><animate attributeName="stroke-dashoffset" from="150" to="0" dur="1.8s" begin="5.8s" fill="freeze" /></path><path d="M34.72,92.87c8.28,0,28.34-2.64,39.06-2.64" class="stroke" stroke-dasharray="150"><set attributeName="opacity" to="0" dur="6.8s" /><animate attributeName="stroke-dashoffset" from="150" to="0" dur="1.8s" begin="6.8s" fill="freeze" /></path></svg>