<svg id="kvg-077f3" class="kanjivg" viewBox="0 0 106 126" width="106" height="126" xmlns="http://www.w3.org/2000/svg" xmlns:xlink="http://www.w3.org/1999/xlink" xml:space="preserve" version="1.1" baseProfile="full"><defs><style type="text/css">path.black{fill:none;stroke:black;stroke-width:5;stroke-linecap:round;stroke-linejoin:round;}path.grey{fill:none;stroke:#ddd;stroke-width:5;stroke-linecap:round;stroke-linejoin:round;}path.stroke{fill:none;stroke:black;stroke-width:5;stroke-linecap:round;stroke-linejoin:round;}text{font-size:16px;font-family:Segoe UI Symbol,Cambria Math,DejaVu Sans,Symbola,Quivira,STIX,Code2000;-webkit-touch-callout:none;cursor:pointer;-webkit-user-select:none;-khtml-user-select:none;-moz-user-select:none;-ms-user-select:none;user-select: none;}text:hover{color:#777;}#reset{font-weight:bold;}</style><marker id="markerStart" markerWidth="8" markerHeight="8" style="overflow:visible;"><circle cx="0" cy="0" r="1.5" style="stroke:none;fill:red;fill-opacity:0.5;"/></marker><marker id="markerEnd" style="overflow:visible;"><circle cx="0" cy="0" r="0.8" style="stroke:none;fill:blue;fill-opacity:0.5;"><animate attributeName="opacity" from="1" to="0" dur="3s" repeatCount="indefinite" /></circle></marker></defs><path d="M19.88,26.65c3.2,0.73,6.6,0.59,8.91,0.4c18.28-1.55,33.06-3.55,52.96-4.66c3.87-0.22,6.42-0.02,8.12,0.39" class="grey" /><path d="M42.42,29.43c0.33,1.45,0.22,2.69-0.15,4.17C39.38,45,30.75,61.62,15,73.5" class="grey" /><path d="M34.5,56.24c0.71,0.64,1.62,2.13,1.75,2.97c0.87,5.49,1.95,14.48,3.14,24.27c0.2,1.68,0.41,3.36,0.6,5.02" class="grey" /><path d="M35,56.3c12.06-1.23,38.12-3.55,45.33-4.31c3.05-0.32,4.48,2.33,3.94,4.1c-1.56,5.08-3.24,16.32-4.5,24.38" class="grey" /><path d="M40.83,84.37c7.19-0.52,22.62-1.77,34.17-2.38c2.39-0.13,4.6-0.21,6.5-0.24" class="grey" /><path d="M19.88,26.65c3.2,0.73,6.6,0.59,8.91,0.4c18.28-1.55,33.06-3.55,52.96-4.66c3.87-0.22,6.42-0.02,8.12,0.39" class="stroke" stroke-dasharray="150"><animate attributeName="stroke-dashoffset" from="150" to="0" dur="1.8s" begin="0.0s" fill="freeze" /></path><path d="M42.42,29.43c0.33,1.45,0.22,2.69-0.15,4.17C39.38,45,30.75,61.62,15,73.5" class="stroke" stroke-dasharray="150"><set attributeName="opacity" to="0" dur="1.7s" /><animate attributeName="stroke-dashoffset" from="150" to="0" dur="1.8s" begin="1.7s" fill="freeze" /></path><path d="M34.5,56.24c0.71,0.64,1.62,2.13,1.75,2.97c0.87,5.49,1.95,14.48,3.14,24.27c0.2,1.68,0.41,3.36,0.6,5.02" class="stroke" stroke-dasharray="150"><set attributeName="opacity" to="0" dur="3.0s" /><animate attributeName="stroke-dashoffset" from="150" to="0" dur="1.8s" begin="3.0s" fill="freeze" /></path><path d="M35,56.3c12.06-1.23,38.12-3.55,45.33-4.31c3.05-0.32,4.48,2.33,3.94,4.1c-1.56,5.08-3.24,16.32-4.5,24.38" class="stroke" stroke-dasharray="150"><set attributeName="opacity" to="0" dur="4.0s" /><animate attributeName="stroke-dashoffset" from="150" to="0" dur="1.8s" begin="4.0s" fill="freeze" /></path><path d="M40.83,84.37c7.19-0.52,22.62-1.77,34.17-2.38c2.39-0.13,4.6-0.21,6.5-0.24" class="stroke" stroke-dasharray="150"><set attributeName="opacity" to="0" dur="5.7s" /><animate attributeName="stroke-dashoffset" from="150" to="0" dur="1.8s" begin="5.7s" fill="freeze" /></path></svg>