<svg id="kvg-07a7a-Kaisho" class="kanjivg" viewBox="0 0 106 126" width="106" height="106" xmlns="http://www.w3.org/2000/svg" xmlns:xlink="http://www.w3.org/1999/xlink" xml:space="preserve" version="1.1" baseProfile="full"><defs><style type="text/css">path.black{fill:none;stroke:black;stroke-width:5;stroke-linecap:round;stroke-linejoin:round;}path.grey{fill:none;stroke:#ddd;stroke-width:5;stroke-linecap:round;stroke-linejoin:round;}path.stroke{fill:none;stroke:black;stroke-width:5;stroke-linecap:round;stroke-linejoin:round;}text{font-size:16px;font-family:Segoe UI Symbol,Cambria Math,DejaVu Sans,Symbola,Quivira,STIX,Code2000;-webkit-touch-callout:none;cursor:pointer;-webkit-user-select:none;-khtml-user-select:none;-moz-user-select:none;-ms-user-select:none;user-select: none;}text:hover{color:#777;}#reset{font-weight:bold;}</style><marker id="markerStart" markerWidth="8" markerHeight="8" style="overflow:visible;"><circle cx="0" cy="0" r="1.5" style="stroke:none;fill:red;fill-opacity:0.5;"/></marker><marker id="markerEnd" style="overflow:visible;"><circle cx="0" cy="0" r="0.8" style="stroke:none;fill:blue;fill-opacity:0.5;"><animate attributeName="opacity" from="1" to="0" dur="3s" repeatCount="indefinite" /></circle></marker></defs><path d="M48.34,11.75c3.39,1.55,7.28,5.69,8.15,10.03" class="grey" /><path d="M26.57,28.25c0,3.34-2.5,12.52-3.63,14.75" class="grey" /><path d="M29.15,29.75c0.97,0.08,45.48-5.2,51.45-5.5c9.9-0.5,4.15,5-0.6,8.75" class="grey" /><path d="M40.51,39.25c0.08,0.56,0.09,1.44-0.17,2.26C38,48.73,35,54.25,25,61.25" class="grey" /><path d="M59.51,33.22c0.94,1.02,1.68,2.22,1.74,3.78c0.25,7-0.75,13.25,2,15.75c2.63,2.39,17.5,0.5,20.75-0.5" class="grey" /><path d="M32.29,68.97c0.91,0.52,2.89,0.64,3.82,0.53c8.39-1,24.14-2.5,34.53-3.29c1.41-0.11,2.69,0.1,3.86,0.54" class="grey" /><path d="M53.08,70.45c0.96,1.25,0.96,2,0.96,3c0,7,0.15,8.8,0.15,16.8" class="grey" /><path d="M19.5,92.55c0.89,0.32,4.06,1.15,5.56,1.01c13.19-1.3,43.19-4.05,60.94-4.78c2.41-0.1,5.3,0.53,6.5,1.03" class="grey" /><path d="M48.34,11.75c3.39,1.55,7.28,5.69,8.15,10.03" class="stroke" stroke-dasharray="150"><animate attributeName="stroke-dashoffset" from="150" to="0" dur="1.8s" begin="0.0s" fill="freeze" /></path><path d="M26.57,28.25c0,3.34-2.5,12.52-3.63,14.75" class="stroke" stroke-dasharray="150"><set attributeName="opacity" to="0" dur="0.9s" /><animate attributeName="stroke-dashoffset" from="150" to="0" dur="1.8s" begin="0.9s" fill="freeze" /></path><path d="M29.15,29.75c0.97,0.08,45.48-5.2,51.45-5.5c9.9-0.5,4.15,5-0.6,8.75" class="stroke" stroke-dasharray="150"><set attributeName="opacity" to="0" dur="1.8s" /><animate attributeName="stroke-dashoffset" from="150" to="0" dur="1.8s" begin="1.8s" fill="freeze" /></path><path d="M40.51,39.25c0.08,0.56,0.09,1.44-0.17,2.26C38,48.73,35,54.25,25,61.25" class="stroke" stroke-dasharray="150"><set attributeName="opacity" to="0" dur="3.3s" /><animate attributeName="stroke-dashoffset" from="150" to="0" dur="1.8s" begin="3.3s" fill="freeze" /></path><path d="M59.51,33.22c0.94,1.02,1.68,2.22,1.74,3.78c0.25,7-0.75,13.25,2,15.75c2.63,2.39,17.5,0.5,20.75-0.5" class="stroke" stroke-dasharray="150"><set attributeName="opacity" to="0" dur="4.3s" /><animate attributeName="stroke-dashoffset" from="150" to="0" dur="1.8s" begin="4.3s" fill="freeze" /></path><path d="M32.29,68.97c0.91,0.52,2.89,0.64,3.82,0.53c8.39-1,24.14-2.5,34.53-3.29c1.41-0.11,2.69,0.1,3.86,0.54" class="stroke" stroke-dasharray="150"><set attributeName="opacity" to="0" dur="5.4s" /><animate attributeName="stroke-dashoffset" from="150" to="0" dur="1.8s" begin="5.4s" fill="freeze" /></path><path d="M53.08,70.45c0.96,1.25,0.96,2,0.96,3c0,7,0.15,8.8,0.15,16.8" class="stroke" stroke-dasharray="150"><set attributeName="opacity" to="0" dur="6.5s" /><animate attributeName="stroke-dashoffset" from="150" to="0" dur="1.8s" begin="6.5s" fill="freeze" /></path><path d="M19.5,92.55c0.89,0.32,4.06,1.15,5.56,1.01c13.19-1.3,43.19-4.05,60.94-4.78c2.41-0.1,5.3,0.53,6.5,1.03" class="stroke" stroke-dasharray="150"><set attributeName="opacity" to="0" dur="7.5s" /><animate attributeName="stroke-dashoffset" from="150" to="0" dur="1.8s" begin="7.5s" fill="freeze" /></path></svg>