<svg id="kvg-07acb-Kaisho" class="kanjivg" viewBox="0 0 106 126" width="106" height="126" xmlns="http://www.w3.org/2000/svg" xmlns:xlink="http://www.w3.org/1999/xlink" xml:space="preserve" version="1.1" baseProfile="full"><defs><style type="text/css">path.black{fill:none;stroke:black;stroke-width:5;stroke-linecap:round;stroke-linejoin:round;}path.grey{fill:none;stroke:#ddd;stroke-width:5;stroke-linecap:round;stroke-linejoin:round;}path.stroke{fill:none;stroke:black;stroke-width:5;stroke-linecap:round;stroke-linejoin:round;}text{font-size:16px;font-family:Segoe UI Symbol,Cambria Math,DejaVu Sans,Symbola,Quivira,STIX,Code2000;-webkit-touch-callout:none;cursor:pointer;-webkit-user-select:none;-khtml-user-select:none;-moz-user-select:none;-ms-user-select:none;user-select: none;}text:hover{color:#777;}#reset{font-weight:bold;}</style><marker id="markerStart" markerWidth="8" markerHeight="8" style="overflow:visible;"><circle cx="0" cy="0" r="1.5" style="stroke:none;fill:red;fill-opacity:0.5;"/></marker><marker id="markerEnd" style="overflow:visible;"><circle cx="0" cy="0" r="0.8" style="stroke:none;fill:blue;fill-opacity:0.5;"><animate attributeName="opacity" from="1" to="0" dur="3s" repeatCount="indefinite" /></circle></marker></defs><path d="M44.45,14.75c5.44,2.73,11.79,8.94,13.62,15.88" class="grey" /><path d="M22,38.2c2.25,0.3,4.53,0.38,5.68,0.33c6.57-0.28,43.07-4.53,52.99-4.77c1.94-0.05,4.6,0.16,5.57,0.32" class="grey" /><path d="M32,49c5.5,11,9,24.25,9.5,31.5" class="grey" /><path d="M74.5,39c0.75,1.25,0.57,3.29,0.25,4.5C72.25,53,64.5,78,62,84.5" class="grey" /><path d="M15.75,89.3c1.75,0.45,5.17,0.51,6.62,0.39c17.38-1.44,47.88-2.69,66.28-3.5c2.43-0.11,5.35,0.05,7.1,0.88" class="grey" /><path d="M44.45,14.75c5.44,2.73,11.79,8.94,13.62,15.88" class="stroke" stroke-dasharray="150"><animate attributeName="stroke-dashoffset" from="150" to="0" dur="1.8s" begin="0.0s" fill="freeze" /></path><path d="M22,38.2c2.25,0.3,4.53,0.38,5.68,0.33c6.57-0.28,43.07-4.53,52.99-4.77c1.94-0.05,4.6,0.16,5.57,0.32" class="stroke" stroke-dasharray="150"><set attributeName="opacity" to="0" dur="1.0s" /><animate attributeName="stroke-dashoffset" from="150" to="0" dur="1.8s" begin="1.0s" fill="freeze" /></path><path d="M32,49c5.5,11,9,24.25,9.5,31.5" class="stroke" stroke-dasharray="150"><set attributeName="opacity" to="0" dur="2.5s" /><animate attributeName="stroke-dashoffset" from="150" to="0" dur="1.8s" begin="2.5s" fill="freeze" /></path><path d="M74.5,39c0.75,1.25,0.57,3.29,0.25,4.5C72.25,53,64.5,78,62,84.5" class="stroke" stroke-dasharray="150"><set attributeName="opacity" to="0" dur="3.5s" /><animate attributeName="stroke-dashoffset" from="150" to="0" dur="1.8s" begin="3.5s" fill="freeze" /></path><path d="M15.75,89.3c1.75,0.45,5.17,0.51,6.62,0.39c17.38-1.44,47.88-2.69,66.28-3.5c2.43-0.11,5.35,0.05,7.1,0.88" class="stroke" stroke-dasharray="150"><set attributeName="opacity" to="0" dur="4.7s" /><animate attributeName="stroke-dashoffset" from="150" to="0" dur="1.8s" begin="4.7s" fill="freeze" /></path></svg>