<svg id="kvg-07cf8-Kaisho" class="kanjivg" viewBox="0 0 106 126" width="106" height="106" xmlns="http://www.w3.org/2000/svg" xmlns:xlink="http://www.w3.org/1999/xlink" xml:space="preserve" version="1.1" baseProfile="full"><defs><style type="text/css">path.black{fill:none;stroke:black;stroke-width:5;stroke-linecap:round;stroke-linejoin:round;}path.grey{fill:none;stroke:#ddd;stroke-width:5;stroke-linecap:round;stroke-linejoin:round;}path.stroke{fill:none;stroke:black;stroke-width:5;stroke-linecap:round;stroke-linejoin:round;}text{font-size:16px;font-family:Segoe UI Symbol,Cambria Math,DejaVu Sans,Symbola,Quivira,STIX,Code2000;-webkit-touch-callout:none;cursor:pointer;-webkit-user-select:none;-khtml-user-select:none;-moz-user-select:none;-ms-user-select:none;user-select: none;}text:hover{color:#777;}#reset{font-weight:bold;}</style><marker id="markerStart" markerWidth="8" markerHeight="8" style="overflow:visible;"><circle cx="0" cy="0" r="1.5" style="stroke:none;fill:red;fill-opacity:0.5;"/></marker><marker id="markerEnd" style="overflow:visible;"><circle cx="0" cy="0" r="0.8" style="stroke:none;fill:blue;fill-opacity:0.5;"><animate attributeName="opacity" from="1" to="0" dur="3s" repeatCount="indefinite" /></circle></marker></defs><path d="M51,11c0.5,1.5,0.78,2.65-0.25,4.25c-4.5,7-13.5,17-18.5,20.5c-1.02,0.72-0.99,3.47,0,3.75c5.25,1.5,11,4,15.5,6.75" class="grey" /><path d="M70.75,21c0.5,0.75,0.2,2.95-0.5,3.75C59.5,37,47.25,49,33.5,62.25c-1.66,1.6-1,2.5,1,2c8.36-2.09,31.75-7,42.5-9" class="grey" /><path d="M72.5,47.5c3.71,2.78,9.57,11.43,10.5,15.75" class="grey" /><path d="M53,63.25c0.09,0.26,1.17,1.35,1.26,2.99C54.66,74.14,54,91.81,54,94.5c0,13.25-5,3-6.5,1.5" class="grey" /><path d="M33.23,74.41c0.27,0.82,0.23,3.53-0.27,4.12c-3.3,3.85-11.54,11.27-16.21,14.56" class="grey" /><path d="M76.16,73.5c4.38,3.75,11.88,13.75,13.44,17.5" class="grey" /><path d="M51,11c0.5,1.5,0.78,2.65-0.25,4.25c-4.5,7-13.5,17-18.5,20.5c-1.02,0.72-0.99,3.47,0,3.75c5.25,1.5,11,4,15.5,6.75" class="stroke" stroke-dasharray="150"><animate attributeName="stroke-dashoffset" from="150" to="0" dur="1.8s" begin="0.0s" fill="freeze" /></path><path d="M70.75,21c0.5,0.75,0.2,2.95-0.5,3.75C59.5,37,47.25,49,33.5,62.25c-1.66,1.6-1,2.5,1,2c8.36-2.09,31.75-7,42.5-9" class="stroke" stroke-dasharray="150"><set attributeName="opacity" to="0" dur="1.3s" /><animate attributeName="stroke-dashoffset" from="150" to="0" dur="1.8s" begin="1.3s" fill="freeze" /></path><path d="M72.5,47.5c3.71,2.78,9.57,11.43,10.5,15.75" class="stroke" stroke-dasharray="150"><set attributeName="opacity" to="0" dur="3.2s" /><animate attributeName="stroke-dashoffset" from="150" to="0" dur="1.8s" begin="3.2s" fill="freeze" /></path><path d="M53,63.25c0.09,0.26,1.17,1.35,1.26,2.99C54.66,74.14,54,91.81,54,94.5c0,13.25-5,3-6.5,1.5" class="stroke" stroke-dasharray="150"><set attributeName="opacity" to="0" dur="4.1000000000000005s" /><animate attributeName="stroke-dashoffset" from="150" to="0" dur="1.8s" begin="4.1000000000000005s" fill="freeze" /></path><path d="M33.23,74.41c0.27,0.82,0.23,3.53-0.27,4.12c-3.3,3.85-11.54,11.27-16.21,14.56" class="stroke" stroke-dasharray="150"><set attributeName="opacity" to="0" dur="5.300000000000001s" /><animate attributeName="stroke-dashoffset" from="150" to="0" dur="1.8s" begin="5.300000000000001s" fill="freeze" /></path><path d="M76.16,73.5c4.38,3.75,11.88,13.75,13.44,17.5" class="stroke" stroke-dasharray="150"><set attributeName="opacity" to="0" dur="6.300000000000001s" /><animate attributeName="stroke-dashoffset" from="150" to="0" dur="1.8s" begin="6.300000000000001s" fill="freeze" /></path></svg>