<svg id="kvg-082b1" class="kanjivg" viewBox="0 0 106 126" width="106" height="126" xmlns="http://www.w3.org/2000/svg" xmlns:xlink="http://www.w3.org/1999/xlink" xml:space="preserve" version="1.1" baseProfile="full"><defs><style type="text/css">path.black{fill:none;stroke:black;stroke-width:5;stroke-linecap:round;stroke-linejoin:round;}path.grey{fill:none;stroke:#ddd;stroke-width:5;stroke-linecap:round;stroke-linejoin:round;}path.stroke{fill:none;stroke:black;stroke-width:5;stroke-linecap:round;stroke-linejoin:round;}text{font-size:16px;font-family:Segoe UI Symbol,Cambria Math,DejaVu Sans,Symbola,Quivira,STIX,Code2000;-webkit-touch-callout:none;cursor:pointer;-webkit-user-select:none;-khtml-user-select:none;-moz-user-select:none;-ms-user-select:none;user-select: none;}text:hover{color:#777;}#reset{font-weight:bold;}</style><marker id="markerStart" markerWidth="8" markerHeight="8" style="overflow:visible;"><circle cx="0" cy="0" r="1.5" style="stroke:none;fill:red;fill-opacity:0.5;"/></marker><marker id="markerEnd" style="overflow:visible;"><circle cx="0" cy="0" r="0.8" style="stroke:none;fill:blue;fill-opacity:0.5;"><animate attributeName="opacity" from="1" to="0" dur="3s" repeatCount="indefinite" /></circle></marker></defs><path d="M17,29.77c3,0.73,6.35,0.54,9.37,0.29c16.22-1.35,36.31-4.64,56.76-4.79c2.4-0.02,4.77,0.04,7.12,0.51" class="grey" /><path d="M32.25,16c1.25,0.5,2.25,1.62,2.5,2.75c1.33,5.97,4.86,19.92,5,20.75" class="grey" /><path d="M71.25,12.5c0.42,1.18,0.47,3.05,0,4.5c-2.19,6.77-6.14,19.12-6.75,20.75" class="grey" /><path d="M38.25,48.25c0.25,1.75-0.37,3.31-0.98,4.44C33.25,60,24.8,69.67,19.5,74.5" class="grey" /><path d="M30.75,65.5c0.75,1,1.12,1.97,1.12,3c0,6.64-0.08,16.47-0.11,24c-0.01,1.96-0.01,3.82-0.01,5.5" class="grey" /><path d="M84.25,50.25c-0.12,1.62-0.84,2.87-2,3.75c-4.62,3.5-11,6.75-19,9.75" class="grey" /><path d="M58.25,43.75c1.06,1.06,1.5,2.5,1.5,4.75c0,2.96-0.22,20.59-0.22,31.25C59.53,93,63,94.15,77,94.15c16.25,0,18-2.65,18-11.15" class="grey" /><path d="M17,29.77c3,0.73,6.35,0.54,9.37,0.29c16.22-1.35,36.31-4.64,56.76-4.79c2.4-0.02,4.77,0.04,7.12,0.51" class="stroke" stroke-dasharray="150"><animate attributeName="stroke-dashoffset" from="150" to="0" dur="1.8s" begin="0.0s" fill="freeze" /></path><path d="M32.25,16c1.25,0.5,2.25,1.62,2.5,2.75c1.33,5.97,4.86,19.92,5,20.75" class="stroke" stroke-dasharray="150"><set attributeName="opacity" to="0" dur="1.7s" /><animate attributeName="stroke-dashoffset" from="150" to="0" dur="1.8s" begin="1.7s" fill="freeze" /></path><path d="M71.25,12.5c0.42,1.18,0.47,3.05,0,4.5c-2.19,6.77-6.14,19.12-6.75,20.75" class="stroke" stroke-dasharray="150"><set attributeName="opacity" to="0" dur="2.7s" /><animate attributeName="stroke-dashoffset" from="150" to="0" dur="1.8s" begin="2.7s" fill="freeze" /></path><path d="M38.25,48.25c0.25,1.75-0.37,3.31-0.98,4.44C33.25,60,24.8,69.67,19.5,74.5" class="stroke" stroke-dasharray="150"><set attributeName="opacity" to="0" dur="3.7s" /><animate attributeName="stroke-dashoffset" from="150" to="0" dur="1.8s" begin="3.7s" fill="freeze" /></path><path d="M30.75,65.5c0.75,1,1.12,1.97,1.12,3c0,6.64-0.08,16.47-0.11,24c-0.01,1.96-0.01,3.82-0.01,5.5" class="stroke" stroke-dasharray="150"><set attributeName="opacity" to="0" dur="4.7s" /><animate attributeName="stroke-dashoffset" from="150" to="0" dur="1.8s" begin="4.7s" fill="freeze" /></path><path d="M84.25,50.25c-0.12,1.62-0.84,2.87-2,3.75c-4.62,3.5-11,6.75-19,9.75" class="stroke" stroke-dasharray="150"><set attributeName="opacity" to="0" dur="5.7s" /><animate attributeName="stroke-dashoffset" from="150" to="0" dur="1.8s" begin="5.7s" fill="freeze" /></path><path d="M58.25,43.75c1.06,1.06,1.5,2.5,1.5,4.75c0,2.96-0.22,20.59-0.22,31.25C59.53,93,63,94.15,77,94.15c16.25,0,18-2.65,18-11.15" class="stroke" stroke-dasharray="150"><set attributeName="opacity" to="0" dur="6.7s" /><animate attributeName="stroke-dashoffset" from="150" to="0" dur="1.8s" begin="6.7s" fill="freeze" /></path></svg>