<svg id="kvg-08349" class="kanjivg" viewBox="0 0 106 126" width="106" height="126" xmlns="http://www.w3.org/2000/svg" xmlns:xlink="http://www.w3.org/1999/xlink" xml:space="preserve" version="1.1" baseProfile="full"><defs><style type="text/css">path.black{fill:none;stroke:black;stroke-width:5;stroke-linecap:round;stroke-linejoin:round;}path.grey{fill:none;stroke:#ddd;stroke-width:5;stroke-linecap:round;stroke-linejoin:round;}path.stroke{fill:none;stroke:black;stroke-width:5;stroke-linecap:round;stroke-linejoin:round;}text{font-size:16px;font-family:Segoe UI Symbol,Cambria Math,DejaVu Sans,Symbola,Quivira,STIX,Code2000;-webkit-touch-callout:none;cursor:pointer;-webkit-user-select:none;-khtml-user-select:none;-moz-user-select:none;-ms-user-select:none;user-select: none;}text:hover{color:#777;}#reset{font-weight:bold;}</style><marker id="markerStart" markerWidth="8" markerHeight="8" style="overflow:visible;"><circle cx="0" cy="0" r="1.5" style="stroke:none;fill:red;fill-opacity:0.5;"/></marker><marker id="markerEnd" style="overflow:visible;"><circle cx="0" cy="0" r="0.8" style="stroke:none;fill:blue;fill-opacity:0.5;"><animate attributeName="opacity" from="1" to="0" dur="3s" repeatCount="indefinite" /></circle></marker></defs><path d="M19.62,24.14c2.75,0.7,5.46,0.47,8.25,0.22c14.47-1.31,38.06-3.33,54-3.91c2.84-0.1,5.57-0.05,8.38,0.37" class="grey" /><path d="M40,14.12c1,0.88,1.56,2.03,1.67,2.75c0.99,6.74,1.59,12.93,1.88,15.38" class="grey" /><path d="M67.34,10.88c0.53,0.88,0.55,2.05,0.34,3.18c-1.19,6.49-2.46,11.76-3.43,15.9" class="grey" /><path d="M31.25,38.22c0.77,0.77,1.5,2.03,1.8,3.69c0.75,4.08,2.31,13.24,3.34,19.81c0.36,2.28,0.61,2.53,0.82,4.03" class="grey" /><path d="M33.27,39.47c12.1-1.34,38.03-4.49,41.29-4.48C76.88,35,78.54,36.4,78,39.04c-0.87,4.21-2.32,12.1-3.89,19.44c-0.32,1.47-0.61,2.77-0.86,3.77" class="grey" /><path d="M35.78,50.62c7.22-0.62,30.84-3,39.2-3.26" class="grey" /><path d="M37.62,63c10.62-1,29.12-3,35.24-3.2" class="grey" /><path d="M17.63,77c3.15,0.81,6.54,0.59,9.74,0.36c20.78-1.5,37.31-3.46,56.75-3.95c3.33-0.08,6.58-0.07,9.88,0.44" class="grey" /><path d="M54.5,64.25c0.75,0.75,1.19,2,1.19,3.56c0,0.59,0,17.13-0.07,26.19c-0.02,2.5-0.04,4.49-0.05,5.5" class="grey" /><path d="M19.62,24.14c2.75,0.7,5.46,0.47,8.25,0.22c14.47-1.31,38.06-3.33,54-3.91c2.84-0.1,5.57-0.05,8.38,0.37" class="stroke" stroke-dasharray="150"><animate attributeName="stroke-dashoffset" from="150" to="0" dur="1.8s" begin="0.0s" fill="freeze" /></path><path d="M40,14.12c1,0.88,1.56,2.03,1.67,2.75c0.99,6.74,1.59,12.93,1.88,15.38" class="stroke" stroke-dasharray="150"><set attributeName="opacity" to="0" dur="1.7s" /><animate attributeName="stroke-dashoffset" from="150" to="0" dur="1.8s" begin="1.7s" fill="freeze" /></path><path d="M67.34,10.88c0.53,0.88,0.55,2.05,0.34,3.18c-1.19,6.49-2.46,11.76-3.43,15.9" class="stroke" stroke-dasharray="150"><set attributeName="opacity" to="0" dur="2.6s" /><animate attributeName="stroke-dashoffset" from="150" to="0" dur="1.8s" begin="2.6s" fill="freeze" /></path><path d="M31.25,38.22c0.77,0.77,1.5,2.03,1.8,3.69c0.75,4.08,2.31,13.24,3.34,19.81c0.36,2.28,0.61,2.53,0.82,4.03" class="stroke" stroke-dasharray="150"><set attributeName="opacity" to="0" dur="3.5s" /><animate attributeName="stroke-dashoffset" from="150" to="0" dur="1.8s" begin="3.5s" fill="freeze" /></path><path d="M33.27,39.47c12.1-1.34,38.03-4.49,41.29-4.48C76.88,35,78.54,36.4,78,39.04c-0.87,4.21-2.32,12.1-3.89,19.44c-0.32,1.47-0.61,2.77-0.86,3.77" class="stroke" stroke-dasharray="150"><set attributeName="opacity" to="0" dur="4.5s" /><animate attributeName="stroke-dashoffset" from="150" to="0" dur="1.8s" begin="4.5s" fill="freeze" /></path><path d="M35.78,50.62c7.22-0.62,30.84-3,39.2-3.26" class="stroke" stroke-dasharray="150"><set attributeName="opacity" to="0" dur="6.2s" /><animate attributeName="stroke-dashoffset" from="150" to="0" dur="1.8s" begin="6.2s" fill="freeze" /></path><path d="M37.62,63c10.62-1,29.12-3,35.24-3.2" class="stroke" stroke-dasharray="150"><set attributeName="opacity" to="0" dur="7.2s" /><animate attributeName="stroke-dashoffset" from="150" to="0" dur="1.8s" begin="7.2s" fill="freeze" /></path><path d="M17.63,77c3.15,0.81,6.54,0.59,9.74,0.36c20.78-1.5,37.31-3.46,56.75-3.95c3.33-0.08,6.58-0.07,9.88,0.44" class="stroke" stroke-dasharray="150"><set attributeName="opacity" to="0" dur="8.2s" /><animate attributeName="stroke-dashoffset" from="150" to="0" dur="1.8s" begin="8.2s" fill="freeze" /></path><path d="M54.5,64.25c0.75,0.75,1.19,2,1.19,3.56c0,0.59,0,17.13-0.07,26.19c-0.02,2.5-0.04,4.49-0.05,5.5" class="stroke" stroke-dasharray="150"><set attributeName="opacity" to="0" dur="9.899999999999999s" /><animate attributeName="stroke-dashoffset" from="150" to="0" dur="1.8s" begin="9.899999999999999s" fill="freeze" /></path></svg>