<svg id="kvg-0866b" class="kanjivg" viewBox="0 0 106 126" width="106" height="106" xmlns="http://www.w3.org/2000/svg" xmlns:xlink="http://www.w3.org/1999/xlink" xml:space="preserve" version="1.1" baseProfile="full"><defs><style type="text/css">path.black{fill:none;stroke:black;stroke-width:5;stroke-linecap:round;stroke-linejoin:round;}path.grey{fill:none;stroke:#ddd;stroke-width:5;stroke-linecap:round;stroke-linejoin:round;}path.stroke{fill:none;stroke:black;stroke-width:5;stroke-linecap:round;stroke-linejoin:round;}text{font-size:16px;font-family:Segoe UI Symbol,Cambria Math,DejaVu Sans,Symbola,Quivira,STIX,Code2000;-webkit-touch-callout:none;cursor:pointer;-webkit-user-select:none;-khtml-user-select:none;-moz-user-select:none;-ms-user-select:none;user-select: none;}text:hover{color:#777;}#reset{font-weight:bold;}</style><marker id="markerStart" markerWidth="8" markerHeight="8" style="overflow:visible;"><circle cx="0" cy="0" r="1.5" style="stroke:none;fill:red;fill-opacity:0.5;"/></marker><marker id="markerEnd" style="overflow:visible;"><circle cx="0" cy="0" r="0.8" style="stroke:none;fill:blue;fill-opacity:0.5;"><animate attributeName="opacity" from="1" to="0" dur="3s" repeatCount="indefinite" /></circle></marker></defs><path d="M23.64,36.26c0.8,0.8,1.49,1.74,1.7,2.54c1.23,4.63,2.06,10.62,3.38,18.66c0.25,1.52,0.51,3.11,0.78,4.78" class="grey" /><path d="M25.76,38.04c14.91-1.35,45.03-4.16,53.74-4.54c3.84-0.17,4.01,1.78,3.63,4.25c-0.68,4.46-2.51,12.12-4.07,17.32" class="grey" /><path d="M30,60c9.65-0.99,29.67-2.45,44.76-3.49c2.03-0.14,3.98-0.27,5.79-0.4" class="grey" /><path d="M52.51,16.12c1,1,1.67,2.84,1.67,3.99c0,5.39,0.08,62.61,0.04,63.63" class="grey" /><path d="M22.75,89.75c1.31,1.31,3,1.5,4.25,1.25s47-10.5,54.75-12.5" class="grey" /><path d="M74.96,69.87c5.12,3.62,12.42,14.38,14.5,20.5" class="grey" /><path d="M23.64,36.26c0.8,0.8,1.49,1.74,1.7,2.54c1.23,4.63,2.06,10.62,3.38,18.66c0.25,1.52,0.51,3.11,0.78,4.78" class="stroke" stroke-dasharray="150"><animate attributeName="stroke-dashoffset" from="150" to="0" dur="1.8s" begin="0.0s" fill="freeze" /></path><path d="M25.76,38.04c14.91-1.35,45.03-4.16,53.74-4.54c3.84-0.17,4.01,1.78,3.63,4.25c-0.68,4.46-2.51,12.12-4.07,17.32" class="stroke" stroke-dasharray="150"><set attributeName="opacity" to="0" dur="1.0s" /><animate attributeName="stroke-dashoffset" from="150" to="0" dur="1.8s" begin="1.0s" fill="freeze" /></path><path d="M30,60c9.65-0.99,29.67-2.45,44.76-3.49c2.03-0.14,3.98-0.27,5.79-0.4" class="stroke" stroke-dasharray="150"><set attributeName="opacity" to="0" dur="2.7s" /><animate attributeName="stroke-dashoffset" from="150" to="0" dur="1.8s" begin="2.7s" fill="freeze" /></path><path d="M52.51,16.12c1,1,1.67,2.84,1.67,3.99c0,5.39,0.08,62.61,0.04,63.63" class="stroke" stroke-dasharray="150"><set attributeName="opacity" to="0" dur="4.0s" /><animate attributeName="stroke-dashoffset" from="150" to="0" dur="1.8s" begin="4.0s" fill="freeze" /></path><path d="M22.75,89.75c1.31,1.31,3,1.5,4.25,1.25s47-10.5,54.75-12.5" class="stroke" stroke-dasharray="150"><set attributeName="opacity" to="0" dur="5.5s" /><animate attributeName="stroke-dashoffset" from="150" to="0" dur="1.8s" begin="5.5s" fill="freeze" /></path><path d="M74.96,69.87c5.12,3.62,12.42,14.38,14.5,20.5" class="stroke" stroke-dasharray="150"><set attributeName="opacity" to="0" dur="7.0s" /><animate attributeName="stroke-dashoffset" from="150" to="0" dur="1.8s" begin="7.0s" fill="freeze" /></path></svg>