<svg id="kvg-0898b-Kaisho" class="kanjivg" viewBox="0 0 106 126" width="106" height="106" xmlns="http://www.w3.org/2000/svg" xmlns:xlink="http://www.w3.org/1999/xlink" xml:space="preserve" version="1.1" baseProfile="full"><defs><style type="text/css">path.black{fill:none;stroke:black;stroke-width:5;stroke-linecap:round;stroke-linejoin:round;}path.grey{fill:none;stroke:#ddd;stroke-width:5;stroke-linecap:round;stroke-linejoin:round;}path.stroke{fill:none;stroke:black;stroke-width:5;stroke-linecap:round;stroke-linejoin:round;}text{font-size:16px;font-family:Segoe UI Symbol,Cambria Math,DejaVu Sans,Symbola,Quivira,STIX,Code2000;-webkit-touch-callout:none;cursor:pointer;-webkit-user-select:none;-khtml-user-select:none;-moz-user-select:none;-ms-user-select:none;user-select: none;}text:hover{color:#777;}#reset{font-weight:bold;}</style><marker id="markerStart" markerWidth="8" markerHeight="8" style="overflow:visible;"><circle cx="0" cy="0" r="1.5" style="stroke:none;fill:red;fill-opacity:0.5;"/></marker><marker id="markerEnd" style="overflow:visible;"><circle cx="0" cy="0" r="0.8" style="stroke:none;fill:blue;fill-opacity:0.5;"><animate attributeName="opacity" from="1" to="0" dur="3s" repeatCount="indefinite" /></circle></marker></defs><path d="M32.5,15.21c0.58,1.06,1.43,1.85,1.43,3.27c0,1.42-0.69,43.85-0.5,45.27" class="grey" /><path d="M34.9,16.65c3.29-0.18,28.35-3.44,31.35-3.65c2.5-0.18,4.26,0.76,4.26,3.3c0,3.96-1.16,43.19-1.16,44.25" class="grey" /><path d="M33.84,31.1c5.93,0,11.98-1.05,17.86-1.69c1.95-0.21,3.9-0.42,5.77-0.62" class="grey" /><path d="M34.11,44.63c5.67,0,12.4-0.93,18.02-1.56c1.75-0.2,3.52-0.39,5.24-0.57" class="grey" /><path d="M33.96,59.66c6.54,0,26.03-2.12,34.49-2.12" class="grey" /><path d="M41.49,66.5c0.08,0.76,0.17,1.96-0.16,3.04c-1.93,6.42-12.1,21.72-28.16,29.12" class="grey" /><path d="M54.49,60.37c0.74,1.19,1.33,2.59,1.38,4.43c0.2,8.19,0.04,7.2,0.04,19.2s6.23,11.8,18.54,11.53s16.09-1.68,17.45-2.62c2.89-2,2.1-3,2.36-6.5" class="grey" /><path d="M32.5,15.21c0.58,1.06,1.43,1.85,1.43,3.27c0,1.42-0.69,43.85-0.5,45.27" class="stroke" stroke-dasharray="150"><animate attributeName="stroke-dashoffset" from="150" to="0" dur="1.8s" begin="0.0s" fill="freeze" /></path><path d="M34.9,16.65c3.29-0.18,28.35-3.44,31.35-3.65c2.5-0.18,4.26,0.76,4.26,3.3c0,3.96-1.16,43.19-1.16,44.25" class="stroke" stroke-dasharray="150"><set attributeName="opacity" to="0" dur="1.2s" /><animate attributeName="stroke-dashoffset" from="150" to="0" dur="1.8s" begin="1.2s" fill="freeze" /></path><path d="M33.84,31.1c5.93,0,11.98-1.05,17.86-1.69c1.95-0.21,3.9-0.42,5.77-0.62" class="stroke" stroke-dasharray="150"><set attributeName="opacity" to="0" dur="2.9s" /><animate attributeName="stroke-dashoffset" from="150" to="0" dur="1.8s" begin="2.9s" fill="freeze" /></path><path d="M34.11,44.63c5.67,0,12.4-0.93,18.02-1.56c1.75-0.2,3.52-0.39,5.24-0.57" class="stroke" stroke-dasharray="150"><set attributeName="opacity" to="0" dur="3.9s" /><animate attributeName="stroke-dashoffset" from="150" to="0" dur="1.8s" begin="3.9s" fill="freeze" /></path><path d="M33.96,59.66c6.54,0,26.03-2.12,34.49-2.12" class="stroke" stroke-dasharray="150"><set attributeName="opacity" to="0" dur="4.9s" /><animate attributeName="stroke-dashoffset" from="150" to="0" dur="1.8s" begin="4.9s" fill="freeze" /></path><path d="M41.49,66.5c0.08,0.76,0.17,1.96-0.16,3.04c-1.93,6.42-12.1,21.72-28.16,29.12" class="stroke" stroke-dasharray="150"><set attributeName="opacity" to="0" dur="5.9s" /><animate attributeName="stroke-dashoffset" from="150" to="0" dur="1.8s" begin="5.9s" fill="freeze" /></path><path d="M54.49,60.37c0.74,1.19,1.33,2.59,1.38,4.43c0.2,8.19,0.04,7.2,0.04,19.2s6.23,11.8,18.54,11.53s16.09-1.68,17.45-2.62c2.89-2,2.1-3,2.36-6.5" class="stroke" stroke-dasharray="150"><set attributeName="opacity" to="0" dur="7.0s" /><animate attributeName="stroke-dashoffset" from="150" to="0" dur="1.8s" begin="7.0s" fill="freeze" /></path></svg>