<svg id="kvg-08eca-Kaisho" class="kanjivg" viewBox="0 0 106 126" width="106" height="126" xmlns="http://www.w3.org/2000/svg" xmlns:xlink="http://www.w3.org/1999/xlink" xml:space="preserve" version="1.1" baseProfile="full"><defs><style type="text/css">path.black{fill:none;stroke:black;stroke-width:5;stroke-linecap:round;stroke-linejoin:round;}path.grey{fill:none;stroke:#ddd;stroke-width:5;stroke-linecap:round;stroke-linejoin:round;}path.stroke{fill:none;stroke:black;stroke-width:5;stroke-linecap:round;stroke-linejoin:round;}text{font-size:16px;font-family:Segoe UI Symbol,Cambria Math,DejaVu Sans,Symbola,Quivira,STIX,Code2000;-webkit-touch-callout:none;cursor:pointer;-webkit-user-select:none;-khtml-user-select:none;-moz-user-select:none;-ms-user-select:none;user-select: none;}text:hover{color:#777;}#reset{font-weight:bold;}</style><marker id="markerStart" markerWidth="8" markerHeight="8" style="overflow:visible;"><circle cx="0" cy="0" r="1.5" style="stroke:none;fill:red;fill-opacity:0.5;"/></marker><marker id="markerEnd" style="overflow:visible;"><circle cx="0" cy="0" r="0.8" style="stroke:none;fill:blue;fill-opacity:0.5;"><animate attributeName="opacity" from="1" to="0" dur="3s" repeatCount="indefinite" /></circle></marker></defs><path d="M26.25,26.5c1.03,0.38,2.93,0.51,3.96,0.38C45.25,25,63.25,23.5,77.89,22.5c1.72-0.12,2.75,0.18,3.61,0.37" class="grey" /><path d="M27.5,37.42c0.81,0.5,1.83,2.39,1.98,3.05c1.09,4.81,2.41,15.17,3.95,24.28" class="grey" /><path d="M30.61,39.24c12.27-0.96,38.51-3.85,46.88-4c3.46-0.06,4.17,1.32,4.03,2.83C81,43.25,79.75,51.75,77,60.25" class="grey" /><path d="M33.5,51.25c11-1.25,20.01-2.28,28.73-3.13c1.07-0.1,3.16-0.21,4.25-0.3" class="grey" /><path d="M33.5,63.25c10.75-1,29.5-4,43.5-4" class="grey" /><path d="M16,78.04c1.47,0.77,4.16,0.95,5.64,0.77C40.5,76.5,69.25,73.5,86.6,73c2.45-0.07,3.93,0.37,5.15,0.75" class="grey" /><path d="M52.06,11.63c0.76,0.6,2.36,4.47,2.51,5.66c0.15,1.19-0.1,72.13-0.25,79.59" class="grey" /><path d="M26.25,26.5c1.03,0.38,2.93,0.51,3.96,0.38C45.25,25,63.25,23.5,77.89,22.5c1.72-0.12,2.75,0.18,3.61,0.37" class="stroke" stroke-dasharray="150"><animate attributeName="stroke-dashoffset" from="150" to="0" dur="1.8s" begin="0.0s" fill="freeze" /></path><path d="M27.5,37.42c0.81,0.5,1.83,2.39,1.98,3.05c1.09,4.81,2.41,15.17,3.95,24.28" class="stroke" stroke-dasharray="150"><set attributeName="opacity" to="0" dur="1.4s" /><animate attributeName="stroke-dashoffset" from="150" to="0" dur="1.8s" begin="1.4s" fill="freeze" /></path><path d="M30.61,39.24c12.27-0.96,38.51-3.85,46.88-4c3.46-0.06,4.17,1.32,4.03,2.83C81,43.25,79.75,51.75,77,60.25" class="stroke" stroke-dasharray="150"><set attributeName="opacity" to="0" dur="2.4s" /><animate attributeName="stroke-dashoffset" from="150" to="0" dur="1.8s" begin="2.4s" fill="freeze" /></path><path d="M33.5,51.25c11-1.25,20.01-2.28,28.73-3.13c1.07-0.1,3.16-0.21,4.25-0.3" class="stroke" stroke-dasharray="150"><set attributeName="opacity" to="0" dur="4.1s" /><animate attributeName="stroke-dashoffset" from="150" to="0" dur="1.8s" begin="4.1s" fill="freeze" /></path><path d="M33.5,63.25c10.75-1,29.5-4,43.5-4" class="stroke" stroke-dasharray="150"><set attributeName="opacity" to="0" dur="5.1s" /><animate attributeName="stroke-dashoffset" from="150" to="0" dur="1.8s" begin="5.1s" fill="freeze" /></path><path d="M16,78.04c1.47,0.77,4.16,0.95,5.64,0.77C40.5,76.5,69.25,73.5,86.6,73c2.45-0.07,3.93,0.37,5.15,0.75" class="stroke" stroke-dasharray="150"><set attributeName="opacity" to="0" dur="6.199999999999999s" /><animate attributeName="stroke-dashoffset" from="150" to="0" dur="1.8s" begin="6.199999999999999s" fill="freeze" /></path><path d="M52.06,11.63c0.76,0.6,2.36,4.47,2.51,5.66c0.15,1.19-0.1,72.13-0.25,79.59" class="stroke" stroke-dasharray="150"><set attributeName="opacity" to="0" dur="7.8999999999999995s" /><animate attributeName="stroke-dashoffset" from="150" to="0" dur="1.8s" begin="7.8999999999999995s" fill="freeze" /></path></svg>