<svg id="kvg-09752-Kaisho" class="kanjivg" viewBox="0 0 106 126" width="106" height="126" xmlns="http://www.w3.org/2000/svg" xmlns:xlink="http://www.w3.org/1999/xlink" xml:space="preserve" version="1.1" baseProfile="full"><defs><style type="text/css">path.black{fill:none;stroke:black;stroke-width:5;stroke-linecap:round;stroke-linejoin:round;}path.grey{fill:none;stroke:#ddd;stroke-width:5;stroke-linecap:round;stroke-linejoin:round;}path.stroke{fill:none;stroke:black;stroke-width:5;stroke-linecap:round;stroke-linejoin:round;}text{font-size:16px;font-family:Segoe UI Symbol,Cambria Math,DejaVu Sans,Symbola,Quivira,STIX,Code2000;-webkit-touch-callout:none;cursor:pointer;-webkit-user-select:none;-khtml-user-select:none;-moz-user-select:none;-ms-user-select:none;user-select: none;}text:hover{color:#777;}#reset{font-weight:bold;}</style><marker id="markerStart" markerWidth="8" markerHeight="8" style="overflow:visible;"><circle cx="0" cy="0" r="1.5" style="stroke:none;fill:red;fill-opacity:0.5;"/></marker><marker id="markerEnd" style="overflow:visible;"><circle cx="0" cy="0" r="0.8" style="stroke:none;fill:blue;fill-opacity:0.5;"><animate attributeName="opacity" from="1" to="0" dur="3s" repeatCount="indefinite" /></circle></marker></defs><path d="M32.63,21.67c0.94,0.38,2.66,0.46,3.6,0.38c6.77-0.55,31.52-2.8,37.36-3.38c1.56-0.16,2.21-0.09,3.03-0.02" class="grey" /><path d="M51.56,8.38c0.76,0.26,2.36,1.91,2.51,2.42c0.15,0.51,0.35,25.06,0.43,33.19" class="grey" /><path d="M34.38,33.28c0.94,0.28,2.66,0.34,3.6,0.28c6.77-0.4,27.52-3.49,33.36-3.92c1.56-0.11,2.71-0.06,3.53-0.02" class="grey" /><path d="M15.63,47.5c1.47,0.3,4.15,0.36,5.62,0.3c10.56-0.43,56.76-6.05,68.52-6.3c2.43-0.05,5.98-0.25,7.73,0.48" class="grey" /><path d="M36.51,54.94c0.67,0.59,1.34,2.14,1.34,2.77c0,5.8,0.65,27.55-0.35,40.05" class="grey" /><path d="M38.2,56.03c2.69-0.15,28.34-2.63,30.33-2.8c3.58-0.29,4.93,1.91,4.48,2.8c-0.43,0.85-0.67,25.98-0.67,37.9c0,10.58-6.72,2.06-7.61,1.32" class="grey" /><path d="M39.2,67.86c4.98,0,10.04-0.82,14.98-1.32c1.64-0.17,3.3-0.33,4.94-0.49" class="grey" /><path d="M39.87,78.98c4.88,0,9.79-0.62,14.64-1.03c1.53-0.13,3.08-0.26,4.61-0.38" class="grey" /><path d="M32.63,21.67c0.94,0.38,2.66,0.46,3.6,0.38c6.77-0.55,31.52-2.8,37.36-3.38c1.56-0.16,2.21-0.09,3.03-0.02" class="stroke" stroke-dasharray="150"><animate attributeName="stroke-dashoffset" from="150" to="0" dur="1.8s" begin="0.0s" fill="freeze" /></path><path d="M51.56,8.38c0.76,0.26,2.36,1.91,2.51,2.42c0.15,0.51,0.35,25.06,0.43,33.19" class="stroke" stroke-dasharray="150"><set attributeName="opacity" to="0" dur="1.1s" /><animate attributeName="stroke-dashoffset" from="150" to="0" dur="1.8s" begin="1.1s" fill="freeze" /></path><path d="M34.38,33.28c0.94,0.28,2.66,0.34,3.6,0.28c6.77-0.4,27.52-3.49,33.36-3.92c1.56-0.11,2.71-0.06,3.53-0.02" class="stroke" stroke-dasharray="150"><set attributeName="opacity" to="0" dur="2.1s" /><animate attributeName="stroke-dashoffset" from="150" to="0" dur="1.8s" begin="2.1s" fill="freeze" /></path><path d="M15.63,47.5c1.47,0.3,4.15,0.36,5.62,0.3c10.56-0.43,56.76-6.05,68.52-6.3c2.43-0.05,5.98-0.25,7.73,0.48" class="stroke" stroke-dasharray="150"><set attributeName="opacity" to="0" dur="3.2s" /><animate attributeName="stroke-dashoffset" from="150" to="0" dur="1.8s" begin="3.2s" fill="freeze" /></path><path d="M36.51,54.94c0.67,0.59,1.34,2.14,1.34,2.77c0,5.8,0.65,27.55-0.35,40.05" class="stroke" stroke-dasharray="150"><set attributeName="opacity" to="0" dur="4.9s" /><animate attributeName="stroke-dashoffset" from="150" to="0" dur="1.8s" begin="4.9s" fill="freeze" /></path><path d="M38.2,56.03c2.69-0.15,28.34-2.63,30.33-2.8c3.58-0.29,4.93,1.91,4.48,2.8c-0.43,0.85-0.67,25.98-0.67,37.9c0,10.58-6.72,2.06-7.61,1.32" class="stroke" stroke-dasharray="150"><set attributeName="opacity" to="0" dur="6.0s" /><animate attributeName="stroke-dashoffset" from="150" to="0" dur="1.8s" begin="6.0s" fill="freeze" /></path><path d="M39.2,67.86c4.98,0,10.04-0.82,14.98-1.32c1.64-0.17,3.3-0.33,4.94-0.49" class="stroke" stroke-dasharray="150"><set attributeName="opacity" to="0" dur="7.7s" /><animate attributeName="stroke-dashoffset" from="150" to="0" dur="1.8s" begin="7.7s" fill="freeze" /></path><path d="M39.87,78.98c4.88,0,9.79-0.62,14.64-1.03c1.53-0.13,3.08-0.26,4.61-0.38" class="stroke" stroke-dasharray="150"><set attributeName="opacity" to="0" dur="8.7s" /><animate attributeName="stroke-dashoffset" from="150" to="0" dur="1.8s" begin="8.7s" fill="freeze" /></path></svg>