<svg id="kvg-097f3-Kaisho" class="kanjivg" viewBox="0 0 106 126" width="106" height="106" xmlns="http://www.w3.org/2000/svg" xmlns:xlink="http://www.w3.org/1999/xlink" xml:space="preserve" version="1.1" baseProfile="full"><defs><style type="text/css">path.black{fill:none;stroke:black;stroke-width:5;stroke-linecap:round;stroke-linejoin:round;}path.grey{fill:none;stroke:#ddd;stroke-width:5;stroke-linecap:round;stroke-linejoin:round;}path.stroke{fill:none;stroke:black;stroke-width:5;stroke-linecap:round;stroke-linejoin:round;}text{font-size:16px;font-family:Segoe UI Symbol,Cambria Math,DejaVu Sans,Symbola,Quivira,STIX,Code2000;-webkit-touch-callout:none;cursor:pointer;-webkit-user-select:none;-khtml-user-select:none;-moz-user-select:none;-ms-user-select:none;user-select: none;}text:hover{color:#777;}#reset{font-weight:bold;}</style><marker id="markerStart" markerWidth="8" markerHeight="8" style="overflow:visible;"><circle cx="0" cy="0" r="1.5" style="stroke:none;fill:red;fill-opacity:0.5;"/></marker><marker id="markerEnd" style="overflow:visible;"><circle cx="0" cy="0" r="0.8" style="stroke:none;fill:blue;fill-opacity:0.5;"><animate attributeName="opacity" from="1" to="0" dur="3s" repeatCount="indefinite" /></circle></marker></defs><path d="M49.64,12.75c4.26,2.23,6.18,5.6,7.41,8.53" class="grey" /><path d="M31,28.5c0.89,0.08,2.94,0.57,3.8,0.42c3.54-0.63,24.24-3.97,41.1-5.54c1.47-0.14,2.36-0.14,3.1-0.12" class="grey" /><path d="M37.25,36.25c3.87,3.4,4.67,6.67,5.23,9.06" class="grey" /><path d="M68,28c1.25,0.75,1.17,2.03,1,2.5c-1.75,4.75-4.53,12.79-5.83,15.5" class="grey" /><path d="M13.75,52c1.57,0.09,3.43,0.12,4.92-0.13c21.83-3.63,40.83-5.63,70.82-6.87c2.58-0.11,5.45,0,7.01,0.54" class="grey" /><path d="M35.05,59.61c0.58,0.74,0.58,0.74,0.58,1.75c0,1.02-0.14,30.36-0.14,31.39" class="grey" /><path d="M37.1,60.79c3.29-0.26,28.93-2.56,31.83-3.18c2.9-0.63,4.45,1.69,4.26,2.97C73,61.85,71.73,90,71.73,93.97" class="grey" /><path d="M37.69,74.5c5.35-0.22,10.7-0.83,16.03-1.29c1.74-0.15,3.47-0.3,5.15-0.44" class="grey" /><path d="M37.11,90.41c6.58-0.27,24.18-2,32.69-2.35" class="grey" /><path d="M49.64,12.75c4.26,2.23,6.18,5.6,7.41,8.53" class="stroke" stroke-dasharray="150"><animate attributeName="stroke-dashoffset" from="150" to="0" dur="1.8s" begin="0.0s" fill="freeze" /></path><path d="M31,28.5c0.89,0.08,2.94,0.57,3.8,0.42c3.54-0.63,24.24-3.97,41.1-5.54c1.47-0.14,2.36-0.14,3.1-0.12" class="stroke" stroke-dasharray="150"><set attributeName="opacity" to="0" dur="0.9s" /><animate attributeName="stroke-dashoffset" from="150" to="0" dur="1.8s" begin="0.9s" fill="freeze" /></path><path d="M37.25,36.25c3.87,3.4,4.67,6.67,5.23,9.06" class="stroke" stroke-dasharray="150"><set attributeName="opacity" to="0" dur="2.1s" /><animate attributeName="stroke-dashoffset" from="150" to="0" dur="1.8s" begin="2.1s" fill="freeze" /></path><path d="M68,28c1.25,0.75,1.17,2.03,1,2.5c-1.75,4.75-4.53,12.79-5.83,15.5" class="stroke" stroke-dasharray="150"><set attributeName="opacity" to="0" dur="3.0s" /><animate attributeName="stroke-dashoffset" from="150" to="0" dur="1.8s" begin="3.0s" fill="freeze" /></path><path d="M13.75,52c1.57,0.09,3.43,0.12,4.92-0.13c21.83-3.63,40.83-5.63,70.82-6.87c2.58-0.11,5.45,0,7.01,0.54" class="stroke" stroke-dasharray="150"><set attributeName="opacity" to="0" dur="3.9s" /><animate attributeName="stroke-dashoffset" from="150" to="0" dur="1.8s" begin="3.9s" fill="freeze" /></path><path d="M35.05,59.61c0.58,0.74,0.58,0.74,0.58,1.75c0,1.02-0.14,30.36-0.14,31.39" class="stroke" stroke-dasharray="150"><set attributeName="opacity" to="0" dur="5.6s" /><animate attributeName="stroke-dashoffset" from="150" to="0" dur="1.8s" begin="5.6s" fill="freeze" /></path><path d="M37.1,60.79c3.29-0.26,28.93-2.56,31.83-3.18c2.9-0.63,4.45,1.69,4.26,2.97C73,61.85,71.73,90,71.73,93.97" class="stroke" stroke-dasharray="150"><set attributeName="opacity" to="0" dur="6.6s" /><animate attributeName="stroke-dashoffset" from="150" to="0" dur="1.8s" begin="6.6s" fill="freeze" /></path><path d="M37.69,74.5c5.35-0.22,10.7-0.83,16.03-1.29c1.74-0.15,3.47-0.3,5.15-0.44" class="stroke" stroke-dasharray="150"><set attributeName="opacity" to="0" dur="8.299999999999999s" /><animate attributeName="stroke-dashoffset" from="150" to="0" dur="1.8s" begin="8.299999999999999s" fill="freeze" /></path><path d="M37.11,90.41c6.58-0.27,24.18-2,32.69-2.35" class="stroke" stroke-dasharray="150"><set attributeName="opacity" to="0" dur="9.299999999999999s" /><animate attributeName="stroke-dashoffset" from="150" to="0" dur="1.8s" begin="9.299999999999999s" fill="freeze" /></path></svg>