<svg id="kvg-097f3" class="kanjivg" viewBox="0 0 106 126" width="106" height="106" xmlns="http://www.w3.org/2000/svg" xmlns:xlink="http://www.w3.org/1999/xlink" xml:space="preserve" version="1.1" baseProfile="full"><defs><style type="text/css">path.black{fill:none;stroke:black;stroke-width:5;stroke-linecap:round;stroke-linejoin:round;}path.grey{fill:none;stroke:#ddd;stroke-width:5;stroke-linecap:round;stroke-linejoin:round;}path.stroke{fill:none;stroke:black;stroke-width:5;stroke-linecap:round;stroke-linejoin:round;}text{font-size:16px;font-family:Segoe UI Symbol,Cambria Math,DejaVu Sans,Symbola,Quivira,STIX,Code2000;-webkit-touch-callout:none;cursor:pointer;-webkit-user-select:none;-khtml-user-select:none;-moz-user-select:none;-ms-user-select:none;user-select: none;}text:hover{color:#777;}#reset{font-weight:bold;}</style><marker id="markerStart" markerWidth="8" markerHeight="8" style="overflow:visible;"><circle cx="0" cy="0" r="1.5" style="stroke:none;fill:red;fill-opacity:0.5;"/></marker><marker id="markerEnd" style="overflow:visible;"><circle cx="0" cy="0" r="0.8" style="stroke:none;fill:blue;fill-opacity:0.5;"><animate attributeName="opacity" from="1" to="0" dur="3s" repeatCount="indefinite" /></circle></marker></defs><path d="M52.97,12.5c0.77,0.77,1.62,2.12,1.62,3.64c0,3.86-0.09,4.61-0.09,9.17" class="grey" /><path d="M29.12,28c1.5,0.5,2.75,0.62,4.61,0.42c11.39-1.29,25.05-3.48,38.89-4.79c2.63-0.25,5.63-0.25,7.38,0.12" class="grey" /><path d="M37.12,35.38c4.15,3.73,5.01,7.31,5.6,9.93" class="grey" /><path d="M67.79,27.5c0.46,0.9,0.57,2.02,0.23,3.14c-1.33,4.34-3.46,10.57-4.64,12.99" class="grey" /><path d="M12.75,50.5c3.65,0.66,7.11,0.39,10.76-0.01c20.16-2.21,40.45-4.53,63.37-5.41c3.4-0.13,7.17-0.48,10.5,0.47" class="grey" /><path d="M34.55,59.11c0.58,0.74,1.08,2.24,1.08,3.25c0,1.02,0.12,28.46,0.12,28.97c0,0.51,0,2.04,0,3.54" class="grey" /><path d="M36.1,60.79c9.52-1.16,26.02-3.04,32.08-3.68c2.95-0.31,4.26,0.27,4.26,3.22c0,0.98-0.11,17.98-0.17,27.68c-0.02,3.04-0.03,5.36-0.03,6.25" class="grey" /><path d="M36.69,74.75c5.44-0.5,29.72-2.64,34.74-2.85" class="grey" /><path d="M37.11,90.41c6.58-0.27,25.43-2.25,33.94-2.6" class="grey" /><path d="M52.97,12.5c0.77,0.77,1.62,2.12,1.62,3.64c0,3.86-0.09,4.61-0.09,9.17" class="stroke" stroke-dasharray="150"><animate attributeName="stroke-dashoffset" from="150" to="0" dur="1.8s" begin="0.0s" fill="freeze" /></path><path d="M29.12,28c1.5,0.5,2.75,0.62,4.61,0.42c11.39-1.29,25.05-3.48,38.89-4.79c2.63-0.25,5.63-0.25,7.38,0.12" class="stroke" stroke-dasharray="150"><set attributeName="opacity" to="0" dur="0.9s" /><animate attributeName="stroke-dashoffset" from="150" to="0" dur="1.8s" begin="0.9s" fill="freeze" /></path><path d="M37.12,35.38c4.15,3.73,5.01,7.31,5.6,9.93" class="stroke" stroke-dasharray="150"><set attributeName="opacity" to="0" dur="2.2s" /><animate attributeName="stroke-dashoffset" from="150" to="0" dur="1.8s" begin="2.2s" fill="freeze" /></path><path d="M67.79,27.5c0.46,0.9,0.57,2.02,0.23,3.14c-1.33,4.34-3.46,10.57-4.64,12.99" class="stroke" stroke-dasharray="150"><set attributeName="opacity" to="0" dur="3.1s" /><animate attributeName="stroke-dashoffset" from="150" to="0" dur="1.8s" begin="3.1s" fill="freeze" /></path><path d="M12.75,50.5c3.65,0.66,7.11,0.39,10.76-0.01c20.16-2.21,40.45-4.53,63.37-5.41c3.4-0.13,7.17-0.48,10.5,0.47" class="stroke" stroke-dasharray="150"><set attributeName="opacity" to="0" dur="4.0s" /><animate attributeName="stroke-dashoffset" from="150" to="0" dur="1.8s" begin="4.0s" fill="freeze" /></path><path d="M34.55,59.11c0.58,0.74,1.08,2.24,1.08,3.25c0,1.02,0.12,28.46,0.12,28.97c0,0.51,0,2.04,0,3.54" class="stroke" stroke-dasharray="150"><set attributeName="opacity" to="0" dur="5.7s" /><animate attributeName="stroke-dashoffset" from="150" to="0" dur="1.8s" begin="5.7s" fill="freeze" /></path><path d="M36.1,60.79c9.52-1.16,26.02-3.04,32.08-3.68c2.95-0.31,4.26,0.27,4.26,3.22c0,0.98-0.11,17.98-0.17,27.68c-0.02,3.04-0.03,5.36-0.03,6.25" class="stroke" stroke-dasharray="150"><set attributeName="opacity" to="0" dur="6.7s" /><animate attributeName="stroke-dashoffset" from="150" to="0" dur="1.8s" begin="6.7s" fill="freeze" /></path><path d="M36.69,74.75c5.44-0.5,29.72-2.64,34.74-2.85" class="stroke" stroke-dasharray="150"><set attributeName="opacity" to="0" dur="8.4s" /><animate attributeName="stroke-dashoffset" from="150" to="0" dur="1.8s" begin="8.4s" fill="freeze" /></path><path d="M37.11,90.41c6.58-0.27,25.43-2.25,33.94-2.6" class="stroke" stroke-dasharray="150"><set attributeName="opacity" to="0" dur="9.4s" /><animate attributeName="stroke-dashoffset" from="150" to="0" dur="1.8s" begin="9.4s" fill="freeze" /></path></svg>