<svg width="72" height="32" viewBox="0 0 72 32" fill="none" xmlns="http://www.w3.org/2000/svg">
<path fill-rule="evenodd" clip-rule="evenodd" d="M32.4205 0L32.2295 0.0383336C31.7922 0.126124 31.3631 0.250882 30.9469 0.411262L30.2778 0.669068L30.2072 0.669005L12.6724 24.3518H23.1432L25.7285 20.8564C25.5723 21.2935 25.4737 21.7491 25.4351 22.2117L25.3994 22.6395L18.9713 31.3309L19.0651 31.1386C19.2849 30.688 19.3725 30.1853 19.3193 29.6887L9.33395 29.6887L11.0434 32L11.0247 31.9851C10.6295 31.6702 10.2048 31.3941 9.75675 31.1606L9.22982 30.886L2.80177 22.1945L2.87146 22.2613C3.36713 22.7364 3.96306 23.0943 4.61536 23.3085L5.2865 24.2161L22.6281 0.669005L17.4217 0.669068L17.7202 0.631498C18.3717 0.549487 18.9994 0.334547 19.5644 0H32.4205Z" fill="black"/>
<path fill-rule="evenodd" clip-rule="evenodd" d="M60.8385 0L60.6475 0.0383336C60.2102 0.126124 59.7811 0.250882 59.3649 0.411262L58.6958 0.669068L58.6252 0.669005L41.0903 24.3518H51.4857L53.1646 22.0365C53.5347 22.0365 53.8942 21.9125 54.1857 21.6843L54.5074 21.4323L47.3893 31.3309L47.4831 31.1386C47.7028 30.688 47.7904 30.1853 47.7373 29.6887L37.7519 29.6887L39.4614 32L39.4427 31.9851C39.0474 31.6702 38.6228 31.3941 38.1747 31.1606L37.6478 30.886L31.2198 22.1945L31.2894 22.2613C31.7851 22.7364 32.381 23.0943 33.0333 23.3085L33.7045 24.2161L51.0461 0.669005L45.8397 0.669068L46.1382 0.631498C46.7897 0.549487 47.4174 0.334547 47.9824 0H60.8385Z" fill="black"/>
<path fill-rule="evenodd" clip-rule="evenodd" d="M32.5762 9.2L33.5639 9.96035L33.6935 9.93365C33.6621 9.95145 33.631 9.96963 33.6001 9.9882L38.1165 13.4651L38.1586 13.7984C38.1962 14.0957 38.2862 14.3839 38.4243 14.6498L37.5441 13.9722L27.2349 27.5932L21.7322 29.6L34.9603 11.9831L32.9692 10.4503C32.9124 10.5005 32.8568 10.5522 32.8026 10.6055L32.5374 10.866L32.453 10.8834L26.1741 19.0367L26.1652 19.05C26.0498 19.2193 25.9279 19.3841 25.7997 19.5439L25.3945 20.049L25.3638 20.089L25.2697 20.1207L18.1687 23.3325L18.2594 23.2656C18.6133 23.0044 18.8652 22.6282 18.972 22.2015L20.4476 21.4877L27.4363 11.9182L24.2484 12.5758L24.3647 12.5266C24.7933 12.3453 25.1562 12.0371 25.4046 11.6435L32.9006 10.0972C32.8895 9.7825 32.7829 9.4761 32.5915 9.22042L32.5762 9.2Z" fill="black"/>
<path fill-rule="evenodd" clip-rule="evenodd" d="M69.2494 20.2442L60.9583 31.17C61.2203 30.6386 61.0228 29.9951 60.5078 29.7022L60.2988 29.5832L52.0329 29.5833L57.4465 26.3861L61.1329 26.3861L63.8293 22.8806L63.2761 22.2357C62.9826 21.9577 62.6235 21.756 62.2302 21.6507L62.1886 21.64L62.028 21.6L62.7316 21.5999L66.0473 21.3858L66.9584 21.2275C67.7682 21.0869 68.5348 20.7629 69.1998 20.2806L69.2494 20.2442ZM71.6453 10.4L71.4836 10.4397C70.9525 10.5702 70.4767 10.8654 70.124 11.2825L70.0965 11.3157L68.0798 11.3372L57.8545 25.0449L50.0251 29.9829L63.6474 11.3846L62.1267 11.4008L56.8743 18.0539L52.5638 19.2903L51.1614 19.823L51.4645 19.5529C51.6636 19.3756 51.8046 19.1426 51.8694 18.884L52.6642 18.5821L57.2472 12.3362L54.2026 12.953L54.3116 12.9062C54.7371 12.7235 55.0964 12.4146 55.3409 12.0213L62.7158 10.5976C62.7283 10.5827 62.7405 10.5675 62.7525 10.5522L71.6453 10.4Z" fill="black"/>
<path fill-rule="evenodd" clip-rule="evenodd" d="M35.6225 29.6L32.5355 25.2L28.418 29.6H35.6225Z" fill="black"/>
<path fill-rule="evenodd" clip-rule="evenodd" d="M7.20456 29.6L4.11753 25.2L0 29.6H7.20456Z" fill="black"/>
<path fill-rule="evenodd" clip-rule="evenodd" d="M22.0139 22.066L23.0961 23.0564C23.43 22.4027 23.891 21.8222 24.452 21.3489L25.5767 20.4L22.0139 22.066Z" fill="black"/>
</svg>
